<svg version="1.1" xmlns="http://www.w3.org/2000/svg" xmlns:xlink="http://www.w3.org/1999/xlink" width="1836" height="1228"><defs/><g><g transform="translate(10,10) scale(1,1)"><path fill="none" stroke="#000000" d="M 0 0 L 1816 0 L 1816 1208 L 0 1208 L 0 0" stroke-miterlimit="10"/></g><g transform="translate(10,10) scale(1,1)"><path fill="#ffffff" stroke="none" d="M 0 0 L 0 26 L 385.8994140625 26 L 398.8994140625 13 L 398.8994140625 0 L 0 0"/></g><g transform="translate(10,10) scale(1,1)"><path fill="none" stroke="#000000" d="M 0 0 L 0 26 L 385.8994140625 26 L 398.8994140625 13 L 398.8994140625 0 L 0 0 L 0 0" stroke-miterlimit="10"/></g><g transform="translate(10,10) scale(1,1)"><g><path fill="none" stroke="none"/><text fill="#000000" stroke="none" font-family="Roboto" font-size="17px" font-style="normal" font-weight="normal" text-decoration="none" x="91.384765625" y="21.5">SequenceDiagram-ThongKeVaBaoCao</text></g></g><g transform="translate(10,10) scale(1,1)"><g><path fill="none" stroke="none"/><text fill="#000000" stroke="none" font-family="Roboto" font-size="17px" font-style="normal" font-weight="bold" text-decoration="none" x="5" y="21.5">interaction</text></g></g><g transform="translate(10,10) scale(1,1)"><path fill="#ffffff" stroke="none" d="M 294.1685653409091 47.3 C 294.1685653409091 43.82060576 297.0469670630909 41 300.59765625 41 C 304.1483454369091 41 307.026747159091 43.82060576 307.026747159091 47.3 C 307.026747159091 50.779394239999995 304.1483454369091 53.6 300.59765625 53.6 C 297.0469670630909 53.6 294.1685653409091 50.779394239999995 294.1685653409091 47.3 Z"/></g><g transform="translate(10,10) scale(1,1)"><path fill="none" stroke="#000000" d="M 294.1685653409091 47.3 C 294.1685653409091 43.82060576 297.0469670630909 41 300.59765625 41 C 304.1483454369091 41 307.026747159091 43.82060576 307.026747159091 47.3 C 307.026747159091 50.779394239999995 304.1483454369091 53.6 300.59765625 53.6 C 297.0469670630909 53.6 294.1685653409091 50.779394239999995 294.1685653409091 47.3 Z" stroke-miterlimit="10"/></g><g transform="translate(10,10) scale(1,1)"><path fill="none" stroke="#000000" d="M 300.59765625 53.6 L 300.59765625 66.4" stroke-miterlimit="10"/></g><g transform="translate(10,10) scale(1,1)"><path fill="none" stroke="#000000" d="M 293.79038352272727 58.4 L 307.4049289772728 58.4" stroke-miterlimit="10"/></g><g transform="translate(10,10) scale(1,1)"><path fill="none" stroke="#000000" d="M 300.59765625 66.4 L 291.14311079545456 79" stroke-miterlimit="10"/></g><g transform="translate(10,10) scale(1,1)"><path fill="none" stroke="#000000" d="M 300.59765625 66.4 L 310.0522017045455 79" stroke-miterlimit="10"/></g><g transform="translate(10,10) scale(1,1)"><g><path fill="none" stroke="none"/><text fill="#000000" stroke="none" font-family="Roboto" font-size="17px" font-style="normal" font-weight="bold" text-decoration="none" x="250.228515625" y="103.5">: QuanTriVien</text></g></g><g transform="translate(10,10) scale(1,1)"><path fill="none" stroke="#000000" d="M 301.5 109 L 301.5 1176" stroke-miterlimit="10" stroke-dasharray="3"/></g><g transform="translate(10,10) scale(1,1)"><rect fill="#C0C0C0" stroke="none" x="583" y="47" width="102.638671875" height="39" opacity="0.2"/></g><g transform="translate(10,10) scale(1,1)"><rect fill="#ffffff" stroke="none" x="576" y="40" width="102.638671875" height="39"/></g><g transform="translate(10,10) scale(1,1)"><path fill="none" stroke="#000000" d="M 576 40 L 678.638671875 40 L 678.638671875 79 L 576 79 L 576 40 Z Z" stroke-miterlimit="10"/></g><g transform="translate(10,10) scale(1,1)"><g><path fill="none" stroke="none"/><text fill="#000000" stroke="none" font-family="Roboto" font-size="17px" font-style="normal" font-weight="bold" text-decoration="none" x="586.740966796875" y="63.5">TrinhDuyet</text></g></g><g transform="translate(10,10) scale(1,1)"><path fill="none" stroke="#000000" d="M 628.5 80 L 628.5 1176" stroke-miterlimit="10" stroke-dasharray="3"/></g><g transform="translate(10,10) scale(1,1)"><rect fill="#C0C0C0" stroke="none" x="863" y="47" width="281.8515625" height="39" opacity="0.2"/></g><g transform="translate(10,10) scale(1,1)"><rect fill="#ffffff" stroke="none" x="856" y="40" width="281.8515625" height="39"/></g><g transform="translate(10,10) scale(1,1)"><path fill="none" stroke="#000000" d="M 856 40 L 1137.8515625 40 L 1137.8515625 79 L 856 79 L 856 40 Z Z" stroke-miterlimit="10"/></g><g transform="translate(10,10) scale(1,1)"><g><path fill="none" stroke="none"/><text fill="#000000" stroke="none" font-family="Roboto" font-size="17px" font-style="normal" font-weight="bold" text-decoration="none" x="882.379150390625" y="63.5">: ThongKeVaBaoCaoController</text></g></g><g transform="translate(10,10) scale(1,1)"><path fill="none" stroke="#000000" d="M 997.5 80 L 997.5 1176" stroke-miterlimit="10" stroke-dasharray="3"/></g><g transform="translate(10,10) scale(1,1)"><rect fill="#C0C0C0" stroke="none" x="1263" y="47" width="141.0078125" height="39" opacity="0.2"/></g><g transform="translate(10,10) scale(1,1)"><rect fill="#ffffff" stroke="none" x="1256" y="40" width="141.0078125" height="39"/></g><g transform="translate(10,10) scale(1,1)"><path fill="none" stroke="#000000" d="M 1256 40 L 1397.0078125 40 L 1397.0078125 79 L 1256 79 L 1256 40 Z Z" stroke-miterlimit="10"/></g><g transform="translate(10,10) scale(1,1)"><g><path fill="none" stroke="none"/><text fill="#000000" stroke="none" font-family="Roboto" font-size="17px" font-style="normal" font-weight="bold" text-decoration="none" x="1295.595947265625" y="63.5">: DichVu</text></g></g><g transform="translate(10,10) scale(1,1)"><path fill="none" stroke="#000000" d="M 1327.5 80 L 1327.5 1176" stroke-miterlimit="10" stroke-dasharray="3"/></g><g transform="translate(10,10) scale(1,1)"><rect fill="#C0C0C0" stroke="none" x="1607" y="47" width="112.77392578125" height="39" opacity="0.2"/></g><g transform="translate(10,10) scale(1,1)"><rect fill="#ffffff" stroke="none" x="1600" y="40" width="112.77392578125" height="39"/></g><g transform="translate(10,10) scale(1,1)"><path fill="none" stroke="#000000" d="M 1600 40 L 1712.77392578125 40 L 1712.77392578125 79 L 1600 79 L 1600 40 Z Z" stroke-miterlimit="10"/></g><g transform="translate(10,10) scale(1,1)"><g><path fill="none" stroke="none"/><text fill="#000000" stroke="none" font-family="Roboto" font-size="17px" font-style="normal" font-weight="bold" text-decoration="none" x="1610.03125" y="63.5">CoSoDuLieu</text></g></g><g transform="translate(10,10) scale(1,1)"><path fill="none" stroke="#000000" d="M 1657.5 80 L 1657.5 1176" stroke-miterlimit="10" stroke-dasharray="3"/></g><g transform="translate(10,10) scale(1,1)"><path fill="none" stroke="#000000" d="M 301 160 L 621 160" stroke-miterlimit="10"/></g><g transform="translate(10,10) scale(1,1)"><path fill="#000000" stroke="none" d="M 610.8373251423759 164.209517756016 L 621 160 L 610.8373251423758 155.790482243984"/></g><g transform="translate(10,10) scale(1,1)"><path fill="none" stroke="#000000" d="M 610.8373251423759 164.209517756016 L 621 160 L 610.8373251423758 155.790482243984 L 610.8373251423759 164.209517756016" stroke-miterlimit="10"/></g><g transform="translate(10,10) scale(1,1)"><g><path fill="none" stroke="none"/><text fill="#000000" stroke="none" font-family="Roboto" font-size="17px" font-style="normal" font-weight="normal" text-decoration="none" x="340.5400390625" y="149.5">Nhấn vào [Thống kê và Báo cáo]</text></g></g><g transform="translate(10,10) scale(1,1)"><rect fill="#ffffff" stroke="none" x="621" y="160" width="13" height="72"/></g><g transform="translate(10,10) scale(1,1)"><path fill="none" stroke="#000000" d="M 621 160 L 634 160 L 634 232 L 621 232 L 621 160 Z Z" stroke-miterlimit="10"/></g><g transform="translate(10,10) scale(1,1)"><path fill="none" stroke="#000000" d="M 621 197 L 301 197" stroke-miterlimit="10" stroke-dasharray="3"/></g><g transform="translate(10,10) scale(1,1)"><path fill="none" stroke="#000000" d="M 311.16267485762415 192.790482243984 L 301 197 L 311.16267485762415 201.209517756016" stroke-miterlimit="10"/></g><g transform="translate(10,10) scale(1,1)"><g><path fill="none" stroke="none"/><text fill="#000000" stroke="none" font-family="Roboto" font-size="17px" font-style="normal" font-weight="normal" text-decoration="none" x="327.5" y="223.5">Hiện biểu mẫu thống kê và báo cáo</text></g></g><g transform="translate(10,10) scale(1,1)"><path fill="none" stroke="#000000" d="M 301 321 L 621 321" stroke-miterlimit="10"/></g><g transform="translate(10,10) scale(1,1)"><path fill="#000000" stroke="none" d="M 610.8373251423759 325.209517756016 L 621 321 L 610.8373251423758 316.790482243984"/></g><g transform="translate(10,10) scale(1,1)"><path fill="none" stroke="#000000" d="M 610.8373251423759 325.209517756016 L 621 321 L 610.8373251423758 316.790482243984 L 610.8373251423759 325.209517756016" stroke-miterlimit="10"/></g><g transform="translate(10,10) scale(1,1)"><g><path fill="none" stroke="none"/><text fill="#000000" stroke="none" font-family="Roboto" font-size="17px" font-style="normal" font-weight="normal" text-decoration="none" x="337.5" y="311.5">Chọn khoảng thời gian muốn xem</text></g></g><g transform="translate(10,10) scale(1,1)"><rect fill="#ffffff" stroke="none" x="621" y="321" width="13" height="319"/></g><g transform="translate(10,10) scale(1,1)"><path fill="none" stroke="#000000" d="M 621 321 L 634 321 L 634 640 L 621 640 L 621 321 Z Z" stroke-miterlimit="10"/></g><g transform="translate(10,10) scale(1,1)"><path fill="none" stroke="#000000" d="M 634 336 L 990 336" stroke-miterlimit="10"/></g><g transform="translate(10,10) scale(1,1)"><path fill="#000000" stroke="none" d="M 979.8373251423759 340.209517756016 L 990 336 L 979.8373251423758 331.790482243984"/></g><g transform="translate(10,10) scale(1,1)"><path fill="none" stroke="#000000" d="M 979.8373251423759 340.209517756016 L 990 336 L 979.8373251423758 331.790482243984 L 979.8373251423759 340.209517756016" stroke-miterlimit="10"/></g><g transform="translate(10,10) scale(1,1)"><g><path fill="none" stroke="none"/><text fill="#000000" stroke="none" font-family="Roboto" font-size="17px" font-style="normal" font-weight="normal" text-decoration="none" x="671.5" y="327.5">Gửi yêu cầu xem danh thu theo tháng</text></g></g><g transform="translate(10,10) scale(1,1)"><rect fill="#ffffff" stroke="none" x="990" y="336" width="13" height="288"/></g><g transform="translate(10,10) scale(1,1)"><path fill="none" stroke="#000000" d="M 990 336 L 1003 336 L 1003 624 L 990 624 L 990 336 Z Z" stroke-miterlimit="10"/></g><g transform="translate(10,10) scale(1,1)"><path fill="none" stroke="#000000" d="M 1003 352 L 1320 352" stroke-miterlimit="10"/></g><g transform="translate(10,10) scale(1,1)"><path fill="#000000" stroke="none" d="M 1309.837325142376 356.209517756016 L 1320 352 L 1309.837325142376 347.790482243984"/></g><g transform="translate(10,10) scale(1,1)"><path fill="none" stroke="#000000" d="M 1309.837325142376 356.209517756016 L 1320 352 L 1309.837325142376 347.790482243984 L 1309.837325142376 356.209517756016" stroke-miterlimit="10"/></g><g transform="translate(10,10) scale(1,1)"><g><path fill="none" stroke="none"/><text fill="#000000" stroke="none" font-family="Roboto" font-size="17px" font-style="normal" font-weight="normal" text-decoration="none" x="1008.5" y="343.5">Gọi phương thức DoanhThuTheoThang()</text></g></g><g transform="translate(10,10) scale(1,1)"><rect fill="#ffffff" stroke="none" x="1320" y="352" width="13" height="256"/></g><g transform="translate(10,10) scale(1,1)"><path fill="none" stroke="#000000" d="M 1320 352 L 1333 352 L 1333 608 L 1320 608 L 1320 352 Z Z" stroke-miterlimit="10"/></g><g transform="translate(10,10) scale(1,1)"><path fill="none" stroke="#000000" d="M 1333 373 L 1650 373" stroke-miterlimit="10"/></g><g transform="translate(10,10) scale(1,1)"><path fill="#000000" stroke="none" d="M 1639.837325142376 377.209517756016 L 1650 373 L 1639.837325142376 368.790482243984"/></g><g transform="translate(10,10) scale(1,1)"><path fill="none" stroke="#000000" d="M 1639.837325142376 377.209517756016 L 1650 373 L 1639.837325142376 368.790482243984 L 1639.837325142376 377.209517756016" stroke-miterlimit="10"/></g><g transform="translate(10,10) scale(1,1)"><g><path fill="none" stroke="none"/><text fill="#000000" stroke="none" font-family="Roboto" font-size="17px" font-style="normal" font-weight="normal" text-decoration="none" x="1416.5" y="371.5">Truy xuất doanh thu</text></g></g><g transform="translate(10,10) scale(1,1)"><rect fill="#ffffff" stroke="none" x="1650" y="373" width="13" height="211"/></g><g transform="translate(10,10) scale(1,1)"><path fill="none" stroke="#000000" d="M 1650 373 L 1663 373 L 1663 584 L 1650 584 L 1650 373 Z Z" stroke-miterlimit="10"/></g><g transform="translate(10,10) scale(1,1)"><path fill="none" stroke="#000000" d="M 1650 424 L 1333 424" stroke-miterlimit="10" stroke-dasharray="3"/></g><g transform="translate(10,10) scale(1,1)"><path fill="none" stroke="#000000" d="M 1343.162674857624 419.790482243984 L 1333 424 L 1343.162674857624 428.209517756016" stroke-miterlimit="10"/></g><g transform="translate(10,10) scale(1,1)"><g><path fill="none" stroke="none"/><text fill="#000000" stroke="none" font-family="Roboto" font-size="17px" font-style="normal" font-weight="normal" text-decoration="none" x="1347.2978515625" y="455.5">Không có doanh thu trong khoảng này</text></g></g><g transform="translate(10,10) scale(1,1)"><path fill="none" stroke="#000000" d="M 1320 442 L 1003 442" stroke-miterlimit="10" stroke-dasharray="3"/></g><g transform="translate(10,10) scale(1,1)"><path fill="none" stroke="#000000" d="M 1013.1626748576241 437.790482243984 L 1003 442 L 1013.1626748576241 446.209517756016" stroke-miterlimit="10"/></g><g transform="translate(10,10) scale(1,1)"><g><path fill="none" stroke="none"/><text fill="#000000" stroke="none" font-family="Roboto" font-size="17px" font-style="normal" font-weight="normal" text-decoration="none" x="1047.4150390625" y="471.5">Không thể thống kê doanh thu</text></g></g><g transform="translate(10,10) scale(1,1)"><path fill="none" stroke="#000000" d="M 990 464 L 634 464" stroke-miterlimit="10" stroke-dasharray="3"/></g><g transform="translate(10,10) scale(1,1)"><path fill="none" stroke="#000000" d="M 644.1626748576241 459.790482243984 L 634 464 L 644.1626748576241 468.209517756016" stroke-miterlimit="10"/></g><g transform="translate(10,10) scale(1,1)"><g><path fill="none" stroke="none"/><text fill="#000000" stroke="none" font-family="Roboto" font-size="17px" font-style="normal" font-weight="normal" text-decoration="none" x="693.178466796875" y="487.5">Thông báo không thể thống kê</text></g></g><g transform="translate(10,10) scale(1,1)"><path fill="none" stroke="#000000" d="M 621 480 L 301 480" stroke-miterlimit="10" stroke-dasharray="3"/></g><g transform="translate(10,10) scale(1,1)"><path fill="none" stroke="#000000" d="M 311.16267485762415 475.790482243984 L 301 480 L 311.16267485762415 484.209517756016" stroke-miterlimit="10"/></g><g transform="translate(10,10) scale(1,1)"><g><path fill="none" stroke="none"/><text fill="#000000" stroke="none" font-family="Roboto" font-size="17px" font-style="normal" font-weight="normal" text-decoration="none" x="328.5" y="503.5">Hiện thông báo không thể thống kê</text></g></g><g transform="translate(10,10) scale(1,1)"><path fill="none" stroke="#000000" d="M 1650 552 L 1333 552" stroke-miterlimit="10" stroke-dasharray="3"/></g><g transform="translate(10,10) scale(1,1)"><path fill="none" stroke="#000000" d="M 1343.162674857624 547.790482243984 L 1333 552 L 1343.162674857624 556.209517756016" stroke-miterlimit="10"/></g><g transform="translate(10,10) scale(1,1)"><g><path fill="none" stroke="none"/><text fill="#000000" stroke="none" font-family="Roboto" font-size="17px" font-style="normal" font-weight="normal" text-decoration="none" x="1374.412109375" y="582.5">Thống kê doanh thu thành công</text></g></g><g transform="translate(10,10) scale(1,1)"><path fill="none" stroke="#000000" d="M 1320 570 L 1003 570" stroke-miterlimit="10" stroke-dasharray="3"/></g><g transform="translate(10,10) scale(1,1)"><path fill="none" stroke="#000000" d="M 1013.1626748576241 565.790482243984 L 1003 570 L 1013.1626748576241 574.209517756016" stroke-miterlimit="10"/></g><g transform="translate(10,10) scale(1,1)"><g><path fill="none" stroke="none"/><text fill="#000000" stroke="none" font-family="Roboto" font-size="17px" font-style="normal" font-weight="normal" text-decoration="none" x="1023.5" y="599.5">Trả về kết quả doanh thu theo tháng</text></g></g><g transform="translate(10,10) scale(1,1)"><path fill="none" stroke="#000000" d="M 990 585 L 634 585" stroke-miterlimit="10" stroke-dasharray="3"/></g><g transform="translate(10,10) scale(1,1)"><path fill="none" stroke="#000000" d="M 644.1626748576241 580.790482243984 L 634 585 L 644.1626748576241 589.209517756016" stroke-miterlimit="10"/></g><g transform="translate(10,10) scale(1,1)"><g><path fill="none" stroke="none"/><text fill="#000000" stroke="none" font-family="Roboto" font-size="17px" font-style="normal" font-weight="normal" text-decoration="none" x="656.5" y="615.5">Thông báo kết quả doanh thu theo tháng</text></g></g><g transform="translate(10,10) scale(1,1)"><path fill="none" stroke="#000000" d="M 621 605 L 301 605" stroke-miterlimit="10" stroke-dasharray="3"/></g><g transform="translate(10,10) scale(1,1)"><path fill="none" stroke="#000000" d="M 311.16267485762415 600.790482243984 L 301 605 L 311.16267485762415 609.209517756016" stroke-miterlimit="10"/></g><g transform="translate(10,10) scale(1,1)"><g><path fill="none" stroke="none"/><text fill="#000000" stroke="none" font-family="Roboto" font-size="17px" font-style="normal" font-weight="normal" text-decoration="none" x="330.41259765625" y="631.5">Hiện kết quả doanh thu theo tháng</text></g></g><g transform="translate(10,10) scale(1,1)"><path fill="none" stroke="#000000" d="M 301 747 L 621 747" stroke-miterlimit="10"/></g><g transform="translate(10,10) scale(1,1)"><path fill="#000000" stroke="none" d="M 610.8373251423759 751.209517756016 L 621 747 L 610.8373251423758 742.790482243984"/></g><g transform="translate(10,10) scale(1,1)"><path fill="none" stroke="#000000" d="M 610.8373251423759 751.209517756016 L 621 747 L 610.8373251423758 742.790482243984 L 610.8373251423759 751.209517756016" stroke-miterlimit="10"/></g><g transform="translate(10,10) scale(1,1)"><g><path fill="none" stroke="none"/><text fill="#000000" stroke="none" font-family="Roboto" font-size="17px" font-style="normal" font-weight="normal" text-decoration="none" x="352.75537109375" y="735.5">Nhập mã ISBN hoặc tên sách</text></g></g><g transform="translate(10,10) scale(1,1)"><rect fill="#ffffff" stroke="none" x="621" y="747" width="13" height="333"/></g><g transform="translate(10,10) scale(1,1)"><path fill="none" stroke="#000000" d="M 621 747 L 634 747 L 634 1080 L 621 1080 L 621 747 Z Z" stroke-miterlimit="10"/></g><g transform="translate(10,10) scale(1,1)"><path fill="none" stroke="#000000" d="M 634 766 L 990 766" stroke-miterlimit="10"/></g><g transform="translate(10,10) scale(1,1)"><path fill="#000000" stroke="none" d="M 979.8373251423759 770.209517756016 L 990 766 L 979.8373251423758 761.790482243984"/></g><g transform="translate(10,10) scale(1,1)"><path fill="none" stroke="#000000" d="M 979.8373251423759 770.209517756016 L 990 766 L 979.8373251423758 761.790482243984 L 979.8373251423759 770.209517756016" stroke-miterlimit="10"/></g><g transform="translate(10,10) scale(1,1)"><g><path fill="none" stroke="none"/><text fill="#000000" stroke="none" font-family="Roboto" font-size="17px" font-style="normal" font-weight="normal" text-decoration="none" x="657.5" y="758.5">Gửi yêu cầu xem thống kê từng đầu sách</text></g></g><g transform="translate(10,10) scale(1,1)"><rect fill="#ffffff" stroke="none" x="990" y="766" width="13" height="298"/></g><g transform="translate(10,10) scale(1,1)"><path fill="none" stroke="#000000" d="M 990 766 L 1003 766 L 1003 1064 L 990 1064 L 990 766 Z Z" stroke-miterlimit="10"/></g><g transform="translate(10,10) scale(1,1)"><path fill="none" stroke="#000000" d="M 1003 784 L 1320 784" stroke-miterlimit="10"/></g><g transform="translate(10,10) scale(1,1)"><path fill="#000000" stroke="none" d="M 1309.837325142376 788.209517756016 L 1320 784 L 1309.837325142376 779.790482243984"/></g><g transform="translate(10,10) scale(1,1)"><path fill="none" stroke="#000000" d="M 1309.837325142376 788.209517756016 L 1320 784 L 1309.837325142376 779.790482243984 L 1309.837325142376 788.209517756016" stroke-miterlimit="10"/></g><g transform="translate(10,10) scale(1,1)"><g><path fill="none" stroke="none"/><text fill="#000000" stroke="none" font-family="Roboto" font-size="17px" font-style="normal" font-weight="normal" text-decoration="none" x="1025.5" y="775.5">Gọi phương thức TanSuatDauSach()</text></g></g><g transform="translate(10,10) scale(1,1)"><rect fill="#ffffff" stroke="none" x="1320" y="784" width="13" height="264"/></g><g transform="translate(10,10) scale(1,1)"><path fill="none" stroke="#000000" d="M 1320 784 L 1333 784 L 1333 1048 L 1320 1048 L 1320 784 Z Z" stroke-miterlimit="10"/></g><g transform="translate(10,10) scale(1,1)"><path fill="none" stroke="#000000" d="M 1333 800 L 1650 800" stroke-miterlimit="10"/></g><g transform="translate(10,10) scale(1,1)"><path fill="#000000" stroke="none" d="M 1639.837325142376 804.209517756016 L 1650 800 L 1639.837325142376 795.790482243984"/></g><g transform="translate(10,10) scale(1,1)"><path fill="none" stroke="#000000" d="M 1639.837325142376 804.209517756016 L 1650 800 L 1639.837325142376 795.790482243984 L 1639.837325142376 804.209517756016" stroke-miterlimit="10"/></g><g transform="translate(10,10) scale(1,1)"><g><path fill="none" stroke="none"/><text fill="#000000" stroke="none" font-family="Roboto" font-size="17px" font-style="normal" font-weight="normal" text-decoration="none" x="1420.5" y="790.5">Truy xuất thống kê</text></g></g><g transform="translate(10,10) scale(1,1)"><rect fill="#ffffff" stroke="none" x="1650" y="800" width="13" height="232"/></g><g transform="translate(10,10) scale(1,1)"><path fill="none" stroke="#000000" d="M 1650 800 L 1663 800 L 1663 1032 L 1650 1032 L 1650 800 Z Z" stroke-miterlimit="10"/></g><g transform="translate(10,10) scale(1,1)"><path fill="none" stroke="#000000" d="M 1650 855 L 1333 855" stroke-miterlimit="10" stroke-dasharray="3"/></g><g transform="translate(10,10) scale(1,1)"><path fill="none" stroke="#000000" d="M 1343.162674857624 850.790482243984 L 1333 855 L 1343.162674857624 859.209517756016" stroke-miterlimit="10"/></g><g transform="translate(10,10) scale(1,1)"><g><path fill="none" stroke="none"/><text fill="#000000" stroke="none" font-family="Roboto" font-size="17px" font-style="normal" font-weight="normal" text-decoration="none" x="1370.5" y="886.5">Không có thống kê cho đầu sách</text></g></g><g transform="translate(10,10) scale(1,1)"><path fill="none" stroke="#000000" d="M 1320 872 L 1003 872" stroke-miterlimit="10" stroke-dasharray="3"/></g><g transform="translate(10,10) scale(1,1)"><path fill="none" stroke="#000000" d="M 1013.1626748576241 867.790482243984 L 1003 872 L 1013.1626748576241 876.209517756016" stroke-miterlimit="10"/></g><g transform="translate(10,10) scale(1,1)"><g><path fill="none" stroke="none"/><text fill="#000000" stroke="none" font-family="Roboto" font-size="17px" font-style="normal" font-weight="normal" text-decoration="none" x="1034.5" y="903.5">Không thể thống kê cho đầu sách</text></g></g><g transform="translate(10,10) scale(1,1)"><path fill="none" stroke="#000000" d="M 990 888 L 634 888" stroke-miterlimit="10" stroke-dasharray="3"/></g><g transform="translate(10,10) scale(1,1)"><path fill="none" stroke="#000000" d="M 644.1626748576241 883.790482243984 L 634 888 L 644.1626748576241 892.209517756016" stroke-miterlimit="10"/></g><g transform="translate(10,10) scale(1,1)"><g><path fill="none" stroke="none"/><text fill="#000000" stroke="none" font-family="Roboto" font-size="17px" font-style="normal" font-weight="normal" text-decoration="none" x="695.319091796875" y="919.5">Thông báo không thể thống kê</text></g></g><g transform="translate(10,10) scale(1,1)"><path fill="none" stroke="#000000" d="M 621 906 L 301 906" stroke-miterlimit="10" stroke-dasharray="3"/></g><g transform="translate(10,10) scale(1,1)"><path fill="none" stroke="#000000" d="M 311.16267485762415 901.790482243984 L 301 906 L 311.16267485762415 910.209517756016" stroke-miterlimit="10"/></g><g transform="translate(10,10) scale(1,1)"><g><path fill="none" stroke="none"/><text fill="#000000" stroke="none" font-family="Roboto" font-size="17px" font-style="normal" font-weight="normal" text-decoration="none" x="328.5" y="935.5">Hiện thông báo không thể thống kê</text></g></g><g transform="translate(10,10) scale(1,1)"><path fill="none" stroke="#000000" d="M 1650 997 L 1333 997" stroke-miterlimit="10" stroke-dasharray="3"/></g><g transform="translate(10,10) scale(1,1)"><path fill="none" stroke="#000000" d="M 1343.162674857624 992.790482243984 L 1333 997 L 1343.162674857624 1001.209517756016" stroke-miterlimit="10"/></g><g transform="translate(10,10) scale(1,1)"><g><path fill="none" stroke="none"/><text fill="#000000" stroke="none" font-family="Roboto" font-size="17px" font-style="normal" font-weight="normal" text-decoration="none" x="1353.01611328125" y="1023.5">Thống kê thành công theo đầu sách</text></g></g><g transform="translate(10,10) scale(1,1)"><path fill="none" stroke="#000000" d="M 1320 1012 L 1003 1012" stroke-miterlimit="10" stroke-dasharray="3"/></g><g transform="translate(10,10) scale(1,1)"><path fill="none" stroke="#000000" d="M 1013.1626748576241 1007.790482243984 L 1003 1012 L 1013.1626748576241 1016.209517756016" stroke-miterlimit="10"/></g><g transform="translate(10,10) scale(1,1)"><g><path fill="none" stroke="none"/><text fill="#000000" stroke="none" font-family="Roboto" font-size="17px" font-style="normal" font-weight="normal" text-decoration="none" x="1016.544921875" y="1039.5">Trả về kết quả thống kê theo đầu sách</text></g></g><g transform="translate(10,10) scale(1,1)"><path fill="none" stroke="#000000" d="M 990 1031 L 634 1031" stroke-miterlimit="10" stroke-dasharray="3"/></g><g transform="translate(10,10) scale(1,1)"><path fill="none" stroke="#000000" d="M 644.1626748576241 1026.7904822439841 L 634 1031 L 644.1626748576241 1035.2095177560159" stroke-miterlimit="10"/></g><g transform="translate(10,10) scale(1,1)"><g><path fill="none" stroke="none"/><text fill="#000000" stroke="none" font-family="Roboto" font-size="17px" font-style="normal" font-weight="normal" text-decoration="none" x="648.5" y="1063.5">Thông báo kết quả thống kê theo đầu sách</text></g></g><g transform="translate(10,10) scale(1,1)"><path fill="none" stroke="#000000" d="M 621 1051 L 301 1051" stroke-miterlimit="10" stroke-dasharray="3"/></g><g transform="translate(10,10) scale(1,1)"><path fill="none" stroke="#000000" d="M 311.16267485762415 1046.7904822439841 L 301 1051 L 311.16267485762415 1055.2095177560159" stroke-miterlimit="10"/></g><g transform="translate(10,10) scale(1,1)"><g><path fill="none" stroke="none"/><text fill="#000000" stroke="none" font-family="Roboto" font-size="17px" font-style="normal" font-weight="normal" text-decoration="none" x="321.5" y="1079.5">Hiện kết quả thống kê theo đầu sách</text></g></g><g transform="translate(10,10) scale(1,1)"><path fill="none" stroke="#000000" d="M 72 256 L 1760 256 L 1760 1136 L 72 1136 L 72 256" stroke-miterlimit="10"/></g><g transform="translate(10,10) scale(1,1)"><path fill="#ffffff" stroke="none" d="M 72 256 L 72 282 L 333.537109375 282 L 346.537109375 269 L 346.537109375 256 L 72 256"/></g><g transform="translate(10,10) scale(1,1)"><path fill="none" stroke="#000000" d="M 72 256 L 72 282 L 333.537109375 282 L 346.537109375 269 L 346.537109375 256 L 72 256 L 72 256" stroke-miterlimit="10"/></g><g transform="translate(10,10) scale(1,1)"><g><path fill="none" stroke="none"/><text fill="#000000" stroke="none" font-family="Roboto" font-size="17px" font-style="normal" font-weight="normal" text-decoration="none" x="101.92578125" y="277.5">Chọn loại thống kê và báo cáo</text></g></g><g transform="translate(10,10) scale(1,1)"><g><path fill="none" stroke="none"/><text fill="#000000" stroke="none" font-family="Roboto" font-size="17px" font-style="normal" font-weight="bold" text-decoration="none" x="77" y="277.5">alt</text></g></g><g transform="translate(10,10) scale(1,1)"><g><path fill="none" stroke="none"/><text fill="#000000" stroke="none" font-family="Roboto" font-size="17px" font-style="normal" font-weight="normal" text-decoration="none" x="91.5" y="314.5">[Xem doanh thu từng tháng]</text></g></g><g transform="translate(10,10) scale(1,1)"><path fill="none" stroke="#000000" d="M 72 697 L 1760 697" stroke-miterlimit="10" stroke-dasharray="10,3"/></g><g transform="translate(10,10) scale(1,1)"><g><path fill="none" stroke="none"/><text fill="#000000" stroke="none" font-family="Roboto" font-size="17px" font-style="normal" font-weight="normal" text-decoration="none" x="91.5" y="728.5">[Xem tần suất từng đầu sách]</text></g></g><g transform="translate(10,10) scale(1,1)"><path fill="none" stroke="#000000" d="M 144 400 L 1704 400 L 1704 657 L 144 657 L 144 400" stroke-miterlimit="10"/></g><g transform="translate(10,10) scale(1,1)"><path fill="#ffffff" stroke="none" d="M 144 400 L 144 426 L 416.6767578125 426 L 429.6767578125 413 L 429.6767578125 400 L 144 400"/></g><g transform="translate(10,10) scale(1,1)"><path fill="none" stroke="#000000" d="M 144 400 L 144 426 L 416.6767578125 426 L 429.6767578125 413 L 429.6767578125 400 L 144 400 L 144 400" stroke-miterlimit="10"/></g><g transform="translate(10,10) scale(1,1)"><g><path fill="none" stroke="none"/><text fill="#000000" stroke="none" font-family="Roboto" font-size="17px" font-style="normal" font-weight="normal" text-decoration="none" x="173.92578125" y="421.5">Thống kê hợp lệ theo doanh thu</text></g></g><g transform="translate(10,10) scale(1,1)"><g><path fill="none" stroke="none"/><text fill="#000000" stroke="none" font-family="Roboto" font-size="17px" font-style="normal" font-weight="bold" text-decoration="none" x="149" y="421.5">alt</text></g></g><g transform="translate(10,10) scale(1,1)"><g><path fill="none" stroke="none"/><text fill="#000000" stroke="none" font-family="Roboto" font-size="17px" font-style="normal" font-weight="normal" text-decoration="none" x="163.5" y="458.5">[Không có doanh thu để thống kê]</text></g></g><g transform="translate(10,10) scale(1,1)"><path fill="none" stroke="#000000" d="M 144 522 L 1704 522" stroke-miterlimit="10" stroke-dasharray="10,3"/></g><g transform="translate(10,10) scale(1,1)"><g><path fill="none" stroke="none"/><text fill="#000000" stroke="none" font-family="Roboto" font-size="17px" font-style="normal" font-weight="normal" text-decoration="none" x="163.5" y="553.5">[Có doanh thu để thống kê]</text></g></g><g transform="translate(10,10) scale(1,1)"><path fill="none" stroke="#000000" d="M 144 824 L 1704 824 L 1704 1105 L 144 1105 L 144 824" stroke-miterlimit="10"/></g><g transform="translate(10,10) scale(1,1)"><path fill="#ffffff" stroke="none" d="M 144 824 L 144 850 L 409.84521484375 850 L 422.84521484375 837 L 422.84521484375 824 L 144 824"/></g><g transform="translate(10,10) scale(1,1)"><path fill="none" stroke="#000000" d="M 144 824 L 144 850 L 409.84521484375 850 L 422.84521484375 837 L 422.84521484375 824 L 144 824 L 144 824" stroke-miterlimit="10"/></g><g transform="translate(10,10) scale(1,1)"><g><path fill="none" stroke="none"/><text fill="#000000" stroke="none" font-family="Roboto" font-size="17px" font-style="normal" font-weight="normal" text-decoration="none" x="173.92578125" y="845.5">Thống kê hợp lệ theo đầu sách</text></g></g><g transform="translate(10,10) scale(1,1)"><g><path fill="none" stroke="none"/><text fill="#000000" stroke="none" font-family="Roboto" font-size="17px" font-style="normal" font-weight="bold" text-decoration="none" x="149" y="845.5">alt</text></g></g><g transform="translate(10,10) scale(1,1)"><g><path fill="none" stroke="none"/><text fill="#000000" stroke="none" font-family="Roboto" font-size="17px" font-style="normal" font-weight="normal" text-decoration="none" x="163.5" y="882.5">[Không có thông tin]</text></g></g><g transform="translate(10,10) scale(1,1)"><path fill="none" stroke="#000000" d="M 144 962 L 1704 962" stroke-miterlimit="10" stroke-dasharray="10,3"/></g><g transform="translate(10,10) scale(1,1)"><g><path fill="none" stroke="none"/><text fill="#000000" stroke="none" font-family="Roboto" font-size="17px" font-style="normal" font-weight="normal" text-decoration="none" x="163.5" y="993.5">[Có doanh thu]</text></g></g></g></svg>