<svg version="1.1" xmlns="http://www.w3.org/2000/svg" xmlns:xlink="http://www.w3.org/1999/xlink" width="1069.40087890625" height="1036"><defs/><g><g transform="translate(-78,-6) scale(1,1)"><rect fill="#C0C0C0" stroke="none" x="191" y="23" width="848" height="1016" opacity="0.2"/></g><g transform="translate(-78,-6) scale(1,1)"><rect fill="#ffffff" stroke="none" x="184" y="16" width="848" height="1016"/></g><g transform="translate(-78,-6) scale(1,1)"><path fill="none" stroke="#000000" d="M 184 16 L 1032 16 L 1032 1032 L 184 1032 L 184 16 Z Z" stroke-miterlimit="10"/></g><g transform="translate(-78,-6) scale(1,1)"><g><path fill="none" stroke="none"/><text fill="#000000" stroke="none" font-family="Arial" font-size="13px" font-style="normal" font-weight="bold" text-decoration="none" x="475.25146484375" y="35.5">Ứng dụng trạm xe buýt trên điện thoại di động</text></g></g><g transform="translate(-78,-6) scale(1,1)"><path fill="#ffffff" stroke="none" d="M 104.40935031960227 57.68 C 104.40935031960227 52.886167936 108.29519264454773 49 113.088623046875 49 C 117.88205344920227 49 121.76789577414773 52.886167936 121.76789577414773 57.68 C 121.76789577414773 62.473832064 117.88205344920227 66.36 113.088623046875 66.36 C 108.29519264454773 66.36 104.40935031960227 62.473832064 104.40935031960227 57.68 Z"/></g><g transform="translate(-78,-6) scale(1,1)"><path fill="none" stroke="#000000" d="M 104.40935031960227 57.68 C 104.40935031960227 52.886167936 108.29519264454773 49 113.088623046875 49 C 117.88205344920227 49 121.76789577414773 52.886167936 121.76789577414773 57.68 C 121.76789577414773 62.473832064 117.88205344920227 66.36 113.088623046875 66.36 C 108.29519264454773 66.36 104.40935031960227 62.473832064 104.40935031960227 57.68 Z" stroke-miterlimit="10"/></g><g transform="translate(-78,-6) scale(1,1)"><path fill="none" stroke="#000000" d="M 113.088623046875 66.36 L 113.088623046875 83.64" stroke-miterlimit="10"/></g><g transform="translate(-78,-6) scale(1,1)"><path fill="none" stroke="#000000" d="M 103.89880486505682 72.84 L 122.27844122869318 72.84" stroke-miterlimit="10"/></g><g transform="translate(-78,-6) scale(1,1)"><path fill="none" stroke="#000000" d="M 113.088623046875 83.64 L 100.32498668323863 101" stroke-miterlimit="10"/></g><g transform="translate(-78,-6) scale(1,1)"><path fill="none" stroke="#000000" d="M 113.088623046875 83.64 L 125.85225941051137 101" stroke-miterlimit="10"/></g><g transform="translate(-78,-6) scale(1,1)"><g><path fill="none" stroke="none"/><text fill="#000000" stroke="none" font-family="Arial" font-size="13px" font-style="normal" font-weight="bold" text-decoration="none" x="94.658203125" y="121.5">Khách</text></g></g><g transform="translate(-78,-6) scale(1,1)"><path fill="#ffffff" stroke="none" d="M 104.40935031960227 473.68 C 104.40935031960227 468.886167936 108.29519264454773 465 113.088623046875 465 C 117.88205344920227 465 121.76789577414773 468.886167936 121.76789577414773 473.68 C 121.76789577414773 478.473832064 117.88205344920227 482.36 113.088623046875 482.36 C 108.29519264454773 482.36 104.40935031960227 478.473832064 104.40935031960227 473.68 Z"/></g><g transform="translate(-78,-6) scale(1,1)"><path fill="none" stroke="#000000" d="M 104.40935031960227 473.68 C 104.40935031960227 468.886167936 108.29519264454773 465 113.088623046875 465 C 117.88205344920227 465 121.76789577414773 468.886167936 121.76789577414773 473.68 C 121.76789577414773 478.473832064 117.88205344920227 482.36 113.088623046875 482.36 C 108.29519264454773 482.36 104.40935031960227 478.473832064 104.40935031960227 473.68 Z" stroke-miterlimit="10"/></g><g transform="translate(-78,-6) scale(1,1)"><path fill="none" stroke="#000000" d="M 113.088623046875 482.36 L 113.088623046875 499.64" stroke-miterlimit="10"/></g><g transform="translate(-78,-6) scale(1,1)"><path fill="none" stroke="#000000" d="M 103.89880486505682 488.84 L 122.27844122869318 488.84" stroke-miterlimit="10"/></g><g transform="translate(-78,-6) scale(1,1)"><path fill="none" stroke="#000000" d="M 113.088623046875 499.64 L 100.32498668323863 517" stroke-miterlimit="10"/></g><g transform="translate(-78,-6) scale(1,1)"><path fill="none" stroke="#000000" d="M 113.088623046875 499.64 L 125.85225941051137 517" stroke-miterlimit="10"/></g><g transform="translate(-78,-6) scale(1,1)"><g><path fill="none" stroke="none"/><text fill="#000000" stroke="none" font-family="Arial" font-size="13px" font-style="normal" font-weight="bold" text-decoration="none" x="94.658203125" y="537.5">Thành</text><text fill="#000000" stroke="none" font-family="Arial" font-size="13px" font-style="normal" font-weight="bold" text-decoration="none" x="101.16455078125" y="550.5">viên</text></g></g><g transform="translate(-78,-6) scale(1,1)"><path fill="#ffffff" stroke="none" d="M 1100.0211667258523 273.68 C 1100.0211667258523 268.886167936 1103.9070090507978 265 1108.700439453125 265 C 1113.4938698554522 265 1117.3797121803977 268.886167936 1117.3797121803977 273.68 C 1117.3797121803977 278.473832064 1113.4938698554522 282.36 1108.700439453125 282.36 C 1103.9070090507978 282.36 1100.0211667258523 278.473832064 1100.0211667258523 273.68 Z"/></g><g transform="translate(-78,-6) scale(1,1)"><path fill="none" stroke="#000000" d="M 1100.0211667258523 273.68 C 1100.0211667258523 268.886167936 1103.9070090507978 265 1108.700439453125 265 C 1113.4938698554522 265 1117.3797121803977 268.886167936 1117.3797121803977 273.68 C 1117.3797121803977 278.473832064 1113.4938698554522 282.36 1108.700439453125 282.36 C 1103.9070090507978 282.36 1100.0211667258523 278.473832064 1100.0211667258523 273.68 Z" stroke-miterlimit="10"/></g><g transform="translate(-78,-6) scale(1,1)"><path fill="none" stroke="#000000" d="M 1108.700439453125 282.36 L 1108.700439453125 299.64" stroke-miterlimit="10"/></g><g transform="translate(-78,-6) scale(1,1)"><path fill="none" stroke="#000000" d="M 1099.5106212713067 288.84 L 1117.8902576349433 288.84" stroke-miterlimit="10"/></g><g transform="translate(-78,-6) scale(1,1)"><path fill="none" stroke="#000000" d="M 1108.700439453125 299.64 L 1095.9368030894886 317" stroke-miterlimit="10"/></g><g transform="translate(-78,-6) scale(1,1)"><path fill="none" stroke="#000000" d="M 1108.700439453125 299.64 L 1121.4640758167614 317" stroke-miterlimit="10"/></g><g transform="translate(-78,-6) scale(1,1)"><g><path fill="none" stroke="none"/><text fill="#000000" stroke="none" font-family="Arial" font-size="13px" font-style="normal" font-weight="bold" text-decoration="none" x="1087.029541015625" y="337.5">System</text><text fill="#000000" stroke="none" font-family="Arial" font-size="13px" font-style="normal" font-weight="bold" text-decoration="none" x="1085.937744140625" y="350.5">Handler</text></g></g><g transform="translate(-78,-6) scale(1,1)"><path fill="#C0C0C0" stroke="none" d="M 231 91 C 231 79.95430400000001 261.4446336 71 299 71 C 336.5553664 71 367 79.95430400000001 367 91 C 367 102.04569599999999 336.5553664 111 299 111 C 261.4446336 111 231 102.04569599999999 231 91 Z" opacity="0.2"/></g><g transform="translate(-78,-6) scale(1,1)"><path fill="#ffffff" stroke="none" d="M 224 84 C 224 72.95430400000001 254.4446336 64 292 64 C 329.5553664 64 360 72.95430400000001 360 84 C 360 95.04569599999999 329.5553664 104 292 104 C 254.4446336 104 224 95.04569599999999 224 84 Z"/></g><g transform="translate(-78,-6) scale(1,1)"><path fill="none" stroke="#000000" d="M 224 84 C 224 72.95430400000001 254.4446336 64 292 64 C 329.5553664 64 360 72.95430400000001 360 84 C 360 95.04569599999999 329.5553664 104 292 104 C 254.4446336 104 224 95.04569599999999 224 84 Z" stroke-miterlimit="10"/></g><g transform="translate(-78,-6) scale(1,1)"><g><path fill="none" stroke="none"/><text fill="#000000" stroke="none" font-family="Arial" font-size="13px" font-style="normal" font-weight="bold" text-decoration="none" x="260.195068359375" y="91">Đăng nhập</text></g></g><g transform="translate(-78,-6) scale(1,1)"><path fill="#C0C0C0" stroke="none" d="M 239 170.5 C 239 150.8938896 269.4446336 135 307 135 C 344.5553664 135 375 150.8938896 375 170.5 C 375 190.1061104 344.5553664 206 307 206 C 269.4446336 206 239 190.1061104 239 170.5 Z" opacity="0.2"/></g><g transform="translate(-78,-6) scale(1,1)"><path fill="#ffffff" stroke="none" d="M 232 163.5 C 232 143.8938896 262.4446336 128 300 128 C 337.5553664 128 368 143.8938896 368 163.5 C 368 183.1061104 337.5553664 199 300 199 C 262.4446336 199 232 183.1061104 232 163.5 Z"/></g><g transform="translate(-78,-6) scale(1,1)"><path fill="none" stroke="#000000" d="M 232 163.5 C 232 143.8938896 262.4446336 128 300 128 C 337.5553664 128 368 143.8938896 368 163.5 C 368 183.1061104 337.5553664 199 300 199 C 262.4446336 199 232 183.1061104 232 163.5 Z" stroke-miterlimit="10"/></g><g transform="translate(-78,-6) scale(1,1)"><g><path fill="none" stroke="none"/><text fill="#000000" stroke="none" font-family="Arial" font-size="13px" font-style="normal" font-weight="bold" text-decoration="none" x="263.22802734375" y="164">Đăng ký mới</text><text fill="#000000" stroke="none" font-family="Arial" font-size="13px" font-style="normal" font-weight="bold" text-decoration="none" x="273.619140625" y="177">tài khoản</text></g></g><g transform="translate(-78,-6) scale(1,1)"><path fill="#C0C0C0" stroke="none" d="M 215 257 C 215 242.6405952 237.6096176 231 265.5 231 C 293.3903824 231 316 242.6405952 316 257 C 316 271.3594048 293.3903824 283 265.5 283 C 237.6096176 283 215 271.3594048 215 257 Z" opacity="0.2"/></g><g transform="translate(-78,-6) scale(1,1)"><path fill="#ffffff" stroke="none" d="M 208 250 C 208 235.6405952 230.6096176 224 258.5 224 C 286.3903824 224 309 235.6405952 309 250 C 309 264.3594048 286.3903824 276 258.5 276 C 230.6096176 276 208 264.3594048 208 250 Z"/></g><g transform="translate(-78,-6) scale(1,1)"><path fill="none" stroke="#000000" d="M 208 250 C 208 235.6405952 230.6096176 224 258.5 224 C 286.3903824 224 309 235.6405952 309 250 C 309 264.3594048 286.3903824 276 258.5 276 C 230.6096176 276 208 264.3594048 208 250 Z" stroke-miterlimit="10"/></g><g transform="translate(-78,-6) scale(1,1)"><g><path fill="none" stroke="none"/><text fill="#000000" stroke="none" font-family="Arial" font-size="13px" font-style="normal" font-weight="bold" text-decoration="none" x="242.9609375" y="250.5">Đăng</text><text fill="#000000" stroke="none" font-family="Arial" font-size="13px" font-style="normal" font-weight="bold" text-decoration="none" x="246.214111328125" y="263.5">xuất</text></g></g><g transform="translate(-78,-6) scale(1,1)"><path fill="#C0C0C0" stroke="none" d="M 407 120 C 407 110.6111584 429.6096176 103 457.5 103 C 485.3903824 103 508 110.6111584 508 120 C 508 129.3888416 485.3903824 137 457.5 137 C 429.6096176 137 407 129.3888416 407 120 Z" opacity="0.2"/></g><g transform="translate(-78,-6) scale(1,1)"><path fill="#ffffff" stroke="none" d="M 400 113 C 400 103.6111584 422.6096176 96 450.5 96 C 478.3903824 96 501 103.6111584 501 113 C 501 122.3888416 478.3903824 130 450.5 130 C 422.6096176 130 400 122.3888416 400 113 Z"/></g><g transform="translate(-78,-6) scale(1,1)"><path fill="none" stroke="#000000" d="M 400 113 C 400 103.6111584 422.6096176 96 450.5 96 C 478.3903824 96 501 103.6111584 501 113 C 501 122.3888416 478.3903824 130 450.5 130 C 422.6096176 130 400 122.3888416 400 113 Z" stroke-miterlimit="10"/></g><g transform="translate(-78,-6) scale(1,1)"><g><path fill="none" stroke="none"/><text fill="#000000" stroke="none" font-family="Arial" font-size="13px" font-style="normal" font-weight="bold" text-decoration="none" x="422.325927734375" y="120">Thêm lịch</text></g></g><g transform="translate(-78,-6) scale(1,1)"><path fill="#C0C0C0" stroke="none" d="M 519 88 C 519 78.6111584 541.6096176 71 569.5 71 C 597.3903824 71 620 78.6111584 620 88 C 620 97.3888416 597.3903824 105 569.5 105 C 541.6096176 105 519 97.3888416 519 88 Z" opacity="0.2"/></g><g transform="translate(-78,-6) scale(1,1)"><path fill="#ffffff" stroke="none" d="M 512 81 C 512 71.6111584 534.6096176 64 562.5 64 C 590.3903824 64 613 71.6111584 613 81 C 613 90.3888416 590.3903824 98 562.5 98 C 534.6096176 98 512 90.3888416 512 81 Z"/></g><g transform="translate(-78,-6) scale(1,1)"><path fill="none" stroke="#000000" d="M 512 81 C 512 71.6111584 534.6096176 64 562.5 64 C 590.3903824 64 613 71.6111584 613 81 C 613 90.3888416 590.3903824 98 562.5 98 C 534.6096176 98 512 90.3888416 512 81 Z" stroke-miterlimit="10"/></g><g transform="translate(-78,-6) scale(1,1)"><g><path fill="none" stroke="none"/><text fill="#000000" stroke="none" font-family="Arial" font-size="13px" font-style="normal" font-weight="bold" text-decoration="none" x="538.63916015625" y="88">Sửa lịch</text></g></g><g transform="translate(-78,-6) scale(1,1)"><path fill="#C0C0C0" stroke="none" d="M 631 128 C 631 118.6111584 653.6096176 111 681.5 111 C 709.3903824 111 732 118.6111584 732 128 C 732 137.3888416 709.3903824 145 681.5 145 C 653.6096176 145 631 137.3888416 631 128 Z" opacity="0.2"/></g><g transform="translate(-78,-6) scale(1,1)"><path fill="#ffffff" stroke="none" d="M 624 121 C 624 111.6111584 646.6096176 104 674.5 104 C 702.3903824 104 725 111.6111584 725 121 C 725 130.3888416 702.3903824 138 674.5 138 C 646.6096176 138 624 130.3888416 624 121 Z"/></g><g transform="translate(-78,-6) scale(1,1)"><path fill="none" stroke="#000000" d="M 624 121 C 624 111.6111584 646.6096176 104 674.5 104 C 702.3903824 104 725 111.6111584 725 121 C 725 130.3888416 702.3903824 138 674.5 138 C 646.6096176 138 624 130.3888416 624 121 Z" stroke-miterlimit="10"/></g><g transform="translate(-78,-6) scale(1,1)"><g><path fill="none" stroke="none"/><text fill="#000000" stroke="none" font-family="Arial" font-size="13px" font-style="normal" font-weight="bold" text-decoration="none" x="651.37548828125" y="128">Xoá lịch</text></g></g><g transform="translate(-78,-6) scale(1,1)"><path fill="#C0C0C0" stroke="none" d="M 519 201 C 519 186.6405952 541.6096176 175 569.5 175 C 597.3903824 175 620 186.6405952 620 201 C 620 215.3594048 597.3903824 227 569.5 227 C 541.6096176 227 519 215.3594048 519 201 Z" opacity="0.2"/></g><g transform="translate(-78,-6) scale(1,1)"><path fill="#ffffff" stroke="none" d="M 512 194 C 512 179.6405952 534.6096176 168 562.5 168 C 590.3903824 168 613 179.6405952 613 194 C 613 208.3594048 590.3903824 220 562.5 220 C 534.6096176 220 512 208.3594048 512 194 Z"/></g><g transform="translate(-78,-6) scale(1,1)"><path fill="none" stroke="#000000" d="M 512 194 C 512 179.6405952 534.6096176 168 562.5 168 C 590.3903824 168 613 179.6405952 613 194 C 613 208.3594048 590.3903824 220 562.5 220 C 534.6096176 220 512 208.3594048 512 194 Z" stroke-miterlimit="10"/></g><g transform="translate(-78,-6) scale(1,1)"><g><path fill="none" stroke="none"/><text fill="#000000" stroke="none" font-family="Arial" font-size="13px" font-style="normal" font-weight="bold" text-decoration="none" x="540.09912109375" y="194.5">Quản lý</text><text fill="#000000" stroke="none" font-family="Arial" font-size="13px" font-style="normal" font-weight="bold" text-decoration="none" x="535.106689453125" y="207.5">nhắc nhở</text></g></g><g transform="translate(-78,-6) scale(1,1)"><path fill="#C0C0C0" stroke="none" d="M 271 313 C 271 298.6405952 293.6096176 287 321.5 287 C 349.3903824 287 372 298.6405952 372 313 C 372 327.3594048 349.3903824 339 321.5 339 C 293.6096176 339 271 327.3594048 271 313 Z" opacity="0.2"/></g><g transform="translate(-78,-6) scale(1,1)"><path fill="#ffffff" stroke="none" d="M 264 306 C 264 291.6405952 286.6096176 280 314.5 280 C 342.3903824 280 365 291.6405952 365 306 C 365 320.3594048 342.3903824 332 314.5 332 C 286.6096176 332 264 320.3594048 264 306 Z"/></g><g transform="translate(-78,-6) scale(1,1)"><path fill="none" stroke="#000000" d="M 264 306 C 264 291.6405952 286.6096176 280 314.5 280 C 342.3903824 280 365 291.6405952 365 306 C 365 320.3594048 342.3903824 332 314.5 332 C 286.6096176 332 264 320.3594048 264 306 Z" stroke-miterlimit="10"/></g><g transform="translate(-78,-6) scale(1,1)"><g><path fill="none" stroke="none"/><text fill="#000000" stroke="none" font-family="Arial" font-size="13px" font-style="normal" font-weight="bold" text-decoration="none" x="289.569580078125" y="306.5">Thay đổi</text><text fill="#000000" stroke="none" font-family="Arial" font-size="13px" font-style="normal" font-weight="bold" text-decoration="none" x="287.763671875" y="319.5">mật khẩu</text></g></g><g transform="translate(-78,-6) scale(1,1)"><path fill="#C0C0C0" stroke="none" d="M 351 363 C 351 343.1177472 390.3989376 327 439 327 C 487.6010624 327 527 343.1177472 527 363 C 527 382.8822528 487.6010624 399 439 399 C 390.3989376 399 351 382.8822528 351 363 Z" opacity="0.2"/></g><g transform="translate(-78,-6) scale(1,1)"><path fill="#ffffff" stroke="none" d="M 344 356 C 344 336.1177472 383.3989376 320 432 320 C 480.6010624 320 520 336.1177472 520 356 C 520 375.8822528 480.6010624 392 432 392 C 383.3989376 392 344 375.8822528 344 356 Z"/></g><g transform="translate(-78,-6) scale(1,1)"><path fill="none" stroke="#000000" d="M 344 356 C 344 336.1177472 383.3989376 320 432 320 C 480.6010624 320 520 336.1177472 520 356 C 520 375.8822528 480.6010624 392 432 392 C 383.3989376 392 344 375.8822528 344 356 Z" stroke-miterlimit="10"/></g><g transform="translate(-78,-6) scale(1,1)"><g><path fill="none" stroke="none"/><text fill="#000000" stroke="none" font-family="Arial" font-size="13px" font-style="normal" font-weight="bold" text-decoration="none" x="386.833251953125" y="356.5">Xem danh sách</text><text fill="#000000" stroke="none" font-family="Arial" font-size="13px" font-style="normal" font-weight="bold" text-decoration="none" x="382.91357421875" y="369.5">các tuyến đường</text></g></g><g transform="translate(-78,-6) scale(1,1)"><path fill="#C0C0C0" stroke="none" d="M 335 427 C 335 415.954304 376.1897984 407 427 407 C 477.8102016 407 519 415.954304 519 427 C 519 438.045696 477.8102016 447 427 447 C 376.1897984 447 335 438.045696 335 427 Z" opacity="0.2"/></g><g transform="translate(-78,-6) scale(1,1)"><path fill="#ffffff" stroke="none" d="M 328 420 C 328 408.954304 369.1897984 400 420 400 C 470.8102016 400 512 408.954304 512 420 C 512 431.045696 470.8102016 440 420 440 C 369.1897984 440 328 431.045696 328 420 Z"/></g><g transform="translate(-78,-6) scale(1,1)"><path fill="none" stroke="#000000" d="M 328 420 C 328 408.954304 369.1897984 400 420 400 C 470.8102016 400 512 408.954304 512 420 C 512 431.045696 470.8102016 440 420 440 C 369.1897984 440 328 431.045696 328 420 Z" stroke-miterlimit="10"/></g><g transform="translate(-78,-6) scale(1,1)"><g><path fill="none" stroke="none"/><text fill="#000000" stroke="none" font-family="Arial" font-size="13px" font-style="normal" font-weight="bold" text-decoration="none" x="371.9228515625" y="427">Cập nhật dữ liệu</text></g></g><g transform="translate(-78,-6) scale(1,1)"><path fill="#C0C0C0" stroke="none" d="M 359 483 C 359 471.954304 400.1897984 463 451 463 C 501.8102016 463 543 471.954304 543 483 C 543 494.045696 501.8102016 503 451 503 C 400.1897984 503 359 494.045696 359 483 Z" opacity="0.2"/></g><g transform="translate(-78,-6) scale(1,1)"><path fill="#ffffff" stroke="none" d="M 352 476 C 352 464.954304 393.1897984 456 444 456 C 494.8102016 456 536 464.954304 536 476 C 536 487.045696 494.8102016 496 444 496 C 393.1897984 496 352 487.045696 352 476 Z"/></g><g transform="translate(-78,-6) scale(1,1)"><path fill="none" stroke="#000000" d="M 352 476 C 352 464.954304 393.1897984 456 444 456 C 494.8102016 456 536 464.954304 536 476 C 536 487.045696 494.8102016 496 444 496 C 393.1897984 496 352 487.045696 352 476 Z" stroke-miterlimit="10"/></g><g transform="translate(-78,-6) scale(1,1)"><g><path fill="none" stroke="none"/><text fill="#000000" stroke="none" font-family="Arial" font-size="13px" font-style="normal" font-weight="bold" text-decoration="none" x="389.07373046875" y="483">Phản hồi về địa chỉ</text></g></g><g transform="translate(-78,-6) scale(1,1)"><path fill="#C0C0C0" stroke="none" d="M 567 479 C 567 470.1634432 613.8250418414062 463 671.586669921875 463 C 729.3482980023438 463 776.17333984375 470.1634432 776.17333984375 479 C 776.17333984375 487.8365568 729.3482980023438 495 671.586669921875 495 C 613.8250418414062 495 567 487.8365568 567 479 Z" opacity="0.2"/></g><g transform="translate(-78,-6) scale(1,1)"><path fill="#ffffff" stroke="none" d="M 560 472 C 560 463.1634432 606.8250418414062 456 664.586669921875 456 C 722.3482980023438 456 769.17333984375 463.1634432 769.17333984375 472 C 769.17333984375 480.8365568 722.3482980023438 488 664.586669921875 488 C 606.8250418414062 488 560 480.8365568 560 472 Z"/></g><g transform="translate(-78,-6) scale(1,1)"><path fill="none" stroke="#000000" d="M 560 472 C 560 463.1634432 606.8250418414062 456 664.586669921875 456 C 722.3482980023438 456 769.17333984375 463.1634432 769.17333984375 472 C 769.17333984375 480.8365568 722.3482980023438 488 664.586669921875 488 C 606.8250418414062 488 560 480.8365568 560 472 Z" stroke-miterlimit="10"/></g><g transform="translate(-78,-6) scale(1,1)"><path fill="none" stroke="#000000" d="M 560 493 L 769.17333984375 493" stroke-miterlimit="10"/></g><g transform="translate(-78,-6) scale(1,1)"><g><path fill="none" stroke="none"/><text fill="#000000" stroke="none" font-family="Arial" font-size="13px" font-style="normal" font-weight="bold" text-decoration="none" x="612.250244140625" y="481.5">Xem tuyến đường</text></g></g><g transform="translate(-78,-6) scale(1,1)"><g><path fill="none" stroke="none"/><text fill="#000000" stroke="none" font-family="Arial" font-size="13px" font-style="normal" font-weight="normal" text-decoration="none" x="565" y="510.5">Nhấn nút Quản lý nhắc nhở</text></g></g><g transform="translate(-78,-6) scale(1,1)"><g><path fill="none" stroke="none"/><text fill="#000000" stroke="none" font-family="Arial" font-size="13px" font-style="normal" font-weight="normal" text-decoration="none" x="565" y="525.5">Xác định được vị trí hiện tại</text></g></g><g transform="translate(-78,-6) scale(1,1)"><g><path fill="none" stroke="none"/><text fill="#000000" stroke="none" font-family="Arial" font-size="13px" font-style="normal" font-weight="normal" text-decoration="none" x="565" y="540.5">Nhấn nút Phản hồi về trạm xe buýt</text></g></g><g transform="translate(-78,-6) scale(1,1)"><g><path fill="none" stroke="none"/><text fill="#000000" stroke="none" font-family="Arial" font-size="13px" font-style="normal" font-weight="normal" text-decoration="none" x="565" y="555.5">Nhấn nút Trở về</text></g></g><g transform="translate(-78,-6) scale(1,1)"><path fill="#C0C0C0" stroke="none" d="M 367 539 C 367 527.954304 404.6080768 519 451 519 C 497.3919232 519 535 527.954304 535 539 C 535 550.045696 497.3919232 559 451 559 C 404.6080768 559 367 550.045696 367 539 Z" opacity="0.2"/></g><g transform="translate(-78,-6) scale(1,1)"><path fill="#ffffff" stroke="none" d="M 360 532 C 360 520.954304 397.6080768 512 444 512 C 490.3919232 512 528 520.954304 528 532 C 528 543.045696 490.3919232 552 444 552 C 397.6080768 552 360 543.045696 360 532 Z"/></g><g transform="translate(-78,-6) scale(1,1)"><path fill="none" stroke="#000000" d="M 360 532 C 360 520.954304 397.6080768 512 444 512 C 490.3919232 512 528 520.954304 528 532 C 528 543.045696 490.3919232 552 444 552 C 397.6080768 552 360 543.045696 360 532 Z" stroke-miterlimit="10"/></g><g transform="translate(-78,-6) scale(1,1)"><g><path fill="none" stroke="none"/><text fill="#000000" stroke="none" font-family="Arial" font-size="13px" font-style="normal" font-weight="bold" text-decoration="none" x="399.556884765625" y="539">Chỉ định địa chỉ</text></g></g><g transform="translate(-78,-6) scale(1,1)"><path fill="#C0C0C0" stroke="none" d="M 751 265 C 751 250.6405952 790.3989376 239 839 239 C 887.6010624 239 927 250.6405952 927 265 C 927 279.3594048 887.6010624 291 839 291 C 790.3989376 291 751 279.3594048 751 265 Z" opacity="0.2"/></g><g transform="translate(-78,-6) scale(1,1)"><path fill="#ffffff" stroke="none" d="M 744 258 C 744 243.6405952 783.3989376 232 832 232 C 880.6010624 232 920 243.6405952 920 258 C 920 272.3594048 880.6010624 284 832 284 C 783.3989376 284 744 272.3594048 744 258 Z"/></g><g transform="translate(-78,-6) scale(1,1)"><path fill="none" stroke="#000000" d="M 744 258 C 744 243.6405952 783.3989376 232 832 232 C 880.6010624 232 920 243.6405952 920 258 C 920 272.3594048 880.6010624 284 832 284 C 783.3989376 284 744 272.3594048 744 258 Z" stroke-miterlimit="10"/></g><g transform="translate(-78,-6) scale(1,1)"><g><path fill="none" stroke="none"/><text fill="#000000" stroke="none" font-family="Arial" font-size="13px" font-style="normal" font-weight="bold" text-decoration="none" x="785.04638671875" y="265">Tìm trạm kế tiếp</text></g></g><g transform="translate(-78,-6) scale(1,1)"><path fill="#C0C0C0" stroke="none" d="M 879 187 C 879 175.954304 911.2354944 167 951 167 C 990.7645056 167 1023 175.954304 1023 187 C 1023 198.045696 990.7645056 207 951 207 C 911.2354944 207 879 198.045696 879 187 Z" opacity="0.2"/></g><g transform="translate(-78,-6) scale(1,1)"><path fill="#ffffff" stroke="none" d="M 872 180 C 872 168.954304 904.2354944 160 944 160 C 983.7645056 160 1016 168.954304 1016 180 C 1016 191.045696 983.7645056 200 944 200 C 904.2354944 200 872 191.045696 872 180 Z"/></g><g transform="translate(-78,-6) scale(1,1)"><path fill="none" stroke="#000000" d="M 872 180 C 872 168.954304 904.2354944 160 944 160 C 983.7645056 160 1016 168.954304 1016 180 C 1016 191.045696 983.7645056 200 944 200 C 904.2354944 200 872 191.045696 872 180 Z" stroke-miterlimit="10"/></g><g transform="translate(-78,-6) scale(1,1)"><g><path fill="none" stroke="none"/><text fill="#000000" stroke="none" font-family="Arial" font-size="13px" font-style="normal" font-weight="bold" text-decoration="none" x="903.171875" y="187">Hiện lịch nhắc</text></g></g><g transform="translate(-78,-6) scale(1,1)"><path fill="#C0C0C0" stroke="none" d="M 743 123.5 C 743 98.92332640000001 778.817216 79 823 79 C 867.182784 79 903 98.92332640000001 903 123.5 C 903 148.0766736 867.182784 168 823 168 C 778.817216 168 743 148.0766736 743 123.5 Z" opacity="0.2"/></g><g transform="translate(-78,-6) scale(1,1)"><path fill="#ffffff" stroke="none" d="M 736 116.5 C 736 91.92332640000001 771.817216 72 816 72 C 860.182784 72 896 91.92332640000001 896 116.5 C 896 141.0766736 860.182784 161 816 161 C 771.817216 161 736 141.0766736 736 116.5 Z"/></g><g transform="translate(-78,-6) scale(1,1)"><path fill="none" stroke="#000000" d="M 736 116.5 C 736 91.92332640000001 771.817216 72 816 72 C 860.182784 72 896 91.92332640000001 896 116.5 C 896 141.0766736 860.182784 161 816 161 C 771.817216 161 736 141.0766736 736 116.5 Z" stroke-miterlimit="10"/></g><g transform="translate(-78,-6) scale(1,1)"><g><path fill="none" stroke="none"/><text fill="#000000" stroke="none" font-family="Arial" font-size="13px" font-style="normal" font-weight="bold" text-decoration="none" x="775.143310546875" y="117">Lưu lại lịch sử</text><text fill="#000000" stroke="none" font-family="Arial" font-size="13px" font-style="normal" font-weight="bold" text-decoration="none" x="778.83447265625" y="130">tuyến đường</text></g></g><g transform="translate(-78,-6) scale(1,1)"><path fill="#C0C0C0" stroke="none" d="M 855 514.5 C 855 494.8938896 889.0263552 479 931 479 C 972.9736448 479 1007 494.8938896 1007 514.5 C 1007 534.1061104 972.9736448 550 931 550 C 889.0263552 550 855 534.1061104 855 514.5 Z" opacity="0.2"/></g><g transform="translate(-78,-6) scale(1,1)"><path fill="#ffffff" stroke="none" d="M 848 507.5 C 848 487.8938896 882.0263552 472 924 472 C 965.9736448 472 1000 487.8938896 1000 507.5 C 1000 527.1061104 965.9736448 543 924 543 C 882.0263552 543 848 527.1061104 848 507.5 Z"/></g><g transform="translate(-78,-6) scale(1,1)"><path fill="none" stroke="#000000" d="M 848 507.5 C 848 487.8938896 882.0263552 472 924 472 C 965.9736448 472 1000 487.8938896 1000 507.5 C 1000 527.1061104 965.9736448 543 924 543 C 882.0263552 543 848 527.1061104 848 507.5 Z" stroke-miterlimit="10"/></g><g transform="translate(-78,-6) scale(1,1)"><g><path fill="none" stroke="none"/><text fill="#000000" stroke="none" font-family="Arial" font-size="13px" font-style="normal" font-weight="bold" text-decoration="none" x="889.668701171875" y="508">Phản hồi về</text><text fill="#000000" stroke="none" font-family="Arial" font-size="13px" font-style="normal" font-weight="bold" text-decoration="none" x="888.2373046875" y="521">trạm xe buýt</text></g></g><g transform="translate(-78,-6) scale(1,1)"><path fill="#C0C0C0" stroke="none" d="M 855 738.5 C 855 718.8938896 885.4446336 703 923 703 C 960.5553664 703 991 718.8938896 991 738.5 C 991 758.1061104 960.5553664 774 923 774 C 885.4446336 774 855 758.1061104 855 738.5 Z" opacity="0.2"/></g><g transform="translate(-78,-6) scale(1,1)"><path fill="#ffffff" stroke="none" d="M 848 731.5 C 848 711.8938896 878.4446336 696 916 696 C 953.5553664 696 984 711.8938896 984 731.5 C 984 751.1061104 953.5553664 767 916 767 C 878.4446336 767 848 751.1061104 848 731.5 Z"/></g><g transform="translate(-78,-6) scale(1,1)"><path fill="none" stroke="#000000" d="M 848 731.5 C 848 711.8938896 878.4446336 696 916 696 C 953.5553664 696 984 711.8938896 984 731.5 C 984 751.1061104 953.5553664 767 916 767 C 878.4446336 767 848 751.1061104 848 731.5 Z" stroke-miterlimit="10"/></g><g transform="translate(-78,-6) scale(1,1)"><g><path fill="none" stroke="none"/><text fill="#000000" stroke="none" font-family="Arial" font-size="13px" font-style="normal" font-weight="bold" text-decoration="none" x="891.87255859375" y="732">Tạo mới</text><text fill="#000000" stroke="none" font-family="Arial" font-size="13px" font-style="normal" font-weight="bold" text-decoration="none" x="878.83447265625" y="745">tuyến đường</text></g></g><g transform="translate(-78,-6) scale(1,1)"><path fill="#C0C0C0" stroke="none" d="M 335 595 C 335 579.5360256 385.1441024 567 447 567 C 508.8558976 567 559 579.5360256 559 595 C 559 610.4639744 508.8558976 623 447 623 C 385.1441024 623 335 610.4639744 335 595 Z" opacity="0.2"/></g><g transform="translate(-78,-6) scale(1,1)"><path fill="#ffffff" stroke="none" d="M 328 588 C 328 572.5360256 378.1441024 560 440 560 C 501.8558976 560 552 572.5360256 552 588 C 552 603.4639744 501.8558976 616 440 616 C 378.1441024 616 328 603.4639744 328 588 Z"/></g><g transform="translate(-78,-6) scale(1,1)"><path fill="none" stroke="#000000" d="M 328 588 C 328 572.5360256 378.1441024 560 440 560 C 501.8558976 560 552 572.5360256 552 588 C 552 603.4639744 501.8558976 616 440 616 C 378.1441024 616 328 603.4639744 328 588 Z" stroke-miterlimit="10"/></g><g transform="translate(-78,-6) scale(1,1)"><g><path fill="none" stroke="none"/><text fill="#000000" stroke="none" font-family="Arial" font-size="13px" font-style="normal" font-weight="bold" text-decoration="none" x="373.936767578125" y="595">Tìm tuyến đường đi bộ</text></g></g><g transform="translate(-78,-6) scale(1,1)"><path fill="#C0C0C0" stroke="none" d="M 231 811 C 231 786.6994688 279.3532416 767 339 767 C 398.6467584 767 447 786.6994688 447 811 C 447 835.3005312 398.6467584 855 339 855 C 279.3532416 855 231 835.3005312 231 811 Z" opacity="0.2"/></g><g transform="translate(-78,-6) scale(1,1)"><path fill="#ffffff" stroke="none" d="M 224 804 C 224 779.6994688 272.3532416 760 332 760 C 391.6467584 760 440 779.6994688 440 804 C 440 828.3005312 391.6467584 848 332 848 C 272.3532416 848 224 828.3005312 224 804 Z"/></g><g transform="translate(-78,-6) scale(1,1)"><path fill="none" stroke="#000000" d="M 224 804 C 224 779.6994688 272.3532416 760 332 760 C 391.6467584 760 440 779.6994688 440 804 C 440 828.3005312 391.6467584 848 332 848 C 272.3532416 848 224 828.3005312 224 804 Z" stroke-miterlimit="10"/></g><g transform="translate(-78,-6) scale(1,1)"><g><path fill="none" stroke="none"/><text fill="#000000" stroke="none" font-family="Arial" font-size="13px" font-style="normal" font-weight="bold" text-decoration="none" x="274.537841796875" y="804.5">Đăng tải lịch sử của</text><text fill="#000000" stroke="none" font-family="Arial" font-size="13px" font-style="normal" font-weight="bold" text-decoration="none" x="272.07177734375" y="817.5">tuyến đường xe buýt</text></g></g><g transform="translate(-78,-6) scale(1,1)"><path fill="#C0C0C0" stroke="none" d="M 263 699 C 263 679.1177472 316.725824 663 383 663 C 449.274176 663 503 679.1177472 503 699 C 503 718.8822528 449.274176 735 383 735 C 316.725824 735 263 718.8822528 263 699 Z" opacity="0.2"/></g><g transform="translate(-78,-6) scale(1,1)"><path fill="#ffffff" stroke="none" d="M 256 692 C 256 672.1177472 309.725824 656 376 656 C 442.274176 656 496 672.1177472 496 692 C 496 711.8822528 442.274176 728 376 728 C 309.725824 728 256 711.8822528 256 692 Z"/></g><g transform="translate(-78,-6) scale(1,1)"><path fill="none" stroke="#000000" d="M 256 692 C 256 672.1177472 309.725824 656 376 656 C 442.274176 656 496 672.1177472 496 692 C 496 711.8822528 442.274176 728 376 728 C 309.725824 728 256 711.8822528 256 692 Z" stroke-miterlimit="10"/></g><g transform="translate(-78,-6) scale(1,1)"><g><path fill="none" stroke="none"/><text fill="#000000" stroke="none" font-family="Arial" font-size="13px" font-style="normal" font-weight="bold" text-decoration="none" x="302.697265625" y="692.5">Phản hồi về tuyến đường</text><text fill="#000000" stroke="none" font-family="Arial" font-size="13px" font-style="normal" font-weight="bold" text-decoration="none" x="327.221435546875" y="705.5">chạy của xe buýt</text></g></g><g transform="translate(-78,-6) scale(1,1)"><path fill="#C0C0C0" stroke="none" d="M 207 912 C 207 902.6111584 231.8481936 895 262.5 895 C 293.1518064 895 318 902.6111584 318 912 C 318 921.3888416 293.1518064 929 262.5 929 C 231.8481936 929 207 921.3888416 207 912 Z" opacity="0.2"/></g><g transform="translate(-78,-6) scale(1,1)"><path fill="#ffffff" stroke="none" d="M 200 905 C 200 895.6111584 224.8481936 888 255.5 888 C 286.1518064 888 311 895.6111584 311 905 C 311 914.3888416 286.1518064 922 255.5 922 C 224.8481936 922 200 914.3888416 200 905 Z"/></g><g transform="translate(-78,-6) scale(1,1)"><path fill="none" stroke="#000000" d="M 200 905 C 200 895.6111584 224.8481936 888 255.5 888 C 286.1518064 888 311 895.6111584 311 905 C 311 914.3888416 286.1518064 922 255.5 922 C 224.8481936 922 200 914.3888416 200 905 Z" stroke-miterlimit="10"/></g><g transform="translate(-78,-6) scale(1,1)"><g><path fill="none" stroke="none"/><text fill="#000000" stroke="none" font-family="Arial" font-size="13px" font-style="normal" font-weight="bold" text-decoration="none" x="230.226806640625" y="912">Tìm vị trí</text></g></g><g transform="translate(-78,-6) scale(1,1)"><path fill="#C0C0C0" stroke="none" d="M 855 818.5 C 855 798.8938896 887.0116368 783 926.5 783 C 965.9883632 783 998 798.8938896 998 818.5 C 998 838.1061104 965.9883632 854 926.5 854 C 887.0116368 854 855 838.1061104 855 818.5 Z" opacity="0.2"/></g><g transform="translate(-78,-6) scale(1,1)"><path fill="#ffffff" stroke="none" d="M 848 811.5 C 848 791.8938896 880.0116368 776 919.5 776 C 958.9883632 776 991 791.8938896 991 811.5 C 991 831.1061104 958.9883632 847 919.5 847 C 880.0116368 847 848 831.1061104 848 811.5 Z"/></g><g transform="translate(-78,-6) scale(1,1)"><path fill="none" stroke="#000000" d="M 848 811.5 C 848 791.8938896 880.0116368 776 919.5 776 C 958.9883632 776 991 791.8938896 991 811.5 C 991 831.1061104 958.9883632 847 919.5 847 C 880.0116368 847 848 831.1061104 848 811.5 Z" stroke-miterlimit="10"/></g><g transform="translate(-78,-6) scale(1,1)"><g><path fill="none" stroke="none"/><text fill="#000000" stroke="none" font-family="Arial" font-size="13px" font-style="normal" font-weight="bold" text-decoration="none" x="889.49462890625" y="812">Chỉnh sửa</text><text fill="#000000" stroke="none" font-family="Arial" font-size="13px" font-style="normal" font-weight="bold" text-decoration="none" x="882.33447265625" y="825">tuyến đường</text></g></g><g transform="translate(-78,-6) scale(1,1)"><path fill="#C0C0C0" stroke="none" d="M 807 889 C 807 874.6405952 846.3989376 863 895 863 C 943.6010624 863 983 874.6405952 983 889 C 983 903.3594048 943.6010624 915 895 915 C 846.3989376 915 807 903.3594048 807 889 Z" opacity="0.2"/></g><g transform="translate(-78,-6) scale(1,1)"><path fill="#ffffff" stroke="none" d="M 800 882 C 800 867.6405952 839.3989376 856 888 856 C 936.6010624 856 976 867.6405952 976 882 C 976 896.3594048 936.6010624 908 888 908 C 839.3989376 908 800 896.3594048 800 882 Z"/></g><g transform="translate(-78,-6) scale(1,1)"><path fill="none" stroke="#000000" d="M 800 882 C 800 867.6405952 839.3989376 856 888 856 C 936.6010624 856 976 867.6405952 976 882 C 976 896.3594048 936.6010624 908 888 908 C 839.3989376 908 800 896.3594048 800 882 Z" stroke-miterlimit="10"/></g><g transform="translate(-78,-6) scale(1,1)"><g><path fill="none" stroke="none"/><text fill="#000000" stroke="none" font-family="Arial" font-size="13px" font-style="normal" font-weight="bold" text-decoration="none" x="837.463134765625" y="889">Xoá tuyến đường</text></g></g><g transform="translate(-78,-6) scale(1,1)"><path fill="#C0C0C0" stroke="none" d="M 543 744.5 C 543 725.9984592 589.5623808 711 647 711 C 704.4376192 711 751 725.9984592 751 744.5 C 751 763.0015408 704.4376192 778 647 778 C 589.5623808 778 543 763.0015408 543 744.5 Z" opacity="0.2"/></g><g transform="translate(-78,-6) scale(1,1)"><path fill="#ffffff" stroke="none" d="M 536 737.5 C 536 718.9984592 582.5623808 704 640 704 C 697.4376192 704 744 718.9984592 744 737.5 C 744 756.0015408 697.4376192 771 640 771 C 582.5623808 771 536 756.0015408 536 737.5 Z"/></g><g transform="translate(-78,-6) scale(1,1)"><path fill="none" stroke="#000000" d="M 536 737.5 C 536 718.9984592 582.5623808 704 640 704 C 697.4376192 704 744 718.9984592 744 737.5 C 744 756.0015408 697.4376192 771 640 771 C 582.5623808 771 536 756.0015408 536 737.5 Z" stroke-miterlimit="10"/></g><g transform="translate(-78,-6) scale(1,1)"><g><path fill="none" stroke="none"/><text fill="#000000" stroke="none" font-family="Arial" font-size="13px" font-style="normal" font-weight="bold" text-decoration="none" x="578.627685546875" y="738">Quản lý tuyến đường</text><text fill="#000000" stroke="none" font-family="Arial" font-size="13px" font-style="normal" font-weight="bold" text-decoration="none" x="604.583251953125" y="751">của cá nhân</text></g></g><g transform="translate(-78,-6) scale(1,1)"><path fill="none" stroke="#000000" d="M 139 87 L 223 85" stroke-miterlimit="10"/></g><g transform="translate(-78,-6) scale(1,1)"><path fill="none" stroke="#000000" d="M 139 98 L 231 135" stroke-miterlimit="10"/></g><g transform="translate(-78,-6) scale(1,1)"><path fill="none" stroke="#000000" d="M 475 131 L 525 167" stroke-miterlimit="10"/></g><g transform="translate(-78,-6) scale(1,1)"><path fill="#FFFFFF" stroke="none" d="M 503.5859984673268 161.95613854684015 L 525 167 L 513.4245629408024 148.29146566701291"/></g><g transform="translate(-78,-6) scale(1,1)"><path fill="none" stroke="#000000" d="M 503.5859984673268 161.95613854684015 L 525 167 L 513.4245629408024 148.29146566701291 L 503.5859984673268 161.95613854684015" stroke-miterlimit="10"/></g><g transform="translate(-78,-6) scale(1,1)"><path fill="none" stroke="#000000" d="M 562 99 L 562 167" stroke-miterlimit="10"/></g><g transform="translate(-78,-6) scale(1,1)"><path fill="#FFFFFF" stroke="none" d="M 553.580964487968 146.6746502847517 L 562 167 L 570.419035512032 146.6746502847517"/></g><g transform="translate(-78,-6) scale(1,1)"><path fill="none" stroke="#000000" d="M 553.580964487968 146.6746502847517 L 562 167 L 570.419035512032 146.6746502847517 L 553.580964487968 146.6746502847517" stroke-miterlimit="10"/></g><g transform="translate(-78,-6) scale(1,1)"><path fill="none" stroke="#000000" d="M 646 139 L 603 167" stroke-miterlimit="10"/></g><g transform="translate(-78,-6) scale(1,1)"><path fill="#FFFFFF" stroke="none" d="M 615.438562324093 148.85386632613844 L 603 167 L 624.6266459406828 162.96413759447265"/></g><g transform="translate(-78,-6) scale(1,1)"><path fill="none" stroke="#000000" d="M 615.438562324093 148.85386632613844 L 603 167 L 624.6266459406828 162.96413759447265 L 615.438562324093 148.85386632613844" stroke-miterlimit="10"/></g><g transform="translate(-78,-6) scale(1,1)"><path fill="none" stroke="#000000" d="M 571 221 L 647 455" stroke-miterlimit="10" stroke-dasharray="3"/></g><g transform="translate(-78,-6) scale(1,1)"><path fill="none" stroke="#000000" d="M 639.8570806122857 446.6346725933401 L 647 455 L 647.8643729995732 444.0340135273835" stroke-miterlimit="10"/></g><g transform="translate(-78,-6) scale(1,1)"><g><path fill="none" stroke="none"/><text fill="#000000" stroke="none" font-family="Arial" font-size="13px" font-style="normal" font-weight="normal" text-decoration="none" x="546.5" y="351.5">«extend»</text></g></g><g transform="translate(-78,-6) scale(1,1)"><path fill="#ffffff" stroke="none" d="M 376 240 L 660 240 L 670 250 L 670 290 L 376 290 L 376 240"/></g><g transform="translate(-78,-6) scale(1,1)"><path fill="none" stroke="#000000" d="M 376 240 L 660 240 L 670 250 L 670 290 L 376 290 L 376 240 L 376 240" stroke-miterlimit="10"/></g><g transform="translate(-78,-6) scale(1,1)"><path fill="none" stroke="#000000" d="M 660 240 L 660 250 L 670 250 L 660 240" stroke-miterlimit="10"/></g><g transform="translate(-78,-6) scale(1,1)"><g><path fill="none" stroke="none"/><text fill="#000000" stroke="none" font-family="Arial" font-size="13px" font-style="normal" font-weight="normal" text-decoration="none" x="381" y="258">Điều kiện: {Actor nhấn Quản lý nhắc nhở}</text></g></g><g transform="translate(-78,-6) scale(1,1)"><g><path fill="none" stroke="none"/><text fill="#000000" stroke="none" font-family="Arial" font-size="13px" font-style="normal" font-weight="normal" text-decoration="none" x="381" y="273">Điểm mở rộng: Nhấn nút Quản lý nhắc nhở</text></g></g><g transform="translate(-78,-6) scale(1,1)"><path fill="none" stroke="#000000" d="M 609 338 L 555 292" stroke-miterlimit="10" stroke-dasharray="3"/></g><g transform="translate(-78,-6) scale(1,1)"><path fill="none" stroke="#000000" d="M 139 463 L 243 277" stroke-miterlimit="10"/></g><g transform="translate(-78,-6) scale(1,1)"><path fill="none" stroke="#000000" d="M 139 483 L 287 333" stroke-miterlimit="10"/></g><g transform="translate(-78,-6) scale(1,1)"><path fill="none" stroke="#000000" d="M 139 497 L 355 393" stroke-miterlimit="10"/></g><g transform="translate(-78,-6) scale(1,1)"><path fill="none" stroke="#000000" d="M 139 502 L 348 441" stroke-miterlimit="10"/></g><g transform="translate(-78,-6) scale(1,1)"><path fill="none" stroke="#000000" d="M 139 507 L 351 486" stroke-miterlimit="10"/></g><g transform="translate(-78,-6) scale(1,1)"><path fill="none" stroke="#000000" d="M 139 528 L 323 655" stroke-miterlimit="10"/></g><g transform="translate(-78,-6) scale(1,1)"><path fill="none" stroke="#000000" d="M 139 516 L 327 561" stroke-miterlimit="10"/></g><g transform="translate(-78,-6) scale(1,1)"><path fill="none" stroke="#000000" d="M 139 510 L 559 508" stroke-miterlimit="10"/></g><g transform="translate(-78,-6) scale(1,1)"><path fill="none" stroke="#000000" d="M 829 231 L 821 162" stroke-miterlimit="10" stroke-dasharray="3"/></g><g transform="translate(-78,-6) scale(1,1)"><path fill="none" stroke="#000000" d="M 826.3519470628554 171.6102373870989 L 821 162 L 817.9889340354664 172.5798620859266" stroke-miterlimit="10"/></g><g transform="translate(-78,-6) scale(1,1)"><g><path fill="none" stroke="none"/><text fill="#000000" stroke="none" font-family="Arial" font-size="13px" font-style="normal" font-weight="normal" text-decoration="none" x="767.5" y="205.5">«include»</text></g></g><g transform="translate(-78,-6) scale(1,1)"><path fill="none" stroke="#000000" d="M 871 231 L 914 201" stroke-miterlimit="10" stroke-dasharray="3"/></g><g transform="translate(-78,-6) scale(1,1)"><path fill="none" stroke="#000000" d="M 908.0739250095925 210.26723449622733 L 914 201 L 903.2567078333345 203.36255654359104" stroke-miterlimit="10"/></g><g transform="translate(-78,-6) scale(1,1)"><g><path fill="none" stroke="none"/><text fill="#000000" stroke="none" font-family="Arial" font-size="13px" font-style="normal" font-weight="normal" text-decoration="none" x="911.5" y="227.5">«include»</text></g></g><g transform="translate(-78,-6) scale(1,1)"><path fill="none" stroke="#000000" d="M 814 285 L 700 455" stroke-miterlimit="10" stroke-dasharray="3"/></g><g transform="translate(-78,-6) scale(1,1)"><path fill="none" stroke="#000000" d="M 702.163942872454 444.21494778664675 L 700 455 L 709.1563222347256 448.90395512369946" stroke-miterlimit="10"/></g><g transform="translate(-78,-6) scale(1,1)"><g><path fill="none" stroke="none"/><text fill="#000000" stroke="none" font-family="Arial" font-size="13px" font-style="normal" font-weight="normal" text-decoration="none" x="705.5" y="358.5">«extend»</text></g></g><g transform="translate(-78,-6) scale(1,1)"><path fill="#ffffff" stroke="none" d="M 656 296 L 973 296 L 983 306 L 983 347 L 656 347 L 656 296"/></g><g transform="translate(-78,-6) scale(1,1)"><path fill="none" stroke="#000000" d="M 656 296 L 973 296 L 983 306 L 983 347 L 656 347 L 656 296 L 656 296" stroke-miterlimit="10"/></g><g transform="translate(-78,-6) scale(1,1)"><path fill="none" stroke="#000000" d="M 973 296 L 973 306 L 983 306 L 973 296" stroke-miterlimit="10"/></g><g transform="translate(-78,-6) scale(1,1)"><g><path fill="none" stroke="none"/><text fill="#000000" stroke="none" font-family="Arial" font-size="13px" font-style="normal" font-weight="normal" text-decoration="none" x="661" y="314">Điều kiện: {Actor xác định được vị trí hiện tại}</text></g></g><g transform="translate(-78,-6) scale(1,1)"><g><path fill="none" stroke="none"/><text fill="#000000" stroke="none" font-family="Arial" font-size="13px" font-style="normal" font-weight="normal" text-decoration="none" x="661" y="329">Điểm mở rộng: Xác định được vị trí hiện tại</text></g></g><g transform="translate(-78,-6) scale(1,1)"><path fill="none" stroke="#000000" d="M 757 370 L 785 349" stroke-miterlimit="10" stroke-dasharray="3"/></g><g transform="translate(-78,-6) scale(1,1)"><path fill="none" stroke="#000000" d="M 921 275 L 1079 305" stroke-miterlimit="10"/></g><g transform="translate(-78,-6) scale(1,1)"><path fill="none" stroke="#000000" d="M 847 507 L 770 508" stroke-miterlimit="10" stroke-dasharray="3"/></g><g transform="translate(-78,-6) scale(1,1)"><path fill="none" stroke="#000000" d="M 780.1071534828754 503.6588655314999 L 770 508 L 780.2164823869535 512.0771911455154" stroke-miterlimit="10"/></g><g transform="translate(-78,-6) scale(1,1)"><g><path fill="none" stroke="none"/><text fill="#000000" stroke="none" font-family="Arial" font-size="13px" font-style="normal" font-weight="normal" text-decoration="none" x="797.5" y="530.5">«extend»</text></g></g><g transform="translate(-78,-6) scale(1,1)"><path fill="#ffffff" stroke="none" d="M 680 384 L 1005 384 L 1015 394 L 1015 432 L 680 432 L 680 384"/></g><g transform="translate(-78,-6) scale(1,1)"><path fill="none" stroke="#000000" d="M 680 384 L 1005 384 L 1015 394 L 1015 432 L 680 432 L 680 384 L 680 384" stroke-miterlimit="10"/></g><g transform="translate(-78,-6) scale(1,1)"><path fill="none" stroke="#000000" d="M 1005 384 L 1005 394 L 1015 394 L 1005 384" stroke-miterlimit="10"/></g><g transform="translate(-78,-6) scale(1,1)"><g><path fill="none" stroke="none"/><text fill="#000000" stroke="none" font-family="Arial" font-size="13px" font-style="normal" font-weight="normal" text-decoration="none" x="685" y="402">Điều kiện: {Actor đã chọn một trạm, nhấn nút phản hồi}</text></g></g><g transform="translate(-78,-6) scale(1,1)"><g><path fill="none" stroke="none"/><text fill="#000000" stroke="none" font-family="Arial" font-size="13px" font-style="normal" font-weight="normal" text-decoration="none" x="685" y="417">Điểm mở rộng: Nhấn nút Phản hồi về trạm xe buýt</text></g></g><g transform="translate(-78,-6) scale(1,1)"><path fill="none" stroke="#000000" d="M 808 507 L 837 434" stroke-miterlimit="10" stroke-dasharray="3"/></g><g transform="translate(-78,-6) scale(1,1)"><path fill="none" stroke="#000000" d="M 847 733 L 745 735" stroke-miterlimit="10"/></g><g transform="translate(-78,-6) scale(1,1)"><path fill="#FFFFFF" stroke="none" d="M 765.1563962201599 726.1841227653782 L 745 735 L 765.4864910262671 743.0189578768487"/></g><g transform="translate(-78,-6) scale(1,1)"><path fill="none" stroke="#000000" d="M 765.1563962201599 726.1841227653782 L 745 735 L 765.4864910262671 743.0189578768487 L 765.1563962201599 726.1841227653782" stroke-miterlimit="10"/></g><g transform="translate(-78,-6) scale(1,1)"><path fill="none" stroke="#000000" d="M 847 792 L 745 765" stroke-miterlimit="10"/></g><g transform="translate(-78,-6) scale(1,1)"><path fill="#FFFFFF" stroke="none" d="M 766.8029903804116 762.0623801349257 L 745 765 L 762.4942532752765 778.3398314209918"/></g><g transform="translate(-78,-6) scale(1,1)"><path fill="none" stroke="#000000" d="M 766.8029903804116 762.0623801349257 L 745 765 L 762.4942532752765 778.3398314209918 L 766.8029903804116 762.0623801349257" stroke-miterlimit="10"/></g><g transform="translate(-78,-6) scale(1,1)"><path fill="none" stroke="#000000" d="M 842 855 L 700 772" stroke-miterlimit="10"/></g><g transform="translate(-78,-6) scale(1,1)"><path fill="#FFFFFF" stroke="none" d="M 721.7961091102414 774.9882482585039 L 700 772 L 713.2991659478766 789.5251871627905"/></g><g transform="translate(-78,-6) scale(1,1)"><path fill="none" stroke="#000000" d="M 721.7961091102414 774.9882482585039 L 700 772 L 713.2991659478766 789.5251871627905 L 721.7961091102414 774.9882482585039" stroke-miterlimit="10"/></g><g transform="translate(-78,-6) scale(1,1)"><path fill="none" stroke="#000000" d="M 139 521 L 561 703" stroke-miterlimit="10"/></g><g transform="translate(-78,-6) scale(1,1)"><path fill="none" stroke="#000000" d="M 139 512 L 359 526" stroke-miterlimit="10"/></g><g transform="translate(-78,-6) scale(1,1)"><path fill="none" stroke="#000000" d="M 139 545 L 298 759" stroke-miterlimit="10"/></g><g transform="translate(-78,-6) scale(1,1)"><path fill="none" stroke="#000000" d="M 249 887 L 130 557" stroke-miterlimit="10"/></g><g transform="translate(-78,-6) scale(1,1)"><path fill="#C0C0C0" stroke="none" d="M 207 965.5 C 207 957.4918704 243.936504 951 289.5 951 C 335.063496 951 372 957.4918704 372 965.5 C 372 973.5081296 335.063496 980 289.5 980 C 243.936504 980 207 973.5081296 207 965.5 Z" opacity="0.2"/></g><g transform="translate(-78,-6) scale(1,1)"><path fill="#ffffff" stroke="none" d="M 200 958.5 C 200 950.4918704 236.936504 944 282.5 944 C 328.063496 944 365 950.4918704 365 958.5 C 365 966.5081296 328.063496 973 282.5 973 C 236.936504 973 200 966.5081296 200 958.5 Z"/></g><g transform="translate(-78,-6) scale(1,1)"><path fill="none" stroke="#000000" d="M 200 958.5 C 200 950.4918704 236.936504 944 282.5 944 C 328.063496 944 365 950.4918704 365 958.5 C 365 966.5081296 328.063496 973 282.5 973 C 236.936504 973 200 966.5081296 200 958.5 Z" stroke-miterlimit="10"/></g><g transform="translate(-78,-6) scale(1,1)"><path fill="none" stroke="#000000" d="M 200 978 L 365 978" stroke-miterlimit="10"/></g><g transform="translate(-78,-6) scale(1,1)"><g><path fill="none" stroke="none"/><text fill="#000000" stroke="none" font-family="Arial" font-size="13px" font-style="normal" font-weight="bold" text-decoration="none" x="232.337646484375" y="968">Tìm tuyến đường</text></g></g><g transform="translate(-78,-6) scale(1,1)"><g><path fill="none" stroke="none"/><text fill="#000000" stroke="none" font-family="Arial" font-size="13px" font-style="normal" font-weight="normal" text-decoration="none" x="205" y="995.5">Nhấn nút Lưu</text></g></g><g transform="translate(-78,-6) scale(1,1)"><path fill="none" stroke="#000000" d="M 113 557 L 112 968 L 199 970" stroke-miterlimit="10"/></g><g transform="translate(-78,-6) scale(1,1)"><path fill="#C0C0C0" stroke="none" d="M 631 980 C 631 963.9837408 692.3369824 951 768 951 C 843.6630176 951 905 963.9837408 905 980 C 905 996.0162592 843.6630176 1009 768 1009 C 692.3369824 1009 631 996.0162592 631 980 Z" opacity="0.2"/></g><g transform="translate(-78,-6) scale(1,1)"><path fill="#ffffff" stroke="none" d="M 624 973 C 624 956.9837408 685.3369824 944 761 944 C 836.6630176 944 898 956.9837408 898 973 C 898 989.0162592 836.6630176 1002 761 1002 C 685.3369824 1002 624 989.0162592 624 973 Z"/></g><g transform="translate(-78,-6) scale(1,1)"><path fill="none" stroke="#000000" d="M 624 973 C 624 956.9837408 685.3369824 944 761 944 C 836.6630176 944 898 956.9837408 898 973 C 898 989.0162592 836.6630176 1002 761 1002 C 685.3369824 1002 624 989.0162592 624 973 Z" stroke-miterlimit="10"/></g><g transform="translate(-78,-6) scale(1,1)"><g><path fill="none" stroke="none"/><text fill="#000000" stroke="none" font-family="Arial" font-size="13px" font-style="normal" font-weight="bold" text-decoration="none" x="675.049560546875" y="980">Lưu tuyến đường đã tìm kiếm</text></g></g><g transform="translate(-78,-6) scale(1,1)"><path fill="none" stroke="#000000" d="M 623 973 L 366 972" stroke-miterlimit="10" stroke-dasharray="3"/></g><g transform="translate(-78,-6) scale(1,1)"><path fill="none" stroke="#000000" d="M 376.1789772481817 967.8300572928397 L 366 972 L 376.1462186031253 976.2490290723405" stroke-miterlimit="10"/></g><g transform="translate(-78,-6) scale(1,1)"><g><path fill="none" stroke="none"/><text fill="#000000" stroke="none" font-family="Arial" font-size="13px" font-style="normal" font-weight="normal" text-decoration="none" x="466.5" y="1008.5">«extend»</text></g></g><g transform="translate(-78,-6) scale(1,1)"><path fill="#ffffff" stroke="none" d="M 384 864 L 765 864 L 775 874 L 775 928 L 384 928 L 384 864"/></g><g transform="translate(-78,-6) scale(1,1)"><path fill="none" stroke="#000000" d="M 384 864 L 765 864 L 775 874 L 775 928 L 384 928 L 384 864 L 384 864" stroke-miterlimit="10"/></g><g transform="translate(-78,-6) scale(1,1)"><path fill="none" stroke="#000000" d="M 765 864 L 765 874 L 775 874 L 765 864" stroke-miterlimit="10"/></g><g transform="translate(-78,-6) scale(1,1)"><g><path fill="none" stroke="none"/><text fill="#000000" stroke="none" font-family="Arial" font-size="13px" font-style="normal" font-weight="normal" text-decoration="none" x="389" y="882">Điều kiện: {Actor tìm thành công một tuyến đường, nhấn nút Lưu}</text></g></g><g transform="translate(-78,-6) scale(1,1)"><g><path fill="none" stroke="none"/><text fill="#000000" stroke="none" font-family="Arial" font-size="13px" font-style="normal" font-weight="normal" text-decoration="none" x="389" y="897">Điểm mở rộng: Nhấn nút Lưu</text></g></g><g transform="translate(-78,-6) scale(1,1)"><path fill="none" stroke="#000000" d="M 494 972 L 542 930" stroke-miterlimit="10" stroke-dasharray="3"/></g><g transform="translate(-78,-6) scale(1,1)"><path fill="#C0C0C0" stroke="none" d="M 551 664 C 551 654.6111584 607.8598304 647 678 647 C 748.1401696 647 805 654.6111584 805 664 C 805 673.3888416 748.1401696 681 678 681 C 607.8598304 681 551 673.3888416 551 664 Z" opacity="0.2"/></g><g transform="translate(-78,-6) scale(1,1)"><path fill="#ffffff" stroke="none" d="M 544 657 C 544 647.6111584 600.8598304 640 671 640 C 741.1401696 640 798 647.6111584 798 657 C 798 666.3888416 741.1401696 674 671 674 C 600.8598304 674 544 666.3888416 544 657 Z"/></g><g transform="translate(-78,-6) scale(1,1)"><path fill="none" stroke="#000000" d="M 544 657 C 544 647.6111584 600.8598304 640 671 640 C 741.1401696 640 798 647.6111584 798 657 C 798 666.3888416 741.1401696 674 671 674 C 600.8598304 674 544 666.3888416 544 657 Z" stroke-miterlimit="10"/></g><g transform="translate(-78,-6) scale(1,1)"><g><path fill="none" stroke="none"/><text fill="#000000" stroke="none" font-family="Arial" font-size="13px" font-style="normal" font-weight="bold" text-decoration="none" x="591.654296875" y="664">Cài đặt lời nhắc khi đến giờ</text></g></g><g transform="translate(-78,-6) scale(1,1)"><path fill="none" stroke="#000000" d="M 1107 357 L 1104 656 L 799 657" stroke-miterlimit="10"/></g><g transform="translate(-78,-6) scale(1,1)"><path fill="none" stroke="#000000" d="M 670 639 L 667 562" stroke-miterlimit="10" stroke-dasharray="3"/></g><g transform="translate(-78,-6) scale(1,1)"><path fill="none" stroke="#000000" d="M 671.6019746389819 571.991087499475 L 667 562 L 663.1893217517656 572.3188531963796" stroke-miterlimit="10"/></g><g transform="translate(-78,-6) scale(1,1)"><g><path fill="none" stroke="none"/><text fill="#000000" stroke="none" font-family="Arial" font-size="13px" font-style="normal" font-weight="normal" text-decoration="none" x="611.5" y="606.5">«extend»</text></g></g><g transform="translate(-78,-6) scale(1,1)"><path fill="#ffffff" stroke="none" d="M 712 568 L 1005 568 L 1015 578 L 1015 632 L 712 632 L 712 568"/></g><g transform="translate(-78,-6) scale(1,1)"><path fill="none" stroke="#000000" d="M 712 568 L 1005 568 L 1015 578 L 1015 632 L 712 632 L 712 568 L 712 568" stroke-miterlimit="10"/></g><g transform="translate(-78,-6) scale(1,1)"><path fill="none" stroke="#000000" d="M 1005 568 L 1005 578 L 1015 578 L 1005 568" stroke-miterlimit="10"/></g><g transform="translate(-78,-6) scale(1,1)"><g><path fill="none" stroke="none"/><text fill="#000000" stroke="none" font-family="Arial" font-size="13px" font-style="normal" font-weight="normal" text-decoration="none" x="717" y="586">Điều kiện: {Actor đã đặt lịch, nhấn nút Trở về}</text></g></g><g transform="translate(-78,-6) scale(1,1)"><g><path fill="none" stroke="none"/><text fill="#000000" stroke="none" font-family="Arial" font-size="13px" font-style="normal" font-weight="normal" text-decoration="none" x="717" y="601">Điểm mở rộng: Nhấn nút Trở về</text></g></g><g transform="translate(-78,-6) scale(1,1)"><path fill="none" stroke="#000000" d="M 668 600 L 711 600" stroke-miterlimit="10" stroke-dasharray="3"/></g></g></svg>