<svg version="1.1" xmlns="http://www.w3.org/2000/svg" xmlns:xlink="http://www.w3.org/1999/xlink" width="539.140625" height="257"><defs/><g><g transform="translate(-22,-46) scale(1,1)"><rect fill="#C0C0C0" stroke="none" x="39" y="63" width="98.7890625" height="63" opacity="0.2"/></g><g transform="translate(-22,-46) scale(1,1)"><rect fill="#ffffff" stroke="none" x="32" y="56" width="98.7890625" height="63"/></g><g transform="translate(-22,-46) scale(1,1)"><path fill="none" stroke="#000000" d="M 32 56 L 130.7890625 56 L 130.7890625 119 L 32 119 L 32 56 Z Z" stroke-miterlimit="10"/></g><g transform="translate(-22,-46) scale(1,1)"><path fill="none" stroke="#000000" d="M 32 84 L 130.7890625 84" stroke-miterlimit="10"/></g><g transform="translate(-22,-46) scale(1,1)"><path fill="none" stroke="#000000" d="M 32 110 L 130.7890625 110" stroke-miterlimit="10"/></g><g transform="translate(-22,-46) scale(1,1)"><g><path fill="none" stroke="none"/><text fill="#000000" stroke="none" font-family="Roboto" font-size="16px" font-style="normal" font-weight="bold" text-decoration="none" x="37.63671875" y="78.5">BoKiemDinh</text></g></g><g transform="translate(-22,-46) scale(1,1)"><g><path fill="none" stroke="none"/><text fill="#000000" stroke="none" font-family="Roboto" font-size="16px" font-style="normal" font-weight="normal" text-decoration="none" x="37" y="104.5">-ten: String</text></g></g><g transform="translate(-22,-46) scale(1,1)"><rect fill="#C0C0C0" stroke="none" x="239" y="71" width="86.65625" height="47" opacity="0.2"/></g><g transform="translate(-22,-46) scale(1,1)"><rect fill="#ffffff" stroke="none" x="232" y="64" width="86.65625" height="47"/></g><g transform="translate(-22,-46) scale(1,1)"><path fill="none" stroke="#000000" d="M 232 64 L 318.65625 64 L 318.65625 111 L 232 111 L 232 64 Z Z" stroke-miterlimit="10"/></g><g transform="translate(-22,-46) scale(1,1)"><path fill="none" stroke="#000000" d="M 232 92 L 318.65625 92" stroke-miterlimit="10"/></g><g transform="translate(-22,-46) scale(1,1)"><path fill="none" stroke="#000000" d="M 232 102 L 318.65625 102" stroke-miterlimit="10"/></g><g transform="translate(-22,-46) scale(1,1)"><g><path fill="none" stroke="none"/><text fill="#000000" stroke="none" font-family="Roboto" font-size="16px" font-style="normal" font-weight="bold" text-decoration="none" x="237.17578125" y="86.5">TieuChuan</text></g></g><g transform="translate(-22,-46) scale(1,1)"><rect fill="#C0C0C0" stroke="none" x="439" y="71" width="64.7265625" height="47" opacity="0.2"/></g><g transform="translate(-22,-46) scale(1,1)"><rect fill="#ffffff" stroke="none" x="432" y="64" width="64.7265625" height="47"/></g><g transform="translate(-22,-46) scale(1,1)"><path fill="none" stroke="#000000" d="M 432 64 L 496.7265625 64 L 496.7265625 111 L 432 111 L 432 64 Z Z" stroke-miterlimit="10"/></g><g transform="translate(-22,-46) scale(1,1)"><path fill="none" stroke="#000000" d="M 432 92 L 496.7265625 92" stroke-miterlimit="10"/></g><g transform="translate(-22,-46) scale(1,1)"><path fill="none" stroke="#000000" d="M 432 102 L 496.7265625 102" stroke-miterlimit="10"/></g><g transform="translate(-22,-46) scale(1,1)"><g><path fill="none" stroke="none"/><text fill="#000000" stroke="none" font-family="Roboto" font-size="16px" font-style="normal" font-weight="bold" text-decoration="none" x="437.4453125" y="86.5">TieuChi</text></g></g><g transform="translate(-22,-46) scale(1,1)"><rect fill="#C0C0C0" stroke="none" x="391" y="183" width="167.140625" height="117" opacity="0.2"/></g><g transform="translate(-22,-46) scale(1,1)"><rect fill="#ffffff" stroke="none" x="384" y="176" width="167.140625" height="117"/></g><g transform="translate(-22,-46) scale(1,1)"><path fill="none" stroke="#000000" d="M 384 176 L 551.140625 176 L 551.140625 293 L 384 293 L 384 176 Z Z" stroke-miterlimit="10"/></g><g transform="translate(-22,-46) scale(1,1)"><path fill="none" stroke="#000000" d="M 384 204 L 551.140625 204" stroke-miterlimit="10"/></g><g transform="translate(-22,-46) scale(1,1)"><path fill="none" stroke="#000000" d="M 384 284 L 551.140625 284" stroke-miterlimit="10"/></g><g transform="translate(-22,-46) scale(1,1)"><g><path fill="none" stroke="none"/><text fill="#000000" stroke="none" font-family="Roboto" font-size="16px" font-style="normal" font-weight="bold" text-decoration="none" x="426.8984375" y="198.5">MinhChung</text></g></g><g transform="translate(-22,-46) scale(1,1)"><g><path fill="none" stroke="none"/><text fill="#000000" stroke="none" font-family="Roboto" font-size="16px" font-style="normal" font-weight="normal" text-decoration="none" x="389" y="224.5">-maMinhChung: String</text></g></g><g transform="translate(-22,-46) scale(1,1)"><g><path fill="none" stroke="none"/><text fill="#000000" stroke="none" font-family="Roboto" font-size="16px" font-style="normal" font-weight="normal" text-decoration="none" x="389" y="242.5">-tenMinhChung: String</text></g></g><g transform="translate(-22,-46) scale(1,1)"><g><path fill="none" stroke="none"/><text fill="#000000" stroke="none" font-family="Roboto" font-size="16px" font-style="normal" font-weight="normal" text-decoration="none" x="389" y="260.5">-noiBanHanh: String</text></g></g><g transform="translate(-22,-46) scale(1,1)"><g><path fill="none" stroke="none"/><text fill="#000000" stroke="none" font-family="Roboto" font-size="16px" font-style="normal" font-weight="normal" text-decoration="none" x="389" y="278.5">-ngayBanHanh: Date</text></g></g><g transform="translate(-22,-46) scale(1,1)"><path fill="none" stroke="#000000" d="M 431 87 L 320 87" stroke-miterlimit="10"/></g><g transform="translate(-22,-46) scale(1,1)"><path fill="#000000" stroke="none" d="M 330.16267485762415 82.79048224398402 L 320 87 L 330.16267485762415 91.20951775601598 L 342 87"/></g><g transform="translate(-22,-46) scale(1,1)"><path fill="none" stroke="#000000" d="M 330.16267485762415 82.79048224398402 L 320 87 L 330.16267485762415 91.20951775601598 L 342 87 L 330.16267485762415 82.79048224398402" stroke-miterlimit="10"/></g><g transform="translate(-22,-46) scale(1,1)"><g><path fill="none" stroke="none"/><text fill="#000000" stroke="none" font-family="Roboto" font-size="16px" font-style="normal" font-weight="normal" text-decoration="none" x="396.5" y="81.5">3..*</text></g></g><g transform="translate(-22,-46) scale(1,1)"><g><path fill="none" stroke="none"/><text fill="#000000" stroke="none" font-family="Roboto" font-size="16px" font-style="normal" font-weight="normal" text-decoration="none" x="336.5" y="81.5">1</text></g></g><g transform="translate(-22,-46) scale(1,1)"><rect fill="#C0C0C0" stroke="none" x="63" y="183" width="257.8359375" height="99" opacity="0.2"/></g><g transform="translate(-22,-46) scale(1,1)"><rect fill="#ffffff" stroke="none" x="56" y="176" width="257.8359375" height="99"/></g><g transform="translate(-22,-46) scale(1,1)"><path fill="none" stroke="#000000" d="M 56 176 L 313.8359375 176 L 313.8359375 275 L 56 275 L 56 176 Z Z" stroke-miterlimit="10"/></g><g transform="translate(-22,-46) scale(1,1)"><path fill="none" stroke="#000000" d="M 56 204 L 313.8359375 204" stroke-miterlimit="10"/></g><g transform="translate(-22,-46) scale(1,1)"><path fill="none" stroke="#000000" d="M 56 266 L 313.8359375 266" stroke-miterlimit="10"/></g><g transform="translate(-22,-46) scale(1,1)"><g><path fill="none" stroke="none"/><text fill="#000000" stroke="none" font-family="Roboto" font-size="16px" font-style="normal" font-weight="bold" text-decoration="none" x="62.84375" y="198.5">ThongTinCuaTieuChuanVaTieuChi</text></g></g><g transform="translate(-22,-46) scale(1,1)"><g><path fill="none" stroke="none"/><text fill="#000000" stroke="none" font-family="Roboto" font-size="16px" font-style="normal" font-weight="normal" text-decoration="none" x="61" y="224.5">-ma: String</text></g></g><g transform="translate(-22,-46) scale(1,1)"><g><path fill="none" stroke="none"/><text fill="#000000" stroke="none" font-family="Roboto" font-size="16px" font-style="normal" font-weight="normal" text-decoration="none" x="61" y="242.5">-ten: String</text></g></g><g transform="translate(-22,-46) scale(1,1)"><g><path fill="none" stroke="none"/><text fill="#000000" stroke="none" font-family="Roboto" font-size="16px" font-style="normal" font-weight="normal" text-decoration="none" x="61" y="260.5">-noiDung: String</text></g></g><g transform="translate(-22,-46) scale(1,1)"><path fill="none" stroke="#000000" d="M 259 112 L 217 175" stroke-miterlimit="10"/></g><g transform="translate(-22,-46) scale(1,1)"><path fill="#FFFFFF" stroke="none" d="M 221.2694144995677 153.41824613635674 L 217 175 L 235.27953645122162 162.75832743745934"/></g><g transform="translate(-22,-46) scale(1,1)"><path fill="none" stroke="#000000" d="M 221.2694144995677 153.41824613635674 L 217 175 L 235.27953645122162 162.75832743745934 L 221.2694144995677 153.41824613635674" stroke-miterlimit="10"/></g><g transform="translate(-22,-46) scale(1,1)"><path fill="none" stroke="#000000" d="M 431 103 L 285 175" stroke-miterlimit="10"/></g><g transform="translate(-22,-46) scale(1,1)"><path fill="#FFFFFF" stroke="none" d="M 299.5055379633934 158.45946287472646 L 285 175 L 306.95289022442313 173.56103829292564"/></g><g transform="translate(-22,-46) scale(1,1)"><path fill="none" stroke="#000000" d="M 299.5055379633934 158.45946287472646 L 285 175 L 306.95289022442313 173.56103829292564 L 299.5055379633934 158.45946287472646" stroke-miterlimit="10"/></g><g transform="translate(-22,-46) scale(1,1)"><path fill="none" stroke="#000000" d="M 466 175 L 465 112" stroke-miterlimit="10"/></g><g transform="translate(-22,-46) scale(1,1)"><g><path fill="none" stroke="none"/><text fill="#000000" stroke="none" font-family="Roboto" font-size="16px" font-style="normal" font-weight="normal" text-decoration="none" x="474.0546875" y="160.5">*</text></g></g><g transform="translate(-22,-46) scale(1,1)"><g><path fill="none" stroke="none"/><text fill="#000000" stroke="none" font-family="Roboto" font-size="16px" font-style="normal" font-weight="normal" text-decoration="none" x="473.0546875" y="140.5">*</text></g></g><g transform="translate(-22,-46) scale(1,1)"><path fill="none" stroke="#000000" d="M 231 87 L 132 87" stroke-miterlimit="10"/></g><g transform="translate(-22,-46) scale(1,1)"><path fill="#FFFFFF" stroke="none" d="M 142.16267485762415 82.79048224398402 L 132 87 L 142.16267485762415 91.20951775601598 L 154 87"/></g><g transform="translate(-22,-46) scale(1,1)"><path fill="none" stroke="#000000" d="M 142.16267485762415 82.79048224398402 L 132 87 L 142.16267485762415 91.20951775601598 L 154 87 L 142.16267485762415 82.79048224398402" stroke-miterlimit="10"/></g><g transform="translate(-22,-46) scale(1,1)"><g><path fill="none" stroke="none"/><text fill="#000000" stroke="none" font-family="Roboto" font-size="16px" font-style="normal" font-weight="normal" text-decoration="none" x="191.5" y="81.5">5..20</text></g></g><g transform="translate(-22,-46) scale(1,1)"><g><path fill="none" stroke="none"/><text fill="#000000" stroke="none" font-family="Roboto" font-size="16px" font-style="normal" font-weight="normal" text-decoration="none" x="148.5" y="81.5">1</text></g></g></g></svg>