<svg version="1.1" xmlns="http://www.w3.org/2000/svg" xmlns:xlink="http://www.w3.org/1999/xlink" width="900" height="759"><defs/><g><g transform="translate(10,5) scale(1,1)"><path fill="none" stroke="#000000" d="M 0 5 L 880 5 L 880 744 L 0 744 L 0 5" stroke-miterlimit="10"/></g><g transform="translate(10,5) scale(1,1)"><path fill="#ffffff" stroke="none" d="M 0 5 L 0 30 L 553.59375 30 L 566.09375 17.5 L 566.09375 5 L 0 5"/></g><g transform="translate(10,5) scale(1,1)"><path fill="none" stroke="#000000" d="M 0 5 L 0 30 L 553.59375 30 L 566.09375 17.5 L 566.09375 5 L 0 5 L 0 5" stroke-miterlimit="10"/></g><g transform="translate(10,5) scale(1,1)"><g><path fill="none" stroke="none"/><text fill="#000000" stroke="none" font-family="Roboto" font-size="16px" font-style="normal" font-weight="normal" text-decoration="none" x="86.65625" y="25.5">SequenceDiagram-ChucNangNhanVienBanHangTaiSieuThiBanLe</text></g></g><g transform="translate(10,5) scale(1,1)"><g><path fill="none" stroke="none"/><text fill="#000000" stroke="none" font-family="Roboto" font-size="16px" font-style="normal" font-weight="bold" text-decoration="none" x="5" y="25.5">interaction</text></g></g><g transform="translate(10,5) scale(1,1)"><path fill="#ffffff" stroke="none" d="M 212.5591903409091 47.3 C 212.5591903409091 43.82060576 215.4375920630909 41 218.98828125 41 C 222.5389704369091 41 225.41737215909092 43.82060576 225.41737215909092 47.3 C 225.41737215909092 50.779394239999995 222.5389704369091 53.6 218.98828125 53.6 C 215.4375920630909 53.6 212.5591903409091 50.779394239999995 212.5591903409091 47.3 Z"/></g><g transform="translate(10,5) scale(1,1)"><path fill="none" stroke="#000000" d="M 212.5591903409091 47.3 C 212.5591903409091 43.82060576 215.4375920630909 41 218.98828125 41 C 222.5389704369091 41 225.41737215909092 43.82060576 225.41737215909092 47.3 C 225.41737215909092 50.779394239999995 222.5389704369091 53.6 218.98828125 53.6 C 215.4375920630909 53.6 212.5591903409091 50.779394239999995 212.5591903409091 47.3 Z" stroke-miterlimit="10"/></g><g transform="translate(10,5) scale(1,1)"><path fill="none" stroke="#000000" d="M 218.98828125 53.6 L 218.98828125 66.4" stroke-miterlimit="10"/></g><g transform="translate(10,5) scale(1,1)"><path fill="none" stroke="#000000" d="M 212.1810085227273 58.4 L 225.79555397727273 58.4" stroke-miterlimit="10"/></g><g transform="translate(10,5) scale(1,1)"><path fill="none" stroke="#000000" d="M 218.98828125 66.4 L 209.53373579545456 79" stroke-miterlimit="10"/></g><g transform="translate(10,5) scale(1,1)"><path fill="none" stroke="#000000" d="M 218.98828125 66.4 L 228.44282670454547 79" stroke-miterlimit="10"/></g><g transform="translate(10,5) scale(1,1)"><g><path fill="none" stroke="none"/><text fill="#000000" stroke="none" font-family="Roboto" font-size="16px" font-style="normal" font-weight="bold" text-decoration="none" x="180.51171875" y="102.5">: NhanVien</text></g></g><g transform="translate(10,5) scale(1,1)"><path fill="none" stroke="#000000" d="M 219.5 108 L 219.5 720" stroke-miterlimit="10" stroke-dasharray="3"/></g><g transform="translate(10,5) scale(1,1)"><path fill="#ffffff" stroke="none" d="M 460.546875 60 C 460.546875 51.1634432 467.7103182 44 476.546875 44 C 485.3834318 44 492.546875 51.1634432 492.546875 60 C 492.546875 68.8365568 485.3834318 76 476.546875 76 C 467.7103182 76 460.546875 68.8365568 460.546875 60 Z"/></g><g transform="translate(10,5) scale(1,1)"><path fill="none" stroke="#000000" d="M 460.546875 60 C 460.546875 51.1634432 467.7103182 44 476.546875 44 C 485.3834318 44 492.546875 51.1634432 492.546875 60 C 492.546875 68.8365568 485.3834318 76 476.546875 76 C 467.7103182 76 460.546875 68.8365568 460.546875 60 Z" stroke-miterlimit="10"/></g><g transform="translate(10,5) scale(1,1)"><path fill="none" stroke="#000000" d="M 452.546875 44 L 452.546875 76" stroke-miterlimit="10"/></g><g transform="translate(10,5) scale(1,1)"><path fill="none" stroke="#000000" d="M 452.546875 60 L 460.546875 60" stroke-miterlimit="10"/></g><g transform="translate(10,5) scale(1,1)"><g><path fill="none" stroke="none"/><text fill="#000000" stroke="none" font-family="Roboto" font-size="16px" font-style="normal" font-weight="bold" text-decoration="none" x="396.34765625" y="102.5">: ManHinhThanhToan</text></g></g><g transform="translate(10,5) scale(1,1)"><path fill="none" stroke="#000000" d="M 473.5 108 L 473.5 720" stroke-miterlimit="10" stroke-dasharray="3"/></g><g transform="translate(10,5) scale(1,1)"><path fill="#ffffff" stroke="none" d="M 708.765625 60 C 708.765625 51.715728 715.481353 45 723.765625 45 C 732.049897 45 738.765625 51.715728 738.765625 60 C 738.765625 68.284272 732.049897 75 723.765625 75 C 715.481353 75 708.765625 68.284272 708.765625 60 Z"/></g><g transform="translate(10,5) scale(1,1)"><path fill="none" stroke="#000000" d="M 708.765625 60 C 708.765625 51.715728 715.481353 45 723.765625 45 C 732.049897 45 738.765625 51.715728 738.765625 60 C 738.765625 68.284272 732.049897 75 723.765625 75 C 715.481353 75 708.765625 68.284272 708.765625 60 Z" stroke-miterlimit="10"/></g><g transform="translate(10,5) scale(1,1)"><path fill="none" stroke="#000000" d="M 723.765625 45 L 728.765625 40" stroke-miterlimit="10"/></g><g transform="translate(10,5) scale(1,1)"><path fill="none" stroke="#000000" d="M 723.765625 45 L 728.765625 50" stroke-miterlimit="10"/></g><g transform="translate(10,5) scale(1,1)"><g><path fill="none" stroke="none"/><text fill="#000000" stroke="none" font-family="Roboto" font-size="16px" font-style="normal" font-weight="bold" text-decoration="none" x="640.47265625" y="102.5">8: ThanhToanController</text></g></g><g transform="translate(10,5) scale(1,1)"><path fill="none" stroke="#000000" d="M 724.5 108 L 724.5 720" stroke-miterlimit="10" stroke-dasharray="3"/></g><g transform="translate(10,5) scale(1,1)"><path fill="none" stroke="#000000" d="M 219 200 L 466 200" stroke-miterlimit="10"/></g><g transform="translate(10,5) scale(1,1)"><path fill="#000000" stroke="none" d="M 455.83732514237585 204.209517756016 L 466 200 L 455.83732514237585 195.790482243984"/></g><g transform="translate(10,5) scale(1,1)"><path fill="none" stroke="#000000" d="M 455.83732514237585 204.209517756016 L 466 200 L 455.83732514237585 195.790482243984 L 455.83732514237585 204.209517756016" stroke-miterlimit="10"/></g><g transform="translate(10,5) scale(1,1)"><g><path fill="none" stroke="none"/><text fill="#000000" stroke="none" font-family="Roboto" font-size="16px" font-style="normal" font-weight="normal" text-decoration="none" x="300.5390625" y="197.5">1 : mã hàng</text></g></g><g transform="translate(10,5) scale(1,1)"><rect fill="#ffffff" stroke="none" x="466" y="200" width="13" height="56"/></g><g transform="translate(10,5) scale(1,1)"><path fill="none" stroke="#000000" d="M 466 200 L 479 200 L 479 256 L 466 256 L 466 200 Z Z" stroke-miterlimit="10"/></g><g transform="translate(10,5) scale(1,1)"><path fill="none" stroke="#000000" d="M 466 232 L 219 232" stroke-miterlimit="10" stroke-dasharray="3"/></g><g transform="translate(10,5) scale(1,1)"><path fill="none" stroke="#000000" d="M 229.16267485762415 227.790482243984 L 219 232 L 229.16267485762415 236.209517756016" stroke-miterlimit="10"/></g><g transform="translate(10,5) scale(1,1)"><g><path fill="none" stroke="none"/><text fill="#000000" stroke="none" font-family="Roboto" font-size="16px" font-style="normal" font-weight="normal" text-decoration="none" x="262.5" y="254.5">2 : thông tin sản phẩm</text></g></g><g transform="translate(10,5) scale(1,1)"><path fill="none" stroke="#000000" d="M 219 352 L 466 352" stroke-miterlimit="10"/></g><g transform="translate(10,5) scale(1,1)"><path fill="none" stroke="#000000" d="M 455.83732514237585 356.209517756016 L 466 352 L 455.83732514237585 347.790482243984" stroke-miterlimit="10"/></g><g transform="translate(10,5) scale(1,1)"><g><path fill="none" stroke="none"/><text fill="#000000" stroke="none" font-family="Roboto" font-size="16px" font-style="normal" font-weight="normal" text-decoration="none" x="267.5" y="349.5">3 : cập nhật số lượng</text></g></g><g transform="translate(10,5) scale(1,1)"><rect fill="#ffffff" stroke="none" x="466" y="352" width="13" height="28"/></g><g transform="translate(10,5) scale(1,1)"><path fill="none" stroke="#000000" d="M 466 352 L 479 352 L 479 380 L 466 380 L 466 352 Z Z" stroke-miterlimit="10"/></g><g transform="translate(10,5) scale(1,1)"><path fill="none" stroke="#000000" d="M 219 448 L 466 448" stroke-miterlimit="10"/></g><g transform="translate(10,5) scale(1,1)"><path fill="#000000" stroke="none" d="M 455.83732514237585 452.209517756016 L 466 448 L 455.83732514237585 443.790482243984"/></g><g transform="translate(10,5) scale(1,1)"><path fill="none" stroke="#000000" d="M 455.83732514237585 452.209517756016 L 466 448 L 455.83732514237585 443.790482243984 L 455.83732514237585 452.209517756016" stroke-miterlimit="10"/></g><g transform="translate(10,5) scale(1,1)"><g><path fill="none" stroke="none"/><text fill="#000000" stroke="none" font-family="Roboto" font-size="16px" font-style="normal" font-weight="normal" text-decoration="none" x="288.5" y="445.5">4 : nhập số tiền</text></g></g><g transform="translate(10,5) scale(1,1)"><rect fill="#ffffff" stroke="none" x="466" y="448" width="13" height="64"/></g><g transform="translate(10,5) scale(1,1)"><path fill="none" stroke="#000000" d="M 466 448 L 479 448 L 479 512 L 466 512 L 466 448 Z Z" stroke-miterlimit="10"/></g><g transform="translate(10,5) scale(1,1)"><path fill="none" stroke="#000000" d="M 466 480 L 219 480" stroke-miterlimit="10" stroke-dasharray="3"/></g><g transform="translate(10,5) scale(1,1)"><path fill="none" stroke="#000000" d="M 229.16267485762415 475.790482243984 L 219 480 L 229.16267485762415 484.209517756016" stroke-miterlimit="10"/></g><g transform="translate(10,5) scale(1,1)"><g><path fill="none" stroke="none"/><text fill="#000000" stroke="none" font-family="Roboto" font-size="16px" font-style="normal" font-weight="normal" text-decoration="none" x="281.5" y="502.5">5 : số tiền thối lại</text></g></g><g transform="translate(10,5) scale(1,1)"><path fill="none" stroke="#000000" d="M 219 560 L 466 560" stroke-miterlimit="10"/></g><g transform="translate(10,5) scale(1,1)"><path fill="#000000" stroke="none" d="M 455.83732514237585 564.209517756016 L 466 560 L 455.83732514237585 555.790482243984"/></g><g transform="translate(10,5) scale(1,1)"><path fill="none" stroke="#000000" d="M 455.83732514237585 564.209517756016 L 466 560 L 455.83732514237585 555.790482243984 L 455.83732514237585 564.209517756016" stroke-miterlimit="10"/></g><g transform="translate(10,5) scale(1,1)"><g><path fill="none" stroke="none"/><text fill="#000000" stroke="none" font-family="Roboto" font-size="16px" font-style="normal" font-weight="normal" text-decoration="none" x="240.5" y="557.5">6 : bấm thanh toán đơn hàng</text></g></g><g transform="translate(10,5) scale(1,1)"><rect fill="#ffffff" stroke="none" x="466" y="560" width="13" height="112"/></g><g transform="translate(10,5) scale(1,1)"><path fill="none" stroke="#000000" d="M 466 560 L 479 560 L 479 672 L 466 672 L 466 560 Z Z" stroke-miterlimit="10"/></g><g transform="translate(10,5) scale(1,1)"><path fill="none" stroke="#000000" d="M 479 586 L 717 586" stroke-miterlimit="10"/></g><g transform="translate(10,5) scale(1,1)"><path fill="#000000" stroke="none" d="M 706.8373251423759 590.209517756016 L 717 586 L 706.8373251423758 581.790482243984"/></g><g transform="translate(10,5) scale(1,1)"><path fill="none" stroke="#000000" d="M 706.8373251423759 590.209517756016 L 717 586 L 706.8373251423758 581.790482243984 L 706.8373251423759 590.209517756016" stroke-miterlimit="10"/></g><g transform="translate(10,5) scale(1,1)"><g><path fill="none" stroke="none"/><text fill="#000000" stroke="none" font-family="Roboto" font-size="16px" font-style="normal" font-weight="normal" text-decoration="none" x="521.5" y="583.5">7 : ghi nhận đơn hàng</text></g></g><g transform="translate(10,5) scale(1,1)"><rect fill="#ffffff" stroke="none" x="717" y="586" width="13" height="54"/></g><g transform="translate(10,5) scale(1,1)"><path fill="none" stroke="#000000" d="M 717 586 L 730 586 L 730 640 L 717 640 L 717 586 Z Z" stroke-miterlimit="10"/></g><g transform="translate(10,5) scale(1,1)"><path fill="none" stroke="#000000" d="M 717 616 L 479 616" stroke-miterlimit="10" stroke-dasharray="3"/></g><g transform="translate(10,5) scale(1,1)"><path fill="none" stroke="#000000" d="M 489.16267485762415 611.790482243984 L 479 616 L 489.16267485762415 620.209517756016" stroke-miterlimit="10"/></g><g transform="translate(10,5) scale(1,1)"><g><path fill="none" stroke="none"/><text fill="#000000" stroke="none" font-family="Roboto" font-size="16px" font-style="normal" font-weight="normal" text-decoration="none" x="557.640625" y="638.5">8 : hoàn tất</text></g></g><g transform="translate(10,5) scale(1,1)"><path fill="none" stroke="#000000" d="M 466 640 L 219 640" stroke-miterlimit="10" stroke-dasharray="3"/></g><g transform="translate(10,5) scale(1,1)"><path fill="none" stroke="#000000" d="M 229.16267485762415 635.790482243984 L 219 640 L 229.16267485762415 644.209517756016" stroke-miterlimit="10"/></g><g transform="translate(10,5) scale(1,1)"><g><path fill="none" stroke="none"/><text fill="#000000" stroke="none" font-family="Roboto" font-size="16px" font-style="normal" font-weight="normal" text-decoration="none" x="260.5" y="662.5">9 : hoàn tất thanh toán</text></g></g><g transform="translate(10,5) scale(1,1)"><path fill="none" stroke="#000000" d="M 32 144 L 544 144 L 544 416 L 32 416 L 32 144" stroke-miterlimit="10"/></g><g transform="translate(10,5) scale(1,1)"><path fill="#ffffff" stroke="none" d="M 32 144 L 32 169 L 325.1953125 169 L 337.6953125 156.5 L 337.6953125 144 L 32 144"/></g><g transform="translate(10,5) scale(1,1)"><path fill="none" stroke="#000000" d="M 32 144 L 32 169 L 325.1953125 169 L 337.6953125 156.5 L 337.6953125 144 L 32 144 L 32 144" stroke-miterlimit="10"/></g><g transform="translate(10,5) scale(1,1)"><g><path fill="none" stroke="none"/><text fill="#000000" stroke="none" font-family="Roboto" font-size="16px" font-style="normal" font-weight="normal" text-decoration="none" x="74.109375" y="164.5">quét mã vạch để đọc mà mặt hàng</text></g></g><g transform="translate(10,5) scale(1,1)"><g><path fill="none" stroke="none"/><text fill="#000000" stroke="none" font-family="Roboto" font-size="16px" font-style="normal" font-weight="bold" text-decoration="none" x="37" y="164.5">loop</text></g></g><g transform="translate(10,5) scale(1,1)"><g><path fill="none" stroke="none"/><text fill="#000000" stroke="none" font-family="Roboto" font-size="16px" font-style="normal" font-weight="normal" text-decoration="none" x="51.5" y="200.5">[còn hàng]</text></g></g><g transform="translate(10,5) scale(1,1)"><path fill="none" stroke="#000000" d="M 32 273 L 544 273" stroke-miterlimit="10" stroke-dasharray="10,3"/></g><g transform="translate(10,5) scale(1,1)"><path fill="none" stroke="#000000" d="M 48 288 L 496 288 L 496 400 L 48 400 L 48 288" stroke-miterlimit="10"/></g><g transform="translate(10,5) scale(1,1)"><path fill="#ffffff" stroke="none" d="M 48 288 L 48 313 L 188.671875 313 L 201.171875 300.5 L 201.171875 288 L 48 288"/></g><g transform="translate(10,5) scale(1,1)"><path fill="none" stroke="#000000" d="M 48 288 L 48 313 L 188.671875 313 L 201.171875 300.5 L 201.171875 288 L 48 288 L 48 288" stroke-miterlimit="10"/></g><g transform="translate(10,5) scale(1,1)"><g><path fill="none" stroke="none"/><text fill="#000000" stroke="none" font-family="Roboto" font-size="16px" font-style="normal" font-weight="normal" text-decoration="none" x="82.328125" y="308.5">nhập số lượng</text></g></g><g transform="translate(10,5) scale(1,1)"><g><path fill="none" stroke="none"/><text fill="#000000" stroke="none" font-family="Roboto" font-size="16px" font-style="normal" font-weight="bold" text-decoration="none" x="53" y="308.5">opt</text></g></g><g transform="translate(10,5) scale(1,1)"><g><path fill="none" stroke="none"/><text fill="#000000" stroke="none" font-family="Roboto" font-size="16px" font-style="normal" font-weight="normal" text-decoration="none" x="67.5" y="344.5">[&gt; 1 || không định lượng]</text></g></g></g></svg>