<svg version="1.1" xmlns="http://www.w3.org/2000/svg" xmlns:xlink="http://www.w3.org/1999/xlink" width="855.51171875" height="863"><defs/><g><g transform="translate(-78,-14) scale(1,1)"><rect fill="#C0C0C0" stroke="none" x="95" y="239" width="168.75" height="107" opacity="0.2"/></g><g transform="translate(-78,-14) scale(1,1)"><rect fill="#ffffff" stroke="none" x="88" y="232" width="168.75" height="107"/></g><g transform="translate(-78,-14) scale(1,1)"><path fill="none" stroke="#000000" d="M 88 232 L 256.75 232 L 256.75 339 L 88 339 L 88 232 Z Z" stroke-miterlimit="10"/></g><g transform="translate(-78,-14) scale(1,1)"><path fill="none" stroke="#000000" d="M 88 262 L 256.75 262" stroke-miterlimit="10"/></g><g transform="translate(-78,-14) scale(1,1)"><path fill="none" stroke="#000000" d="M 88 330 L 256.75 330" stroke-miterlimit="10"/></g><g transform="translate(-78,-14) scale(1,1)"><g><path fill="none" stroke="none"/><text fill="#000000" stroke="none" font-family="Roboto" font-size="18px" font-style="normal" font-weight="bold" text-decoration="none" x="142.4130859375" y="256.5">Receipt</text></g></g><g transform="translate(-78,-14) scale(1,1)"><g><path fill="none" stroke="none"/><text fill="#000000" stroke="none" font-family="Roboto" font-size="18px" font-style="normal" font-weight="normal" text-decoration="none" x="93" y="284.5">-id: int</text></g></g><g transform="translate(-78,-14) scale(1,1)"><g><path fill="none" stroke="none"/><text fill="#000000" stroke="none" font-family="Roboto" font-size="18px" font-style="normal" font-weight="normal" text-decoration="none" x="93" y="304.5">+created_date: Date</text></g></g><g transform="translate(-78,-14) scale(1,1)"><g><path fill="none" stroke="none"/><text fill="#000000" stroke="none" font-family="Roboto" font-size="18px" font-style="normal" font-weight="normal" text-decoration="none" x="93" y="324.5">-customer_id: int</text></g></g><g transform="translate(-78,-14) scale(1,1)"><rect fill="#C0C0C0" stroke="none" x="103" y="471" width="151.822265625" height="267" opacity="0.2"/></g><g transform="translate(-78,-14) scale(1,1)"><rect fill="#ffffff" stroke="none" x="96" y="464" width="151.822265625" height="267"/></g><g transform="translate(-78,-14) scale(1,1)"><path fill="none" stroke="#000000" d="M 96 464 L 247.822265625 464 L 247.822265625 731 L 96 731 L 96 464 Z Z" stroke-miterlimit="10"/></g><g transform="translate(-78,-14) scale(1,1)"><path fill="none" stroke="#000000" d="M 96 494 L 247.822265625 494" stroke-miterlimit="10"/></g><g transform="translate(-78,-14) scale(1,1)"><path fill="none" stroke="#000000" d="M 96 722 L 247.822265625 722" stroke-miterlimit="10"/></g><g transform="translate(-78,-14) scale(1,1)"><g><path fill="none" stroke="none"/><text fill="#000000" stroke="none" font-family="Roboto" font-size="18px" font-style="normal" font-weight="bold" text-decoration="none" x="153.62109375" y="488.5">User</text></g></g><g transform="translate(-78,-14) scale(1,1)"><g><path fill="none" stroke="none"/><text fill="#000000" stroke="none" font-family="Roboto" font-size="18px" font-style="normal" font-weight="normal" text-decoration="none" x="101" y="516.5">-id: int</text></g></g><g transform="translate(-78,-14) scale(1,1)"><g><path fill="none" stroke="none"/><text fill="#000000" stroke="none" font-family="Roboto" font-size="18px" font-style="normal" font-weight="normal" text-decoration="none" x="101" y="536.5">-username: char</text></g></g><g transform="translate(-78,-14) scale(1,1)"><g><path fill="none" stroke="none"/><text fill="#000000" stroke="none" font-family="Roboto" font-size="18px" font-style="normal" font-weight="normal" text-decoration="none" x="101" y="556.5">-password: char</text></g></g><g transform="translate(-78,-14) scale(1,1)"><g><path fill="none" stroke="none"/><text fill="#000000" stroke="none" font-family="Roboto" font-size="18px" font-style="normal" font-weight="normal" text-decoration="none" x="101" y="576.5">-name: char</text></g></g><g transform="translate(-78,-14) scale(1,1)"><g><path fill="none" stroke="none"/><text fill="#000000" stroke="none" font-family="Roboto" font-size="18px" font-style="normal" font-weight="normal" text-decoration="none" x="101" y="596.5">-email: char</text></g></g><g transform="translate(-78,-14) scale(1,1)"><g><path fill="none" stroke="none"/><text fill="#000000" stroke="none" font-family="Roboto" font-size="18px" font-style="normal" font-weight="normal" text-decoration="none" x="101" y="616.5">-address: char</text></g></g><g transform="translate(-78,-14) scale(1,1)"><g><path fill="none" stroke="none"/><text fill="#000000" stroke="none" font-family="Roboto" font-size="18px" font-style="normal" font-weight="normal" text-decoration="none" x="101" y="636.5">-phone: char</text></g></g><g transform="translate(-78,-14) scale(1,1)"><g><path fill="none" stroke="none"/><text fill="#000000" stroke="none" font-family="Roboto" font-size="18px" font-style="normal" font-weight="normal" text-decoration="none" x="101" y="656.5">-avatar: char</text></g></g><g transform="translate(-78,-14) scale(1,1)"><g><path fill="none" stroke="none"/><text fill="#000000" stroke="none" font-family="Roboto" font-size="18px" font-style="normal" font-weight="normal" text-decoration="none" x="101" y="676.5">-active: boolean</text></g></g><g transform="translate(-78,-14) scale(1,1)"><g><path fill="none" stroke="none"/><text fill="#000000" stroke="none" font-family="Roboto" font-size="18px" font-style="normal" font-weight="normal" text-decoration="none" x="101" y="696.5">-user_role: Enum</text></g></g><g transform="translate(-78,-14) scale(1,1)"><g><path fill="none" stroke="none"/><text fill="#000000" stroke="none" font-family="Roboto" font-size="18px" font-style="normal" font-weight="normal" text-decoration="none" x="101" y="716.5">-joined_date: Date</text></g></g><g transform="translate(-78,-14) scale(1,1)"><rect fill="#C0C0C0" stroke="none" x="431" y="191" width="147.392578125" height="207" opacity="0.2"/></g><g transform="translate(-78,-14) scale(1,1)"><rect fill="#ffffff" stroke="none" x="424" y="184" width="147.392578125" height="207"/></g><g transform="translate(-78,-14) scale(1,1)"><path fill="none" stroke="#000000" d="M 424 184 L 571.392578125 184 L 571.392578125 391 L 424 391 L 424 184 Z Z" stroke-miterlimit="10"/></g><g transform="translate(-78,-14) scale(1,1)"><path fill="none" stroke="#000000" d="M 424 214 L 571.392578125 214" stroke-miterlimit="10"/></g><g transform="translate(-78,-14) scale(1,1)"><path fill="none" stroke="#000000" d="M 424 382 L 571.392578125 382" stroke-miterlimit="10"/></g><g transform="translate(-78,-14) scale(1,1)"><g><path fill="none" stroke="none"/><text fill="#000000" stroke="none" font-family="Roboto" font-size="18px" font-style="normal" font-weight="bold" text-decoration="none" x="466.240234375" y="208.5">Product</text></g></g><g transform="translate(-78,-14) scale(1,1)"><g><path fill="none" stroke="none"/><text fill="#000000" stroke="none" font-family="Roboto" font-size="18px" font-style="normal" font-weight="normal" text-decoration="none" x="429" y="236.5">-id: int</text></g></g><g transform="translate(-78,-14) scale(1,1)"><g><path fill="none" stroke="none"/><text fill="#000000" stroke="none" font-family="Roboto" font-size="18px" font-style="normal" font-weight="normal" text-decoration="none" x="429" y="256.5">-name: char</text></g></g><g transform="translate(-78,-14) scale(1,1)"><g><path fill="none" stroke="none"/><text fill="#000000" stroke="none" font-family="Roboto" font-size="18px" font-style="normal" font-weight="normal" text-decoration="none" x="429" y="276.5">-description: char</text></g></g><g transform="translate(-78,-14) scale(1,1)"><g><path fill="none" stroke="none"/><text fill="#000000" stroke="none" font-family="Roboto" font-size="18px" font-style="normal" font-weight="normal" text-decoration="none" x="429" y="296.5">-price: float</text></g></g><g transform="translate(-78,-14) scale(1,1)"><g><path fill="none" stroke="none"/><text fill="#000000" stroke="none" font-family="Roboto" font-size="18px" font-style="normal" font-weight="normal" text-decoration="none" x="429" y="316.5">-image: char</text></g></g><g transform="translate(-78,-14) scale(1,1)"><g><path fill="none" stroke="none"/><text fill="#000000" stroke="none" font-family="Roboto" font-size="18px" font-style="normal" font-weight="normal" text-decoration="none" x="429" y="336.5">-catgory_id: int</text></g></g><g transform="translate(-78,-14) scale(1,1)"><g><path fill="none" stroke="none"/><text fill="#000000" stroke="none" font-family="Roboto" font-size="18px" font-style="normal" font-weight="normal" text-decoration="none" x="429" y="356.5">-author_id: int</text></g></g><g transform="translate(-78,-14) scale(1,1)"><g><path fill="none" stroke="none"/><text fill="#000000" stroke="none" font-family="Roboto" font-size="18px" font-style="normal" font-weight="normal" text-decoration="none" x="429" y="376.5">-quantity: int</text></g></g><g transform="translate(-78,-14) scale(1,1)"><path fill="none" stroke="#000000" d="M 257 280 L 424 280" stroke-miterlimit="10"/></g><g transform="translate(-78,-14) scale(1,1)"><g><path fill="none" stroke="none"/><text fill="#000000" stroke="none" font-family="Roboto" font-size="18px" font-style="normal" font-weight="normal" text-decoration="none" x="263.5" y="270.5">0..*</text></g></g><g transform="translate(-78,-14) scale(1,1)"><g><path fill="none" stroke="none"/><text fill="#000000" stroke="none" font-family="Roboto" font-size="18px" font-style="normal" font-weight="normal" text-decoration="none" x="391.5" y="271.5">1..*</text></g></g><g transform="translate(-78,-14) scale(1,1)"><path fill="none" stroke="#000000" d="M 163 339 L 163 464" stroke-miterlimit="10"/></g><g transform="translate(-78,-14) scale(1,1)"><path fill="#FFFFFF" stroke="none" d="M 158.790482243984 453.83732514237585 L 163 464 L 167.209517756016 453.83732514237585 L 163 442"/></g><g transform="translate(-78,-14) scale(1,1)"><path fill="none" stroke="#000000" d="M 158.790482243984 453.83732514237585 L 163 464 L 167.209517756016 453.83732514237585 L 163 442 L 158.790482243984 453.83732514237585" stroke-miterlimit="10"/></g><g transform="translate(-78,-14) scale(1,1)"><g><path fill="none" stroke="none"/><text fill="#000000" stroke="none" font-family="Roboto" font-size="18px" font-style="normal" font-weight="normal" text-decoration="none" x="127.5" y="367.5">1..*</text></g></g><g transform="translate(-78,-14) scale(1,1)"><g><path fill="none" stroke="none"/><text fill="#000000" stroke="none" font-family="Roboto" font-size="18px" font-style="normal" font-weight="normal" text-decoration="none" x="144.5" y="450.5">1</text></g></g><g transform="translate(-78,-14) scale(1,1)"><rect fill="#C0C0C0" stroke="none" x="279" y="71" width="127.2568359375" height="147" opacity="0.2"/></g><g transform="translate(-78,-14) scale(1,1)"><rect fill="#ffffff" stroke="none" x="272" y="64" width="127.2568359375" height="147"/></g><g transform="translate(-78,-14) scale(1,1)"><path fill="none" stroke="#000000" d="M 272 64 L 399.2568359375 64 L 399.2568359375 211 L 272 211 L 272 64 Z Z" stroke-miterlimit="10"/></g><g transform="translate(-78,-14) scale(1,1)"><path fill="none" stroke="#000000" d="M 272 94 L 399.2568359375 94" stroke-miterlimit="10"/></g><g transform="translate(-78,-14) scale(1,1)"><path fill="none" stroke="#000000" d="M 272 202 L 399.2568359375 202" stroke-miterlimit="10"/></g><g transform="translate(-78,-14) scale(1,1)"><g><path fill="none" stroke="none"/><text fill="#000000" stroke="none" font-family="Roboto" font-size="18px" font-style="normal" font-weight="bold" text-decoration="none" x="282.79296875" y="88.5">ReceiptDetail</text></g></g><g transform="translate(-78,-14) scale(1,1)"><g><path fill="none" stroke="none"/><text fill="#000000" stroke="none" font-family="Roboto" font-size="18px" font-style="normal" font-weight="normal" text-decoration="none" x="277" y="116.5">-id: int</text></g></g><g transform="translate(-78,-14) scale(1,1)"><g><path fill="none" stroke="none"/><text fill="#000000" stroke="none" font-family="Roboto" font-size="18px" font-style="normal" font-weight="normal" text-decoration="none" x="277" y="136.5">-receipt_id: int</text></g></g><g transform="translate(-78,-14) scale(1,1)"><g><path fill="none" stroke="none"/><text fill="#000000" stroke="none" font-family="Roboto" font-size="18px" font-style="normal" font-weight="normal" text-decoration="none" x="277" y="156.5">-product_id: int</text></g></g><g transform="translate(-78,-14) scale(1,1)"><g><path fill="none" stroke="none"/><text fill="#000000" stroke="none" font-family="Roboto" font-size="18px" font-style="normal" font-weight="normal" text-decoration="none" x="277" y="176.5">-quantity: int</text></g></g><g transform="translate(-78,-14) scale(1,1)"><g><path fill="none" stroke="none"/><text fill="#000000" stroke="none" font-family="Roboto" font-size="18px" font-style="normal" font-weight="normal" text-decoration="none" x="277" y="196.5">-price: float</text></g></g><g transform="translate(-78,-14) scale(1,1)"><rect fill="#C0C0C0" stroke="none" x="767" y="231" width="163.51171875" height="127" opacity="0.2"/></g><g transform="translate(-78,-14) scale(1,1)"><rect fill="#ffffff" stroke="none" x="760" y="224" width="163.51171875" height="127"/></g><g transform="translate(-78,-14) scale(1,1)"><path fill="none" stroke="#000000" d="M 760 224 L 923.51171875 224 L 923.51171875 351 L 760 351 L 760 224 Z Z" stroke-miterlimit="10"/></g><g transform="translate(-78,-14) scale(1,1)"><path fill="none" stroke="#000000" d="M 760 254 L 923.51171875 254" stroke-miterlimit="10"/></g><g transform="translate(-78,-14) scale(1,1)"><path fill="none" stroke="#000000" d="M 760 342 L 923.51171875 342" stroke-miterlimit="10"/></g><g transform="translate(-78,-14) scale(1,1)"><g><path fill="none" stroke="none"/><text fill="#000000" stroke="none" font-family="Roboto" font-size="18px" font-style="normal" font-weight="bold" text-decoration="none" x="823.0966796875" y="248.5">Debt</text></g></g><g transform="translate(-78,-14) scale(1,1)"><g><path fill="none" stroke="none"/><text fill="#000000" stroke="none" font-family="Roboto" font-size="18px" font-style="normal" font-weight="normal" text-decoration="none" x="765" y="276.5">-id: int</text></g></g><g transform="translate(-78,-14) scale(1,1)"><g><path fill="none" stroke="none"/><text fill="#000000" stroke="none" font-family="Roboto" font-size="18px" font-style="normal" font-weight="normal" text-decoration="none" x="765" y="296.5">-created_date: Date</text></g></g><g transform="translate(-78,-14) scale(1,1)"><g><path fill="none" stroke="none"/><text fill="#000000" stroke="none" font-family="Roboto" font-size="18px" font-style="normal" font-weight="normal" text-decoration="none" x="765" y="316.5">-staff_id: int</text></g></g><g transform="translate(-78,-14) scale(1,1)"><g><path fill="none" stroke="none"/><text fill="#000000" stroke="none" font-family="Roboto" font-size="18px" font-style="normal" font-weight="normal" text-decoration="none" x="765" y="336.5">-customer_id: int</text></g></g><g transform="translate(-78,-14) scale(1,1)"><path fill="none" stroke="#000000" d="M 571 281 L 760 281" stroke-miterlimit="10"/></g><g transform="translate(-78,-14) scale(1,1)"><g><path fill="none" stroke="none"/><text fill="#000000" stroke="none" font-family="Roboto" font-size="18px" font-style="normal" font-weight="normal" text-decoration="none" x="575.5" y="272.5">1..*</text></g></g><g transform="translate(-78,-14) scale(1,1)"><g><path fill="none" stroke="none"/><text fill="#000000" stroke="none" font-family="Roboto" font-size="18px" font-style="normal" font-weight="normal" text-decoration="none" x="727.5" y="271.5">0..*</text></g></g><g transform="translate(-78,-14) scale(1,1)"><rect fill="#C0C0C0" stroke="none" x="615" y="31" width="127.7578125" height="187" opacity="0.2"/></g><g transform="translate(-78,-14) scale(1,1)"><rect fill="#ffffff" stroke="none" x="608" y="24" width="127.7578125" height="187"/></g><g transform="translate(-78,-14) scale(1,1)"><path fill="none" stroke="#000000" d="M 608 24 L 735.7578125 24 L 735.7578125 211 L 608 211 L 608 24 Z Z" stroke-miterlimit="10"/></g><g transform="translate(-78,-14) scale(1,1)"><path fill="none" stroke="#000000" d="M 608 54 L 735.7578125 54" stroke-miterlimit="10"/></g><g transform="translate(-78,-14) scale(1,1)"><path fill="none" stroke="#000000" d="M 608 202 L 735.7578125 202" stroke-miterlimit="10"/></g><g transform="translate(-78,-14) scale(1,1)"><g><path fill="none" stroke="none"/><text fill="#000000" stroke="none" font-family="Roboto" font-size="18px" font-style="normal" font-weight="bold" text-decoration="none" x="626.966796875" y="48.5">OrderDetail</text></g></g><g transform="translate(-78,-14) scale(1,1)"><g><path fill="none" stroke="none"/><text fill="#000000" stroke="none" font-family="Roboto" font-size="18px" font-style="normal" font-weight="normal" text-decoration="none" x="613" y="76.5">-id: int</text></g></g><g transform="translate(-78,-14) scale(1,1)"><g><path fill="none" stroke="none"/><text fill="#000000" stroke="none" font-family="Roboto" font-size="18px" font-style="normal" font-weight="normal" text-decoration="none" x="613" y="96.5">-debt_id: int</text></g></g><g transform="translate(-78,-14) scale(1,1)"><g><path fill="none" stroke="none"/><text fill="#000000" stroke="none" font-family="Roboto" font-size="18px" font-style="normal" font-weight="normal" text-decoration="none" x="613" y="116.5">-product_id: int</text></g></g><g transform="translate(-78,-14) scale(1,1)"><g><path fill="none" stroke="none"/><text fill="#000000" stroke="none" font-family="Roboto" font-size="18px" font-style="normal" font-weight="normal" text-decoration="none" x="613" y="136.5">-author: char</text></g></g><g transform="translate(-78,-14) scale(1,1)"><g><path fill="none" stroke="none"/><text fill="#000000" stroke="none" font-family="Roboto" font-size="18px" font-style="normal" font-weight="normal" text-decoration="none" x="613" y="156.5">-category: char</text></g></g><g transform="translate(-78,-14) scale(1,1)"><g><path fill="none" stroke="none"/><text fill="#000000" stroke="none" font-family="Roboto" font-size="18px" font-style="normal" font-weight="normal" text-decoration="none" x="613" y="176.5">-quantity: int</text></g></g><g transform="translate(-78,-14) scale(1,1)"><g><path fill="none" stroke="none"/><text fill="#000000" stroke="none" font-family="Roboto" font-size="18px" font-style="normal" font-weight="normal" text-decoration="none" x="613" y="196.5">-price: float</text></g></g><g transform="translate(-78,-14) scale(1,1)"><rect fill="#C0C0C0" stroke="none" x="303" y="439" width="103.0341796875" height="87" opacity="0.2"/></g><g transform="translate(-78,-14) scale(1,1)"><rect fill="#ffffff" stroke="none" x="296" y="432" width="103.0341796875" height="87"/></g><g transform="translate(-78,-14) scale(1,1)"><path fill="none" stroke="#000000" d="M 296 432 L 399.0341796875 432 L 399.0341796875 519 L 296 519 L 296 432 Z Z" stroke-miterlimit="10"/></g><g transform="translate(-78,-14) scale(1,1)"><path fill="none" stroke="#000000" d="M 296 462 L 399.0341796875 462" stroke-miterlimit="10"/></g><g transform="translate(-78,-14) scale(1,1)"><path fill="none" stroke="#000000" d="M 296 510 L 399.0341796875 510" stroke-miterlimit="10"/></g><g transform="translate(-78,-14) scale(1,1)"><g><path fill="none" stroke="none"/><text fill="#000000" stroke="none" font-family="Roboto" font-size="18px" font-style="normal" font-weight="bold" text-decoration="none" x="320.65771484375" y="456.5">Author</text></g></g><g transform="translate(-78,-14) scale(1,1)"><g><path fill="none" stroke="none"/><text fill="#000000" stroke="none" font-family="Roboto" font-size="18px" font-style="normal" font-weight="normal" text-decoration="none" x="301" y="484.5">-id: int</text></g></g><g transform="translate(-78,-14) scale(1,1)"><g><path fill="none" stroke="none"/><text fill="#000000" stroke="none" font-family="Roboto" font-size="18px" font-style="normal" font-weight="normal" text-decoration="none" x="301" y="504.5">-name: char</text></g></g><g transform="translate(-78,-14) scale(1,1)"><rect fill="#C0C0C0" stroke="none" x="607" y="439" width="103.0341796875" height="87" opacity="0.2"/></g><g transform="translate(-78,-14) scale(1,1)"><rect fill="#ffffff" stroke="none" x="600" y="432" width="103.0341796875" height="87"/></g><g transform="translate(-78,-14) scale(1,1)"><path fill="none" stroke="#000000" d="M 600 432 L 703.0341796875 432 L 703.0341796875 519 L 600 519 L 600 432 Z Z" stroke-miterlimit="10"/></g><g transform="translate(-78,-14) scale(1,1)"><path fill="none" stroke="#000000" d="M 600 462 L 703.0341796875 462" stroke-miterlimit="10"/></g><g transform="translate(-78,-14) scale(1,1)"><path fill="none" stroke="#000000" d="M 600 510 L 703.0341796875 510" stroke-miterlimit="10"/></g><g transform="translate(-78,-14) scale(1,1)"><g><path fill="none" stroke="none"/><text fill="#000000" stroke="none" font-family="Roboto" font-size="18px" font-style="normal" font-weight="bold" text-decoration="none" x="615.49072265625" y="456.5">Category</text></g></g><g transform="translate(-78,-14) scale(1,1)"><g><path fill="none" stroke="none"/><text fill="#000000" stroke="none" font-family="Roboto" font-size="18px" font-style="normal" font-weight="normal" text-decoration="none" x="605" y="484.5">-id: int</text></g></g><g transform="translate(-78,-14) scale(1,1)"><g><path fill="none" stroke="none"/><text fill="#000000" stroke="none" font-family="Roboto" font-size="18px" font-style="normal" font-weight="normal" text-decoration="none" x="605" y="504.5">-name: char</text></g></g><g transform="translate(-78,-14) scale(1,1)"><path fill="none" stroke="#000000" d="M 352 432 L 352 344 L 424 344" stroke-miterlimit="10"/></g><g transform="translate(-78,-14) scale(1,1)"><g><path fill="none" stroke="none"/><text fill="#000000" stroke="none" font-family="Roboto" font-size="18px" font-style="normal" font-weight="normal" text-decoration="none" x="319.5" y="420.5">1..*</text></g></g><g transform="translate(-78,-14) scale(1,1)"><g><path fill="none" stroke="none"/><text fill="#000000" stroke="none" font-family="Roboto" font-size="18px" font-style="normal" font-weight="normal" text-decoration="none" x="387.5" y="335.5">1..*</text></g></g><g transform="translate(-78,-14) scale(1,1)"><rect fill="#C0C0C0" stroke="none" x="775" y="471" width="141.6796875" height="187" opacity="0.2"/></g><g transform="translate(-78,-14) scale(1,1)"><rect fill="#ffffff" stroke="none" x="768" y="464" width="141.6796875" height="187"/></g><g transform="translate(-78,-14) scale(1,1)"><path fill="none" stroke="#000000" d="M 768 464 L 909.6796875 464 L 909.6796875 651 L 768 651 L 768 464 Z Z" stroke-miterlimit="10"/></g><g transform="translate(-78,-14) scale(1,1)"><path fill="none" stroke="#000000" d="M 768 494 L 909.6796875 494" stroke-miterlimit="10"/></g><g transform="translate(-78,-14) scale(1,1)"><path fill="none" stroke="#000000" d="M 768 642 L 909.6796875 642" stroke-miterlimit="10"/></g><g transform="translate(-78,-14) scale(1,1)"><g><path fill="none" stroke="none"/><text fill="#000000" stroke="none" font-family="Roboto" font-size="18px" font-style="normal" font-weight="bold" text-decoration="none" x="819.416015625" y="488.5">Staff</text></g></g><g transform="translate(-78,-14) scale(1,1)"><g><path fill="none" stroke="none"/><text fill="#000000" stroke="none" font-family="Roboto" font-size="18px" font-style="normal" font-weight="normal" text-decoration="none" x="773" y="516.5">-id: int</text></g></g><g transform="translate(-78,-14) scale(1,1)"><g><path fill="none" stroke="none"/><text fill="#000000" stroke="none" font-family="Roboto" font-size="18px" font-style="normal" font-weight="normal" text-decoration="none" x="773" y="536.5">-username: char</text></g></g><g transform="translate(-78,-14) scale(1,1)"><g><path fill="none" stroke="none"/><text fill="#000000" stroke="none" font-family="Roboto" font-size="18px" font-style="normal" font-weight="normal" text-decoration="none" x="773" y="556.5">-password: char</text></g></g><g transform="translate(-78,-14) scale(1,1)"><g><path fill="none" stroke="none"/><text fill="#000000" stroke="none" font-family="Roboto" font-size="18px" font-style="normal" font-weight="normal" text-decoration="none" x="773" y="576.5">-name: char</text></g></g><g transform="translate(-78,-14) scale(1,1)"><g><path fill="none" stroke="none"/><text fill="#000000" stroke="none" font-family="Roboto" font-size="18px" font-style="normal" font-weight="normal" text-decoration="none" x="773" y="596.5">-avatar: char</text></g></g><g transform="translate(-78,-14) scale(1,1)"><g><path fill="none" stroke="none"/><text fill="#000000" stroke="none" font-family="Roboto" font-size="18px" font-style="normal" font-weight="normal" text-decoration="none" x="773" y="616.5">-active: boolean</text></g></g><g transform="translate(-78,-14) scale(1,1)"><g><path fill="none" stroke="none"/><text fill="#000000" stroke="none" font-family="Roboto" font-size="18px" font-style="normal" font-weight="normal" text-decoration="none" x="773" y="636.5">-user_role: Enum</text></g></g><g transform="translate(-78,-14) scale(1,1)"><rect fill="#C0C0C0" stroke="none" x="783" y="767" width="124.5498046875" height="107" opacity="0.2"/></g><g transform="translate(-78,-14) scale(1,1)"><rect fill="#ffffff" stroke="none" x="776" y="760" width="124.5498046875" height="107"/></g><g transform="translate(-78,-14) scale(1,1)"><path fill="none" stroke="#000000" d="M 776 760 L 900.5498046875 760 L 900.5498046875 867 L 776 867 L 776 760 Z Z" stroke-miterlimit="10"/></g><g transform="translate(-78,-14) scale(1,1)"><path fill="none" stroke="#000000" d="M 776 790 L 900.5498046875 790" stroke-miterlimit="10"/></g><g transform="translate(-78,-14) scale(1,1)"><path fill="none" stroke="#000000" d="M 776 858 L 900.5498046875 858" stroke-miterlimit="10"/></g><g transform="translate(-78,-14) scale(1,1)"><g><path fill="none" stroke="none"/><text fill="#000000" stroke="none" font-family="Roboto" font-size="18px" font-style="normal" font-weight="bold" text-decoration="none" x="781.58984375" y="784.5">ImportReceipt</text></g></g><g transform="translate(-78,-14) scale(1,1)"><g><path fill="none" stroke="none"/><text fill="#000000" stroke="none" font-family="Roboto" font-size="18px" font-style="normal" font-weight="normal" text-decoration="none" x="781" y="812.5">-id: int</text></g></g><g transform="translate(-78,-14) scale(1,1)"><g><path fill="none" stroke="none"/><text fill="#000000" stroke="none" font-family="Roboto" font-size="18px" font-style="normal" font-weight="normal" text-decoration="none" x="781" y="832.5">-date: Date</text></g></g><g transform="translate(-78,-14) scale(1,1)"><g><path fill="none" stroke="none"/><text fill="#000000" stroke="none" font-family="Roboto" font-size="18px" font-style="normal" font-weight="normal" text-decoration="none" x="781" y="852.5">-staff_id: int</text></g></g><g transform="translate(-78,-14) scale(1,1)"><path fill="none" stroke="#000000" d="M 833 351 L 833 464" stroke-miterlimit="10"/></g><g transform="translate(-78,-14) scale(1,1)"><g><path fill="none" stroke="none"/><text fill="#000000" stroke="none" font-family="Roboto" font-size="18px" font-style="normal" font-weight="normal" text-decoration="none" x="839.5" y="378.5">1..*</text></g></g><g transform="translate(-78,-14) scale(1,1)"><g><path fill="none" stroke="none"/><text fill="#000000" stroke="none" font-family="Roboto" font-size="18px" font-style="normal" font-weight="normal" text-decoration="none" x="838.5" y="449.5">1</text></g></g><g transform="translate(-78,-14) scale(1,1)"><path fill="none" stroke="#000000" d="M 831 651 L 831 760" stroke-miterlimit="10"/></g><g transform="translate(-78,-14) scale(1,1)"><g><path fill="none" stroke="none"/><text fill="#000000" stroke="none" font-family="Roboto" font-size="18px" font-style="normal" font-weight="normal" text-decoration="none" x="839.5" y="678.5">1..*</text></g></g><g transform="translate(-78,-14) scale(1,1)"><g><path fill="none" stroke="none"/><text fill="#000000" stroke="none" font-family="Roboto" font-size="18px" font-style="normal" font-weight="normal" text-decoration="none" x="839.5" y="745.5">0..*</text></g></g><g transform="translate(-78,-14) scale(1,1)"><rect fill="#C0C0C0" stroke="none" x="559" y="647" width="171.2548828125" height="147" opacity="0.2"/></g><g transform="translate(-78,-14) scale(1,1)"><rect fill="#ffffff" stroke="none" x="552" y="640" width="171.2548828125" height="147"/></g><g transform="translate(-78,-14) scale(1,1)"><path fill="none" stroke="#000000" d="M 552 640 L 723.2548828125 640 L 723.2548828125 787 L 552 787 L 552 640 Z Z" stroke-miterlimit="10"/></g><g transform="translate(-78,-14) scale(1,1)"><path fill="none" stroke="#000000" d="M 552 670 L 723.2548828125 670" stroke-miterlimit="10"/></g><g transform="translate(-78,-14) scale(1,1)"><path fill="none" stroke="#000000" d="M 552 778 L 723.2548828125 778" stroke-miterlimit="10"/></g><g transform="translate(-78,-14) scale(1,1)"><g><path fill="none" stroke="none"/><text fill="#000000" stroke="none" font-family="Roboto" font-size="18px" font-style="normal" font-weight="bold" text-decoration="none" x="558.06884765625" y="664.5">ImportReceiptDetail</text></g></g><g transform="translate(-78,-14) scale(1,1)"><g><path fill="none" stroke="none"/><text fill="#000000" stroke="none" font-family="Roboto" font-size="18px" font-style="normal" font-weight="normal" text-decoration="none" x="557" y="692.5">-id: int</text></g></g><g transform="translate(-78,-14) scale(1,1)"><g><path fill="none" stroke="none"/><text fill="#000000" stroke="none" font-family="Roboto" font-size="18px" font-style="normal" font-weight="normal" text-decoration="none" x="557" y="712.5">-import_receipt_id</text></g></g><g transform="translate(-78,-14) scale(1,1)"><g><path fill="none" stroke="none"/><text fill="#000000" stroke="none" font-family="Roboto" font-size="18px" font-style="normal" font-weight="normal" text-decoration="none" x="557" y="732.5">-quantity: int</text></g></g><g transform="translate(-78,-14) scale(1,1)"><g><path fill="none" stroke="none"/><text fill="#000000" stroke="none" font-family="Roboto" font-size="18px" font-style="normal" font-weight="normal" text-decoration="none" x="557" y="752.5">-name: char</text></g></g><g transform="translate(-78,-14) scale(1,1)"><g><path fill="none" stroke="none"/><text fill="#000000" stroke="none" font-family="Roboto" font-size="18px" font-style="normal" font-weight="normal" text-decoration="none" x="557" y="772.5">-price: double</text></g></g><g transform="translate(-78,-14) scale(1,1)"><path fill="none" stroke="#000000" d="M 667 212 L 667 281 L 666 281" stroke-miterlimit="10" stroke-dasharray="3"/></g><g transform="translate(-78,-14) scale(1,1)"><path fill="none" stroke="#000000" d="M 724 705 L 830 705" stroke-miterlimit="10" stroke-dasharray="3"/></g><g transform="translate(-78,-14) scale(1,1)"><path fill="none" stroke="#000000" d="M 338 212 L 338 280 L 339 280" stroke-miterlimit="10" stroke-dasharray="3"/></g><g transform="translate(-78,-14) scale(1,1)"><path fill="none" stroke="#000000" d="M 648 432 L 648 344 L 571 344" stroke-miterlimit="10"/></g><g transform="translate(-78,-14) scale(1,1)"><g><path fill="none" stroke="none"/><text fill="#000000" stroke="none" font-family="Roboto" font-size="18px" font-style="normal" font-weight="normal" text-decoration="none" x="655.5" y="424.5">1..*</text></g></g><g transform="translate(-78,-14) scale(1,1)"><g><path fill="none" stroke="none"/><text fill="#000000" stroke="none" font-family="Roboto" font-size="18px" font-style="normal" font-weight="normal" text-decoration="none" x="583.5" y="336.5">1..*</text></g></g></g></svg>