<svg version="1.1" xmlns="http://www.w3.org/2000/svg" xmlns:xlink="http://www.w3.org/1999/xlink" width="1236" height="916"><defs/><g><g transform="translate(-54,-54) scale(1,1)"><rect fill="#ffffff" stroke="none" x="64" y="64" width="320" height="26"/></g><g transform="translate(-54,-54) scale(1,1)"><path fill="none" stroke="#000000" d="M 64 64 L 384 64 L 384 90 L 64 90 L 64 64 Z Z" stroke-miterlimit="10" stroke-width="2"/></g><g transform="translate(-54,-54) scale(1,1)"><path fill="none" stroke="#000000" d="M 64 960 L 64 64 L 384 64 L 384 960" stroke-miterlimit="10" stroke-width="2"/></g><g transform="translate(-54,-54) scale(1,1)"><g><path fill="none" stroke="none"/><text fill="#000000" stroke="none" font-family="Roboto" font-size="18px" font-style="normal" font-weight="normal" text-decoration="none" x="176.7412109375" y="86">Khách hàng</text></g></g><g transform="translate(-54,-54) scale(1,1)"><rect fill="#ffffff" stroke="none" x="384" y="64" width="320" height="26"/></g><g transform="translate(-54,-54) scale(1,1)"><path fill="none" stroke="#000000" d="M 384 64 L 704 64 L 704 90 L 384 90 L 384 64 Z Z" stroke-miterlimit="10" stroke-width="2"/></g><g transform="translate(-54,-54) scale(1,1)"><path fill="none" stroke="#000000" d="M 384 960 L 384 64 L 704 64 L 704 960" stroke-miterlimit="10" stroke-width="2"/></g><g transform="translate(-54,-54) scale(1,1)"><g><path fill="none" stroke="none"/><text fill="#000000" stroke="none" font-family="Roboto" font-size="18px" font-style="normal" font-weight="normal" text-decoration="none" x="484.4892578125" y="86">Trang giỏ hàng</text></g></g><g transform="translate(-54,-54) scale(1,1)"><rect fill="#ffffff" stroke="none" x="704" y="64" width="288" height="26"/></g><g transform="translate(-54,-54) scale(1,1)"><path fill="none" stroke="#000000" d="M 704 64 L 992 64 L 992 90 L 704 90 L 704 64 Z Z" stroke-miterlimit="10" stroke-width="2"/></g><g transform="translate(-54,-54) scale(1,1)"><path fill="none" stroke="#000000" d="M 704 960 L 704 64 L 992 64 L 992 960" stroke-miterlimit="10" stroke-width="2"/></g><g transform="translate(-54,-54) scale(1,1)"><g><path fill="none" stroke="none"/><text fill="#000000" stroke="none" font-family="Roboto" font-size="18px" font-style="normal" font-weight="normal" text-decoration="none" x="808.83154296875" y="86">Controller</text></g></g><g transform="translate(-54,-54) scale(1,1)"><path fill="#C0C0C0" stroke="none" d="M 105 159 L 238.158203125 159 Q 248.158203125 159 248.158203125 169 L 248.158203125 194 Q 248.158203125 204 238.158203125 204 L 105 204 Q 95 204 95 194 L 95 169 Q 95 159 105 159 Z" opacity="0.2"/></g><g transform="translate(-54,-54) scale(1,1)"><path fill="#ffffff" stroke="none" d="M 98 152 L 231.158203125 152 Q 241.158203125 152 241.158203125 162 L 241.158203125 187 Q 241.158203125 197 231.158203125 197 L 98 197 Q 88 197 88 187 L 88 162 Q 88 152 98 152 Z"/></g><g transform="translate(-54,-54) scale(1,1)"><path fill="none" stroke="#000000" d="M 98 152 L 231.158203125 152 Q 241.158203125 152 241.158203125 162 L 241.158203125 187 Q 241.158203125 197 231.158203125 197 L 98 197 Q 88 197 88 187 L 88 162 Q 88 152 98 152 Z" stroke-miterlimit="10"/></g><g transform="translate(-54,-54) scale(1,1)"><g><path fill="none" stroke="none"/><text fill="#000000" stroke="none" font-family="Roboto" font-size="18px" font-style="normal" font-weight="bold" text-decoration="none" x="93.69970703125" y="176.5">Truy cập giỏ hàng</text></g></g><g transform="translate(-54,-54) scale(1,1)"><path fill="none" stroke="#000000" d="M 155 115 L 155 152" stroke-miterlimit="10"/></g><g transform="translate(-54,-54) scale(1,1)"><path fill="none" stroke="#000000" d="M 150.790482243984 141.83732514237585 L 155 152 L 159.209517756016 141.83732514237585" stroke-miterlimit="10"/></g><g transform="translate(-54,-54) scale(1,1)"><path fill="none" stroke="#000000" d="M 174 241 L 264 241" stroke-miterlimit="10"/></g><g transform="translate(-54,-54) scale(1,1)"><path fill="none" stroke="#000000" d="M 253.83732514237585 245.209517756016 L 264 241 L 253.83732514237585 236.790482243984" stroke-miterlimit="10"/></g><g transform="translate(-54,-54) scale(1,1)"><g><path fill="none" stroke="none"/><text fill="#000000" stroke="none" font-family="Roboto" font-size="16px" font-style="normal" font-weight="normal" text-decoration="none" x="174.5" y="231.5">[cập nhật]</text></g></g><g transform="translate(-54,-54) scale(1,1)"><path fill="none" stroke="#000000" d="M 306 277 L 306 320" stroke-miterlimit="10"/></g><g transform="translate(-54,-54) scale(1,1)"><path fill="none" stroke="#000000" d="M 301.790482243984 309.83732514237585 L 306 320 L 310.209517756016 309.83732514237585" stroke-miterlimit="10"/></g><g transform="translate(-54,-54) scale(1,1)"><path fill="none" stroke="#000000" d="M 375 344 L 464 344" stroke-miterlimit="10"/></g><g transform="translate(-54,-54) scale(1,1)"><path fill="none" stroke="#000000" d="M 453.83732514237585 348.209517756016 L 464 344 L 453.83732514237585 339.790482243984" stroke-miterlimit="10"/></g><g transform="translate(-54,-54) scale(1,1)"><path fill="#C0C0C0" stroke="none" d="M 281 239 L 341.9296875 239 Q 351.9296875 239 351.9296875 249 L 351.9296875 274 Q 351.9296875 284 341.9296875 284 L 281 284 Q 271 284 271 274 L 271 249 Q 271 239 281 239 Z" opacity="0.2"/></g><g transform="translate(-54,-54) scale(1,1)"><path fill="#ffffff" stroke="none" d="M 274 232 L 334.9296875 232 Q 344.9296875 232 344.9296875 242 L 344.9296875 267 Q 344.9296875 277 334.9296875 277 L 274 277 Q 264 277 264 267 L 264 242 Q 264 232 274 232 Z"/></g><g transform="translate(-54,-54) scale(1,1)"><path fill="none" stroke="#000000" d="M 274 232 L 334.9296875 232 Q 344.9296875 232 344.9296875 242 L 344.9296875 267 Q 344.9296875 277 334.9296875 277 L 274 277 Q 264 277 264 267 L 264 242 Q 264 232 274 232 Z" stroke-miterlimit="10"/></g><g transform="translate(-54,-54) scale(1,1)"><g><path fill="none" stroke="none"/><text fill="#000000" stroke="none" font-family="Roboto" font-size="18px" font-style="normal" font-weight="bold" text-decoration="none" x="268.67578125" y="256.5">Cập nhật</text></g></g><g transform="translate(-54,-54) scale(1,1)"><path fill="#C0C0C0" stroke="none" d="M 265 327 L 371.52734375 327 Q 381.52734375 327 381.52734375 337 L 381.52734375 362 Q 381.52734375 372 371.52734375 372 L 265 372 Q 255 372 255 362 L 255 337 Q 255 327 265 327 Z" opacity="0.2"/></g><g transform="translate(-54,-54) scale(1,1)"><path fill="#ffffff" stroke="none" d="M 258 320 L 364.52734375 320 Q 374.52734375 320 374.52734375 330 L 374.52734375 355 Q 374.52734375 365 364.52734375 365 L 258 365 Q 248 365 248 355 L 248 330 Q 248 320 258 320 Z"/></g><g transform="translate(-54,-54) scale(1,1)"><path fill="none" stroke="#000000" d="M 258 320 L 364.52734375 320 Q 374.52734375 320 374.52734375 330 L 374.52734375 355 Q 374.52734375 365 364.52734375 365 L 258 365 Q 248 365 248 355 L 248 330 Q 248 320 258 320 Z" stroke-miterlimit="10"/></g><g transform="translate(-54,-54) scale(1,1)"><g><path fill="none" stroke="none"/><text fill="#000000" stroke="none" font-family="Roboto" font-size="18px" font-style="normal" font-weight="bold" text-decoration="none" x="252.8076171875" y="344.5">Nhập số lượng</text></g></g><g transform="translate(-54,-54) scale(1,1)"><path fill="#C0C0C0" stroke="none" d="M 97 439 L 244.0888671875 439 Q 254.0888671875 439 254.0888671875 449 L 254.0888671875 474 Q 254.0888671875 484 244.0888671875 484 L 97 484 Q 87 484 87 474 L 87 449 Q 87 439 97 439 Z" opacity="0.2"/></g><g transform="translate(-54,-54) scale(1,1)"><path fill="#ffffff" stroke="none" d="M 90 432 L 237.0888671875 432 Q 247.0888671875 432 247.0888671875 442 L 247.0888671875 467 Q 247.0888671875 477 237.0888671875 477 L 90 477 Q 80 477 80 467 L 80 442 Q 80 432 90 432 Z"/></g><g transform="translate(-54,-54) scale(1,1)"><path fill="none" stroke="#000000" d="M 90 432 L 237.0888671875 432 Q 247.0888671875 432 247.0888671875 442 L 247.0888671875 467 Q 247.0888671875 477 237.0888671875 477 L 90 477 Q 80 477 80 467 L 80 442 Q 80 432 90 432 Z" stroke-miterlimit="10"/></g><g transform="translate(-54,-54) scale(1,1)"><g><path fill="none" stroke="none"/><text fill="#000000" stroke="none" font-family="Roboto" font-size="18px" font-style="normal" font-weight="bold" text-decoration="none" x="85.044921875" y="456.5">Bấm nút thanh toán</text></g></g><g transform="translate(-54,-54) scale(1,1)"><path fill="none" stroke="#000000" d="M 160 250 L 160 432" stroke-miterlimit="10"/></g><g transform="translate(-54,-54) scale(1,1)"><path fill="none" stroke="#000000" d="M 155.790482243984 421.83732514237585 L 160 432 L 164.209517756016 421.83732514237585" stroke-miterlimit="10"/></g><g transform="translate(-54,-54) scale(1,1)"><g><path fill="none" stroke="none"/><text fill="#000000" stroke="none" font-family="Roboto" font-size="16px" font-style="normal" font-weight="normal" text-decoration="none" x="70.5" y="277.5">[thanh toán]</text></g></g><g transform="translate(-54,-54) scale(1,1)"><rect fill="#ffffff" stroke="none" x="992" y="64" width="288" height="26"/></g><g transform="translate(-54,-54) scale(1,1)"><path fill="none" stroke="#000000" d="M 992 64 L 1280 64 L 1280 90 L 992 90 L 992 64 Z Z" stroke-miterlimit="10" stroke-width="2"/></g><g transform="translate(-54,-54) scale(1,1)"><path fill="none" stroke="#000000" d="M 992 960 L 992 64 L 1280 64 L 1280 960" stroke-miterlimit="10" stroke-width="2"/></g><g transform="translate(-54,-54) scale(1,1)"><g><path fill="none" stroke="none"/><text fill="#000000" stroke="none" font-family="Roboto" font-size="18px" font-style="normal" font-weight="normal" text-decoration="none" x="1044.42236328125" y="86">Cổng thanh toán Stripe</text></g></g><g transform="translate(-54,-54) scale(1,1)"><path fill="#C0C0C0" stroke="none" d="M 151 112.5 C 151 107.2532944 155.2532944 103 160.5 103 C 165.7467056 103 170 107.2532944 170 112.5 C 170 117.7467056 165.7467056 122 160.5 122 C 155.2532944 122 151 117.7467056 151 112.5 Z" opacity="0.2"/></g><g transform="translate(-54,-54) scale(1,1)"><path fill="#000000" stroke="none" d="M 144 105.5 C 144 100.2532944 148.2532944 96 153.5 96 C 158.7467056 96 163 100.2532944 163 105.5 C 163 110.7467056 158.7467056 115 153.5 115 C 148.2532944 115 144 110.7467056 144 105.5 Z"/></g><g transform="translate(-54,-54) scale(1,1)"><path fill="#C0C0C0" stroke="none" d="M 481 327 L 624.7314453125 327 Q 634.7314453125 327 634.7314453125 337 L 634.7314453125 362 Q 634.7314453125 372 624.7314453125 372 L 481 372 Q 471 372 471 362 L 471 337 Q 471 327 481 327 Z" opacity="0.2"/></g><g transform="translate(-54,-54) scale(1,1)"><path fill="#ffffff" stroke="none" d="M 474 320 L 617.7314453125 320 Q 627.7314453125 320 627.7314453125 330 L 627.7314453125 355 Q 627.7314453125 365 617.7314453125 365 L 474 365 Q 464 365 464 355 L 464 330 Q 464 320 474 320 Z"/></g><g transform="translate(-54,-54) scale(1,1)"><path fill="none" stroke="#000000" d="M 474 320 L 617.7314453125 320 Q 627.7314453125 320 627.7314453125 330 L 627.7314453125 355 Q 627.7314453125 365 617.7314453125 365 L 474 365 Q 464 365 464 355 L 464 330 Q 464 320 474 320 Z" stroke-miterlimit="10"/></g><g transform="translate(-54,-54) scale(1,1)"><g><path fill="none" stroke="none"/><text fill="#000000" stroke="none" font-family="Roboto" font-size="18px" font-style="normal" font-weight="bold" text-decoration="none" x="469.28662109375" y="344.5">Thực hiện cập nhật</text></g></g><g transform="translate(-54,-54) scale(1,1)"><path fill="#C0C0C0" stroke="none" d="M 481 439 L 627.341796875 439 Q 637.341796875 439 637.341796875 449 L 637.341796875 474 Q 637.341796875 484 627.341796875 484 L 481 484 Q 471 484 471 474 L 471 449 Q 471 439 481 439 Z" opacity="0.2"/></g><g transform="translate(-54,-54) scale(1,1)"><path fill="#ffffff" stroke="none" d="M 474 432 L 620.341796875 432 Q 630.341796875 432 630.341796875 442 L 630.341796875 467 Q 630.341796875 477 620.341796875 477 L 474 477 Q 464 477 464 467 L 464 442 Q 464 432 474 432 Z"/></g><g transform="translate(-54,-54) scale(1,1)"><path fill="none" stroke="#000000" d="M 474 432 L 620.341796875 432 Q 630.341796875 432 630.341796875 442 L 630.341796875 467 Q 630.341796875 477 620.341796875 477 L 474 477 Q 464 477 464 467 L 464 442 Q 464 432 474 432 Z" stroke-miterlimit="10"/></g><g transform="translate(-54,-54) scale(1,1)"><g><path fill="none" stroke="none"/><text fill="#000000" stroke="none" font-family="Roboto" font-size="18px" font-style="normal" font-weight="bold" text-decoration="none" x="469.31298828125" y="456.5">Kiểm tra đăng nhập</text></g></g><g transform="translate(-54,-54) scale(1,1)"><path fill="none" stroke="#000000" d="M 630 457 L 840 457" stroke-miterlimit="10"/></g><g transform="translate(-54,-54) scale(1,1)"><path fill="none" stroke="#000000" d="M 829.8373251423759 461.209517756016 L 840 457 L 829.8373251423758 452.790482243984" stroke-miterlimit="10"/></g><g transform="translate(-54,-54) scale(1,1)"><path fill="none" stroke="#000000" d="M 862 456 L 1064 456" stroke-miterlimit="10"/></g><g transform="translate(-54,-54) scale(1,1)"><path fill="none" stroke="#000000" d="M 1053.837325142376 460.209517756016 L 1064 456 L 1053.837325142376 451.790482243984" stroke-miterlimit="10"/></g><g transform="translate(-54,-54) scale(1,1)"><g><path fill="none" stroke="none"/><text fill="#000000" stroke="none" font-family="Roboto" font-size="18px" font-style="normal" font-weight="normal" text-decoration="none" x="865.5" y="449.5">thành công</text></g></g><g transform="translate(-54,-54) scale(1,1)"><path fill="none" stroke="#000000" d="M 247 454 L 464 454" stroke-miterlimit="10"/></g><g transform="translate(-54,-54) scale(1,1)"><path fill="none" stroke="#000000" d="M 453.83732514237585 458.209517756016 L 464 454 L 453.83732514237585 449.790482243984" stroke-miterlimit="10"/></g><g transform="translate(-54,-54) scale(1,1)"><path fill="#C0C0C0" stroke="none" d="M 847 464.5 L 858.5 455 L 869 464.5 L 858.5 473 L 847 464.5" opacity="0.2"/></g><g transform="translate(-54,-54) scale(1,1)"><path fill="#ffffff" stroke="none" d="M 840 457 L 851 448 L 862 457 L 851 466 L 840 457"/></g><g transform="translate(-54,-54) scale(1,1)"><path fill="none" stroke="#000000" d="M 840 457 L 851 448 L 862 457 L 851 466 L 840 457 L 840 457" stroke-miterlimit="10"/></g><g transform="translate(-54,-54) scale(1,1)"><path fill="#C0C0C0" stroke="none" d="M 1081 439 L 1227.6318359375 439 Q 1237.6318359375 439 1237.6318359375 449 L 1237.6318359375 474 Q 1237.6318359375 484 1227.6318359375 484 L 1081 484 Q 1071 484 1071 474 L 1071 449 Q 1071 439 1081 439 Z" opacity="0.2"/></g><g transform="translate(-54,-54) scale(1,1)"><path fill="#ffffff" stroke="none" d="M 1074 432 L 1220.6318359375 432 Q 1230.6318359375 432 1230.6318359375 442 L 1230.6318359375 467 Q 1230.6318359375 477 1220.6318359375 477 L 1074 477 Q 1064 477 1064 467 L 1064 442 Q 1064 432 1074 432 Z"/></g><g transform="translate(-54,-54) scale(1,1)"><path fill="none" stroke="#000000" d="M 1074 432 L 1220.6318359375 432 Q 1230.6318359375 432 1230.6318359375 442 L 1230.6318359375 467 Q 1230.6318359375 477 1220.6318359375 477 L 1074 477 Q 1064 477 1064 467 L 1064 442 Q 1064 432 1074 432 Z" stroke-miterlimit="10"/></g><g transform="translate(-54,-54) scale(1,1)"><g><path fill="none" stroke="none"/><text fill="#000000" stroke="none" font-family="Roboto" font-size="18px" font-style="normal" font-weight="bold" text-decoration="none" x="1069.38330078125" y="456.5">Thực thi thanh toán</text></g></g><g transform="translate(-54,-54) scale(1,1)"><path fill="#C0C0C0" stroke="none" d="M 847 315.5 C 847 308.59644 852.59644 303 859.5 303 C 866.40356 303 872 308.59644 872 315.5 C 872 322.40356 866.40356 328 859.5 328 C 852.59644 328 847 322.40356 847 315.5 Z" opacity="0.2"/></g><g transform="translate(-54,-54) scale(1,1)"><path fill="none" stroke="#000000" d="M 840 308.5 C 840 301.59644 845.59644 296 852.5 296 C 859.40356 296 865 301.59644 865 308.5 C 865 315.40356 859.40356 321 852.5 321 C 845.59644 321 840 315.40356 840 308.5 Z" stroke-miterlimit="10"/></g><g transform="translate(-54,-54) scale(1,1)"><path fill="#000000" stroke="none" d="M 845 308.5 C 845 304.357864 848.357864 301 852.5 301 C 856.642136 301 860 304.357864 860 308.5 C 860 312.642136 856.642136 316 852.5 316 C 848.357864 316 845 312.642136 845 308.5 Z"/></g><g transform="translate(-54,-54) scale(1,1)"><path fill="none" stroke="#000000" d="M 852 448 L 852 321" stroke-miterlimit="10"/></g><g transform="translate(-54,-54) scale(1,1)"><path fill="none" stroke="#000000" d="M 856.209517756016 331.16267485762415 L 852 321 L 847.790482243984 331.16267485762415" stroke-miterlimit="10"/></g><g transform="translate(-54,-54) scale(1,1)"><g><path fill="none" stroke="none"/><text fill="#000000" stroke="none" font-family="Roboto" font-size="18px" font-style="normal" font-weight="normal" text-decoration="none" x="779.5" y="367.5">[thất bại]</text></g></g><g transform="translate(-54,-54) scale(1,1)"><path fill="none" stroke="#000000" d="M 1145 477 L 1145 544" stroke-miterlimit="10"/></g><g transform="translate(-54,-54) scale(1,1)"><path fill="none" stroke="#000000" d="M 1140.7904822439841 533.8373251423759 L 1145 544 L 1149.2095177560159 533.8373251423759" stroke-miterlimit="10"/></g><g transform="translate(-54,-54) scale(1,1)"><path fill="#C0C0C0" stroke="none" d="M 785 599 L 925.4619140625 599 Q 935.4619140625 599 935.4619140625 609 L 935.4619140625 634 Q 935.4619140625 644 925.4619140625 644 L 785 644 Q 775 644 775 634 L 775 609 Q 775 599 785 599 Z" opacity="0.2"/></g><g transform="translate(-54,-54) scale(1,1)"><path fill="#ffffff" stroke="none" d="M 778 592 L 918.4619140625 592 Q 928.4619140625 592 928.4619140625 602 L 928.4619140625 627 Q 928.4619140625 637 918.4619140625 637 L 778 637 Q 768 637 768 627 L 768 602 Q 768 592 778 592 Z"/></g><g transform="translate(-54,-54) scale(1,1)"><path fill="none" stroke="#000000" d="M 778 592 L 918.4619140625 592 Q 928.4619140625 592 928.4619140625 602 L 928.4619140625 627 Q 928.4619140625 637 918.4619140625 637 L 778 637 Q 768 637 768 627 L 768 602 Q 768 592 778 592 Z" stroke-miterlimit="10"/></g><g transform="translate(-54,-54) scale(1,1)"><g><path fill="none" stroke="none"/><text fill="#000000" stroke="none" font-family="Roboto" font-size="18px" font-style="normal" font-weight="bold" text-decoration="none" x="773.30859375" y="616.5">Ghi nhận đơn hàng</text></g></g><g transform="translate(-54,-54) scale(1,1)"><path fill="#C0C0C0" stroke="none" d="M 1143 560.5 L 1154.5 551 L 1165 560.5 L 1154.5 569 L 1143 560.5" opacity="0.2"/></g><g transform="translate(-54,-54) scale(1,1)"><path fill="#ffffff" stroke="none" d="M 1136 553 L 1147 544 L 1158 553 L 1147 562 L 1136 553"/></g><g transform="translate(-54,-54) scale(1,1)"><path fill="none" stroke="#000000" d="M 1136 553 L 1147 544 L 1158 553 L 1147 562 L 1136 553 L 1136 553" stroke-miterlimit="10"/></g><g transform="translate(-54,-54) scale(1,1)"><path fill="none" stroke="#000000" d="M 545 573 L 545 656" stroke-miterlimit="10"/></g><g transform="translate(-54,-54) scale(1,1)"><path fill="none" stroke="#000000" d="M 540.790482243984 645.8373251423759 L 545 656 L 549.209517756016 645.8373251423759" stroke-miterlimit="10"/></g><g transform="translate(-54,-54) scale(1,1)"><path fill="none" stroke="#000000" d="M 545 320 L 545 176 M 545 176 A 8 8 0 0 0 537 168 L 241 168" stroke-miterlimit="10"/></g><g transform="translate(-54,-54) scale(1,1)"><path fill="none" stroke="#000000" d="M 251.16267485762415 163.790482243984 L 241 168 L 251.16267485762415 172.209517756016" stroke-miterlimit="10"/></g><g transform="translate(-54,-54) scale(1,1)"><path fill="#C0C0C0" stroke="none" d="M 481 535 L 626.6298828125 535 Q 636.6298828125 535 636.6298828125 545 L 636.6298828125 570 Q 636.6298828125 580 626.6298828125 580 L 481 580 Q 471 580 471 570 L 471 545 Q 471 535 481 535 Z" opacity="0.2"/></g><g transform="translate(-54,-54) scale(1,1)"><path fill="#ffffff" stroke="none" d="M 474 528 L 619.6298828125 528 Q 629.6298828125 528 629.6298828125 538 L 629.6298828125 563 Q 629.6298828125 573 619.6298828125 573 L 474 573 Q 464 573 464 563 L 464 538 Q 464 528 474 528 Z"/></g><g transform="translate(-54,-54) scale(1,1)"><path fill="none" stroke="#000000" d="M 474 528 L 619.6298828125 528 Q 629.6298828125 528 629.6298828125 538 L 629.6298828125 563 Q 629.6298828125 573 619.6298828125 573 L 474 573 Q 464 573 464 563 L 464 538 Q 464 528 474 528 Z" stroke-miterlimit="10"/></g><g transform="translate(-54,-54) scale(1,1)"><g><path fill="none" stroke="none"/><text fill="#000000" stroke="none" font-family="Roboto" font-size="18px" font-style="normal" font-weight="bold" text-decoration="none" x="474.43701171875" y="552.5">Báo lỗi thanh toán</text></g></g><g transform="translate(-54,-54) scale(1,1)"><path fill="none" stroke="#000000" d="M 1136 553 L 630 553" stroke-miterlimit="10"/></g><g transform="translate(-54,-54) scale(1,1)"><path fill="none" stroke="#000000" d="M 640.1626748576241 548.790482243984 L 630 553 L 640.1626748576241 557.209517756016" stroke-miterlimit="10"/></g><g transform="translate(-54,-54) scale(1,1)"><g><path fill="none" stroke="none"/><text fill="#000000" stroke="none" font-family="Roboto" font-size="18px" font-style="normal" font-weight="normal" text-decoration="none" x="1031.5" y="544.5">[thất bại]</text></g></g><g transform="translate(-54,-54) scale(1,1)"><path fill="#C0C0C0" stroke="none" d="M 535 675.5 C 535 668.59644 540.59644 663 547.5 663 C 554.40356 663 560 668.59644 560 675.5 C 560 682.40356 554.40356 688 547.5 688 C 540.59644 688 535 682.40356 535 675.5 Z" opacity="0.2"/></g><g transform="translate(-54,-54) scale(1,1)"><path fill="none" stroke="#000000" d="M 528 668.5 C 528 661.59644 533.59644 656 540.5 656 C 547.40356 656 553 661.59644 553 668.5 C 553 675.40356 547.40356 681 540.5 681 C 533.59644 681 528 675.40356 528 668.5 Z" stroke-miterlimit="10"/></g><g transform="translate(-54,-54) scale(1,1)"><path fill="#000000" stroke="none" d="M 533 668.5 C 533 664.357864 536.357864 661 540.5 661 C 544.642136 661 548 664.357864 548 668.5 C 548 672.642136 544.642136 676 540.5 676 C 536.357864 676 533 672.642136 533 668.5 Z"/></g><g transform="translate(-54,-54) scale(1,1)"><path fill="none" stroke="#000000" d="M 848 637 L 848 672" stroke-miterlimit="10"/></g><g transform="translate(-54,-54) scale(1,1)"><path fill="none" stroke="#000000" d="M 843.790482243984 661.8373251423759 L 848 672 L 852.209517756016 661.8373251423759" stroke-miterlimit="10"/></g><g transform="translate(-54,-54) scale(1,1)"><path fill="#C0C0C0" stroke="none" d="M 753 735 L 813.314453125 735 Q 823.314453125 735 823.314453125 745 L 823.314453125 770 Q 823.314453125 780 813.314453125 780 L 753 780 Q 743 780 743 770 L 743 745 Q 743 735 753 735 Z" opacity="0.2"/></g><g transform="translate(-54,-54) scale(1,1)"><path fill="#ffffff" stroke="none" d="M 746 728 L 806.314453125 728 Q 816.314453125 728 816.314453125 738 L 816.314453125 763 Q 816.314453125 773 806.314453125 773 L 746 773 Q 736 773 736 763 L 736 738 Q 736 728 746 728 Z"/></g><g transform="translate(-54,-54) scale(1,1)"><path fill="none" stroke="#000000" d="M 746 728 L 806.314453125 728 Q 816.314453125 728 816.314453125 738 L 816.314453125 763 Q 816.314453125 773 806.314453125 773 L 746 773 Q 736 773 736 763 L 736 738 Q 736 728 746 728 Z" stroke-miterlimit="10"/></g><g transform="translate(-54,-54) scale(1,1)"><g><path fill="none" stroke="none"/><text fill="#000000" stroke="none" font-family="Roboto" font-size="18px" font-style="normal" font-weight="bold" text-decoration="none" x="741.5107421875" y="752.5">Gửi SMS</text></g></g><g transform="translate(-54,-54) scale(1,1)"><path fill="none" stroke="#000000" d="M 846 677 L 846 688 M 846 688 A 8 8 0 0 1 838 696 L 784 696 M 784 696 A 8 8 0 0 0 776 704 L 776 728" stroke-miterlimit="10"/></g><g transform="translate(-54,-54) scale(1,1)"><path fill="none" stroke="#000000" d="M 771.790482243984 717.8373251423759 L 776 728 L 780.209517756016 717.8373251423759" stroke-miterlimit="10"/></g><g transform="translate(-54,-54) scale(1,1)"><path fill="none" stroke="#000000" d="M 855 677 L 855 688 M 855 688 A 8 8 0 0 0 863 696 L 928 696 M 928 696 A 8 8 0 0 1 936 704 L 936 720" stroke-miterlimit="10"/></g><g transform="translate(-54,-54) scale(1,1)"><path fill="none" stroke="#000000" d="M 931.790482243984 709.8373251423759 L 936 720 L 940.209517756016 709.8373251423759" stroke-miterlimit="10"/></g><g transform="translate(-54,-54) scale(1,1)"><path fill="#C0C0C0" stroke="none" d="M 826 679 L 889 679 Q 892 679 892 682 L 892 681 Q 892 684 889 684 L 826 684 Q 823 684 823 681 L 823 682 Q 823 679 826 679 Z" opacity="0.2"/></g><g transform="translate(-54,-54) scale(1,1)"><path fill="#000000" stroke="none" d="M 819 672 L 882 672 Q 885 672 885 675 L 885 675 Q 885 678 882 678 L 819 678 Q 816 678 816 675 L 816 675 Q 816 672 819 672 Z"/></g><g transform="translate(-54,-54) scale(1,1)"><path fill="#C0C0C0" stroke="none" d="M 913 727 L 982.3056640625 727 Q 992.3056640625 727 992.3056640625 737 L 992.3056640625 762 Q 992.3056640625 772 982.3056640625 772 L 913 772 Q 903 772 903 762 L 903 737 Q 903 727 913 727 Z" opacity="0.2"/></g><g transform="translate(-54,-54) scale(1,1)"><path fill="#ffffff" stroke="none" d="M 906 720 L 975.3056640625 720 Q 985.3056640625 720 985.3056640625 730 L 985.3056640625 755 Q 985.3056640625 765 975.3056640625 765 L 906 765 Q 896 765 896 755 L 896 730 Q 896 720 906 720 Z"/></g><g transform="translate(-54,-54) scale(1,1)"><path fill="none" stroke="#000000" d="M 906 720 L 975.3056640625 720 Q 985.3056640625 720 985.3056640625 730 L 985.3056640625 755 Q 985.3056640625 765 975.3056640625 765 L 906 765 Q 896 765 896 755 L 896 730 Q 896 720 906 720 Z" stroke-miterlimit="10"/></g><g transform="translate(-54,-54) scale(1,1)"><g><path fill="none" stroke="none"/><text fill="#000000" stroke="none" font-family="Roboto" font-size="18px" font-style="normal" font-weight="bold" text-decoration="none" x="902.275390625" y="744.5">Gửi Email</text></g></g><g transform="translate(-54,-54) scale(1,1)"><path fill="#C0C0C0" stroke="none" d="M 847 915.5 C 847 908.59644 852.59644 903 859.5 903 C 866.40356 903 872 908.59644 872 915.5 C 872 922.40356 866.40356 928 859.5 928 C 852.59644 928 847 922.40356 847 915.5 Z" opacity="0.2"/></g><g transform="translate(-54,-54) scale(1,1)"><path fill="none" stroke="#000000" d="M 840 908.5 C 840 901.59644 845.59644 896 852.5 896 C 859.40356 896 865 901.59644 865 908.5 C 865 915.40356 859.40356 921 852.5 921 C 845.59644 921 840 915.40356 840 908.5 Z" stroke-miterlimit="10"/></g><g transform="translate(-54,-54) scale(1,1)"><path fill="#000000" stroke="none" d="M 845 908.5 C 845 904.357864 848.357864 901 852.5 901 C 856.642136 901 860 904.357864 860 908.5 C 860 912.642136 856.642136 916 852.5 916 C 848.357864 916 845 912.642136 845 908.5 Z"/></g><g transform="translate(-54,-54) scale(1,1)"><path fill="#C0C0C0" stroke="none" d="M 826 847 L 889 847 Q 892 847 892 850 L 892 849 Q 892 852 889 852 L 826 852 Q 823 852 823 849 L 823 850 Q 823 847 826 847 Z" opacity="0.2"/></g><g transform="translate(-54,-54) scale(1,1)"><path fill="#000000" stroke="none" d="M 819 840 L 882 840 Q 885 840 885 843 L 885 843 Q 885 846 882 846 L 819 846 Q 816 846 816 843 L 816 843 Q 816 840 819 840 Z"/></g><g transform="translate(-54,-54) scale(1,1)"><path fill="none" stroke="#000000" d="M 795 773 L 795 834 M 795 834 A 8 8 0 0 0 803 842 L 816 842" stroke-miterlimit="10"/></g><g transform="translate(-54,-54) scale(1,1)"><path fill="none" stroke="#000000" d="M 805.8373251423759 846.209517756016 L 816 842 L 805.8373251423758 837.790482243984" stroke-miterlimit="10"/></g><g transform="translate(-54,-54) scale(1,1)"><path fill="none" stroke="#000000" d="M 918 765 L 918 834 M 918 834 A 8 8 0 0 1 910 842 L 885 842" stroke-miterlimit="10"/></g><g transform="translate(-54,-54) scale(1,1)"><path fill="none" stroke="#000000" d="M 895.1626748576241 837.790482243984 L 885 842 L 895.1626748576241 846.209517756016" stroke-miterlimit="10"/></g><g transform="translate(-54,-54) scale(1,1)"><path fill="none" stroke="#000000" d="M 850 845 L 850 896" stroke-miterlimit="10"/></g><g transform="translate(-54,-54) scale(1,1)"><path fill="none" stroke="#000000" d="M 845.790482243984 885.8373251423759 L 850 896 L 854.209517756016 885.8373251423759" stroke-miterlimit="10"/></g><g transform="translate(-54,-54) scale(1,1)"><path fill="none" stroke="#000000" d="M 1144 562 L 1144 600 M 1144 600 A 8 8 0 0 1 1136 608 L 928 608" stroke-miterlimit="10"/></g><g transform="translate(-54,-54) scale(1,1)"><path fill="none" stroke="#000000" d="M 938.1626748576241 603.790482243984 L 928 608 L 938.1626748576241 612.209517756016" stroke-miterlimit="10"/></g><g transform="translate(-54,-54) scale(1,1)"><g><path fill="none" stroke="none"/><text fill="#000000" stroke="none" font-family="Roboto" font-size="18px" font-style="normal" font-weight="normal" text-decoration="none" x="1023.5" y="632.5">[thành công]</text></g></g><g transform="translate(-54,-54) scale(1,1)"><path fill="#C0C0C0" stroke="none" d="M 159 248.5 L 170.5 239 L 181 248.5 L 170.5 257 L 159 248.5" opacity="0.2"/></g><g transform="translate(-54,-54) scale(1,1)"><path fill="#ffffff" stroke="none" d="M 152 241 L 163 232 L 174 241 L 163 250 L 152 241"/></g><g transform="translate(-54,-54) scale(1,1)"><path fill="none" stroke="#000000" d="M 152 241 L 163 232 L 174 241 L 163 250 L 152 241 L 152 241" stroke-miterlimit="10"/></g><g transform="translate(-54,-54) scale(1,1)"><path fill="none" stroke="#000000" d="M 161 197 L 161 232" stroke-miterlimit="10"/></g><g transform="translate(-54,-54) scale(1,1)"><path fill="none" stroke="#000000" d="M 156.790482243984 221.83732514237585 L 161 232 L 165.209517756016 221.83732514237585" stroke-miterlimit="10"/></g></g></svg>