<svg version="1.1" xmlns="http://www.w3.org/2000/svg" xmlns:xlink="http://www.w3.org/1999/xlink" width="1236" height="924"><defs/><g><g transform="translate(-54,-46) scale(1,1)"><rect fill="#ffffff" stroke="none" x="64" y="64" width="320" height="24"/></g><g transform="translate(-54,-46) scale(1,1)"><path fill="none" stroke="#000000" d="M 64 64 L 384 64 L 384 88 L 64 88 L 64 64 Z Z" stroke-miterlimit="10" stroke-width="2"/></g><g transform="translate(-54,-46) scale(1,1)"><path fill="none" stroke="#000000" d="M 64 960 L 64 64 L 384 64 L 384 960" stroke-miterlimit="10" stroke-width="2"/></g><g transform="translate(-54,-46) scale(1,1)"><g><path fill="none" stroke="none"/><text fill="#000000" stroke="none" font-family="Roboto" font-size="16px" font-style="normal" font-weight="normal" text-decoration="none" x="181.9921875" y="84">Khách hàng</text></g></g><g transform="translate(-54,-46) scale(1,1)"><rect fill="#ffffff" stroke="none" x="384" y="64" width="320" height="24"/></g><g transform="translate(-54,-46) scale(1,1)"><path fill="none" stroke="#000000" d="M 384 64 L 704 64 L 704 88 L 384 88 L 384 64 Z Z" stroke-miterlimit="10" stroke-width="2"/></g><g transform="translate(-54,-46) scale(1,1)"><path fill="none" stroke="#000000" d="M 384 960 L 384 64 L 704 64 L 704 960" stroke-miterlimit="10" stroke-width="2"/></g><g transform="translate(-54,-46) scale(1,1)"><g><path fill="none" stroke="none"/><text fill="#000000" stroke="none" font-family="Roboto" font-size="16px" font-style="normal" font-weight="normal" text-decoration="none" x="491.1015625" y="84">Trang giỏ hàng</text></g></g><g transform="translate(-54,-46) scale(1,1)"><rect fill="#ffffff" stroke="none" x="704" y="64" width="288" height="24"/></g><g transform="translate(-54,-46) scale(1,1)"><path fill="none" stroke="#000000" d="M 704 64 L 992 64 L 992 88 L 704 88 L 704 64 Z Z" stroke-miterlimit="10" stroke-width="2"/></g><g transform="translate(-54,-46) scale(1,1)"><path fill="none" stroke="#000000" d="M 704 960 L 704 64 L 992 64 L 992 960" stroke-miterlimit="10" stroke-width="2"/></g><g transform="translate(-54,-46) scale(1,1)"><g><path fill="none" stroke="none"/><text fill="#000000" stroke="none" font-family="Roboto" font-size="16px" font-style="normal" font-weight="normal" text-decoration="none" x="813.18359375" y="84">Controller</text></g></g><g transform="translate(-54,-46) scale(1,1)"><path fill="#C0C0C0" stroke="none" d="M 105 167 L 222.140625 167 Q 232.140625 167 232.140625 177 L 232.140625 200 Q 232.140625 210 222.140625 210 L 105 210 Q 95 210 95 200 L 95 177 Q 95 167 105 167 Z" opacity="0.2"/></g><g transform="translate(-54,-46) scale(1,1)"><path fill="#ffffff" stroke="none" d="M 98 160 L 215.140625 160 Q 225.140625 160 225.140625 170 L 225.140625 193 Q 225.140625 203 215.140625 203 L 98 203 Q 88 203 88 193 L 88 170 Q 88 160 98 160 Z"/></g><g transform="translate(-54,-46) scale(1,1)"><path fill="none" stroke="#000000" d="M 98 160 L 215.140625 160 Q 225.140625 160 225.140625 170 L 225.140625 193 Q 225.140625 203 215.140625 203 L 98 203 Q 88 203 88 193 L 88 170 Q 88 160 98 160 Z" stroke-miterlimit="10"/></g><g transform="translate(-54,-46) scale(1,1)"><g><path fill="none" stroke="none"/><text fill="#000000" stroke="none" font-family="Roboto" font-size="16px" font-style="normal" font-weight="bold" text-decoration="none" x="93.56640625" y="182.5">Truy cập giỏ hàng</text></g></g><g transform="translate(-54,-46) scale(1,1)"><path fill="none" stroke="#000000" d="M 153 116 L 155 159" stroke-miterlimit="10"/></g><g transform="translate(-54,-46) scale(1,1)"><path fill="none" stroke="#000000" d="M 150.322856065764 149.04388004198225 L 155 159 L 158.73279974413728 148.6527198708951" stroke-miterlimit="10"/></g><g transform="translate(-54,-46) scale(1,1)"><path fill="none" stroke="#000000" d="M 202 204 L 263 235" stroke-miterlimit="10"/></g><g transform="translate(-54,-46) scale(1,1)"><path fill="none" stroke="#000000" d="M 252.03300454418957 234.1485244147757 L 263 235 L 255.84724730428127 226.6430789836275" stroke-miterlimit="10"/></g><g transform="translate(-54,-46) scale(1,1)"><path fill="none" stroke="#000000" d="M 301 276 L 303 335" stroke-miterlimit="10"/></g><g transform="translate(-54,-46) scale(1,1)"><path fill="none" stroke="#000000" d="M 298.44859903663905 324.98577265732814 L 303 335 L 306.8628015772555 324.70054545256147" stroke-miterlimit="10"/></g><g transform="translate(-54,-46) scale(1,1)"><path fill="none" stroke="#000000" d="M 362 357 L 463 357" stroke-miterlimit="10"/></g><g transform="translate(-54,-46) scale(1,1)"><path fill="none" stroke="#000000" d="M 452.83732514237585 361.209517756016 L 463 357 L 452.83732514237585 352.790482243984" stroke-miterlimit="10"/></g><g transform="translate(-54,-46) scale(1,1)"><path fill="#C0C0C0" stroke="none" d="M 281 239 L 333.9375 239 Q 343.9375 239 343.9375 249 L 343.9375 272 Q 343.9375 282 333.9375 282 L 281 282 Q 271 282 271 272 L 271 249 Q 271 239 281 239 Z" opacity="0.2"/></g><g transform="translate(-54,-46) scale(1,1)"><path fill="#ffffff" stroke="none" d="M 274 232 L 326.9375 232 Q 336.9375 232 336.9375 242 L 336.9375 265 Q 336.9375 275 326.9375 275 L 274 275 Q 264 275 264 265 L 264 242 Q 264 232 274 232 Z"/></g><g transform="translate(-54,-46) scale(1,1)"><path fill="none" stroke="#000000" d="M 274 232 L 326.9375 232 Q 336.9375 232 336.9375 242 L 336.9375 265 Q 336.9375 275 326.9375 275 L 274 275 Q 264 275 264 265 L 264 242 Q 264 232 274 232 Z" stroke-miterlimit="10"/></g><g transform="translate(-54,-46) scale(1,1)"><g><path fill="none" stroke="none"/><text fill="#000000" stroke="none" font-family="Roboto" font-size="16px" font-style="normal" font-weight="bold" text-decoration="none" x="268.65625" y="254.5">Cập nhật</text></g></g><g transform="translate(-54,-46) scale(1,1)"><path fill="#C0C0C0" stroke="none" d="M 265 343 L 358.46875 343 Q 368.46875 343 368.46875 353 L 368.46875 376 Q 368.46875 386 358.46875 386 L 265 386 Q 255 386 255 376 L 255 353 Q 255 343 265 343 Z" opacity="0.2"/></g><g transform="translate(-54,-46) scale(1,1)"><path fill="#ffffff" stroke="none" d="M 258 336 L 351.46875 336 Q 361.46875 336 361.46875 346 L 361.46875 369 Q 361.46875 379 351.46875 379 L 258 379 Q 248 379 248 369 L 248 346 Q 248 336 258 336 Z"/></g><g transform="translate(-54,-46) scale(1,1)"><path fill="none" stroke="#000000" d="M 258 336 L 351.46875 336 Q 361.46875 336 361.46875 346 L 361.46875 369 Q 361.46875 379 351.46875 379 L 258 379 Q 248 379 248 369 L 248 346 Q 248 336 258 336 Z" stroke-miterlimit="10"/></g><g transform="translate(-54,-46) scale(1,1)"><g><path fill="none" stroke="none"/><text fill="#000000" stroke="none" font-family="Roboto" font-size="16px" font-style="normal" font-weight="bold" text-decoration="none" x="252.7734375" y="358.5">Nhập số lượng</text></g></g><g transform="translate(-54,-46) scale(1,1)"><path fill="#C0C0C0" stroke="none" d="M 97 439 L 226.5234375 439 Q 236.5234375 439 236.5234375 449 L 236.5234375 472 Q 236.5234375 482 226.5234375 482 L 97 482 Q 87 482 87 472 L 87 449 Q 87 439 97 439 Z" opacity="0.2"/></g><g transform="translate(-54,-46) scale(1,1)"><path fill="#ffffff" stroke="none" d="M 90 432 L 219.5234375 432 Q 229.5234375 432 229.5234375 442 L 229.5234375 465 Q 229.5234375 475 219.5234375 475 L 90 475 Q 80 475 80 465 L 80 442 Q 80 432 90 432 Z"/></g><g transform="translate(-54,-46) scale(1,1)"><path fill="none" stroke="#000000" d="M 90 432 L 219.5234375 432 Q 229.5234375 432 229.5234375 442 L 229.5234375 465 Q 229.5234375 475 219.5234375 475 L 90 475 Q 80 475 80 465 L 80 442 Q 80 432 90 432 Z" stroke-miterlimit="10"/></g><g transform="translate(-54,-46) scale(1,1)"><g><path fill="none" stroke="none"/><text fill="#000000" stroke="none" font-family="Roboto" font-size="16px" font-style="normal" font-weight="bold" text-decoration="none" x="84.984375" y="454.5">Bấm nút thanh toán</text></g></g><g transform="translate(-54,-46) scale(1,1)"><path fill="none" stroke="#000000" d="M 156 204 L 154 431" stroke-miterlimit="10"/></g><g transform="translate(-54,-46) scale(1,1)"><path fill="none" stroke="#000000" d="M 149.88018112933412 420.80063274154196 L 154 431 L 158.29888989155955 420.87480638702414" stroke-miterlimit="10"/></g><g transform="translate(-54,-46) scale(1,1)"><rect fill="#ffffff" stroke="none" x="992" y="56" width="288" height="24"/></g><g transform="translate(-54,-46) scale(1,1)"><path fill="none" stroke="#000000" d="M 992 56 L 1280 56 L 1280 80 L 992 80 L 992 56 Z Z" stroke-miterlimit="10" stroke-width="2"/></g><g transform="translate(-54,-46) scale(1,1)"><path fill="none" stroke="#000000" d="M 992 960 L 992 56 L 1280 56 L 1280 960" stroke-miterlimit="10" stroke-width="2"/></g><g transform="translate(-54,-46) scale(1,1)"><g><path fill="none" stroke="none"/><text fill="#000000" stroke="none" font-family="Roboto" font-size="16px" font-style="normal" font-weight="normal" text-decoration="none" x="1054.59765625" y="76">Cổng thanh toán Stripe</text></g></g><g transform="translate(-54,-46) scale(1,1)"><path fill="#C0C0C0" stroke="none" d="M 151 112.5 C 151 107.2532944 155.2532944 103 160.5 103 C 165.7467056 103 170 107.2532944 170 112.5 C 170 117.7467056 165.7467056 122 160.5 122 C 155.2532944 122 151 117.7467056 151 112.5 Z" opacity="0.2"/></g><g transform="translate(-54,-46) scale(1,1)"><path fill="#000000" stroke="none" d="M 144 105.5 C 144 100.2532944 148.2532944 96 153.5 96 C 158.7467056 96 163 100.2532944 163 105.5 C 163 110.7467056 158.7467056 115 153.5 115 C 148.2532944 115 144 110.7467056 144 105.5 Z"/></g><g transform="translate(-54,-46) scale(1,1)"><path fill="#C0C0C0" stroke="none" d="M 481 343 L 607.5390625 343 Q 617.5390625 343 617.5390625 353 L 617.5390625 376 Q 617.5390625 386 607.5390625 386 L 481 386 Q 471 386 471 376 L 471 353 Q 471 343 481 343 Z" opacity="0.2"/></g><g transform="translate(-54,-46) scale(1,1)"><path fill="#ffffff" stroke="none" d="M 474 336 L 600.5390625 336 Q 610.5390625 336 610.5390625 346 L 610.5390625 369 Q 610.5390625 379 600.5390625 379 L 474 379 Q 464 379 464 369 L 464 346 Q 464 336 474 336 Z"/></g><g transform="translate(-54,-46) scale(1,1)"><path fill="none" stroke="#000000" d="M 474 336 L 600.5390625 336 Q 610.5390625 336 610.5390625 346 L 610.5390625 369 Q 610.5390625 379 600.5390625 379 L 474 379 Q 464 379 464 369 L 464 346 Q 464 336 474 336 Z" stroke-miterlimit="10"/></g><g transform="translate(-54,-46) scale(1,1)"><g><path fill="none" stroke="none"/><text fill="#000000" stroke="none" font-family="Roboto" font-size="16px" font-style="normal" font-weight="bold" text-decoration="none" x="469.19921875" y="358.5">Thực hiện cập nhật</text></g></g><g transform="translate(-54,-46) scale(1,1)"><path fill="#C0C0C0" stroke="none" d="M 481 447 L 609.859375 447 Q 619.859375 447 619.859375 457 L 619.859375 480 Q 619.859375 490 609.859375 490 L 481 490 Q 471 490 471 480 L 471 457 Q 471 447 481 447 Z" opacity="0.2"/></g><g transform="translate(-54,-46) scale(1,1)"><path fill="#ffffff" stroke="none" d="M 474 440 L 602.859375 440 Q 612.859375 440 612.859375 450 L 612.859375 473 Q 612.859375 483 602.859375 483 L 474 483 Q 464 483 464 473 L 464 450 Q 464 440 474 440 Z"/></g><g transform="translate(-54,-46) scale(1,1)"><path fill="none" stroke="#000000" d="M 474 440 L 602.859375 440 Q 612.859375 440 612.859375 450 L 612.859375 473 Q 612.859375 483 602.859375 483 L 474 483 Q 464 483 464 473 L 464 450 Q 464 440 474 440 Z" stroke-miterlimit="10"/></g><g transform="translate(-54,-46) scale(1,1)"><g><path fill="none" stroke="none"/><text fill="#000000" stroke="none" font-family="Roboto" font-size="16px" font-style="normal" font-weight="bold" text-decoration="none" x="469.22265625" y="462.5">Kiểm tra đăng nhập</text></g></g><g transform="translate(-54,-46) scale(1,1)"><path fill="none" stroke="#000000" d="M 614 460 L 839 457" stroke-miterlimit="10"/></g><g transform="translate(-54,-46) scale(1,1)"><path fill="none" stroke="#000000" d="M 828.894350285844 461.3446339149321 L 839 457 L 828.7821064558028 452.9263466618459" stroke-miterlimit="10"/></g><g transform="translate(-54,-46) scale(1,1)"><path fill="none" stroke="#000000" d="M 863 457 L 1063 454" stroke-miterlimit="10"/></g><g transform="translate(-54,-46) scale(1,1)"><path fill="none" stroke="#000000" d="M 1052.901603914379 458.36146724141247 L 1063 454 L 1052.775332586424 449.94337871107547" stroke-miterlimit="10"/></g><g transform="translate(-54,-46) scale(1,1)"><g><path fill="none" stroke="none"/><text fill="#000000" stroke="none" font-family="Roboto" font-size="16px" font-style="normal" font-weight="normal" text-decoration="none" x="870.5" y="447.5">thành công</text></g></g><g transform="translate(-54,-46) scale(1,1)"><path fill="none" stroke="#000000" d="M 231 455 L 463 459" stroke-miterlimit="10"/></g><g transform="translate(-54,-46) scale(1,1)"><path fill="none" stroke="#000000" d="M 452.76626820297025 463.03369972933814 L 463 459 L 452.9114024175906 454.6159152813612" stroke-miterlimit="10"/></g><g transform="translate(-54,-46) scale(1,1)"><path fill="#C0C0C0" stroke="none" d="M 847 464.5 L 858.5 455 L 869 464.5 L 858.5 473 L 847 464.5" opacity="0.2"/></g><g transform="translate(-54,-46) scale(1,1)"><path fill="#ffffff" stroke="none" d="M 840 457 L 851 448 L 862 457 L 851 466 L 840 457"/></g><g transform="translate(-54,-46) scale(1,1)"><path fill="none" stroke="#000000" d="M 840 457 L 851 448 L 862 457 L 851 466 L 840 457 L 840 457" stroke-miterlimit="10"/></g><g transform="translate(-54,-46) scale(1,1)"><path fill="#C0C0C0" stroke="none" d="M 1081 439 L 1210.1171875 439 Q 1220.1171875 439 1220.1171875 449 L 1220.1171875 472 Q 1220.1171875 482 1210.1171875 482 L 1081 482 Q 1071 482 1071 472 L 1071 449 Q 1071 439 1081 439 Z" opacity="0.2"/></g><g transform="translate(-54,-46) scale(1,1)"><path fill="#ffffff" stroke="none" d="M 1074 432 L 1203.1171875 432 Q 1213.1171875 432 1213.1171875 442 L 1213.1171875 465 Q 1213.1171875 475 1203.1171875 475 L 1074 475 Q 1064 475 1064 465 L 1064 442 Q 1064 432 1074 432 Z"/></g><g transform="translate(-54,-46) scale(1,1)"><path fill="none" stroke="#000000" d="M 1074 432 L 1203.1171875 432 Q 1213.1171875 432 1213.1171875 442 L 1213.1171875 465 Q 1213.1171875 475 1203.1171875 475 L 1074 475 Q 1064 475 1064 465 L 1064 442 Q 1064 432 1074 432 Z" stroke-miterlimit="10"/></g><g transform="translate(-54,-46) scale(1,1)"><g><path fill="none" stroke="none"/><text fill="#000000" stroke="none" font-family="Roboto" font-size="16px" font-style="normal" font-weight="bold" text-decoration="none" x="1069.28515625" y="454.5">Thực thi thanh toán</text></g></g><g transform="translate(-54,-46) scale(1,1)"><path fill="#C0C0C0" stroke="none" d="M 847 315.5 C 847 308.59644 852.59644 303 859.5 303 C 866.40356 303 872 308.59644 872 315.5 C 872 322.40356 866.40356 328 859.5 328 C 852.59644 328 847 322.40356 847 315.5 Z" opacity="0.2"/></g><g transform="translate(-54,-46) scale(1,1)"><path fill="none" stroke="#000000" d="M 840 308.5 C 840 301.59644 845.59644 296 852.5 296 C 859.40356 296 865 301.59644 865 308.5 C 865 315.40356 859.40356 321 852.5 321 C 845.59644 321 840 315.40356 840 308.5 Z" stroke-miterlimit="10"/></g><g transform="translate(-54,-46) scale(1,1)"><path fill="#000000" stroke="none" d="M 845 308.5 C 845 304.357864 848.357864 301 852.5 301 C 856.642136 301 860 304.357864 860 308.5 C 860 312.642136 856.642136 316 852.5 316 C 848.357864 316 845 312.642136 845 308.5 Z"/></g><g transform="translate(-54,-46) scale(1,1)"><path fill="none" stroke="#000000" d="M 851 447 L 852 322" stroke-miterlimit="10"/></g><g transform="translate(-54,-46) scale(1,1)"><path fill="none" stroke="#000000" d="M 856.1280842605722 332.196024732101 L 852 322 L 847.7093181447457 332.12867460317443" stroke-miterlimit="10"/></g><g transform="translate(-54,-46) scale(1,1)"><g><path fill="none" stroke="none"/><text fill="#000000" stroke="none" font-family="Roboto" font-size="16px" font-style="normal" font-weight="normal" text-decoration="none" x="782.5" y="366.5">[thất bại]</text></g></g><g transform="translate(-54,-46) scale(1,1)"><path fill="none" stroke="#000000" d="M 1138 476 L 1139 535" stroke-miterlimit="10"/></g><g transform="translate(-54,-46) scale(1,1)"><path fill="none" stroke="#000000" d="M 1134.6188627653046 524.9101220755272 L 1139 535 L 1143.0366892537772 524.7674470502988" stroke-miterlimit="10"/></g><g transform="translate(-54,-46) scale(1,1)"><path fill="#C0C0C0" stroke="none" d="M 793 599 L 916.6328125 599 Q 926.6328125 599 926.6328125 609 L 926.6328125 632 Q 926.6328125 642 916.6328125 642 L 793 642 Q 783 642 783 632 L 783 609 Q 783 599 793 599 Z" opacity="0.2"/></g><g transform="translate(-54,-46) scale(1,1)"><path fill="#ffffff" stroke="none" d="M 786 592 L 909.6328125 592 Q 919.6328125 592 919.6328125 602 L 919.6328125 625 Q 919.6328125 635 909.6328125 635 L 786 635 Q 776 635 776 625 L 776 602 Q 776 592 786 592 Z"/></g><g transform="translate(-54,-46) scale(1,1)"><path fill="none" stroke="#000000" d="M 786 592 L 909.6328125 592 Q 919.6328125 592 919.6328125 602 L 919.6328125 625 Q 919.6328125 635 909.6328125 635 L 786 635 Q 776 635 776 625 L 776 602 Q 776 592 786 592 Z" stroke-miterlimit="10"/></g><g transform="translate(-54,-46) scale(1,1)"><g><path fill="none" stroke="none"/><text fill="#000000" stroke="none" font-family="Roboto" font-size="16px" font-style="normal" font-weight="bold" text-decoration="none" x="781.21875" y="614.5">Ghi nhận đơn hàng</text></g></g><g transform="translate(-54,-46) scale(1,1)"><path fill="#C0C0C0" stroke="none" d="M 1135 552.5 L 1146.5 543 L 1157 552.5 L 1146.5 561 L 1135 552.5" opacity="0.2"/></g><g transform="translate(-54,-46) scale(1,1)"><path fill="#ffffff" stroke="none" d="M 1128 545 L 1139 536 L 1150 545 L 1139 554 L 1128 545"/></g><g transform="translate(-54,-46) scale(1,1)"><path fill="none" stroke="#000000" d="M 1128 545 L 1139 536 L 1150 545 L 1139 554 L 1128 545 L 1128 545" stroke-miterlimit="10"/></g><g transform="translate(-54,-46) scale(1,1)"><path fill="none" stroke="#000000" d="M 538 572 L 540 655" stroke-miterlimit="10"/></g><g transform="translate(-54,-46) scale(1,1)"><path fill="none" stroke="#000000" d="M 535.5468911420692 644.9416789920276 L 540 655 L 543.9634835212835 644.7388695371069" stroke-miterlimit="10"/></g><g transform="translate(-54,-46) scale(1,1)"><path fill="none" stroke="#000000" d="M 463 376 L 231 434" stroke-miterlimit="10"/></g><g transform="translate(-54,-46) scale(1,1)"><path fill="none" stroke="#000000" d="M 239.83828477448273 427.4513572211376 L 231 434 L 241.8802008145965 435.61902138159263" stroke-miterlimit="10"/></g><g transform="translate(-54,-46) scale(1,1)"><path fill="#C0C0C0" stroke="none" d="M 481 535 L 609.2265625 535 Q 619.2265625 535 619.2265625 545 L 619.2265625 568 Q 619.2265625 578 609.2265625 578 L 481 578 Q 471 578 471 568 L 471 545 Q 471 535 481 535 Z" opacity="0.2"/></g><g transform="translate(-54,-46) scale(1,1)"><path fill="#ffffff" stroke="none" d="M 474 528 L 602.2265625 528 Q 612.2265625 528 612.2265625 538 L 612.2265625 561 Q 612.2265625 571 602.2265625 571 L 474 571 Q 464 571 464 561 L 464 538 Q 464 528 474 528 Z"/></g><g transform="translate(-54,-46) scale(1,1)"><path fill="none" stroke="#000000" d="M 474 528 L 602.2265625 528 Q 612.2265625 528 612.2265625 538 L 612.2265625 561 Q 612.2265625 571 602.2265625 571 L 474 571 Q 464 571 464 561 L 464 538 Q 464 528 474 528 Z" stroke-miterlimit="10"/></g><g transform="translate(-54,-46) scale(1,1)"><g><path fill="none" stroke="none"/><text fill="#000000" stroke="none" font-family="Roboto" font-size="16px" font-style="normal" font-weight="bold" text-decoration="none" x="469.19140625" y="550.5">Thanh toán thất bại</text></g></g><g transform="translate(-54,-46) scale(1,1)"><path fill="none" stroke="#000000" d="M 1127 545 L 613 548" stroke-miterlimit="10"/></g><g transform="translate(-54,-46) scale(1,1)"><path fill="none" stroke="#000000" d="M 623.1379330118361 543.7312397294386 L 613 548 L 623.1870705144579 552.1501318453106" stroke-miterlimit="10"/></g><g transform="translate(-54,-46) scale(1,1)"><g><path fill="none" stroke="none"/><text fill="#000000" stroke="none" font-family="Roboto" font-size="16px" font-style="normal" font-weight="normal" text-decoration="none" x="1014.5" y="533.5">[thất bại]</text></g></g><g transform="translate(-54,-46) scale(1,1)"><path fill="#C0C0C0" stroke="none" d="M 535 675.5 C 535 668.59644 540.59644 663 547.5 663 C 554.40356 663 560 668.59644 560 675.5 C 560 682.40356 554.40356 688 547.5 688 C 540.59644 688 535 682.40356 535 675.5 Z" opacity="0.2"/></g><g transform="translate(-54,-46) scale(1,1)"><path fill="none" stroke="#000000" d="M 528 668.5 C 528 661.59644 533.59644 656 540.5 656 C 547.40356 656 553 661.59644 553 668.5 C 553 675.40356 547.40356 681 540.5 681 C 533.59644 681 528 675.40356 528 668.5 Z" stroke-miterlimit="10"/></g><g transform="translate(-54,-46) scale(1,1)"><path fill="#000000" stroke="none" d="M 533 668.5 C 533 664.357864 536.357864 661 540.5 661 C 544.642136 661 548 664.357864 548 668.5 C 548 672.642136 544.642136 676 540.5 676 C 536.357864 676 533 672.642136 533 668.5 Z"/></g><g transform="translate(-54,-46) scale(1,1)"><path fill="none" stroke="#000000" d="M 848 636 L 850 671" stroke-miterlimit="10"/></g><g transform="translate(-54,-46) scale(1,1)"><path fill="none" stroke="#000000" d="M 845.2175596687065 661.0940288473256 L 850 671 L 853.6228833874167 660.6137246348279" stroke-miterlimit="10"/></g><g transform="translate(-54,-46) scale(1,1)"><path fill="#C0C0C0" stroke="none" d="M 753 735 L 804.5703125 735 Q 814.5703125 735 814.5703125 745 L 814.5703125 768 Q 814.5703125 778 804.5703125 778 L 753 778 Q 743 778 743 768 L 743 745 Q 743 735 753 735 Z" opacity="0.2"/></g><g transform="translate(-54,-46) scale(1,1)"><path fill="#ffffff" stroke="none" d="M 746 728 L 797.5703125 728 Q 807.5703125 728 807.5703125 738 L 807.5703125 761 Q 807.5703125 771 797.5703125 771 L 746 771 Q 736 771 736 761 L 736 738 Q 736 728 746 728 Z"/></g><g transform="translate(-54,-46) scale(1,1)"><path fill="none" stroke="#000000" d="M 746 728 L 797.5703125 728 Q 807.5703125 728 807.5703125 738 L 807.5703125 761 Q 807.5703125 771 797.5703125 771 L 746 771 Q 736 771 736 761 L 736 738 Q 736 728 746 728 Z" stroke-miterlimit="10"/></g><g transform="translate(-54,-46) scale(1,1)"><g><path fill="none" stroke="none"/><text fill="#000000" stroke="none" font-family="Roboto" font-size="16px" font-style="normal" font-weight="bold" text-decoration="none" x="740.98828125" y="750.5">Gửi SMS</text></g></g><g transform="translate(-54,-46) scale(1,1)"><path fill="none" stroke="#000000" d="M 846 678 L 794 727" stroke-miterlimit="10"/></g><g transform="translate(-54,-46) scale(1,1)"><path fill="none" stroke="#000000" d="M 798.5093905820196 716.9667853317696 L 794 727 L 804.2831747885708 723.0940665305587" stroke-miterlimit="10"/></g><g transform="translate(-54,-46) scale(1,1)"><path fill="none" stroke="#000000" d="M 855 678 L 906 719" stroke-miterlimit="10"/></g><g transform="translate(-54,-46) scale(1,1)"><path fill="none" stroke="#000000" d="M 895.4419560201726 715.9133015501948 L 906 719 L 900.7169609111335 709.3517101004629" stroke-miterlimit="10"/></g><g transform="translate(-54,-46) scale(1,1)"><path fill="#C0C0C0" stroke="none" d="M 826 679 L 889 679 Q 892 679 892 682 L 892 681 Q 892 684 889 684 L 826 684 Q 823 684 823 681 L 823 682 Q 823 679 826 679 Z" opacity="0.2"/></g><g transform="translate(-54,-46) scale(1,1)"><path fill="#000000" stroke="none" d="M 819 672 L 882 672 Q 885 672 885 675 L 885 675 Q 885 678 882 678 L 819 678 Q 816 678 816 675 L 816 675 Q 816 672 819 672 Z"/></g><g transform="translate(-54,-46) scale(1,1)"><path fill="#C0C0C0" stroke="none" d="M 913 727 L 970.796875 727 Q 980.796875 727 980.796875 737 L 980.796875 760 Q 980.796875 770 970.796875 770 L 913 770 Q 903 770 903 760 L 903 737 Q 903 727 913 727 Z" opacity="0.2"/></g><g transform="translate(-54,-46) scale(1,1)"><path fill="#ffffff" stroke="none" d="M 906 720 L 963.796875 720 Q 973.796875 720 973.796875 730 L 973.796875 753 Q 973.796875 763 963.796875 763 L 906 763 Q 896 763 896 753 L 896 730 Q 896 720 906 720 Z"/></g><g transform="translate(-54,-46) scale(1,1)"><path fill="none" stroke="#000000" d="M 906 720 L 963.796875 720 Q 973.796875 720 973.796875 730 L 973.796875 753 Q 973.796875 763 963.796875 763 L 906 763 Q 896 763 896 753 L 896 730 Q 896 720 906 720 Z" stroke-miterlimit="10"/></g><g transform="translate(-54,-46) scale(1,1)"><g><path fill="none" stroke="none"/><text fill="#000000" stroke="none" font-family="Roboto" font-size="16px" font-style="normal" font-weight="bold" text-decoration="none" x="900.78515625" y="742.5">Gửi Email</text></g></g><g transform="translate(-54,-46) scale(1,1)"><path fill="#C0C0C0" stroke="none" d="M 847 915.5 C 847 908.59644 852.59644 903 859.5 903 C 866.40356 903 872 908.59644 872 915.5 C 872 922.40356 866.40356 928 859.5 928 C 852.59644 928 847 922.40356 847 915.5 Z" opacity="0.2"/></g><g transform="translate(-54,-46) scale(1,1)"><path fill="none" stroke="#000000" d="M 840 908.5 C 840 901.59644 845.59644 896 852.5 896 C 859.40356 896 865 901.59644 865 908.5 C 865 915.40356 859.40356 921 852.5 921 C 845.59644 921 840 915.40356 840 908.5 Z" stroke-miterlimit="10"/></g><g transform="translate(-54,-46) scale(1,1)"><path fill="#000000" stroke="none" d="M 845 908.5 C 845 904.357864 848.357864 901 852.5 901 C 856.642136 901 860 904.357864 860 908.5 C 860 912.642136 856.642136 916 852.5 916 C 848.357864 916 845 912.642136 845 908.5 Z"/></g><g transform="translate(-54,-46) scale(1,1)"><path fill="#C0C0C0" stroke="none" d="M 826 847 L 889 847 Q 892 847 892 850 L 892 849 Q 892 852 889 852 L 826 852 Q 823 852 823 849 L 823 850 Q 823 847 826 847 Z" opacity="0.2"/></g><g transform="translate(-54,-46) scale(1,1)"><path fill="#000000" stroke="none" d="M 819 840 L 882 840 Q 885 840 885 843 L 885 843 Q 885 846 882 846 L 819 846 Q 816 846 816 843 L 816 843 Q 816 840 819 840 Z"/></g><g transform="translate(-54,-46) scale(1,1)"><path fill="none" stroke="#000000" d="M 791 772 L 847 839" stroke-miterlimit="10"/></g><g transform="translate(-54,-46) scale(1,1)"><path fill="none" stroke="#000000" d="M 837.2526873946915 833.9019712658328 L 847 839 L 843.7124598470547 828.5027584698278" stroke-miterlimit="10"/></g><g transform="translate(-54,-46) scale(1,1)"><path fill="none" stroke="#000000" d="M 915 764 L 852 839" stroke-miterlimit="10"/></g><g transform="translate(-54,-46) scale(1,1)"><path fill="none" stroke="#000000" d="M 855.313303821117 828.5108619139144 L 852 839 L 861.7598002695163 833.9259189305699" stroke-miterlimit="10"/></g><g transform="translate(-54,-46) scale(1,1)"><path fill="none" stroke="#000000" d="M 850 846 L 852 895" stroke-miterlimit="10"/></g><g transform="translate(-54,-46) scale(1,1)"><path fill="none" stroke="#000000" d="M 847.3795263779318 885.0174540568164 L 852 895 L 855.7915576994734 884.6741058396105" stroke-miterlimit="10"/></g><g transform="translate(-54,-46) scale(1,1)"><path fill="none" stroke="#000000" d="M 921 612 L 1136 608 L 1139 555" stroke-miterlimit="10"/></g><g transform="translate(-54,-46) scale(1,1)"><path fill="none" stroke="#000000" d="M 1142.628463882041 565.3843271258529 L 1139 555 L 1134.2228832875317 564.9085395450317" stroke-miterlimit="10"/></g><g transform="translate(-54,-46) scale(1,1)"><g><path fill="none" stroke="none"/><text fill="#000000" stroke="none" font-family="Roboto" font-size="16px" font-style="normal" font-weight="normal" text-decoration="none" x="1037.5" y="629.5">[thành công]</text></g></g></g></svg>