<svg version="1.1" xmlns="http://www.w3.org/2000/svg" xmlns:xlink="http://www.w3.org/1999/xlink" width="740" height="319"><defs/><g><g transform="translate(-54,-54) scale(1,1)"><rect fill="#ffffff" stroke="none" x="64" y="64" width="240" height="24"/></g><g transform="translate(-54,-54) scale(1,1)"><path fill="none" stroke="#000000" d="M 64 64 L 304 64 L 304 88 L 64 88 L 64 64 Z Z" stroke-miterlimit="10" stroke-width="2"/></g><g transform="translate(-54,-54) scale(1,1)"><path fill="none" stroke="#000000" d="M 64 363 L 64 64 L 304 64 L 304 363" stroke-miterlimit="10" stroke-width="2"/></g><g transform="translate(-54,-54) scale(1,1)"><g><path fill="none" stroke="none"/><text fill="#000000" stroke="none" font-family="Roboto" font-size="16px" font-style="normal" font-weight="normal" text-decoration="none" x="141.9921875" y="84">Khách hàng</text></g></g><g transform="translate(-54,-54) scale(1,1)"><rect fill="#ffffff" stroke="none" x="304" y="64" width="240" height="24"/></g><g transform="translate(-54,-54) scale(1,1)"><path fill="none" stroke="#000000" d="M 304 64 L 544 64 L 544 88 L 304 88 L 304 64 Z Z" stroke-miterlimit="10" stroke-width="2"/></g><g transform="translate(-54,-54) scale(1,1)"><path fill="none" stroke="#000000" d="M 304 363 L 304 64 L 544 64 L 544 363" stroke-miterlimit="10" stroke-width="2"/></g><g transform="translate(-54,-54) scale(1,1)"><g><path fill="none" stroke="none"/><text fill="#000000" stroke="none" font-family="Roboto" font-size="16px" font-style="normal" font-weight="normal" text-decoration="none" x="371.1015625" y="84">Trang giỏ hàng</text></g></g><g transform="translate(-54,-54) scale(1,1)"><rect fill="#ffffff" stroke="none" x="544" y="64" width="240" height="24"/></g><g transform="translate(-54,-54) scale(1,1)"><path fill="none" stroke="#000000" d="M 544 64 L 784 64 L 784 88 L 544 88 L 544 64 Z Z" stroke-miterlimit="10" stroke-width="2"/></g><g transform="translate(-54,-54) scale(1,1)"><path fill="none" stroke="#000000" d="M 544 363 L 544 64 L 784 64 L 784 363" stroke-miterlimit="10" stroke-width="2"/></g><g transform="translate(-54,-54) scale(1,1)"><g><path fill="none" stroke="none"/><text fill="#000000" stroke="none" font-family="Roboto" font-size="16px" font-style="normal" font-weight="normal" text-decoration="none" x="629.18359375" y="84">Controller</text></g></g></g></svg>