<svg version="1.1" xmlns="http://www.w3.org/2000/svg" xmlns:xlink="http://www.w3.org/1999/xlink" width="1119" height="831"><defs/><g><g transform="translate(5,5) scale(1,1)"><path fill="none" stroke="#000000" d="M 5 5 L 1104 5 L 1104 816 L 5 816 L 5 5" stroke-miterlimit="10"/></g><g transform="translate(5,5) scale(1,1)"><path fill="#ffffff" stroke="none" d="M 5 5 L 5 30 L 171.5546875 30 L 184.0546875 17.5 L 184.0546875 5 L 5 5"/></g><g transform="translate(5,5) scale(1,1)"><path fill="none" stroke="#000000" d="M 5 5 L 5 30 L 171.5546875 30 L 184.0546875 17.5 L 184.0546875 5 L 5 5 L 5 5" stroke-miterlimit="10"/></g><g transform="translate(5,5) scale(1,1)"><g><path fill="none" stroke="none"/><text fill="#000000" stroke="none" font-family="Roboto" font-size="16px" font-style="normal" font-weight="normal" text-decoration="none" x="91.65625" y="25.5">DangNhap</text></g></g><g transform="translate(5,5) scale(1,1)"><g><path fill="none" stroke="none"/><text fill="#000000" stroke="none" font-family="Roboto" font-size="16px" font-style="normal" font-weight="bold" text-decoration="none" x="10" y="25.5">interaction</text></g></g><g transform="translate(5,5) scale(1,1)"><path fill="#ffffff" stroke="none" d="M 265.5670028409091 47.3 C 265.5670028409091 43.82060576 268.4454045630909 41 271.99609375 41 C 275.5467829369091 41 278.425184659091 43.82060576 278.425184659091 47.3 C 278.425184659091 50.779394239999995 275.5467829369091 53.6 271.99609375 53.6 C 268.4454045630909 53.6 265.5670028409091 50.779394239999995 265.5670028409091 47.3 Z"/></g><g transform="translate(5,5) scale(1,1)"><path fill="none" stroke="#000000" d="M 265.5670028409091 47.3 C 265.5670028409091 43.82060576 268.4454045630909 41 271.99609375 41 C 275.5467829369091 41 278.425184659091 43.82060576 278.425184659091 47.3 C 278.425184659091 50.779394239999995 275.5467829369091 53.6 271.99609375 53.6 C 268.4454045630909 53.6 265.5670028409091 50.779394239999995 265.5670028409091 47.3 Z" stroke-miterlimit="10"/></g><g transform="translate(5,5) scale(1,1)"><path fill="none" stroke="#000000" d="M 271.99609375 53.6 L 271.99609375 66.4" stroke-miterlimit="10"/></g><g transform="translate(5,5) scale(1,1)"><path fill="none" stroke="#000000" d="M 265.18882102272727 58.4 L 278.8033664772728 58.4" stroke-miterlimit="10"/></g><g transform="translate(5,5) scale(1,1)"><path fill="none" stroke="#000000" d="M 271.99609375 66.4 L 262.54154829545456 79" stroke-miterlimit="10"/></g><g transform="translate(5,5) scale(1,1)"><path fill="none" stroke="#000000" d="M 271.99609375 66.4 L 281.4506392045455 79" stroke-miterlimit="10"/></g><g transform="translate(5,5) scale(1,1)"><g><path fill="none" stroke="none"/><text fill="#000000" stroke="none" font-family="Roboto" font-size="16px" font-style="normal" font-weight="bold" text-decoration="none" x="228.4140625" y="102.5">: NguoiDung</text></g></g><g transform="translate(5,5) scale(1,1)"><path fill="none" stroke="#000000" d="M 272.5 108 L 272.5 784" stroke-miterlimit="10" stroke-dasharray="3"/></g><g transform="translate(5,5) scale(1,1)"><rect fill="#C0C0C0" stroke="none" x="487" y="47" width="98.953125" height="39" opacity="0.2"/></g><g transform="translate(5,5) scale(1,1)"><rect fill="#ffffff" stroke="none" x="480" y="40" width="98.953125" height="39"/></g><g transform="translate(5,5) scale(1,1)"><path fill="none" stroke="#000000" d="M 480 40 L 578.953125 40 L 578.953125 79 L 480 79 L 480 40 Z Z" stroke-miterlimit="10"/></g><g transform="translate(5,5) scale(1,1)"><g><path fill="none" stroke="none"/><text fill="#000000" stroke="none" font-family="Roboto" font-size="16px" font-style="normal" font-weight="bold" text-decoration="none" x="490.7421875" y="62.5">: Controller</text></g></g><g transform="translate(5,5) scale(1,1)"><path fill="none" stroke="#000000" d="M 530.5 80 L 530.5 784" stroke-miterlimit="10" stroke-dasharray="3"/></g><g transform="translate(5,5) scale(1,1)"><rect fill="#C0C0C0" stroke="none" x="743" y="47" width="81.375" height="39" opacity="0.2"/></g><g transform="translate(5,5) scale(1,1)"><rect fill="#ffffff" stroke="none" x="736" y="40" width="81.375" height="39"/></g><g transform="translate(5,5) scale(1,1)"><path fill="none" stroke="#000000" d="M 736 40 L 817.375 40 L 817.375 79 L 736 79 L 736 40 Z Z" stroke-miterlimit="10"/></g><g transform="translate(5,5) scale(1,1)"><g><path fill="none" stroke="none"/><text fill="#000000" stroke="none" font-family="Roboto" font-size="16px" font-style="normal" font-weight="bold" text-decoration="none" x="747.59765625" y="62.5">: DichVu</text></g></g><g transform="translate(5,5) scale(1,1)"><path fill="none" stroke="#000000" d="M 777.5 80 L 777.5 784" stroke-miterlimit="10" stroke-dasharray="3"/></g><g transform="translate(5,5) scale(1,1)"><rect fill="#C0C0C0" stroke="none" x="951" y="47" width="115.7578125" height="39" opacity="0.2"/></g><g transform="translate(5,5) scale(1,1)"><rect fill="#ffffff" stroke="none" x="944" y="40" width="115.7578125" height="39"/></g><g transform="translate(5,5) scale(1,1)"><path fill="none" stroke="#000000" d="M 944 40 L 1059.7578125 40 L 1059.7578125 79 L 944 79 L 944 40 Z Z" stroke-miterlimit="10"/></g><g transform="translate(5,5) scale(1,1)"><g><path fill="none" stroke="none"/><text fill="#000000" stroke="none" font-family="Roboto" font-size="16px" font-style="normal" font-weight="bold" text-decoration="none" x="954.33203125" y="62.5">: CoSoDuLieu</text></g></g><g transform="translate(5,5) scale(1,1)"><path fill="none" stroke="#000000" d="M 1002.5 80 L 1002.5 776" stroke-miterlimit="10" stroke-dasharray="3"/></g><g transform="translate(5,5) scale(1,1)"><path fill="none" stroke="#000000" d="M 272 144 L 523 144" stroke-miterlimit="10"/></g><g transform="translate(5,5) scale(1,1)"><path fill="#000000" stroke="none" d="M 512.8373251423759 148.209517756016 L 523 144 L 512.8373251423758 139.790482243984"/></g><g transform="translate(5,5) scale(1,1)"><path fill="none" stroke="#000000" d="M 512.8373251423759 148.209517756016 L 523 144 L 512.8373251423758 139.790482243984 L 512.8373251423759 148.209517756016" stroke-miterlimit="10"/></g><g transform="translate(5,5) scale(1,1)"><g><path fill="none" stroke="none"/><text fill="#000000" stroke="none" font-family="Roboto" font-size="16px" font-style="normal" font-weight="normal" text-decoration="none" x="306.5" y="141.5">1 : gửi yêu cầu đăng nhập</text></g></g><g transform="translate(5,5) scale(1,1)"><rect fill="#ffffff" stroke="none" x="523" y="144" width="13" height="544"/></g><g transform="translate(5,5) scale(1,1)"><path fill="none" stroke="#000000" d="M 523 144 L 536 144 L 536 688 L 523 688 L 523 144 Z Z" stroke-miterlimit="10"/></g><g transform="translate(5,5) scale(1,1)"><path fill="none" stroke="#000000" d="M 536 160 L 770 160" stroke-miterlimit="10"/></g><g transform="translate(5,5) scale(1,1)"><path fill="#000000" stroke="none" d="M 759.8373251423759 164.209517756016 L 770 160 L 759.8373251423758 155.790482243984"/></g><g transform="translate(5,5) scale(1,1)"><path fill="none" stroke="#000000" d="M 759.8373251423759 164.209517756016 L 770 160 L 759.8373251423758 155.790482243984 L 759.8373251423759 164.209517756016" stroke-miterlimit="10"/></g><g transform="translate(5,5) scale(1,1)"><g><path fill="none" stroke="none"/><text fill="#000000" stroke="none" font-family="Roboto" font-size="16px" font-style="normal" font-weight="normal" text-decoration="none" x="574.5" y="157.5">2 : gọi hàm đăng nhập</text></g></g><g transform="translate(5,5) scale(1,1)"><rect fill="#ffffff" stroke="none" x="770" y="160" width="13" height="496"/></g><g transform="translate(5,5) scale(1,1)"><path fill="none" stroke="#000000" d="M 770 160 L 783 160 L 783 656 L 770 656 L 770 160 Z Z" stroke-miterlimit="10"/></g><g transform="translate(5,5) scale(1,1)"><path fill="none" stroke="#000000" d="M 783 176 L 995 176" stroke-miterlimit="10"/></g><g transform="translate(5,5) scale(1,1)"><path fill="#000000" stroke="none" d="M 984.8373251423759 180.209517756016 L 995 176 L 984.8373251423758 171.790482243984"/></g><g transform="translate(5,5) scale(1,1)"><path fill="none" stroke="#000000" d="M 984.8373251423759 180.209517756016 L 995 176 L 984.8373251423758 171.790482243984 L 984.8373251423759 180.209517756016" stroke-miterlimit="10"/></g><g transform="translate(5,5) scale(1,1)"><g><path fill="none" stroke="none"/><text fill="#000000" stroke="none" font-family="Roboto" font-size="16px" font-style="normal" font-weight="normal" text-decoration="none" x="824.5" y="173.5">3 : tìm người dùng</text></g></g><g transform="translate(5,5) scale(1,1)"><rect fill="#ffffff" stroke="none" x="995" y="176" width="13" height="320"/></g><g transform="translate(5,5) scale(1,1)"><path fill="none" stroke="#000000" d="M 995 176 L 1008 176 L 1008 496 L 995 496 L 995 176 Z Z" stroke-miterlimit="10"/></g><g transform="translate(5,5) scale(1,1)"><path fill="none" stroke="#000000" d="M 995 272 L 783 272" stroke-miterlimit="10" stroke-dasharray="3"/></g><g transform="translate(5,5) scale(1,1)"><path fill="none" stroke="#000000" d="M 793.1626748576241 267.790482243984 L 783 272 L 793.1626748576241 276.209517756016" stroke-miterlimit="10"/></g><g transform="translate(5,5) scale(1,1)"><g><path fill="none" stroke="none"/><text fill="#000000" stroke="none" font-family="Roboto" font-size="16px" font-style="normal" font-weight="normal" text-decoration="none" x="811.5" y="294.5">4.1.1 : không tìm thấy</text></g></g><g transform="translate(5,5) scale(1,1)"><path fill="none" stroke="#000000" d="M 770 336 L 536 336" stroke-miterlimit="10" stroke-dasharray="3"/></g><g transform="translate(5,5) scale(1,1)"><path fill="none" stroke="#000000" d="M 546.1626748576241 331.790482243984 L 536 336 L 546.1626748576241 340.209517756016" stroke-miterlimit="10"/></g><g transform="translate(5,5) scale(1,1)"><g><path fill="none" stroke="none"/><text fill="#000000" stroke="none" font-family="Roboto" font-size="16px" font-style="normal" font-weight="normal" text-decoration="none" x="575.5" y="358.5">4.1.2 : không tìm thấy</text></g></g><g transform="translate(5,5) scale(1,1)"><path fill="none" stroke="#000000" d="M 523 400 L 272 400" stroke-miterlimit="10" stroke-dasharray="3"/></g><g transform="translate(5,5) scale(1,1)"><path fill="none" stroke="#000000" d="M 282.16267485762415 395.790482243984 L 272 400 L 282.16267485762415 404.209517756016" stroke-miterlimit="10"/></g><g transform="translate(5,5) scale(1,1)"><g><path fill="none" stroke="none"/><text fill="#000000" stroke="none" font-family="Roboto" font-size="16px" font-style="normal" font-weight="normal" text-decoration="none" x="319.5" y="422.5">4.1.3 : không tìm thấy</text></g></g><g transform="translate(5,5) scale(1,1)"><path fill="none" stroke="#000000" d="M 995 472 L 783 472" stroke-miterlimit="10" stroke-dasharray="3"/></g><g transform="translate(5,5) scale(1,1)"><path fill="none" stroke="#000000" d="M 793.1626748576241 467.790482243984 L 783 472 L 793.1626748576241 476.209517756016" stroke-miterlimit="10"/></g><g transform="translate(5,5) scale(1,1)"><g><path fill="none" stroke="none"/><text fill="#000000" stroke="none" font-family="Roboto" font-size="16px" font-style="normal" font-weight="normal" text-decoration="none" x="793.5" y="494.5">4.2.1 : tìm thấy người dùng</text></g></g><g transform="translate(5,5) scale(1,1)"><path fill="none" stroke="#000000" d="M 770 528 L 536 528" stroke-miterlimit="10" stroke-dasharray="3"/></g><g transform="translate(5,5) scale(1,1)"><path fill="none" stroke="#000000" d="M 546.1626748576241 523.790482243984 L 536 528 L 546.1626748576241 532.209517756016" stroke-miterlimit="10"/></g><g transform="translate(5,5) scale(1,1)"><g><path fill="none" stroke="none"/><text fill="#000000" stroke="none" font-family="Roboto" font-size="16px" font-style="normal" font-weight="normal" text-decoration="none" x="540.5" y="550.5">5.1.1 : người dùng không hợp lệ</text></g></g><g transform="translate(5,5) scale(1,1)"><path fill="none" stroke="#000000" d="M 523 560 L 272 560" stroke-miterlimit="10" stroke-dasharray="3"/></g><g transform="translate(5,5) scale(1,1)"><path fill="none" stroke="#000000" d="M 282.16267485762415 555.790482243984 L 272 560 L 282.16267485762415 564.209517756016" stroke-miterlimit="10"/></g><g transform="translate(5,5) scale(1,1)"><g><path fill="none" stroke="none"/><text fill="#000000" stroke="none" font-family="Roboto" font-size="16px" font-style="normal" font-weight="normal" text-decoration="none" x="305.5" y="582.5">5.1.2 : đăng nhập thất bại</text></g></g><g transform="translate(5,5) scale(1,1)"><path fill="none" stroke="#000000" d="M 770 632 L 536 632" stroke-miterlimit="10" stroke-dasharray="3"/></g><g transform="translate(5,5) scale(1,1)"><path fill="none" stroke="#000000" d="M 546.1626748576241 627.790482243984 L 536 632 L 546.1626748576241 636.209517756016" stroke-miterlimit="10"/></g><g transform="translate(5,5) scale(1,1)"><g><path fill="none" stroke="none"/><text fill="#000000" stroke="none" font-family="Roboto" font-size="16px" font-style="normal" font-weight="normal" text-decoration="none" x="564.5" y="654.5">5.2.1 : người dùng hợp lệ</text></g></g><g transform="translate(5,5) scale(1,1)"><path fill="none" stroke="#000000" d="M 523 664 L 272 664" stroke-miterlimit="10" stroke-dasharray="3"/></g><g transform="translate(5,5) scale(1,1)"><path fill="none" stroke="#000000" d="M 282.16267485762415 659.790482243984 L 272 664 L 282.16267485762415 668.209517756016" stroke-miterlimit="10"/></g><g transform="translate(5,5) scale(1,1)"><g><path fill="none" stroke="none"/><text fill="#000000" stroke="none" font-family="Roboto" font-size="16px" font-style="normal" font-weight="normal" text-decoration="none" x="292.5" y="686.5">5.2.2 : đăng nhập thành công</text></g></g><g transform="translate(5,5) scale(1,1)"><path fill="none" stroke="#000000" d="M 24 248 L 1056 248 L 1056 744 L 24 744 L 24 248" stroke-miterlimit="10"/></g><g transform="translate(5,5) scale(1,1)"><path fill="#ffffff" stroke="none" d="M 24 248 L 24 273 L 190.8515625 273 L 203.3515625 260.5 L 203.3515625 248 L 24 248"/></g><g transform="translate(5,5) scale(1,1)"><path fill="none" stroke="#000000" d="M 24 248 L 24 273 L 190.8515625 273 L 203.3515625 260.5 L 203.3515625 248 L 24 248 L 24 248" stroke-miterlimit="10"/></g><g transform="translate(5,5) scale(1,1)"><g><path fill="none" stroke="none"/><text fill="#000000" stroke="none" font-family="Roboto" font-size="16px" font-style="normal" font-weight="normal" text-decoration="none" x="52.8125" y="268.5">trạng thái tìm kiếm</text></g></g><g transform="translate(5,5) scale(1,1)"><g><path fill="none" stroke="none"/><text fill="#000000" stroke="none" font-family="Roboto" font-size="16px" font-style="normal" font-weight="bold" text-decoration="none" x="29" y="268.5">alt</text></g></g><g transform="translate(5,5) scale(1,1)"><g><path fill="none" stroke="none"/><text fill="#000000" stroke="none" font-family="Roboto" font-size="16px" font-style="normal" font-weight="normal" text-decoration="none" x="43.5" y="304.5">[không tìm thấy người dùng]</text></g></g><g transform="translate(5,5) scale(1,1)"><path fill="none" stroke="#000000" d="M 24 449 L 1056 449" stroke-miterlimit="10" stroke-dasharray="10,3"/></g><g transform="translate(5,5) scale(1,1)"><g><path fill="none" stroke="none"/><text fill="#000000" stroke="none" font-family="Roboto" font-size="16px" font-style="normal" font-weight="normal" text-decoration="none" x="43.5" y="479.5">[tìm thấy người dùng]</text></g></g><g transform="translate(5,5) scale(1,1)"><path fill="none" stroke="#000000" d="M 96 504 L 808 504 L 808 720 L 96 720 L 96 504" stroke-miterlimit="10"/></g><g transform="translate(5,5) scale(1,1)"><path fill="#ffffff" stroke="none" d="M 96 504 L 96 529 L 244.4453125 529 L 256.9453125 516.5 L 256.9453125 504 L 96 504"/></g><g transform="translate(5,5) scale(1,1)"><path fill="none" stroke="#000000" d="M 96 504 L 96 529 L 244.4453125 529 L 256.9453125 516.5 L 256.9453125 504 L 96 504 L 96 504" stroke-miterlimit="10"/></g><g transform="translate(5,5) scale(1,1)"><g><path fill="none" stroke="none"/><text fill="#000000" stroke="none" font-family="Roboto" font-size="16px" font-style="normal" font-weight="normal" text-decoration="none" x="124.8125" y="524.5">trạng thái hợp lệ</text></g></g><g transform="translate(5,5) scale(1,1)"><g><path fill="none" stroke="none"/><text fill="#000000" stroke="none" font-family="Roboto" font-size="16px" font-style="normal" font-weight="bold" text-decoration="none" x="101" y="524.5">alt</text></g></g><g transform="translate(5,5) scale(1,1)"><g><path fill="none" stroke="none"/><text fill="#000000" stroke="none" font-family="Roboto" font-size="16px" font-style="normal" font-weight="normal" text-decoration="none" x="115.5" y="560.5">[không hợp lệ]</text></g></g><g transform="translate(5,5) scale(1,1)"><path fill="none" stroke="#000000" d="M 96 609 L 808 609" stroke-miterlimit="10" stroke-dasharray="10,3"/></g><g transform="translate(5,5) scale(1,1)"><g><path fill="none" stroke="none"/><text fill="#000000" stroke="none" font-family="Roboto" font-size="16px" font-style="normal" font-weight="normal" text-decoration="none" x="115.5" y="639.5">[hợp lệ]</text></g></g></g></svg>