<svg version="1.1" xmlns="http://www.w3.org/2000/svg" xmlns:xlink="http://www.w3.org/1999/xlink" width="1189.40087890625" height="1300"><defs/><g><g transform="translate(-54,-14) scale(1,1)"><rect fill="#C0C0C0" stroke="none" x="215" y="71" width="936" height="1240" opacity="0.2"/></g><g transform="translate(-54,-14) scale(1,1)"><rect fill="#ffffff" stroke="none" x="208" y="64" width="936" height="1240"/></g><g transform="translate(-54,-14) scale(1,1)"><path fill="none" stroke="#000000" d="M 208 64 L 1144 64 L 1144 1304 L 208 1304 L 208 64 Z Z" stroke-miterlimit="10"/></g><g transform="translate(-54,-14) scale(1,1)"><g><path fill="none" stroke="none"/><text fill="#000000" stroke="none" font-family="Arial" font-size="13px" font-style="normal" font-weight="bold" text-decoration="none" x="557.45751953125" y="83.5">Ứng dụng điểm thưởng cửa hàng tiện lợi</text></g></g><g transform="translate(-54,-14) scale(1,1)"><path fill="#ffffff" stroke="none" d="M 128.40935031960228 121.68 C 128.40935031960228 116.886167936 132.29519264454774 113 137.088623046875 113 C 141.88205344920226 113 145.76789577414772 116.886167936 145.76789577414772 121.68 C 145.76789577414772 126.473832064 141.88205344920226 130.36 137.088623046875 130.36 C 132.29519264454774 130.36 128.40935031960228 126.473832064 128.40935031960228 121.68 Z"/></g><g transform="translate(-54,-14) scale(1,1)"><path fill="none" stroke="#000000" d="M 128.40935031960228 121.68 C 128.40935031960228 116.886167936 132.29519264454774 113 137.088623046875 113 C 141.88205344920226 113 145.76789577414772 116.886167936 145.76789577414772 121.68 C 145.76789577414772 126.473832064 141.88205344920226 130.36 137.088623046875 130.36 C 132.29519264454774 130.36 128.40935031960228 126.473832064 128.40935031960228 121.68 Z" stroke-miterlimit="10"/></g><g transform="translate(-54,-14) scale(1,1)"><path fill="none" stroke="#000000" d="M 137.088623046875 130.36 L 137.088623046875 147.64" stroke-miterlimit="10"/></g><g transform="translate(-54,-14) scale(1,1)"><path fill="none" stroke="#000000" d="M 127.89880486505683 136.84 L 146.27844122869317 136.84" stroke-miterlimit="10"/></g><g transform="translate(-54,-14) scale(1,1)"><path fill="none" stroke="#000000" d="M 137.088623046875 147.64 L 124.32498668323865 165" stroke-miterlimit="10"/></g><g transform="translate(-54,-14) scale(1,1)"><path fill="none" stroke="#000000" d="M 137.088623046875 147.64 L 149.85225941051135 165" stroke-miterlimit="10"/></g><g transform="translate(-54,-14) scale(1,1)"><g><path fill="none" stroke="none"/><text fill="#000000" stroke="none" font-family="Arial" font-size="13px" font-style="normal" font-weight="bold" text-decoration="none" x="118.7216796875" y="185.5">Người</text><text fill="#000000" stroke="none" font-family="Arial" font-size="13px" font-style="normal" font-weight="bold" text-decoration="none" x="122.628662109375" y="198.5">dùng</text><text fill="#000000" stroke="none" font-family="Arial" font-size="13px" font-style="normal" font-weight="bold" text-decoration="none" x="122.25732421875" y="211.5">chưa</text><text fill="#000000" stroke="none" font-family="Arial" font-size="13px" font-style="normal" font-weight="bold" text-decoration="none" x="126.9736328125" y="224.5">xác</text><text fill="#000000" stroke="none" font-family="Arial" font-size="13px" font-style="normal" font-weight="bold" text-decoration="none" x="124.06640625" y="237.5">thực</text></g></g><g transform="translate(-54,-14) scale(1,1)"><path fill="#C0C0C0" stroke="none" d="M 391 259 C 391 243.5360256 433.9806592 231 487 231 C 540.0193408 231 583 243.5360256 583 259 C 583 274.4639744 540.0193408 287 487 287 C 433.9806592 287 391 274.4639744 391 259 Z" opacity="0.2"/></g><g transform="translate(-54,-14) scale(1,1)"><path fill="#ffffff" stroke="none" d="M 384 252 C 384 236.5360256 426.9806592 224 480 224 C 533.0193408 224 576 236.5360256 576 252 C 576 267.4639744 533.0193408 280 480 280 C 426.9806592 280 384 267.4639744 384 252 Z"/></g><g transform="translate(-54,-14) scale(1,1)"><path fill="none" stroke="#000000" d="M 384 252 C 384 236.5360256 426.9806592 224 480 224 C 533.0193408 224 576 236.5360256 576 252 C 576 267.4639744 533.0193408 280 480 280 C 426.9806592 280 384 267.4639744 384 252 Z" stroke-miterlimit="10"/></g><g transform="translate(-54,-14) scale(1,1)"><g><path fill="none" stroke="none"/><text fill="#000000" stroke="none" font-family="Arial" font-size="13px" font-style="normal" font-weight="bold" text-decoration="none" x="423.251953125" y="252.5">Chỉnh sửa thông tin</text><text fill="#000000" stroke="none" font-family="Arial" font-size="13px" font-style="normal" font-weight="bold" text-decoration="none" x="456.869140625" y="265.5">cá nhân</text></g></g><g transform="translate(-54,-14) scale(1,1)"><path fill="#C0C0C0" stroke="none" d="M 255 157 C 255 144.8497344 303.3532416 135 363 135 C 422.6467584 135 471 144.8497344 471 157 C 471 169.1502656 422.6467584 179 363 179 C 303.3532416 179 255 169.1502656 255 157 Z" opacity="0.2"/></g><g transform="translate(-54,-14) scale(1,1)"><path fill="#ffffff" stroke="none" d="M 248 150 C 248 137.8497344 296.3532416 128 356 128 C 415.6467584 128 464 137.8497344 464 150 C 464 162.1502656 415.6467584 172 356 172 C 296.3532416 172 248 162.1502656 248 150 Z"/></g><g transform="translate(-54,-14) scale(1,1)"><path fill="none" stroke="#000000" d="M 248 150 C 248 137.8497344 296.3532416 128 356 128 C 415.6467584 128 464 137.8497344 464 150 C 464 162.1502656 415.6467584 172 356 172 C 296.3532416 172 248 162.1502656 248 150 Z" stroke-miterlimit="10"/></g><g transform="translate(-54,-14) scale(1,1)"><g><path fill="none" stroke="none"/><text fill="#000000" stroke="none" font-family="Arial" font-size="13px" font-style="normal" font-weight="bold" text-decoration="none" x="291.041259765625" y="157">Đăng ký mới tài khoản</text></g></g><g transform="translate(-54,-14) scale(1,1)"><path fill="#C0C0C0" stroke="none" d="M 287 203 C 287 191.954304 315.6537728 183 351 183 C 386.3462272 183 415 191.954304 415 203 C 415 214.045696 386.3462272 223 351 223 C 315.6537728 223 287 214.045696 287 203 Z" opacity="0.2"/></g><g transform="translate(-54,-14) scale(1,1)"><path fill="#ffffff" stroke="none" d="M 280 196 C 280 184.954304 308.6537728 176 344 176 C 379.3462272 176 408 184.954304 408 196 C 408 207.045696 379.3462272 216 344 216 C 308.6537728 216 280 207.045696 280 196 Z"/></g><g transform="translate(-54,-14) scale(1,1)"><path fill="none" stroke="#000000" d="M 280 196 C 280 184.954304 308.6537728 176 344 176 C 379.3462272 176 408 184.954304 408 196 C 408 207.045696 379.3462272 216 344 216 C 308.6537728 216 280 207.045696 280 196 Z" stroke-miterlimit="10"/></g><g transform="translate(-54,-14) scale(1,1)"><g><path fill="none" stroke="none"/><text fill="#000000" stroke="none" font-family="Arial" font-size="13px" font-style="normal" font-weight="bold" text-decoration="none" x="312.195068359375" y="203">Đăng nhập</text></g></g><g transform="translate(-54,-14) scale(1,1)"><path fill="#C0C0C0" stroke="none" d="M 343 969 C 343 954.6405952 368.0720512 943 399 943 C 429.9279488 943 455 954.6405952 455 969 C 455 983.3594048 429.9279488 995 399 995 C 368.0720512 995 343 983.3594048 343 969 Z" opacity="0.2"/></g><g transform="translate(-54,-14) scale(1,1)"><path fill="#ffffff" stroke="none" d="M 336 962 C 336 947.6405952 361.0720512 936 392 936 C 422.9279488 936 448 947.6405952 448 962 C 448 976.3594048 422.9279488 988 392 988 C 361.0720512 988 336 976.3594048 336 962 Z"/></g><g transform="translate(-54,-14) scale(1,1)"><path fill="none" stroke="#000000" d="M 336 962 C 336 947.6405952 361.0720512 936 392 936 C 422.9279488 936 448 947.6405952 448 962 C 448 976.3594048 422.9279488 988 392 988 C 361.0720512 988 336 976.3594048 336 962 Z" stroke-miterlimit="10"/></g><g transform="translate(-54,-14) scale(1,1)"><g><path fill="none" stroke="none"/><text fill="#000000" stroke="none" font-family="Arial" font-size="13px" font-style="normal" font-weight="bold" text-decoration="none" x="359.128662109375" y="969">Lấy mã QR</text></g></g><g transform="translate(-54,-14) scale(1,1)"><path fill="#C0C0C0" stroke="none" d="M 239 571 C 239 551.1177472 294.5166848 535 363 535 C 431.4833152 535 487 551.1177472 487 571 C 487 590.8822528 431.4833152 607 363 607 C 294.5166848 607 239 590.8822528 239 571 Z" opacity="0.2"/></g><g transform="translate(-54,-14) scale(1,1)"><path fill="#ffffff" stroke="none" d="M 232 564 C 232 544.1177472 287.5166848 528 356 528 C 424.4833152 528 480 544.1177472 480 564 C 480 583.8822528 424.4833152 600 356 600 C 287.5166848 600 232 583.8822528 232 564 Z"/></g><g transform="translate(-54,-14) scale(1,1)"><path fill="none" stroke="#000000" d="M 232 564 C 232 544.1177472 287.5166848 528 356 528 C 424.4833152 528 480 544.1177472 480 564 C 480 583.8822528 424.4833152 600 356 600 C 287.5166848 600 232 583.8822528 232 564 Z" stroke-miterlimit="10"/></g><g transform="translate(-54,-14) scale(1,1)"><g><path fill="none" stroke="none"/><text fill="#000000" stroke="none" font-family="Arial" font-size="13px" font-style="normal" font-weight="bold" text-decoration="none" x="280.459716796875" y="564.5">Lấy danh sách những mặt</text><text fill="#000000" stroke="none" font-family="Arial" font-size="13px" font-style="normal" font-weight="bold" text-decoration="none" x="279.748779296875" y="577.5">hàng khuyến mãi đang nổi</text></g></g><g transform="translate(-54,-14) scale(1,1)"><path fill="#C0C0C0" stroke="none" d="M 367 783 C 367 760.908608 424.3075456 743 495 743 C 565.6924544 743 623 760.908608 623 783 C 623 805.091392 565.6924544 823 495 823 C 424.3075456 823 367 805.091392 367 783 Z" opacity="0.2"/></g><g transform="translate(-54,-14) scale(1,1)"><path fill="#ffffff" stroke="none" d="M 360 776 C 360 753.908608 417.3075456 736 488 736 C 558.6924544 736 616 753.908608 616 776 C 616 798.091392 558.6924544 816 488 816 C 417.3075456 816 360 798.091392 360 776 Z"/></g><g transform="translate(-54,-14) scale(1,1)"><path fill="none" stroke="#000000" d="M 360 776 C 360 753.908608 417.3075456 736 488 736 C 558.6924544 736 616 753.908608 616 776 C 616 798.091392 558.6924544 816 488 816 C 417.3075456 816 360 798.091392 360 776 Z" stroke-miterlimit="10"/></g><g transform="translate(-54,-14) scale(1,1)"><g><path fill="none" stroke="none"/><text fill="#000000" stroke="none" font-family="Arial" font-size="13px" font-style="normal" font-weight="bold" text-decoration="none" x="425.10107421875" y="776.5">Lấy danh sách những</text><text fill="#000000" stroke="none" font-family="Arial" font-size="13px" font-style="normal" font-weight="bold" text-decoration="none" x="408.498779296875" y="789.5">phiếu giảm giá của cá nhân</text></g></g><g transform="translate(-54,-14) scale(1,1)"><path fill="#C0C0C0" stroke="none" d="M 343 440.5 C 343 417.5801808 391.3532416 399 451 399 C 510.6467584 399 559 417.5801808 559 440.5 C 559 463.4198192 510.6467584 482 451 482 C 391.3532416 482 343 463.4198192 343 440.5 Z" opacity="0.2"/></g><g transform="translate(-54,-14) scale(1,1)"><path fill="#ffffff" stroke="none" d="M 336 433.5 C 336 410.5801808 384.3532416 392 444 392 C 503.6467584 392 552 410.5801808 552 433.5 C 552 456.4198192 503.6467584 475 444 475 C 384.3532416 475 336 456.4198192 336 433.5 Z"/></g><g transform="translate(-54,-14) scale(1,1)"><path fill="none" stroke="#000000" d="M 336 433.5 C 336 410.5801808 384.3532416 392 444 392 C 503.6467584 392 552 410.5801808 552 433.5 C 552 456.4198192 503.6467584 475 444 475 C 384.3532416 475 336 456.4198192 336 433.5 Z" stroke-miterlimit="10"/></g><g transform="translate(-54,-14) scale(1,1)"><g><path fill="none" stroke="none"/><text fill="#000000" stroke="none" font-family="Arial" font-size="13px" font-style="normal" font-weight="bold" text-decoration="none" x="389.08642578125" y="434">Xem một mặt hàng</text><text fill="#000000" stroke="none" font-family="Arial" font-size="13px" font-style="normal" font-weight="bold" text-decoration="none" x="391.247802734375" y="447">khuyến mãi cụ thể</text></g></g><g transform="translate(-54,-14) scale(1,1)"><path fill="#C0C0C0" stroke="none" d="M 319 674.5 C 319 654.8938896 367.3532416 639 427 639 C 486.6467584 639 535 654.8938896 535 674.5 C 535 694.1061104 486.6467584 710 427 710 C 367.3532416 710 319 694.1061104 319 674.5 Z" opacity="0.2"/></g><g transform="translate(-54,-14) scale(1,1)"><path fill="#ffffff" stroke="none" d="M 312 667.5 C 312 647.8938896 360.3532416 632 420 632 C 479.6467584 632 528 647.8938896 528 667.5 C 528 687.1061104 479.6467584 703 420 703 C 360.3532416 703 312 687.1061104 312 667.5 Z"/></g><g transform="translate(-54,-14) scale(1,1)"><path fill="none" stroke="#000000" d="M 312 667.5 C 312 647.8938896 360.3532416 632 420 632 C 479.6467584 632 528 647.8938896 528 667.5 C 528 687.1061104 479.6467584 703 420 703 C 360.3532416 703 312 687.1061104 312 667.5 Z" stroke-miterlimit="10"/></g><g transform="translate(-54,-14) scale(1,1)"><g><path fill="none" stroke="none"/><text fill="#000000" stroke="none" font-family="Arial" font-size="13px" font-style="normal" font-weight="bold" text-decoration="none" x="357.834228515625" y="668">Lấy danh sách tin tức</text><text fill="#000000" stroke="none" font-family="Arial" font-size="13px" font-style="normal" font-weight="bold" text-decoration="none" x="360.024169921875" y="681">hoặc mã khuyến mãi</text></g></g><g transform="translate(-54,-14) scale(1,1)"><path fill="#C0C0C0" stroke="none" d="M 727 983 C 727 965.3268864 764.6080768 951 811 951 C 857.3919232 951 895 965.3268864 895 983 C 895 1000.6731136 857.3919232 1015 811 1015 C 764.6080768 1015 727 1000.6731136 727 983 Z" opacity="0.2"/></g><g transform="translate(-54,-14) scale(1,1)"><path fill="#ffffff" stroke="none" d="M 720 976 C 720 958.3268864 757.6080768 944 804 944 C 850.3919232 944 888 958.3268864 888 976 C 888 993.6731136 850.3919232 1008 804 1008 C 757.6080768 1008 720 993.6731136 720 976 Z"/></g><g transform="translate(-54,-14) scale(1,1)"><path fill="none" stroke="#000000" d="M 720 976 C 720 958.3268864 757.6080768 944 804 944 C 850.3919232 944 888 958.3268864 888 976 C 888 993.6731136 850.3919232 1008 804 1008 C 757.6080768 1008 720 993.6731136 720 976 Z" stroke-miterlimit="10"/></g><g transform="translate(-54,-14) scale(1,1)"><g><path fill="none" stroke="none"/><text fill="#000000" stroke="none" font-family="Arial" font-size="13px" font-style="normal" font-weight="bold" text-decoration="none" x="760.28369140625" y="976.5">Xem một phiếu</text><text fill="#000000" stroke="none" font-family="Arial" font-size="13px" font-style="normal" font-weight="bold" text-decoration="none" x="759.918701171875" y="989.5">giảm giá cụ thể</text></g></g><g transform="translate(-54,-14) scale(1,1)"><path fill="#C0C0C0" stroke="none" d="M 231 264 C 231 254.6111584 255.8481936 247 286.5 247 C 317.1518064 247 342 254.6111584 342 264 C 342 273.3888416 317.1518064 281 286.5 281 C 255.8481936 281 231 273.3888416 231 264 Z" opacity="0.2"/></g><g transform="translate(-54,-14) scale(1,1)"><path fill="#ffffff" stroke="none" d="M 224 257 C 224 247.6111584 248.8481936 240 279.5 240 C 310.1518064 240 335 247.6111584 335 257 C 335 266.3888416 310.1518064 274 279.5 274 C 248.8481936 274 224 266.3888416 224 257 Z"/></g><g transform="translate(-54,-14) scale(1,1)"><path fill="none" stroke="#000000" d="M 224 257 C 224 247.6111584 248.8481936 240 279.5 240 C 310.1518064 240 335 247.6111584 335 257 C 335 266.3888416 310.1518064 274 279.5 274 C 248.8481936 274 224 266.3888416 224 257 Z" stroke-miterlimit="10"/></g><g transform="translate(-54,-14) scale(1,1)"><g><path fill="none" stroke="none"/><text fill="#000000" stroke="none" font-family="Arial" font-size="13px" font-style="normal" font-weight="bold" text-decoration="none" x="249.869140625" y="264">Đăng xuất</text></g></g><g transform="translate(-54,-14) scale(1,1)"><path fill="#C0C0C0" stroke="none" d="M 263 363 C 263 347.5360256 297.0263552 335 339 335 C 380.9736448 335 415 347.5360256 415 363 C 415 378.4639744 380.9736448 391 339 391 C 297.0263552 391 263 378.4639744 263 363 Z" opacity="0.2"/></g><g transform="translate(-54,-14) scale(1,1)"><path fill="#ffffff" stroke="none" d="M 256 356 C 256 340.5360256 290.0263552 328 332 328 C 373.9736448 328 408 340.5360256 408 356 C 408 371.4639744 373.9736448 384 332 384 C 290.0263552 384 256 371.4639744 256 356 Z"/></g><g transform="translate(-54,-14) scale(1,1)"><path fill="none" stroke="#000000" d="M 256 356 C 256 340.5360256 290.0263552 328 332 328 C 373.9736448 328 408 340.5360256 408 356 C 408 371.4639744 373.9736448 384 332 384 C 290.0263552 384 256 371.4639744 256 356 Z" stroke-miterlimit="10"/></g><g transform="translate(-54,-14) scale(1,1)"><g><path fill="none" stroke="none"/><text fill="#000000" stroke="none" font-family="Arial" font-size="13px" font-style="normal" font-weight="bold" text-decoration="none" x="291.892333984375" y="356.5">Xem thông tin</text><text fill="#000000" stroke="none" font-family="Arial" font-size="13px" font-style="normal" font-weight="bold" text-decoration="none" x="308.869140625" y="369.5">cá nhân</text></g></g><g transform="translate(-54,-14) scale(1,1)"><path fill="#C0C0C0" stroke="none" d="M 639 603 C 639 583.1177472 689.1441024 567 751 567 C 812.8558976 567 863 583.1177472 863 603 C 863 622.8822528 812.8558976 639 751 639 C 689.1441024 639 639 622.8822528 639 603 Z" opacity="0.2"/></g><g transform="translate(-54,-14) scale(1,1)"><path fill="#ffffff" stroke="none" d="M 632 596 C 632 576.1177472 682.1441024 560 744 560 C 805.8558976 560 856 576.1177472 856 596 C 856 615.8822528 805.8558976 632 744 632 C 682.1441024 632 632 615.8822528 632 596 Z"/></g><g transform="translate(-54,-14) scale(1,1)"><path fill="none" stroke="#000000" d="M 632 596 C 632 576.1177472 682.1441024 560 744 560 C 805.8558976 560 856 576.1177472 856 596 C 856 615.8822528 805.8558976 632 744 632 C 682.1441024 632 632 615.8822528 632 596 Z" stroke-miterlimit="10"/></g><g transform="translate(-54,-14) scale(1,1)"><g><path fill="none" stroke="none"/><text fill="#000000" stroke="none" font-family="Arial" font-size="13px" font-style="normal" font-weight="bold" text-decoration="none" x="678.94921875" y="596.5">Xem danh sách tin tức</text><text fill="#000000" stroke="none" font-family="Arial" font-size="13px" font-style="normal" font-weight="bold" text-decoration="none" x="684.024169921875" y="609.5">hoặc mã khuyến mãi</text></g></g><g transform="translate(-54,-14) scale(1,1)"><path fill="#ffffff" stroke="none" d="M 128.40935031960228 697.6800000000001 C 128.40935031960228 692.8861679360001 132.29519264454774 689 137.088623046875 689 C 141.88205344920226 689 145.76789577414772 692.8861679360001 145.76789577414772 697.6800000000001 C 145.76789577414772 702.473832064 141.88205344920226 706.36 137.088623046875 706.36 C 132.29519264454774 706.36 128.40935031960228 702.473832064 128.40935031960228 697.6800000000001 Z"/></g><g transform="translate(-54,-14) scale(1,1)"><path fill="none" stroke="#000000" d="M 128.40935031960228 697.6800000000001 C 128.40935031960228 692.8861679360001 132.29519264454774 689 137.088623046875 689 C 141.88205344920226 689 145.76789577414772 692.8861679360001 145.76789577414772 697.6800000000001 C 145.76789577414772 702.473832064 141.88205344920226 706.36 137.088623046875 706.36 C 132.29519264454774 706.36 128.40935031960228 702.473832064 128.40935031960228 697.6800000000001 Z" stroke-miterlimit="10"/></g><g transform="translate(-54,-14) scale(1,1)"><path fill="none" stroke="#000000" d="M 137.088623046875 706.36 L 137.088623046875 723.64" stroke-miterlimit="10"/></g><g transform="translate(-54,-14) scale(1,1)"><path fill="none" stroke="#000000" d="M 127.89880486505683 712.84 L 146.27844122869317 712.84" stroke-miterlimit="10"/></g><g transform="translate(-54,-14) scale(1,1)"><path fill="none" stroke="#000000" d="M 137.088623046875 723.64 L 124.32498668323865 741" stroke-miterlimit="10"/></g><g transform="translate(-54,-14) scale(1,1)"><path fill="none" stroke="#000000" d="M 137.088623046875 723.64 L 149.85225941051135 741" stroke-miterlimit="10"/></g><g transform="translate(-54,-14) scale(1,1)"><g><path fill="none" stroke="none"/><text fill="#000000" stroke="none" font-family="Arial" font-size="13px" font-style="normal" font-weight="bold" text-decoration="none" x="118.658203125" y="761.5">Khách</text><text fill="#000000" stroke="none" font-family="Arial" font-size="13px" font-style="normal" font-weight="bold" text-decoration="none" x="122.628662109375" y="774.5">hàng</text></g></g><g transform="translate(-54,-14) scale(1,1)"><path fill="#C0C0C0" stroke="none" d="M 351 875 C 351 855.1177472 392.1897984 839 443 839 C 493.8102016 839 535 855.1177472 535 875 C 535 894.8822528 493.8102016 911 443 911 C 392.1897984 911 351 894.8822528 351 875 Z" opacity="0.2"/></g><g transform="translate(-54,-14) scale(1,1)"><path fill="#ffffff" stroke="none" d="M 344 868 C 344 848.1177472 385.1897984 832 436 832 C 486.8102016 832 528 848.1177472 528 868 C 528 887.8822528 486.8102016 904 436 904 C 385.1897984 904 344 887.8822528 344 868 Z"/></g><g transform="translate(-54,-14) scale(1,1)"><path fill="none" stroke="#000000" d="M 344 868 C 344 848.1177472 385.1897984 832 436 832 C 486.8102016 832 528 848.1177472 528 868 C 528 887.8822528 486.8102016 904 436 904 C 385.1897984 904 344 887.8822528 344 868 Z" stroke-miterlimit="10"/></g><g transform="translate(-54,-14) scale(1,1)"><g><path fill="none" stroke="none"/><text fill="#000000" stroke="none" font-family="Arial" font-size="13px" font-style="normal" font-weight="bold" text-decoration="none" x="390.833251953125" y="868.5">Xem danh sách</text><text fill="#000000" stroke="none" font-family="Arial" font-size="13px" font-style="normal" font-weight="bold" text-decoration="none" x="381.41015625" y="881.5">cửa hàng gần nhất</text></g></g><g transform="translate(-54,-14) scale(1,1)"><path fill="none" stroke="#000000" d="M 163 174 L 247 163" stroke-miterlimit="10"/></g><g transform="translate(-54,-14) scale(1,1)"><path fill="none" stroke="#000000" d="M 163 179 L 279 190" stroke-miterlimit="10"/></g><g transform="translate(-54,-14) scale(1,1)"><path fill="none" stroke="#000000" d="M 163 322 L 247 275" stroke-miterlimit="10"/></g><g transform="translate(-54,-14) scale(1,1)"><path fill="none" stroke="#000000" d="M 163 340 L 255 348" stroke-miterlimit="10"/></g><g transform="translate(-54,-14) scale(1,1)"><path fill="none" stroke="#000000" d="M 163 714 L 308 601" stroke-miterlimit="10"/></g><g transform="translate(-54,-14) scale(1,1)"><path fill="none" stroke="#000000" d="M 163 737 L 359 761" stroke-miterlimit="10"/></g><g transform="translate(-54,-14) scale(1,1)"><path fill="none" stroke="#000000" d="M 311 693 L 163 728" stroke-miterlimit="10"/></g><g transform="translate(-54,-14) scale(1,1)"><path fill="none" stroke="#000000" d="M 362 935 L 163 757" stroke-miterlimit="10"/></g><g transform="translate(-54,-14) scale(1,1)"><path fill="none" stroke="#000000" d="M 353 831 L 163 746" stroke-miterlimit="10"/></g><g transform="translate(-54,-14) scale(1,1)"><path fill="#ffffff" stroke="none" d="M 1190.3198957741477 123.89 C 1190.3198957741477 117.875618528 1195.1412186588022 113 1201.088623046875 113 C 1207.0360274349478 113 1211.8573503196023 117.875618528 1211.8573503196023 123.89 C 1211.8573503196023 129.904381472 1207.0360274349478 134.78 1201.088623046875 134.78 C 1195.1412186588022 134.78 1190.3198957741477 129.904381472 1190.3198957741477 123.89 Z"/></g><g transform="translate(-54,-14) scale(1,1)"><path fill="none" stroke="#000000" d="M 1190.3198957741477 123.89 C 1190.3198957741477 117.875618528 1195.1412186588022 113 1201.088623046875 113 C 1207.0360274349478 113 1211.8573503196023 117.875618528 1211.8573503196023 123.89 C 1211.8573503196023 129.904381472 1207.0360274349478 134.78 1201.088623046875 134.78 C 1195.1412186588022 134.78 1190.3198957741477 129.904381472 1190.3198957741477 123.89 Z" stroke-miterlimit="10"/></g><g transform="translate(-54,-14) scale(1,1)"><path fill="none" stroke="#000000" d="M 1201.088623046875 134.78 L 1201.088623046875 156.22" stroke-miterlimit="10"/></g><g transform="translate(-54,-14) scale(1,1)"><path fill="none" stroke="#000000" d="M 1189.6864412286932 142.82 L 1212.4908048650568 142.82" stroke-miterlimit="10"/></g><g transform="translate(-54,-14) scale(1,1)"><path fill="none" stroke="#000000" d="M 1201.088623046875 156.22 L 1185.2522594105112 178" stroke-miterlimit="10"/></g><g transform="translate(-54,-14) scale(1,1)"><path fill="none" stroke="#000000" d="M 1201.088623046875 156.22 L 1216.9249866832388 178" stroke-miterlimit="10"/></g><g transform="translate(-54,-14) scale(1,1)"><g><path fill="none" stroke="none"/><text fill="#000000" stroke="none" font-family="Arial" font-size="13px" font-style="normal" font-weight="bold" text-decoration="none" x="1185.187744140625" y="198.5">Quản</text><text fill="#000000" stroke="none" font-family="Arial" font-size="13px" font-style="normal" font-weight="bold" text-decoration="none" x="1183.023193359375" y="211.5">trị bán</text><text fill="#000000" stroke="none" font-family="Arial" font-size="13px" font-style="normal" font-weight="bold" text-decoration="none" x="1186.628662109375" y="224.5">hàng</text></g></g><g transform="translate(-54,-14) scale(1,1)"><path fill="#C0C0C0" stroke="none" d="M 591 153 C 591 138.6405952 633.9806592 127 687 127 C 740.0193408 127 783 138.6405952 783 153 C 783 167.3594048 740.0193408 179 687 179 C 633.9806592 179 591 167.3594048 591 153 Z" opacity="0.2"/></g><g transform="translate(-54,-14) scale(1,1)"><path fill="#ffffff" stroke="none" d="M 584 146 C 584 131.6405952 626.9806592 120 680 120 C 733.0193408 120 776 131.6405952 776 146 C 776 160.3594048 733.0193408 172 680 172 C 626.9806592 172 584 160.3594048 584 146 Z"/></g><g transform="translate(-54,-14) scale(1,1)"><path fill="none" stroke="#000000" d="M 584 146 C 584 131.6405952 626.9806592 120 680 120 C 733.0193408 120 776 131.6405952 776 146 C 776 160.3594048 733.0193408 172 680 172 C 626.9806592 172 584 160.3594048 584 146 Z" stroke-miterlimit="10"/></g><g transform="translate(-54,-14) scale(1,1)"><g><path fill="none" stroke="none"/><text fill="#000000" stroke="none" font-family="Arial" font-size="13px" font-style="normal" font-weight="bold" text-decoration="none" x="622.918701171875" y="146.5">Tạo mã khuyến mãi</text><text fill="#000000" stroke="none" font-family="Arial" font-size="13px" font-style="normal" font-weight="bold" text-decoration="none" x="653.2509765625" y="159.5">và tin tức</text></g></g><g transform="translate(-54,-14) scale(1,1)"><path fill="#C0C0C0" stroke="none" d="M 615 255 C 615 237.3268864 659.77152 223 715 223 C 770.22848 223 815 237.3268864 815 255 C 815 272.6731136 770.22848 287 715 287 C 659.77152 287 615 272.6731136 615 255 Z" opacity="0.2"/></g><g transform="translate(-54,-14) scale(1,1)"><path fill="#ffffff" stroke="none" d="M 608 248 C 608 230.3268864 652.77152 216 708 216 C 763.22848 216 808 230.3268864 808 248 C 808 265.6731136 763.22848 280 708 280 C 652.77152 280 608 265.6731136 608 248 Z"/></g><g transform="translate(-54,-14) scale(1,1)"><path fill="none" stroke="#000000" d="M 608 248 C 608 230.3268864 652.77152 216 708 216 C 763.22848 216 808 230.3268864 808 248 C 808 265.6731136 763.22848 280 708 280 C 652.77152 280 608 265.6731136 608 248 Z" stroke-miterlimit="10"/></g><g transform="translate(-54,-14) scale(1,1)"><g><path fill="none" stroke="none"/><text fill="#000000" stroke="none" font-family="Arial" font-size="13px" font-style="normal" font-weight="bold" text-decoration="none" x="652.4326171875" y="248.5">Mở rộng chiến dịch</text><text fill="#000000" stroke="none" font-family="Arial" font-size="13px" font-style="normal" font-weight="bold" text-decoration="none" x="674.760498046875" y="261.5">khuyến mãi</text></g></g><g transform="translate(-54,-14) scale(1,1)"><path fill="#C0C0C0" stroke="none" d="M 863 179 C 863 163.5360256 914.9349632 151 979 151 C 1043.0650368 151 1095 163.5360256 1095 179 C 1095 194.4639744 1043.0650368 207 979 207 C 914.9349632 207 863 194.4639744 863 179 Z" opacity="0.2"/></g><g transform="translate(-54,-14) scale(1,1)"><path fill="#ffffff" stroke="none" d="M 856 172 C 856 156.5360256 907.9349632 144 972 144 C 1036.0650368 144 1088 156.5360256 1088 172 C 1088 187.4639744 1036.0650368 200 972 200 C 907.9349632 200 856 187.4639744 856 172 Z"/></g><g transform="translate(-54,-14) scale(1,1)"><path fill="none" stroke="#000000" d="M 856 172 C 856 156.5360256 907.9349632 144 972 144 C 1036.0650368 144 1088 156.5360256 1088 172 C 1088 187.4639744 1036.0650368 200 972 200 C 907.9349632 200 856 187.4639744 856 172 Z" stroke-miterlimit="10"/></g><g transform="translate(-54,-14) scale(1,1)"><g><path fill="none" stroke="none"/><text fill="#000000" stroke="none" font-family="Arial" font-size="13px" font-style="normal" font-weight="bold" text-decoration="none" x="903.71826171875" y="179">Quản lý mã khuyến mãi</text></g></g><g transform="translate(-54,-14) scale(1,1)"><path fill="#C0C0C0" stroke="none" d="M 727 1187 C 727 1171.5360256 780.725824 1159 847 1159 C 913.274176 1159 967 1171.5360256 967 1187 C 967 1202.4639744 913.274176 1215 847 1215 C 780.725824 1215 727 1202.4639744 727 1187 Z" opacity="0.2"/></g><g transform="translate(-54,-14) scale(1,1)"><path fill="#ffffff" stroke="none" d="M 720 1180 C 720 1164.5360256 773.725824 1152 840 1152 C 906.274176 1152 960 1164.5360256 960 1180 C 960 1195.4639744 906.274176 1208 840 1208 C 773.725824 1208 720 1195.4639744 720 1180 Z"/></g><g transform="translate(-54,-14) scale(1,1)"><path fill="none" stroke="#000000" d="M 720 1180 C 720 1164.5360256 773.725824 1152 840 1152 C 906.274176 1152 960 1164.5360256 960 1180 C 960 1195.4639744 906.274176 1208 840 1208 C 773.725824 1208 720 1195.4639744 720 1180 Z" stroke-miterlimit="10"/></g><g transform="translate(-54,-14) scale(1,1)"><g><path fill="none" stroke="none"/><text fill="#000000" stroke="none" font-family="Arial" font-size="13px" font-style="normal" font-weight="bold" text-decoration="none" x="770.98193359375" y="1187">Thanh toán bằng Momo</text></g></g><g transform="translate(-54,-14) scale(1,1)"><path fill="#C0C0C0" stroke="none" d="M 879 471 C 879 453.3268864 914.1456432 439 957.5 439 C 1000.8543568 439 1036 453.3268864 1036 471 C 1036 488.6731136 1000.8543568 503 957.5 503 C 914.1456432 503 879 488.6731136 879 471 Z" opacity="0.2"/></g><g transform="translate(-54,-14) scale(1,1)"><path fill="#ffffff" stroke="none" d="M 872 464 C 872 446.3268864 907.1456432 432 950.5 432 C 993.8543568 432 1029 446.3268864 1029 464 C 1029 481.6731136 993.8543568 496 950.5 496 C 907.1456432 496 872 481.6731136 872 464 Z"/></g><g transform="translate(-54,-14) scale(1,1)"><path fill="none" stroke="#000000" d="M 872 464 C 872 446.3268864 907.1456432 432 950.5 432 C 993.8543568 432 1029 446.3268864 1029 464 C 1029 481.6731136 993.8543568 496 950.5 496 C 907.1456432 496 872 481.6731136 872 464 Z" stroke-miterlimit="10"/></g><g transform="translate(-54,-14) scale(1,1)"><g><path fill="none" stroke="none"/><text fill="#000000" stroke="none" font-family="Arial" font-size="13px" font-style="normal" font-weight="bold" text-decoration="none" x="908.926025390625" y="471">Gửi thông báo</text></g></g><g transform="translate(-54,-14) scale(1,1)"><path fill="#C0C0C0" stroke="none" d="M 735 355 C 735 335.1177472 777.9806592 319 831 319 C 884.0193408 319 927 335.1177472 927 355 C 927 374.8822528 884.0193408 391 831 391 C 777.9806592 391 735 374.8822528 735 355 Z" opacity="0.2"/></g><g transform="translate(-54,-14) scale(1,1)"><path fill="#ffffff" stroke="none" d="M 728 348 C 728 328.1177472 770.9806592 312 824 312 C 877.0193408 312 920 328.1177472 920 348 C 920 367.8822528 877.0193408 384 824 384 C 770.9806592 384 728 367.8822528 728 348 Z"/></g><g transform="translate(-54,-14) scale(1,1)"><path fill="none" stroke="#000000" d="M 728 348 C 728 328.1177472 770.9806592 312 824 312 C 877.0193408 312 920 328.1177472 920 348 C 920 367.8822528 877.0193408 384 824 384 C 770.9806592 384 728 367.8822528 728 348 Z" stroke-miterlimit="10"/></g><g transform="translate(-54,-14) scale(1,1)"><g><path fill="none" stroke="none"/><text fill="#000000" stroke="none" font-family="Arial" font-size="13px" font-style="normal" font-weight="bold" text-decoration="none" x="777.385986328125" y="348.5">Đóng chiến dịch</text><text fill="#000000" stroke="none" font-family="Arial" font-size="13px" font-style="normal" font-weight="bold" text-decoration="none" x="790.760498046875" y="361.5">khuyến mãi</text></g></g><g transform="translate(-54,-14) scale(1,1)"><path fill="#C0C0C0" stroke="none" d="M 903 287 C 903 264.908608 945.9806592 247 999 247 C 1052.0193408 247 1095 264.908608 1095 287 C 1095 309.091392 1052.0193408 327 999 327 C 945.9806592 327 903 309.091392 903 287 Z" opacity="0.2"/></g><g transform="translate(-54,-14) scale(1,1)"><path fill="#ffffff" stroke="none" d="M 896 280 C 896 257.908608 938.9806592 240 992 240 C 1045.0193408 240 1088 257.908608 1088 280 C 1088 302.091392 1045.0193408 320 992 320 C 938.9806592 320 896 302.091392 896 280 Z"/></g><g transform="translate(-54,-14) scale(1,1)"><path fill="none" stroke="#000000" d="M 896 280 C 896 257.908608 938.9806592 240 992 240 C 1045.0193408 240 1088 257.908608 1088 280 C 1088 302.091392 1045.0193408 320 992 320 C 938.9806592 320 896 302.091392 896 280 Z" stroke-miterlimit="10"/></g><g transform="translate(-54,-14) scale(1,1)"><g><path fill="none" stroke="none"/><text fill="#000000" stroke="none" font-family="Arial" font-size="13px" font-style="normal" font-weight="bold" text-decoration="none" x="936.37548828125" y="280.5">Thêm vị trí cho một</text><text fill="#000000" stroke="none" font-family="Arial" font-size="13px" font-style="normal" font-weight="bold" text-decoration="none" x="940.10791015625" y="293.5">cửa hàng mới mở</text></g></g><g transform="translate(-54,-14) scale(1,1)"><path fill="#C0C0C0" stroke="none" d="M 335 1107 C 335 1091.5360256 375.5182256 1079 425.5 1079 C 475.4817744 1079 516 1091.5360256 516 1107 C 516 1122.4639744 475.4817744 1135 425.5 1135 C 375.5182256 1135 335 1122.4639744 335 1107 Z" opacity="0.2"/></g><g transform="translate(-54,-14) scale(1,1)"><path fill="#ffffff" stroke="none" d="M 328 1100 C 328 1084.5360256 368.5182256 1072 418.5 1072 C 468.4817744 1072 509 1084.5360256 509 1100 C 509 1115.4639744 468.4817744 1128 418.5 1128 C 368.5182256 1128 328 1115.4639744 328 1100 Z"/></g><g transform="translate(-54,-14) scale(1,1)"><path fill="none" stroke="#000000" d="M 328 1100 C 328 1084.5360256 368.5182256 1072 418.5 1072 C 468.4817744 1072 509 1084.5360256 509 1100 C 509 1115.4639744 468.4817744 1128 418.5 1128 C 368.5182256 1128 328 1115.4639744 328 1100 Z" stroke-miterlimit="10"/></g><g transform="translate(-54,-14) scale(1,1)"><g><path fill="none" stroke="none"/><text fill="#000000" stroke="none" font-family="Arial" font-size="13px" font-style="normal" font-weight="bold" text-decoration="none" x="372.23828125" y="1107">Nhận thông báo</text></g></g><g transform="translate(-54,-14) scale(1,1)"><path fill="#C0C0C0" stroke="none" d="M 279 1251 C 279 1235.5360256 327.3532416 1223 387 1223 C 446.6467584 1223 495 1235.5360256 495 1251 C 495 1266.4639744 446.6467584 1279 387 1279 C 327.3532416 1279 279 1266.4639744 279 1251 Z" opacity="0.2"/></g><g transform="translate(-54,-14) scale(1,1)"><path fill="#ffffff" stroke="none" d="M 272 1244 C 272 1228.5360256 320.3532416 1216 380 1216 C 439.6467584 1216 488 1228.5360256 488 1244 C 488 1259.4639744 439.6467584 1272 380 1272 C 320.3532416 1272 272 1259.4639744 272 1244 Z"/></g><g transform="translate(-54,-14) scale(1,1)"><path fill="none" stroke="#000000" d="M 272 1244 C 272 1228.5360256 320.3532416 1216 380 1216 C 439.6467584 1216 488 1228.5360256 488 1244 C 488 1259.4639744 439.6467584 1272 380 1272 C 320.3532416 1272 272 1259.4639744 272 1244 Z" stroke-miterlimit="10"/></g><g transform="translate(-54,-14) scale(1,1)"><g><path fill="none" stroke="none"/><text fill="#000000" stroke="none" font-family="Arial" font-size="13px" font-style="normal" font-weight="bold" text-decoration="none" x="317.548583984375" y="1251">Thanh toán đơn hàng</text></g></g><g transform="translate(-54,-14) scale(1,1)"><path fill="#C0C0C0" stroke="none" d="M 551 1017 C 551 1002.6405952 581.4446336 991 619 991 C 656.5553664 991 687 1002.6405952 687 1017 C 687 1031.3594048 656.5553664 1043 619 1043 C 581.4446336 1043 551 1031.3594048 551 1017 Z" opacity="0.2"/></g><g transform="translate(-54,-14) scale(1,1)"><path fill="#ffffff" stroke="none" d="M 544 1010 C 544 995.6405952 574.4446336 984 612 984 C 649.5553664 984 680 995.6405952 680 1010 C 680 1024.3594048 649.5553664 1036 612 1036 C 574.4446336 1036 544 1024.3594048 544 1010 Z"/></g><g transform="translate(-54,-14) scale(1,1)"><path fill="none" stroke="#000000" d="M 544 1010 C 544 995.6405952 574.4446336 984 612 984 C 649.5553664 984 680 995.6405952 680 1010 C 680 1024.3594048 649.5553664 1036 612 1036 C 574.4446336 1036 544 1024.3594048 544 1010 Z" stroke-miterlimit="10"/></g><g transform="translate(-54,-14) scale(1,1)"><g><path fill="none" stroke="none"/><text fill="#000000" stroke="none" font-family="Arial" font-size="13px" font-style="normal" font-weight="bold" text-decoration="none" x="578.408203125" y="1017">Tạo mã QR</text></g></g><g transform="translate(-54,-14) scale(1,1)"><path fill="#C0C0C0" stroke="none" d="M 527 1131 C 527 1115.5360256 578.7111056 1103 642.5 1103 C 706.2888944 1103 758 1115.5360256 758 1131 C 758 1146.4639744 706.2888944 1159 642.5 1159 C 578.7111056 1159 527 1146.4639744 527 1131 Z" opacity="0.2"/></g><g transform="translate(-54,-14) scale(1,1)"><path fill="#ffffff" stroke="none" d="M 520 1124 C 520 1108.5360256 571.7111056 1096 635.5 1096 C 699.2888944 1096 751 1108.5360256 751 1124 C 751 1139.4639744 699.2888944 1152 635.5 1152 C 571.7111056 1152 520 1139.4639744 520 1124 Z"/></g><g transform="translate(-54,-14) scale(1,1)"><path fill="none" stroke="#000000" d="M 520 1124 C 520 1108.5360256 571.7111056 1096 635.5 1096 C 699.2888944 1096 751 1108.5360256 751 1124 C 751 1139.4639744 699.2888944 1152 635.5 1152 C 571.7111056 1152 520 1139.4639744 520 1124 Z" stroke-miterlimit="10"/></g><g transform="translate(-54,-14) scale(1,1)"><g><path fill="none" stroke="none"/><text fill="#000000" stroke="none" font-family="Arial" font-size="13px" font-style="normal" font-weight="bold" text-decoration="none" x="568.646484375" y="1131">Thanh toán bằng Moca</text></g></g><g transform="translate(-54,-14) scale(1,1)"><path fill="#C0C0C0" stroke="none" d="M 615 1267 C 615 1251.5360256 670.5166848 1239 739 1239 C 807.4833152 1239 863 1251.5360256 863 1267 C 863 1282.4639744 807.4833152 1295 739 1295 C 670.5166848 1295 615 1282.4639744 615 1267 Z" opacity="0.2"/></g><g transform="translate(-54,-14) scale(1,1)"><path fill="#ffffff" stroke="none" d="M 608 1260 C 608 1244.5360256 663.5166848 1232 732 1232 C 800.4833152 1232 856 1244.5360256 856 1260 C 856 1275.4639744 800.4833152 1288 732 1288 C 663.5166848 1288 608 1275.4639744 608 1260 Z"/></g><g transform="translate(-54,-14) scale(1,1)"><path fill="none" stroke="#000000" d="M 608 1260 C 608 1244.5360256 663.5166848 1232 732 1232 C 800.4833152 1232 856 1244.5360256 856 1260 C 856 1275.4639744 800.4833152 1288 732 1288 C 663.5166848 1288 608 1275.4639744 608 1260 Z" stroke-miterlimit="10"/></g><g transform="translate(-54,-14) scale(1,1)"><g><path fill="none" stroke="none"/><text fill="#000000" stroke="none" font-family="Arial" font-size="13px" font-style="normal" font-weight="bold" text-decoration="none" x="660.81103515625" y="1267">Thanh toán bằng VNPay</text></g></g><g transform="translate(-54,-14) scale(1,1)"><path fill="none" stroke="#000000" d="M 1175 185 L 1071 239" stroke-miterlimit="10"/></g><g transform="translate(-54,-14) scale(1,1)"><path fill="#ffffff" stroke="none" d="M 128.40935031960228 281.68 C 128.40935031960228 276.886167936 132.29519264454774 273 137.088623046875 273 C 141.88205344920226 273 145.76789577414772 276.886167936 145.76789577414772 281.68 C 145.76789577414772 286.473832064 141.88205344920226 290.36 137.088623046875 290.36 C 132.29519264454774 290.36 128.40935031960228 286.473832064 128.40935031960228 281.68 Z"/></g><g transform="translate(-54,-14) scale(1,1)"><path fill="none" stroke="#000000" d="M 128.40935031960228 281.68 C 128.40935031960228 276.886167936 132.29519264454774 273 137.088623046875 273 C 141.88205344920226 273 145.76789577414772 276.886167936 145.76789577414772 281.68 C 145.76789577414772 286.473832064 141.88205344920226 290.36 137.088623046875 290.36 C 132.29519264454774 290.36 128.40935031960228 286.473832064 128.40935031960228 281.68 Z" stroke-miterlimit="10"/></g><g transform="translate(-54,-14) scale(1,1)"><path fill="none" stroke="#000000" d="M 137.088623046875 290.36 L 137.088623046875 307.64" stroke-miterlimit="10"/></g><g transform="translate(-54,-14) scale(1,1)"><path fill="none" stroke="#000000" d="M 127.89880486505683 296.84 L 146.27844122869317 296.84" stroke-miterlimit="10"/></g><g transform="translate(-54,-14) scale(1,1)"><path fill="none" stroke="#000000" d="M 137.088623046875 307.64 L 124.32498668323865 325" stroke-miterlimit="10"/></g><g transform="translate(-54,-14) scale(1,1)"><path fill="none" stroke="#000000" d="M 137.088623046875 307.64 L 149.85225941051135 325" stroke-miterlimit="10"/></g><g transform="translate(-54,-14) scale(1,1)"><g><path fill="none" stroke="none"/><text fill="#000000" stroke="none" font-family="Arial" font-size="13px" font-style="normal" font-weight="bold" text-decoration="none" x="118.7216796875" y="345.5">Người</text><text fill="#000000" stroke="none" font-family="Arial" font-size="13px" font-style="normal" font-weight="bold" text-decoration="none" x="122.628662109375" y="358.5">dùng</text><text fill="#000000" stroke="none" font-family="Arial" font-size="13px" font-style="normal" font-weight="bold" text-decoration="none" x="129.858642578125" y="371.5">đã</text><text fill="#000000" stroke="none" font-family="Arial" font-size="13px" font-style="normal" font-weight="bold" text-decoration="none" x="126.9736328125" y="384.5">xác</text><text fill="#000000" stroke="none" font-family="Arial" font-size="13px" font-style="normal" font-weight="bold" text-decoration="none" x="124.06640625" y="397.5">thực</text></g></g><g transform="translate(-54,-14) scale(1,1)"><path fill="none" stroke="#000000" d="M 137 687 L 137 404" stroke-miterlimit="10"/></g><g transform="translate(-54,-14) scale(1,1)"><path fill="#FFFFFF" stroke="none" d="M 145.41903551203197 424.3253497152483 L 137 404 L 128.58096448796803 424.3253497152483"/></g><g transform="translate(-54,-14) scale(1,1)"><path fill="none" stroke="#000000" d="M 145.41903551203197 424.3253497152483 L 137 404 L 128.58096448796803 424.3253497152483 L 145.41903551203197 424.3253497152483" stroke-miterlimit="10"/></g><g transform="translate(-54,-14) scale(1,1)"><path fill="none" stroke="#000000" d="M 1201 111 L 1200 24 L 64 24 L 64 336 L 111 337" stroke-miterlimit="10"/></g><g transform="translate(-54,-14) scale(1,1)"><path fill="#FFFFFF" stroke="none" d="M 90.50016141669855 344.9847741394848 L 111 337 L 90.85833718424523 328.15051306479063"/></g><g transform="translate(-54,-14) scale(1,1)"><path fill="none" stroke="#000000" d="M 90.50016141669855 344.9847741394848 L 111 337 L 90.85833718424523 328.15051306479063 L 90.50016141669855 344.9847741394848" stroke-miterlimit="10"/></g><g transform="translate(-54,-14) scale(1,1)"><path fill="none" stroke="#000000" d="M 1175 201 L 978 431" stroke-miterlimit="10"/></g><g transform="translate(-54,-14) scale(1,1)"><path fill="none" stroke="#000000" d="M 777 155 L 855 162" stroke-miterlimit="10"/></g><g transform="translate(-54,-14) scale(1,1)"><path fill="#FFFFFF" stroke="none" d="M 834.0034783220302 168.56856738007195 L 855 162 L 835.5085386030476 151.79789567730685"/></g><g transform="translate(-54,-14) scale(1,1)"><path fill="none" stroke="#000000" d="M 834.0034783220302 168.56856738007195 L 855 162 L 835.5085386030476 151.79789567730685 L 834.0034783220302 168.56856738007195" stroke-miterlimit="10"/></g><g transform="translate(-54,-14) scale(1,1)"><path fill="none" stroke="#000000" d="M 809 219 L 871 201" stroke-miterlimit="10"/></g><g transform="translate(-54,-14) scale(1,1)"><path fill="#FFFFFF" stroke="none" d="M 853.8279400251896 214.7521037016711 L 871 201 L 849.1333141618372 198.58172572790176"/></g><g transform="translate(-54,-14) scale(1,1)"><path fill="none" stroke="#000000" d="M 853.8279400251896 214.7521037016711 L 871 201 L 849.1333141618372 198.58172572790176 L 853.8279400251896 214.7521037016711" stroke-miterlimit="10"/></g><g transform="translate(-54,-14) scale(1,1)"><path fill="none" stroke="#000000" d="M 855 311 L 948 201" stroke-miterlimit="10"/></g><g transform="translate(-54,-14) scale(1,1)"><path fill="#FFFFFF" stroke="none" d="M 941.3065171655812 221.9570343213285 L 948 201 L 928.4481318158561 211.0858539801973"/></g><g transform="translate(-54,-14) scale(1,1)"><path fill="none" stroke="#000000" d="M 941.3065171655812 221.9570343213285 L 948 201 L 928.4481318158561 211.0858539801973 L 941.3065171655812 221.9570343213285" stroke-miterlimit="10"/></g><g transform="translate(-54,-14) scale(1,1)"><path fill="none" stroke="#000000" d="M 1175 171 L 1089 171" stroke-miterlimit="10"/></g><g transform="translate(-54,-14) scale(1,1)"><path fill="none" stroke="#000000" d="M 439 281 L 373 327" stroke-miterlimit="10" stroke-dasharray="3"/></g><g transform="translate(-54,-14) scale(1,1)"><path fill="none" stroke="#000000" d="M 378.9304684605383 317.7355764432664 L 373 327 L 383.7444111848103 324.6425377433088" stroke-miterlimit="10"/></g><g transform="translate(-54,-14) scale(1,1)"><g><path fill="none" stroke="none"/><text fill="#000000" stroke="none" font-family="Arial" font-size="13px" font-style="normal" font-weight="normal" text-decoration="none" x="396.5" y="334.5">«extend»</text></g></g><g transform="translate(-54,-14) scale(1,1)"><path fill="#ffffff" stroke="none" d="M 456 304 L 709 304 L 719 314 L 719 359 L 456 359 L 456 304"/></g><g transform="translate(-54,-14) scale(1,1)"><path fill="none" stroke="#000000" d="M 456 304 L 709 304 L 719 314 L 719 359 L 456 359 L 456 304 L 456 304" stroke-miterlimit="10"/></g><g transform="translate(-54,-14) scale(1,1)"><path fill="none" stroke="#000000" d="M 709 304 L 709 314 L 719 314 L 709 304" stroke-miterlimit="10"/></g><g transform="translate(-54,-14) scale(1,1)"><g><path fill="none" stroke="none"/><text fill="#000000" stroke="none" font-family="Arial" font-size="13px" font-style="normal" font-weight="normal" text-decoration="none" x="461" y="322">Condition: Actor nhấn nút [Chỉnh sửa]</text></g></g><g transform="translate(-54,-14) scale(1,1)"><g><path fill="none" stroke="none"/><text fill="#000000" stroke="none" font-family="Arial" font-size="13px" font-style="normal" font-weight="normal" text-decoration="none" x="461" y="337">Extension point: Chỉnh sửa thông tin cá</text><text fill="#000000" stroke="none" font-family="Arial" font-size="13px" font-style="normal" font-weight="normal" text-decoration="none" x="461" y="350">nhân</text></g></g><g transform="translate(-54,-14) scale(1,1)"><path fill="none" stroke="#000000" d="M 406 304 L 455 312" stroke-miterlimit="10" stroke-dasharray="3"/></g><g transform="translate(-54,-14) scale(1,1)"><path fill="none" stroke="#000000" d="M 631 621 L 529 643" stroke-miterlimit="10" stroke-dasharray="3"/></g><g transform="translate(-54,-14) scale(1,1)"><path fill="none" stroke="#000000" d="M 538.0467027706042 636.7424310646751 L 529 643 L 539.8217543043838 644.9722154485628" stroke-miterlimit="10"/></g><g transform="translate(-54,-14) scale(1,1)"><g><path fill="none" stroke="none"/><text fill="#000000" stroke="none" font-family="Arial" font-size="13px" font-style="normal" font-weight="normal" text-decoration="none" x="559.5" y="667.5">«extend»</text></g></g><g transform="translate(-54,-14) scale(1,1)"><path fill="none" stroke="#000000" d="M 752 943 L 553 817" stroke-miterlimit="10" stroke-dasharray="3"/></g><g transform="translate(-54,-14) scale(1,1)"><path fill="none" stroke="#000000" d="M 563.8381576628566 818.8799836369136 L 553 817 L 559.3343856007934 825.9930839571563" stroke-miterlimit="10"/></g><g transform="translate(-54,-14) scale(1,1)"><g><path fill="none" stroke="none"/><text fill="#000000" stroke="none" font-family="Arial" font-size="13px" font-style="normal" font-weight="normal" text-decoration="none" x="608.5" y="911.5">«extend»</text></g></g><g transform="translate(-54,-14) scale(1,1)"><path fill="#ffffff" stroke="none" d="M 672 784 L 997 784 L 1007 794 L 1007 838 L 672 838 L 672 784"/></g><g transform="translate(-54,-14) scale(1,1)"><path fill="none" stroke="#000000" d="M 672 784 L 997 784 L 1007 794 L 1007 838 L 672 838 L 672 784 L 672 784" stroke-miterlimit="10"/></g><g transform="translate(-54,-14) scale(1,1)"><path fill="none" stroke="#000000" d="M 997 784 L 997 794 L 1007 794 L 997 784" stroke-miterlimit="10"/></g><g transform="translate(-54,-14) scale(1,1)"><g><path fill="none" stroke="none"/><text fill="#000000" stroke="none" font-family="Arial" font-size="13px" font-style="normal" font-weight="normal" text-decoration="none" x="677" y="802">Condition: Actor nhấn xem một phiếu giảm giá cụ thể</text></g></g><g transform="translate(-54,-14) scale(1,1)"><g><path fill="none" stroke="none"/><text fill="#000000" stroke="none" font-family="Arial" font-size="13px" font-style="normal" font-weight="normal" text-decoration="none" x="677" y="817">Extension point: Phiếu giảm giá cụ thể</text></g></g><g transform="translate(-54,-14) scale(1,1)"><path fill="none" stroke="#000000" d="M 652 880 L 761 840" stroke-miterlimit="10" stroke-dasharray="3"/></g><g transform="translate(-54,-14) scale(1,1)"><path fill="none" stroke="#000000" d="M 449 974 L 543 995" stroke-miterlimit="10" stroke-dasharray="3"/></g><g transform="translate(-54,-14) scale(1,1)"><path fill="none" stroke="#000000" d="M 532.1640176506514 996.8924815784061 L 543 995 L 533.9996168425963 988.6759899573194" stroke-miterlimit="10"/></g><g transform="translate(-54,-14) scale(1,1)"><g><path fill="none" stroke="none"/><text fill="#000000" stroke="none" font-family="Arial" font-size="13px" font-style="normal" font-weight="normal" text-decoration="none" x="474.5" y="960.5">«include»</text></g></g><g transform="translate(-54,-14) scale(1,1)"><path fill="none" stroke="#000000" d="M 719 991 L 681 998" stroke-miterlimit="10" stroke-dasharray="3"/></g><g transform="translate(-54,-14) scale(1,1)"><path fill="none" stroke="#000000" d="M 690.2319085297183 992.0190414732324 L 681 998 L 691.7571214569306 1000.2987687923849" stroke-miterlimit="10"/></g><g transform="translate(-54,-14) scale(1,1)"><g><path fill="none" stroke="none"/><text fill="#000000" stroke="none" font-family="Arial" font-size="13px" font-style="normal" font-weight="normal" text-decoration="none" x="678.5" y="1029.5">«include»</text></g></g><g transform="translate(-54,-14) scale(1,1)"><path fill="none" stroke="#000000" d="M 159 781 L 366 1215" stroke-miterlimit="10"/></g><g transform="translate(-54,-14) scale(1,1)"><path fill="none" stroke="#000000" d="M 573 1153 L 442 1215" stroke-miterlimit="10"/></g><g transform="translate(-54,-14) scale(1,1)"><path fill="#FFFFFF" stroke="none" d="M 456.77006536900774 1198.6952409096227 L 442 1215 L 463.9732190994127 1213.9148076625752"/></g><g transform="translate(-54,-14) scale(1,1)"><path fill="none" stroke="#000000" d="M 456.77006536900774 1198.6952409096227 L 442 1215 L 463.9732190994127 1213.9148076625752 L 456.77006536900774 1198.6952409096227" stroke-miterlimit="10"/></g><g transform="translate(-54,-14) scale(1,1)"><path fill="none" stroke="#000000" d="M 607 1254 L 489 1249" stroke-miterlimit="10"/></g><g transform="translate(-54,-14) scale(1,1)"><path fill="#FFFFFF" stroke="none" d="M 509.66354653052093 1241.4489838577185 L 489 1249 L 508.9507085941514 1258.2719591560387"/></g><g transform="translate(-54,-14) scale(1,1)"><path fill="none" stroke="#000000" d="M 509.66354653052093 1241.4489838577185 L 489 1249 L 508.9507085941514 1258.2719591560387 L 509.66354653052093 1241.4489838577185" stroke-miterlimit="10"/></g><g transform="translate(-54,-14) scale(1,1)"><path fill="none" stroke="#000000" d="M 719 1197 L 489 1229" stroke-miterlimit="10"/></g><g transform="translate(-54,-14) scale(1,1)"><path fill="#FFFFFF" stroke="none" d="M 507.9712696540309 1217.8603892476422 L 489 1229 L 510.2916077228546 1234.537819117313"/></g><g transform="translate(-54,-14) scale(1,1)"><path fill="none" stroke="#000000" d="M 507.9712696540309 1217.8603892476422 L 489 1229 L 510.2916077228546 1234.537819117313 L 507.9712696540309 1217.8603892476422" stroke-miterlimit="10"/></g><g transform="translate(-54,-14) scale(1,1)"><path fill="none" stroke="#000000" d="M 163 768 L 396 1071" stroke-miterlimit="10"/></g><g transform="translate(-54,-14) scale(1,1)"><path fill="#ffffff" stroke="none" d="M 1196.0211667258523 857.6800000000001 C 1196.0211667258523 852.8861679360001 1199.9070090507978 849 1204.700439453125 849 C 1209.4938698554522 849 1213.3797121803977 852.8861679360001 1213.3797121803977 857.6800000000001 C 1213.3797121803977 862.473832064 1209.4938698554522 866.36 1204.700439453125 866.36 C 1199.9070090507978 866.36 1196.0211667258523 862.473832064 1196.0211667258523 857.6800000000001 Z"/></g><g transform="translate(-54,-14) scale(1,1)"><path fill="none" stroke="#000000" d="M 1196.0211667258523 857.6800000000001 C 1196.0211667258523 852.8861679360001 1199.9070090507978 849 1204.700439453125 849 C 1209.4938698554522 849 1213.3797121803977 852.8861679360001 1213.3797121803977 857.6800000000001 C 1213.3797121803977 862.473832064 1209.4938698554522 866.36 1204.700439453125 866.36 C 1199.9070090507978 866.36 1196.0211667258523 862.473832064 1196.0211667258523 857.6800000000001 Z" stroke-miterlimit="10"/></g><g transform="translate(-54,-14) scale(1,1)"><path fill="none" stroke="#000000" d="M 1204.700439453125 866.36 L 1204.700439453125 883.64" stroke-miterlimit="10"/></g><g transform="translate(-54,-14) scale(1,1)"><path fill="none" stroke="#000000" d="M 1195.5106212713067 872.84 L 1213.8902576349433 872.84" stroke-miterlimit="10"/></g><g transform="translate(-54,-14) scale(1,1)"><path fill="none" stroke="#000000" d="M 1204.700439453125 883.64 L 1191.9368030894886 901" stroke-miterlimit="10"/></g><g transform="translate(-54,-14) scale(1,1)"><path fill="none" stroke="#000000" d="M 1204.700439453125 883.64 L 1217.4640758167614 901" stroke-miterlimit="10"/></g><g transform="translate(-54,-14) scale(1,1)"><g><path fill="none" stroke="none"/><text fill="#000000" stroke="none" font-family="Arial" font-size="13px" font-style="normal" font-weight="bold" text-decoration="none" x="1183.029541015625" y="921.5">System</text><text fill="#000000" stroke="none" font-family="Arial" font-size="13px" font-style="normal" font-weight="bold" text-decoration="none" x="1181.937744140625" y="934.5">Handler</text></g></g><g transform="translate(-54,-14) scale(1,1)"><path fill="#C0C0C0" stroke="none" d="M 903 904 C 903 894.6111584 954.0395328 887 1017 887 C 1079.9604672 887 1131 894.6111584 1131 904 C 1131 913.3888416 1079.9604672 921 1017 921 C 954.0395328 921 903 913.3888416 903 904 Z" opacity="0.2"/></g><g transform="translate(-54,-14) scale(1,1)"><path fill="#ffffff" stroke="none" d="M 896 897 C 896 887.6111584 947.0395328 880 1010 880 C 1072.9604672 880 1124 887.6111584 1124 897 C 1124 906.3888416 1072.9604672 914 1010 914 C 947.0395328 914 896 906.3888416 896 897 Z"/></g><g transform="translate(-54,-14) scale(1,1)"><path fill="none" stroke="#000000" d="M 896 897 C 896 887.6111584 947.0395328 880 1010 880 C 1072.9604672 880 1124 887.6111584 1124 897 C 1124 906.3888416 1072.9604672 914 1010 914 C 947.0395328 914 896 906.3888416 896 897 Z" stroke-miterlimit="10"/></g><g transform="translate(-54,-14) scale(1,1)"><g><path fill="none" stroke="none"/><text fill="#000000" stroke="none" font-family="Arial" font-size="13px" font-style="normal" font-weight="bold" text-decoration="none" x="939.226806640625" y="904">Gửi thông báo nhắc nhở</text></g></g><g transform="translate(-54,-14) scale(1,1)"><path fill="#C0C0C0" stroke="none" d="M 919 1000 C 919 990.6111584 969.5918176 983 1032 983 C 1094.4081824 983 1145 990.6111584 1145 1000 C 1145 1009.3888416 1094.4081824 1017 1032 1017 C 969.5918176 1017 919 1009.3888416 919 1000 Z" opacity="0.2"/></g><g transform="translate(-54,-14) scale(1,1)"><path fill="#ffffff" stroke="none" d="M 912 993 C 912 983.6111584 962.5918176 976 1025 976 C 1087.4081824 976 1138 983.6111584 1138 993 C 1138 1002.3888416 1087.4081824 1010 1025 1010 C 962.5918176 1010 912 1002.3888416 912 993 Z"/></g><g transform="translate(-54,-14) scale(1,1)"><path fill="none" stroke="#000000" d="M 912 993 C 912 983.6111584 962.5918176 976 1025 976 C 1087.4081824 976 1138 983.6111584 1138 993 C 1138 1002.3888416 1087.4081824 1010 1025 1010 C 962.5918176 1010 912 1002.3888416 912 993 Z" stroke-miterlimit="10"/></g><g transform="translate(-54,-14) scale(1,1)"><g><path fill="none" stroke="none"/><text fill="#000000" stroke="none" font-family="Arial" font-size="13px" font-style="normal" font-weight="bold" text-decoration="none" x="954.258544921875" y="1000">Gợi ý sản phẩm đặc biệt</text></g></g><g transform="translate(-54,-14) scale(1,1)"><path fill="none" stroke="#000000" d="M 1175 894 L 1125 895" stroke-miterlimit="10"/></g><g transform="translate(-54,-14) scale(1,1)"><path fill="none" stroke="#000000" d="M 1175 910 L 1058 975" stroke-miterlimit="10"/></g><g transform="translate(-54,-14) scale(1,1)"><path fill="#C0C0C0" stroke="none" d="M 927 599 C 927 581.3268864 969.9806592 567 1023 567 C 1076.0193408 567 1119 581.3268864 1119 599 C 1119 616.6731136 1076.0193408 631 1023 631 C 969.9806592 631 927 616.6731136 927 599 Z" opacity="0.2"/></g><g transform="translate(-54,-14) scale(1,1)"><path fill="#ffffff" stroke="none" d="M 920 592 C 920 574.3268864 962.9806592 560 1016 560 C 1069.0193408 560 1112 574.3268864 1112 592 C 1112 609.6731136 1069.0193408 624 1016 624 C 962.9806592 624 920 609.6731136 920 592 Z"/></g><g transform="translate(-54,-14) scale(1,1)"><path fill="none" stroke="#000000" d="M 920 592 C 920 574.3268864 962.9806592 560 1016 560 C 1069.0193408 560 1112 574.3268864 1112 592 C 1112 609.6731136 1069.0193408 624 1016 624 C 962.9806592 624 920 609.6731136 920 592 Z" stroke-miterlimit="10"/></g><g transform="translate(-54,-14) scale(1,1)"><g><path fill="none" stroke="none"/><text fill="#000000" stroke="none" font-family="Arial" font-size="13px" font-style="normal" font-weight="bold" text-decoration="none" x="968.376708984375" y="592.5">Cài đặt thời gian</text><text fill="#000000" stroke="none" font-family="Arial" font-size="13px" font-style="normal" font-weight="bold" text-decoration="none" x="989.254150390625" y="605.5">nhắc nhỏ</text></g></g><g transform="translate(-54,-14) scale(1,1)"><path fill="none" stroke="#000000" d="M 1175 230 L 1031 559" stroke-miterlimit="10"/></g><g transform="translate(-54,-14) scale(1,1)"><path fill="none" stroke="#000000" d="M 415 476 L 381 527" stroke-miterlimit="10" stroke-dasharray="3"/></g><g transform="translate(-54,-14) scale(1,1)"><path fill="none" stroke="#000000" d="M 383.13470724978384 516.2091230681783 L 381 527 L 390.1397682256108 520.8791637187297" stroke-miterlimit="10"/></g><g transform="translate(-54,-14) scale(1,1)"><g><path fill="none" stroke="none"/><text fill="#000000" stroke="none" font-family="Arial" font-size="13px" font-style="normal" font-weight="normal" text-decoration="none" x="396.5" y="523.5">«extend»</text></g></g><g transform="translate(-54,-14) scale(1,1)"><path fill="#ffffff" stroke="none" d="M 480 488 L 745 488 L 755 498 L 755 552 L 480 552 L 480 488"/></g><g transform="translate(-54,-14) scale(1,1)"><path fill="none" stroke="#000000" d="M 480 488 L 745 488 L 755 498 L 755 552 L 480 552 L 480 488 L 480 488" stroke-miterlimit="10"/></g><g transform="translate(-54,-14) scale(1,1)"><path fill="none" stroke="#000000" d="M 745 488 L 745 498 L 755 498 L 745 488" stroke-miterlimit="10"/></g><g transform="translate(-54,-14) scale(1,1)"><g><path fill="none" stroke="none"/><text fill="#000000" stroke="none" font-family="Arial" font-size="13px" font-style="normal" font-weight="normal" text-decoration="none" x="485" y="506">Condition: Actor nhấn vào một liên kết cụ thể</text></g></g><g transform="translate(-54,-14) scale(1,1)"><g><path fill="none" stroke="none"/><text fill="#000000" stroke="none" font-family="Arial" font-size="13px" font-style="normal" font-weight="normal" text-decoration="none" x="485" y="521">Extension point: Mặt hàng khuyến mãi cụ thể</text></g></g><g transform="translate(-54,-14) scale(1,1)"><path fill="none" stroke="#000000" d="M 398 501 L 479 508" stroke-miterlimit="10" stroke-dasharray="3"/></g><g transform="translate(-54,-14) scale(1,1)"><path fill="#ffffff" stroke="none" d="M 616 672 L 949 672 L 959 682 L 959 719 L 616 719 L 616 672"/></g><g transform="translate(-54,-14) scale(1,1)"><path fill="none" stroke="#000000" d="M 616 672 L 949 672 L 959 682 L 959 719 L 616 719 L 616 672 L 616 672" stroke-miterlimit="10"/></g><g transform="translate(-54,-14) scale(1,1)"><path fill="none" stroke="#000000" d="M 949 672 L 949 682 L 959 682 L 949 672" stroke-miterlimit="10"/></g><g transform="translate(-54,-14) scale(1,1)"><g><path fill="none" stroke="none"/><text fill="#000000" stroke="none" font-family="Arial" font-size="13px" font-style="normal" font-weight="normal" text-decoration="none" x="621" y="690">Condition: Actor nhấn vào một liên kết cụ thể</text></g></g><g transform="translate(-54,-14) scale(1,1)"><g><path fill="none" stroke="none"/><text fill="#000000" stroke="none" font-family="Arial" font-size="13px" font-style="normal" font-weight="normal" text-decoration="none" x="621" y="705">Extension point: Danh sách tin tức hoặc mã khuyến mãi</text></g></g><g transform="translate(-54,-14) scale(1,1)"><path fill="none" stroke="#000000" d="M 580 632 L 707 671" stroke-miterlimit="10" stroke-dasharray="3"/></g></g></svg>