<svg version="1.1" xmlns="http://www.w3.org/2000/svg" xmlns:xlink="http://www.w3.org/1999/xlink" width="1391.27001953125" height="933"><defs/><g><g transform="translate(2,-14) scale(1,1)"><rect fill="#C0C0C0" stroke="none" x="183" y="71" width="1056" height="824" opacity="0.2"/></g><g transform="translate(2,-14) scale(1,1)"><rect fill="#ffffff" stroke="none" x="176" y="64" width="1056" height="824"/></g><g transform="translate(2,-14) scale(1,1)"><path fill="none" stroke="#000000" d="M 176 64 L 1232 64 L 1232 888 L 176 888 L 176 64 Z Z" stroke-miterlimit="10"/></g><g transform="translate(2,-14) scale(1,1)"><g><path fill="none" stroke="none"/><text fill="#000000" stroke="none" font-family="Arial" font-size="13px" font-style="normal" font-weight="bold" text-decoration="none" x="629.0595703125" y="83.5">Ứng dụng quản lý học tập</text></g></g><g transform="translate(2,-14) scale(1,1)"><path fill="#ffffff" stroke="none" d="M 75.32072727272727 97.68 C 75.32072727272727 92.886167936 79.20656959767273 89 84 89 C 88.79343040232727 89 92.67927272727273 92.886167936 92.67927272727273 97.68 C 92.67927272727273 102.473832064 88.79343040232727 106.36 84 106.36 C 79.20656959767273 106.36 75.32072727272727 102.473832064 75.32072727272727 97.68 Z"/></g><g transform="translate(2,-14) scale(1,1)"><path fill="none" stroke="#000000" d="M 75.32072727272727 97.68 C 75.32072727272727 92.886167936 79.20656959767273 89 84 89 C 88.79343040232727 89 92.67927272727273 92.886167936 92.67927272727273 97.68 C 92.67927272727273 102.473832064 88.79343040232727 106.36 84 106.36 C 79.20656959767273 106.36 75.32072727272727 102.473832064 75.32072727272727 97.68 Z" stroke-miterlimit="10"/></g><g transform="translate(2,-14) scale(1,1)"><path fill="none" stroke="#000000" d="M 84 106.36 L 84 123.64" stroke-miterlimit="10"/></g><g transform="translate(2,-14) scale(1,1)"><path fill="none" stroke="#000000" d="M 74.81018181818182 112.84 L 93.18981818181818 112.84" stroke-miterlimit="10"/></g><g transform="translate(2,-14) scale(1,1)"><path fill="none" stroke="#000000" d="M 84 123.64 L 71.23636363636363 141" stroke-miterlimit="10"/></g><g transform="translate(2,-14) scale(1,1)"><path fill="none" stroke="#000000" d="M 84 123.64 L 96.76363636363637 141" stroke-miterlimit="10"/></g><g transform="translate(2,-14) scale(1,1)"><g><path fill="none" stroke="none"/><text fill="#000000" stroke="none" font-family="Arial" font-size="13px" font-style="normal" font-weight="bold" text-decoration="none" x="49.3671875" y="161.5">Người dùng</text><text fill="#000000" stroke="none" font-family="Arial" font-size="13px" font-style="normal" font-weight="bold" text-decoration="none" x="42.419677734375" y="174.5">chưa xác thực</text></g></g><g transform="translate(2,-14) scale(1,1)"><path fill="#ffffff" stroke="none" d="M 88.71525852272727 545.6800000000001 C 88.71525852272727 540.8861679360001 92.60110084767273 537 97.39453125 537 C 102.18796165232727 537 106.07380397727273 540.8861679360001 106.07380397727273 545.6800000000001 C 106.07380397727273 550.473832064 102.18796165232727 554.36 97.39453125 554.36 C 92.60110084767273 554.36 88.71525852272727 550.473832064 88.71525852272727 545.6800000000001 Z"/></g><g transform="translate(2,-14) scale(1,1)"><path fill="none" stroke="#000000" d="M 88.71525852272727 545.6800000000001 C 88.71525852272727 540.8861679360001 92.60110084767273 537 97.39453125 537 C 102.18796165232727 537 106.07380397727273 540.8861679360001 106.07380397727273 545.6800000000001 C 106.07380397727273 550.473832064 102.18796165232727 554.36 97.39453125 554.36 C 92.60110084767273 554.36 88.71525852272727 550.473832064 88.71525852272727 545.6800000000001 Z" stroke-miterlimit="10"/></g><g transform="translate(2,-14) scale(1,1)"><path fill="none" stroke="#000000" d="M 97.39453125 554.36 L 97.39453125 571.64" stroke-miterlimit="10"/></g><g transform="translate(2,-14) scale(1,1)"><path fill="none" stroke="#000000" d="M 88.20471306818182 560.84 L 106.58434943181818 560.84" stroke-miterlimit="10"/></g><g transform="translate(2,-14) scale(1,1)"><path fill="none" stroke="#000000" d="M 97.39453125 571.64 L 84.63089488636363 589" stroke-miterlimit="10"/></g><g transform="translate(2,-14) scale(1,1)"><path fill="none" stroke="#000000" d="M 97.39453125 571.64 L 110.15816761363637 589" stroke-miterlimit="10"/></g><g transform="translate(2,-14) scale(1,1)"><g><path fill="none" stroke="none"/><text fill="#000000" stroke="none" font-family="Arial" font-size="13px" font-style="normal" font-weight="bold" text-decoration="none" x="70.655029296875" y="609.5">Sinh viên</text></g></g><g transform="translate(2,-14) scale(1,1)"><path fill="#ffffff" stroke="none" d="M 93.39982883522727 737.6800000000001 C 93.39982883522727 732.8861679360001 97.28567116017273 729 102.0791015625 729 C 106.87253196482727 729 110.75837428977273 732.8861679360001 110.75837428977273 737.6800000000001 C 110.75837428977273 742.473832064 106.87253196482727 746.36 102.0791015625 746.36 C 97.28567116017273 746.36 93.39982883522727 742.473832064 93.39982883522727 737.6800000000001 Z"/></g><g transform="translate(2,-14) scale(1,1)"><path fill="none" stroke="#000000" d="M 93.39982883522727 737.6800000000001 C 93.39982883522727 732.8861679360001 97.28567116017273 729 102.0791015625 729 C 106.87253196482727 729 110.75837428977273 732.8861679360001 110.75837428977273 737.6800000000001 C 110.75837428977273 742.473832064 106.87253196482727 746.36 102.0791015625 746.36 C 97.28567116017273 746.36 93.39982883522727 742.473832064 93.39982883522727 737.6800000000001 Z" stroke-miterlimit="10"/></g><g transform="translate(2,-14) scale(1,1)"><path fill="none" stroke="#000000" d="M 102.0791015625 746.36 L 102.0791015625 763.64" stroke-miterlimit="10"/></g><g transform="translate(2,-14) scale(1,1)"><path fill="none" stroke="#000000" d="M 92.88928338068182 752.84 L 111.26891974431818 752.84" stroke-miterlimit="10"/></g><g transform="translate(2,-14) scale(1,1)"><path fill="none" stroke="#000000" d="M 102.0791015625 763.64 L 89.31546519886363 781" stroke-miterlimit="10"/></g><g transform="translate(2,-14) scale(1,1)"><path fill="none" stroke="#000000" d="M 102.0791015625 763.64 L 114.84273792613637 781" stroke-miterlimit="10"/></g><g transform="translate(2,-14) scale(1,1)"><g><path fill="none" stroke="none"/><text fill="#000000" stroke="none" font-family="Arial" font-size="13px" font-style="normal" font-weight="bold" text-decoration="none" x="70.997802734375" y="801.5">Phụ huynh</text></g></g><g transform="translate(2,-14) scale(1,1)"><path fill="#ffffff" stroke="none" d="M 1309.0507077414773 97.68 C 1309.0507077414773 92.886167936 1312.9365500664228 89 1317.72998046875 89 C 1322.5234108710772 89 1326.4092531960227 92.886167936 1326.4092531960227 97.68 C 1326.4092531960227 102.473832064 1322.5234108710772 106.36 1317.72998046875 106.36 C 1312.9365500664228 106.36 1309.0507077414773 102.473832064 1309.0507077414773 97.68 Z"/></g><g transform="translate(2,-14) scale(1,1)"><path fill="none" stroke="#000000" d="M 1309.0507077414773 97.68 C 1309.0507077414773 92.886167936 1312.9365500664228 89 1317.72998046875 89 C 1322.5234108710772 89 1326.4092531960227 92.886167936 1326.4092531960227 97.68 C 1326.4092531960227 102.473832064 1322.5234108710772 106.36 1317.72998046875 106.36 C 1312.9365500664228 106.36 1309.0507077414773 102.473832064 1309.0507077414773 97.68 Z" stroke-miterlimit="10"/></g><g transform="translate(2,-14) scale(1,1)"><path fill="none" stroke="#000000" d="M 1317.72998046875 106.36 L 1317.72998046875 123.64" stroke-miterlimit="10"/></g><g transform="translate(2,-14) scale(1,1)"><path fill="none" stroke="#000000" d="M 1308.5401622869317 112.84 L 1326.9197986505683 112.84" stroke-miterlimit="10"/></g><g transform="translate(2,-14) scale(1,1)"><path fill="none" stroke="#000000" d="M 1317.72998046875 123.64 L 1304.9663441051136 141" stroke-miterlimit="10"/></g><g transform="translate(2,-14) scale(1,1)"><path fill="none" stroke="#000000" d="M 1317.72998046875 123.64 L 1330.4936168323864 141" stroke-miterlimit="10"/></g><g transform="translate(2,-14) scale(1,1)"><g><path fill="none" stroke="none"/><text fill="#000000" stroke="none" font-family="Arial" font-size="13px" font-style="normal" font-weight="bold" text-decoration="none" x="1286.655029296875" y="161.5">Giảng viên</text></g></g><g transform="translate(2,-14) scale(1,1)"><path fill="#ffffff" stroke="none" d="M 1320.9557370383523 473.68 C 1320.9557370383523 468.886167936 1324.8415793632978 465 1329.635009765625 465 C 1334.4284401679522 465 1338.3142824928977 468.886167936 1338.3142824928977 473.68 C 1338.3142824928977 478.473832064 1334.4284401679522 482.36 1329.635009765625 482.36 C 1324.8415793632978 482.36 1320.9557370383523 478.473832064 1320.9557370383523 473.68 Z"/></g><g transform="translate(2,-14) scale(1,1)"><path fill="none" stroke="#000000" d="M 1320.9557370383523 473.68 C 1320.9557370383523 468.886167936 1324.8415793632978 465 1329.635009765625 465 C 1334.4284401679522 465 1338.3142824928977 468.886167936 1338.3142824928977 473.68 C 1338.3142824928977 478.473832064 1334.4284401679522 482.36 1329.635009765625 482.36 C 1324.8415793632978 482.36 1320.9557370383523 478.473832064 1320.9557370383523 473.68 Z" stroke-miterlimit="10"/></g><g transform="translate(2,-14) scale(1,1)"><path fill="none" stroke="#000000" d="M 1329.635009765625 482.36 L 1329.635009765625 499.64" stroke-miterlimit="10"/></g><g transform="translate(2,-14) scale(1,1)"><path fill="none" stroke="#000000" d="M 1320.4451915838067 488.84 L 1338.8248279474433 488.84" stroke-miterlimit="10"/></g><g transform="translate(2,-14) scale(1,1)"><path fill="none" stroke="#000000" d="M 1329.635009765625 499.64 L 1316.8713734019886 517" stroke-miterlimit="10"/></g><g transform="translate(2,-14) scale(1,1)"><path fill="none" stroke="#000000" d="M 1329.635009765625 499.64 L 1342.3986461292614 517" stroke-miterlimit="10"/></g><g transform="translate(2,-14) scale(1,1)"><g><path fill="none" stroke="none"/><text fill="#000000" stroke="none" font-family="Arial" font-size="13px" font-style="normal" font-weight="bold" text-decoration="none" x="1287.346923828125" y="537.5">Phòng đạo tạo</text></g></g><g transform="translate(2,-14) scale(1,1)"><path fill="#C0C0C0" stroke="none" d="M 391 592 C 391 582.6111584 414.9527632 575 444.5 575 C 474.0472368 575 498 582.6111584 498 592 C 498 601.3888416 474.0472368 609 444.5 609 C 414.9527632 609 391 601.3888416 391 592 Z" opacity="0.2"/></g><g transform="translate(2,-14) scale(1,1)"><path fill="#ffffff" stroke="none" d="M 384 585 C 384 575.6111584 407.9527632 568 437.5 568 C 467.0472368 568 491 575.6111584 491 585 C 491 594.3888416 467.0472368 602 437.5 602 C 407.9527632 602 384 594.3888416 384 585 Z"/></g><g transform="translate(2,-14) scale(1,1)"><path fill="none" stroke="#000000" d="M 384 585 C 384 575.6111584 407.9527632 568 437.5 568 C 467.0472368 568 491 575.6111584 491 585 C 491 594.3888416 467.0472368 602 437.5 602 C 407.9527632 602 384 594.3888416 384 585 Z" stroke-miterlimit="10"/></g><g transform="translate(2,-14) scale(1,1)"><g><path fill="none" stroke="none"/><text fill="#000000" stroke="none" font-family="Arial" font-size="13px" font-style="normal" font-weight="bold" text-decoration="none" x="407.135986328125" y="592">Lấy tin tức</text></g></g><g transform="translate(2,-14) scale(1,1)"><path fill="#C0C0C0" stroke="none" d="M 263 128 C 263 118.6111584 287.1766208 111 317 111 C 346.8233792 111 371 118.6111584 371 128 C 371 137.3888416 346.8233792 145 317 145 C 287.1766208 145 263 137.3888416 263 128 Z" opacity="0.2"/></g><g transform="translate(2,-14) scale(1,1)"><path fill="#ffffff" stroke="none" d="M 256 121 C 256 111.6111584 280.1766208 104 310 104 C 339.8233792 104 364 111.6111584 364 121 C 364 130.3888416 339.8233792 138 310 138 C 280.1766208 138 256 130.3888416 256 121 Z"/></g><g transform="translate(2,-14) scale(1,1)"><path fill="none" stroke="#000000" d="M 256 121 C 256 111.6111584 280.1766208 104 310 104 C 339.8233792 104 364 111.6111584 364 121 C 364 130.3888416 339.8233792 138 310 138 C 280.1766208 138 256 130.3888416 256 121 Z" stroke-miterlimit="10"/></g><g transform="translate(2,-14) scale(1,1)"><g><path fill="none" stroke="none"/><text fill="#000000" stroke="none" font-family="Arial" font-size="13px" font-style="normal" font-weight="bold" text-decoration="none" x="278.195068359375" y="128">Đăng nhập</text></g></g><g transform="translate(2,-14) scale(1,1)"><path fill="#C0C0C0" stroke="none" d="M 359 520 C 359 510.6111584 393.9217856 503 437 503 C 480.0782144 503 515 510.6111584 515 520 C 515 529.3888416 480.0782144 537 437 537 C 393.9217856 537 359 529.3888416 359 520 Z" opacity="0.2"/></g><g transform="translate(2,-14) scale(1,1)"><path fill="#ffffff" stroke="none" d="M 352 513 C 352 503.6111584 386.9217856 496 430 496 C 473.0782144 496 508 503.6111584 508 513 C 508 522.3888416 473.0782144 530 430 530 C 386.9217856 530 352 522.3888416 352 513 Z"/></g><g transform="translate(2,-14) scale(1,1)"><path fill="none" stroke="#000000" d="M 352 513 C 352 503.6111584 386.9217856 496 430 496 C 473.0782144 496 508 503.6111584 508 513 C 508 522.3888416 473.0782144 530 430 530 C 386.9217856 530 352 522.3888416 352 513 Z" stroke-miterlimit="10"/></g><g transform="translate(2,-14) scale(1,1)"><g><path fill="none" stroke="none"/><text fill="#000000" stroke="none" font-family="Arial" font-size="13px" font-style="normal" font-weight="bold" text-decoration="none" x="384.474609375" y="520">Xem điểm danh</text></g></g><g transform="translate(2,-14) scale(1,1)"><path fill="#C0C0C0" stroke="none" d="M 575 384 C 575 374.6111584 615.9659408 367 666.5 367 C 717.0340592 367 758 374.6111584 758 384 C 758 393.3888416 717.0340592 401 666.5 401 C 615.9659408 401 575 393.3888416 575 384 Z" opacity="0.2"/></g><g transform="translate(2,-14) scale(1,1)"><path fill="#ffffff" stroke="none" d="M 568 377 C 568 367.6111584 608.9659408 360 659.5 360 C 710.0340592 360 751 367.6111584 751 377 C 751 386.3888416 710.0340592 394 659.5 394 C 608.9659408 394 568 386.3888416 568 377 Z"/></g><g transform="translate(2,-14) scale(1,1)"><path fill="none" stroke="#000000" d="M 568 377 C 568 367.6111584 608.9659408 360 659.5 360 C 710.0340592 360 751 367.6111584 751 377 C 751 386.3888416 710.0340592 394 659.5 394 C 608.9659408 394 568 386.3888416 568 377 Z" stroke-miterlimit="10"/></g><g transform="translate(2,-14) scale(1,1)"><g><path fill="none" stroke="none"/><text fill="#000000" stroke="none" font-family="Arial" font-size="13px" font-style="normal" font-weight="bold" text-decoration="none" x="603.205810546875" y="384">Xem thời khoá biểu</text></g></g><g transform="translate(2,-14) scale(1,1)"><path fill="#C0C0C0" stroke="none" d="M 271 240 C 271 230.6111584 293.8334752 223 322 223 C 350.1665248 223 373 230.6111584 373 240 C 373 249.3888416 350.1665248 257 322 257 C 293.8334752 257 271 249.3888416 271 240 Z" opacity="0.2"/></g><g transform="translate(2,-14) scale(1,1)"><path fill="#ffffff" stroke="none" d="M 264 233 C 264 223.6111584 286.8334752 216 315 216 C 343.1665248 216 366 223.6111584 366 233 C 366 242.3888416 343.1665248 250 315 250 C 286.8334752 250 264 242.3888416 264 233 Z"/></g><g transform="translate(2,-14) scale(1,1)"><path fill="none" stroke="#000000" d="M 264 233 C 264 223.6111584 286.8334752 216 315 216 C 343.1665248 216 366 223.6111584 366 233 C 366 242.3888416 343.1665248 250 315 250 C 286.8334752 250 264 242.3888416 264 233 Z" stroke-miterlimit="10"/></g><g transform="translate(2,-14) scale(1,1)"><g><path fill="none" stroke="none"/><text fill="#000000" stroke="none" font-family="Arial" font-size="13px" font-style="normal" font-weight="bold" text-decoration="none" x="285.369140625" y="240">Đăng xuất</text></g></g><g transform="translate(2,-14) scale(1,1)"><path fill="#C0C0C0" stroke="none" d="M 263 312 C 263 302.6111584 310.010096 295 368 295 C 425.989904 295 473 302.6111584 473 312 C 473 321.3888416 425.989904 329 368 329 C 310.010096 329 263 321.3888416 263 312 Z" opacity="0.2"/></g><g transform="translate(2,-14) scale(1,1)"><path fill="#ffffff" stroke="none" d="M 256 305 C 256 295.6111584 303.010096 288 361 288 C 418.989904 288 466 295.6111584 466 305 C 466 314.3888416 418.989904 322 361 322 C 303.010096 322 256 314.3888416 256 305 Z"/></g><g transform="translate(2,-14) scale(1,1)"><path fill="none" stroke="#000000" d="M 256 305 C 256 295.6111584 303.010096 288 361 288 C 418.989904 288 466 295.6111584 466 305 C 466 314.3888416 418.989904 322 361 322 C 303.010096 322 256 314.3888416 256 305 Z" stroke-miterlimit="10"/></g><g transform="translate(2,-14) scale(1,1)"><g><path fill="none" stroke="none"/><text fill="#000000" stroke="none" font-family="Arial" font-size="13px" font-style="normal" font-weight="bold" text-decoration="none" x="295.95556640625" y="312">Xem thông tin cá nhân</text></g></g><g transform="translate(2,-14) scale(1,1)"><path fill="#C0C0C0" stroke="none" d="M 623 736 C 623 726.6111584 662.6227952 719 711.5 719 C 760.3772048 719 800 726.6111584 800 736 C 800 745.3888416 760.3772048 753 711.5 753 C 662.6227952 753 623 745.3888416 623 736 Z" opacity="0.2"/></g><g transform="translate(2,-14) scale(1,1)"><path fill="#ffffff" stroke="none" d="M 616 729 C 616 719.6111584 655.6227952 712 704.5 712 C 753.3772048 712 793 719.6111584 793 729 C 793 738.3888416 753.3772048 746 704.5 746 C 655.6227952 746 616 738.3888416 616 729 Z"/></g><g transform="translate(2,-14) scale(1,1)"><path fill="none" stroke="#000000" d="M 616 729 C 616 719.6111584 655.6227952 712 704.5 712 C 753.3772048 712 793 719.6111584 793 729 C 793 738.3888416 753.3772048 746 704.5 746 C 655.6227952 746 616 738.3888416 616 729 Z" stroke-miterlimit="10"/></g><g transform="translate(2,-14) scale(1,1)"><g><path fill="none" stroke="none"/><text fill="#000000" stroke="none" font-family="Arial" font-size="13px" font-style="normal" font-weight="bold" text-decoration="none" x="650.370361328125" y="736">Tạo thời khoá biểu</text></g></g><g transform="translate(2,-14) scale(1,1)"><path fill="#C0C0C0" stroke="none" d="M 271 408 C 271 398.6111584 317.3385232 391 374.5 391 C 431.6614768 391 478 398.6111584 478 408 C 478 417.3888416 431.6614768 425 374.5 425 C 317.3385232 425 271 417.3888416 271 408 Z" opacity="0.2"/></g><g transform="translate(2,-14) scale(1,1)"><path fill="#ffffff" stroke="none" d="M 264 401 C 264 391.6111584 310.3385232 384 367.5 384 C 424.6614768 384 471 391.6111584 471 401 C 471 410.3888416 424.6614768 418 367.5 418 C 310.3385232 418 264 410.3888416 264 401 Z"/></g><g transform="translate(2,-14) scale(1,1)"><path fill="none" stroke="#000000" d="M 264 401 C 264 391.6111584 310.3385232 384 367.5 384 C 424.6614768 384 471 391.6111584 471 401 C 471 410.3888416 424.6614768 418 367.5 418 C 310.3385232 418 264 410.3888416 264 401 Z" stroke-miterlimit="10"/></g><g transform="translate(2,-14) scale(1,1)"><g><path fill="none" stroke="none"/><text fill="#000000" stroke="none" font-family="Arial" font-size="13px" font-style="normal" font-weight="bold" text-decoration="none" x="303.518798828125" y="408">Sửa thông tin cá nhân</text></g></g><g transform="translate(2,-14) scale(1,1)"><path fill="#C0C0C0" stroke="none" d="M 983 352 C 983 342.6111584 1023.9659408 335 1074.5 335 C 1125.0340592 335 1166 342.6111584 1166 352 C 1166 361.3888416 1125.0340592 369 1074.5 369 C 1023.9659408 369 983 361.3888416 983 352 Z" opacity="0.2"/></g><g transform="translate(2,-14) scale(1,1)"><path fill="#ffffff" stroke="none" d="M 976 345 C 976 335.6111584 1016.9659408 328 1067.5 328 C 1118.0340592 328 1159 335.6111584 1159 345 C 1159 354.3888416 1118.0340592 362 1067.5 362 C 1016.9659408 362 976 354.3888416 976 345 Z"/></g><g transform="translate(2,-14) scale(1,1)"><path fill="none" stroke="#000000" d="M 976 345 C 976 335.6111584 1016.9659408 328 1067.5 328 C 1118.0340592 328 1159 335.6111584 1159 345 C 1159 354.3888416 1118.0340592 362 1067.5 362 C 1016.9659408 362 976 354.3888416 976 345 Z" stroke-miterlimit="10"/></g><g transform="translate(2,-14) scale(1,1)"><g><path fill="none" stroke="none"/><text fill="#000000" stroke="none" font-family="Arial" font-size="13px" font-style="normal" font-weight="bold" text-decoration="none" x="1011.13916015625" y="352">Kiểm tra điểm danh</text></g></g><g transform="translate(2,-14) scale(1,1)"><path fill="#C0C0C0" stroke="none" d="M 855 160 C 855 150.6111584 880.5197664 143 912 143 C 943.4802336 143 969 150.6111584 969 160 C 969 169.3888416 943.4802336 177 912 177 C 880.5197664 177 855 169.3888416 855 160 Z" opacity="0.2"/></g><g transform="translate(2,-14) scale(1,1)"><path fill="#ffffff" stroke="none" d="M 848 153 C 848 143.6111584 873.5197664 136 905 136 C 936.4802336 136 962 143.6111584 962 153 C 962 162.3888416 936.4802336 170 905 170 C 873.5197664 170 848 162.3888416 848 153 Z"/></g><g transform="translate(2,-14) scale(1,1)"><path fill="none" stroke="#000000" d="M 848 153 C 848 143.6111584 873.5197664 136 905 136 C 936.4802336 136 962 143.6111584 962 153 C 962 162.3888416 936.4802336 170 905 170 C 873.5197664 170 848 162.3888416 848 153 Z" stroke-miterlimit="10"/></g><g transform="translate(2,-14) scale(1,1)"><g><path fill="none" stroke="none"/><text fill="#000000" stroke="none" font-family="Arial" font-size="13px" font-style="normal" font-weight="bold" text-decoration="none" x="871.405029296875" y="160">Tải sổ điểm</text></g></g><g transform="translate(2,-14) scale(1,1)"><path fill="#C0C0C0" stroke="none" d="M 1023 464 C 1023 454.6111584 1049.862912 447 1083 447 C 1116.137088 447 1143 454.6111584 1143 464 C 1143 473.3888416 1116.137088 481 1083 481 C 1049.862912 481 1023 473.3888416 1023 464 Z" opacity="0.2"/></g><g transform="translate(2,-14) scale(1,1)"><path fill="#ffffff" stroke="none" d="M 1016 457 C 1016 447.6111584 1042.862912 440 1076 440 C 1109.137088 440 1136 447.6111584 1136 457 C 1136 466.3888416 1109.137088 474 1076 474 C 1042.862912 474 1016 466.3888416 1016 457 Z"/></g><g transform="translate(2,-14) scale(1,1)"><path fill="none" stroke="#000000" d="M 1016 457 C 1016 447.6111584 1042.862912 440 1076 440 C 1109.137088 440 1136 447.6111584 1136 457 C 1136 466.3888416 1109.137088 474 1076 474 C 1042.862912 474 1016 466.3888416 1016 457 Z" stroke-miterlimit="10"/></g><g transform="translate(2,-14) scale(1,1)"><g><path fill="none" stroke="none"/><text fill="#000000" stroke="none" font-family="Arial" font-size="13px" font-style="normal" font-weight="bold" text-decoration="none" x="1040.234130859375" y="464">Tạo sổ điểm</text></g></g><g transform="translate(2,-14) scale(1,1)"><path fill="#C0C0C0" stroke="none" d="M 815 568 C 815 558.6111584 862.4578112 551 921 551 C 979.5421888 551 1027 558.6111584 1027 568 C 1027 577.3888416 979.5421888 585 921 585 C 862.4578112 585 815 577.3888416 815 568 Z" opacity="0.2"/></g><g transform="translate(2,-14) scale(1,1)"><path fill="#ffffff" stroke="none" d="M 808 561 C 808 551.6111584 855.4578112 544 914 544 C 972.5421888 544 1020 551.6111584 1020 561 C 1020 570.3888416 972.5421888 578 914 578 C 855.4578112 578 808 570.3888416 808 561 Z"/></g><g transform="translate(2,-14) scale(1,1)"><path fill="none" stroke="#000000" d="M 808 561 C 808 551.6111584 855.4578112 544 914 544 C 972.5421888 544 1020 551.6111584 1020 561 C 1020 570.3888416 972.5421888 578 914 578 C 855.4578112 578 808 570.3888416 808 561 Z" stroke-miterlimit="10"/></g><g transform="translate(2,-14) scale(1,1)"><g><path fill="none" stroke="none"/><text fill="#000000" stroke="none" font-family="Arial" font-size="13px" font-style="normal" font-weight="bold" text-decoration="none" x="848.669921875" y="568">Quản lý thời khoá biểu</text></g></g><g transform="translate(2,-14) scale(1,1)"><path fill="#C0C0C0" stroke="none" d="M 999 832 C 999 822.6111584 1039.0705104 815 1088.5 815 C 1137.9294896 815 1178 822.6111584 1178 832 C 1178 841.3888416 1137.9294896 849 1088.5 849 C 1039.0705104 849 999 841.3888416 999 832 Z" opacity="0.2"/></g><g transform="translate(2,-14) scale(1,1)"><path fill="#ffffff" stroke="none" d="M 992 825 C 992 815.6111584 1032.0705104 808 1081.5 808 C 1130.9294896 808 1171 815.6111584 1171 825 C 1171 834.3888416 1130.9294896 842 1081.5 842 C 1032.0705104 842 992 834.3888416 992 825 Z"/></g><g transform="translate(2,-14) scale(1,1)"><path fill="none" stroke="#000000" d="M 992 825 C 992 815.6111584 1032.0705104 808 1081.5 808 C 1130.9294896 808 1171 815.6111584 1171 825 C 1171 834.3888416 1130.9294896 842 1081.5 842 C 1032.0705104 842 992 834.3888416 992 825 Z" stroke-miterlimit="10"/></g><g transform="translate(2,-14) scale(1,1)"><g><path fill="none" stroke="none"/><text fill="#000000" stroke="none" font-family="Arial" font-size="13px" font-style="normal" font-weight="bold" text-decoration="none" x="1027.01171875" y="832">Huỷ thời khoá biểu</text></g></g><g transform="translate(2,-14) scale(1,1)"><path fill="#C0C0C0" stroke="none" d="M 727 816 C 727 806.6111584 779.606536 799 844.5 799 C 909.393464 799 962 806.6111584 962 816 C 962 825.3888416 909.393464 833 844.5 833 C 779.606536 833 727 825.3888416 727 816 Z" opacity="0.2"/></g><g transform="translate(2,-14) scale(1,1)"><path fill="#ffffff" stroke="none" d="M 720 809 C 720 799.6111584 772.606536 792 837.5 792 C 902.393464 792 955 799.6111584 955 809 C 955 818.3888416 902.393464 826 837.5 826 C 772.606536 826 720 818.3888416 720 809 Z"/></g><g transform="translate(2,-14) scale(1,1)"><path fill="none" stroke="#000000" d="M 720 809 C 720 799.6111584 772.606536 792 837.5 792 C 902.393464 792 955 799.6111584 955 809 C 955 818.3888416 902.393464 826 837.5 826 C 772.606536 826 720 818.3888416 720 809 Z" stroke-miterlimit="10"/></g><g transform="translate(2,-14) scale(1,1)"><g><path fill="none" stroke="none"/><text fill="#000000" stroke="none" font-family="Arial" font-size="13px" font-style="normal" font-weight="bold" text-decoration="none" x="764.5654296875" y="816">Chỉnh sửa thời khoá biểu</text></g></g><g transform="translate(2,-14) scale(1,1)"><path fill="none" stroke="#000000" d="M 132 576 L 383 583" stroke-miterlimit="10"/></g><g transform="translate(2,-14) scale(1,1)"><path fill="none" stroke="#000000" d="M 132 569 L 351 528" stroke-miterlimit="10"/></g><g transform="translate(2,-14) scale(1,1)"><path fill="none" stroke="#000000" d="M 132 563 L 608 395" stroke-miterlimit="10"/></g><g transform="translate(2,-14) scale(1,1)"><path fill="none" stroke="#000000" d="M 1279 160 L 1088 327" stroke-miterlimit="10"/></g><g transform="translate(2,-14) scale(1,1)"><path fill="none" stroke="#000000" d="M 1279 129 L 963 149" stroke-miterlimit="10"/></g><g transform="translate(2,-14) scale(1,1)"><path fill="none" stroke="#000000" d="M 1279 141 L 706 359" stroke-miterlimit="10"/></g><g transform="translate(2,-14) scale(1,1)"><path fill="none" stroke="#000000" d="M 1279 494 L 1137 468" stroke-miterlimit="10"/></g><g transform="translate(2,-14) scale(1,1)"><path fill="none" stroke="#000000" d="M 1279 510 L 1021 546" stroke-miterlimit="10"/></g><g transform="translate(2,-14) scale(1,1)"><path fill="none" stroke="#000000" d="M 1279 473 L 1097 363" stroke-miterlimit="10"/></g><g transform="translate(2,-14) scale(1,1)"><path fill="#ffffff" stroke="none" d="M 83.32072727272727 257.68 C 83.32072727272727 252.886167936 87.20656959767273 249 92 249 C 96.79343040232727 249 100.67927272727273 252.886167936 100.67927272727273 257.68 C 100.67927272727273 262.473832064 96.79343040232727 266.36 92 266.36 C 87.20656959767273 266.36 83.32072727272727 262.473832064 83.32072727272727 257.68 Z"/></g><g transform="translate(2,-14) scale(1,1)"><path fill="none" stroke="#000000" d="M 83.32072727272727 257.68 C 83.32072727272727 252.886167936 87.20656959767273 249 92 249 C 96.79343040232727 249 100.67927272727273 252.886167936 100.67927272727273 257.68 C 100.67927272727273 262.473832064 96.79343040232727 266.36 92 266.36 C 87.20656959767273 266.36 83.32072727272727 262.473832064 83.32072727272727 257.68 Z" stroke-miterlimit="10"/></g><g transform="translate(2,-14) scale(1,1)"><path fill="none" stroke="#000000" d="M 92 266.36 L 92 283.64" stroke-miterlimit="10"/></g><g transform="translate(2,-14) scale(1,1)"><path fill="none" stroke="#000000" d="M 82.81018181818182 272.84 L 101.18981818181818 272.84" stroke-miterlimit="10"/></g><g transform="translate(2,-14) scale(1,1)"><path fill="none" stroke="#000000" d="M 92 283.64 L 79.23636363636363 301" stroke-miterlimit="10"/></g><g transform="translate(2,-14) scale(1,1)"><path fill="none" stroke="#000000" d="M 92 283.64 L 104.76363636363637 301" stroke-miterlimit="10"/></g><g transform="translate(2,-14) scale(1,1)"><g><path fill="none" stroke="none"/><text fill="#000000" stroke="none" font-family="Arial" font-size="13px" font-style="normal" font-weight="bold" text-decoration="none" x="57.3671875" y="321.5">Người dùng</text><text fill="#000000" stroke="none" font-family="Arial" font-size="13px" font-style="normal" font-weight="bold" text-decoration="none" x="58.02099609375" y="334.5">đã xác thực</text></g></g><g transform="translate(2,-14) scale(1,1)"><path fill="none" stroke="#000000" d="M 96 535 L 93 341" stroke-miterlimit="10"/></g><g transform="translate(2,-14) scale(1,1)"><path fill="#FFFFFF" stroke="none" d="M 101.73230101656542 361.19274421558623 L 93 341 L 84.89624289856914 361.453095629782"/></g><g transform="translate(2,-14) scale(1,1)"><path fill="none" stroke="#000000" d="M 101.73230101656542 361.19274421558623 L 93 341 L 84.89624289856914 361.453095629782 L 101.73230101656542 361.19274421558623" stroke-miterlimit="10"/></g><g transform="translate(2,-14) scale(1,1)"><path fill="none" stroke="#000000" d="M 63 768 L 48 768 L 48 416 L 75 341" stroke-miterlimit="10"/></g><g transform="translate(2,-14) scale(1,1)"><path fill="#FFFFFF" stroke="none" d="M 76.03677288534024 362.9755569209116 L 75 341 L 60.19404381864691 357.27217445690195"/></g><g transform="translate(2,-14) scale(1,1)"><path fill="none" stroke="#000000" d="M 76.03677288534024 362.9755569209116 L 75 341 L 60.19404381864691 357.27217445690195 L 76.03677288534024 362.9755569209116" stroke-miterlimit="10"/></g><g transform="translate(2,-14) scale(1,1)"><path fill="none" stroke="#000000" d="M 1315 87 L 1312 24 L 8 24 L 8 296 L 47 295" stroke-miterlimit="10"/></g><g transform="translate(2,-14) scale(1,1)"><path fill="#FFFFFF" stroke="none" d="M 26.897130342760335 303.9372608524107 L 47 295 L 26.465526790083878 287.10472229802923"/></g><g transform="translate(2,-14) scale(1,1)"><path fill="none" stroke="#000000" d="M 26.897130342760335 303.9372608524107 L 47 295 L 26.465526790083878 287.10472229802923 L 26.897130342760335 303.9372608524107" stroke-miterlimit="10"/></g><g transform="translate(2,-14) scale(1,1)"><path fill="none" stroke="#000000" d="M 1329 544 L 1328 936 L 8 936 L 8 416 L 60 341" stroke-miterlimit="10"/></g><g transform="translate(2,-14) scale(1,1)"><path fill="#FFFFFF" stroke="none" d="M 55.33777252744671 362.5003170905494 L 60 341 L 41.50028732633487 352.9063273511118"/></g><g transform="translate(2,-14) scale(1,1)"><path fill="none" stroke="#000000" d="M 55.33777252744671 362.5003170905494 L 60 341 L 41.50028732633487 352.9063273511118 L 55.33777252744671 362.5003170905494" stroke-miterlimit="10"/></g><g transform="translate(2,-14) scale(1,1)"><path fill="none" stroke="#000000" d="M 137 282 L 263 247" stroke-miterlimit="10"/></g><g transform="translate(2,-14) scale(1,1)"><path fill="none" stroke="#000000" d="M 137 312 L 321 383" stroke-miterlimit="10"/></g><g transform="translate(2,-14) scale(1,1)"><path fill="none" stroke="#000000" d="M 137 296 L 255 301" stroke-miterlimit="10"/></g><g transform="translate(2,-14) scale(1,1)"><path fill="none" stroke="#000000" d="M 137 131 L 255 124" stroke-miterlimit="10"/></g><g transform="translate(2,-14) scale(1,1)"><path fill="#C0C0C0" stroke="none" d="M 575 648 C 575 638.6111584 614.6227952 631 663.5 631 C 712.3772048 631 752 638.6111584 752 648 C 752 657.3888416 712.3772048 665 663.5 665 C 614.6227952 665 575 657.3888416 575 648 Z" opacity="0.2"/></g><g transform="translate(2,-14) scale(1,1)"><path fill="#ffffff" stroke="none" d="M 568 641 C 568 631.6111584 607.6227952 624 656.5 624 C 705.3772048 624 745 631.6111584 745 641 C 745 650.3888416 705.3772048 658 656.5 658 C 607.6227952 658 568 650.3888416 568 641 Z"/></g><g transform="translate(2,-14) scale(1,1)"><path fill="none" stroke="#000000" d="M 568 641 C 568 631.6111584 607.6227952 624 656.5 624 C 705.3772048 624 745 631.6111584 745 641 C 745 650.3888416 705.3772048 658 656.5 658 C 607.6227952 658 568 650.3888416 568 641 Z" stroke-miterlimit="10"/></g><g transform="translate(2,-14) scale(1,1)"><g><path fill="none" stroke="none"/><text fill="#000000" stroke="none" font-family="Arial" font-size="13px" font-style="normal" font-weight="bold" text-decoration="none" x="602.3798828125" y="648">Tìm thời khoá biểu</text></g></g><g transform="translate(2,-14) scale(1,1)"><path fill="none" stroke="#000000" d="M 714 623 L 856 579" stroke-miterlimit="10"/></g><g transform="translate(2,-14) scale(1,1)"><path fill="#FFFFFF" stroke="none" d="M 839.0771528115687 593.0576400237381 L 856 579 L 834.093487407812 576.9739925843412"/></g><g transform="translate(2,-14) scale(1,1)"><path fill="none" stroke="#000000" d="M 839.0771528115687 593.0576400237381 L 856 579 L 834.093487407812 576.9739925843412 L 839.0771528115687 593.0576400237381" stroke-miterlimit="10"/></g><g transform="translate(2,-14) scale(1,1)"><path fill="none" stroke="#000000" d="M 727 711 L 892 579" stroke-miterlimit="10"/></g><g transform="translate(2,-14) scale(1,1)"><path fill="#FFFFFF" stroke="none" d="M 881.387898155892 598.2713075438663 L 892 579 L 870.8692385767896 585.1229830699883"/></g><g transform="translate(2,-14) scale(1,1)"><path fill="none" stroke="#000000" d="M 881.387898155892 598.2713075438663 L 892 579 L 870.8692385767896 585.1229830699883 L 881.387898155892 598.2713075438663" stroke-miterlimit="10"/></g><g transform="translate(2,-14) scale(1,1)"><path fill="none" stroke="#000000" d="M 843 791 L 908 579" stroke-miterlimit="10"/></g><g transform="translate(2,-14) scale(1,1)"><path fill="#FFFFFF" stroke="none" d="M 910.0911249260348 600.9003926116341 L 908 579 L 893.9927324891731 595.9645647418416"/></g><g transform="translate(2,-14) scale(1,1)"><path fill="none" stroke="#000000" d="M 910.0911249260348 600.9003926116341 L 908 579 L 893.9927324891731 595.9645647418416 L 910.0911249260348 600.9003926116341" stroke-miterlimit="10"/></g><g transform="translate(2,-14) scale(1,1)"><path fill="none" stroke="#000000" d="M 1070 807 L 925 579" stroke-miterlimit="10"/></g><g transform="translate(2,-14) scale(1,1)"><path fill="#FFFFFF" stroke="none" d="M 943.0114130605876 591.6328539752858 L 925 579 L 928.8032156022294 600.6687690255575"/></g><g transform="translate(2,-14) scale(1,1)"><path fill="none" stroke="#000000" d="M 943.0114130605876 591.6328539752858 L 925 579 L 928.8032156022294 600.6687690255575 L 943.0114130605876 591.6328539752858" stroke-miterlimit="10"/></g><g transform="translate(2,-14) scale(1,1)"><path fill="none" stroke="#000000" d="M 659 395 L 656 623" stroke-miterlimit="10" stroke-dasharray="3"/></g><g transform="translate(2,-14) scale(1,1)"><path fill="none" stroke="#000000" d="M 651.9245544260782 612.7828211636479 L 656 623 L 660.3428612381035 612.893588358543" stroke-miterlimit="10"/></g><g transform="translate(2,-14) scale(1,1)"><g><path fill="none" stroke="none"/><text fill="#000000" stroke="none" font-family="Arial" font-size="13px" font-style="normal" font-weight="normal" text-decoration="none" x="659.5" y="515.5">«extend»</text></g></g><g transform="translate(2,-14) scale(1,1)"><path fill="#ffffff" stroke="none" d="M 680 424 L 969 424 L 979 434 L 979 472 L 680 472 L 680 424"/></g><g transform="translate(2,-14) scale(1,1)"><path fill="none" stroke="#000000" d="M 680 424 L 969 424 L 979 434 L 979 472 L 680 472 L 680 424 L 680 424" stroke-miterlimit="10"/></g><g transform="translate(2,-14) scale(1,1)"><path fill="none" stroke="#000000" d="M 969 424 L 969 434 L 979 434 L 969 424" stroke-miterlimit="10"/></g><g transform="translate(2,-14) scale(1,1)"><g><path fill="none" stroke="none"/><text fill="#000000" stroke="none" font-family="Arial" font-size="13px" font-style="normal" font-weight="normal" text-decoration="none" x="685" y="442">Extension point: {Nhấn nút [Xem thời khoá biểu]}</text></g></g><g transform="translate(2,-14) scale(1,1)"><path fill="none" stroke="#000000" d="M 657 509 L 756 474" stroke-miterlimit="10" stroke-dasharray="3"/></g><g transform="translate(2,-14) scale(1,1)"><path fill="#C0C0C0" stroke="none" d="M 487 128 C 487 118.6111584 537.36796 111 599.5 111 C 661.63204 111 712 118.6111584 712 128 C 712 137.3888416 661.63204 145 599.5 145 C 537.36796 145 487 137.3888416 487 128 Z" opacity="0.2"/></g><g transform="translate(2,-14) scale(1,1)"><path fill="#ffffff" stroke="none" d="M 480 121 C 480 111.6111584 530.36796 104 592.5 104 C 654.63204 104 705 111.6111584 705 121 C 705 130.3888416 654.63204 138 592.5 138 C 530.36796 138 480 130.3888416 480 121 Z"/></g><g transform="translate(2,-14) scale(1,1)"><path fill="none" stroke="#000000" d="M 480 121 C 480 111.6111584 530.36796 104 592.5 104 C 654.63204 104 705 111.6111584 705 121 C 705 130.3888416 654.63204 138 592.5 138 C 530.36796 138 480 130.3888416 480 121 Z" stroke-miterlimit="10"/></g><g transform="translate(2,-14) scale(1,1)"><g><path fill="none" stroke="none"/><text fill="#000000" stroke="none" font-family="Arial" font-size="13px" font-style="normal" font-weight="bold" text-decoration="none" x="521.663330078125" y="128">Đăng nhập bằng Google</text></g></g><g transform="translate(2,-14) scale(1,1)"><path fill="#C0C0C0" stroke="none" d="M 479 193 C 479 178.6405952 538.0984064 167 611 167 C 683.9015936 167 743 178.6405952 743 193 C 743 207.3594048 683.9015936 219 611 219 C 538.0984064 219 479 207.3594048 479 193 Z" opacity="0.2"/></g><g transform="translate(2,-14) scale(1,1)"><path fill="#ffffff" stroke="none" d="M 472 186 C 472 171.6405952 531.0984064 160 604 160 C 676.9015936 160 736 171.6405952 736 186 C 736 200.3594048 676.9015936 212 604 212 C 531.0984064 212 472 200.3594048 472 186 Z"/></g><g transform="translate(2,-14) scale(1,1)"><path fill="none" stroke="#000000" d="M 472 186 C 472 171.6405952 531.0984064 160 604 160 C 676.9015936 160 736 171.6405952 736 186 C 736 200.3594048 676.9015936 212 604 212 C 531.0984064 212 472 200.3594048 472 186 Z" stroke-miterlimit="10"/></g><g transform="translate(2,-14) scale(1,1)"><g><path fill="none" stroke="none"/><text fill="#000000" stroke="none" font-family="Arial" font-size="13px" font-style="normal" font-weight="bold" text-decoration="none" x="527.742431640625" y="186.5">Đăng nhập bằng tài khoản</text><text fill="#000000" stroke="none" font-family="Arial" font-size="13px" font-style="normal" font-weight="bold" text-decoration="none" x="565.3935546875" y="199.5">được tạo sẵn</text></g></g><g transform="translate(2,-14) scale(1,1)"><path fill="none" stroke="#000000" d="M 479 121 L 365 121" stroke-miterlimit="10"/></g><g transform="translate(2,-14) scale(1,1)"><path fill="#FFFFFF" stroke="none" d="M 385.3253497152483 112.58096448796803 L 365 121 L 385.3253497152483 129.41903551203197"/></g><g transform="translate(2,-14) scale(1,1)"><path fill="none" stroke="#000000" d="M 385.3253497152483 112.58096448796803 L 365 121 L 385.3253497152483 129.41903551203197 L 385.3253497152483 112.58096448796803" stroke-miterlimit="10"/></g><g transform="translate(2,-14) scale(1,1)"><path fill="none" stroke="#000000" d="M 482 159 L 365 133" stroke-miterlimit="10"/></g><g transform="translate(2,-14) scale(1,1)"><path fill="#FFFFFF" stroke="none" d="M 386.6676886137556 129.19063389297833 L 365 133 L 383.01499815772235 145.6277409451279"/></g><g transform="translate(2,-14) scale(1,1)"><path fill="none" stroke="#000000" d="M 386.6676886137556 129.19063389297833 L 365 133 L 383.01499815772235 145.6277409451279 L 386.6676886137556 129.19063389297833" stroke-miterlimit="10"/></g><g transform="translate(2,-14) scale(1,1)"><path fill="#C0C0C0" stroke="none" d="M 271 680 C 271 670.6111584 299.4299152 663 334.5 663 C 369.5700848 663 398 670.6111584 398 680 C 398 689.3888416 369.5700848 697 334.5 697 C 299.4299152 697 271 689.3888416 271 680 Z" opacity="0.2"/></g><g transform="translate(2,-14) scale(1,1)"><path fill="#ffffff" stroke="none" d="M 264 673 C 264 663.6111584 292.4299152 656 327.5 656 C 362.5700848 656 391 663.6111584 391 673 C 391 682.3888416 362.5700848 690 327.5 690 C 292.4299152 690 264 682.3888416 264 673 Z"/></g><g transform="translate(2,-14) scale(1,1)"><path fill="none" stroke="#000000" d="M 264 673 C 264 663.6111584 292.4299152 656 327.5 656 C 362.5700848 656 391 663.6111584 391 673 C 391 682.3888416 362.5700848 690 327.5 690 C 292.4299152 690 264 682.3888416 264 673 Z" stroke-miterlimit="10"/></g><g transform="translate(2,-14) scale(1,1)"><g><path fill="none" stroke="none"/><text fill="#000000" stroke="none" font-family="Arial" font-size="13px" font-style="normal" font-weight="bold" text-decoration="none" x="289.569580078125" y="680">Xem điểm thi</text></g></g><g transform="translate(2,-14) scale(1,1)"><path fill="none" stroke="#000000" d="M 141 751 L 284 691" stroke-miterlimit="10"/></g><g transform="translate(2,-14) scale(1,1)"><path fill="#C0C0C0" stroke="none" d="M 287 816 C 287 806.6111584 336.248672 799 397 799 C 457.751328 799 507 806.6111584 507 816 C 507 825.3888416 457.751328 833 397 833 C 336.248672 833 287 825.3888416 287 816 Z" opacity="0.2"/></g><g transform="translate(2,-14) scale(1,1)"><path fill="#ffffff" stroke="none" d="M 280 809 C 280 799.6111584 329.248672 792 390 792 C 450.751328 792 500 799.6111584 500 809 C 500 818.3888416 450.751328 826 390 826 C 329.248672 826 280 818.3888416 280 809 Z"/></g><g transform="translate(2,-14) scale(1,1)"><path fill="none" stroke="#000000" d="M 280 809 C 280 799.6111584 329.248672 792 390 792 C 450.751328 792 500 799.6111584 500 809 C 500 818.3888416 450.751328 826 390 826 C 329.248672 826 280 818.3888416 280 809 Z" stroke-miterlimit="10"/></g><g transform="translate(2,-14) scale(1,1)"><g><path fill="none" stroke="none"/><text fill="#000000" stroke="none" font-family="Arial" font-size="13px" font-style="normal" font-weight="bold" text-decoration="none" x="322.5625" y="816">Liên lạc với nhà trường</text></g></g><g transform="translate(2,-14) scale(1,1)"><path fill="none" stroke="#000000" d="M 141 773 L 279 793" stroke-miterlimit="10"/></g><g transform="translate(2,-14) scale(1,1)"><path fill="none" stroke="#000000" d="M 132 590 L 285 655" stroke-miterlimit="10"/></g></g></svg>