<svg version="1.1" xmlns="http://www.w3.org/2000/svg" xmlns:xlink="http://www.w3.org/1999/xlink" width="988.25732421875" height="1300"><defs/><g><g transform="translate(-70,-38) scale(1,1)"><rect fill="#C0C0C0" stroke="none" x="263" y="55" width="632" height="1280" opacity="0.2"/></g><g transform="translate(-70,-38) scale(1,1)"><rect fill="#ffffff" stroke="none" x="256" y="48" width="632" height="1280"/></g><g transform="translate(-70,-38) scale(1,1)"><path fill="none" stroke="#000000" d="M 256 48 L 888 48 L 888 1328 L 256 1328 L 256 48 Z Z" stroke-miterlimit="10"/></g><g transform="translate(-70,-38) scale(1,1)"><g><path fill="none" stroke="none"/><text fill="#000000" stroke="none" font-family="Arial" font-size="13px" font-style="normal" font-weight="bold" text-decoration="none" x="549.24365234375" y="67.5">OU Bus</text></g></g><g transform="translate(-70,-38) scale(1,1)"><path fill="#ffffff" stroke="none" d="M 145.30681125710228 337.68 C 145.30681125710228 332.886167936 149.19265358204774 329 153.986083984375 329 C 158.77951438670226 329 162.66535671164772 332.886167936 162.66535671164772 337.68 C 162.66535671164772 342.473832064 158.77951438670226 346.36 153.986083984375 346.36 C 149.19265358204774 346.36 145.30681125710228 342.473832064 145.30681125710228 337.68 Z"/></g><g transform="translate(-70,-38) scale(1,1)"><path fill="none" stroke="#000000" d="M 145.30681125710228 337.68 C 145.30681125710228 332.886167936 149.19265358204774 329 153.986083984375 329 C 158.77951438670226 329 162.66535671164772 332.886167936 162.66535671164772 337.68 C 162.66535671164772 342.473832064 158.77951438670226 346.36 153.986083984375 346.36 C 149.19265358204774 346.36 145.30681125710228 342.473832064 145.30681125710228 337.68 Z" stroke-miterlimit="10"/></g><g transform="translate(-70,-38) scale(1,1)"><path fill="none" stroke="#000000" d="M 153.986083984375 346.36 L 153.986083984375 363.64" stroke-miterlimit="10"/></g><g transform="translate(-70,-38) scale(1,1)"><path fill="none" stroke="#000000" d="M 144.79626580255683 352.84 L 163.17590216619317 352.84" stroke-miterlimit="10"/></g><g transform="translate(-70,-38) scale(1,1)"><path fill="none" stroke="#000000" d="M 153.986083984375 363.64 L 141.22244762073865 381" stroke-miterlimit="10"/></g><g transform="translate(-70,-38) scale(1,1)"><path fill="none" stroke="#000000" d="M 153.986083984375 363.64 L 166.74972034801135 381" stroke-miterlimit="10"/></g><g transform="translate(-70,-38) scale(1,1)"><g><path fill="none" stroke="none"/><text fill="#000000" stroke="none" font-family="Arial" font-size="13px" font-style="normal" font-weight="bold" text-decoration="none" x="135.619140625" y="401.5">Người</text><text fill="#000000" stroke="none" font-family="Arial" font-size="13px" font-style="normal" font-weight="bold" text-decoration="none" x="139.526123046875" y="414.5">dùng</text></g></g><g transform="translate(-70,-38) scale(1,1)"><path fill="#ffffff" stroke="none" d="M 154.88298313210228 1137.6799999999998 C 154.88298313210228 1132.8861679359998 158.76882545704774 1129 163.562255859375 1129 C 168.35568626170226 1129 172.24152858664772 1132.8861679359998 172.24152858664772 1137.6799999999998 C 172.24152858664772 1142.473832064 168.35568626170226 1146.36 163.562255859375 1146.36 C 158.76882545704774 1146.36 154.88298313210228 1142.473832064 154.88298313210228 1137.6799999999998 Z"/></g><g transform="translate(-70,-38) scale(1,1)"><path fill="none" stroke="#000000" d="M 154.88298313210228 1137.6799999999998 C 154.88298313210228 1132.8861679359998 158.76882545704774 1129 163.562255859375 1129 C 168.35568626170226 1129 172.24152858664772 1132.8861679359998 172.24152858664772 1137.6799999999998 C 172.24152858664772 1142.473832064 168.35568626170226 1146.36 163.562255859375 1146.36 C 158.76882545704774 1146.36 154.88298313210228 1142.473832064 154.88298313210228 1137.6799999999998 Z" stroke-miterlimit="10"/></g><g transform="translate(-70,-38) scale(1,1)"><path fill="none" stroke="#000000" d="M 163.562255859375 1146.36 L 163.562255859375 1163.64" stroke-miterlimit="10"/></g><g transform="translate(-70,-38) scale(1,1)"><path fill="none" stroke="#000000" d="M 154.37243767755683 1152.84 L 172.75207404119317 1152.84" stroke-miterlimit="10"/></g><g transform="translate(-70,-38) scale(1,1)"><path fill="none" stroke="#000000" d="M 163.562255859375 1163.64 L 150.79861949573865 1181" stroke-miterlimit="10"/></g><g transform="translate(-70,-38) scale(1,1)"><path fill="none" stroke="#000000" d="M 163.562255859375 1163.64 L 176.32589222301135 1181" stroke-miterlimit="10"/></g><g transform="translate(-70,-38) scale(1,1)"><g><path fill="none" stroke="none"/><text fill="#000000" stroke="none" font-family="Arial" font-size="13px" font-style="normal" font-weight="bold" text-decoration="none" x="148.023193359375" y="1201.5">Nhân</text><text fill="#000000" stroke="none" font-family="Arial" font-size="13px" font-style="normal" font-weight="bold" text-decoration="none" x="151.63818359375" y="1214.5">viên</text></g></g><g transform="translate(-70,-38) scale(1,1)"><path fill="#C0C0C0" stroke="none" d="M 359 139 C 359 127.95430400000001 409.1441024 119 471 119 C 532.8558976 119 583 127.95430400000001 583 139 C 583 150.045696 532.8558976 159 471 159 C 409.1441024 159 359 150.045696 359 139 Z" opacity="0.2"/></g><g transform="translate(-70,-38) scale(1,1)"><path fill="#ffffff" stroke="none" d="M 352 132 C 352 120.95430400000001 402.1441024 112 464 112 C 525.8558976 112 576 120.95430400000001 576 132 C 576 143.045696 525.8558976 152 464 152 C 402.1441024 152 352 143.045696 352 132 Z"/></g><g transform="translate(-70,-38) scale(1,1)"><path fill="none" stroke="#000000" d="M 352 132 C 352 120.95430400000001 402.1441024 112 464 112 C 525.8558976 112 576 120.95430400000001 576 132 C 576 143.045696 525.8558976 152 464 152 C 402.1441024 152 352 143.045696 352 132 Z" stroke-miterlimit="10"/></g><g transform="translate(-70,-38) scale(1,1)"><g><path fill="none" stroke="none"/><text fill="#000000" stroke="none" font-family="Arial" font-size="13px" font-style="normal" font-weight="bold" text-decoration="none" x="407.648681640625" y="139">Tìm kiếm chuyến đi</text></g></g><g transform="translate(-70,-38) scale(1,1)"><path fill="#C0C0C0" stroke="none" d="M 375 633 C 375 618.6405952 405.4446336 607 443 607 C 480.5553664 607 511 618.6405952 511 633 C 511 647.3594048 480.5553664 659 443 659 C 405.4446336 659 375 647.3594048 375 633 Z" opacity="0.2"/></g><g transform="translate(-70,-38) scale(1,1)"><path fill="#ffffff" stroke="none" d="M 368 626 C 368 611.6405952 398.4446336 600 436 600 C 473.5553664 600 504 611.6405952 504 626 C 504 640.3594048 473.5553664 652 436 652 C 398.4446336 652 368 640.3594048 368 626 Z"/></g><g transform="translate(-70,-38) scale(1,1)"><path fill="none" stroke="#000000" d="M 368 626 C 368 611.6405952 398.4446336 600 436 600 C 473.5553664 600 504 611.6405952 504 626 C 504 640.3594048 473.5553664 652 436 652 C 398.4446336 652 368 640.3594048 368 626 Z" stroke-miterlimit="10"/></g><g transform="translate(-70,-38) scale(1,1)"><g><path fill="none" stroke="none"/><text fill="#000000" stroke="none" font-family="Arial" font-size="13px" font-style="normal" font-weight="bold" text-decoration="none" x="400.5927734375" y="633">Đặt vé trống</text></g></g><g transform="translate(-70,-38) scale(1,1)"><path fill="#C0C0C0" stroke="none" d="M 319 1144 C 319 1134.6111584 352.8024976 1127 394.5 1127 C 436.1975024 1127 470 1134.6111584 470 1144 C 470 1153.3888416 436.1975024 1161 394.5 1161 C 352.8024976 1161 319 1153.3888416 319 1144 Z" opacity="0.2"/></g><g transform="translate(-70,-38) scale(1,1)"><path fill="#ffffff" stroke="none" d="M 312 1137 C 312 1127.6111584 345.8024976 1120 387.5 1120 C 429.1975024 1120 463 1127.6111584 463 1137 C 463 1146.3888416 429.1975024 1154 387.5 1154 C 345.8024976 1154 312 1146.3888416 312 1137 Z"/></g><g transform="translate(-70,-38) scale(1,1)"><path fill="none" stroke="#000000" d="M 312 1137 C 312 1127.6111584 345.8024976 1120 387.5 1120 C 429.1975024 1120 463 1127.6111584 463 1137 C 463 1146.3888416 429.1975024 1154 387.5 1154 C 345.8024976 1154 312 1146.3888416 312 1137 Z" stroke-miterlimit="10"/></g><g transform="translate(-70,-38) scale(1,1)"><g><path fill="none" stroke="none"/><text fill="#000000" stroke="none" font-family="Arial" font-size="13px" font-style="normal" font-weight="bold" text-decoration="none" x="350.642333984375" y="1144">Bán vé trống</text></g></g><g transform="translate(-70,-38) scale(1,1)"><path fill="#C0C0C0" stroke="none" d="M 335 1048 C 335 1038.6111584 357.6096176 1031 385.5 1031 C 413.3903824 1031 436 1038.6111584 436 1048 C 436 1057.3888416 413.3903824 1065 385.5 1065 C 357.6096176 1065 335 1057.3888416 335 1048 Z" opacity="0.2"/></g><g transform="translate(-70,-38) scale(1,1)"><path fill="#ffffff" stroke="none" d="M 328 1041 C 328 1031.6111584 350.6096176 1024 378.5 1024 C 406.3903824 1024 429 1031.6111584 429 1041 C 429 1050.3888416 406.3903824 1058 378.5 1058 C 350.6096176 1058 328 1050.3888416 328 1041 Z"/></g><g transform="translate(-70,-38) scale(1,1)"><path fill="none" stroke="#000000" d="M 328 1041 C 328 1031.6111584 350.6096176 1024 378.5 1024 C 406.3903824 1024 429 1031.6111584 429 1041 C 429 1050.3888416 406.3903824 1058 378.5 1058 C 350.6096176 1058 328 1050.3888416 328 1041 Z" stroke-miterlimit="10"/></g><g transform="translate(-70,-38) scale(1,1)"><g><path fill="none" stroke="none"/><text fill="#000000" stroke="none" font-family="Arial" font-size="13px" font-style="normal" font-weight="bold" text-decoration="none" x="360.075927734375" y="1048">Đổi vé</text></g></g><g transform="translate(-70,-38) scale(1,1)"><path fill="#C0C0C0" stroke="none" d="M 479 728 C 479 718.6111584 501.6096176 711 529.5 711 C 557.3903824 711 580 718.6111584 580 728 C 580 737.3888416 557.3903824 745 529.5 745 C 501.6096176 745 479 737.3888416 479 728 Z" opacity="0.2"/></g><g transform="translate(-70,-38) scale(1,1)"><path fill="#ffffff" stroke="none" d="M 472 721 C 472 711.6111584 494.6096176 704 522.5 704 C 550.3903824 704 573 711.6111584 573 721 C 573 730.3888416 550.3903824 738 522.5 738 C 494.6096176 738 472 730.3888416 472 721 Z"/></g><g transform="translate(-70,-38) scale(1,1)"><path fill="none" stroke="#000000" d="M 472 721 C 472 711.6111584 494.6096176 704 522.5 704 C 550.3903824 704 573 711.6111584 573 721 C 573 730.3888416 550.3903824 738 522.5 738 C 494.6096176 738 472 730.3888416 472 721 Z" stroke-miterlimit="10"/></g><g transform="translate(-70,-38) scale(1,1)"><g><path fill="none" stroke="none"/><text fill="#000000" stroke="none" font-family="Arial" font-size="13px" font-style="normal" font-weight="bold" text-decoration="none" x="502.27001953125" y="728">Huỷ vé</text></g></g><g transform="translate(-70,-38) scale(1,1)"><path fill="#C0C0C0" stroke="none" d="M 303 1283 C 303 1271.954304 335.2354944 1263 375 1263 C 414.7645056 1263 447 1271.954304 447 1283 C 447 1294.045696 414.7645056 1303 375 1303 C 335.2354944 1303 303 1294.045696 303 1283 Z" opacity="0.2"/></g><g transform="translate(-70,-38) scale(1,1)"><path fill="#ffffff" stroke="none" d="M 296 1276 C 296 1264.954304 328.2354944 1256 368 1256 C 407.7645056 1256 440 1264.954304 440 1276 C 440 1287.045696 407.7645056 1296 368 1296 C 328.2354944 1296 296 1287.045696 296 1276 Z"/></g><g transform="translate(-70,-38) scale(1,1)"><path fill="none" stroke="#000000" d="M 296 1276 C 296 1264.954304 328.2354944 1256 368 1256 C 407.7645056 1256 440 1264.954304 440 1276 C 440 1287.045696 407.7645056 1296 368 1296 C 328.2354944 1296 296 1287.045696 296 1276 Z" stroke-miterlimit="10"/></g><g transform="translate(-70,-38) scale(1,1)"><g><path fill="none" stroke="none"/><text fill="#000000" stroke="none" font-family="Arial" font-size="13px" font-style="normal" font-weight="bold" text-decoration="none" x="332.608642578125" y="1283">Tìm kiếm vé</text></g></g><g transform="translate(-70,-38) scale(1,1)"><path fill="#C0C0C0" stroke="none" d="M 559 1177 C 559 1162.6405952 601.9806592 1151 655 1151 C 708.0193408 1151 751 1162.6405952 751 1177 C 751 1191.3594048 708.0193408 1203 655 1203 C 601.9806592 1203 559 1191.3594048 559 1177 Z" opacity="0.2"/></g><g transform="translate(-70,-38) scale(1,1)"><path fill="#ffffff" stroke="none" d="M 552 1170 C 552 1155.6405952 594.9806592 1144 648 1144 C 701.0193408 1144 744 1155.6405952 744 1170 C 744 1184.3594048 701.0193408 1196 648 1196 C 594.9806592 1196 552 1184.3594048 552 1170 Z"/></g><g transform="translate(-70,-38) scale(1,1)"><path fill="none" stroke="#000000" d="M 552 1170 C 552 1155.6405952 594.9806592 1144 648 1144 C 701.0193408 1144 744 1155.6405952 744 1170 C 744 1184.3594048 701.0193408 1196 648 1196 C 594.9806592 1196 552 1184.3594048 552 1170 Z" stroke-miterlimit="10"/></g><g transform="translate(-70,-38) scale(1,1)"><g><path fill="none" stroke="none"/><text fill="#000000" stroke="none" font-family="Arial" font-size="13px" font-style="normal" font-weight="bold" text-decoration="none" x="599.5673828125" y="1170.5">Thực hiện đổi vé</text><text fill="#000000" stroke="none" font-family="Arial" font-size="13px" font-style="normal" font-weight="bold" text-decoration="none" x="602.103271484375" y="1183.5">cho khách hàng</text></g></g><g transform="translate(-70,-38) scale(1,1)"><path fill="#C0C0C0" stroke="none" d="M 567 1283 C 567 1267.5360256 608.1897984 1255 659 1255 C 709.8102016 1255 751 1267.5360256 751 1283 C 751 1298.4639744 709.8102016 1311 659 1311 C 608.1897984 1311 567 1298.4639744 567 1283 Z" opacity="0.2"/></g><g transform="translate(-70,-38) scale(1,1)"><path fill="#ffffff" stroke="none" d="M 560 1276 C 560 1260.5360256 601.1897984 1248 652 1248 C 702.8102016 1248 744 1260.5360256 744 1276 C 744 1291.4639744 702.8102016 1304 652 1304 C 601.1897984 1304 560 1291.4639744 560 1276 Z"/></g><g transform="translate(-70,-38) scale(1,1)"><path fill="none" stroke="#000000" d="M 560 1276 C 560 1260.5360256 601.1897984 1248 652 1248 C 702.8102016 1248 744 1260.5360256 744 1276 C 744 1291.4639744 702.8102016 1304 652 1304 C 601.1897984 1304 560 1291.4639744 560 1276 Z" stroke-miterlimit="10"/></g><g transform="translate(-70,-38) scale(1,1)"><g><path fill="none" stroke="none"/><text fill="#000000" stroke="none" font-family="Arial" font-size="13px" font-style="normal" font-weight="bold" text-decoration="none" x="601.761474609375" y="1276.5">Thực hiện huỷ vé</text><text fill="#000000" stroke="none" font-family="Arial" font-size="13px" font-style="normal" font-weight="bold" text-decoration="none" x="606.103271484375" y="1289.5">cho khách hàng</text></g></g><g transform="translate(-70,-38) scale(1,1)"><path fill="#C0C0C0" stroke="none" d="M 327 1208 C 327 1198.6111584 349.6096176 1191 377.5 1191 C 405.3903824 1191 428 1198.6111584 428 1208 C 428 1217.3888416 405.3903824 1225 377.5 1225 C 349.6096176 1225 327 1217.3888416 327 1208 Z" opacity="0.2"/></g><g transform="translate(-70,-38) scale(1,1)"><path fill="#ffffff" stroke="none" d="M 320 1201 C 320 1191.6111584 342.6096176 1184 370.5 1184 C 398.3903824 1184 421 1191.6111584 421 1201 C 421 1210.3888416 398.3903824 1218 370.5 1218 C 342.6096176 1218 320 1210.3888416 320 1201 Z"/></g><g transform="translate(-70,-38) scale(1,1)"><path fill="none" stroke="#000000" d="M 320 1201 C 320 1191.6111584 342.6096176 1184 370.5 1184 C 398.3903824 1184 421 1191.6111584 421 1201 C 421 1210.3888416 398.3903824 1218 370.5 1218 C 342.6096176 1218 320 1210.3888416 320 1201 Z" stroke-miterlimit="10"/></g><g transform="translate(-70,-38) scale(1,1)"><g><path fill="none" stroke="none"/><text fill="#000000" stroke="none" font-family="Arial" font-size="13px" font-style="normal" font-weight="bold" text-decoration="none" x="348.457763671875" y="1208">Xuất vé</text></g></g><g transform="translate(-70,-38) scale(1,1)"><path fill="#C0C0C0" stroke="none" d="M 623 691 C 623 679.954304 662.3989376 671 711 671 C 759.6010624 671 799 679.954304 799 691 C 799 702.045696 759.6010624 711 711 711 C 662.3989376 711 623 702.045696 623 691 Z" opacity="0.2"/></g><g transform="translate(-70,-38) scale(1,1)"><path fill="#ffffff" stroke="none" d="M 616 684 C 616 672.954304 655.3989376 664 704 664 C 752.6010624 664 792 672.954304 792 684 C 792 695.045696 752.6010624 704 704 704 C 655.3989376 704 616 695.045696 616 684 Z"/></g><g transform="translate(-70,-38) scale(1,1)"><path fill="none" stroke="#000000" d="M 616 684 C 616 672.954304 655.3989376 664 704 664 C 752.6010624 664 792 672.954304 792 684 C 792 695.045696 752.6010624 704 704 704 C 655.3989376 704 616 695.045696 616 684 Z" stroke-miterlimit="10"/></g><g transform="translate(-70,-38) scale(1,1)"><g><path fill="none" stroke="none"/><text fill="#000000" stroke="none" font-family="Arial" font-size="13px" font-style="normal" font-weight="bold" text-decoration="none" x="654.129638671875" y="691">Đặt vé trực tuyến</text></g></g><g transform="translate(-70,-38) scale(1,1)"><path fill="#C0C0C0" stroke="none" d="M 335 920 C 335 910.6111584 357.6096176 903 385.5 903 C 413.3903824 903 436 910.6111584 436 920 C 436 929.3888416 413.3903824 937 385.5 937 C 357.6096176 937 335 929.3888416 335 920 Z" opacity="0.2"/></g><g transform="translate(-70,-38) scale(1,1)"><path fill="#ffffff" stroke="none" d="M 328 913 C 328 903.6111584 350.6096176 896 378.5 896 C 406.3903824 896 429 903.6111584 429 913 C 429 922.3888416 406.3903824 930 378.5 930 C 350.6096176 930 328 922.3888416 328 913 Z"/></g><g transform="translate(-70,-38) scale(1,1)"><path fill="none" stroke="#000000" d="M 328 913 C 328 903.6111584 350.6096176 896 378.5 896 C 406.3903824 896 429 903.6111584 429 913 C 429 922.3888416 406.3903824 930 378.5 930 C 350.6096176 930 328 922.3888416 328 913 Z" stroke-miterlimit="10"/></g><g transform="translate(-70,-38) scale(1,1)"><g><path fill="none" stroke="none"/><text fill="#000000" stroke="none" font-family="Arial" font-size="13px" font-style="normal" font-weight="bold" text-decoration="none" x="354.2900390625" y="920">Nhận vé</text></g></g><g transform="translate(-70,-38) scale(1,1)"><path fill="none" stroke="#000000" d="M 197 413 L 406 599" stroke-miterlimit="10"/></g><g transform="translate(-70,-38) scale(1,1)"><path fill="none" stroke="#000000" d="M 200 1192 L 326 1255" stroke-miterlimit="10"/></g><g transform="translate(-70,-38) scale(1,1)"><path fill="none" stroke="#000000" d="M 378 1023 L 378 931" stroke-miterlimit="10" stroke-dasharray="3"/></g><g transform="translate(-70,-38) scale(1,1)"><path fill="none" stroke="#000000" d="M 382.209517756016 941.1626748576241 L 378 931 L 373.790482243984 941.1626748576241" stroke-miterlimit="10"/></g><g transform="translate(-70,-38) scale(1,1)"><g><path fill="none" stroke="none"/><text fill="#000000" stroke="none" font-family="Arial" font-size="13px" font-style="normal" font-weight="normal" text-decoration="none" x="318.5" y="980.5">«extend»</text></g></g><g transform="translate(-70,-38) scale(1,1)"><path fill="none" stroke="#000000" d="M 506 703 L 460 653" stroke-miterlimit="10" stroke-dasharray="3"/></g><g transform="translate(-70,-38) scale(1,1)"><path fill="none" stroke="#000000" d="M 469.97862004417783 657.6289461018607 L 460 653 L 463.7827907217494 663.329109078495" stroke-miterlimit="10"/></g><g transform="translate(-70,-38) scale(1,1)"><g><path fill="none" stroke="none"/><text fill="#000000" stroke="none" font-family="Arial" font-size="13px" font-style="normal" font-weight="normal" text-decoration="none" x="423.5" y="692.5">«extend»</text></g></g><g transform="translate(-70,-38) scale(1,1)"><path fill="none" stroke="#000000" d="M 577 1197 L 423 1255" stroke-miterlimit="10" stroke-dasharray="3"/></g><g transform="translate(-70,-38) scale(1,1)"><path fill="none" stroke="#000000" d="M 431.02685793714494 1247.4787267263519 L 423 1255 L 433.99418901392994 1255.3575023440226" stroke-miterlimit="10"/></g><g transform="translate(-70,-38) scale(1,1)"><g><path fill="none" stroke="none"/><text fill="#000000" stroke="none" font-family="Arial" font-size="13px" font-style="normal" font-weight="normal" text-decoration="none" x="447.5" y="1219.5">«extend»</text></g></g><g transform="translate(-70,-38) scale(1,1)"><path fill="none" stroke="#000000" d="M 559 1276 L 441 1276" stroke-miterlimit="10" stroke-dasharray="3"/></g><g transform="translate(-70,-38) scale(1,1)"><path fill="none" stroke="#000000" d="M 451.16267485762415 1271.7904822439841 L 441 1276 L 451.16267485762415 1280.2095177560159" stroke-miterlimit="10"/></g><g transform="translate(-70,-38) scale(1,1)"><g><path fill="none" stroke="none"/><text fill="#000000" stroke="none" font-family="Arial" font-size="13px" font-style="normal" font-weight="normal" text-decoration="none" x="472.5" y="1293.5">«extend»</text></g></g><g transform="translate(-70,-38) scale(1,1)"><path fill="#C0C0C0" stroke="none" d="M 631 617 C 631 602.6405952 670.3989376 591 719 591 C 767.6010624 591 807 602.6405952 807 617 C 807 631.3594048 767.6010624 643 719 643 C 670.3989376 643 631 631.3594048 631 617 Z" opacity="0.2"/></g><g transform="translate(-70,-38) scale(1,1)"><path fill="#ffffff" stroke="none" d="M 624 610 C 624 595.6405952 663.3989376 584 712 584 C 760.6010624 584 800 595.6405952 800 610 C 800 624.3594048 760.6010624 636 712 636 C 663.3989376 636 624 624.3594048 624 610 Z"/></g><g transform="translate(-70,-38) scale(1,1)"><path fill="none" stroke="#000000" d="M 624 610 C 624 595.6405952 663.3989376 584 712 584 C 760.6010624 584 800 595.6405952 800 610 C 800 624.3594048 760.6010624 636 712 636 C 663.3989376 636 624 624.3594048 624 610 Z" stroke-miterlimit="10"/></g><g transform="translate(-70,-38) scale(1,1)"><g><path fill="none" stroke="none"/><text fill="#000000" stroke="none" font-family="Arial" font-size="13px" font-style="normal" font-weight="bold" text-decoration="none" x="667.550537109375" y="610.5">Đặt vé trực tiếp</text><text fill="#000000" stroke="none" font-family="Arial" font-size="13px" font-style="normal" font-weight="bold" text-decoration="none" x="663.21826171875" y="623.5">tại các chi nhánh</text></g></g><g transform="translate(-70,-38) scale(1,1)"><path fill="none" stroke="#000000" d="M 623 615 L 505 622" stroke-miterlimit="10"/></g><g transform="translate(-70,-38) scale(1,1)"><path fill="#FFFFFF" stroke="none" d="M 524.7911224820715 612.3921141295473 L 505 622 L 525.7882381662298 629.2006356625027"/></g><g transform="translate(-70,-38) scale(1,1)"><path fill="none" stroke="#000000" d="M 524.7911224820715 612.3921141295473 L 505 622 L 525.7882381662298 629.2006356625027 L 524.7911224820715 612.3921141295473" stroke-miterlimit="10"/></g><g transform="translate(-70,-38) scale(1,1)"><path fill="none" stroke="#000000" d="M 615 665 L 505 641" stroke-miterlimit="10"/></g><g transform="translate(-70,-38) scale(1,1)"><path fill="#FFFFFF" stroke="none" d="M 526.6528482042133 637.1071649604309 L 505 641 L 523.0635258517221 653.5582257426822"/></g><g transform="translate(-70,-38) scale(1,1)"><path fill="none" stroke="#000000" d="M 526.6528482042133 637.1071649604309 L 505 641 L 523.0635258517221 653.5582257426822 L 526.6528482042133 637.1071649604309" stroke-miterlimit="10"/></g><g transform="translate(-70,-38) scale(1,1)"><path fill="#C0C0C0" stroke="none" d="M 655 801 C 655 786.6405952 681.862912 775 715 775 C 748.137088 775 775 786.6405952 775 801 C 775 815.3594048 748.137088 827 715 827 C 681.862912 827 655 815.3594048 655 801 Z" opacity="0.2"/></g><g transform="translate(-70,-38) scale(1,1)"><path fill="#ffffff" stroke="none" d="M 648 794 C 648 779.6405952 674.862912 768 708 768 C 741.137088 768 768 779.6405952 768 794 C 768 808.3594048 741.137088 820 708 820 C 674.862912 820 648 808.3594048 648 794 Z"/></g><g transform="translate(-70,-38) scale(1,1)"><path fill="none" stroke="#000000" d="M 648 794 C 648 779.6405952 674.862912 768 708 768 C 741.137088 768 768 779.6405952 768 794 C 768 808.3594048 741.137088 820 708 820 C 674.862912 820 648 808.3594048 648 794 Z" stroke-miterlimit="10"/></g><g transform="translate(-70,-38) scale(1,1)"><g><path fill="none" stroke="none"/><text fill="#000000" stroke="none" font-family="Arial" font-size="13px" font-style="normal" font-weight="bold" text-decoration="none" x="675.11279296875" y="794.5">Thanh toán</text><text fill="#000000" stroke="none" font-family="Arial" font-size="13px" font-style="normal" font-weight="bold" text-decoration="none" x="678.721435546875" y="807.5">trực tuyến</text></g></g><g transform="translate(-70,-38) scale(1,1)"><path fill="none" stroke="#000000" d="M 705 705 L 707 767" stroke-miterlimit="10" stroke-dasharray="3"/></g><g transform="translate(-70,-38) scale(1,1)"><path fill="none" stroke="#000000" d="M 702.4650129238797 756.9783288709207 L 707 767 L 710.8796715000755 756.7068882716885" stroke-miterlimit="10"/></g><g transform="translate(-70,-38) scale(1,1)"><g><path fill="none" stroke="none"/><text fill="#000000" stroke="none" font-family="Arial" font-size="13px" font-style="normal" font-weight="normal" text-decoration="none" x="711.5" y="741.5">«include»</text></g></g><g transform="translate(-70,-38) scale(1,1)"><path fill="#C0C0C0" stroke="none" d="M 655 881 C 655 866.6405952 683.6537728 855 719 855 C 754.3462272 855 783 866.6405952 783 881 C 783 895.3594048 754.3462272 907 719 907 C 683.6537728 907 655 895.3594048 655 881 Z" opacity="0.2"/></g><g transform="translate(-70,-38) scale(1,1)"><path fill="#ffffff" stroke="none" d="M 648 874 C 648 859.6405952 676.6537728 848 712 848 C 747.3462272 848 776 859.6405952 776 874 C 776 888.3594048 747.3462272 900 712 900 C 676.6537728 900 648 888.3594048 648 874 Z"/></g><g transform="translate(-70,-38) scale(1,1)"><path fill="none" stroke="#000000" d="M 648 874 C 648 859.6405952 676.6537728 848 712 848 C 747.3462272 848 776 859.6405952 776 874 C 776 888.3594048 747.3462272 900 712 900 C 676.6537728 900 648 888.3594048 648 874 Z" stroke-miterlimit="10"/></g><g transform="translate(-70,-38) scale(1,1)"><g><path fill="none" stroke="none"/><text fill="#000000" stroke="none" font-family="Arial" font-size="13px" font-style="normal" font-weight="bold" text-decoration="none" x="679.11279296875" y="874.5">Thanh toán</text><text fill="#000000" stroke="none" font-family="Arial" font-size="13px" font-style="normal" font-weight="bold" text-decoration="none" x="689.234130859375" y="887.5">tại quầy</text></g></g><g transform="translate(-70,-38) scale(1,1)"><path fill="#C0C0C0" stroke="none" d="M 359 795 C 359 783.954304 391.2354944 775 431 775 C 470.7645056 775 503 783.954304 503 795 C 503 806.045696 470.7645056 815 431 815 C 391.2354944 815 359 806.045696 359 795 Z" opacity="0.2"/></g><g transform="translate(-70,-38) scale(1,1)"><path fill="#ffffff" stroke="none" d="M 352 788 C 352 776.954304 384.2354944 768 424 768 C 463.7645056 768 496 776.954304 496 788 C 496 799.045696 463.7645056 808 424 808 C 384.2354944 808 352 799.045696 352 788 Z"/></g><g transform="translate(-70,-38) scale(1,1)"><path fill="none" stroke="#000000" d="M 352 788 C 352 776.954304 384.2354944 768 424 768 C 463.7645056 768 496 776.954304 496 788 C 496 799.045696 463.7645056 808 424 808 C 384.2354944 808 352 799.045696 352 788 Z" stroke-miterlimit="10"/></g><g transform="translate(-70,-38) scale(1,1)"><g><path fill="none" stroke="none"/><text fill="#000000" stroke="none" font-family="Arial" font-size="13px" font-style="normal" font-weight="bold" text-decoration="none" x="391.11279296875" y="795">Thanh toán</text></g></g><g transform="translate(-70,-38) scale(1,1)"><path fill="none" stroke="#000000" d="M 647 793 L 497 790" stroke-miterlimit="10"/></g><g transform="translate(-70,-38) scale(1,1)"><path fill="#FFFFFF" stroke="none" d="M 517.489632908618 781.989073507385 L 497 790 L 517.1529388202218 798.8237779271918"/></g><g transform="translate(-70,-38) scale(1,1)"><path fill="none" stroke="#000000" d="M 517.489632908618 781.989073507385 L 497 790 L 517.1529388202218 798.8237779271918 L 517.489632908618 781.989073507385" stroke-miterlimit="10"/></g><g transform="translate(-70,-38) scale(1,1)"><path fill="none" stroke="#000000" d="M 647 855 L 494 809" stroke-miterlimit="10"/></g><g transform="translate(-70,-38) scale(1,1)"><path fill="#FFFFFF" stroke="none" d="M 515.8886753827101 806.7895950619073 L 494 809 L 511.04062311519885 822.9146384734117"/></g><g transform="translate(-70,-38) scale(1,1)"><path fill="none" stroke="#000000" d="M 515.8886753827101 806.7895950619073 L 494 809 L 511.04062311519885 822.9146384734117 L 515.8886753827101 806.7895950619073" stroke-miterlimit="10"/></g><g transform="translate(-70,-38) scale(1,1)"><path fill="none" stroke="#000000" d="M 184 421 L 410 767" stroke-miterlimit="10"/></g><g transform="translate(-70,-38) scale(1,1)"><path fill="#ffffff" stroke="none" d="M 143.32072727272728 97.68 C 143.32072727272728 92.886167936 147.20656959767274 89 152 89 C 156.79343040232726 89 160.67927272727272 92.886167936 160.67927272727272 97.68 C 160.67927272727272 102.473832064 156.79343040232726 106.36 152 106.36 C 147.20656959767274 106.36 143.32072727272728 102.473832064 143.32072727272728 97.68 Z"/></g><g transform="translate(-70,-38) scale(1,1)"><path fill="none" stroke="#000000" d="M 143.32072727272728 97.68 C 143.32072727272728 92.886167936 147.20656959767274 89 152 89 C 156.79343040232726 89 160.67927272727272 92.886167936 160.67927272727272 97.68 C 160.67927272727272 102.473832064 156.79343040232726 106.36 152 106.36 C 147.20656959767274 106.36 143.32072727272728 102.473832064 143.32072727272728 97.68 Z" stroke-miterlimit="10"/></g><g transform="translate(-70,-38) scale(1,1)"><path fill="none" stroke="#000000" d="M 152 106.36 L 152 123.64" stroke-miterlimit="10"/></g><g transform="translate(-70,-38) scale(1,1)"><path fill="none" stroke="#000000" d="M 142.81018181818183 112.84 L 161.18981818181817 112.84" stroke-miterlimit="10"/></g><g transform="translate(-70,-38) scale(1,1)"><path fill="none" stroke="#000000" d="M 152 123.64 L 139.23636363636365 141" stroke-miterlimit="10"/></g><g transform="translate(-70,-38) scale(1,1)"><path fill="none" stroke="#000000" d="M 152 123.64 L 164.76363636363635 141" stroke-miterlimit="10"/></g><g transform="translate(-70,-38) scale(1,1)"><g><path fill="none" stroke="none"/><text fill="#000000" stroke="none" font-family="Arial" font-size="13px" font-style="normal" font-weight="bold" text-decoration="none" x="117.3671875" y="161.5">Người dùng</text><text fill="#000000" stroke="none" font-family="Arial" font-size="13px" font-style="normal" font-weight="bold" text-decoration="none" x="118.02099609375" y="174.5">đã xác thực</text></g></g><g transform="translate(-70,-38) scale(1,1)"><path fill="none" stroke="#000000" d="M 201 134 L 351 133" stroke-miterlimit="10"/></g><g transform="translate(-70,-38) scale(1,1)"><path fill="none" stroke="#000000" d="M 153 327 L 152 181" stroke-miterlimit="10"/></g><g transform="translate(-70,-38) scale(1,1)"><path fill="#FFFFFF" stroke="none" d="M 160.55804949607509 201.26720969504015 L 152 181 L 143.72037342131216 201.3825362434974"/></g><g transform="translate(-70,-38) scale(1,1)"><path fill="none" stroke="#000000" d="M 160.55804949607509 201.26720969504015 L 152 181 L 143.72037342131216 201.3825362434974 L 160.55804949607509 201.26720969504015" stroke-miterlimit="10"/></g><g transform="translate(-70,-38) scale(1,1)"><path fill="none" stroke="#000000" d="M 127 1144 L 80 1104 L 80 224 L 114 181" stroke-miterlimit="10"/></g><g transform="translate(-70,-38) scale(1,1)"><path fill="#FFFFFF" stroke="none" d="M 107.99751757031906 202.1653066285696 L 114 181 L 94.78947212706537 191.72173581297363"/></g><g transform="translate(-70,-38) scale(1,1)"><path fill="none" stroke="#000000" d="M 107.99751757031906 202.1653066285696 L 114 181 L 94.78947212706537 191.72173581297363 L 107.99751757031906 202.1653066285696" stroke-miterlimit="10"/></g><g transform="translate(-70,-38) scale(1,1)"><path fill="#C0C0C0" stroke="none" d="M 599 963 C 599 947.5360256 634.817216 935 679 935 C 723.182784 935 759 947.5360256 759 963 C 759 978.4639744 723.182784 991 679 991 C 634.817216 991 599 978.4639744 599 963 Z" opacity="0.2"/></g><g transform="translate(-70,-38) scale(1,1)"><path fill="#ffffff" stroke="none" d="M 592 956 C 592 940.5360256 627.817216 928 672 928 C 716.182784 928 752 940.5360256 752 956 C 752 971.4639744 716.182784 984 672 984 C 627.817216 984 592 971.4639744 592 956 Z"/></g><g transform="translate(-70,-38) scale(1,1)"><path fill="none" stroke="#000000" d="M 592 956 C 592 940.5360256 627.817216 928 672 928 C 716.182784 928 752 940.5360256 752 956 C 752 971.4639744 716.182784 984 672 984 C 627.817216 984 592 971.4639744 592 956 Z" stroke-miterlimit="10"/></g><g transform="translate(-70,-38) scale(1,1)"><g><path fill="none" stroke="none"/><text fill="#000000" stroke="none" font-family="Arial" font-size="13px" font-style="normal" font-weight="bold" text-decoration="none" x="632.974609375" y="956.5">Đổi ghế trong</text><text fill="#000000" stroke="none" font-family="Arial" font-size="13px" font-style="normal" font-weight="bold" text-decoration="none" x="638.398681640625" y="969.5">một chuyến</text></g></g><g transform="translate(-70,-38) scale(1,1)"><path fill="#C0C0C0" stroke="none" d="M 511 1048 C 511 1038.6111584 536.0720512 1031 567 1031 C 597.9279488 1031 623 1038.6111584 623 1048 C 623 1057.3888416 597.9279488 1065 567 1065 C 536.0720512 1065 511 1057.3888416 511 1048 Z" opacity="0.2"/></g><g transform="translate(-70,-38) scale(1,1)"><path fill="#ffffff" stroke="none" d="M 504 1041 C 504 1031.6111584 529.0720512 1024 560 1024 C 590.9279488 1024 616 1031.6111584 616 1041 C 616 1050.3888416 590.9279488 1058 560 1058 C 529.0720512 1058 504 1050.3888416 504 1041 Z"/></g><g transform="translate(-70,-38) scale(1,1)"><path fill="none" stroke="#000000" d="M 504 1041 C 504 1031.6111584 529.0720512 1024 560 1024 C 590.9279488 1024 616 1031.6111584 616 1041 C 616 1050.3888416 590.9279488 1058 560 1058 C 529.0720512 1058 504 1050.3888416 504 1041 Z" stroke-miterlimit="10"/></g><g transform="translate(-70,-38) scale(1,1)"><g><path fill="none" stroke="none"/><text fill="#000000" stroke="none" font-family="Arial" font-size="13px" font-style="normal" font-weight="bold" text-decoration="none" x="527.48095703125" y="1048">Đổi chuyến</text></g></g><g transform="translate(-70,-38) scale(1,1)"><path fill="none" stroke="#000000" d="M 173 421 L 370 895" stroke-miterlimit="10"/></g><g transform="translate(-70,-38) scale(1,1)"><path fill="#C0C0C0" stroke="none" d="M 327 328 C 327 318.6111584 378.7111056 311 442.5 311 C 506.2888944 311 558 318.6111584 558 328 C 558 337.3888416 506.2888944 345 442.5 345 C 378.7111056 345 327 337.3888416 327 328 Z" opacity="0.2"/></g><g transform="translate(-70,-38) scale(1,1)"><path fill="#ffffff" stroke="none" d="M 320 321 C 320 311.6111584 371.7111056 304 435.5 304 C 499.2888944 304 551 311.6111584 551 321 C 551 330.3888416 499.2888944 338 435.5 338 C 371.7111056 338 320 330.3888416 320 321 Z"/></g><g transform="translate(-70,-38) scale(1,1)"><path fill="none" stroke="#000000" d="M 320 321 C 320 311.6111584 371.7111056 304 435.5 304 C 499.2888944 304 551 311.6111584 551 321 C 551 330.3888416 499.2888944 338 435.5 338 C 371.7111056 338 320 330.3888416 320 321 Z" stroke-miterlimit="10"/></g><g transform="translate(-70,-38) scale(1,1)"><g><path fill="none" stroke="none"/><text fill="#000000" stroke="none" font-family="Arial" font-size="13px" font-style="normal" font-weight="bold" text-decoration="none" x="363.59375" y="328">Chọn chuyến xe muốn đi</text></g></g><g transform="translate(-70,-38) scale(1,1)"><path fill="#C0C0C0" stroke="none" d="M 639 336 C 639 326.6111584 678.3989376 319 727 319 C 775.6010624 319 815 326.6111584 815 336 C 815 345.3888416 775.6010624 353 727 353 C 678.3989376 353 639 345.3888416 639 336 Z" opacity="0.2"/></g><g transform="translate(-70,-38) scale(1,1)"><path fill="#ffffff" stroke="none" d="M 632 329 C 632 319.6111584 671.3989376 312 720 312 C 768.6010624 312 808 319.6111584 808 329 C 808 338.3888416 768.6010624 346 720 346 C 671.3989376 346 632 338.3888416 632 329 Z"/></g><g transform="translate(-70,-38) scale(1,1)"><path fill="none" stroke="#000000" d="M 632 329 C 632 319.6111584 671.3989376 312 720 312 C 768.6010624 312 808 319.6111584 808 329 C 808 338.3888416 768.6010624 346 720 346 C 671.3989376 346 632 338.3888416 632 329 Z" stroke-miterlimit="10"/></g><g transform="translate(-70,-38) scale(1,1)"><g><path fill="none" stroke="none"/><text fill="#000000" stroke="none" font-family="Arial" font-size="13px" font-style="normal" font-weight="bold" text-decoration="none" x="666.1591796875" y="336">Chọn chuyến khác</text></g></g><g transform="translate(-70,-38) scale(1,1)"><path fill="#C0C0C0" stroke="none" d="M 663 424 C 663 414.6111584 692.7730607999999 407 729.5 407 C 766.2269392000001 407 796 414.6111584 796 424 C 796 433.3888416 766.2269392000001 441 729.5 441 C 692.7730607999999 441 663 433.3888416 663 424 Z" opacity="0.2"/></g><g transform="translate(-70,-38) scale(1,1)"><path fill="#ffffff" stroke="none" d="M 656 417 C 656 407.6111584 685.7730607999999 400 722.5 400 C 759.2269392000001 400 789 407.6111584 789 417 C 789 426.3888416 759.2269392000001 434 722.5 434 C 685.7730607999999 434 656 426.3888416 656 417 Z"/></g><g transform="translate(-70,-38) scale(1,1)"><path fill="none" stroke="#000000" d="M 656 417 C 656 407.6111584 685.7730607999999 400 722.5 400 C 759.2269392000001 400 789 407.6111584 789 417 C 789 426.3888416 759.2269392000001 434 722.5 434 C 685.7730607999999 434 656 426.3888416 656 417 Z" stroke-miterlimit="10"/></g><g transform="translate(-70,-38) scale(1,1)"><g><path fill="none" stroke="none"/><text fill="#000000" stroke="none" font-family="Arial" font-size="13px" font-style="normal" font-weight="bold" text-decoration="none" x="683.115966796875" y="424">Huỷ giao dịch</text></g></g><g transform="translate(-70,-38) scale(1,1)"><path fill="none" stroke="#000000" d="M 591 944 L 430 921" stroke-miterlimit="10" stroke-dasharray="3"/></g><g transform="translate(-70,-38) scale(1,1)"><path fill="none" stroke="#000000" d="M 440.6558505397089 918.2700092902382 L 430 921 L 439.46521911938726 926.6044292324897" stroke-miterlimit="10"/></g><g transform="translate(-70,-38) scale(1,1)"><g><path fill="none" stroke="none"/><text fill="#000000" stroke="none" font-family="Arial" font-size="13px" font-style="normal" font-weight="normal" text-decoration="none" x="495.5" y="924.5">«extend»</text></g></g><g transform="translate(-70,-38) scale(1,1)"><path fill="none" stroke="#000000" d="M 534 1023 L 404 931" stroke-miterlimit="10" stroke-dasharray="3"/></g><g transform="translate(-70,-38) scale(1,1)"><path fill="none" stroke="#000000" d="M 414.7272062329995 933.434552614896 L 404 931 L 409.86379160739216 940.3067689336889" stroke-miterlimit="10"/></g><g transform="translate(-70,-38) scale(1,1)"><g><path fill="none" stroke="none"/><text fill="#000000" stroke="none" font-family="Arial" font-size="13px" font-style="normal" font-weight="normal" text-decoration="none" x="478.5" y="979.5">«extend»</text></g></g><g transform="translate(-70,-38) scale(1,1)"><path fill="none" stroke="#000000" d="M 642 347 L 486 383" stroke-miterlimit="10" stroke-dasharray="3"/></g><g transform="translate(-70,-38) scale(1,1)"><path fill="none" stroke="#000000" d="M 494.95587081991863 376.61310890519263 L 486 383 L 496.84897099203346 384.8165429843569" stroke-miterlimit="10"/></g><g transform="translate(-70,-38) scale(1,1)"><g><path fill="none" stroke="none"/><text fill="#000000" stroke="none" font-family="Arial" font-size="13px" font-style="normal" font-weight="normal" text-decoration="none" x="535.5" y="355.5">«extend»</text></g></g><g transform="translate(-70,-38) scale(1,1)"><path fill="none" stroke="#000000" d="M 655 414 L 514 406" stroke-miterlimit="10" stroke-dasharray="3"/></g><g transform="translate(-70,-38) scale(1,1)"><path fill="none" stroke="#000000" d="M 524.3848110222493 402.37292128122806 L 514 406 L 523.9079022531143 410.7784383372323" stroke-miterlimit="10"/></g><g transform="translate(-70,-38) scale(1,1)"><g><path fill="none" stroke="none"/><text fill="#000000" stroke="none" font-family="Arial" font-size="13px" font-style="normal" font-weight="normal" text-decoration="none" x="559.5" y="427.5">«extend»</text></g></g><g transform="translate(-70,-38) scale(1,1)"><path fill="none" stroke="#000000" d="M 197 366 L 339 339" stroke-miterlimit="10"/></g><g transform="translate(-70,-38) scale(1,1)"><path fill="#ffffff" stroke="none" d="M 983.4493893821023 761.6800000000001 C 983.4493893821023 756.8861679360001 987.3352317070477 753 992.128662109375 753 C 996.9220925117023 753 1000.8079348366477 756.8861679360001 1000.8079348366477 761.6800000000001 C 1000.8079348366477 766.473832064 996.9220925117023 770.36 992.128662109375 770.36 C 987.3352317070477 770.36 983.4493893821023 766.473832064 983.4493893821023 761.6800000000001 Z"/></g><g transform="translate(-70,-38) scale(1,1)"><path fill="none" stroke="#000000" d="M 983.4493893821023 761.6800000000001 C 983.4493893821023 756.8861679360001 987.3352317070477 753 992.128662109375 753 C 996.9220925117023 753 1000.8079348366477 756.8861679360001 1000.8079348366477 761.6800000000001 C 1000.8079348366477 766.473832064 996.9220925117023 770.36 992.128662109375 770.36 C 987.3352317070477 770.36 983.4493893821023 766.473832064 983.4493893821023 761.6800000000001 Z" stroke-miterlimit="10"/></g><g transform="translate(-70,-38) scale(1,1)"><path fill="none" stroke="#000000" d="M 992.128662109375 770.36 L 992.128662109375 787.64" stroke-miterlimit="10"/></g><g transform="translate(-70,-38) scale(1,1)"><path fill="none" stroke="#000000" d="M 982.9388439275568 776.84 L 1001.3184802911932 776.84" stroke-miterlimit="10"/></g><g transform="translate(-70,-38) scale(1,1)"><path fill="none" stroke="#000000" d="M 992.128662109375 787.64 L 979.3650257457386 805" stroke-miterlimit="10"/></g><g transform="translate(-70,-38) scale(1,1)"><path fill="none" stroke="#000000" d="M 992.128662109375 787.64 L 1004.8922984730114 805" stroke-miterlimit="10"/></g><g transform="translate(-70,-38) scale(1,1)"><g><path fill="none" stroke="none"/><text fill="#000000" stroke="none" font-family="Arial" font-size="13px" font-style="normal" font-weight="bold" text-decoration="none" x="955.324951171875" y="825.5">Ngân Lượng</text></g></g><g transform="translate(-70,-38) scale(1,1)"><path fill="none" stroke="#000000" d="M 200 1168 L 311 1150" stroke-miterlimit="10"/></g><g transform="translate(-70,-38) scale(1,1)"><path fill="none" stroke="#000000" d="M 200 1179 L 319 1194" stroke-miterlimit="10"/></g><g transform="translate(-70,-38) scale(1,1)"><path fill="#C0C0C0" stroke="none" d="M 319 233 C 319 218.6405952 365.5623808 207 423 207 C 480.4376192 207 527 218.6405952 527 233 C 527 247.3594048 480.4376192 259 423 259 C 365.5623808 259 319 247.3594048 319 233 Z" opacity="0.2"/></g><g transform="translate(-70,-38) scale(1,1)"><path fill="#ffffff" stroke="none" d="M 312 226 C 312 211.6405952 358.5623808 200 416 200 C 473.4376192 200 520 211.6405952 520 226 C 520 240.3594048 473.4376192 252 416 252 C 358.5623808 252 312 240.3594048 312 226 Z"/></g><g transform="translate(-70,-38) scale(1,1)"><path fill="none" stroke="#000000" d="M 312 226 C 312 211.6405952 358.5623808 200 416 200 C 473.4376192 200 520 211.6405952 520 226 C 520 240.3594048 473.4376192 252 416 252 C 358.5623808 252 312 240.3594048 312 226 Z" stroke-miterlimit="10"/></g><g transform="translate(-70,-38) scale(1,1)"><g><path fill="none" stroke="none"/><text fill="#000000" stroke="none" font-family="Arial" font-size="13px" font-style="normal" font-weight="bold" text-decoration="none" x="361.432373046875" y="226.5">Cung cấp thông tin</text><text fill="#000000" stroke="none" font-family="Arial" font-size="13px" font-style="normal" font-weight="bold" text-decoration="none" x="392.869140625" y="239.5">cá nhân</text></g></g><g transform="translate(-70,-38) scale(1,1)"><path fill="none" stroke="#000000" d="M 197 349 L 368 253" stroke-miterlimit="10"/></g><g transform="translate(-70,-38) scale(1,1)"><path fill="#C0C0C0" stroke="none" d="M 311 408 C 311 398.6111584 357.7862384 391 415.5 391 C 473.2137616 391 520 398.6111584 520 408 C 520 417.3888416 473.2137616 425 415.5 425 C 357.7862384 425 311 417.3888416 311 408 Z" opacity="0.2"/></g><g transform="translate(-70,-38) scale(1,1)"><path fill="#ffffff" stroke="none" d="M 304 401 C 304 391.6111584 350.7862384 384 408.5 384 C 466.2137616 384 513 391.6111584 513 401 C 513 410.3888416 466.2137616 418 408.5 418 C 350.7862384 418 304 410.3888416 304 401 Z"/></g><g transform="translate(-70,-38) scale(1,1)"><path fill="none" stroke="#000000" d="M 304 401 C 304 391.6111584 350.7862384 384 408.5 384 C 466.2137616 384 513 391.6111584 513 401 C 513 410.3888416 466.2137616 418 408.5 418 C 350.7862384 418 304 410.3888416 304 401 Z" stroke-miterlimit="10"/></g><g transform="translate(-70,-38) scale(1,1)"><g><path fill="none" stroke="none"/><text fill="#000000" stroke="none" font-family="Arial" font-size="13px" font-style="normal" font-weight="bold" text-decoration="none" x="343.81103515625" y="408">Chọn ghế trống để đặt</text></g></g><g transform="translate(-70,-38) scale(1,1)"><path fill="none" stroke="#000000" d="M 197 379 L 303 390" stroke-miterlimit="10"/></g><g transform="translate(-70,-38) scale(1,1)"><path fill="#C0C0C0" stroke="none" d="M 351 507 C 351 491.5360256 401.1441024 479 463 479 C 524.8558976 479 575 491.5360256 575 507 C 575 522.4639744 524.8558976 535 463 535 C 401.1441024 535 351 522.4639744 351 507 Z" opacity="0.2"/></g><g transform="translate(-70,-38) scale(1,1)"><path fill="#ffffff" stroke="none" d="M 344 500 C 344 484.5360256 394.1441024 472 456 472 C 517.8558976 472 568 484.5360256 568 500 C 568 515.4639744 517.8558976 528 456 528 C 394.1441024 528 344 515.4639744 344 500 Z"/></g><g transform="translate(-70,-38) scale(1,1)"><path fill="none" stroke="#000000" d="M 344 500 C 344 484.5360256 394.1441024 472 456 472 C 517.8558976 472 568 484.5360256 568 500 C 568 515.4639744 517.8558976 528 456 528 C 394.1441024 528 344 515.4639744 344 500 Z" stroke-miterlimit="10"/></g><g transform="translate(-70,-38) scale(1,1)"><g><path fill="none" stroke="none"/><text fill="#000000" stroke="none" font-family="Arial" font-size="13px" font-style="normal" font-weight="bold" text-decoration="none" x="391.66650390625" y="500.5">Nhận thông báo thanh</text><text fill="#000000" stroke="none" font-family="Arial" font-size="13px" font-style="normal" font-weight="bold" text-decoration="none" x="409.37646484375" y="513.5">toán thành công</text></g></g><g transform="translate(-70,-38) scale(1,1)"><path fill="none" stroke="#000000" d="M 197 392 L 386 471" stroke-miterlimit="10"/></g><g transform="translate(-70,-38) scale(1,1)"><path fill="#C0C0C0" stroke="none" d="M 655 488 C 655 478.6111584 690.817216 471 735 471 C 779.182784 471 815 478.6111584 815 488 C 815 497.3888416 779.182784 505 735 505 C 690.817216 505 655 497.3888416 655 488 Z" opacity="0.2"/></g><g transform="translate(-70,-38) scale(1,1)"><path fill="#ffffff" stroke="none" d="M 648 481 C 648 471.6111584 683.817216 464 728 464 C 772.182784 464 808 471.6111584 808 481 C 808 490.3888416 772.182784 498 728 498 C 683.817216 498 648 490.3888416 648 481 Z"/></g><g transform="translate(-70,-38) scale(1,1)"><path fill="none" stroke="#000000" d="M 648 481 C 648 471.6111584 683.817216 464 728 464 C 772.182784 464 808 471.6111584 808 481 C 808 490.3888416 772.182784 498 728 498 C 683.817216 498 648 490.3888416 648 481 Z" stroke-miterlimit="10"/></g><g transform="translate(-70,-38) scale(1,1)"><g><path fill="none" stroke="none"/><text fill="#000000" stroke="none" font-family="Arial" font-size="13px" font-style="normal" font-weight="bold" text-decoration="none" x="678.8564453125" y="488">Nhận bằng email</text></g></g><g transform="translate(-70,-38) scale(1,1)"><path fill="#C0C0C0" stroke="none" d="M 647 552 C 647 542.6111584 688.1897984 535 739 535 C 789.8102016 535 831 542.6111584 831 552 C 831 561.3888416 789.8102016 569 739 569 C 688.1897984 569 647 561.3888416 647 552 Z" opacity="0.2"/></g><g transform="translate(-70,-38) scale(1,1)"><path fill="#ffffff" stroke="none" d="M 640 545 C 640 535.6111584 681.1897984 528 732 528 C 782.8102016 528 824 535.6111584 824 545 C 824 554.3888416 782.8102016 562 732 562 C 681.1897984 562 640 554.3888416 640 545 Z"/></g><g transform="translate(-70,-38) scale(1,1)"><path fill="none" stroke="#000000" d="M 640 545 C 640 535.6111584 681.1897984 528 732 528 C 782.8102016 528 824 535.6111584 824 545 C 824 554.3888416 782.8102016 562 732 562 C 681.1897984 562 640 554.3888416 640 545 Z" stroke-miterlimit="10"/></g><g transform="translate(-70,-38) scale(1,1)"><g><path fill="none" stroke="none"/><text fill="#000000" stroke="none" font-family="Arial" font-size="13px" font-style="normal" font-weight="bold" text-decoration="none" x="675.25830078125" y="552">Nhận bằng tin nhắn</text></g></g><g transform="translate(-70,-38) scale(1,1)"><path fill="none" stroke="#000000" d="M 647 487 L 569 492" stroke-miterlimit="10"/></g><g transform="translate(-70,-38) scale(1,1)"><path fill="#FFFFFF" stroke="none" d="M 588.7451417775445 482.29797051206987 L 569 492 L 589.8222944885788 499.1015528042043"/></g><g transform="translate(-70,-38) scale(1,1)"><path fill="none" stroke="#000000" d="M 588.7451417775445 482.29797051206987 L 569 492 L 589.8222944885788 499.1015528042043 L 588.7451417775445 482.29797051206987" stroke-miterlimit="10"/></g><g transform="translate(-70,-38) scale(1,1)"><path fill="none" stroke="#000000" d="M 639 530 L 569 518" stroke-miterlimit="10"/></g><g transform="translate(-70,-38) scale(1,1)"><path fill="#FFFFFF" stroke="none" d="M 590.4556293758778 513.1362598666286 L 569 518 L 587.6106046565446 529.7322373960724"/></g><g transform="translate(-70,-38) scale(1,1)"><path fill="none" stroke="#000000" d="M 590.4556293758778 513.1362598666286 L 569 518 L 587.6106046565446 529.7322373960724 L 590.4556293758778 513.1362598666286" stroke-miterlimit="10"/></g><g transform="translate(-70,-38) scale(1,1)"><path fill="#ffffff" stroke="none" d="M 985.0739011008523 433.68 C 985.0739011008523 428.886167936 988.9597434257977 425 993.753173828125 425 C 998.5466042304523 425 1002.4324465553977 428.886167936 1002.4324465553977 433.68 C 1002.4324465553977 438.473832064 998.5466042304523 442.36 993.753173828125 442.36 C 988.9597434257977 442.36 985.0739011008523 438.473832064 985.0739011008523 433.68 Z"/></g><g transform="translate(-70,-38) scale(1,1)"><path fill="none" stroke="#000000" d="M 985.0739011008523 433.68 C 985.0739011008523 428.886167936 988.9597434257977 425 993.753173828125 425 C 998.5466042304523 425 1002.4324465553977 428.886167936 1002.4324465553977 433.68 C 1002.4324465553977 438.473832064 998.5466042304523 442.36 993.753173828125 442.36 C 988.9597434257977 442.36 985.0739011008523 438.473832064 985.0739011008523 433.68 Z" stroke-miterlimit="10"/></g><g transform="translate(-70,-38) scale(1,1)"><path fill="none" stroke="#000000" d="M 993.753173828125 442.36 L 993.753173828125 459.64" stroke-miterlimit="10"/></g><g transform="translate(-70,-38) scale(1,1)"><path fill="none" stroke="#000000" d="M 984.5633556463068 448.84 L 1002.9429920099432 448.84" stroke-miterlimit="10"/></g><g transform="translate(-70,-38) scale(1,1)"><path fill="none" stroke="#000000" d="M 993.753173828125 459.64 L 980.9895374644886 477" stroke-miterlimit="10"/></g><g transform="translate(-70,-38) scale(1,1)"><path fill="none" stroke="#000000" d="M 993.753173828125 459.64 L 1006.5168101917614 477" stroke-miterlimit="10"/></g><g transform="translate(-70,-38) scale(1,1)"><g><path fill="none" stroke="none"/><text fill="#000000" stroke="none" font-family="Arial" font-size="13px" font-style="normal" font-weight="bold" text-decoration="none" x="966.293212890625" y="497.5">SendGrid</text></g></g><g transform="translate(-70,-38) scale(1,1)"><path fill="#ffffff" stroke="none" d="M 984.4093503196023 529.6800000000001 C 984.4093503196023 524.8861679360001 988.2951926445477 521 993.088623046875 521 C 997.8820534492023 521 1001.7678957741477 524.8861679360001 1001.7678957741477 529.6800000000001 C 1001.7678957741477 534.473832064 997.8820534492023 538.36 993.088623046875 538.36 C 988.2951926445477 538.36 984.4093503196023 534.473832064 984.4093503196023 529.6800000000001 Z"/></g><g transform="translate(-70,-38) scale(1,1)"><path fill="none" stroke="#000000" d="M 984.4093503196023 529.6800000000001 C 984.4093503196023 524.8861679360001 988.2951926445477 521 993.088623046875 521 C 997.8820534492023 521 1001.7678957741477 524.8861679360001 1001.7678957741477 529.6800000000001 C 1001.7678957741477 534.473832064 997.8820534492023 538.36 993.088623046875 538.36 C 988.2951926445477 538.36 984.4093503196023 534.473832064 984.4093503196023 529.6800000000001 Z" stroke-miterlimit="10"/></g><g transform="translate(-70,-38) scale(1,1)"><path fill="none" stroke="#000000" d="M 993.088623046875 538.36 L 993.088623046875 555.64" stroke-miterlimit="10"/></g><g transform="translate(-70,-38) scale(1,1)"><path fill="none" stroke="#000000" d="M 983.8988048650568 544.84 L 1002.2784412286932 544.84" stroke-miterlimit="10"/></g><g transform="translate(-70,-38) scale(1,1)"><path fill="none" stroke="#000000" d="M 993.088623046875 555.64 L 980.3249866832386 573" stroke-miterlimit="10"/></g><g transform="translate(-70,-38) scale(1,1)"><path fill="none" stroke="#000000" d="M 993.088623046875 555.64 L 1005.8522594105114 573" stroke-miterlimit="10"/></g><g transform="translate(-70,-38) scale(1,1)"><g><path fill="none" stroke="none"/><text fill="#000000" stroke="none" font-family="Arial" font-size="13px" font-style="normal" font-weight="bold" text-decoration="none" x="976.83544921875" y="593.5">Twilio</text></g></g><g transform="translate(-70,-38) scale(1,1)"><path fill="none" stroke="#000000" d="M 967 558 L 825 550" stroke-miterlimit="10"/></g><g transform="translate(-70,-38) scale(1,1)"><path fill="none" stroke="#000000" d="M 959 465 L 809 475" stroke-miterlimit="10"/></g><g transform="translate(-70,-38) scale(1,1)"><path fill="none" stroke="#000000" d="M 935 792 L 769 793" stroke-miterlimit="10"/></g></g></svg>