<svg version="1.1" xmlns="http://www.w3.org/2000/svg" xmlns:xlink="http://www.w3.org/1999/xlink" width="1212" height="1180"><defs/><g><g transform="translate(-30,-46) scale(1,1)"><rect fill="#ffffff" stroke="none" x="40" y="56" width="416" height="21"/></g><g transform="translate(-30,-46) scale(1,1)"><path fill="none" stroke="#000000" d="M 40 56 L 456 56 L 456 77 L 40 77 L 40 56 Z Z" stroke-miterlimit="10" stroke-width="2"/></g><g transform="translate(-30,-46) scale(1,1)"><path fill="none" stroke="#000000" d="M 40 1216 L 40 56 L 456 56 L 456 1216" stroke-miterlimit="10" stroke-width="2"/></g><g transform="translate(-30,-46) scale(1,1)"><g><path fill="none" stroke="none"/><text fill="#000000" stroke="none" font-family="Arial" font-size="13px" font-style="normal" font-weight="normal" text-decoration="none" x="213.3037109375" y="73">Khách hàng</text></g></g><g transform="translate(-30,-46) scale(1,1)"><rect fill="#ffffff" stroke="none" x="456" y="56" width="248" height="21"/></g><g transform="translate(-30,-46) scale(1,1)"><path fill="none" stroke="#000000" d="M 456 56 L 704 56 L 704 77 L 456 77 L 456 56 Z Z" stroke-miterlimit="10" stroke-width="2"/></g><g transform="translate(-30,-46) scale(1,1)"><path fill="none" stroke="#000000" d="M 456 1216 L 456 56 L 704 56 L 704 1216" stroke-miterlimit="10" stroke-width="2"/></g><g transform="translate(-30,-46) scale(1,1)"><g><path fill="none" stroke="none"/><text fill="#000000" stroke="none" font-family="Arial" font-size="13px" font-style="normal" font-weight="normal" text-decoration="none" x="543.74853515625" y="73">Trang đặt vé</text></g></g><g transform="translate(-30,-46) scale(1,1)"><rect fill="#ffffff" stroke="none" x="1008" y="56" width="224" height="21"/></g><g transform="translate(-30,-46) scale(1,1)"><path fill="none" stroke="#000000" d="M 1008 56 L 1232 56 L 1232 77 L 1008 77 L 1008 56 Z Z" stroke-miterlimit="10" stroke-width="2"/></g><g transform="translate(-30,-46) scale(1,1)"><path fill="none" stroke="#000000" d="M 1008 1216 L 1008 56 L 1232 56 L 1232 1216" stroke-miterlimit="10" stroke-width="2"/></g><g transform="translate(-30,-46) scale(1,1)"><g><path fill="none" stroke="none"/><text fill="#000000" stroke="none" font-family="Arial" font-size="13px" font-style="normal" font-weight="normal" text-decoration="none" x="1085.3671875" y="73">Ngân lượng</text></g></g><g transform="translate(-30,-46) scale(1,1)"><rect fill="#ffffff" stroke="none" x="704" y="56" width="304" height="21"/></g><g transform="translate(-30,-46) scale(1,1)"><path fill="none" stroke="#000000" d="M 704 56 L 1008 56 L 1008 77 L 704 77 L 704 56 Z Z" stroke-miterlimit="10" stroke-width="2"/></g><g transform="translate(-30,-46) scale(1,1)"><path fill="none" stroke="#000000" d="M 704 1216 L 704 56 L 1008 56 L 1008 1216" stroke-miterlimit="10" stroke-width="2"/></g><g transform="translate(-30,-46) scale(1,1)"><g><path fill="none" stroke="none"/><text fill="#000000" stroke="none" font-family="Arial" font-size="13px" font-style="normal" font-weight="normal" text-decoration="none" x="827.82275390625" y="73">Controller</text></g></g><g transform="translate(-30,-46) scale(1,1)"><path fill="#C0C0C0" stroke="none" d="M 247 104.5 C 247 99.2532944 251.2532944 95 256.5 95 C 261.7467056 95 266 99.2532944 266 104.5 C 266 109.7467056 261.7467056 114 256.5 114 C 251.2532944 114 247 109.7467056 247 104.5 Z" opacity="0.2"/></g><g transform="translate(-30,-46) scale(1,1)"><path fill="#000000" stroke="none" d="M 240 97.5 C 240 92.2532944 244.2532944 88 249.5 88 C 254.7467056 88 259 92.2532944 259 97.5 C 259 102.7467056 254.7467056 107 249.5 107 C 244.2532944 107 240 102.7467056 240 97.5 Z"/></g><g transform="translate(-30,-46) scale(1,1)"><path fill="#C0C0C0" stroke="none" d="M 209 143 L 309.998046875 143 Q 319.998046875 143 319.998046875 153 L 319.998046875 173 Q 319.998046875 183 309.998046875 183 L 209 183 Q 199 183 199 173 L 199 153 Q 199 143 209 143 Z" opacity="0.2"/></g><g transform="translate(-30,-46) scale(1,1)"><path fill="#ffffff" stroke="none" d="M 202 136 L 302.998046875 136 Q 312.998046875 136 312.998046875 146 L 312.998046875 166 Q 312.998046875 176 302.998046875 176 L 202 176 Q 192 176 192 166 L 192 146 Q 192 136 202 136 Z"/></g><g transform="translate(-30,-46) scale(1,1)"><path fill="none" stroke="#000000" d="M 202 136 L 302.998046875 136 Q 312.998046875 136 312.998046875 146 L 312.998046875 166 Q 312.998046875 176 302.998046875 176 L 202 176 Q 192 176 192 166 L 192 146 Q 192 136 202 136 Z" stroke-miterlimit="10"/></g><g transform="translate(-30,-46) scale(1,1)"><g><path fill="none" stroke="none"/><text fill="#000000" stroke="none" font-family="Arial" font-size="13px" font-style="normal" font-weight="bold" text-decoration="none" x="200.09912109375" y="155.5">Mua vé trực tuyến</text></g></g><g transform="translate(-30,-46) scale(1,1)"><path fill="#C0C0C0" stroke="none" d="M 193 239 L 322.10546875 239 Q 332.10546875 239 332.10546875 249 L 332.10546875 269 Q 332.10546875 279 322.10546875 279 L 193 279 Q 183 279 183 269 L 183 249 Q 183 239 193 239 Z" opacity="0.2"/></g><g transform="translate(-30,-46) scale(1,1)"><path fill="#ffffff" stroke="none" d="M 186 232 L 315.10546875 232 Q 325.10546875 232 325.10546875 242 L 325.10546875 262 Q 325.10546875 272 315.10546875 272 L 186 272 Q 176 272 176 262 L 176 242 Q 176 232 186 232 Z"/></g><g transform="translate(-30,-46) scale(1,1)"><path fill="none" stroke="#000000" d="M 186 232 L 315.10546875 232 Q 325.10546875 232 325.10546875 242 L 325.10546875 262 Q 325.10546875 272 315.10546875 272 L 186 272 Q 176 272 176 262 L 176 242 Q 176 232 186 232 Z" stroke-miterlimit="10"/></g><g transform="translate(-30,-46) scale(1,1)"><g><path fill="none" stroke="none"/><text fill="#000000" stroke="none" font-family="Arial" font-size="13px" font-style="normal" font-weight="bold" text-decoration="none" x="185.505126953125" y="251.5">Điền thông tin cá nhân</text></g></g><g transform="translate(-30,-46) scale(1,1)"><path fill="#C0C0C0" stroke="none" d="M 777 239 L 957.37548828125 239 Q 967.37548828125 239 967.37548828125 249 L 967.37548828125 269 Q 967.37548828125 279 957.37548828125 279 L 777 279 Q 767 279 767 269 L 767 249 Q 767 239 777 239 Z" opacity="0.2"/></g><g transform="translate(-30,-46) scale(1,1)"><path fill="#ffffff" stroke="none" d="M 770 232 L 950.37548828125 232 Q 960.37548828125 232 960.37548828125 242 L 960.37548828125 262 Q 960.37548828125 272 950.37548828125 272 L 770 272 Q 760 272 760 262 L 760 242 Q 760 232 770 232 Z"/></g><g transform="translate(-30,-46) scale(1,1)"><path fill="none" stroke="#000000" d="M 770 232 L 950.37548828125 232 Q 960.37548828125 232 960.37548828125 242 L 960.37548828125 262 Q 960.37548828125 272 950.37548828125 272 L 770 272 Q 760 272 760 262 L 760 242 Q 760 232 770 232 Z" stroke-miterlimit="10"/></g><g transform="translate(-30,-46) scale(1,1)"><g><path fill="none" stroke="none"/><text fill="#000000" stroke="none" font-family="Arial" font-size="13px" font-style="normal" font-weight="bold" text-decoration="none" x="771.6474609375" y="251.5">Ghi nhận thông tin khách hàng</text></g></g><g transform="translate(-30,-46) scale(1,1)"><path fill="#C0C0C0" stroke="none" d="M 521 303 L 669.66259765625 303 Q 679.66259765625 303 679.66259765625 313 L 679.66259765625 333 Q 679.66259765625 343 669.66259765625 343 L 521 343 Q 511 343 511 333 L 511 313 Q 511 303 521 303 Z" opacity="0.2"/></g><g transform="translate(-30,-46) scale(1,1)"><path fill="#ffffff" stroke="none" d="M 514 296 L 662.66259765625 296 Q 672.66259765625 296 672.66259765625 306 L 672.66259765625 326 Q 672.66259765625 336 662.66259765625 336 L 514 336 Q 504 336 504 326 L 504 306 Q 504 296 514 296 Z"/></g><g transform="translate(-30,-46) scale(1,1)"><path fill="none" stroke="#000000" d="M 514 296 L 662.66259765625 296 Q 672.66259765625 296 672.66259765625 306 L 672.66259765625 326 Q 672.66259765625 336 662.66259765625 336 L 514 336 Q 504 336 504 326 L 504 306 Q 504 296 514 296 Z" stroke-miterlimit="10"/></g><g transform="translate(-30,-46) scale(1,1)"><g><path fill="none" stroke="none"/><text fill="#000000" stroke="none" font-family="Arial" font-size="13px" font-style="normal" font-weight="bold" text-decoration="none" x="513.168701171875" y="315.5">Nạp danh sách chuyến xe</text></g></g><g transform="translate(-30,-46) scale(1,1)"><path fill="none" stroke="#000000" d="M 249 107 L 249 136" stroke-miterlimit="10"/></g><g transform="translate(-30,-46) scale(1,1)"><path fill="none" stroke="#000000" d="M 244.790482243984 125.83732514237585 L 249 136 L 253.209517756016 125.83732514237585" stroke-miterlimit="10"/></g><g transform="translate(-30,-46) scale(1,1)"><path fill="none" stroke="#000000" d="M 248 176 L 248 232" stroke-miterlimit="10"/></g><g transform="translate(-30,-46) scale(1,1)"><path fill="none" stroke="#000000" d="M 243.790482243984 221.83732514237585 L 248 232 L 252.209517756016 221.83732514237585" stroke-miterlimit="10"/></g><g transform="translate(-30,-46) scale(1,1)"><path fill="none" stroke="#000000" d="M 325 248 L 760 248" stroke-miterlimit="10"/></g><g transform="translate(-30,-46) scale(1,1)"><path fill="none" stroke="#000000" d="M 749.8373251423759 252.209517756016 L 760 248 L 749.8373251423758 243.790482243984" stroke-miterlimit="10"/></g><g transform="translate(-30,-46) scale(1,1)"><path fill="none" stroke="#000000" d="M 864 272 L 864 308 M 864 308 A 8 8 0 0 1 856 316 L 673 316" stroke-miterlimit="10"/></g><g transform="translate(-30,-46) scale(1,1)"><path fill="none" stroke="#000000" d="M 683.1626748576241 311.790482243984 L 673 316 L 683.1626748576241 320.209517756016" stroke-miterlimit="10"/></g><g transform="translate(-30,-46) scale(1,1)"><path fill="#C0C0C0" stroke="none" d="M 185 359 L 328.5654296875 359 Q 338.5654296875 359 338.5654296875 369 L 338.5654296875 389 Q 338.5654296875 399 328.5654296875 399 L 185 399 Q 175 399 175 389 L 175 369 Q 175 359 185 359 Z" opacity="0.2"/></g><g transform="translate(-30,-46) scale(1,1)"><path fill="#ffffff" stroke="none" d="M 178 352 L 321.5654296875 352 Q 331.5654296875 352 331.5654296875 362 L 331.5654296875 382 Q 331.5654296875 392 321.5654296875 392 L 178 392 Q 168 392 168 382 L 168 362 Q 168 352 178 352 Z"/></g><g transform="translate(-30,-46) scale(1,1)"><path fill="none" stroke="#000000" d="M 178 352 L 321.5654296875 352 Q 331.5654296875 352 331.5654296875 362 L 331.5654296875 382 Q 331.5654296875 392 321.5654296875 392 L 178 392 Q 168 392 168 382 L 168 362 Q 168 352 178 352 Z" stroke-miterlimit="10"/></g><g transform="translate(-30,-46) scale(1,1)"><g><path fill="none" stroke="none"/><text fill="#000000" stroke="none" font-family="Arial" font-size="13px" font-style="normal" font-weight="bold" text-decoration="none" x="177.87646484375" y="371.5">Chọn chuyến xe muốn đi</text></g></g><g transform="translate(-30,-46) scale(1,1)"><path fill="#C0C0C0" stroke="none" d="M 297 607 L 424.65185546875 607 Q 434.65185546875 607 434.65185546875 617 L 434.65185546875 637 Q 434.65185546875 647 424.65185546875 647 L 297 647 Q 287 647 287 637 L 287 617 Q 287 607 297 607 Z" opacity="0.2"/></g><g transform="translate(-30,-46) scale(1,1)"><path fill="#ffffff" stroke="none" d="M 290 600 L 417.65185546875 600 Q 427.65185546875 600 427.65185546875 610 L 427.65185546875 630 Q 427.65185546875 640 417.65185546875 640 L 290 640 Q 280 640 280 630 L 280 610 Q 280 600 290 600 Z"/></g><g transform="translate(-30,-46) scale(1,1)"><path fill="none" stroke="#000000" d="M 290 600 L 417.65185546875 600 Q 427.65185546875 600 427.65185546875 610 L 427.65185546875 630 Q 427.65185546875 640 417.65185546875 640 L 290 640 Q 280 640 280 630 L 280 610 Q 280 600 290 600 Z" stroke-miterlimit="10"/></g><g transform="translate(-30,-46) scale(1,1)"><g><path fill="none" stroke="none"/><text fill="#000000" stroke="none" font-family="Arial" font-size="13px" font-style="normal" font-weight="bold" text-decoration="none" x="289.136962890625" y="619.5">Chọn ghế trống để đặt</text></g></g><g transform="translate(-30,-46) scale(1,1)"><path fill="#C0C0C0" stroke="none" d="M 785 423 L 950.109375 423 Q 960.109375 423 960.109375 433 L 960.109375 453 Q 960.109375 463 950.109375 463 L 785 463 Q 775 463 775 453 L 775 433 Q 775 423 785 423 Z" opacity="0.2"/></g><g transform="translate(-30,-46) scale(1,1)"><path fill="#ffffff" stroke="none" d="M 778 416 L 943.109375 416 Q 953.109375 416 953.109375 426 L 953.109375 446 Q 953.109375 456 943.109375 456 L 778 456 Q 768 456 768 446 L 768 426 Q 768 416 778 416 Z"/></g><g transform="translate(-30,-46) scale(1,1)"><path fill="none" stroke="#000000" d="M 778 416 L 943.109375 416 Q 953.109375 416 953.109375 426 L 953.109375 446 Q 953.109375 456 943.109375 456 L 778 456 Q 768 456 768 446 L 768 426 Q 768 416 778 416 Z" stroke-miterlimit="10"/></g><g transform="translate(-30,-46) scale(1,1)"><g><path fill="none" stroke="none"/><text fill="#000000" stroke="none" font-family="Arial" font-size="13px" font-style="normal" font-weight="bold" text-decoration="none" x="779.3173828125" y="435.5">Kiểm tra số lượng ghế trống</text></g></g><g transform="translate(-30,-46) scale(1,1)"><path fill="#C0C0C0" stroke="none" d="M 73 607 L 195.6435546875 607 Q 205.6435546875 607 205.6435546875 617 L 205.6435546875 637 Q 205.6435546875 647 195.6435546875 647 L 73 647 Q 63 647 63 637 L 63 617 Q 63 607 73 607 Z" opacity="0.2"/></g><g transform="translate(-30,-46) scale(1,1)"><path fill="#ffffff" stroke="none" d="M 66 600 L 188.6435546875 600 Q 198.6435546875 600 198.6435546875 610 L 198.6435546875 630 Q 198.6435546875 640 188.6435546875 640 L 66 640 Q 56 640 56 630 L 56 610 Q 56 600 66 600 Z"/></g><g transform="translate(-30,-46) scale(1,1)"><path fill="none" stroke="#000000" d="M 66 600 L 188.6435546875 600 Q 198.6435546875 600 198.6435546875 610 L 198.6435546875 630 Q 198.6435546875 640 188.6435546875 640 L 66 640 Q 56 640 56 630 L 56 610 Q 56 600 66 600 Z" stroke-miterlimit="10"/></g><g transform="translate(-30,-46) scale(1,1)"><g><path fill="none" stroke="none"/><text fill="#000000" stroke="none" font-family="Arial" font-size="13px" font-style="normal" font-weight="bold" text-decoration="none" x="64.81640625" y="619.5">Huỷ giao dịch mua vé</text></g></g><g transform="translate(-30,-46) scale(1,1)"><path fill="#C0C0C0" stroke="none" d="M 135 528.5 L 146.5 519 L 157 528.5 L 146.5 537 L 135 528.5" opacity="0.2"/></g><g transform="translate(-30,-46) scale(1,1)"><path fill="#ffffff" stroke="none" d="M 128 521 L 139 512 L 150 521 L 139 530 L 128 521"/></g><g transform="translate(-30,-46) scale(1,1)"><path fill="none" stroke="#000000" d="M 128 521 L 139 512 L 150 521 L 139 530 L 128 521 L 128 521" stroke-miterlimit="10"/></g><g transform="translate(-30,-46) scale(1,1)"><path fill="none" stroke="#000000" d="M 332 368 L 856 368 M 856 368 A 8 8 0 0 1 864 376 L 864 416" stroke-miterlimit="10"/></g><g transform="translate(-30,-46) scale(1,1)"><path fill="none" stroke="#000000" d="M 859.790482243984 405.83732514237585 L 864 416 L 868.209517756016 405.83732514237585" stroke-miterlimit="10"/></g><g transform="translate(-30,-46) scale(1,1)"><path fill="none" stroke="#000000" d="M 867 456 L 867 512" stroke-miterlimit="10"/></g><g transform="translate(-30,-46) scale(1,1)"><path fill="none" stroke="#000000" d="M 862.790482243984 501.83732514237585 L 867 512 L 871.209517756016 501.83732514237585" stroke-miterlimit="10"/></g><g transform="translate(-30,-46) scale(1,1)"><path fill="none" stroke="#000000" d="M 488 624 L 428 624" stroke-miterlimit="10"/></g><g transform="translate(-30,-46) scale(1,1)"><path fill="none" stroke="#000000" d="M 438.16267485762415 619.790482243984 L 428 624 L 438.16267485762415 628.209517756016" stroke-miterlimit="10"/></g><g transform="translate(-30,-46) scale(1,1)"><path fill="none" stroke="#000000" d="M 856 521 L 150 521" stroke-miterlimit="10"/></g><g transform="translate(-30,-46) scale(1,1)"><path fill="none" stroke="#000000" d="M 160.16267485762415 516.790482243984 L 150 521 L 160.16267485762415 525.209517756016" stroke-miterlimit="10"/></g><g transform="translate(-30,-46) scale(1,1)"><g><path fill="none" stroke="none"/><text fill="#000000" stroke="none" font-family="Arial" font-size="13px" font-style="normal" font-weight="normal" text-decoration="none" x="750.5" y="516.5">[không còn ghế]</text></g></g><g transform="translate(-30,-46) scale(1,1)"><path fill="none" stroke="#000000" d="M 136 530 L 136 600" stroke-miterlimit="10"/></g><g transform="translate(-30,-46) scale(1,1)"><path fill="none" stroke="#000000" d="M 131.790482243984 589.8373251423759 L 136 600 L 140.209517756016 589.8373251423759" stroke-miterlimit="10"/></g><g transform="translate(-30,-46) scale(1,1)"><g><path fill="none" stroke="none"/><text fill="#000000" stroke="none" font-family="Arial" font-size="13px" font-style="normal" font-weight="normal" text-decoration="none" x="62.5" y="563.5">[muốn huỷ]</text></g></g><g transform="translate(-30,-46) scale(1,1)"><path fill="none" stroke="#000000" d="M 864 530 L 864 612 M 864 612 A 8 8 0 0 1 856 620 L 665 620" stroke-miterlimit="10"/></g><g transform="translate(-30,-46) scale(1,1)"><path fill="none" stroke="#000000" d="M 675.1626748576241 615.790482243984 L 665 620 L 675.1626748576241 624.209517756016" stroke-miterlimit="10"/></g><g transform="translate(-30,-46) scale(1,1)"><g><path fill="none" stroke="none"/><text fill="#000000" stroke="none" font-family="Arial" font-size="13px" font-style="normal" font-weight="normal" text-decoration="none" x="871.5" y="572.5">[còn ghế]</text></g></g><g transform="translate(-30,-46) scale(1,1)"><path fill="#C0C0C0" stroke="none" d="M 135 715.5 C 135 708.59644 140.59644 703 147.5 703 C 154.40356 703 160 708.59644 160 715.5 C 160 722.40356 154.40356 728 147.5 728 C 140.59644 728 135 722.40356 135 715.5 Z" opacity="0.2"/></g><g transform="translate(-30,-46) scale(1,1)"><path fill="none" stroke="#000000" d="M 128 708.5 C 128 701.59644 133.59644 696 140.5 696 C 147.40356 696 153 701.59644 153 708.5 C 153 715.40356 147.40356 721 140.5 721 C 133.59644 721 128 715.40356 128 708.5 Z" stroke-miterlimit="10"/></g><g transform="translate(-30,-46) scale(1,1)"><path fill="#000000" stroke="none" d="M 133 708.5 C 133 704.357864 136.357864 701 140.5 701 C 144.642136 701 148 704.357864 148 708.5 C 148 712.642136 144.642136 716 140.5 716 C 136.357864 716 133 712.642136 133 708.5 Z"/></g><g transform="translate(-30,-46) scale(1,1)"><path fill="none" stroke="#000000" d="M 136 640 L 136 696" stroke-miterlimit="10"/></g><g transform="translate(-30,-46) scale(1,1)"><path fill="none" stroke="#000000" d="M 131.790482243984 685.8373251423759 L 136 696 L 140.209517756016 685.8373251423759" stroke-miterlimit="10"/></g><g transform="translate(-30,-46) scale(1,1)"><path fill="#C0C0C0" stroke="none" d="M 297 695 L 418.9072265625 695 Q 428.9072265625 695 428.9072265625 705 L 428.9072265625 725 Q 428.9072265625 735 418.9072265625 735 L 297 735 Q 287 735 287 725 L 287 705 Q 287 695 297 695 Z" opacity="0.2"/></g><g transform="translate(-30,-46) scale(1,1)"><path fill="#ffffff" stroke="none" d="M 290 688 L 411.9072265625 688 Q 421.9072265625 688 421.9072265625 698 L 421.9072265625 718 Q 421.9072265625 728 411.9072265625 728 L 290 728 Q 280 728 280 718 L 280 698 Q 280 688 290 688 Z"/></g><g transform="translate(-30,-46) scale(1,1)"><path fill="none" stroke="#000000" d="M 290 688 L 411.9072265625 688 Q 421.9072265625 688 421.9072265625 698 L 421.9072265625 718 Q 421.9072265625 728 411.9072265625 728 L 290 728 Q 280 728 280 718 L 280 698 Q 280 688 290 688 Z" stroke-miterlimit="10"/></g><g transform="translate(-30,-46) scale(1,1)"><g><path fill="none" stroke="none"/><text fill="#000000" stroke="none" font-family="Arial" font-size="13px" font-style="normal" font-weight="bold" text-decoration="none" x="294.21826171875" y="707.5">Bấm nút thanh toán</text></g></g><g transform="translate(-30,-46) scale(1,1)"><path fill="#C0C0C0" stroke="none" d="M 1065 695 L 1186.9072265625 695 Q 1196.9072265625 695 1196.9072265625 705 L 1196.9072265625 725 Q 1196.9072265625 735 1186.9072265625 735 L 1065 735 Q 1055 735 1055 725 L 1055 705 Q 1055 695 1065 695 Z" opacity="0.2"/></g><g transform="translate(-30,-46) scale(1,1)"><path fill="#ffffff" stroke="none" d="M 1058 688 L 1179.9072265625 688 Q 1189.9072265625 688 1189.9072265625 698 L 1189.9072265625 718 Q 1189.9072265625 728 1179.9072265625 728 L 1058 728 Q 1048 728 1048 718 L 1048 698 Q 1048 688 1058 688 Z"/></g><g transform="translate(-30,-46) scale(1,1)"><path fill="none" stroke="#000000" d="M 1058 688 L 1179.9072265625 688 Q 1189.9072265625 688 1189.9072265625 698 L 1189.9072265625 718 Q 1189.9072265625 728 1179.9072265625 728 L 1058 728 Q 1048 728 1048 718 L 1048 698 Q 1048 688 1058 688 Z" stroke-miterlimit="10"/></g><g transform="translate(-30,-46) scale(1,1)"><g><path fill="none" stroke="none"/><text fill="#000000" stroke="none" font-family="Arial" font-size="13px" font-style="normal" font-weight="bold" text-decoration="none" x="1057.143310546875" y="707.5">Thực hiện thanh toán</text></g></g><g transform="translate(-30,-46) scale(1,1)"><path fill="none" stroke="#000000" d="M 352 640 L 352 688" stroke-miterlimit="10"/></g><g transform="translate(-30,-46) scale(1,1)"><path fill="none" stroke="#000000" d="M 347.790482243984 677.8373251423759 L 352 688 L 356.209517756016 677.8373251423759" stroke-miterlimit="10"/></g><g transform="translate(-30,-46) scale(1,1)"><path fill="none" stroke="#000000" d="M 422 708 L 1048 708" stroke-miterlimit="10"/></g><g transform="translate(-30,-46) scale(1,1)"><path fill="none" stroke="#000000" d="M 1037.837325142376 712.209517756016 L 1048 708 L 1037.837325142376 703.790482243984" stroke-miterlimit="10"/></g><g transform="translate(-30,-46) scale(1,1)"><path fill="#C0C0C0" stroke="none" d="M 1111 800.5 L 1122.5 791 L 1133 800.5 L 1122.5 809 L 1111 800.5" opacity="0.2"/></g><g transform="translate(-30,-46) scale(1,1)"><path fill="#ffffff" stroke="none" d="M 1104 793 L 1115 784 L 1126 793 L 1115 802 L 1104 793"/></g><g transform="translate(-30,-46) scale(1,1)"><path fill="none" stroke="#000000" d="M 1104 793 L 1115 784 L 1126 793 L 1115 802 L 1104 793 L 1104 793" stroke-miterlimit="10"/></g><g transform="translate(-30,-46) scale(1,1)"><path fill="#C0C0C0" stroke="none" d="M 529 783 L 637.8818359375 783 Q 647.8818359375 783 647.8818359375 793 L 647.8818359375 813 Q 647.8818359375 823 637.8818359375 823 L 529 823 Q 519 823 519 813 L 519 793 Q 519 783 529 783 Z" opacity="0.2"/></g><g transform="translate(-30,-46) scale(1,1)"><path fill="#ffffff" stroke="none" d="M 522 776 L 630.8818359375 776 Q 640.8818359375 776 640.8818359375 786 L 640.8818359375 806 Q 640.8818359375 816 630.8818359375 816 L 522 816 Q 512 816 512 806 L 512 786 Q 512 776 522 776 Z"/></g><g transform="translate(-30,-46) scale(1,1)"><path fill="none" stroke="#000000" d="M 522 776 L 630.8818359375 776 Q 640.8818359375 776 640.8818359375 786 L 640.8818359375 806 Q 640.8818359375 816 630.8818359375 816 L 522 816 Q 512 816 512 806 L 512 786 Q 512 776 522 776 Z" stroke-miterlimit="10"/></g><g transform="translate(-30,-46) scale(1,1)"><g><path fill="none" stroke="none"/><text fill="#000000" stroke="none" font-family="Arial" font-size="13px" font-style="normal" font-weight="bold" text-decoration="none" x="524.037841796875" y="795.5">Báo lỗi thanh toán</text></g></g><g transform="translate(-30,-46) scale(1,1)"><path fill="#C0C0C0" stroke="none" d="M 801 847 L 923.65625 847 Q 933.65625 847 933.65625 857 L 933.65625 877 Q 933.65625 887 923.65625 887 L 801 887 Q 791 887 791 877 L 791 857 Q 791 847 801 847 Z" opacity="0.2"/></g><g transform="translate(-30,-46) scale(1,1)"><path fill="#ffffff" stroke="none" d="M 794 840 L 916.65625 840 Q 926.65625 840 926.65625 850 L 926.65625 870 Q 926.65625 880 916.65625 880 L 794 880 Q 784 880 784 870 L 784 850 Q 784 840 794 840 Z"/></g><g transform="translate(-30,-46) scale(1,1)"><path fill="none" stroke="#000000" d="M 794 840 L 916.65625 840 Q 926.65625 840 926.65625 850 L 926.65625 870 Q 926.65625 880 916.65625 880 L 794 880 Q 784 880 784 870 L 784 850 Q 784 840 794 840 Z" stroke-miterlimit="10"/></g><g transform="translate(-30,-46) scale(1,1)"><g><path fill="none" stroke="none"/><text fill="#000000" stroke="none" font-family="Arial" font-size="13px" font-style="normal" font-weight="bold" text-decoration="none" x="792.4609375" y="859.5">Ghi nhận việc mua vé</text></g></g><g transform="translate(-30,-46) scale(1,1)"><path fill="none" stroke="#000000" d="M 1113 728 L 1113 784" stroke-miterlimit="10"/></g><g transform="translate(-30,-46) scale(1,1)"><path fill="none" stroke="#000000" d="M 1108.7904822439841 773.8373251423759 L 1113 784 L 1117.2095177560159 773.8373251423759" stroke-miterlimit="10"/></g><g transform="translate(-30,-46) scale(1,1)"><path fill="none" stroke="#000000" d="M 1104 796 L 641 796" stroke-miterlimit="10"/></g><g transform="translate(-30,-46) scale(1,1)"><path fill="none" stroke="#000000" d="M 651.1626748576241 791.790482243984 L 641 796 L 651.1626748576241 800.209517756016" stroke-miterlimit="10"/></g><g transform="translate(-30,-46) scale(1,1)"><g><path fill="none" stroke="none"/><text fill="#000000" stroke="none" font-family="Arial" font-size="13px" font-style="normal" font-weight="normal" text-decoration="none" x="1039.5" y="788.5">[thất bại]</text></g></g><g transform="translate(-30,-46) scale(1,1)"><path fill="none" stroke="#000000" d="M 1112 802 L 1112 848 M 1112 848 A 8 8 0 0 1 1104 856 L 927 856" stroke-miterlimit="10"/></g><g transform="translate(-30,-46) scale(1,1)"><path fill="none" stroke="#000000" d="M 937.1626748576241 851.790482243984 L 927 856 L 937.1626748576241 860.209517756016" stroke-miterlimit="10"/></g><g transform="translate(-30,-46) scale(1,1)"><g><path fill="none" stroke="none"/><text fill="#000000" stroke="none" font-family="Arial" font-size="13px" font-style="normal" font-weight="normal" text-decoration="none" x="1119.5" y="828.5">[thành công]</text></g></g><g transform="translate(-30,-46) scale(1,1)"><path fill="none" stroke="#000000" d="M 856 880 L 856 920" stroke-miterlimit="10"/></g><g transform="translate(-30,-46) scale(1,1)"><path fill="none" stroke="#000000" d="M 851.790482243984 909.8373251423759 L 856 920 L 860.209517756016 909.8373251423759" stroke-miterlimit="10"/></g><g transform="translate(-30,-46) scale(1,1)"><path fill="#C0C0C0" stroke="none" d="M 785 999 L 833.99169921875 999 Q 843.99169921875 999 843.99169921875 1009 L 843.99169921875 1029 Q 843.99169921875 1039 833.99169921875 1039 L 785 1039 Q 775 1039 775 1029 L 775 1009 Q 775 999 785 999 Z" opacity="0.2"/></g><g transform="translate(-30,-46) scale(1,1)"><path fill="#ffffff" stroke="none" d="M 778 992 L 826.99169921875 992 Q 836.99169921875 992 836.99169921875 1002 L 836.99169921875 1022 Q 836.99169921875 1032 826.99169921875 1032 L 778 1032 Q 768 1032 768 1022 L 768 1002 Q 768 992 778 992 Z"/></g><g transform="translate(-30,-46) scale(1,1)"><path fill="none" stroke="#000000" d="M 778 992 L 826.99169921875 992 Q 836.99169921875 992 836.99169921875 1002 L 836.99169921875 1022 Q 836.99169921875 1032 826.99169921875 1032 L 778 1032 Q 768 1032 768 1022 L 768 1002 Q 768 992 778 992 Z" stroke-miterlimit="10"/></g><g transform="translate(-30,-46) scale(1,1)"><g><path fill="none" stroke="none"/><text fill="#000000" stroke="none" font-family="Arial" font-size="13px" font-style="normal" font-weight="bold" text-decoration="none" x="774.305908203125" y="1011.5">Gửi email</text></g></g><g transform="translate(-30,-46) scale(1,1)"><path fill="none" stroke="#000000" d="M 824 922 L 808 922 M 808 922 A 8 8 0 0 0 800 930 L 800 992" stroke-miterlimit="10"/></g><g transform="translate(-30,-46) scale(1,1)"><path fill="none" stroke="#000000" d="M 795.790482243984 981.8373251423759 L 800 992 L 804.209517756016 981.8373251423759" stroke-miterlimit="10"/></g><g transform="translate(-30,-46) scale(1,1)"><path fill="#C0C0C0" stroke="none" d="M 897 999 L 940.919921875 999 Q 950.919921875 999 950.919921875 1009 L 950.919921875 1029 Q 950.919921875 1039 940.919921875 1039 L 897 1039 Q 887 1039 887 1029 L 887 1009 Q 887 999 897 999 Z" opacity="0.2"/></g><g transform="translate(-30,-46) scale(1,1)"><path fill="#ffffff" stroke="none" d="M 890 992 L 933.919921875 992 Q 943.919921875 992 943.919921875 1002 L 943.919921875 1022 Q 943.919921875 1032 933.919921875 1032 L 890 1032 Q 880 1032 880 1022 L 880 1002 Q 880 992 890 992 Z"/></g><g transform="translate(-30,-46) scale(1,1)"><path fill="none" stroke="#000000" d="M 890 992 L 933.919921875 992 Q 943.919921875 992 943.919921875 1002 L 943.919921875 1022 Q 943.919921875 1032 933.919921875 1032 L 890 1032 Q 880 1032 880 1022 L 880 1002 Q 880 992 890 992 Z" stroke-miterlimit="10"/></g><g transform="translate(-30,-46) scale(1,1)"><g><path fill="none" stroke="none"/><text fill="#000000" stroke="none" font-family="Arial" font-size="13px" font-style="normal" font-weight="bold" text-decoration="none" x="885.21728515625" y="1011.5">Gửi SMS</text></g></g><g transform="translate(-30,-46) scale(1,1)"><path fill="none" stroke="#000000" d="M 893 922 L 904 922 M 904 922 A 8 8 0 0 1 912 930 L 912 992" stroke-miterlimit="10"/></g><g transform="translate(-30,-46) scale(1,1)"><path fill="none" stroke="#000000" d="M 907.790482243984 981.8373251423759 L 912 992 L 916.209517756016 981.8373251423759" stroke-miterlimit="10"/></g><g transform="translate(-30,-46) scale(1,1)"><path fill="#C0C0C0" stroke="none" d="M 847 1163.5 C 847 1156.59644 852.59644 1151 859.5 1151 C 866.40356 1151 872 1156.59644 872 1163.5 C 872 1170.40356 866.40356 1176 859.5 1176 C 852.59644 1176 847 1170.40356 847 1163.5 Z" opacity="0.2"/></g><g transform="translate(-30,-46) scale(1,1)"><path fill="none" stroke="#000000" d="M 840 1156.5 C 840 1149.59644 845.59644 1144 852.5 1144 C 859.40356 1144 865 1149.59644 865 1156.5 C 865 1163.40356 859.40356 1169 852.5 1169 C 845.59644 1169 840 1163.40356 840 1156.5 Z" stroke-miterlimit="10"/></g><g transform="translate(-30,-46) scale(1,1)"><path fill="#000000" stroke="none" d="M 845 1156.5 C 845 1152.357864 848.357864 1149 852.5 1149 C 856.642136 1149 860 1152.357864 860 1156.5 C 860 1160.642136 856.642136 1164 852.5 1164 C 848.357864 1164 845 1160.642136 845 1156.5 Z"/></g><g transform="translate(-30,-46) scale(1,1)"><path fill="#C0C0C0" stroke="none" d="M 834 1087 L 897 1087 Q 900 1087 900 1090 L 900 1089 Q 900 1092 897 1092 L 834 1092 Q 831 1092 831 1089 L 831 1090 Q 831 1087 834 1087 Z" opacity="0.2"/></g><g transform="translate(-30,-46) scale(1,1)"><path fill="#000000" stroke="none" d="M 827 1080 L 890 1080 Q 893 1080 893 1083 L 893 1083 Q 893 1086 890 1086 L 827 1086 Q 824 1086 824 1083 L 824 1083 Q 824 1080 827 1080 Z"/></g><g transform="translate(-30,-46) scale(1,1)"><path fill="none" stroke="#000000" d="M 580 816 L 580 896" stroke-miterlimit="10"/></g><g transform="translate(-30,-46) scale(1,1)"><path fill="none" stroke="#000000" d="M 575.790482243984 885.8373251423759 L 580 896 L 584.209517756016 885.8373251423759" stroke-miterlimit="10"/></g><g transform="translate(-30,-46) scale(1,1)"><path fill="none" stroke="#000000" d="M 824 1032 L 824 1080" stroke-miterlimit="10"/></g><g transform="translate(-30,-46) scale(1,1)"><path fill="none" stroke="#000000" d="M 819.790482243984 1069.837325142376 L 824 1080 L 828.209517756016 1069.837325142376" stroke-miterlimit="10"/></g><g transform="translate(-30,-46) scale(1,1)"><path fill="none" stroke="#000000" d="M 893 1032 L 893 1080" stroke-miterlimit="10"/></g><g transform="translate(-30,-46) scale(1,1)"><path fill="none" stroke="#000000" d="M 888.790482243984 1069.837325142376 L 893 1080 L 897.209517756016 1069.837325142376" stroke-miterlimit="10"/></g><g transform="translate(-30,-46) scale(1,1)"><path fill="none" stroke="#000000" d="M 857 1085 L 857 1144" stroke-miterlimit="10"/></g><g transform="translate(-30,-46) scale(1,1)"><path fill="none" stroke="#000000" d="M 852.790482243984 1133.837325142376 L 857 1144 L 861.209517756016 1133.837325142376" stroke-miterlimit="10"/></g><g transform="translate(-30,-46) scale(1,1)"><path fill="none" stroke="#000000" d="M 136 512 L 136 321 M 136 321 A 8 8 0 0 1 144 313 L 240 313" stroke-miterlimit="10"/></g><g transform="translate(-30,-46) scale(1,1)"><path fill="none" stroke="#000000" d="M 229.83732514237585 317.209517756016 L 240 313 L 229.83732514237585 308.790482243984" stroke-miterlimit="10"/></g><g transform="translate(-30,-46) scale(1,1)"><g><path fill="none" stroke="none"/><text fill="#000000" stroke="none" font-family="Arial" font-size="13px" font-style="normal" font-weight="normal" text-decoration="none" x="110.5" y="308.5">[chọn chuyến khác]</text></g></g><g transform="translate(-30,-46) scale(1,1)"><path fill="none" stroke="#000000" d="M 504 312 L 262 312" stroke-miterlimit="10"/></g><g transform="translate(-30,-46) scale(1,1)"><path fill="none" stroke="#000000" d="M 272.16267485762415 307.790482243984 L 262 312 L 272.16267485762415 316.209517756016" stroke-miterlimit="10"/></g><g transform="translate(-30,-46) scale(1,1)"><g><path fill="none" stroke="none"/><text fill="#000000" stroke="none" font-family="Arial" font-size="13px" font-style="normal" font-weight="normal" text-decoration="none" x="262.5" y="305.5">[ghi nhận thông tin thành công]</text></g></g><g transform="translate(-30,-46) scale(1,1)"><path fill="#C0C0C0" stroke="none" d="M 247 320.5 L 258.5 311 L 269 320.5 L 258.5 329 L 247 320.5" opacity="0.2"/></g><g transform="translate(-30,-46) scale(1,1)"><path fill="#ffffff" stroke="none" d="M 240 313 L 251 304 L 262 313 L 251 322 L 240 313"/></g><g transform="translate(-30,-46) scale(1,1)"><path fill="none" stroke="#000000" d="M 240 313 L 251 304 L 262 313 L 251 322 L 240 313 L 240 313" stroke-miterlimit="10"/></g><g transform="translate(-30,-46) scale(1,1)"><path fill="none" stroke="#000000" d="M 251 322 L 251 352" stroke-miterlimit="10"/></g><g transform="translate(-30,-46) scale(1,1)"><path fill="none" stroke="#000000" d="M 246.790482243984 341.83732514237585 L 251 352 L 255.209517756016 341.83732514237585" stroke-miterlimit="10"/></g><g transform="translate(-30,-46) scale(1,1)"><path fill="#C0C0C0" stroke="none" d="M 505 607 L 661.59716796875 607 Q 671.59716796875 607 671.59716796875 617 L 671.59716796875 637 Q 671.59716796875 647 661.59716796875 647 L 505 647 Q 495 647 495 637 L 495 617 Q 495 607 505 607 Z" opacity="0.2"/></g><g transform="translate(-30,-46) scale(1,1)"><path fill="#ffffff" stroke="none" d="M 498 600 L 654.59716796875 600 Q 664.59716796875 600 664.59716796875 610 L 664.59716796875 630 Q 664.59716796875 640 654.59716796875 640 L 498 640 Q 488 640 488 630 L 488 610 Q 488 600 498 600 Z"/></g><g transform="translate(-30,-46) scale(1,1)"><path fill="none" stroke="#000000" d="M 498 600 L 654.59716796875 600 Q 664.59716796875 600 664.59716796875 610 L 664.59716796875 630 Q 664.59716796875 640 654.59716796875 640 L 498 640 Q 488 640 488 630 L 488 610 Q 488 600 498 600 Z" stroke-miterlimit="10"/></g><g transform="translate(-30,-46) scale(1,1)"><g><path fill="none" stroke="none"/><text fill="#000000" stroke="none" font-family="Arial" font-size="13px" font-style="normal" font-weight="bold" text-decoration="none" x="497.885986328125" y="619.5">Hiển thị danh sách các ghế</text></g></g><g transform="translate(-30,-46) scale(1,1)"><path fill="#C0C0C0" stroke="none" d="M 863 528.5 L 874.5 519 L 885 528.5 L 874.5 537 L 863 528.5" opacity="0.2"/></g><g transform="translate(-30,-46) scale(1,1)"><path fill="#ffffff" stroke="none" d="M 856 521 L 867 512 L 878 521 L 867 530 L 856 521"/></g><g transform="translate(-30,-46) scale(1,1)"><path fill="none" stroke="#000000" d="M 856 521 L 867 512 L 878 521 L 867 530 L 856 521 L 856 521" stroke-miterlimit="10"/></g><g transform="translate(-30,-46) scale(1,1)"><path fill="#C0C0C0" stroke="none" d="M 834 927 L 897 927 Q 900 927 900 930 L 900 929 Q 900 932 897 932 L 834 932 Q 831 932 831 929 L 831 930 Q 831 927 834 927 Z" opacity="0.2"/></g><g transform="translate(-30,-46) scale(1,1)"><path fill="#000000" stroke="none" d="M 827 920 L 890 920 Q 893 920 893 923 L 893 923 Q 893 926 890 926 L 827 926 Q 824 926 824 923 L 824 923 Q 824 920 827 920 Z"/></g><g transform="translate(-30,-46) scale(1,1)"><path fill="#C0C0C0" stroke="none" d="M 575 915.5 C 575 908.59644 580.59644 903 587.5 903 C 594.40356 903 600 908.59644 600 915.5 C 600 922.40356 594.40356 928 587.5 928 C 580.59644 928 575 922.40356 575 915.5 Z" opacity="0.2"/></g><g transform="translate(-30,-46) scale(1,1)"><path fill="none" stroke="#000000" d="M 568 908.5 C 568 901.59644 573.59644 896 580.5 896 C 587.40356 896 593 901.59644 593 908.5 C 593 915.40356 587.40356 921 580.5 921 C 573.59644 921 568 915.40356 568 908.5 Z" stroke-miterlimit="10"/></g><g transform="translate(-30,-46) scale(1,1)"><path fill="#000000" stroke="none" d="M 573 908.5 C 573 904.357864 576.357864 901 580.5 901 C 584.642136 901 588 904.357864 588 908.5 C 588 912.642136 584.642136 916 580.5 916 C 576.357864 916 573 912.642136 573 908.5 Z"/></g></g></svg>