<svg version="1.1" xmlns="http://www.w3.org/2000/svg" xmlns:xlink="http://www.w3.org/1999/xlink" width="1780" height="1164"><defs/><g><g transform="translate(10,10) scale(1,1)"><path fill="none" stroke="#000000" d="M 0 0 L 1760 0 L 1760 1144 L 0 1144 L 0 0" stroke-miterlimit="10"/></g><g transform="translate(10,10) scale(1,1)"><path fill="#ffffff" stroke="none" d="M 0 0 L 0 26 L 387.50146484375 26 L 400.50146484375 13 L 400.50146484375 0 L 0 0"/></g><g transform="translate(10,10) scale(1,1)"><path fill="none" stroke="#000000" d="M 0 0 L 0 26 L 387.50146484375 26 L 400.50146484375 13 L 400.50146484375 0 L 0 0 L 0 0" stroke-miterlimit="10"/></g><g transform="translate(10,10) scale(1,1)"><g><path fill="none" stroke="none"/><text fill="#000000" stroke="none" font-family="Roboto" font-size="17px" font-style="normal" font-weight="normal" text-decoration="none" x="91.384765625" y="21.5">SequenceDiagram-LapPhieuNhapSach</text></g></g><g transform="translate(10,10) scale(1,1)"><g><path fill="none" stroke="none"/><text fill="#000000" stroke="none" font-family="Roboto" font-size="17px" font-style="normal" font-weight="bold" text-decoration="none" x="5" y="21.5">interaction</text></g></g><g transform="translate(10,10) scale(1,1)"><path fill="#ffffff" stroke="none" d="M 290.2232528409091 47.3 C 290.2232528409091 43.82060576 293.1016545630909 41 296.65234375 41 C 300.2030329369091 41 303.081434659091 43.82060576 303.081434659091 47.3 C 303.081434659091 50.779394239999995 300.2030329369091 53.6 296.65234375 53.6 C 293.1016545630909 53.6 290.2232528409091 50.779394239999995 290.2232528409091 47.3 Z"/></g><g transform="translate(10,10) scale(1,1)"><path fill="none" stroke="#000000" d="M 290.2232528409091 47.3 C 290.2232528409091 43.82060576 293.1016545630909 41 296.65234375 41 C 300.2030329369091 41 303.081434659091 43.82060576 303.081434659091 47.3 C 303.081434659091 50.779394239999995 300.2030329369091 53.6 296.65234375 53.6 C 293.1016545630909 53.6 290.2232528409091 50.779394239999995 290.2232528409091 47.3 Z" stroke-miterlimit="10"/></g><g transform="translate(10,10) scale(1,1)"><path fill="none" stroke="#000000" d="M 296.65234375 53.6 L 296.65234375 66.4" stroke-miterlimit="10"/></g><g transform="translate(10,10) scale(1,1)"><path fill="none" stroke="#000000" d="M 289.84507102272727 58.4 L 303.4596164772728 58.4" stroke-miterlimit="10"/></g><g transform="translate(10,10) scale(1,1)"><path fill="none" stroke="#000000" d="M 296.65234375 66.4 L 287.19779829545456 79" stroke-miterlimit="10"/></g><g transform="translate(10,10) scale(1,1)"><path fill="none" stroke="#000000" d="M 296.65234375 66.4 L 306.1068892045455 79" stroke-miterlimit="10"/></g><g transform="translate(10,10) scale(1,1)"><g><path fill="none" stroke="none"/><text fill="#000000" stroke="none" font-family="Roboto" font-size="17px" font-style="normal" font-weight="bold" text-decoration="none" x="249.74462890625" y="103.5">: QuanLyKho</text></g></g><g transform="translate(10,10) scale(1,1)"><path fill="none" stroke="#000000" d="M 297.5 109 L 297.5 1104" stroke-miterlimit="10" stroke-dasharray="3"/></g><g transform="translate(10,10) scale(1,1)"><rect fill="#C0C0C0" stroke="none" x="591" y="47" width="102.638671875" height="39" opacity="0.2"/></g><g transform="translate(10,10) scale(1,1)"><rect fill="#ffffff" stroke="none" x="584" y="40" width="102.638671875" height="39"/></g><g transform="translate(10,10) scale(1,1)"><path fill="none" stroke="#000000" d="M 584 40 L 686.638671875 40 L 686.638671875 79 L 584 79 L 584 40 Z Z" stroke-miterlimit="10"/></g><g transform="translate(10,10) scale(1,1)"><g><path fill="none" stroke="none"/><text fill="#000000" stroke="none" font-family="Roboto" font-size="17px" font-style="normal" font-weight="bold" text-decoration="none" x="594.740966796875" y="63.5">TrinhDuyet</text></g></g><g transform="translate(10,10) scale(1,1)"><path fill="none" stroke="#000000" d="M 636.5 80 L 636.5 1104" stroke-miterlimit="10" stroke-dasharray="3"/></g><g transform="translate(10,10) scale(1,1)"><rect fill="#C0C0C0" stroke="none" x="855" y="47" width="227.4609375" height="39" opacity="0.2"/></g><g transform="translate(10,10) scale(1,1)"><rect fill="#ffffff" stroke="none" x="848" y="40" width="227.4609375" height="39"/></g><g transform="translate(10,10) scale(1,1)"><path fill="none" stroke="#000000" d="M 848 40 L 1075.4609375 40 L 1075.4609375 79 L 848 79 L 848 40 Z Z" stroke-miterlimit="10"/></g><g transform="translate(10,10) scale(1,1)"><g><path fill="none" stroke="none"/><text fill="#000000" stroke="none" font-family="Roboto" font-size="17px" font-style="normal" font-weight="bold" text-decoration="none" x="885.574951171875" y="63.5">: KhoHangController</text></g></g><g transform="translate(10,10) scale(1,1)"><path fill="none" stroke="#000000" d="M 962.5 80 L 962.5 1104" stroke-miterlimit="10" stroke-dasharray="3"/></g><g transform="translate(10,10) scale(1,1)"><rect fill="#C0C0C0" stroke="none" x="1271" y="47" width="141.0078125" height="39" opacity="0.2"/></g><g transform="translate(10,10) scale(1,1)"><rect fill="#ffffff" stroke="none" x="1264" y="40" width="141.0078125" height="39"/></g><g transform="translate(10,10) scale(1,1)"><path fill="none" stroke="#000000" d="M 1264 40 L 1405.0078125 40 L 1405.0078125 79 L 1264 79 L 1264 40 Z Z" stroke-miterlimit="10"/></g><g transform="translate(10,10) scale(1,1)"><g><path fill="none" stroke="none"/><text fill="#000000" stroke="none" font-family="Roboto" font-size="17px" font-style="normal" font-weight="bold" text-decoration="none" x="1303.595947265625" y="63.5">: DichVu</text></g></g><g transform="translate(10,10) scale(1,1)"><path fill="none" stroke="#000000" d="M 1335.5 80 L 1335.5 1104" stroke-miterlimit="10" stroke-dasharray="3"/></g><g transform="translate(10,10) scale(1,1)"><rect fill="#C0C0C0" stroke="none" x="1607" y="47" width="112.77392578125" height="39" opacity="0.2"/></g><g transform="translate(10,10) scale(1,1)"><rect fill="#ffffff" stroke="none" x="1600" y="40" width="112.77392578125" height="39"/></g><g transform="translate(10,10) scale(1,1)"><path fill="none" stroke="#000000" d="M 1600 40 L 1712.77392578125 40 L 1712.77392578125 79 L 1600 79 L 1600 40 Z Z" stroke-miterlimit="10"/></g><g transform="translate(10,10) scale(1,1)"><g><path fill="none" stroke="none"/><text fill="#000000" stroke="none" font-family="Roboto" font-size="17px" font-style="normal" font-weight="bold" text-decoration="none" x="1610.03125" y="63.5">CoSoDuLieu</text></g></g><g transform="translate(10,10) scale(1,1)"><path fill="none" stroke="#000000" d="M 1657.5 80 L 1657.5 1104" stroke-miterlimit="10" stroke-dasharray="3"/></g><g transform="translate(10,10) scale(1,1)"><path fill="none" stroke="#000000" d="M 297 160 L 629 160" stroke-miterlimit="10"/></g><g transform="translate(10,10) scale(1,1)"><path fill="#000000" stroke="none" d="M 618.8373251423759 164.209517756016 L 629 160 L 618.8373251423758 155.790482243984"/></g><g transform="translate(10,10) scale(1,1)"><path fill="none" stroke="#000000" d="M 618.8373251423759 164.209517756016 L 629 160 L 618.8373251423758 155.790482243984 L 618.8373251423759 164.209517756016" stroke-miterlimit="10"/></g><g transform="translate(10,10) scale(1,1)"><g><path fill="none" stroke="none"/><text fill="#000000" stroke="none" font-family="Roboto" font-size="17px" font-style="normal" font-weight="normal" text-decoration="none" x="313.02001953125" y="148.5">Chọn tính năng [Kiểm tra số lượng sách]</text></g></g><g transform="translate(10,10) scale(1,1)"><rect fill="#ffffff" stroke="none" x="629" y="160" width="13" height="155"/></g><g transform="translate(10,10) scale(1,1)"><path fill="none" stroke="#000000" d="M 629 160 L 642 160 L 642 315 L 629 315 L 629 160 Z Z" stroke-miterlimit="10"/></g><g transform="translate(10,10) scale(1,1)"><path fill="none" stroke="#000000" d="M 642 176 L 955 176" stroke-miterlimit="10"/></g><g transform="translate(10,10) scale(1,1)"><path fill="#000000" stroke="none" d="M 944.8373251423759 180.209517756016 L 955 176 L 944.8373251423758 171.790482243984"/></g><g transform="translate(10,10) scale(1,1)"><path fill="none" stroke="#000000" d="M 944.8373251423759 180.209517756016 L 955 176 L 944.8373251423758 171.790482243984 L 944.8373251423759 180.209517756016" stroke-miterlimit="10"/></g><g transform="translate(10,10) scale(1,1)"><g><path fill="none" stroke="none"/><text fill="#000000" stroke="none" font-family="Roboto" font-size="17px" font-style="normal" font-weight="normal" text-decoration="none" x="664.5" y="166.5">Gửi yêu cầu kiểm tra số lượng sách</text></g></g><g transform="translate(10,10) scale(1,1)"><rect fill="#ffffff" stroke="none" x="955" y="176" width="13" height="144"/></g><g transform="translate(10,10) scale(1,1)"><path fill="none" stroke="#000000" d="M 955 176 L 968 176 L 968 320 L 955 320 L 955 176 Z Z" stroke-miterlimit="10"/></g><g transform="translate(10,10) scale(1,1)"><path fill="none" stroke="#000000" d="M 968 198 L 1328 198" stroke-miterlimit="10"/></g><g transform="translate(10,10) scale(1,1)"><path fill="#000000" stroke="none" d="M 1317.837325142376 202.209517756016 L 1328 198 L 1317.837325142376 193.790482243984"/></g><g transform="translate(10,10) scale(1,1)"><path fill="none" stroke="#000000" d="M 1317.837325142376 202.209517756016 L 1328 198 L 1317.837325142376 193.790482243984 L 1317.837325142376 202.209517756016" stroke-miterlimit="10"/></g><g transform="translate(10,10) scale(1,1)"><g><path fill="none" stroke="none"/><text fill="#000000" stroke="none" font-family="Roboto" font-size="17px" font-style="normal" font-weight="normal" text-decoration="none" x="992.5" y="190.5">Gọi phương thức KiemTraSoLuongSach()</text></g></g><g transform="translate(10,10) scale(1,1)"><rect fill="#ffffff" stroke="none" x="1328" y="198" width="13" height="98"/></g><g transform="translate(10,10) scale(1,1)"><path fill="none" stroke="#000000" d="M 1328 198 L 1341 198 L 1341 296 L 1328 296 L 1328 198 Z Z" stroke-miterlimit="10"/></g><g transform="translate(10,10) scale(1,1)"><path fill="none" stroke="#000000" d="M 1341 213 L 1650 213" stroke-miterlimit="10"/></g><g transform="translate(10,10) scale(1,1)"><path fill="#000000" stroke="none" d="M 1639.837325142376 217.209517756016 L 1650 213 L 1639.837325142376 208.790482243984"/></g><g transform="translate(10,10) scale(1,1)"><path fill="none" stroke="#000000" d="M 1639.837325142376 217.209517756016 L 1650 213 L 1639.837325142376 208.790482243984 L 1639.837325142376 217.209517756016" stroke-miterlimit="10"/></g><g transform="translate(10,10) scale(1,1)"><g><path fill="none" stroke="none"/><text fill="#000000" stroke="none" font-family="Roboto" font-size="17px" font-style="normal" font-weight="normal" text-decoration="none" x="1355.5" y="199.5">Kiểm tra số lượng sách tồn trong kho</text></g></g><g transform="translate(10,10) scale(1,1)"><rect fill="#ffffff" stroke="none" x="1650" y="213" width="13" height="67"/></g><g transform="translate(10,10) scale(1,1)"><path fill="none" stroke="#000000" d="M 1650 213 L 1663 213 L 1663 280 L 1650 280 L 1650 213 Z Z" stroke-miterlimit="10"/></g><g transform="translate(10,10) scale(1,1)"><path fill="none" stroke="#000000" d="M 1650 248 L 1341 248" stroke-miterlimit="10" stroke-dasharray="3"/></g><g transform="translate(10,10) scale(1,1)"><path fill="none" stroke="#000000" d="M 1351.162674857624 243.790482243984 L 1341 248 L 1351.162674857624 252.209517756016" stroke-miterlimit="10"/></g><g transform="translate(10,10) scale(1,1)"><g><path fill="none" stroke="none"/><text fill="#000000" stroke="none" font-family="Roboto" font-size="17px" font-style="normal" font-weight="normal" text-decoration="none" x="1360.5" y="270.5">Kết quả số lượng của từng đầu sách</text></g></g><g transform="translate(10,10) scale(1,1)"><path fill="none" stroke="#000000" d="M 1328 266 L 968 266" stroke-miterlimit="10" stroke-dasharray="3"/></g><g transform="translate(10,10) scale(1,1)"><path fill="none" stroke="#000000" d="M 978.1626748576241 261.790482243984 L 968 266 L 978.1626748576241 270.209517756016" stroke-miterlimit="10"/></g><g transform="translate(10,10) scale(1,1)"><g><path fill="none" stroke="none"/><text fill="#000000" stroke="none" font-family="Roboto" font-size="17px" font-style="normal" font-weight="normal" text-decoration="none" x="1017.5" y="295.5">Sắp xếp theo thứ tự từ ít đến nhiều</text></g></g><g transform="translate(10,10) scale(1,1)"><path fill="none" stroke="#000000" d="M 955 286 L 642 286" stroke-miterlimit="10" stroke-dasharray="3"/></g><g transform="translate(10,10) scale(1,1)"><path fill="none" stroke="#000000" d="M 652.1626748576241 281.790482243984 L 642 286 L 652.1626748576241 290.209517756016" stroke-miterlimit="10"/></g><g transform="translate(10,10) scale(1,1)"><g><path fill="none" stroke="none"/><text fill="#000000" stroke="none" font-family="Roboto" font-size="17px" font-style="normal" font-weight="normal" text-decoration="none" x="665.982177734375" y="311.5">Danh sách số lượng từng đầu sách</text></g></g><g transform="translate(10,10) scale(1,1)"><path fill="none" stroke="#000000" d="M 629 305 L 297 305" stroke-miterlimit="10" stroke-dasharray="3"/></g><g transform="translate(10,10) scale(1,1)"><path fill="none" stroke="#000000" d="M 307.16267485762415 300.790482243984 L 297 305 L 307.16267485762415 309.209517756016" stroke-miterlimit="10"/></g><g transform="translate(10,10) scale(1,1)"><g><path fill="none" stroke="none"/><text fill="#000000" stroke="none" font-family="Roboto" font-size="17px" font-style="normal" font-weight="normal" text-decoration="none" x="310.5" y="335.5">Hiện danh sách số lượng từng đầu sách</text></g></g><g transform="translate(10,10) scale(1,1)"><path fill="none" stroke="#000000" d="M 297 408 L 629 408" stroke-miterlimit="10"/></g><g transform="translate(10,10) scale(1,1)"><path fill="#000000" stroke="none" d="M 618.8373251423759 412.209517756016 L 629 408 L 618.8373251423758 403.790482243984"/></g><g transform="translate(10,10) scale(1,1)"><path fill="none" stroke="#000000" d="M 618.8373251423759 412.209517756016 L 629 408 L 618.8373251423758 403.790482243984 L 618.8373251423759 412.209517756016" stroke-miterlimit="10"/></g><g transform="translate(10,10) scale(1,1)"><g><path fill="none" stroke="none"/><text fill="#000000" stroke="none" font-family="Roboto" font-size="17px" font-style="normal" font-weight="normal" text-decoration="none" x="324.5" y="399.5">Chọn tính năng [Tạo phiếu nhập sách]</text></g></g><g transform="translate(10,10) scale(1,1)"><rect fill="#ffffff" stroke="none" x="629" y="408" width="13" height="72"/></g><g transform="translate(10,10) scale(1,1)"><path fill="none" stroke="#000000" d="M 629 408 L 642 408 L 642 480 L 629 480 L 629 408 Z Z" stroke-miterlimit="10"/></g><g transform="translate(10,10) scale(1,1)"><path fill="none" stroke="#000000" d="M 629 448 L 297 448" stroke-miterlimit="10" stroke-dasharray="3"/></g><g transform="translate(10,10) scale(1,1)"><path fill="none" stroke="#000000" d="M 307.16267485762415 443.790482243984 L 297 448 L 307.16267485762415 452.209517756016" stroke-miterlimit="10"/></g><g transform="translate(10,10) scale(1,1)"><g><path fill="none" stroke="none"/><text fill="#000000" stroke="none" font-family="Roboto" font-size="17px" font-style="normal" font-weight="normal" text-decoration="none" x="366.5" y="471.5">Hiện biểu mẫu nhập sách</text></g></g><g transform="translate(10,10) scale(1,1)"><path fill="none" stroke="#000000" d="M 297 568 L 629 568" stroke-miterlimit="10"/></g><g transform="translate(10,10) scale(1,1)"><path fill="#000000" stroke="none" d="M 618.8373251423759 572.209517756016 L 629 568 L 618.8373251423758 563.790482243984"/></g><g transform="translate(10,10) scale(1,1)"><path fill="none" stroke="#000000" d="M 618.8373251423759 572.209517756016 L 629 568 L 618.8373251423758 563.790482243984 L 618.8373251423759 572.209517756016" stroke-miterlimit="10"/></g><g transform="translate(10,10) scale(1,1)"><g><path fill="none" stroke="none"/><text fill="#000000" stroke="none" font-family="Roboto" font-size="17px" font-style="normal" font-weight="normal" text-decoration="none" x="330.97900390625" y="559.5">Điều chỉnh số lượng sách cần nhập</text></g></g><g transform="translate(10,10) scale(1,1)"><rect fill="#ffffff" stroke="none" x="629" y="568" width="13" height="464"/></g><g transform="translate(10,10) scale(1,1)"><path fill="none" stroke="#000000" d="M 629 568 L 642 568 L 642 1032 L 629 1032 L 629 568 Z Z" stroke-miterlimit="10"/></g><g transform="translate(10,10) scale(1,1)"><path fill="none" stroke="#000000" d="M 642 584 L 672 584 L 672 604 L 649 604" stroke-miterlimit="10"/></g><g transform="translate(10,10) scale(1,1)"><path fill="#000000" stroke="none" d="M 659.1626748576241 599.790482243984 L 649 604 L 659.1626748576241 608.209517756016"/></g><g transform="translate(10,10) scale(1,1)"><path fill="none" stroke="#000000" d="M 659.1626748576241 599.790482243984 L 649 604 L 659.1626748576241 608.209517756016 L 659.1626748576241 599.790482243984" stroke-miterlimit="10"/></g><g transform="translate(10,10) scale(1,1)"><g><path fill="none" stroke="none"/><text fill="#000000" stroke="none" font-family="Roboto" font-size="17px" font-style="normal" font-weight="normal" text-decoration="none" x="690.5" y="598.5">Nhập số lượng sách</text></g></g><g transform="translate(10,10) scale(1,1)"><rect fill="#ffffff" stroke="none" x="636" y="604" width="13" height="36"/></g><g transform="translate(10,10) scale(1,1)"><path fill="none" stroke="#000000" d="M 636 604 L 649 604 L 649 640 L 636 640 L 636 604 Z Z" stroke-miterlimit="10"/></g><g transform="translate(10,10) scale(1,1)"><path fill="none" stroke="#000000" d="M 642 712 L 955 712" stroke-miterlimit="10"/></g><g transform="translate(10,10) scale(1,1)"><path fill="#000000" stroke="none" d="M 944.8373251423759 716.209517756016 L 955 712 L 944.8373251423758 707.790482243984"/></g><g transform="translate(10,10) scale(1,1)"><path fill="none" stroke="#000000" d="M 944.8373251423759 716.209517756016 L 955 712 L 944.8373251423758 707.790482243984 L 944.8373251423759 716.209517756016" stroke-miterlimit="10"/></g><g transform="translate(10,10) scale(1,1)"><g><path fill="none" stroke="none"/><text fill="#000000" stroke="none" font-family="Roboto" font-size="17px" font-style="normal" font-weight="normal" text-decoration="none" x="711.5" y="701.5">Gửi yêu cầu nhập sách</text></g></g><g transform="translate(10,10) scale(1,1)"><rect fill="#ffffff" stroke="none" x="955" y="712" width="13" height="296"/></g><g transform="translate(10,10) scale(1,1)"><path fill="none" stroke="#000000" d="M 955 712 L 968 712 L 968 1008 L 955 1008 L 955 712 Z Z" stroke-miterlimit="10"/></g><g transform="translate(10,10) scale(1,1)"><path fill="none" stroke="#000000" d="M 968 728 L 1328 728" stroke-miterlimit="10"/></g><g transform="translate(10,10) scale(1,1)"><path fill="#000000" stroke="none" d="M 1317.837325142376 732.209517756016 L 1328 728 L 1317.837325142376 723.790482243984"/></g><g transform="translate(10,10) scale(1,1)"><path fill="none" stroke="#000000" d="M 1317.837325142376 732.209517756016 L 1328 728 L 1317.837325142376 723.790482243984 L 1317.837325142376 732.209517756016" stroke-miterlimit="10"/></g><g transform="translate(10,10) scale(1,1)"><g><path fill="none" stroke="none"/><text fill="#000000" stroke="none" font-family="Roboto" font-size="17px" font-style="normal" font-weight="normal" text-decoration="none" x="992.5" y="719.5">Gọi phương thức KiemTraSoLuongNhap()</text></g></g><g transform="translate(10,10) scale(1,1)"><rect fill="#ffffff" stroke="none" x="1328" y="728" width="13" height="264"/></g><g transform="translate(10,10) scale(1,1)"><path fill="none" stroke="#000000" d="M 1328 728 L 1341 728 L 1341 992 L 1328 992 L 1328 728 Z Z" stroke-miterlimit="10"/></g><g transform="translate(10,10) scale(1,1)"><path fill="none" stroke="#000000" d="M 1341 744 L 1650 744" stroke-miterlimit="10"/></g><g transform="translate(10,10) scale(1,1)"><path fill="#000000" stroke="none" d="M 1639.837325142376 748.209517756016 L 1650 744 L 1639.837325142376 739.790482243984"/></g><g transform="translate(10,10) scale(1,1)"><path fill="none" stroke="#000000" d="M 1639.837325142376 748.209517756016 L 1650 744 L 1639.837325142376 739.790482243984 L 1639.837325142376 748.209517756016" stroke-miterlimit="10"/></g><g transform="translate(10,10) scale(1,1)"><g><path fill="none" stroke="none"/><text fill="#000000" stroke="none" font-family="Roboto" font-size="17px" font-style="normal" font-weight="normal" text-decoration="none" x="1363.5" y="734.5">if (SLNhap &gt;=150 &amp;&amp; SLKho &lt; 300)</text></g></g><g transform="translate(10,10) scale(1,1)"><rect fill="#ffffff" stroke="none" x="1650" y="744" width="13" height="232"/></g><g transform="translate(10,10) scale(1,1)"><path fill="none" stroke="#000000" d="M 1650 744 L 1663 744 L 1663 976 L 1650 976 L 1650 744 Z Z" stroke-miterlimit="10"/></g><g transform="translate(10,10) scale(1,1)"><path fill="none" stroke="#000000" d="M 1650 800 L 1341 800" stroke-miterlimit="10" stroke-dasharray="3"/></g><g transform="translate(10,10) scale(1,1)"><path fill="none" stroke="#000000" d="M 1351.162674857624 795.790482243984 L 1341 800 L 1351.162674857624 804.209517756016" stroke-miterlimit="10"/></g><g transform="translate(10,10) scale(1,1)"><g><path fill="none" stroke="none"/><text fill="#000000" stroke="none" font-family="Roboto" font-size="17px" font-style="normal" font-weight="normal" text-decoration="none" x="1405.5" y="826.5">Đủ điều kiện nhập sách</text></g></g><g transform="translate(10,10) scale(1,1)"><path fill="none" stroke="#000000" d="M 1328 819 L 968 819" stroke-miterlimit="10" stroke-dasharray="3"/></g><g transform="translate(10,10) scale(1,1)"><path fill="none" stroke="#000000" d="M 978.1626748576241 814.790482243984 L 968 819 L 978.1626748576241 823.209517756016" stroke-miterlimit="10"/></g><g transform="translate(10,10) scale(1,1)"><g><path fill="none" stroke="none"/><text fill="#000000" stroke="none" font-family="Roboto" font-size="17px" font-style="normal" font-weight="normal" text-decoration="none" x="1062.5" y="847.5">Được phép nhập sách</text></g></g><g transform="translate(10,10) scale(1,1)"><path fill="none" stroke="#000000" d="M 955 834 L 642 834" stroke-miterlimit="10" stroke-dasharray="3"/></g><g transform="translate(10,10) scale(1,1)"><path fill="none" stroke="#000000" d="M 652.1626748576241 829.790482243984 L 642 834 L 652.1626748576241 838.209517756016" stroke-miterlimit="10"/></g><g transform="translate(10,10) scale(1,1)"><g><path fill="none" stroke="none"/><text fill="#000000" stroke="none" font-family="Roboto" font-size="17px" font-style="normal" font-weight="normal" text-decoration="none" x="700.1669921875" y="863.5">Phản hồi phiếu nhập sách</text></g></g><g transform="translate(10,10) scale(1,1)"><path fill="none" stroke="#000000" d="M 629 856 L 297 856" stroke-miterlimit="10" stroke-dasharray="3"/></g><g transform="translate(10,10) scale(1,1)"><path fill="none" stroke="#000000" d="M 307.16267485762415 851.790482243984 L 297 856 L 307.16267485762415 860.209517756016" stroke-miterlimit="10"/></g><g transform="translate(10,10) scale(1,1)"><g><path fill="none" stroke="none"/><text fill="#000000" stroke="none" font-family="Roboto" font-size="17px" font-style="normal" font-weight="normal" text-decoration="none" x="381.1513671875" y="879.5">Hiện phiếu nhập sách</text></g></g><g transform="translate(10,10) scale(1,1)"><path fill="none" stroke="#000000" d="M 1650 944 L 1341 944" stroke-miterlimit="10" stroke-dasharray="3"/></g><g transform="translate(10,10) scale(1,1)"><path fill="none" stroke="#000000" d="M 1351.162674857624 939.790482243984 L 1341 944 L 1351.162674857624 948.209517756016" stroke-miterlimit="10"/></g><g transform="translate(10,10) scale(1,1)"><g><path fill="none" stroke="none"/><text fill="#000000" stroke="none" font-family="Roboto" font-size="17px" font-style="normal" font-weight="normal" text-decoration="none" x="1379.5" y="969.5">Không đủ điều kiện nhập sách</text></g></g><g transform="translate(10,10) scale(1,1)"><path fill="none" stroke="#000000" d="M 1328 960 L 968 960" stroke-miterlimit="10" stroke-dasharray="3"/></g><g transform="translate(10,10) scale(1,1)"><path fill="none" stroke="#000000" d="M 978.1626748576241 955.790482243984 L 968 960 L 978.1626748576241 964.209517756016" stroke-miterlimit="10"/></g><g transform="translate(10,10) scale(1,1)"><g><path fill="none" stroke="none"/><text fill="#000000" stroke="none" font-family="Roboto" font-size="17px" font-style="normal" font-weight="normal" text-decoration="none" x="1038.5" y="983.5">Không được phép nhập sách</text></g></g><g transform="translate(10,10) scale(1,1)"><path fill="none" stroke="#000000" d="M 955 976 L 642 976" stroke-miterlimit="10" stroke-dasharray="3"/></g><g transform="translate(10,10) scale(1,1)"><path fill="none" stroke="#000000" d="M 652.1626748576241 971.790482243984 L 642 976 L 652.1626748576241 980.209517756016" stroke-miterlimit="10"/></g><g transform="translate(10,10) scale(1,1)"><g><path fill="none" stroke="none"/><text fill="#000000" stroke="none" font-family="Roboto" font-size="17px" font-style="normal" font-weight="normal" text-decoration="none" x="666.5" y="999.5">Thông báo không được phép nhập</text></g></g><g transform="translate(10,10) scale(1,1)"><path fill="none" stroke="#000000" d="M 629 1000 L 297 1000" stroke-miterlimit="10" stroke-dasharray="3"/></g><g transform="translate(10,10) scale(1,1)"><path fill="none" stroke="#000000" d="M 307.16267485762415 995.790482243984 L 297 1000 L 307.16267485762415 1004.209517756016" stroke-miterlimit="10"/></g><g transform="translate(10,10) scale(1,1)"><g><path fill="none" stroke="none"/><text fill="#000000" stroke="none" font-family="Roboto" font-size="17px" font-style="normal" font-weight="normal" text-decoration="none" x="335.5" y="1025.5">Hiện lý do không được phép nhập</text></g></g><g transform="translate(10,10) scale(1,1)"><path fill="none" stroke="#000000" d="M 72 768 L 1712 768 L 1712 1064 L 72 1064 L 72 768" stroke-miterlimit="10"/></g><g transform="translate(10,10) scale(1,1)"><path fill="#ffffff" stroke="none" d="M 72 768 L 72 794 L 258.3818359375 794 L 271.3818359375 781 L 271.3818359375 768 L 72 768"/></g><g transform="translate(10,10) scale(1,1)"><path fill="none" stroke="#000000" d="M 72 768 L 72 794 L 258.3818359375 794 L 271.3818359375 781 L 271.3818359375 768 L 72 768 L 72 768" stroke-miterlimit="10"/></g><g transform="translate(10,10) scale(1,1)"><g><path fill="none" stroke="none"/><text fill="#000000" stroke="none" font-family="Roboto" font-size="17px" font-style="normal" font-weight="normal" text-decoration="none" x="101.92578125" y="789.5">Điều kiện nhập sách</text></g></g><g transform="translate(10,10) scale(1,1)"><g><path fill="none" stroke="none"/><text fill="#000000" stroke="none" font-family="Roboto" font-size="17px" font-style="normal" font-weight="bold" text-decoration="none" x="77" y="789.5">alt</text></g></g><g transform="translate(10,10) scale(1,1)"><g><path fill="none" stroke="none"/><text fill="#000000" stroke="none" font-family="Roboto" font-size="17px" font-style="normal" font-weight="normal" text-decoration="none" x="91.5" y="826.5">[Đủ điều kiện]</text></g></g><g transform="translate(10,10) scale(1,1)"><path fill="none" stroke="#000000" d="M 72 906 L 1712 906" stroke-miterlimit="10" stroke-dasharray="10,3"/></g><g transform="translate(10,10) scale(1,1)"><g><path fill="none" stroke="none"/><text fill="#000000" stroke="none" font-family="Roboto" font-size="17px" font-style="normal" font-weight="normal" text-decoration="none" x="91.5" y="937.5">[Không đủ kiều kiện]</text></g></g><g transform="translate(10,10) scale(1,1)"><path fill="none" stroke="#000000" d="M 72 512 L 888 512 L 888 657 L 72 657 L 72 512" stroke-miterlimit="10"/></g><g transform="translate(10,10) scale(1,1)"><path fill="#ffffff" stroke="none" d="M 72 512 L 72 538 L 271.95361328125 538 L 284.95361328125 525 L 284.95361328125 512 L 72 512"/></g><g transform="translate(10,10) scale(1,1)"><path fill="none" stroke="#000000" d="M 72 512 L 72 538 L 271.95361328125 538 L 284.95361328125 525 L 284.95361328125 512 L 72 512 L 72 512" stroke-miterlimit="10"/></g><g transform="translate(10,10) scale(1,1)"><g><path fill="none" stroke="none"/><text fill="#000000" stroke="none" font-family="Roboto" font-size="17px" font-style="normal" font-weight="normal" text-decoration="none" x="116.0537109375" y="533.5">Nhập số lượng sách</text></g></g><g transform="translate(10,10) scale(1,1)"><g><path fill="none" stroke="none"/><text fill="#000000" stroke="none" font-family="Roboto" font-size="17px" font-style="normal" font-weight="bold" text-decoration="none" x="77" y="533.5">loop</text></g></g><g transform="translate(10,10) scale(1,1)"><g><path fill="none" stroke="none"/><text fill="#000000" stroke="none" font-family="Roboto" font-size="17px" font-style="normal" font-weight="normal" text-decoration="none" x="91.5" y="570.5">[Thay đổi số lượng]</text></g></g></g></svg>