<svg version="1.1" xmlns="http://www.w3.org/2000/svg" xmlns:xlink="http://www.w3.org/1999/xlink" width="1780" height="1156"><defs/><g><g transform="translate(10,10) scale(1,1)"><path fill="none" stroke="#000000" d="M 0 0 L 1760 0 L 1760 1136 L 0 1136 L 0 0" stroke-miterlimit="10"/></g><g transform="translate(10,10) scale(1,1)"><path fill="#ffffff" stroke="none" d="M 0 0 L 0 26 L 376.0712890625 26 L 389.0712890625 13 L 389.0712890625 0 L 0 0"/></g><g transform="translate(10,10) scale(1,1)"><path fill="none" stroke="#000000" d="M 0 0 L 0 26 L 376.0712890625 26 L 389.0712890625 13 L 389.0712890625 0 L 0 0 L 0 0" stroke-miterlimit="10"/></g><g transform="translate(10,10) scale(1,1)"><g><path fill="none" stroke="none"/><text fill="#000000" stroke="none" font-family="Roboto" font-size="17px" font-style="normal" font-weight="normal" text-decoration="none" x="91.384765625" y="21.5">SequenceDiagram-NhapSachVaoKho</text></g></g><g transform="translate(10,10) scale(1,1)"><g><path fill="none" stroke="none"/><text fill="#000000" stroke="none" font-family="Roboto" font-size="17px" font-style="normal" font-weight="bold" text-decoration="none" x="5" y="21.5">interaction</text></g></g><g transform="translate(10,10) scale(1,1)"><path fill="#ffffff" stroke="none" d="M 234.2232528409091 47.3 C 234.2232528409091 43.82060576 237.1016545630909 41 240.65234375 41 C 244.2030329369091 41 247.08143465909092 43.82060576 247.08143465909092 47.3 C 247.08143465909092 50.779394239999995 244.2030329369091 53.6 240.65234375 53.6 C 237.1016545630909 53.6 234.2232528409091 50.779394239999995 234.2232528409091 47.3 Z"/></g><g transform="translate(10,10) scale(1,1)"><path fill="none" stroke="#000000" d="M 234.2232528409091 47.3 C 234.2232528409091 43.82060576 237.1016545630909 41 240.65234375 41 C 244.2030329369091 41 247.08143465909092 43.82060576 247.08143465909092 47.3 C 247.08143465909092 50.779394239999995 244.2030329369091 53.6 240.65234375 53.6 C 237.1016545630909 53.6 234.2232528409091 50.779394239999995 234.2232528409091 47.3 Z" stroke-miterlimit="10"/></g><g transform="translate(10,10) scale(1,1)"><path fill="none" stroke="#000000" d="M 240.65234375 53.6 L 240.65234375 66.4" stroke-miterlimit="10"/></g><g transform="translate(10,10) scale(1,1)"><path fill="none" stroke="#000000" d="M 233.8450710227273 58.4 L 247.45961647727273 58.4" stroke-miterlimit="10"/></g><g transform="translate(10,10) scale(1,1)"><path fill="none" stroke="#000000" d="M 240.65234375 66.4 L 231.19779829545456 79" stroke-miterlimit="10"/></g><g transform="translate(10,10) scale(1,1)"><path fill="none" stroke="#000000" d="M 240.65234375 66.4 L 250.10688920454547 79" stroke-miterlimit="10"/></g><g transform="translate(10,10) scale(1,1)"><g><path fill="none" stroke="none"/><text fill="#000000" stroke="none" font-family="Roboto" font-size="17px" font-style="normal" font-weight="bold" text-decoration="none" x="193.74462890625" y="103.5">: QuanLyKho</text></g></g><g transform="translate(10,10) scale(1,1)"><path fill="none" stroke="#000000" d="M 241.5 109 L 241.5 1104" stroke-miterlimit="10" stroke-dasharray="3"/></g><g transform="translate(10,10) scale(1,1)"><rect fill="#C0C0C0" stroke="none" x="559" y="47" width="103.69287109375" height="39" opacity="0.2"/></g><g transform="translate(10,10) scale(1,1)"><rect fill="#ffffff" stroke="none" x="552" y="40" width="103.69287109375" height="39"/></g><g transform="translate(10,10) scale(1,1)"><path fill="none" stroke="#000000" d="M 552 40 L 655.69287109375 40 L 655.69287109375 79 L 552 79 L 552 40 Z Z" stroke-miterlimit="10"/></g><g transform="translate(10,10) scale(1,1)"><g><path fill="none" stroke="none"/><text fill="#000000" stroke="none" font-family="Roboto" font-size="17px" font-style="normal" font-weight="bold" text-decoration="none" x="563.26806640625" y="63.5">TrinhDuyet</text></g></g><g transform="translate(10,10) scale(1,1)"><path fill="none" stroke="#000000" d="M 604.5 80 L 604.5 1104" stroke-miterlimit="10" stroke-dasharray="3"/></g><g transform="translate(10,10) scale(1,1)"><rect fill="#C0C0C0" stroke="none" x="823" y="47" width="227.4609375" height="39" opacity="0.2"/></g><g transform="translate(10,10) scale(1,1)"><rect fill="#ffffff" stroke="none" x="816" y="40" width="227.4609375" height="39"/></g><g transform="translate(10,10) scale(1,1)"><path fill="none" stroke="#000000" d="M 816 40 L 1043.4609375 40 L 1043.4609375 79 L 816 79 L 816 40 Z Z" stroke-miterlimit="10"/></g><g transform="translate(10,10) scale(1,1)"><g><path fill="none" stroke="none"/><text fill="#000000" stroke="none" font-family="Roboto" font-size="17px" font-style="normal" font-weight="bold" text-decoration="none" x="853.574951171875" y="63.5">: KhoHangController</text></g></g><g transform="translate(10,10) scale(1,1)"><path fill="none" stroke="#000000" d="M 930.5 80 L 930.5 1104" stroke-miterlimit="10" stroke-dasharray="3"/></g><g transform="translate(10,10) scale(1,1)"><rect fill="#C0C0C0" stroke="none" x="1239" y="47" width="141.0078125" height="39" opacity="0.2"/></g><g transform="translate(10,10) scale(1,1)"><rect fill="#ffffff" stroke="none" x="1232" y="40" width="141.0078125" height="39"/></g><g transform="translate(10,10) scale(1,1)"><path fill="none" stroke="#000000" d="M 1232 40 L 1373.0078125 40 L 1373.0078125 79 L 1232 79 L 1232 40 Z Z" stroke-miterlimit="10"/></g><g transform="translate(10,10) scale(1,1)"><g><path fill="none" stroke="none"/><text fill="#000000" stroke="none" font-family="Roboto" font-size="17px" font-style="normal" font-weight="bold" text-decoration="none" x="1271.595947265625" y="63.5">: DichVu</text></g></g><g transform="translate(10,10) scale(1,1)"><path fill="none" stroke="#000000" d="M 1303.5 80 L 1303.5 1104" stroke-miterlimit="10" stroke-dasharray="3"/></g><g transform="translate(10,10) scale(1,1)"><rect fill="#C0C0C0" stroke="none" x="1607" y="47" width="112.77392578125" height="39" opacity="0.2"/></g><g transform="translate(10,10) scale(1,1)"><rect fill="#ffffff" stroke="none" x="1600" y="40" width="112.77392578125" height="39"/></g><g transform="translate(10,10) scale(1,1)"><path fill="none" stroke="#000000" d="M 1600 40 L 1712.77392578125 40 L 1712.77392578125 79 L 1600 79 L 1600 40 Z Z" stroke-miterlimit="10"/></g><g transform="translate(10,10) scale(1,1)"><g><path fill="none" stroke="none"/><text fill="#000000" stroke="none" font-family="Roboto" font-size="17px" font-style="normal" font-weight="bold" text-decoration="none" x="1610.03125" y="63.5">CoSoDuLieu</text></g></g><g transform="translate(10,10) scale(1,1)"><path fill="none" stroke="#000000" d="M 1657.5 80 L 1657.5 1104" stroke-miterlimit="10" stroke-dasharray="3"/></g><g transform="translate(10,10) scale(1,1)"><path fill="none" stroke="#000000" d="M 241 160 L 597 160" stroke-miterlimit="10"/></g><g transform="translate(10,10) scale(1,1)"><path fill="#000000" stroke="none" d="M 586.8373251423759 164.209517756016 L 597 160 L 586.8373251423758 155.790482243984"/></g><g transform="translate(10,10) scale(1,1)"><path fill="none" stroke="#000000" d="M 586.8373251423759 164.209517756016 L 597 160 L 586.8373251423758 155.790482243984 L 586.8373251423759 164.209517756016" stroke-miterlimit="10"/></g><g transform="translate(10,10) scale(1,1)"><g><path fill="none" stroke="none"/><text fill="#000000" stroke="none" font-family="Roboto" font-size="17px" font-style="normal" font-weight="normal" text-decoration="none" x="257.5" y="148.5">1 : Chọn tính năng [Kiểm tra số lượng sách]</text></g></g><g transform="translate(10,10) scale(1,1)"><rect fill="#ffffff" stroke="none" x="597" y="160" width="13" height="155"/></g><g transform="translate(10,10) scale(1,1)"><path fill="none" stroke="#000000" d="M 597 160 L 610 160 L 610 315 L 597 315 L 597 160 Z Z" stroke-miterlimit="10"/></g><g transform="translate(10,10) scale(1,1)"><path fill="none" stroke="#000000" d="M 610 176 L 923 176" stroke-miterlimit="10"/></g><g transform="translate(10,10) scale(1,1)"><path fill="#000000" stroke="none" d="M 912.8373251423759 180.209517756016 L 923 176 L 912.8373251423758 171.790482243984"/></g><g transform="translate(10,10) scale(1,1)"><path fill="none" stroke="#000000" d="M 912.8373251423759 180.209517756016 L 923 176 L 912.8373251423758 171.790482243984 L 912.8373251423759 180.209517756016" stroke-miterlimit="10"/></g><g transform="translate(10,10) scale(1,1)"><g><path fill="none" stroke="none"/><text fill="#000000" stroke="none" font-family="Roboto" font-size="17px" font-style="normal" font-weight="normal" text-decoration="none" x="621.5" y="166.5">2 : Gửi yêu cầu kiểm tra số lượng sách</text></g></g><g transform="translate(10,10) scale(1,1)"><rect fill="#ffffff" stroke="none" x="923" y="176" width="13" height="144"/></g><g transform="translate(10,10) scale(1,1)"><path fill="none" stroke="#000000" d="M 923 176 L 936 176 L 936 320 L 923 320 L 923 176 Z Z" stroke-miterlimit="10"/></g><g transform="translate(10,10) scale(1,1)"><path fill="none" stroke="#000000" d="M 936 198 L 1296 198" stroke-miterlimit="10"/></g><g transform="translate(10,10) scale(1,1)"><path fill="#000000" stroke="none" d="M 1285.837325142376 202.209517756016 L 1296 198 L 1285.837325142376 193.790482243984"/></g><g transform="translate(10,10) scale(1,1)"><path fill="none" stroke="#000000" d="M 1285.837325142376 202.209517756016 L 1296 198 L 1285.837325142376 193.790482243984 L 1285.837325142376 202.209517756016" stroke-miterlimit="10"/></g><g transform="translate(10,10) scale(1,1)"><g><path fill="none" stroke="none"/><text fill="#000000" stroke="none" font-family="Roboto" font-size="17px" font-style="normal" font-weight="normal" text-decoration="none" x="949.5" y="190.5">3 : Gọi phương thức KiemTraSoLuongSach()</text></g></g><g transform="translate(10,10) scale(1,1)"><rect fill="#ffffff" stroke="none" x="1296" y="198" width="13" height="98"/></g><g transform="translate(10,10) scale(1,1)"><path fill="none" stroke="#000000" d="M 1296 198 L 1309 198 L 1309 296 L 1296 296 L 1296 198 Z Z" stroke-miterlimit="10"/></g><g transform="translate(10,10) scale(1,1)"><path fill="none" stroke="#000000" d="M 1309 213 L 1650 213" stroke-miterlimit="10"/></g><g transform="translate(10,10) scale(1,1)"><path fill="#000000" stroke="none" d="M 1639.837325142376 217.209517756016 L 1650 213 L 1639.837325142376 208.790482243984"/></g><g transform="translate(10,10) scale(1,1)"><path fill="none" stroke="#000000" d="M 1639.837325142376 217.209517756016 L 1650 213 L 1639.837325142376 208.790482243984 L 1639.837325142376 217.209517756016" stroke-miterlimit="10"/></g><g transform="translate(10,10) scale(1,1)"><g><path fill="none" stroke="none"/><text fill="#000000" stroke="none" font-family="Roboto" font-size="17px" font-style="normal" font-weight="normal" text-decoration="none" x="1328.5" y="199.5">4 : Kiểm tra số lượng sách tồn trong kho</text></g></g><g transform="translate(10,10) scale(1,1)"><rect fill="#ffffff" stroke="none" x="1650" y="213" width="13" height="67"/></g><g transform="translate(10,10) scale(1,1)"><path fill="none" stroke="#000000" d="M 1650 213 L 1663 213 L 1663 280 L 1650 280 L 1650 213 Z Z" stroke-miterlimit="10"/></g><g transform="translate(10,10) scale(1,1)"><path fill="none" stroke="#000000" d="M 1650 248 L 1309 248" stroke-miterlimit="10" stroke-dasharray="3"/></g><g transform="translate(10,10) scale(1,1)"><path fill="none" stroke="#000000" d="M 1319.162674857624 243.790482243984 L 1309 248 L 1319.162674857624 252.209517756016" stroke-miterlimit="10"/></g><g transform="translate(10,10) scale(1,1)"><g><path fill="none" stroke="none"/><text fill="#000000" stroke="none" font-family="Roboto" font-size="17px" font-style="normal" font-weight="normal" text-decoration="none" x="1333.5" y="270.5">5 : Kết quả số lượng của từng đầu sách</text></g></g><g transform="translate(10,10) scale(1,1)"><path fill="none" stroke="#000000" d="M 1296 266 L 936 266" stroke-miterlimit="10" stroke-dasharray="3"/></g><g transform="translate(10,10) scale(1,1)"><path fill="none" stroke="#000000" d="M 946.1626748576241 261.790482243984 L 936 266 L 946.1626748576241 270.209517756016" stroke-miterlimit="10"/></g><g transform="translate(10,10) scale(1,1)"><g><path fill="none" stroke="none"/><text fill="#000000" stroke="none" font-family="Roboto" font-size="17px" font-style="normal" font-weight="normal" text-decoration="none" x="967.5" y="295.5">5.1 : Sắp xếp theo thứ tự từ ít đến nhiều</text></g></g><g transform="translate(10,10) scale(1,1)"><path fill="none" stroke="#000000" d="M 923 286 L 610 286" stroke-miterlimit="10" stroke-dasharray="3"/></g><g transform="translate(10,10) scale(1,1)"><path fill="none" stroke="#000000" d="M 620.1626748576241 281.790482243984 L 610 286 L 620.1626748576241 290.209517756016" stroke-miterlimit="10"/></g><g transform="translate(10,10) scale(1,1)"><g><path fill="none" stroke="none"/><text fill="#000000" stroke="none" font-family="Roboto" font-size="17px" font-style="normal" font-weight="normal" text-decoration="none" x="615.5" y="311.5">5.2 : Danh sách số lượng từng đầu sách</text></g></g><g transform="translate(10,10) scale(1,1)"><path fill="none" stroke="#000000" d="M 597 305 L 241 305" stroke-miterlimit="10" stroke-dasharray="3"/></g><g transform="translate(10,10) scale(1,1)"><path fill="none" stroke="#000000" d="M 251.16267485762415 300.790482243984 L 241 305 L 251.16267485762415 309.209517756016" stroke-miterlimit="10"/></g><g transform="translate(10,10) scale(1,1)"><g><path fill="none" stroke="none"/><text fill="#000000" stroke="none" font-family="Roboto" font-size="17px" font-style="normal" font-weight="normal" text-decoration="none" x="257.5" y="334.5">5.3 : Hiện danh sách số lượng từng đầu sách</text></g></g><g transform="translate(10,10) scale(1,1)"><path fill="none" stroke="#000000" d="M 241 408 L 597 408" stroke-miterlimit="10"/></g><g transform="translate(10,10) scale(1,1)"><path fill="#000000" stroke="none" d="M 586.8373251423759 412.209517756016 L 597 408 L 586.8373251423758 403.790482243984"/></g><g transform="translate(10,10) scale(1,1)"><path fill="none" stroke="#000000" d="M 586.8373251423759 412.209517756016 L 597 408 L 586.8373251423758 403.790482243984 L 586.8373251423759 412.209517756016" stroke-miterlimit="10"/></g><g transform="translate(10,10) scale(1,1)"><g><path fill="none" stroke="none"/><text fill="#000000" stroke="none" font-family="Roboto" font-size="17px" font-style="normal" font-weight="normal" text-decoration="none" x="275.5" y="399.5">6 : Chọn tính năng [Nhập sách vào kho]</text></g></g><g transform="translate(10,10) scale(1,1)"><rect fill="#ffffff" stroke="none" x="597" y="408" width="13" height="72"/></g><g transform="translate(10,10) scale(1,1)"><path fill="none" stroke="#000000" d="M 597 408 L 610 408 L 610 480 L 597 480 L 597 408 Z Z" stroke-miterlimit="10"/></g><g transform="translate(10,10) scale(1,1)"><path fill="none" stroke="#000000" d="M 597 448 L 241 448" stroke-miterlimit="10" stroke-dasharray="3"/></g><g transform="translate(10,10) scale(1,1)"><path fill="none" stroke="#000000" d="M 251.16267485762415 443.790482243984 L 241 448 L 251.16267485762415 452.209517756016" stroke-miterlimit="10"/></g><g transform="translate(10,10) scale(1,1)"><g><path fill="none" stroke="none"/><text fill="#000000" stroke="none" font-family="Roboto" font-size="17px" font-style="normal" font-weight="normal" text-decoration="none" x="311.5" y="471.5">7 : Hiện biểu mẫu nhập sách</text></g></g><g transform="translate(10,10) scale(1,1)"><path fill="none" stroke="#000000" d="M 241 568 L 597 568" stroke-miterlimit="10"/></g><g transform="translate(10,10) scale(1,1)"><path fill="#000000" stroke="none" d="M 586.8373251423759 572.209517756016 L 597 568 L 586.8373251423758 563.790482243984"/></g><g transform="translate(10,10) scale(1,1)"><path fill="none" stroke="#000000" d="M 586.8373251423759 572.209517756016 L 597 568 L 586.8373251423758 563.790482243984 L 586.8373251423759 572.209517756016" stroke-miterlimit="10"/></g><g transform="translate(10,10) scale(1,1)"><g><path fill="none" stroke="none"/><text fill="#000000" stroke="none" font-family="Roboto" font-size="17px" font-style="normal" font-weight="normal" text-decoration="none" x="275.93896484375" y="559.5">8 : Điều chỉnh số lượng sách cần nhập</text></g></g><g transform="translate(10,10) scale(1,1)"><rect fill="#ffffff" stroke="none" x="597" y="568" width="13" height="464"/></g><g transform="translate(10,10) scale(1,1)"><path fill="none" stroke="#000000" d="M 597 568 L 610 568 L 610 1032 L 597 1032 L 597 568 Z Z" stroke-miterlimit="10"/></g><g transform="translate(10,10) scale(1,1)"><path fill="none" stroke="#000000" d="M 610 584 L 640 584 L 640 604 L 617 604" stroke-miterlimit="10"/></g><g transform="translate(10,10) scale(1,1)"><path fill="#000000" stroke="none" d="M 627.1626748576241 599.790482243984 L 617 604 L 627.1626748576241 608.209517756016"/></g><g transform="translate(10,10) scale(1,1)"><path fill="none" stroke="#000000" d="M 627.1626748576241 599.790482243984 L 617 604 L 627.1626748576241 608.209517756016 L 627.1626748576241 599.790482243984" stroke-miterlimit="10"/></g><g transform="translate(10,10) scale(1,1)"><g><path fill="none" stroke="none"/><text fill="#000000" stroke="none" font-family="Roboto" font-size="17px" font-style="normal" font-weight="normal" text-decoration="none" x="655.5" y="598.5">8.1 : Nhập số lượng sách</text></g></g><g transform="translate(10,10) scale(1,1)"><rect fill="#ffffff" stroke="none" x="604" y="604" width="13" height="36"/></g><g transform="translate(10,10) scale(1,1)"><path fill="none" stroke="#000000" d="M 604 604 L 617 604 L 617 640 L 604 640 L 604 604 Z Z" stroke-miterlimit="10"/></g><g transform="translate(10,10) scale(1,1)"><path fill="none" stroke="#000000" d="M 610 712 L 923 712" stroke-miterlimit="10"/></g><g transform="translate(10,10) scale(1,1)"><path fill="#000000" stroke="none" d="M 912.8373251423759 716.209517756016 L 923 712 L 912.8373251423758 707.790482243984"/></g><g transform="translate(10,10) scale(1,1)"><path fill="none" stroke="#000000" d="M 912.8373251423759 716.209517756016 L 923 712 L 912.8373251423758 707.790482243984 L 912.8373251423759 716.209517756016" stroke-miterlimit="10"/></g><g transform="translate(10,10) scale(1,1)"><g><path fill="none" stroke="none"/><text fill="#000000" stroke="none" font-family="Roboto" font-size="17px" font-style="normal" font-weight="normal" text-decoration="none" x="630.5" y="701.5">8.2 : Gửi yêu cầu nhập sách vào kho</text></g></g><g transform="translate(10,10) scale(1,1)"><rect fill="#ffffff" stroke="none" x="923" y="712" width="13" height="296"/></g><g transform="translate(10,10) scale(1,1)"><path fill="none" stroke="#000000" d="M 923 712 L 936 712 L 936 1008 L 923 1008 L 923 712 Z Z" stroke-miterlimit="10"/></g><g transform="translate(10,10) scale(1,1)"><path fill="none" stroke="#000000" d="M 936 728 L 1296 728" stroke-miterlimit="10"/></g><g transform="translate(10,10) scale(1,1)"><path fill="#000000" stroke="none" d="M 1285.837325142376 732.209517756016 L 1296 728 L 1285.837325142376 723.790482243984"/></g><g transform="translate(10,10) scale(1,1)"><path fill="none" stroke="#000000" d="M 1285.837325142376 732.209517756016 L 1296 728 L 1285.837325142376 723.790482243984 L 1285.837325142376 732.209517756016" stroke-miterlimit="10"/></g><g transform="translate(10,10) scale(1,1)"><g><path fill="none" stroke="none"/><text fill="#000000" stroke="none" font-family="Roboto" font-size="17px" font-style="normal" font-weight="normal" text-decoration="none" x="942.5" y="719.5">8.3 : Gọi phương thức KiemTraSoLuongNhap()</text></g></g><g transform="translate(10,10) scale(1,1)"><rect fill="#ffffff" stroke="none" x="1296" y="728" width="13" height="264"/></g><g transform="translate(10,10) scale(1,1)"><path fill="none" stroke="#000000" d="M 1296 728 L 1309 728 L 1309 992 L 1296 992 L 1296 728 Z Z" stroke-miterlimit="10"/></g><g transform="translate(10,10) scale(1,1)"><path fill="none" stroke="#000000" d="M 1309 744 L 1650 744" stroke-miterlimit="10"/></g><g transform="translate(10,10) scale(1,1)"><path fill="#000000" stroke="none" d="M 1639.837325142376 748.209517756016 L 1650 744 L 1639.837325142376 739.790482243984"/></g><g transform="translate(10,10) scale(1,1)"><path fill="none" stroke="#000000" d="M 1639.837325142376 748.209517756016 L 1650 744 L 1639.837325142376 739.790482243984 L 1639.837325142376 748.209517756016" stroke-miterlimit="10"/></g><g transform="translate(10,10) scale(1,1)"><g><path fill="none" stroke="none"/><text fill="#000000" stroke="none" font-family="Roboto" font-size="17px" font-style="normal" font-weight="normal" text-decoration="none" x="1329.5" y="734.5">8.4 : if (SLNhap &gt;=150 &amp;&amp; SLKho &lt; 300)</text></g></g><g transform="translate(10,10) scale(1,1)"><rect fill="#ffffff" stroke="none" x="1650" y="744" width="13" height="232"/></g><g transform="translate(10,10) scale(1,1)"><path fill="none" stroke="#000000" d="M 1650 744 L 1663 744 L 1663 976 L 1650 976 L 1650 744 Z Z" stroke-miterlimit="10"/></g><g transform="translate(10,10) scale(1,1)"><path fill="none" stroke="#000000" d="M 1650 800 L 1309 800" stroke-miterlimit="10" stroke-dasharray="3"/></g><g transform="translate(10,10) scale(1,1)"><path fill="none" stroke="#000000" d="M 1319.162674857624 795.790482243984 L 1309 800 L 1319.162674857624 804.209517756016" stroke-miterlimit="10"/></g><g transform="translate(10,10) scale(1,1)"><g><path fill="none" stroke="none"/><text fill="#000000" stroke="none" font-family="Roboto" font-size="17px" font-style="normal" font-weight="normal" text-decoration="none" x="1339.5" y="826.5">9.1 : Đủ điều kiện nhập sách vào kho</text></g></g><g transform="translate(10,10) scale(1,1)"><path fill="none" stroke="#000000" d="M 1296 819 L 936 819" stroke-miterlimit="10" stroke-dasharray="3"/></g><g transform="translate(10,10) scale(1,1)"><path fill="none" stroke="#000000" d="M 946.1626748576241 814.790482243984 L 936 819 L 946.1626748576241 823.209517756016" stroke-miterlimit="10"/></g><g transform="translate(10,10) scale(1,1)"><g><path fill="none" stroke="none"/><text fill="#000000" stroke="none" font-family="Roboto" font-size="17px" font-style="normal" font-weight="normal" text-decoration="none" x="974.5" y="847.5">9.1.1 : Được phép nhập sách vào kho</text></g></g><g transform="translate(10,10) scale(1,1)"><path fill="none" stroke="#000000" d="M 923 834 L 610 834" stroke-miterlimit="10" stroke-dasharray="3"/></g><g transform="translate(10,10) scale(1,1)"><path fill="none" stroke="#000000" d="M 620.1626748576241 829.790482243984 L 610 834 L 620.1626748576241 838.209517756016" stroke-miterlimit="10"/></g><g transform="translate(10,10) scale(1,1)"><g><path fill="none" stroke="none"/><text fill="#000000" stroke="none" font-family="Roboto" font-size="17px" font-style="normal" font-weight="normal" text-decoration="none" x="642.5" y="863.5">9.1.2 : Phản hồi phiếu nhập sách</text></g></g><g transform="translate(10,10) scale(1,1)"><path fill="none" stroke="#000000" d="M 597 856 L 241 856" stroke-miterlimit="10" stroke-dasharray="3"/></g><g transform="translate(10,10) scale(1,1)"><path fill="none" stroke="#000000" d="M 251.16267485762415 851.790482243984 L 241 856 L 251.16267485762415 860.209517756016" stroke-miterlimit="10"/></g><g transform="translate(10,10) scale(1,1)"><g><path fill="none" stroke="none"/><text fill="#000000" stroke="none" font-family="Roboto" font-size="17px" font-style="normal" font-weight="normal" text-decoration="none" x="311.5" y="879.5">9.1.3 : Hiện phiếu nhập sách</text></g></g><g transform="translate(10,10) scale(1,1)"><path fill="none" stroke="#000000" d="M 1650 944 L 1309 944" stroke-miterlimit="10" stroke-dasharray="3"/></g><g transform="translate(10,10) scale(1,1)"><path fill="none" stroke="#000000" d="M 1319.162674857624 939.790482243984 L 1309 944 L 1319.162674857624 948.209517756016" stroke-miterlimit="10"/></g><g transform="translate(10,10) scale(1,1)"><g><path fill="none" stroke="none"/><text fill="#000000" stroke="none" font-family="Roboto" font-size="17px" font-style="normal" font-weight="normal" text-decoration="none" x="1317.5" y="968.5">9.2 : Không đủ điều kiện nhập sách vào kho</text></g></g><g transform="translate(10,10) scale(1,1)"><path fill="none" stroke="#000000" d="M 1296 960 L 936 960" stroke-miterlimit="10" stroke-dasharray="3"/></g><g transform="translate(10,10) scale(1,1)"><path fill="none" stroke="#000000" d="M 946.1626748576241 955.790482243984 L 936 960 L 946.1626748576241 964.209517756016" stroke-miterlimit="10"/></g><g transform="translate(10,10) scale(1,1)"><g><path fill="none" stroke="none"/><text fill="#000000" stroke="none" font-family="Roboto" font-size="17px" font-style="normal" font-weight="normal" text-decoration="none" x="949.5" y="983.5">9.2.1 : Không được phép nhập sách vào kho</text></g></g><g transform="translate(10,10) scale(1,1)"><path fill="none" stroke="#000000" d="M 923 976 L 610 976" stroke-miterlimit="10" stroke-dasharray="3"/></g><g transform="translate(10,10) scale(1,1)"><path fill="none" stroke="#000000" d="M 620.1626748576241 971.790482243984 L 610 976 L 620.1626748576241 980.209517756016" stroke-miterlimit="10"/></g><g transform="translate(10,10) scale(1,1)"><g><path fill="none" stroke="none"/><text fill="#000000" stroke="none" font-family="Roboto" font-size="17px" font-style="normal" font-weight="normal" text-decoration="none" x="617.741455078125" y="998.5">9.2.2 : Thông báo không được phép nhập</text></g></g><g transform="translate(10,10) scale(1,1)"><path fill="none" stroke="#000000" d="M 597 1000 L 241 1000" stroke-miterlimit="10" stroke-dasharray="3"/></g><g transform="translate(10,10) scale(1,1)"><path fill="none" stroke="#000000" d="M 251.16267485762415 995.790482243984 L 241 1000 L 251.16267485762415 1004.209517756016" stroke-miterlimit="10"/></g><g transform="translate(10,10) scale(1,1)"><g><path fill="none" stroke="none"/><text fill="#000000" stroke="none" font-family="Roboto" font-size="17px" font-style="normal" font-weight="normal" text-decoration="none" x="246.011962890625" y="1025.5">9.2.3 : Hiện lý do không được phép nhập sách</text></g></g><g transform="translate(10,10) scale(1,1)"><path fill="none" stroke="#000000" d="M 72 768 L 1712 768 L 1712 1064 L 72 1064 L 72 768" stroke-miterlimit="10"/></g><g transform="translate(10,10) scale(1,1)"><path fill="#ffffff" stroke="none" d="M 72 768 L 72 794 L 258.3818359375 794 L 271.3818359375 781 L 271.3818359375 768 L 72 768"/></g><g transform="translate(10,10) scale(1,1)"><path fill="none" stroke="#000000" d="M 72 768 L 72 794 L 258.3818359375 794 L 271.3818359375 781 L 271.3818359375 768 L 72 768 L 72 768" stroke-miterlimit="10"/></g><g transform="translate(10,10) scale(1,1)"><g><path fill="none" stroke="none"/><text fill="#000000" stroke="none" font-family="Roboto" font-size="17px" font-style="normal" font-weight="normal" text-decoration="none" x="101.92578125" y="789.5">Điều kiện nhập sách</text></g></g><g transform="translate(10,10) scale(1,1)"><g><path fill="none" stroke="none"/><text fill="#000000" stroke="none" font-family="Roboto" font-size="17px" font-style="normal" font-weight="bold" text-decoration="none" x="77" y="789.5">alt</text></g></g><g transform="translate(10,10) scale(1,1)"><g><path fill="none" stroke="none"/><text fill="#000000" stroke="none" font-family="Roboto" font-size="17px" font-style="normal" font-weight="normal" text-decoration="none" x="91.5" y="826.5">[Đủ điều kiện]</text></g></g><g transform="translate(10,10) scale(1,1)"><path fill="none" stroke="#000000" d="M 72 906 L 1712 906" stroke-miterlimit="10" stroke-dasharray="10,3"/></g><g transform="translate(10,10) scale(1,1)"><g><path fill="none" stroke="none"/><text fill="#000000" stroke="none" font-family="Roboto" font-size="17px" font-style="normal" font-weight="normal" text-decoration="none" x="91.5" y="937.5">[Không đủ kiều kiện]</text></g></g><g transform="translate(10,10) scale(1,1)"><path fill="none" stroke="#000000" d="M 72 512 L 888 512 L 888 657 L 72 657 L 72 512" stroke-miterlimit="10"/></g><g transform="translate(10,10) scale(1,1)"><path fill="#ffffff" stroke="none" d="M 72 512 L 72 538 L 271.95361328125 538 L 284.95361328125 525 L 284.95361328125 512 L 72 512"/></g><g transform="translate(10,10) scale(1,1)"><path fill="none" stroke="#000000" d="M 72 512 L 72 538 L 271.95361328125 538 L 284.95361328125 525 L 284.95361328125 512 L 72 512 L 72 512" stroke-miterlimit="10"/></g><g transform="translate(10,10) scale(1,1)"><g><path fill="none" stroke="none"/><text fill="#000000" stroke="none" font-family="Roboto" font-size="17px" font-style="normal" font-weight="normal" text-decoration="none" x="116.0537109375" y="533.5">Nhập số lượng sách</text></g></g><g transform="translate(10,10) scale(1,1)"><g><path fill="none" stroke="none"/><text fill="#000000" stroke="none" font-family="Roboto" font-size="17px" font-style="normal" font-weight="bold" text-decoration="none" x="77" y="533.5">loop</text></g></g><g transform="translate(10,10) scale(1,1)"><g><path fill="none" stroke="none"/><text fill="#000000" stroke="none" font-family="Roboto" font-size="17px" font-style="normal" font-weight="normal" text-decoration="none" x="91.5" y="570.5">[Thay đổi số lượng]</text></g></g></g></svg>