<svg version="1.1" xmlns="http://www.w3.org/2000/svg" xmlns:xlink="http://www.w3.org/1999/xlink" width="1500" height="1317"><defs/><g><g transform="translate(-54,-6) scale(1,1)"><rect fill="#C0C0C0" stroke="none" x="335" y="71" width="1064" height="1192" opacity="0.2"/></g><g transform="translate(-54,-6) scale(1,1)"><rect fill="#ffffff" stroke="none" x="328" y="64" width="1064" height="1192"/></g><g transform="translate(-54,-6) scale(1,1)"><path fill="none" stroke="#000000" d="M 328 64 L 1392 64 L 1392 1256 L 328 1256 L 328 64 Z Z" stroke-miterlimit="10"/></g><g transform="translate(-54,-6) scale(1,1)"><g><path fill="none" stroke="none"/><text fill="#000000" stroke="none" font-family="Roboto" font-size="14px" font-style="normal" font-weight="bold" text-decoration="none" x="776.1025390625" y="84.5">Ứng dụng quản lý nhà sách</text></g></g><g transform="translate(-54,-6) scale(1,1)"><path fill="#ffffff" stroke="none" d="M 206.03490909090908 451.03999999999996 C 206.03490909090908 445.49506060799996 210.4964317602909 441 216 441 C 221.5035682397091 441 225.96509090909092 445.49506060799996 225.96509090909092 451.03999999999996 C 225.96509090909092 456.58493939199997 221.5035682397091 461.08 216 461.08 C 210.4964317602909 461.08 206.03490909090908 456.58493939199997 206.03490909090908 451.03999999999996 Z"/></g><g transform="translate(-54,-6) scale(1,1)"><path fill="none" stroke="#000000" d="M 206.03490909090908 451.03999999999996 C 206.03490909090908 445.49506060799996 210.4964317602909 441 216 441 C 221.5035682397091 441 225.96509090909092 445.49506060799996 225.96509090909092 451.03999999999996 C 225.96509090909092 456.58493939199997 221.5035682397091 461.08 216 461.08 C 210.4964317602909 461.08 206.03490909090908 456.58493939199997 206.03490909090908 451.03999999999996 Z" stroke-miterlimit="10"/></g><g transform="translate(-54,-6) scale(1,1)"><path fill="none" stroke="#000000" d="M 216 461.08 L 216 480.92" stroke-miterlimit="10"/></g><g transform="translate(-54,-6) scale(1,1)"><path fill="none" stroke="#000000" d="M 205.44872727272727 468.52 L 226.55127272727273 468.52" stroke-miterlimit="10"/></g><g transform="translate(-54,-6) scale(1,1)"><path fill="none" stroke="#000000" d="M 216 480.92 L 201.34545454545454 501" stroke-miterlimit="10"/></g><g transform="translate(-54,-6) scale(1,1)"><path fill="none" stroke="#000000" d="M 216 480.92 L 230.65454545454546 501" stroke-miterlimit="10"/></g><g transform="translate(-54,-6) scale(1,1)"><g><path fill="none" stroke="none"/><text fill="#000000" stroke="none" font-family="Roboto" font-size="14px" font-style="normal" font-weight="bold" text-decoration="none" x="179.2431640625" y="522.5">Khách hàng</text></g></g><g transform="translate(-54,-6) scale(1,1)"><path fill="#ffffff" stroke="none" d="M 209.392 851.72 C 209.392 845.799506944 214.1413628416 841 220 841 C 225.8586371584 841 230.608 845.799506944 230.608 851.72 C 230.608 857.6404930560001 225.8586371584 862.44 220 862.44 C 214.1413628416 862.44 209.392 857.6404930560001 209.392 851.72 Z"/></g><g transform="translate(-54,-6) scale(1,1)"><path fill="none" stroke="#000000" d="M 209.392 851.72 C 209.392 845.799506944 214.1413628416 841 220 841 C 225.8586371584 841 230.608 845.799506944 230.608 851.72 C 230.608 857.6404930560001 225.8586371584 862.44 220 862.44 C 214.1413628416 862.44 209.392 857.6404930560001 209.392 851.72 Z" stroke-miterlimit="10"/></g><g transform="translate(-54,-6) scale(1,1)"><path fill="none" stroke="#000000" d="M 220 862.44 L 220 883.56" stroke-miterlimit="10"/></g><g transform="translate(-54,-6) scale(1,1)"><path fill="none" stroke="#000000" d="M 208.768 870.36 L 231.232 870.36" stroke-miterlimit="10"/></g><g transform="translate(-54,-6) scale(1,1)"><path fill="none" stroke="#000000" d="M 220 883.56 L 204.4 905" stroke-miterlimit="10"/></g><g transform="translate(-54,-6) scale(1,1)"><path fill="none" stroke="#000000" d="M 220 883.56 L 235.6 905" stroke-miterlimit="10"/></g><g transform="translate(-54,-6) scale(1,1)"><g><path fill="none" stroke="none"/><text fill="#000000" stroke="none" font-family="Roboto" font-size="14px" font-style="normal" font-weight="bold" text-decoration="none" x="189.09130859375" y="926.5">Nhân viên</text></g></g><g transform="translate(-54,-6) scale(1,1)"><path fill="#ffffff" stroke="none" d="M 1481.392 851.72 C 1481.392 845.799506944 1486.1413628416 841 1492 841 C 1497.8586371584 841 1502.608 845.799506944 1502.608 851.72 C 1502.608 857.6404930560001 1497.8586371584 862.44 1492 862.44 C 1486.1413628416 862.44 1481.392 857.6404930560001 1481.392 851.72 Z"/></g><g transform="translate(-54,-6) scale(1,1)"><path fill="none" stroke="#000000" d="M 1481.392 851.72 C 1481.392 845.799506944 1486.1413628416 841 1492 841 C 1497.8586371584 841 1502.608 845.799506944 1502.608 851.72 C 1502.608 857.6404930560001 1497.8586371584 862.44 1492 862.44 C 1486.1413628416 862.44 1481.392 857.6404930560001 1481.392 851.72 Z" stroke-miterlimit="10"/></g><g transform="translate(-54,-6) scale(1,1)"><path fill="none" stroke="#000000" d="M 1492 862.44 L 1492 883.56" stroke-miterlimit="10"/></g><g transform="translate(-54,-6) scale(1,1)"><path fill="none" stroke="#000000" d="M 1480.768 870.36 L 1503.232 870.36" stroke-miterlimit="10"/></g><g transform="translate(-54,-6) scale(1,1)"><path fill="none" stroke="#000000" d="M 1492 883.56 L 1476.4 905" stroke-miterlimit="10"/></g><g transform="translate(-54,-6) scale(1,1)"><path fill="none" stroke="#000000" d="M 1492 883.56 L 1507.6 905" stroke-miterlimit="10"/></g><g transform="translate(-54,-6) scale(1,1)"><g><path fill="none" stroke="none"/><text fill="#000000" stroke="none" font-family="Roboto" font-size="14px" font-style="normal" font-weight="bold" text-decoration="none" x="1455.78662109375" y="926.5">Quản lý kho</text></g></g><g transform="translate(-54,-6) scale(1,1)"><path fill="#ffffff" stroke="none" d="M 1481.392 1147.72 C 1481.392 1141.799506944 1486.1413628416 1137 1492 1137 C 1497.8586371584 1137 1502.608 1141.799506944 1502.608 1147.72 C 1502.608 1153.640493056 1497.8586371584 1158.44 1492 1158.44 C 1486.1413628416 1158.44 1481.392 1153.640493056 1481.392 1147.72 Z"/></g><g transform="translate(-54,-6) scale(1,1)"><path fill="none" stroke="#000000" d="M 1481.392 1147.72 C 1481.392 1141.799506944 1486.1413628416 1137 1492 1137 C 1497.8586371584 1137 1502.608 1141.799506944 1502.608 1147.72 C 1502.608 1153.640493056 1497.8586371584 1158.44 1492 1158.44 C 1486.1413628416 1158.44 1481.392 1153.640493056 1481.392 1147.72 Z" stroke-miterlimit="10"/></g><g transform="translate(-54,-6) scale(1,1)"><path fill="none" stroke="#000000" d="M 1492 1158.44 L 1492 1179.56" stroke-miterlimit="10"/></g><g transform="translate(-54,-6) scale(1,1)"><path fill="none" stroke="#000000" d="M 1480.768 1166.36 L 1503.232 1166.36" stroke-miterlimit="10"/></g><g transform="translate(-54,-6) scale(1,1)"><path fill="none" stroke="#000000" d="M 1492 1179.56 L 1476.4 1201" stroke-miterlimit="10"/></g><g transform="translate(-54,-6) scale(1,1)"><path fill="none" stroke="#000000" d="M 1492 1179.56 L 1507.6 1201" stroke-miterlimit="10"/></g><g transform="translate(-54,-6) scale(1,1)"><g><path fill="none" stroke="none"/><text fill="#000000" stroke="none" font-family="Roboto" font-size="14px" font-style="normal" font-weight="bold" text-decoration="none" x="1447.72705078125" y="1222.5">Người quản trị</text></g></g><g transform="translate(-54,-6) scale(1,1)"><path fill="#C0C0C0" stroke="none" d="M 1127 370.5 C 1127 350.8938896 1180.725824 335 1247 335 C 1313.274176 335 1367 350.8938896 1367 370.5 C 1367 390.1061104 1313.274176 406 1247 406 C 1180.725824 406 1127 390.1061104 1127 370.5 Z" opacity="0.2"/></g><g transform="translate(-54,-6) scale(1,1)"><path fill="#ffffff" stroke="none" d="M 1120 363.5 C 1120 343.8938896 1173.725824 328 1240 328 C 1306.274176 328 1360 343.8938896 1360 363.5 C 1360 383.1061104 1306.274176 399 1240 399 C 1173.725824 399 1120 383.1061104 1120 363.5 Z"/></g><g transform="translate(-54,-6) scale(1,1)"><path fill="none" stroke="#000000" d="M 1120 363.5 C 1120 343.8938896 1173.725824 328 1240 328 C 1306.274176 328 1360 343.8938896 1360 363.5 C 1360 383.1061104 1306.274176 399 1240 399 C 1173.725824 399 1120 383.1061104 1120 363.5 Z" stroke-miterlimit="10"/></g><g transform="translate(-54,-6) scale(1,1)"><g><path fill="none" stroke="none"/><text fill="#000000" stroke="none" font-family="Roboto" font-size="14px" font-style="normal" font-weight="bold" text-decoration="none" x="1161.64306640625" y="364">Thanh toán và nhận hàng</text><text fill="#000000" stroke="none" font-family="Roboto" font-size="14px" font-style="normal" font-weight="bold" text-decoration="none" x="1174.54248046875" y="378">trực tiếp tại nhà sách</text></g></g><g transform="translate(-54,-6) scale(1,1)"><path fill="#C0C0C0" stroke="none" d="M 863 288 C 863 274.19288 893.4446336 263 931 263 C 968.5553664 263 999 274.19288 999 288 C 999 301.80712 968.5553664 313 931 313 C 893.4446336 313 863 301.80712 863 288 Z" opacity="0.2"/></g><g transform="translate(-54,-6) scale(1,1)"><path fill="#ffffff" stroke="none" d="M 856 281 C 856 267.19288 886.4446336 256 924 256 C 961.5553664 256 992 267.19288 992 281 C 992 294.80712 961.5553664 306 924 306 C 886.4446336 306 856 294.80712 856 281 Z"/></g><g transform="translate(-54,-6) scale(1,1)"><path fill="none" stroke="#000000" d="M 856 281 C 856 267.19288 886.4446336 256 924 256 C 961.5553664 256 992 267.19288 992 281 C 992 294.80712 961.5553664 306 924 306 C 886.4446336 306 856 294.80712 856 281 Z" stroke-miterlimit="10"/></g><g transform="translate(-54,-6) scale(1,1)"><path fill="none" stroke="#000000" d="M 856 311 L 992 311" stroke-miterlimit="10"/></g><g transform="translate(-54,-6) scale(1,1)"><g><path fill="none" stroke="none"/><text fill="#000000" stroke="none" font-family="Roboto" font-size="14px" font-style="normal" font-weight="bold" text-decoration="none" x="888.8291015625" y="284">Thanh toán</text><text fill="#000000" stroke="none" font-family="Roboto" font-size="14px" font-style="normal" font-weight="bold" text-decoration="none" x="894.90283203125" y="298">đơn hàng</text></g></g><g transform="translate(-54,-6) scale(1,1)"><g><path fill="none" stroke="none"/><text fill="#000000" stroke="none" font-family="Roboto" font-size="14px" font-style="normal" font-weight="normal" text-decoration="none" x="861" y="329.5">Huỷ đơn hàng</text></g></g><g transform="translate(-54,-6) scale(1,1)"><path fill="#C0C0C0" stroke="none" d="M 439 347 C 439 335.954304 469.4446336 327 507 327 C 544.5553664 327 575 335.954304 575 347 C 575 358.045696 544.5553664 367 507 367 C 469.4446336 367 439 358.045696 439 347 Z" opacity="0.2"/></g><g transform="translate(-54,-6) scale(1,1)"><path fill="#ffffff" stroke="none" d="M 432 340 C 432 328.954304 462.4446336 320 500 320 C 537.5553664 320 568 328.954304 568 340 C 568 351.045696 537.5553664 360 500 360 C 462.4446336 360 432 351.045696 432 340 Z"/></g><g transform="translate(-54,-6) scale(1,1)"><path fill="none" stroke="#000000" d="M 432 340 C 432 328.954304 462.4446336 320 500 320 C 537.5553664 320 568 328.954304 568 340 C 568 351.045696 537.5553664 360 500 360 C 462.4446336 360 432 351.045696 432 340 Z" stroke-miterlimit="10"/></g><g transform="translate(-54,-6) scale(1,1)"><g><path fill="none" stroke="none"/><text fill="#000000" stroke="none" font-family="Roboto" font-size="14px" font-style="normal" font-weight="bold" text-decoration="none" x="459.7841796875" y="347.5">Tra cứu sách</text></g></g><g transform="translate(-54,-6) scale(1,1)"><path fill="#C0C0C0" stroke="none" d="M 799 175 C 799 161.7451648 830.5639216 151 869.5 151 C 908.4360784 151 940 161.7451648 940 175 C 940 188.2548352 908.4360784 199 869.5 199 C 830.5639216 199 799 188.2548352 799 175 Z" opacity="0.2"/></g><g transform="translate(-54,-6) scale(1,1)"><path fill="#ffffff" stroke="none" d="M 792 168 C 792 154.7451648 823.5639216 144 862.5 144 C 901.4360784 144 933 154.7451648 933 168 C 933 181.2548352 901.4360784 192 862.5 192 C 823.5639216 192 792 181.2548352 792 168 Z"/></g><g transform="translate(-54,-6) scale(1,1)"><path fill="none" stroke="#000000" d="M 792 168 C 792 154.7451648 823.5639216 144 862.5 144 C 901.4360784 144 933 154.7451648 933 168 C 933 181.2548352 901.4360784 192 862.5 192 C 823.5639216 192 792 181.2548352 792 168 Z" stroke-miterlimit="10"/></g><g transform="translate(-54,-6) scale(1,1)"><g><path fill="none" stroke="none"/><text fill="#000000" stroke="none" font-family="Roboto" font-size="14px" font-style="normal" font-weight="bold" text-decoration="none" x="819.5087890625" y="175.5">Huỷ đơn hàng</text></g></g><g transform="translate(-54,-6) scale(1,1)"><path fill="#C0C0C0" stroke="none" d="M 663 306.5 C 663 291.312168 688.0720512 279 719 279 C 749.9279488 279 775 291.312168 775 306.5 C 775 321.687832 749.9279488 334 719 334 C 688.0720512 334 663 321.687832 663 306.5 Z" opacity="0.2"/></g><g transform="translate(-54,-6) scale(1,1)"><path fill="#ffffff" stroke="none" d="M 656 299.5 C 656 284.312168 681.0720512 272 712 272 C 742.9279488 272 768 284.312168 768 299.5 C 768 314.687832 742.9279488 327 712 327 C 681.0720512 327 656 314.687832 656 299.5 Z"/></g><g transform="translate(-54,-6) scale(1,1)"><path fill="none" stroke="#000000" d="M 656 299.5 C 656 284.312168 681.0720512 272 712 272 C 742.9279488 272 768 284.312168 768 299.5 C 768 314.687832 742.9279488 327 712 327 C 681.0720512 327 656 314.687832 656 299.5 Z" stroke-miterlimit="10"/></g><g transform="translate(-54,-6) scale(1,1)"><g><path fill="none" stroke="none"/><text fill="#000000" stroke="none" font-family="Roboto" font-size="14px" font-style="normal" font-weight="bold" text-decoration="none" x="681.552734375" y="300">Mua sách</text><text fill="#000000" stroke="none" font-family="Roboto" font-size="14px" font-style="normal" font-weight="bold" text-decoration="none" x="680.63330078125" y="314">trực tuyến</text></g></g><g transform="translate(-54,-6) scale(1,1)"><path fill="#C0C0C0" stroke="none" d="M 863 987 C 863 971.5360256 922.0984064 959 995 959 C 1067.9015936 959 1127 971.5360256 1127 987 C 1127 1002.4639744 1067.9015936 1015 995 1015 C 922.0984064 1015 863 1002.4639744 863 987 Z" opacity="0.2"/></g><g transform="translate(-54,-6) scale(1,1)"><path fill="#ffffff" stroke="none" d="M 856 980 C 856 964.5360256 915.0984064 952 988 952 C 1060.9015936 952 1120 964.5360256 1120 980 C 1120 995.4639744 1060.9015936 1008 988 1008 C 915.0984064 1008 856 995.4639744 856 980 Z"/></g><g transform="translate(-54,-6) scale(1,1)"><path fill="none" stroke="#000000" d="M 856 980 C 856 964.5360256 915.0984064 952 988 952 C 1060.9015936 952 1120 964.5360256 1120 980 C 1120 995.4639744 1060.9015936 1008 988 1008 C 915.0984064 1008 856 995.4639744 856 980 Z" stroke-miterlimit="10"/></g><g transform="translate(-54,-6) scale(1,1)"><g><path fill="none" stroke="none"/><text fill="#000000" stroke="none" font-family="Roboto" font-size="14px" font-style="normal" font-weight="bold" text-decoration="none" x="904.4580078125" y="980.5">Thay đổi quy định số lượng</text><text fill="#000000" stroke="none" font-family="Roboto" font-size="14px" font-style="normal" font-weight="bold" text-decoration="none" x="938.7333984375" y="994.5">nhập và tồn kho</text></g></g><g transform="translate(-54,-6) scale(1,1)"><path fill="#C0C0C0" stroke="none" d="M 1151 1105 C 1151 1090.6405952 1192.1897984 1079 1243 1079 C 1293.8102016 1079 1335 1090.6405952 1335 1105 C 1335 1119.3594048 1293.8102016 1131 1243 1131 C 1192.1897984 1131 1151 1119.3594048 1151 1105 Z" opacity="0.2"/></g><g transform="translate(-54,-6) scale(1,1)"><path fill="#ffffff" stroke="none" d="M 1144 1098 C 1144 1083.6405952 1185.1897984 1072 1236 1072 C 1286.8102016 1072 1328 1083.6405952 1328 1098 C 1328 1112.3594048 1286.8102016 1124 1236 1124 C 1185.1897984 1124 1144 1112.3594048 1144 1098 Z"/></g><g transform="translate(-54,-6) scale(1,1)"><path fill="none" stroke="#000000" d="M 1144 1098 C 1144 1083.6405952 1185.1897984 1072 1236 1072 C 1286.8102016 1072 1328 1083.6405952 1328 1098 C 1328 1112.3594048 1286.8102016 1124 1236 1124 C 1185.1897984 1124 1144 1112.3594048 1144 1098 Z" stroke-miterlimit="10"/></g><g transform="translate(-54,-6) scale(1,1)"><g><path fill="none" stroke="none"/><text fill="#000000" stroke="none" font-family="Roboto" font-size="14px" font-style="normal" font-weight="bold" text-decoration="none" x="1181.34326171875" y="1105.5">Thay đổi quy định</text></g></g><g transform="translate(-54,-6) scale(1,1)"><path fill="#C0C0C0" stroke="none" d="M 863 1107 C 863 1091.5360256 902.3989376 1079 951 1079 C 999.6010624 1079 1039 1091.5360256 1039 1107 C 1039 1122.4639744 999.6010624 1135 951 1135 C 902.3989376 1135 863 1122.4639744 863 1107 Z" opacity="0.2"/></g><g transform="translate(-54,-6) scale(1,1)"><path fill="#ffffff" stroke="none" d="M 856 1100 C 856 1084.5360256 895.3989376 1072 944 1072 C 992.6010624 1072 1032 1084.5360256 1032 1100 C 1032 1115.4639744 992.6010624 1128 944 1128 C 895.3989376 1128 856 1115.4639744 856 1100 Z"/></g><g transform="translate(-54,-6) scale(1,1)"><path fill="none" stroke="#000000" d="M 856 1100 C 856 1084.5360256 895.3989376 1072 944 1072 C 992.6010624 1072 1032 1084.5360256 1032 1100 C 1032 1115.4639744 992.6010624 1128 944 1128 C 895.3989376 1128 856 1115.4639744 856 1100 Z" stroke-miterlimit="10"/></g><g transform="translate(-54,-6) scale(1,1)"><g><path fill="none" stroke="none"/><text fill="#000000" stroke="none" font-family="Roboto" font-size="14px" font-style="normal" font-weight="bold" text-decoration="none" x="889.34326171875" y="1100.5">Thay đổi quy định</text><text fill="#000000" stroke="none" font-family="Roboto" font-size="14px" font-style="normal" font-weight="bold" text-decoration="none" x="890.7275390625" y="1114.5">thời gian huỷ đơn</text></g></g><g transform="translate(-54,-6) scale(1,1)"><path fill="#C0C0C0" stroke="none" d="M 767 1194.5 C 767 1179.312168 801.0263552 1167 843 1167 C 884.9736448 1167 919 1179.312168 919 1194.5 C 919 1209.687832 884.9736448 1222 843 1222 C 801.0263552 1222 767 1209.687832 767 1194.5 Z" opacity="0.2"/></g><g transform="translate(-54,-6) scale(1,1)"><path fill="#ffffff" stroke="none" d="M 760 1187.5 C 760 1172.312168 794.0263552 1160 836 1160 C 877.9736448 1160 912 1172.312168 912 1187.5 C 912 1202.687832 877.9736448 1215 836 1215 C 794.0263552 1215 760 1202.687832 760 1187.5 Z"/></g><g transform="translate(-54,-6) scale(1,1)"><path fill="none" stroke="#000000" d="M 760 1187.5 C 760 1172.312168 794.0263552 1160 836 1160 C 877.9736448 1160 912 1172.312168 912 1187.5 C 912 1202.687832 877.9736448 1215 836 1215 C 794.0263552 1215 760 1202.687832 760 1187.5 Z" stroke-miterlimit="10"/></g><g transform="translate(-54,-6) scale(1,1)"><g><path fill="none" stroke="none"/><text fill="#000000" stroke="none" font-family="Roboto" font-size="14px" font-style="normal" font-weight="bold" text-decoration="none" x="793.27880859375" y="1188">Xem thống kê</text><text fill="#000000" stroke="none" font-family="Roboto" font-size="14px" font-style="normal" font-weight="bold" text-decoration="none" x="802.1962890625" y="1202">và báo cáo</text></g></g><g transform="translate(-54,-6) scale(1,1)"><path fill="#C0C0C0" stroke="none" d="M 1087 799 C 1087 785.7451648 1133.5623808 775 1191 775 C 1248.4376192 775 1295 785.7451648 1295 799 C 1295 812.2548352 1248.4376192 823 1191 823 C 1133.5623808 823 1087 812.2548352 1087 799 Z" opacity="0.2"/></g><g transform="translate(-54,-6) scale(1,1)"><path fill="#ffffff" stroke="none" d="M 1080 792 C 1080 778.7451648 1126.5623808 768 1184 768 C 1241.4376192 768 1288 778.7451648 1288 792 C 1288 805.2548352 1241.4376192 816 1184 816 C 1126.5623808 816 1080 805.2548352 1080 792 Z"/></g><g transform="translate(-54,-6) scale(1,1)"><path fill="none" stroke="#000000" d="M 1080 792 C 1080 778.7451648 1126.5623808 768 1184 768 C 1241.4376192 768 1288 778.7451648 1288 792 C 1288 805.2548352 1241.4376192 816 1184 816 C 1126.5623808 816 1080 805.2548352 1080 792 Z" stroke-miterlimit="10"/></g><g transform="translate(-54,-6) scale(1,1)"><g><path fill="none" stroke="none"/><text fill="#000000" stroke="none" font-family="Roboto" font-size="14px" font-style="normal" font-weight="bold" text-decoration="none" x="1124.74951171875" y="799.5">Nhập sách vào kho</text></g></g><g transform="translate(-54,-6) scale(1,1)"><path fill="#C0C0C0" stroke="none" d="M 383 680.5 C 383 670.835016 422.3989376 663 471 663 C 519.6010624 663 559 670.835016 559 680.5 C 559 690.164984 519.6010624 698 471 698 C 422.3989376 698 383 690.164984 383 680.5 Z" opacity="0.2"/></g><g transform="translate(-54,-6) scale(1,1)"><path fill="#ffffff" stroke="none" d="M 376 673.5 C 376 663.835016 415.3989376 656 464 656 C 512.6010624 656 552 663.835016 552 673.5 C 552 683.164984 512.6010624 691 464 691 C 415.3989376 691 376 683.164984 376 673.5 Z"/></g><g transform="translate(-54,-6) scale(1,1)"><path fill="none" stroke="#000000" d="M 376 673.5 C 376 663.835016 415.3989376 656 464 656 C 512.6010624 656 552 663.835016 552 673.5 C 552 683.164984 512.6010624 691 464 691 C 415.3989376 691 376 683.164984 376 673.5 Z" stroke-miterlimit="10"/></g><g transform="translate(-54,-6) scale(1,1)"><g><path fill="none" stroke="none"/><text fill="#000000" stroke="none" font-family="Roboto" font-size="14px" font-style="normal" font-weight="bold" text-decoration="none" x="409.13818359375" y="681">Bán sách tại quầy</text></g></g><g transform="translate(-54,-6) scale(1,1)"><path fill="#C0C0C0" stroke="none" d="M 559 1186.5 C 559 1166.8938896 591.2354944 1151 631 1151 C 670.7645056 1151 703 1166.8938896 703 1186.5 C 703 1206.1061104 670.7645056 1222 631 1222 C 591.2354944 1222 559 1206.1061104 559 1186.5 Z" opacity="0.2"/></g><g transform="translate(-54,-6) scale(1,1)"><path fill="#ffffff" stroke="none" d="M 552 1179.5 C 552 1159.8938896 584.2354944 1144 624 1144 C 663.7645056 1144 696 1159.8938896 696 1179.5 C 696 1199.1061104 663.7645056 1215 624 1215 C 584.2354944 1215 552 1199.1061104 552 1179.5 Z"/></g><g transform="translate(-54,-6) scale(1,1)"><path fill="none" stroke="#000000" d="M 552 1179.5 C 552 1159.8938896 584.2354944 1144 624 1144 C 663.7645056 1144 696 1159.8938896 696 1179.5 C 696 1199.1061104 663.7645056 1215 624 1215 C 584.2354944 1215 552 1199.1061104 552 1179.5 Z" stroke-miterlimit="10"/></g><g transform="translate(-54,-6) scale(1,1)"><g><path fill="none" stroke="none"/><text fill="#000000" stroke="none" font-family="Roboto" font-size="14px" font-style="normal" font-weight="bold" text-decoration="none" x="582.87158203125" y="1180">Xem tần suất</text><text fill="#000000" stroke="none" font-family="Roboto" font-size="14px" font-style="normal" font-weight="bold" text-decoration="none" x="579.47412109375" y="1194">từng đầu sách</text></g></g><g transform="translate(-54,-6) scale(1,1)"><path fill="#C0C0C0" stroke="none" d="M 575 1002.5 C 575 982.8938896 609.0263552 967 651 967 C 692.9736448 967 727 982.8938896 727 1002.5 C 727 1022.1061104 692.9736448 1038 651 1038 C 609.0263552 1038 575 1022.1061104 575 1002.5 Z" opacity="0.2"/></g><g transform="translate(-54,-6) scale(1,1)"><path fill="#ffffff" stroke="none" d="M 568 995.5 C 568 975.8938896 602.0263552 960 644 960 C 685.9736448 960 720 975.8938896 720 995.5 C 720 1015.1061104 685.9736448 1031 644 1031 C 602.0263552 1031 568 1015.1061104 568 995.5 Z"/></g><g transform="translate(-54,-6) scale(1,1)"><path fill="none" stroke="#000000" d="M 568 995.5 C 568 975.8938896 602.0263552 960 644 960 C 685.9736448 960 720 975.8938896 720 995.5 C 720 1015.1061104 685.9736448 1031 644 1031 C 602.0263552 1031 568 1015.1061104 568 995.5 Z" stroke-miterlimit="10"/></g><g transform="translate(-54,-6) scale(1,1)"><g><path fill="none" stroke="none"/><text fill="#000000" stroke="none" font-family="Roboto" font-size="14px" font-style="normal" font-weight="bold" text-decoration="none" x="596.92431640625" y="996">Xem doanh thu</text><text fill="#000000" stroke="none" font-family="Roboto" font-size="14px" font-style="normal" font-weight="bold" text-decoration="none" x="610.12109375" y="1010">từng tháng</text></g></g><g transform="translate(-54,-6) scale(1,1)"><path fill="#ffffff" stroke="none" d="M 210.03490909090908 123.03999999999999 C 210.03490909090908 117.495060608 214.4964317602909 113 220 113 C 225.5035682397091 113 229.96509090909092 117.495060608 229.96509090909092 123.03999999999999 C 229.96509090909092 128.584939392 225.5035682397091 133.07999999999998 220 133.07999999999998 C 214.4964317602909 133.07999999999998 210.03490909090908 128.584939392 210.03490909090908 123.03999999999999 Z"/></g><g transform="translate(-54,-6) scale(1,1)"><path fill="none" stroke="#000000" d="M 210.03490909090908 123.03999999999999 C 210.03490909090908 117.495060608 214.4964317602909 113 220 113 C 225.5035682397091 113 229.96509090909092 117.495060608 229.96509090909092 123.03999999999999 C 229.96509090909092 128.584939392 225.5035682397091 133.07999999999998 220 133.07999999999998 C 214.4964317602909 133.07999999999998 210.03490909090908 128.584939392 210.03490909090908 123.03999999999999 Z" stroke-miterlimit="10"/></g><g transform="translate(-54,-6) scale(1,1)"><path fill="none" stroke="#000000" d="M 220 133.07999999999998 L 220 152.92000000000002" stroke-miterlimit="10"/></g><g transform="translate(-54,-6) scale(1,1)"><path fill="none" stroke="#000000" d="M 209.44872727272727 140.52 L 230.55127272727273 140.52" stroke-miterlimit="10"/></g><g transform="translate(-54,-6) scale(1,1)"><path fill="none" stroke="#000000" d="M 220 152.92000000000002 L 205.34545454545454 173" stroke-miterlimit="10"/></g><g transform="translate(-54,-6) scale(1,1)"><path fill="none" stroke="#000000" d="M 220 152.92000000000002 L 234.65454545454546 173" stroke-miterlimit="10"/></g><g transform="translate(-54,-6) scale(1,1)"><g><path fill="none" stroke="none"/><text fill="#000000" stroke="none" font-family="Roboto" font-size="14px" font-style="normal" font-weight="bold" text-decoration="none" x="200.4287109375" y="194.5">Khách</text></g></g><g transform="translate(-54,-6) scale(1,1)"><path fill="#C0C0C0" stroke="none" d="M 407 152.5 C 407 142.835016 431.1766208 135 461 135 C 490.8233792 135 515 142.835016 515 152.5 C 515 162.164984 490.8233792 170 461 170 C 431.1766208 170 407 162.164984 407 152.5 Z" opacity="0.2"/></g><g transform="translate(-54,-6) scale(1,1)"><path fill="#ffffff" stroke="none" d="M 400 145.5 C 400 135.835016 424.1766208 128 454 128 C 483.8233792 128 508 135.835016 508 145.5 C 508 155.164984 483.8233792 163 454 163 C 424.1766208 163 400 155.164984 400 145.5 Z"/></g><g transform="translate(-54,-6) scale(1,1)"><path fill="none" stroke="#000000" d="M 400 145.5 C 400 135.835016 424.1766208 128 454 128 C 483.8233792 128 508 135.835016 508 145.5 C 508 155.164984 483.8233792 163 454 163 C 424.1766208 163 400 155.164984 400 145.5 Z" stroke-miterlimit="10"/></g><g transform="translate(-54,-6) scale(1,1)"><g><path fill="none" stroke="none"/><text fill="#000000" stroke="none" font-family="Roboto" font-size="14px" font-style="normal" font-weight="bold" text-decoration="none" x="420.5244140625" y="153">Đăng nhập</text></g></g><g transform="translate(-54,-6) scale(1,1)"><path fill="none" stroke="#000000" d="M 265 154 L 399 148" stroke-miterlimit="10"/></g><g transform="translate(-54,-6) scale(1,1)"><path fill="none" stroke="#000000" d="M 1119 337 L 993 310" stroke-miterlimit="10"/></g><g transform="translate(-54,-6) scale(1,1)"><path fill="#FFFFFF" stroke="none" d="M 1014.6382088573663 306.02659875610397 L 993 310 L 1011.1101431797084 322.4909052518406"/></g><g transform="translate(-54,-6) scale(1,1)"><path fill="none" stroke="#000000" d="M 1014.6382088573663 306.02659875610397 L 993 310 L 1011.1101431797084 322.4909052518406 L 1014.6382088573663 306.02659875610397" stroke-miterlimit="10"/></g><g transform="translate(-54,-6) scale(1,1)"><path fill="none" stroke="#000000" d="M 1049 1009 L 1179 1071" stroke-miterlimit="10"/></g><g transform="translate(-54,-6) scale(1,1)"><path fill="#FFFFFF" stroke="none" d="M 1157.0301010513367 1069.8495478343173 L 1179 1071 L 1164.278427999202 1054.651442943632"/></g><g transform="translate(-54,-6) scale(1,1)"><path fill="none" stroke="#000000" d="M 1157.0301010513367 1069.8495478343173 L 1179 1071 L 1164.278427999202 1054.651442943632 L 1157.0301010513367 1069.8495478343173" stroke-miterlimit="10"/></g><g transform="translate(-54,-6) scale(1,1)"><path fill="none" stroke="#000000" d="M 1033 1099 L 1143 1099" stroke-miterlimit="10"/></g><g transform="translate(-54,-6) scale(1,1)"><path fill="#FFFFFF" stroke="none" d="M 1122.6746502847518 1107.419035512032 L 1143 1099 L 1122.6746502847516 1090.580964487968"/></g><g transform="translate(-54,-6) scale(1,1)"><path fill="none" stroke="#000000" d="M 1122.6746502847518 1107.419035512032 L 1143 1099 L 1122.6746502847516 1090.580964487968 L 1122.6746502847518 1107.419035512032" stroke-miterlimit="10"/></g><g transform="translate(-54,-6) scale(1,1)"><path fill="#C0C0C0" stroke="none" d="M 399 216.5 C 399 206.835016 461.4562704 199 538.5 199 C 615.5437296 199 678 206.835016 678 216.5 C 678 226.164984 615.5437296 234 538.5 234 C 461.4562704 234 399 226.164984 399 216.5 Z" opacity="0.2"/></g><g transform="translate(-54,-6) scale(1,1)"><path fill="#ffffff" stroke="none" d="M 392 209.5 C 392 199.835016 454.4562704 192 531.5 192 C 608.5437296 192 671 199.835016 671 209.5 C 671 219.164984 608.5437296 227 531.5 227 C 454.4562704 227 392 219.164984 392 209.5 Z"/></g><g transform="translate(-54,-6) scale(1,1)"><path fill="none" stroke="#000000" d="M 392 209.5 C 392 199.835016 454.4562704 192 531.5 192 C 608.5437296 192 671 199.835016 671 209.5 C 671 219.164984 608.5437296 227 531.5 227 C 454.4562704 227 392 219.164984 392 209.5 Z" stroke-miterlimit="10"/></g><g transform="translate(-54,-6) scale(1,1)"><g><path fill="none" stroke="none"/><text fill="#000000" stroke="none" font-family="Roboto" font-size="14px" font-style="normal" font-weight="bold" text-decoration="none" x="438.64404296875" y="217">Đăng ký tài khoản khách hàng</text></g></g><g transform="translate(-54,-6) scale(1,1)"><path fill="none" stroke="#000000" d="M 1439 1165 L 1318 1125" stroke-miterlimit="10"/></g><g transform="translate(-54,-6) scale(1,1)"><path fill="none" stroke="#000000" d="M 681 1032 L 808 1159" stroke-miterlimit="10"/></g><g transform="translate(-54,-6) scale(1,1)"><path fill="#FFFFFF" stroke="none" d="M 787.6746502847517 1150.580964487968 L 808 1159 L 799.580964487968 1138.6746502847518"/></g><g transform="translate(-54,-6) scale(1,1)"><path fill="none" stroke="#000000" d="M 787.6746502847517 1150.580964487968 L 808 1159 L 799.580964487968 1138.6746502847518 L 787.6746502847517 1150.580964487968" stroke-miterlimit="10"/></g><g transform="translate(-54,-6) scale(1,1)"><path fill="none" stroke="#000000" d="M 697 1182 L 759 1184" stroke-miterlimit="10"/></g><g transform="translate(-54,-6) scale(1,1)"><path fill="#FFFFFF" stroke="none" d="M 738.4137765433771 1191.759343000151 L 759 1184 L 738.9566577418414 1174.9300258477595"/></g><g transform="translate(-54,-6) scale(1,1)"><path fill="none" stroke="#000000" d="M 738.4137765433771 1191.759343000151 L 759 1184 L 738.9566577418414 1174.9300258477595 L 738.4137765433771 1191.759343000151" stroke-miterlimit="10"/></g><g transform="translate(-54,-6) scale(1,1)"><path fill="none" stroke="#000000" d="M 1439 1182 L 913 1186" stroke-miterlimit="10"/></g><g transform="translate(-54,-6) scale(1,1)"><path fill="none" stroke="#000000" d="M 1439 870 L 1266 817" stroke-miterlimit="10"/></g><g transform="translate(-54,-6) scale(1,1)"><path fill="none" stroke="#000000" d="M 273 840 L 442 692" stroke-miterlimit="10"/></g><g transform="translate(-54,-6) scale(1,1)"><path fill="none" stroke="#000000" d="M 769 298 L 855 296" stroke-miterlimit="10" stroke-dasharray="3"/></g><g transform="translate(-54,-6) scale(1,1)"><path fill="none" stroke="#000000" d="M 844.9379414824056 300.44465728583253 L 855 296 L 844.7422028826506 292.0278974963755" stroke-miterlimit="10"/></g><g transform="translate(-54,-6) scale(1,1)"><g><path fill="none" stroke="none"/><text fill="#000000" stroke="none" font-family="Roboto" font-size="14px" font-style="normal" font-weight="normal" text-decoration="none" x="767.5" y="320.5">«include»</text></g></g><g transform="translate(-54,-6) scale(1,1)"><path fill="#C0C0C0" stroke="none" d="M 719 800.5 C 719 790.835016 762.652232 783 816.5 783 C 870.347768 783 914 790.835016 914 800.5 C 914 810.164984 870.347768 818 816.5 818 C 762.652232 818 719 810.164984 719 800.5 Z" opacity="0.2"/></g><g transform="translate(-54,-6) scale(1,1)"><path fill="#ffffff" stroke="none" d="M 712 793.5 C 712 783.835016 755.652232 776 809.5 776 C 863.347768 776 907 783.835016 907 793.5 C 907 803.164984 863.347768 811 809.5 811 C 755.652232 811 712 803.164984 712 793.5 Z"/></g><g transform="translate(-54,-6) scale(1,1)"><path fill="none" stroke="#000000" d="M 712 793.5 C 712 783.835016 755.652232 776 809.5 776 C 863.347768 776 907 783.835016 907 793.5 C 907 803.164984 863.347768 811 809.5 811 C 755.652232 811 712 803.164984 712 793.5 Z" stroke-miterlimit="10"/></g><g transform="translate(-54,-6) scale(1,1)"><g><path fill="none" stroke="none"/><text fill="#000000" stroke="none" font-family="Roboto" font-size="14px" font-style="normal" font-weight="bold" text-decoration="none" x="745.36181640625" y="801">Lập phiếu nhập sách</text></g></g><g transform="translate(-54,-6) scale(1,1)"><path fill="none" stroke="#000000" d="M 1079 792 L 908 793" stroke-miterlimit="10" stroke-dasharray="3"/></g><g transform="translate(-54,-6) scale(1,1)"><path fill="none" stroke="#000000" d="M 918.137884445697 788.7311243909319 L 908 793 L 918.1871177296518 797.150015947224" stroke-miterlimit="10"/></g><g transform="translate(-54,-6) scale(1,1)"><g><path fill="none" stroke="none"/><text fill="#000000" stroke="none" font-family="Roboto" font-size="14px" font-style="normal" font-weight="normal" text-decoration="none" x="972.5" y="810.5">«include»</text></g></g><g transform="translate(-54,-6) scale(1,1)"><path fill="#C0C0C0" stroke="none" d="M 695 680.5 C 695 670.835016 741.7862384 663 799.5 663 C 857.2137616 663 904 670.835016 904 680.5 C 904 690.164984 857.2137616 698 799.5 698 C 741.7862384 698 695 690.164984 695 680.5 Z" opacity="0.2"/></g><g transform="translate(-54,-6) scale(1,1)"><path fill="#ffffff" stroke="none" d="M 688 673.5 C 688 663.835016 734.7862384 656 792.5 656 C 850.2137616 656 897 663.835016 897 673.5 C 897 683.164984 850.2137616 691 792.5 691 C 734.7862384 691 688 683.164984 688 673.5 Z"/></g><g transform="translate(-54,-6) scale(1,1)"><path fill="none" stroke="#000000" d="M 688 673.5 C 688 663.835016 734.7862384 656 792.5 656 C 850.2137616 656 897 663.835016 897 673.5 C 897 683.164984 850.2137616 691 792.5 691 C 734.7862384 691 688 683.164984 688 673.5 Z" stroke-miterlimit="10"/></g><g transform="translate(-54,-6) scale(1,1)"><g><path fill="none" stroke="none"/><text fill="#000000" stroke="none" font-family="Roboto" font-size="14px" font-style="normal" font-weight="bold" text-decoration="none" x="723.96630859375" y="681">Lập hoá đơn bán sách</text></g></g><g transform="translate(-54,-6) scale(1,1)"><path fill="none" stroke="#000000" d="M 553 673 L 687 673" stroke-miterlimit="10" stroke-dasharray="3"/></g><g transform="translate(-54,-6) scale(1,1)"><path fill="none" stroke="#000000" d="M 676.8373251423759 677.209517756016 L 687 673 L 676.8373251423758 668.790482243984" stroke-miterlimit="10"/></g><g transform="translate(-54,-6) scale(1,1)"><g><path fill="none" stroke="none"/><text fill="#000000" stroke="none" font-family="Roboto" font-size="14px" font-style="normal" font-weight="normal" text-decoration="none" x="578.5" y="667.5">«include»</text></g></g><g transform="translate(-54,-6) scale(1,1)"><path fill="#C0C0C0" stroke="none" d="M 1143 687 C 1143 673.7451648 1175.2354944 663 1215 663 C 1254.7645056 663 1287 673.7451648 1287 687 C 1287 700.2548352 1254.7645056 711 1215 711 C 1175.2354944 711 1143 700.2548352 1143 687 Z" opacity="0.2"/></g><g transform="translate(-54,-6) scale(1,1)"><path fill="#ffffff" stroke="none" d="M 1136 680 C 1136 666.7451648 1168.2354944 656 1208 656 C 1247.7645056 656 1280 666.7451648 1280 680 C 1280 693.2548352 1247.7645056 704 1208 704 C 1168.2354944 704 1136 693.2548352 1136 680 Z"/></g><g transform="translate(-54,-6) scale(1,1)"><path fill="none" stroke="#000000" d="M 1136 680 C 1136 666.7451648 1168.2354944 656 1208 656 C 1247.7645056 656 1280 666.7451648 1280 680 C 1280 693.2548352 1247.7645056 704 1208 704 C 1168.2354944 704 1136 693.2548352 1136 680 Z" stroke-miterlimit="10"/></g><g transform="translate(-54,-6) scale(1,1)"><g><path fill="none" stroke="none"/><text fill="#000000" stroke="none" font-family="Roboto" font-size="14px" font-style="normal" font-weight="bold" text-decoration="none" x="1166.90234375" y="687.5">Quản trị sách</text></g></g><g transform="translate(-54,-6) scale(1,1)"><path fill="#ffffff" stroke="none" d="M 488 736 L 581 736 L 591 746 L 591 854 L 488 854 L 488 736"/></g><g transform="translate(-54,-6) scale(1,1)"><path fill="none" stroke="#000000" d="M 488 736 L 581 736 L 591 746 L 591 854 L 488 854 L 488 736 L 488 736" stroke-miterlimit="10"/></g><g transform="translate(-54,-6) scale(1,1)"><path fill="none" stroke="#000000" d="M 581 736 L 581 746 L 591 746 L 581 736" stroke-miterlimit="10"/></g><g transform="translate(-54,-6) scale(1,1)"><g><path fill="none" stroke="none"/><text fill="#000000" stroke="none" font-family="Roboto" font-size="14px" font-style="normal" font-weight="normal" text-decoration="none" x="493" y="755">+ Ngày nhập</text></g></g><g transform="translate(-54,-6) scale(1,1)"><g><path fill="none" stroke="none"/><text fill="#000000" stroke="none" font-family="Roboto" font-size="14px" font-style="normal" font-weight="normal" text-decoration="none" x="493" y="771">+ STT</text></g></g><g transform="translate(-54,-6) scale(1,1)"><g><path fill="none" stroke="none"/><text fill="#000000" stroke="none" font-family="Roboto" font-size="14px" font-style="normal" font-weight="normal" text-decoration="none" x="493" y="787">+ Sách</text></g></g><g transform="translate(-54,-6) scale(1,1)"><g><path fill="none" stroke="none"/><text fill="#000000" stroke="none" font-family="Roboto" font-size="14px" font-style="normal" font-weight="normal" text-decoration="none" x="493" y="803">+ Thể loại</text></g></g><g transform="translate(-54,-6) scale(1,1)"><g><path fill="none" stroke="none"/><text fill="#000000" stroke="none" font-family="Roboto" font-size="14px" font-style="normal" font-weight="normal" text-decoration="none" x="493" y="819">+ Tác giả</text></g></g><g transform="translate(-54,-6) scale(1,1)"><g><path fill="none" stroke="none"/><text fill="#000000" stroke="none" font-family="Roboto" font-size="14px" font-style="normal" font-weight="normal" text-decoration="none" x="493" y="835">+ Số lượng</text></g></g><g transform="translate(-54,-6) scale(1,1)"><path fill="none" stroke="#000000" d="M 711 794 L 593 795" stroke-miterlimit="10" stroke-dasharray="3"/></g><g transform="translate(-54,-6) scale(1,1)"><path fill="#ffffff" stroke="none" d="M 712 456 L 869 456 L 879 466 L 879 622 L 712 622 L 712 456"/></g><g transform="translate(-54,-6) scale(1,1)"><path fill="none" stroke="#000000" d="M 712 456 L 869 456 L 879 466 L 879 622 L 712 622 L 712 456 L 712 456" stroke-miterlimit="10"/></g><g transform="translate(-54,-6) scale(1,1)"><path fill="none" stroke="#000000" d="M 869 456 L 869 466 L 879 466 L 869 456" stroke-miterlimit="10"/></g><g transform="translate(-54,-6) scale(1,1)"><g><path fill="none" stroke="none"/><text fill="#000000" stroke="none" font-family="Roboto" font-size="14px" font-style="normal" font-weight="normal" text-decoration="none" x="717" y="475">+ Họ tên khách hàng</text></g></g><g transform="translate(-54,-6) scale(1,1)"><g><path fill="none" stroke="none"/><text fill="#000000" stroke="none" font-family="Roboto" font-size="14px" font-style="normal" font-weight="normal" text-decoration="none" x="717" y="491">+ Ngày lập hoá đơn</text></g></g><g transform="translate(-54,-6) scale(1,1)"><g><path fill="none" stroke="none"/><text fill="#000000" stroke="none" font-family="Roboto" font-size="14px" font-style="normal" font-weight="normal" text-decoration="none" x="717" y="507">+ Ngày nhập</text></g></g><g transform="translate(-54,-6) scale(1,1)"><g><path fill="none" stroke="none"/><text fill="#000000" stroke="none" font-family="Roboto" font-size="14px" font-style="normal" font-weight="normal" text-decoration="none" x="717" y="523">+ STT</text></g></g><g transform="translate(-54,-6) scale(1,1)"><g><path fill="none" stroke="none"/><text fill="#000000" stroke="none" font-family="Roboto" font-size="14px" font-style="normal" font-weight="normal" text-decoration="none" x="717" y="539">+ Sách</text></g></g><g transform="translate(-54,-6) scale(1,1)"><g><path fill="none" stroke="none"/><text fill="#000000" stroke="none" font-family="Roboto" font-size="14px" font-style="normal" font-weight="normal" text-decoration="none" x="717" y="555">+ Thể loại</text></g></g><g transform="translate(-54,-6) scale(1,1)"><g><path fill="none" stroke="none"/><text fill="#000000" stroke="none" font-family="Roboto" font-size="14px" font-style="normal" font-weight="normal" text-decoration="none" x="717" y="571">+ Số lượng</text></g></g><g transform="translate(-54,-6) scale(1,1)"><g><path fill="none" stroke="none"/><text fill="#000000" stroke="none" font-family="Roboto" font-size="14px" font-style="normal" font-weight="normal" text-decoration="none" x="717" y="587">+ Đơn giá</text></g></g><g transform="translate(-54,-6) scale(1,1)"><g><path fill="none" stroke="none"/><text fill="#000000" stroke="none" font-family="Roboto" font-size="14px" font-style="normal" font-weight="normal" text-decoration="none" x="717" y="603">+ Nhân viên thanh toán</text></g></g><g transform="translate(-54,-6) scale(1,1)"><path fill="none" stroke="#000000" d="M 793 655 L 793 624" stroke-miterlimit="10" stroke-dasharray="3"/></g><g transform="translate(-54,-6) scale(1,1)"><path fill="#ffffff" stroke="none" d="M 360 928 L 477 928 L 487 938 L 487 1062 L 360 1062 L 360 928"/></g><g transform="translate(-54,-6) scale(1,1)"><path fill="none" stroke="#000000" d="M 360 928 L 477 928 L 487 938 L 487 1062 L 360 1062 L 360 928 L 360 928" stroke-miterlimit="10"/></g><g transform="translate(-54,-6) scale(1,1)"><path fill="none" stroke="#000000" d="M 477 928 L 477 938 L 487 938 L 477 928" stroke-miterlimit="10"/></g><g transform="translate(-54,-6) scale(1,1)"><g><path fill="none" stroke="none"/><text fill="#000000" stroke="none" font-family="Roboto" font-size="14px" font-style="normal" font-weight="normal" text-decoration="none" x="365" y="947">+ Tháng</text></g></g><g transform="translate(-54,-6) scale(1,1)"><g><path fill="none" stroke="none"/><text fill="#000000" stroke="none" font-family="Roboto" font-size="14px" font-style="normal" font-weight="normal" text-decoration="none" x="365" y="963">+ STT</text></g></g><g transform="translate(-54,-6) scale(1,1)"><g><path fill="none" stroke="none"/><text fill="#000000" stroke="none" font-family="Roboto" font-size="14px" font-style="normal" font-weight="normal" text-decoration="none" x="365" y="979">+ Thể loại sách</text></g></g><g transform="translate(-54,-6) scale(1,1)"><g><path fill="none" stroke="none"/><text fill="#000000" stroke="none" font-family="Roboto" font-size="14px" font-style="normal" font-weight="normal" text-decoration="none" x="365" y="995">+ Doanh thu</text></g></g><g transform="translate(-54,-6) scale(1,1)"><g><path fill="none" stroke="none"/><text fill="#000000" stroke="none" font-family="Roboto" font-size="14px" font-style="normal" font-weight="normal" text-decoration="none" x="365" y="1011">+ Số lượt thuê</text></g></g><g transform="translate(-54,-6) scale(1,1)"><g><path fill="none" stroke="none"/><text fill="#000000" stroke="none" font-family="Roboto" font-size="14px" font-style="normal" font-weight="normal" text-decoration="none" x="365" y="1027">+ Tỷ lệ</text></g></g><g transform="translate(-54,-6) scale(1,1)"><g><path fill="none" stroke="none"/><text fill="#000000" stroke="none" font-family="Roboto" font-size="14px" font-style="normal" font-weight="normal" text-decoration="none" x="365" y="1043">+ Tổng doanh thu</text></g></g><g transform="translate(-54,-6) scale(1,1)"><path fill="none" stroke="#000000" d="M 567 995 L 489 995" stroke-miterlimit="10" stroke-dasharray="3"/></g><g transform="translate(-54,-6) scale(1,1)"><path fill="#ffffff" stroke="none" d="M 376 1128 L 453 1128 L 463 1138 L 463 1232 L 376 1232 L 376 1128"/></g><g transform="translate(-54,-6) scale(1,1)"><path fill="none" stroke="#000000" d="M 376 1128 L 453 1128 L 463 1138 L 463 1232 L 376 1232 L 376 1128 L 376 1128" stroke-miterlimit="10"/></g><g transform="translate(-54,-6) scale(1,1)"><path fill="none" stroke="#000000" d="M 453 1128 L 453 1138 L 463 1138 L 453 1128" stroke-miterlimit="10"/></g><g transform="translate(-54,-6) scale(1,1)"><g><path fill="none" stroke="none"/><text fill="#000000" stroke="none" font-family="Roboto" font-size="14px" font-style="normal" font-weight="normal" text-decoration="none" x="381" y="1147">+ Tháng</text></g></g><g transform="translate(-54,-6) scale(1,1)"><g><path fill="none" stroke="none"/><text fill="#000000" stroke="none" font-family="Roboto" font-size="14px" font-style="normal" font-weight="normal" text-decoration="none" x="381" y="1163">+ STT</text></g></g><g transform="translate(-54,-6) scale(1,1)"><g><path fill="none" stroke="none"/><text fill="#000000" stroke="none" font-family="Roboto" font-size="14px" font-style="normal" font-weight="normal" text-decoration="none" x="381" y="1179">+ Tên sách</text></g></g><g transform="translate(-54,-6) scale(1,1)"><g><path fill="none" stroke="none"/><text fill="#000000" stroke="none" font-family="Roboto" font-size="14px" font-style="normal" font-weight="normal" text-decoration="none" x="381" y="1195">+ Thể loại</text></g></g><g transform="translate(-54,-6) scale(1,1)"><g><path fill="none" stroke="none"/><text fill="#000000" stroke="none" font-family="Roboto" font-size="14px" font-style="normal" font-weight="normal" text-decoration="none" x="381" y="1211">+ Số lượng</text></g></g><g transform="translate(-54,-6) scale(1,1)"><g><path fill="none" stroke="none"/><text fill="#000000" stroke="none" font-family="Roboto" font-size="14px" font-style="normal" font-weight="normal" text-decoration="none" x="381" y="1227">+ Tỷ lệ</text></g></g><g transform="translate(-54,-6) scale(1,1)"><path fill="none" stroke="#000000" d="M 551 1179 L 465 1180" stroke-miterlimit="10" stroke-dasharray="3"/></g><g transform="translate(-54,-6) scale(1,1)"><path fill="none" stroke="#000000" d="M 1439 848 L 1242 705" stroke-miterlimit="10"/></g><g transform="translate(-54,-6) scale(1,1)"><path fill="#C0C0C0" stroke="none" d="M 1127 274.5 C 1127 259.312168 1177.1441024 247 1239 247 C 1300.8558976 247 1351 259.312168 1351 274.5 C 1351 289.687832 1300.8558976 302 1239 302 C 1177.1441024 302 1127 289.687832 1127 274.5 Z" opacity="0.2"/></g><g transform="translate(-54,-6) scale(1,1)"><path fill="#ffffff" stroke="none" d="M 1120 267.5 C 1120 252.31216799999999 1170.1441024 240 1232 240 C 1293.8558976 240 1344 252.31216799999999 1344 267.5 C 1344 282.687832 1293.8558976 295 1232 295 C 1170.1441024 295 1120 282.687832 1120 267.5 Z"/></g><g transform="translate(-54,-6) scale(1,1)"><path fill="none" stroke="#000000" d="M 1120 267.5 C 1120 252.31216799999999 1170.1441024 240 1232 240 C 1293.8558976 240 1344 252.31216799999999 1344 267.5 C 1344 282.687832 1293.8558976 295 1232 295 C 1170.1441024 295 1120 282.687832 1120 267.5 Z" stroke-miterlimit="10"/></g><g transform="translate(-54,-6) scale(1,1)"><g><path fill="none" stroke="none"/><text fill="#000000" stroke="none" font-family="Roboto" font-size="14px" font-style="normal" font-weight="bold" text-decoration="none" x="1163.7294921875" y="268">Thanh toán trực tuyến</text><text fill="#000000" stroke="none" font-family="Roboto" font-size="14px" font-style="normal" font-weight="bold" text-decoration="none" x="1167.7626953125" y="282">và nhận hàng tại nhà</text></g></g><g transform="translate(-54,-6) scale(1,1)"><path fill="none" stroke="#000000" d="M 1119 277 L 993 289" stroke-miterlimit="10"/></g><g transform="translate(-54,-6) scale(1,1)"><path fill="#FFFFFF" stroke="none" d="M 1012.4355925027198 278.6918603003151 L 993 289 L 1014.0319947381171 295.4540837719862"/></g><g transform="translate(-54,-6) scale(1,1)"><path fill="none" stroke="#000000" d="M 1012.4355925027198 278.6918603003151 L 993 289 L 1014.0319947381171 295.4540837719862 L 1012.4355925027198 278.6918603003151" stroke-miterlimit="10"/></g><g transform="translate(-54,-6) scale(1,1)"><path fill="#C0C0C0" stroke="none" d="M 439 440.5 C 439 430.835016 461.6096176 423 489.5 423 C 517.3903824 423 540 430.835016 540 440.5 C 540 450.164984 517.3903824 458 489.5 458 C 461.6096176 458 439 450.164984 439 440.5 Z" opacity="0.2"/></g><g transform="translate(-54,-6) scale(1,1)"><path fill="#ffffff" stroke="none" d="M 432 433.5 C 432 423.835016 454.6096176 416 482.5 416 C 510.3903824 416 533 423.835016 533 433.5 C 533 443.164984 510.3903824 451 482.5 451 C 454.6096176 451 432 443.164984 432 433.5 Z"/></g><g transform="translate(-54,-6) scale(1,1)"><path fill="none" stroke="#000000" d="M 432 433.5 C 432 423.835016 454.6096176 416 482.5 416 C 510.3903824 416 533 423.835016 533 433.5 C 533 443.164984 510.3903824 451 482.5 451 C 454.6096176 451 432 443.164984 432 433.5 Z" stroke-miterlimit="10"/></g><g transform="translate(-54,-6) scale(1,1)"><g><path fill="none" stroke="none"/><text fill="#000000" stroke="none" font-family="Roboto" font-size="14px" font-style="normal" font-weight="bold" text-decoration="none" x="452.052734375" y="441">Mua sách</text></g></g><g transform="translate(-54,-6) scale(1,1)"><path fill="none" stroke="#000000" d="M 265 475 L 431 443" stroke-miterlimit="10"/></g><g transform="translate(-54,-6) scale(1,1)"><path fill="#C0C0C0" stroke="none" d="M 663 418.5 C 663 403.312168 691.6537728 391 727 391 C 762.3462272 391 791 403.312168 791 418.5 C 791 433.687832 762.3462272 446 727 446 C 691.6537728 446 663 433.687832 663 418.5 Z" opacity="0.2"/></g><g transform="translate(-54,-6) scale(1,1)"><path fill="#ffffff" stroke="none" d="M 656 411.5 C 656 396.312168 684.6537728 384 720 384 C 755.3462272 384 784 396.312168 784 411.5 C 784 426.687832 755.3462272 439 720 439 C 684.6537728 439 656 426.687832 656 411.5 Z"/></g><g transform="translate(-54,-6) scale(1,1)"><path fill="none" stroke="#000000" d="M 656 411.5 C 656 396.312168 684.6537728 384 720 384 C 755.3462272 384 784 396.312168 784 411.5 C 784 426.687832 755.3462272 439 720 439 C 684.6537728 439 656 426.687832 656 411.5 Z" stroke-miterlimit="10"/></g><g transform="translate(-54,-6) scale(1,1)"><g><path fill="none" stroke="none"/><text fill="#000000" stroke="none" font-family="Roboto" font-size="14px" font-style="normal" font-weight="bold" text-decoration="none" x="689.552734375" y="412">Mua sách</text><text fill="#000000" stroke="none" font-family="Roboto" font-size="14px" font-style="normal" font-weight="bold" text-decoration="none" x="682.279296875" y="426">tại nhà sách</text></g></g><g transform="translate(-54,-6) scale(1,1)"><path fill="none" stroke="#000000" d="M 655 417 L 534 428" stroke-miterlimit="10"/></g><g transform="translate(-54,-6) scale(1,1)"><path fill="#FFFFFF" stroke="none" d="M 553.4796540394558 417.77536902851193 L 534 428 L 555.0041013615363 434.5442895713979"/></g><g transform="translate(-54,-6) scale(1,1)"><path fill="none" stroke="#000000" d="M 553.4796540394558 417.77536902851193 L 534 428 L 555.0041013615363 434.5442895713979 L 553.4796540394558 417.77536902851193" stroke-miterlimit="10"/></g><g transform="translate(-54,-6) scale(1,1)"><path fill="none" stroke="#000000" d="M 662 328 L 513 415" stroke-miterlimit="10"/></g><g transform="translate(-54,-6) scale(1,1)"><path fill="#FFFFFF" stroke="none" d="M 526.3071925806064 397.48090682647484 L 513 415 L 534.7974756955407 412.0217365290635"/></g><g transform="translate(-54,-6) scale(1,1)"><path fill="none" stroke="#000000" d="M 526.3071925806064 397.48090682647484 L 513 415 L 534.7974756955407 412.0217365290635 L 526.3071925806064 397.48090682647484" stroke-miterlimit="10"/></g><g transform="translate(-54,-6) scale(1,1)"><path fill="none" stroke="#000000" d="M 874 193 L 904 255" stroke-miterlimit="10" stroke-dasharray="3"/></g><g transform="translate(-54,-6) scale(1,1)"><path fill="none" stroke="#000000" d="M 895.7842995549155 247.68547566846357 L 904 255 L 903.3627722590668 244.01847274710002" stroke-miterlimit="10"/></g><g transform="translate(-54,-6) scale(1,1)"><g><path fill="none" stroke="none"/><text fill="#000000" stroke="none" font-family="Roboto" font-size="14px" font-style="normal" font-weight="normal" text-decoration="none" x="824.5" y="217.5">«extend»</text></g></g><g transform="translate(-54,-6) scale(1,1)"><path fill="#ffffff" stroke="none" d="M 1016 128 L 1317 128 L 1327 138 L 1327 187 L 1016 187 L 1016 128"/></g><g transform="translate(-54,-6) scale(1,1)"><path fill="none" stroke="#000000" d="M 1016 128 L 1317 128 L 1327 138 L 1327 187 L 1016 187 L 1016 128 L 1016 128" stroke-miterlimit="10"/></g><g transform="translate(-54,-6) scale(1,1)"><path fill="none" stroke="#000000" d="M 1317 128 L 1317 138 L 1327 138 L 1317 128" stroke-miterlimit="10"/></g><g transform="translate(-54,-6) scale(1,1)"><g><path fill="none" stroke="none"/><text fill="#000000" stroke="none" font-family="Roboto" font-size="14px" font-style="normal" font-weight="normal" text-decoration="none" x="1021" y="147">Điều kiện: {Khách hàng nhấn [Huỷ đơn hàng]}</text></g></g><g transform="translate(-54,-6) scale(1,1)"><g><path fill="none" stroke="none"/><text fill="#000000" stroke="none" font-family="Roboto" font-size="14px" font-style="normal" font-weight="normal" text-decoration="none" x="1021" y="163">Điểm mở rộng: Huỷ đơn hàng</text></g></g><g transform="translate(-54,-6) scale(1,1)"><path fill="none" stroke="#000000" d="M 889 224 L 1039 189" stroke-miterlimit="10" stroke-dasharray="3"/></g><g transform="translate(-54,-6) scale(1,1)"><path fill="none" stroke="#000000" d="M 785 405 L 1119 374" stroke-miterlimit="10" stroke-dasharray="3"/></g><g transform="translate(-54,-6) scale(1,1)"><path fill="none" stroke="#000000" d="M 1109.2698492422883 379.13070816088805 L 1119 374 L 1108.4917858844015 370.7477029501078" stroke-miterlimit="10"/></g><g transform="translate(-54,-6) scale(1,1)"><g><path fill="none" stroke="none"/><text fill="#000000" stroke="none" font-family="Roboto" font-size="14px" font-style="normal" font-weight="normal" text-decoration="none" x="901.5" y="412.5">«include»</text></g></g><g transform="translate(-54,-6) scale(1,1)"><path fill="#C0C0C0" stroke="none" d="M 1231 544.5 C 1231 534.835016 1253.6096176 527 1281.5 527 C 1309.3903824 527 1332 534.835016 1332 544.5 C 1332 554.164984 1309.3903824 562 1281.5 562 C 1253.6096176 562 1231 554.164984 1231 544.5 Z" opacity="0.2"/></g><g transform="translate(-54,-6) scale(1,1)"><path fill="#ffffff" stroke="none" d="M 1224 537.5 C 1224 527.835016 1246.6096176 520 1274.5 520 C 1302.3903824 520 1325 527.835016 1325 537.5 C 1325 547.164984 1302.3903824 555 1274.5 555 C 1246.6096176 555 1224 547.164984 1224 537.5 Z"/></g><g transform="translate(-54,-6) scale(1,1)"><path fill="none" stroke="#000000" d="M 1224 537.5 C 1224 527.835016 1246.6096176 520 1274.5 520 C 1302.3903824 520 1325 527.835016 1325 537.5 C 1325 547.164984 1302.3903824 555 1274.5 555 C 1246.6096176 555 1224 547.164984 1224 537.5 Z" stroke-miterlimit="10"/></g><g transform="translate(-54,-6) scale(1,1)"><g><path fill="none" stroke="none"/><text fill="#000000" stroke="none" font-family="Roboto" font-size="14px" font-style="normal" font-weight="bold" text-decoration="none" x="1245.7138671875" y="545">Xoá sách</text></g></g><g transform="translate(-54,-6) scale(1,1)"><path fill="#C0C0C0" stroke="none" d="M 1047 552.5 C 1047 542.835016 1078.1162064 535 1116.5 535 C 1154.8837936 535 1186 542.835016 1186 552.5 C 1186 562.164984 1154.8837936 570 1116.5 570 C 1078.1162064 570 1047 562.164984 1047 552.5 Z" opacity="0.2"/></g><g transform="translate(-54,-6) scale(1,1)"><path fill="#ffffff" stroke="none" d="M 1040 545.5 C 1040 535.835016 1071.1162064 528 1109.5 528 C 1147.8837936 528 1179 535.835016 1179 545.5 C 1179 555.164984 1147.8837936 563 1109.5 563 C 1071.1162064 563 1040 555.164984 1040 545.5 Z"/></g><g transform="translate(-54,-6) scale(1,1)"><path fill="none" stroke="#000000" d="M 1040 545.5 C 1040 535.835016 1071.1162064 528 1109.5 528 C 1147.8837936 528 1179 535.835016 1179 545.5 C 1179 555.164984 1147.8837936 563 1109.5 563 C 1071.1162064 563 1040 555.164984 1040 545.5 Z" stroke-miterlimit="10"/></g><g transform="translate(-54,-6) scale(1,1)"><g><path fill="none" stroke="none"/><text fill="#000000" stroke="none" font-family="Roboto" font-size="14px" font-style="normal" font-weight="bold" text-decoration="none" x="1064.99462890625" y="553">Cập nhật sách</text></g></g><g transform="translate(-54,-6) scale(1,1)"><path fill="#C0C0C0" stroke="none" d="M 935 632.5 C 935 622.835016 959.8481936 615 990.5 615 C 1021.1518064 615 1046 622.835016 1046 632.5 C 1046 642.164984 1021.1518064 650 990.5 650 C 959.8481936 650 935 642.164984 935 632.5 Z" opacity="0.2"/></g><g transform="translate(-54,-6) scale(1,1)"><path fill="#ffffff" stroke="none" d="M 928 625.5 C 928 615.835016 952.8481936 608 983.5 608 C 1014.1518064 608 1039 615.835016 1039 625.5 C 1039 635.164984 1014.1518064 643 983.5 643 C 952.8481936 643 928 635.164984 928 625.5 Z"/></g><g transform="translate(-54,-6) scale(1,1)"><path fill="none" stroke="#000000" d="M 928 625.5 C 928 615.835016 952.8481936 608 983.5 608 C 1014.1518064 608 1039 615.835016 1039 625.5 C 1039 635.164984 1014.1518064 643 983.5 643 C 952.8481936 643 928 635.164984 928 625.5 Z" stroke-miterlimit="10"/></g><g transform="translate(-54,-6) scale(1,1)"><g><path fill="none" stroke="none"/><text fill="#000000" stroke="none" font-family="Roboto" font-size="14px" font-style="normal" font-weight="bold" text-decoration="none" x="948.95458984375" y="633">Thêm sách</text></g></g><g transform="translate(-54,-6) scale(1,1)"><path fill="none" stroke="#000000" d="M 1265 556 L 1220 655" stroke-miterlimit="10"/></g><g transform="translate(-54,-6) scale(1,1)"><path fill="#FFFFFF" stroke="none" d="M 1220.7462818533998 633.0126612934788 L 1220 655 L 1236.075097258842 639.9803046595889"/></g><g transform="translate(-54,-6) scale(1,1)"><path fill="none" stroke="#000000" d="M 1220.7462818533998 633.0126612934788 L 1220 655 L 1236.075097258842 639.9803046595889 L 1220.7462818533998 633.0126612934788" stroke-miterlimit="10"/></g><g transform="translate(-54,-6) scale(1,1)"><path fill="none" stroke="#000000" d="M 1040 639 L 1135 662" stroke-miterlimit="10"/></g><g transform="translate(-54,-6) scale(1,1)"><path fill="#FFFFFF" stroke="none" d="M 1113.2643051479715 665.3999366611015 L 1135 662 L 1117.2264245076594 649.0346610449986"/></g><g transform="translate(-54,-6) scale(1,1)"><path fill="none" stroke="#000000" d="M 1113.2643051479715 665.3999366611015 L 1135 662 L 1117.2264245076594 649.0346610449986 L 1113.2643051479715 665.3999366611015" stroke-miterlimit="10"/></g><g transform="translate(-54,-6) scale(1,1)"><path fill="none" stroke="#000000" d="M 1123 564 L 1190 655" stroke-miterlimit="10"/></g><g transform="translate(-54,-6) scale(1,1)"><path fill="#FFFFFF" stroke="none" d="M 1171.1694925370061 643.6240609756323 L 1190 655 L 1184.728824106228 633.6408168532381"/></g><g transform="translate(-54,-6) scale(1,1)"><path fill="none" stroke="#000000" d="M 1171.1694925370061 643.6240609756323 L 1190 655 L 1184.728824106228 633.6408168532381 L 1171.1694925370061 643.6240609756323" stroke-miterlimit="10"/></g><g transform="translate(-54,-6) scale(1,1)"><path fill="none" stroke="#000000" d="M 265 164 L 425 191" stroke-miterlimit="10"/></g><g transform="translate(-54,-6) scale(1,1)"><path fill="#C0C0C0" stroke="none" d="M 783 896.5 C 783 886.835016 810.5344848 879 844.5 879 C 878.4655152 879 906 886.835016 906 896.5 C 906 906.164984 878.4655152 914 844.5 914 C 810.5344848 914 783 906.164984 783 896.5 Z" opacity="0.2"/></g><g transform="translate(-54,-6) scale(1,1)"><path fill="#ffffff" stroke="none" d="M 776 889.5 C 776 879.835016 803.5344848 872 837.5 872 C 871.4655152 872 899 879.835016 899 889.5 C 899 899.164984 871.4655152 907 837.5 907 C 803.5344848 907 776 899.164984 776 889.5 Z"/></g><g transform="translate(-54,-6) scale(1,1)"><path fill="none" stroke="#000000" d="M 776 889.5 C 776 879.835016 803.5344848 872 837.5 872 C 871.4655152 872 899 879.835016 899 889.5 C 899 899.164984 871.4655152 907 837.5 907 C 803.5344848 907 776 899.164984 776 889.5 Z" stroke-miterlimit="10"/></g><g transform="translate(-54,-6) scale(1,1)"><g><path fill="none" stroke="none"/><text fill="#000000" stroke="none" font-family="Roboto" font-size="14px" font-style="normal" font-weight="bold" text-decoration="none" x="798.69580078125" y="897">Viết báo cáo</text></g></g><g transform="translate(-54,-6) scale(1,1)"><path fill="none" stroke="#000000" d="M 273 886 L 775 889" stroke-miterlimit="10"/></g><g transform="translate(-54,-6) scale(1,1)"><path fill="none" stroke="#000000" d="M 1439 886 L 900 889" stroke-miterlimit="10"/></g><g transform="translate(-54,-6) scale(1,1)"><path fill="none" stroke="#000000" d="M 836 1159 L 837 908" stroke-miterlimit="10" stroke-dasharray="3"/></g><g transform="translate(-54,-6) scale(1,1)"><path fill="none" stroke="#000000" d="M 841.1689959249505 918.1793650576913 L 837 908 L 832.7500272288047 918.1458233497385" stroke-miterlimit="10"/></g><g transform="translate(-54,-6) scale(1,1)"><g><path fill="none" stroke="none"/><text fill="#000000" stroke="none" font-family="Roboto" font-size="14px" font-style="normal" font-weight="normal" text-decoration="none" x="776.5" y="1038.5">«include»</text></g></g><g transform="translate(-54,-6) scale(1,1)"><path fill="#C0C0C0" stroke="none" d="M 439 288.5 C 439 278.835016 461.8334752 271 490 271 C 518.1665248 271 541 278.835016 541 288.5 C 541 298.164984 518.1665248 306 490 306 C 461.8334752 306 439 298.164984 439 288.5 Z" opacity="0.2"/></g><g transform="translate(-54,-6) scale(1,1)"><path fill="#ffffff" stroke="none" d="M 432 281.5 C 432 271.835016 454.8334752 264 483 264 C 511.1665248 264 534 271.835016 534 281.5 C 534 291.164984 511.1665248 299 483 299 C 454.8334752 299 432 291.164984 432 281.5 Z"/></g><g transform="translate(-54,-6) scale(1,1)"><path fill="none" stroke="#000000" d="M 432 281.5 C 432 271.835016 454.8334752 264 483 264 C 511.1665248 264 534 271.835016 534 281.5 C 534 291.164984 511.1665248 299 483 299 C 454.8334752 299 432 291.164984 432 281.5 Z" stroke-miterlimit="10"/></g><g transform="translate(-54,-6) scale(1,1)"><g><path fill="none" stroke="none"/><text fill="#000000" stroke="none" font-family="Roboto" font-size="14px" font-style="normal" font-weight="bold" text-decoration="none" x="451.5546875" y="289">Đăng xuất</text></g></g><g transform="translate(-54,-6) scale(1,1)"><path fill="#ffffff" stroke="none" d="M 206.35636363636362 282.7 C 206.35636363636362 277.34283744 210.67396621963636 273 216 273 C 221.32603378036364 273 225.64363636363638 277.34283744 225.64363636363638 282.7 C 225.64363636363638 288.05716256 221.32603378036364 292.4 216 292.4 C 210.67396621963636 292.4 206.35636363636362 288.05716256 206.35636363636362 282.7 Z"/></g><g transform="translate(-54,-6) scale(1,1)"><path fill="none" stroke="#000000" d="M 206.35636363636362 282.7 C 206.35636363636362 277.34283744 210.67396621963636 273 216 273 C 221.32603378036364 273 225.64363636363638 277.34283744 225.64363636363638 282.7 C 225.64363636363638 288.05716256 221.32603378036364 292.4 216 292.4 C 210.67396621963636 292.4 206.35636363636362 288.05716256 206.35636363636362 282.7 Z" stroke-miterlimit="10"/></g><g transform="translate(-54,-6) scale(1,1)"><path fill="none" stroke="#000000" d="M 216 292.4 L 216 311.6" stroke-miterlimit="10"/></g><g transform="translate(-54,-6) scale(1,1)"><path fill="none" stroke="#000000" d="M 205.7890909090909 299.6 L 226.2109090909091 299.6" stroke-miterlimit="10"/></g><g transform="translate(-54,-6) scale(1,1)"><path fill="none" stroke="#000000" d="M 216 311.6 L 201.8181818181818 331" stroke-miterlimit="10"/></g><g transform="translate(-54,-6) scale(1,1)"><path fill="none" stroke="#000000" d="M 216 311.6 L 230.1818181818182 331" stroke-miterlimit="10"/></g><g transform="translate(-54,-6) scale(1,1)"><g><path fill="none" stroke="none"/><text fill="#000000" stroke="none" font-family="Roboto" font-size="14px" font-style="normal" font-weight="bold" text-decoration="none" x="179.72509765625" y="352.5">Người dùng</text><text fill="#000000" stroke="none" font-family="Roboto" font-size="14px" font-style="normal" font-weight="bold" text-decoration="none" x="179.5986328125" y="366.5">đã xác thực</text></g></g><g transform="translate(-54,-6) scale(1,1)"><path fill="none" stroke="#000000" d="M 265 314 L 431 289" stroke-miterlimit="10"/></g><g transform="translate(-54,-6) scale(1,1)"><path fill="none" stroke="#000000" d="M 265 325 L 431 336" stroke-miterlimit="10"/></g><g transform="translate(-54,-6) scale(1,1)"><path fill="none" stroke="#000000" d="M 216 439 L 216 373" stroke-miterlimit="10"/></g><g transform="translate(-54,-6) scale(1,1)"><path fill="#FFFFFF" stroke="none" d="M 224.41903551203197 393.3253497152483 L 216 373 L 207.58096448796803 393.3253497152483"/></g><g transform="translate(-54,-6) scale(1,1)"><path fill="none" stroke="#000000" d="M 224.41903551203197 393.3253497152483 L 216 373 L 207.58096448796803 393.3253497152483 L 224.41903551203197 393.3253497152483" stroke-miterlimit="10"/></g><g transform="translate(-54,-6) scale(1,1)"><path fill="none" stroke="#000000" d="M 167 882 L 136 880 L 136 408 L 169 373" stroke-miterlimit="10"/></g><g transform="translate(-54,-6) scale(1,1)"><path fill="#FFFFFF" stroke="none" d="M 161.18214958358766 393.56407583302985 L 169 373 L 148.93094748588297 382.01294242662254"/></g><g transform="translate(-54,-6) scale(1,1)"><path fill="none" stroke="#000000" d="M 161.18214958358766 393.56407583302985 L 169 373 L 148.93094748588297 382.01294242662254 L 161.18214958358766 393.56407583302985" stroke-miterlimit="10"/></g><g transform="translate(-54,-6) scale(1,1)"><path fill="none" stroke="#000000" d="M 1492 839 L 1488 16 L 64 16 L 64 264 L 167 303" stroke-miterlimit="10"/></g><g transform="translate(-54,-6) scale(1,1)"><path fill="#FFFFFF" stroke="none" d="M 145.0103938245034 303.67618063160785 L 167 303 L 150.97286844776787 287.9291322676017"/></g><g transform="translate(-54,-6) scale(1,1)"><path fill="none" stroke="#000000" d="M 145.0103938245034 303.67618063160785 L 167 303 L 150.97286844776787 287.9291322676017 L 145.0103938245034 303.67618063160785" stroke-miterlimit="10"/></g><g transform="translate(-54,-6) scale(1,1)"><path fill="none" stroke="#000000" d="M 1491 1229 L 1488 1312 L 64 1312 L 64 376 L 167 339" stroke-miterlimit="10"/></g><g transform="translate(-54,-6) scale(1,1)"><path fill="#FFFFFF" stroke="none" d="M 150.71764648049606 353.79476136562863 L 167 339 L 145.02516132500935 337.94811350035485"/></g><g transform="translate(-54,-6) scale(1,1)"><path fill="none" stroke="#000000" d="M 150.71764648049606 353.79476136562863 L 167 339 L 145.02516132500935 337.94811350035485 L 150.71764648049606 353.79476136562863" stroke-miterlimit="10"/></g><g transform="translate(-54,-6) scale(1,1)"><path fill="#C0C0C0" stroke="none" d="M 1135 960.5 C 1135 950.835016 1184.9202448 943 1246.5 943 C 1308.0797552 943 1358 950.835016 1358 960.5 C 1358 970.164984 1308.0797552 978 1246.5 978 C 1184.9202448 978 1135 970.164984 1135 960.5 Z" opacity="0.2"/></g><g transform="translate(-54,-6) scale(1,1)"><path fill="#ffffff" stroke="none" d="M 1128 953.5 C 1128 943.835016 1177.9202448 936 1239.5 936 C 1301.0797552 936 1351 943.835016 1351 953.5 C 1351 963.164984 1301.0797552 971 1239.5 971 C 1177.9202448 971 1128 963.164984 1128 953.5 Z"/></g><g transform="translate(-54,-6) scale(1,1)"><path fill="none" stroke="#000000" d="M 1128 953.5 C 1128 943.835016 1177.9202448 936 1239.5 936 C 1301.0797552 936 1351 943.835016 1351 953.5 C 1351 963.164984 1301.0797552 971 1239.5 971 C 1177.9202448 971 1128 963.164984 1128 953.5 Z" stroke-miterlimit="10"/></g><g transform="translate(-54,-6) scale(1,1)"><g><path fill="none" stroke="none"/><text fill="#000000" stroke="none" font-family="Roboto" font-size="14px" font-style="normal" font-weight="bold" text-decoration="none" x="1166.07177734375" y="961">Tạo tài khoản nhân viên</text></g></g><g transform="translate(-54,-6) scale(1,1)"><path fill="none" stroke="#000000" d="M 1440 1135 L 1260 972" stroke-miterlimit="10"/></g></g></svg>