<svg version="1.1" xmlns="http://www.w3.org/2000/svg" xmlns:xlink="http://www.w3.org/1999/xlink" width="1500" height="1317"><defs/><g><g transform="translate(-54,-6) scale(1,1)"><rect fill="#C0C0C0" stroke="none" x="335" y="71" width="1064" height="1192" opacity="0.2"/></g><g transform="translate(-54,-6) scale(1,1)"><rect fill="#ffffff" stroke="none" x="328" y="64" width="1064" height="1192"/></g><g transform="translate(-54,-6) scale(1,1)"><path fill="none" stroke="#000000" d="M 328 64 L 1392 64 L 1392 1256 L 328 1256 L 328 64 Z Z" stroke-miterlimit="10"/></g><g transform="translate(-54,-6) scale(1,1)"><g><path fill="none" stroke="none"/><text fill="#000000" stroke="none" font-family="Roboto" font-size="14px" font-style="normal" font-weight="bold" text-decoration="none" x="776.1025390625" y="84.5">Ứng dụng quản lý nhà sách</text></g></g><g transform="translate(-54,-6) scale(1,1)"><path fill="#ffffff" stroke="none" d="M 205.71345454545454 451.38 C 205.71345454545454 445.647283776 210.31889730094545 441 216 441 C 221.68110269905455 441 226.28654545454546 445.647283776 226.28654545454546 451.38 C 226.28654545454546 457.112716224 221.68110269905455 461.76 216 461.76 C 210.31889730094545 461.76 205.71345454545454 457.112716224 205.71345454545454 451.38 Z"/></g><g transform="translate(-54,-6) scale(1,1)"><path fill="none" stroke="#000000" d="M 205.71345454545454 451.38 C 205.71345454545454 445.647283776 210.31889730094545 441 216 441 C 221.68110269905455 441 226.28654545454546 445.647283776 226.28654545454546 451.38 C 226.28654545454546 457.112716224 221.68110269905455 461.76 216 461.76 C 210.31889730094545 461.76 205.71345454545454 457.112716224 205.71345454545454 451.38 Z" stroke-miterlimit="10"/></g><g transform="translate(-54,-6) scale(1,1)"><path fill="none" stroke="#000000" d="M 216 461.76 L 216 482.24" stroke-miterlimit="10"/></g><g transform="translate(-54,-6) scale(1,1)"><path fill="none" stroke="#000000" d="M 205.10836363636363 469.44 L 226.89163636363637 469.44" stroke-miterlimit="10"/></g><g transform="translate(-54,-6) scale(1,1)"><path fill="none" stroke="#000000" d="M 216 482.24 L 200.87272727272727 503" stroke-miterlimit="10"/></g><g transform="translate(-54,-6) scale(1,1)"><path fill="none" stroke="#000000" d="M 216 482.24 L 231.12727272727273 503" stroke-miterlimit="10"/></g><g transform="translate(-54,-6) scale(1,1)"><g><path fill="none" stroke="none"/><text fill="#000000" stroke="none" font-family="Roboto" font-size="14px" font-style="normal" font-weight="bold" text-decoration="none" x="179.2431640625" y="524.5">Khách hàng</text><text fill="#000000" stroke="none" font-family="Roboto" font-size="14px" font-style="normal" font-weight="bold" text-decoration="none" x="188.30078125" y="538.5">(độc giả)</text></g></g><g transform="translate(-54,-6) scale(1,1)"><path fill="#ffffff" stroke="none" d="M 209.392 851.72 C 209.392 845.799506944 214.1413628416 841 220 841 C 225.8586371584 841 230.608 845.799506944 230.608 851.72 C 230.608 857.6404930560001 225.8586371584 862.44 220 862.44 C 214.1413628416 862.44 209.392 857.6404930560001 209.392 851.72 Z"/></g><g transform="translate(-54,-6) scale(1,1)"><path fill="none" stroke="#000000" d="M 209.392 851.72 C 209.392 845.799506944 214.1413628416 841 220 841 C 225.8586371584 841 230.608 845.799506944 230.608 851.72 C 230.608 857.6404930560001 225.8586371584 862.44 220 862.44 C 214.1413628416 862.44 209.392 857.6404930560001 209.392 851.72 Z" stroke-miterlimit="10"/></g><g transform="translate(-54,-6) scale(1,1)"><path fill="none" stroke="#000000" d="M 220 862.44 L 220 883.56" stroke-miterlimit="10"/></g><g transform="translate(-54,-6) scale(1,1)"><path fill="none" stroke="#000000" d="M 208.768 870.36 L 231.232 870.36" stroke-miterlimit="10"/></g><g transform="translate(-54,-6) scale(1,1)"><path fill="none" stroke="#000000" d="M 220 883.56 L 204.4 905" stroke-miterlimit="10"/></g><g transform="translate(-54,-6) scale(1,1)"><path fill="none" stroke="#000000" d="M 220 883.56 L 235.6 905" stroke-miterlimit="10"/></g><g transform="translate(-54,-6) scale(1,1)"><g><path fill="none" stroke="none"/><text fill="#000000" stroke="none" font-family="Roboto" font-size="14px" font-style="normal" font-weight="bold" text-decoration="none" x="189.09130859375" y="926.5">Nhân viên</text></g></g><g transform="translate(-54,-6) scale(1,1)"><path fill="#ffffff" stroke="none" d="M 1480.749090909091 852.4 C 1480.749090909091 846.10395328 1485.7862939229092 841 1492 841 C 1498.2137060770908 841 1503.250909090909 846.10395328 1503.250909090909 852.4 C 1503.250909090909 858.6960467199999 1498.2137060770908 863.8 1492 863.8 C 1485.7862939229092 863.8 1480.749090909091 858.6960467199999 1480.749090909091 852.4 Z"/></g><g transform="translate(-54,-6) scale(1,1)"><path fill="none" stroke="#000000" d="M 1480.749090909091 852.4 C 1480.749090909091 846.10395328 1485.7862939229092 841 1492 841 C 1498.2137060770908 841 1503.250909090909 846.10395328 1503.250909090909 852.4 C 1503.250909090909 858.6960467199999 1498.2137060770908 863.8 1492 863.8 C 1485.7862939229092 863.8 1480.749090909091 858.6960467199999 1480.749090909091 852.4 Z" stroke-miterlimit="10"/></g><g transform="translate(-54,-6) scale(1,1)"><path fill="none" stroke="#000000" d="M 1492 863.8 L 1492 886.2" stroke-miterlimit="10"/></g><g transform="translate(-54,-6) scale(1,1)"><path fill="none" stroke="#000000" d="M 1480.0872727272726 872.2 L 1503.9127272727274 872.2" stroke-miterlimit="10"/></g><g transform="translate(-54,-6) scale(1,1)"><path fill="none" stroke="#000000" d="M 1492 886.2 L 1475.4545454545455 909" stroke-miterlimit="10"/></g><g transform="translate(-54,-6) scale(1,1)"><path fill="none" stroke="#000000" d="M 1492 886.2 L 1508.5454545454545 909" stroke-miterlimit="10"/></g><g transform="translate(-54,-6) scale(1,1)"><g><path fill="none" stroke="none"/><text fill="#000000" stroke="none" font-family="Roboto" font-size="14px" font-style="normal" font-weight="bold" text-decoration="none" x="1455.78662109375" y="930.5">Quản lý kho</text></g></g><g transform="translate(-54,-6) scale(1,1)"><path fill="#ffffff" stroke="none" d="M 1480.749090909091 1148.4 C 1480.749090909091 1142.10395328 1485.7862939229092 1137 1492 1137 C 1498.2137060770908 1137 1503.250909090909 1142.10395328 1503.250909090909 1148.4 C 1503.250909090909 1154.6960467200001 1498.2137060770908 1159.8 1492 1159.8 C 1485.7862939229092 1159.8 1480.749090909091 1154.6960467200001 1480.749090909091 1148.4 Z"/></g><g transform="translate(-54,-6) scale(1,1)"><path fill="none" stroke="#000000" d="M 1480.749090909091 1148.4 C 1480.749090909091 1142.10395328 1485.7862939229092 1137 1492 1137 C 1498.2137060770908 1137 1503.250909090909 1142.10395328 1503.250909090909 1148.4 C 1503.250909090909 1154.6960467200001 1498.2137060770908 1159.8 1492 1159.8 C 1485.7862939229092 1159.8 1480.749090909091 1154.6960467200001 1480.749090909091 1148.4 Z" stroke-miterlimit="10"/></g><g transform="translate(-54,-6) scale(1,1)"><path fill="none" stroke="#000000" d="M 1492 1159.8 L 1492 1182.2" stroke-miterlimit="10"/></g><g transform="translate(-54,-6) scale(1,1)"><path fill="none" stroke="#000000" d="M 1480.0872727272726 1168.2 L 1503.9127272727274 1168.2" stroke-miterlimit="10"/></g><g transform="translate(-54,-6) scale(1,1)"><path fill="none" stroke="#000000" d="M 1492 1182.2 L 1475.4545454545455 1205" stroke-miterlimit="10"/></g><g transform="translate(-54,-6) scale(1,1)"><path fill="none" stroke="#000000" d="M 1492 1182.2 L 1508.5454545454545 1205" stroke-miterlimit="10"/></g><g transform="translate(-54,-6) scale(1,1)"><g><path fill="none" stroke="none"/><text fill="#000000" stroke="none" font-family="Roboto" font-size="14px" font-style="normal" font-weight="bold" text-decoration="none" x="1447.72705078125" y="1226.5">Người quản trị</text></g></g><g transform="translate(-54,-6) scale(1,1)"><path fill="#C0C0C0" stroke="none" d="M 1127 374.5 C 1127 352.6847504 1180.725824 335 1247 335 C 1313.274176 335 1367 352.6847504 1367 374.5 C 1367 396.3152496 1313.274176 414 1247 414 C 1180.725824 414 1127 396.3152496 1127 374.5 Z" opacity="0.2"/></g><g transform="translate(-54,-6) scale(1,1)"><path fill="#ffffff" stroke="none" d="M 1120 367.5 C 1120 345.6847504 1173.725824 328 1240 328 C 1306.274176 328 1360 345.6847504 1360 367.5 C 1360 389.3152496 1306.274176 407 1240 407 C 1173.725824 407 1120 389.3152496 1120 367.5 Z"/></g><g transform="translate(-54,-6) scale(1,1)"><path fill="none" stroke="#000000" d="M 1120 367.5 C 1120 345.6847504 1173.725824 328 1240 328 C 1306.274176 328 1360 345.6847504 1360 367.5 C 1360 389.3152496 1306.274176 407 1240 407 C 1173.725824 407 1120 389.3152496 1120 367.5 Z" stroke-miterlimit="10"/></g><g transform="translate(-54,-6) scale(1,1)"><g><path fill="none" stroke="none"/><text fill="#000000" stroke="none" font-family="Roboto" font-size="14px" font-style="normal" font-weight="bold" text-decoration="none" x="1161.64306640625" y="368">Thanh toán và nhận hàng</text><text fill="#000000" stroke="none" font-family="Roboto" font-size="14px" font-style="normal" font-weight="bold" text-decoration="none" x="1174.54248046875" y="382">trực tiếp tại nhà sách</text></g></g><g transform="translate(-54,-6) scale(1,1)"><path fill="#C0C0C0" stroke="none" d="M 863 290 C 863 275.0883104 893.4446336 263 931 263 C 968.5553664 263 999 275.0883104 999 290 C 999 304.9116896 968.5553664 317 931 317 C 893.4446336 317 863 304.9116896 863 290 Z" opacity="0.2"/></g><g transform="translate(-54,-6) scale(1,1)"><path fill="#ffffff" stroke="none" d="M 856 283 C 856 268.0883104 886.4446336 256 924 256 C 961.5553664 256 992 268.0883104 992 283 C 992 297.9116896 961.5553664 310 924 310 C 886.4446336 310 856 297.9116896 856 283 Z"/></g><g transform="translate(-54,-6) scale(1,1)"><path fill="none" stroke="#000000" d="M 856 283 C 856 268.0883104 886.4446336 256 924 256 C 961.5553664 256 992 268.0883104 992 283 C 992 297.9116896 961.5553664 310 924 310 C 886.4446336 310 856 297.9116896 856 283 Z" stroke-miterlimit="10"/></g><g transform="translate(-54,-6) scale(1,1)"><path fill="none" stroke="#000000" d="M 856 315 L 992 315" stroke-miterlimit="10"/></g><g transform="translate(-54,-6) scale(1,1)"><g><path fill="none" stroke="none"/><text fill="#000000" stroke="none" font-family="Roboto" font-size="14px" font-style="normal" font-weight="bold" text-decoration="none" x="888.8291015625" y="286">Thanh toán</text><text fill="#000000" stroke="none" font-family="Roboto" font-size="14px" font-style="normal" font-weight="bold" text-decoration="none" x="894.90283203125" y="300">đơn hàng</text></g></g><g transform="translate(-54,-6) scale(1,1)"><g><path fill="none" stroke="none"/><text fill="#000000" stroke="none" font-family="Roboto" font-size="14px" font-style="normal" font-weight="normal" text-decoration="none" x="861" y="333.5">Huỷ đơn hàng</text></g></g><g transform="translate(-54,-6) scale(1,1)"><path fill="#C0C0C0" stroke="none" d="M 439 356 C 439 339.9837408 469.4446336 327 507 327 C 544.5553664 327 575 339.9837408 575 356 C 575 372.0162592 544.5553664 385 507 385 C 469.4446336 385 439 372.0162592 439 356 Z" opacity="0.2"/></g><g transform="translate(-54,-6) scale(1,1)"><path fill="#ffffff" stroke="none" d="M 432 349 C 432 332.9837408 462.4446336 320 500 320 C 537.5553664 320 568 332.9837408 568 349 C 568 365.0162592 537.5553664 378 500 378 C 462.4446336 378 432 365.0162592 432 349 Z"/></g><g transform="translate(-54,-6) scale(1,1)"><path fill="none" stroke="#000000" d="M 432 349 C 432 332.9837408 462.4446336 320 500 320 C 537.5553664 320 568 332.9837408 568 349 C 568 365.0162592 537.5553664 378 500 378 C 462.4446336 378 432 365.0162592 432 349 Z" stroke-miterlimit="10"/></g><g transform="translate(-54,-6) scale(1,1)"><g><path fill="none" stroke="none"/><text fill="#000000" stroke="none" font-family="Roboto" font-size="14px" font-style="normal" font-weight="bold" text-decoration="none" x="459.7841796875" y="356.5">Tra cứu sách</text></g></g><g transform="translate(-54,-6) scale(1,1)"><path fill="#C0C0C0" stroke="none" d="M 799 180 C 799 163.9837408 830.5639216 151 869.5 151 C 908.4360784 151 940 163.9837408 940 180 C 940 196.0162592 908.4360784 209 869.5 209 C 830.5639216 209 799 196.0162592 799 180 Z" opacity="0.2"/></g><g transform="translate(-54,-6) scale(1,1)"><path fill="#ffffff" stroke="none" d="M 792 173 C 792 156.9837408 823.5639216 144 862.5 144 C 901.4360784 144 933 156.9837408 933 173 C 933 189.0162592 901.4360784 202 862.5 202 C 823.5639216 202 792 189.0162592 792 173 Z"/></g><g transform="translate(-54,-6) scale(1,1)"><path fill="none" stroke="#000000" d="M 792 173 C 792 156.9837408 823.5639216 144 862.5 144 C 901.4360784 144 933 156.9837408 933 173 C 933 189.0162592 901.4360784 202 862.5 202 C 823.5639216 202 792 189.0162592 792 173 Z" stroke-miterlimit="10"/></g><g transform="translate(-54,-6) scale(1,1)"><g><path fill="none" stroke="none"/><text fill="#000000" stroke="none" font-family="Roboto" font-size="14px" font-style="normal" font-weight="bold" text-decoration="none" x="819.5087890625" y="180.5">Huỷ đơn hàng</text></g></g><g transform="translate(-54,-6) scale(1,1)"><path fill="#C0C0C0" stroke="none" d="M 647 318.5 C 647 296.6847504 672.0720512 279 703 279 C 733.9279488 279 759 296.6847504 759 318.5 C 759 340.3152496 733.9279488 358 703 358 C 672.0720512 358 647 340.3152496 647 318.5 Z" opacity="0.2"/></g><g transform="translate(-54,-6) scale(1,1)"><path fill="#ffffff" stroke="none" d="M 640 311.5 C 640 289.6847504 665.0720512 272 696 272 C 726.9279488 272 752 289.6847504 752 311.5 C 752 333.3152496 726.9279488 351 696 351 C 665.0720512 351 640 333.3152496 640 311.5 Z"/></g><g transform="translate(-54,-6) scale(1,1)"><path fill="none" stroke="#000000" d="M 640 311.5 C 640 289.6847504 665.0720512 272 696 272 C 726.9279488 272 752 289.6847504 752 311.5 C 752 333.3152496 726.9279488 351 696 351 C 665.0720512 351 640 333.3152496 640 311.5 Z" stroke-miterlimit="10"/></g><g transform="translate(-54,-6) scale(1,1)"><g><path fill="none" stroke="none"/><text fill="#000000" stroke="none" font-family="Roboto" font-size="14px" font-style="normal" font-weight="bold" text-decoration="none" x="665.552734375" y="312">Mua sách</text><text fill="#000000" stroke="none" font-family="Roboto" font-size="14px" font-style="normal" font-weight="bold" text-decoration="none" x="664.63330078125" y="326">trực tuyến</text></g></g><g transform="translate(-54,-6) scale(1,1)"><path fill="#C0C0C0" stroke="none" d="M 863 988 C 863 971.9837408 922.0984064 959 995 959 C 1067.9015936 959 1127 971.9837408 1127 988 C 1127 1004.0162592 1067.9015936 1017 995 1017 C 922.0984064 1017 863 1004.0162592 863 988 Z" opacity="0.2"/></g><g transform="translate(-54,-6) scale(1,1)"><path fill="#ffffff" stroke="none" d="M 856 981 C 856 964.9837408 915.0984064 952 988 952 C 1060.9015936 952 1120 964.9837408 1120 981 C 1120 997.0162592 1060.9015936 1010 988 1010 C 915.0984064 1010 856 997.0162592 856 981 Z"/></g><g transform="translate(-54,-6) scale(1,1)"><path fill="none" stroke="#000000" d="M 856 981 C 856 964.9837408 915.0984064 952 988 952 C 1060.9015936 952 1120 964.9837408 1120 981 C 1120 997.0162592 1060.9015936 1010 988 1010 C 915.0984064 1010 856 997.0162592 856 981 Z" stroke-miterlimit="10"/></g><g transform="translate(-54,-6) scale(1,1)"><g><path fill="none" stroke="none"/><text fill="#000000" stroke="none" font-family="Roboto" font-size="14px" font-style="normal" font-weight="bold" text-decoration="none" x="904.4580078125" y="981.5">Thay đổi quy định số lượng</text><text fill="#000000" stroke="none" font-family="Roboto" font-size="14px" font-style="normal" font-weight="bold" text-decoration="none" x="938.7333984375" y="995.5">nhập và tồn kho</text></g></g><g transform="translate(-54,-6) scale(1,1)"><path fill="#C0C0C0" stroke="none" d="M 1151 1100 C 1151 1083.9837408 1192.1897984 1071 1243 1071 C 1293.8102016 1071 1335 1083.9837408 1335 1100 C 1335 1116.0162592 1293.8102016 1129 1243 1129 C 1192.1897984 1129 1151 1116.0162592 1151 1100 Z" opacity="0.2"/></g><g transform="translate(-54,-6) scale(1,1)"><path fill="#ffffff" stroke="none" d="M 1144 1093 C 1144 1076.9837408 1185.1897984 1064 1236 1064 C 1286.8102016 1064 1328 1076.9837408 1328 1093 C 1328 1109.0162592 1286.8102016 1122 1236 1122 C 1185.1897984 1122 1144 1109.0162592 1144 1093 Z"/></g><g transform="translate(-54,-6) scale(1,1)"><path fill="none" stroke="#000000" d="M 1144 1093 C 1144 1076.9837408 1185.1897984 1064 1236 1064 C 1286.8102016 1064 1328 1076.9837408 1328 1093 C 1328 1109.0162592 1286.8102016 1122 1236 1122 C 1185.1897984 1122 1144 1109.0162592 1144 1093 Z" stroke-miterlimit="10"/></g><g transform="translate(-54,-6) scale(1,1)"><g><path fill="none" stroke="none"/><text fill="#000000" stroke="none" font-family="Roboto" font-size="14px" font-style="normal" font-weight="bold" text-decoration="none" x="1181.34326171875" y="1100.5">Thay đổi quy định</text></g></g><g transform="translate(-54,-6) scale(1,1)"><path fill="#C0C0C0" stroke="none" d="M 871 1102.5 C 871 1080.6847504 910.3989376 1063 959 1063 C 1007.6010624 1063 1047 1080.6847504 1047 1102.5 C 1047 1124.3152496 1007.6010624 1142 959 1142 C 910.3989376 1142 871 1124.3152496 871 1102.5 Z" opacity="0.2"/></g><g transform="translate(-54,-6) scale(1,1)"><path fill="#ffffff" stroke="none" d="M 864 1095.5 C 864 1073.6847504 903.3989376 1056 952 1056 C 1000.6010624 1056 1040 1073.6847504 1040 1095.5 C 1040 1117.3152496 1000.6010624 1135 952 1135 C 903.3989376 1135 864 1117.3152496 864 1095.5 Z"/></g><g transform="translate(-54,-6) scale(1,1)"><path fill="none" stroke="#000000" d="M 864 1095.5 C 864 1073.6847504 903.3989376 1056 952 1056 C 1000.6010624 1056 1040 1073.6847504 1040 1095.5 C 1040 1117.3152496 1000.6010624 1135 952 1135 C 903.3989376 1135 864 1117.3152496 864 1095.5 Z" stroke-miterlimit="10"/></g><g transform="translate(-54,-6) scale(1,1)"><g><path fill="none" stroke="none"/><text fill="#000000" stroke="none" font-family="Roboto" font-size="14px" font-style="normal" font-weight="bold" text-decoration="none" x="897.34326171875" y="1096">Thay đổi quy định</text><text fill="#000000" stroke="none" font-family="Roboto" font-size="14px" font-style="normal" font-weight="bold" text-decoration="none" x="898.7275390625" y="1110">thời gian huỷ đơn</text></g></g><g transform="translate(-54,-6) scale(1,1)"><path fill="#C0C0C0" stroke="none" d="M 775 1180 C 775 1163.9837408 809.0263552 1151 851 1151 C 892.9736448 1151 927 1163.9837408 927 1180 C 927 1196.0162592 892.9736448 1209 851 1209 C 809.0263552 1209 775 1196.0162592 775 1180 Z" opacity="0.2"/></g><g transform="translate(-54,-6) scale(1,1)"><path fill="#ffffff" stroke="none" d="M 768 1173 C 768 1156.9837408 802.0263552 1144 844 1144 C 885.9736448 1144 920 1156.9837408 920 1173 C 920 1189.0162592 885.9736448 1202 844 1202 C 802.0263552 1202 768 1189.0162592 768 1173 Z"/></g><g transform="translate(-54,-6) scale(1,1)"><path fill="none" stroke="#000000" d="M 768 1173 C 768 1156.9837408 802.0263552 1144 844 1144 C 885.9736448 1144 920 1156.9837408 920 1173 C 920 1189.0162592 885.9736448 1202 844 1202 C 802.0263552 1202 768 1189.0162592 768 1173 Z" stroke-miterlimit="10"/></g><g transform="translate(-54,-6) scale(1,1)"><g><path fill="none" stroke="none"/><text fill="#000000" stroke="none" font-family="Roboto" font-size="14px" font-style="normal" font-weight="bold" text-decoration="none" x="801.27880859375" y="1173.5">Xem thống kê</text><text fill="#000000" stroke="none" font-family="Roboto" font-size="14px" font-style="normal" font-weight="bold" text-decoration="none" x="810.1962890625" y="1187.5">và báo cáo</text></g></g><g transform="translate(-54,-6) scale(1,1)"><path fill="#C0C0C0" stroke="none" d="M 1055 695 C 1055 681.7451648 1101.5623808 671 1159 671 C 1216.4376192 671 1263 681.7451648 1263 695 C 1263 708.2548352 1216.4376192 719 1159 719 C 1101.5623808 719 1055 708.2548352 1055 695 Z" opacity="0.2"/></g><g transform="translate(-54,-6) scale(1,1)"><path fill="#ffffff" stroke="none" d="M 1048 688 C 1048 674.7451648 1094.5623808 664 1152 664 C 1209.4376192 664 1256 674.7451648 1256 688 C 1256 701.2548352 1209.4376192 712 1152 712 C 1094.5623808 712 1048 701.2548352 1048 688 Z"/></g><g transform="translate(-54,-6) scale(1,1)"><path fill="none" stroke="#000000" d="M 1048 688 C 1048 674.7451648 1094.5623808 664 1152 664 C 1209.4376192 664 1256 674.7451648 1256 688 C 1256 701.2548352 1209.4376192 712 1152 712 C 1094.5623808 712 1048 701.2548352 1048 688 Z" stroke-miterlimit="10"/></g><g transform="translate(-54,-6) scale(1,1)"><g><path fill="none" stroke="none"/><text fill="#000000" stroke="none" font-family="Roboto" font-size="14px" font-style="normal" font-weight="bold" text-decoration="none" x="1092.74951171875" y="695.5">Nhập sách vào kho</text></g></g><g transform="translate(-54,-6) scale(1,1)"><path fill="#C0C0C0" stroke="none" d="M 407 732 C 407 715.9837408 446.3989376 703 495 703 C 543.6010624 703 583 715.9837408 583 732 C 583 748.0162592 543.6010624 761 495 761 C 446.3989376 761 407 748.0162592 407 732 Z" opacity="0.2"/></g><g transform="translate(-54,-6) scale(1,1)"><path fill="#ffffff" stroke="none" d="M 400 725 C 400 708.9837408 439.3989376 696 488 696 C 536.6010624 696 576 708.9837408 576 725 C 576 741.0162592 536.6010624 754 488 754 C 439.3989376 754 400 741.0162592 400 725 Z"/></g><g transform="translate(-54,-6) scale(1,1)"><path fill="none" stroke="#000000" d="M 400 725 C 400 708.9837408 439.3989376 696 488 696 C 536.6010624 696 576 708.9837408 576 725 C 576 741.0162592 536.6010624 754 488 754 C 439.3989376 754 400 741.0162592 400 725 Z" stroke-miterlimit="10"/></g><g transform="translate(-54,-6) scale(1,1)"><g><path fill="none" stroke="none"/><text fill="#000000" stroke="none" font-family="Roboto" font-size="14px" font-style="normal" font-weight="bold" text-decoration="none" x="433.13818359375" y="732.5">Bán sách tại quầy</text></g></g><g transform="translate(-54,-6) scale(1,1)"><path fill="#C0C0C0" stroke="none" d="M 559 1182.5 C 559 1160.6847504 591.2354944 1143 631 1143 C 670.7645056 1143 703 1160.6847504 703 1182.5 C 703 1204.3152496 670.7645056 1222 631 1222 C 591.2354944 1222 559 1204.3152496 559 1182.5 Z" opacity="0.2"/></g><g transform="translate(-54,-6) scale(1,1)"><path fill="#ffffff" stroke="none" d="M 552 1175.5 C 552 1153.6847504 584.2354944 1136 624 1136 C 663.7645056 1136 696 1153.6847504 696 1175.5 C 696 1197.3152496 663.7645056 1215 624 1215 C 584.2354944 1215 552 1197.3152496 552 1175.5 Z"/></g><g transform="translate(-54,-6) scale(1,1)"><path fill="none" stroke="#000000" d="M 552 1175.5 C 552 1153.6847504 584.2354944 1136 624 1136 C 663.7645056 1136 696 1153.6847504 696 1175.5 C 696 1197.3152496 663.7645056 1215 624 1215 C 584.2354944 1215 552 1197.3152496 552 1175.5 Z" stroke-miterlimit="10"/></g><g transform="translate(-54,-6) scale(1,1)"><g><path fill="none" stroke="none"/><text fill="#000000" stroke="none" font-family="Roboto" font-size="14px" font-style="normal" font-weight="bold" text-decoration="none" x="582.87158203125" y="1176">Xem tần suất</text><text fill="#000000" stroke="none" font-family="Roboto" font-size="14px" font-style="normal" font-weight="bold" text-decoration="none" x="579.47412109375" y="1190">từng đầu sách</text></g></g><g transform="translate(-54,-6) scale(1,1)"><path fill="#C0C0C0" stroke="none" d="M 575 982.5 C 575 960.6847504 609.0263552 943 651 943 C 692.9736448 943 727 960.6847504 727 982.5 C 727 1004.3152496 692.9736448 1022 651 1022 C 609.0263552 1022 575 1004.3152496 575 982.5 Z" opacity="0.2"/></g><g transform="translate(-54,-6) scale(1,1)"><path fill="#ffffff" stroke="none" d="M 568 975.5 C 568 953.6847504 602.0263552 936 644 936 C 685.9736448 936 720 953.6847504 720 975.5 C 720 997.3152496 685.9736448 1015 644 1015 C 602.0263552 1015 568 997.3152496 568 975.5 Z"/></g><g transform="translate(-54,-6) scale(1,1)"><path fill="none" stroke="#000000" d="M 568 975.5 C 568 953.6847504 602.0263552 936 644 936 C 685.9736448 936 720 953.6847504 720 975.5 C 720 997.3152496 685.9736448 1015 644 1015 C 602.0263552 1015 568 997.3152496 568 975.5 Z" stroke-miterlimit="10"/></g><g transform="translate(-54,-6) scale(1,1)"><g><path fill="none" stroke="none"/><text fill="#000000" stroke="none" font-family="Roboto" font-size="14px" font-style="normal" font-weight="bold" text-decoration="none" x="596.92431640625" y="976">Xem doanh thu</text><text fill="#000000" stroke="none" font-family="Roboto" font-size="14px" font-style="normal" font-weight="bold" text-decoration="none" x="610.12109375" y="990">từng tháng</text></g></g><g transform="translate(-54,-6) scale(1,1)"><path fill="#ffffff" stroke="none" d="M 192.58836363636362 124.57 C 192.58836363636362 118.180064864 197.69752669323637 113 204 113 C 210.30247330676363 113 215.41163636363638 118.180064864 215.41163636363638 124.57 C 215.41163636363638 130.95993513599998 210.30247330676363 136.14 204 136.14 C 197.69752669323637 136.14 192.58836363636362 130.95993513599998 192.58836363636362 124.57 Z"/></g><g transform="translate(-54,-6) scale(1,1)"><path fill="none" stroke="#000000" d="M 192.58836363636362 124.57 C 192.58836363636362 118.180064864 197.69752669323637 113 204 113 C 210.30247330676363 113 215.41163636363638 118.180064864 215.41163636363638 124.57 C 215.41163636363638 130.95993513599998 210.30247330676363 136.14 204 136.14 C 197.69752669323637 136.14 192.58836363636362 130.95993513599998 192.58836363636362 124.57 Z" stroke-miterlimit="10"/></g><g transform="translate(-54,-6) scale(1,1)"><path fill="none" stroke="#000000" d="M 204 136.14 L 204 158.86" stroke-miterlimit="10"/></g><g transform="translate(-54,-6) scale(1,1)"><path fill="none" stroke="#000000" d="M 191.91709090909092 144.66 L 216.08290909090908 144.66" stroke-miterlimit="10"/></g><g transform="translate(-54,-6) scale(1,1)"><path fill="none" stroke="#000000" d="M 204 158.86 L 187.21818181818182 182" stroke-miterlimit="10"/></g><g transform="translate(-54,-6) scale(1,1)"><path fill="none" stroke="#000000" d="M 204 158.86 L 220.78181818181818 182" stroke-miterlimit="10"/></g><g transform="translate(-54,-6) scale(1,1)"><g><path fill="none" stroke="none"/><text fill="#000000" stroke="none" font-family="Roboto" font-size="14px" font-style="normal" font-weight="bold" text-decoration="none" x="150.33447265625" y="203.5">Người dùng chưa</text><text fill="#000000" stroke="none" font-family="Roboto" font-size="14px" font-style="normal" font-weight="bold" text-decoration="none" x="151.05908203125" y="217.5">xác thực (Khách)</text></g></g><g transform="translate(-54,-6) scale(1,1)"><path fill="#C0C0C0" stroke="none" d="M 407 153.5 C 407 143.2827312 432.5197664 135 464 135 C 495.4802336 135 521 143.2827312 521 153.5 C 521 163.7172688 495.4802336 172 464 172 C 432.5197664 172 407 163.7172688 407 153.5 Z" opacity="0.2"/></g><g transform="translate(-54,-6) scale(1,1)"><path fill="#ffffff" stroke="none" d="M 400 146.5 C 400 136.2827312 425.5197664 128 457 128 C 488.4802336 128 514 136.2827312 514 146.5 C 514 156.7172688 488.4802336 165 457 165 C 425.5197664 165 400 156.7172688 400 146.5 Z"/></g><g transform="translate(-54,-6) scale(1,1)"><path fill="none" stroke="#000000" d="M 400 146.5 C 400 136.2827312 425.5197664 128 457 128 C 488.4802336 128 514 136.2827312 514 146.5 C 514 156.7172688 488.4802336 165 457 165 C 425.5197664 165 400 156.7172688 400 146.5 Z" stroke-miterlimit="10"/></g><g transform="translate(-54,-6) scale(1,1)"><g><path fill="none" stroke="none"/><text fill="#000000" stroke="none" font-family="Roboto" font-size="14px" font-style="normal" font-weight="bold" text-decoration="none" x="423.5244140625" y="154">Đăng nhập</text></g></g><g transform="translate(-54,-6) scale(1,1)"><path fill="none" stroke="#000000" d="M 265 162 L 399 151" stroke-miterlimit="10"/></g><g transform="translate(-54,-6) scale(1,1)"><path fill="none" stroke="#000000" d="M 1119 340 L 993 312" stroke-miterlimit="10"/></g><g transform="translate(-54,-6) scale(1,1)"><path fill="#FFFFFF" stroke="none" d="M 1014.6676886137556 308.1906338929783 L 993 312 L 1011.0149981577224 324.6277409451279"/></g><g transform="translate(-54,-6) scale(1,1)"><path fill="none" stroke="#000000" d="M 1014.6676886137556 308.1906338929783 L 993 312 L 1011.0149981577224 324.6277409451279 L 1014.6676886137556 308.1906338929783" stroke-miterlimit="10"/></g><g transform="translate(-54,-6) scale(1,1)"><path fill="none" stroke="#000000" d="M 1054 1011 L 1170 1063" stroke-miterlimit="10"/></g><g transform="translate(-54,-6) scale(1,1)"><path fill="#FFFFFF" stroke="none" d="M 1148.009072677844 1062.3682441043763 L 1170 1063 L 1154.8967850437732 1047.003347288073"/></g><g transform="translate(-54,-6) scale(1,1)"><path fill="none" stroke="#000000" d="M 1148.009072677844 1062.3682441043763 L 1170 1063 L 1154.8967850437732 1047.003347288073 L 1148.009072677844 1062.3682441043763" stroke-miterlimit="10"/></g><g transform="translate(-54,-6) scale(1,1)"><path fill="none" stroke="#000000" d="M 1041 1094 L 1143 1094" stroke-miterlimit="10"/></g><g transform="translate(-54,-6) scale(1,1)"><path fill="#FFFFFF" stroke="none" d="M 1122.6746502847518 1102.419035512032 L 1143 1094 L 1122.6746502847516 1085.580964487968"/></g><g transform="translate(-54,-6) scale(1,1)"><path fill="none" stroke="#000000" d="M 1122.6746502847518 1102.419035512032 L 1143 1094 L 1122.6746502847516 1085.580964487968 L 1122.6746502847518 1102.419035512032" stroke-miterlimit="10"/></g><g transform="translate(-54,-6) scale(1,1)"><path fill="#C0C0C0" stroke="none" d="M 399 217.5 C 399 207.2827312 465.7095648 199 548 199 C 630.2904352 199 697 207.2827312 697 217.5 C 697 227.7172688 630.2904352 236 548 236 C 465.7095648 236 399 227.7172688 399 217.5 Z" opacity="0.2"/></g><g transform="translate(-54,-6) scale(1,1)"><path fill="#ffffff" stroke="none" d="M 392 210.5 C 392 200.2827312 458.7095648 192 541 192 C 623.2904352 192 690 200.2827312 690 210.5 C 690 220.7172688 623.2904352 229 541 229 C 458.7095648 229 392 220.7172688 392 210.5 Z"/></g><g transform="translate(-54,-6) scale(1,1)"><path fill="none" stroke="#000000" d="M 392 210.5 C 392 200.2827312 458.7095648 192 541 192 C 623.2904352 192 690 200.2827312 690 210.5 C 690 220.7172688 623.2904352 229 541 229 C 458.7095648 229 392 220.7172688 392 210.5 Z" stroke-miterlimit="10"/></g><g transform="translate(-54,-6) scale(1,1)"><g><path fill="none" stroke="none"/><text fill="#000000" stroke="none" font-family="Roboto" font-size="14px" font-style="normal" font-weight="bold" text-decoration="none" x="448.14404296875" y="218">Đăng ký tài khoản khách hàng</text></g></g><g transform="translate(-54,-6) scale(1,1)"><path fill="none" stroke="#000000" d="M 1439 1165 L 1320 1123" stroke-miterlimit="10"/></g><g transform="translate(-54,-6) scale(1,1)"><path fill="none" stroke="#000000" d="M 685 1016 L 814 1143" stroke-miterlimit="10"/></g><g transform="translate(-54,-6) scale(1,1)"><path fill="#FFFFFF" stroke="none" d="M 793.6094988290316 1134.7400083537125 L 814 1143 L 805.4224344558502 1122.7410422445819"/></g><g transform="translate(-54,-6) scale(1,1)"><path fill="none" stroke="#000000" d="M 793.6094988290316 1134.7400083537125 L 814 1143 L 805.4224344558502 1122.7410422445819 L 793.6094988290316 1134.7400083537125" stroke-miterlimit="10"/></g><g transform="translate(-54,-6) scale(1,1)"><path fill="none" stroke="#000000" d="M 697 1174 L 767 1174" stroke-miterlimit="10"/></g><g transform="translate(-54,-6) scale(1,1)"><path fill="#FFFFFF" stroke="none" d="M 746.6746502847517 1182.419035512032 L 767 1174 L 746.6746502847517 1165.580964487968"/></g><g transform="translate(-54,-6) scale(1,1)"><path fill="none" stroke="#000000" d="M 746.6746502847517 1182.419035512032 L 767 1174 L 746.6746502847517 1165.580964487968 L 746.6746502847517 1182.419035512032" stroke-miterlimit="10"/></g><g transform="translate(-54,-6) scale(1,1)"><path fill="none" stroke="#000000" d="M 1439 1183 L 921 1174" stroke-miterlimit="10"/></g><g transform="translate(-54,-6) scale(1,1)"><path fill="none" stroke="#000000" d="M 1439 857 L 1195 713" stroke-miterlimit="10"/></g><g transform="translate(-54,-6) scale(1,1)"><path fill="none" stroke="#000000" d="M 273 854 L 438 755" stroke-miterlimit="10"/></g><g transform="translate(-54,-6) scale(1,1)"><path fill="none" stroke="#000000" d="M 753 308 L 855 301" stroke-miterlimit="10" stroke-dasharray="3"/></g><g transform="translate(-54,-6) scale(1,1)"><path fill="none" stroke="#000000" d="M 845.1493832252731 305.8954416713378 L 855 301 L 844.5729620770146 297.49616208242685" stroke-miterlimit="10"/></g><g transform="translate(-54,-6) scale(1,1)"><g><path fill="none" stroke="none"/><text fill="#000000" stroke="none" font-family="Roboto" font-size="14px" font-style="normal" font-weight="normal" text-decoration="none" x="768.57177734375" y="326.5">«include»</text></g></g><g transform="translate(-54,-6) scale(1,1)"><path fill="#C0C0C0" stroke="none" d="M 1055 857.5 C 1055 847.2827312 1101.5623808 839 1159 839 C 1216.4376192 839 1263 847.2827312 1263 857.5 C 1263 867.7172688 1216.4376192 876 1159 876 C 1101.5623808 876 1055 867.7172688 1055 857.5 Z" opacity="0.2"/></g><g transform="translate(-54,-6) scale(1,1)"><path fill="#ffffff" stroke="none" d="M 1048 850.5 C 1048 840.2827312 1094.5623808 832 1152 832 C 1209.4376192 832 1256 840.2827312 1256 850.5 C 1256 860.7172688 1209.4376192 869 1152 869 C 1094.5623808 869 1048 860.7172688 1048 850.5 Z"/></g><g transform="translate(-54,-6) scale(1,1)"><path fill="none" stroke="#000000" d="M 1048 850.5 C 1048 840.2827312 1094.5623808 832 1152 832 C 1209.4376192 832 1256 840.2827312 1256 850.5 C 1256 860.7172688 1209.4376192 869 1152 869 C 1094.5623808 869 1048 860.7172688 1048 850.5 Z" stroke-miterlimit="10"/></g><g transform="translate(-54,-6) scale(1,1)"><g><path fill="none" stroke="none"/><text fill="#000000" stroke="none" font-family="Roboto" font-size="14px" font-style="normal" font-weight="bold" text-decoration="none" x="1087.86181640625" y="858">Lập phiếu nhập sách</text></g></g><g transform="translate(-54,-6) scale(1,1)"><path fill="none" stroke="#000000" d="M 1152 713 L 1152 831" stroke-miterlimit="10" stroke-dasharray="3"/></g><g transform="translate(-54,-6) scale(1,1)"><path fill="none" stroke="#000000" d="M 1147.7904822439841 820.8373251423759 L 1152 831 L 1156.2095177560159 820.8373251423759" stroke-miterlimit="10"/></g><g transform="translate(-54,-6) scale(1,1)"><g><path fill="none" stroke="none"/><text fill="#000000" stroke="none" font-family="Roboto" font-size="14px" font-style="normal" font-weight="normal" text-decoration="none" x="1163.57177734375" y="782.5">«include»</text></g></g><g transform="translate(-54,-6) scale(1,1)"><path fill="#C0C0C0" stroke="none" d="M 383 841.5 C 383 831.2827312 432.4725296 823 493.5 823 C 554.5274704 823 604 831.2827312 604 841.5 C 604 851.7172688 554.5274704 860 493.5 860 C 432.4725296 860 383 851.7172688 383 841.5 Z" opacity="0.2"/></g><g transform="translate(-54,-6) scale(1,1)"><path fill="#ffffff" stroke="none" d="M 376 834.5 C 376 824.2827312 425.4725296 816 486.5 816 C 547.5274704 816 597 824.2827312 597 834.5 C 597 844.7172688 547.5274704 853 486.5 853 C 425.4725296 853 376 844.7172688 376 834.5 Z"/></g><g transform="translate(-54,-6) scale(1,1)"><path fill="none" stroke="#000000" d="M 376 834.5 C 376 824.2827312 425.4725296 816 486.5 816 C 547.5274704 816 597 824.2827312 597 834.5 C 597 844.7172688 547.5274704 853 486.5 853 C 425.4725296 853 376 844.7172688 376 834.5 Z" stroke-miterlimit="10"/></g><g transform="translate(-54,-6) scale(1,1)"><g><path fill="none" stroke="none"/><text fill="#000000" stroke="none" font-family="Roboto" font-size="14px" font-style="normal" font-weight="bold" text-decoration="none" x="417.96630859375" y="842">Lập hoá đơn bán sách</text></g></g><g transform="translate(-54,-6) scale(1,1)"><path fill="none" stroke="#000000" d="M 487 755 L 486 815" stroke-miterlimit="10" stroke-dasharray="3"/></g><g transform="translate(-54,-6) scale(1,1)"><path fill="none" stroke="#000000" d="M 481.96042117193616 804.7685874439617 L 486 815 L 490.37828761703037 804.9088852180466" stroke-miterlimit="10"/></g><g transform="translate(-54,-6) scale(1,1)"><g><path fill="none" stroke="none"/><text fill="#000000" stroke="none" font-family="Roboto" font-size="14px" font-style="normal" font-weight="normal" text-decoration="none" x="499.57177734375" y="790.5">«include»</text></g></g><g transform="translate(-54,-6) scale(1,1)"><path fill="#C0C0C0" stroke="none" d="M 1167 607 C 1167 593.7451648 1199.2354944 583 1239 583 C 1278.7645056 583 1311 593.7451648 1311 607 C 1311 620.2548352 1278.7645056 631 1239 631 C 1199.2354944 631 1167 620.2548352 1167 607 Z" opacity="0.2"/></g><g transform="translate(-54,-6) scale(1,1)"><path fill="#ffffff" stroke="none" d="M 1160 600 C 1160 586.7451648 1192.2354944 576 1232 576 C 1271.7645056 576 1304 586.7451648 1304 600 C 1304 613.2548352 1271.7645056 624 1232 624 C 1192.2354944 624 1160 613.2548352 1160 600 Z"/></g><g transform="translate(-54,-6) scale(1,1)"><path fill="none" stroke="#000000" d="M 1160 600 C 1160 586.7451648 1192.2354944 576 1232 576 C 1271.7645056 576 1304 586.7451648 1304 600 C 1304 613.2548352 1271.7645056 624 1232 624 C 1192.2354944 624 1160 613.2548352 1160 600 Z" stroke-miterlimit="10"/></g><g transform="translate(-54,-6) scale(1,1)"><g><path fill="none" stroke="none"/><text fill="#000000" stroke="none" font-family="Roboto" font-size="14px" font-style="normal" font-weight="bold" text-decoration="none" x="1190.90234375" y="607.5">Quản trị sách</text></g></g><g transform="translate(-54,-6) scale(1,1)"><path fill="#ffffff" stroke="none" d="M 896 680 L 989 680 L 999 690 L 999 798 L 896 798 L 896 680"/></g><g transform="translate(-54,-6) scale(1,1)"><path fill="none" stroke="#000000" d="M 896 680 L 989 680 L 999 690 L 999 798 L 896 798 L 896 680 L 896 680" stroke-miterlimit="10"/></g><g transform="translate(-54,-6) scale(1,1)"><path fill="none" stroke="#000000" d="M 989 680 L 989 690 L 999 690 L 989 680" stroke-miterlimit="10"/></g><g transform="translate(-54,-6) scale(1,1)"><g><path fill="none" stroke="none"/><text fill="#000000" stroke="none" font-family="Roboto" font-size="14px" font-style="normal" font-weight="normal" text-decoration="none" x="901" y="699">+ Ngày nhập</text></g></g><g transform="translate(-54,-6) scale(1,1)"><g><path fill="none" stroke="none"/><text fill="#000000" stroke="none" font-family="Roboto" font-size="14px" font-style="normal" font-weight="normal" text-decoration="none" x="901" y="715">+ STT</text></g></g><g transform="translate(-54,-6) scale(1,1)"><g><path fill="none" stroke="none"/><text fill="#000000" stroke="none" font-family="Roboto" font-size="14px" font-style="normal" font-weight="normal" text-decoration="none" x="901" y="731">+ Sách</text></g></g><g transform="translate(-54,-6) scale(1,1)"><g><path fill="none" stroke="none"/><text fill="#000000" stroke="none" font-family="Roboto" font-size="14px" font-style="normal" font-weight="normal" text-decoration="none" x="901" y="747">+ Thể loại</text></g></g><g transform="translate(-54,-6) scale(1,1)"><g><path fill="none" stroke="none"/><text fill="#000000" stroke="none" font-family="Roboto" font-size="14px" font-style="normal" font-weight="normal" text-decoration="none" x="901" y="763">+ Tác giả</text></g></g><g transform="translate(-54,-6) scale(1,1)"><g><path fill="none" stroke="none"/><text fill="#000000" stroke="none" font-family="Roboto" font-size="14px" font-style="normal" font-weight="normal" text-decoration="none" x="901" y="779">+ Số lượng</text></g></g><g transform="translate(-54,-6) scale(1,1)"><path fill="none" stroke="#000000" d="M 1117 831 L 1001 768" stroke-miterlimit="10" stroke-dasharray="3"/></g><g transform="translate(-54,-6) scale(1,1)"><path fill="#ffffff" stroke="none" d="M 640 680 L 797 680 L 807 690 L 807 856 L 640 856 L 640 680"/></g><g transform="translate(-54,-6) scale(1,1)"><path fill="none" stroke="#000000" d="M 640 680 L 797 680 L 807 690 L 807 856 L 640 856 L 640 680 L 640 680" stroke-miterlimit="10"/></g><g transform="translate(-54,-6) scale(1,1)"><path fill="none" stroke="#000000" d="M 797 680 L 797 690 L 807 690 L 797 680" stroke-miterlimit="10"/></g><g transform="translate(-54,-6) scale(1,1)"><g><path fill="none" stroke="none"/><text fill="#000000" stroke="none" font-family="Roboto" font-size="14px" font-style="normal" font-weight="normal" text-decoration="none" x="645" y="699">+ Họ tên khách hàng</text></g></g><g transform="translate(-54,-6) scale(1,1)"><g><path fill="none" stroke="none"/><text fill="#000000" stroke="none" font-family="Roboto" font-size="14px" font-style="normal" font-weight="normal" text-decoration="none" x="645" y="715">+ Ngày lập hoá đơn</text></g></g><g transform="translate(-54,-6) scale(1,1)"><g><path fill="none" stroke="none"/><text fill="#000000" stroke="none" font-family="Roboto" font-size="14px" font-style="normal" font-weight="normal" text-decoration="none" x="645" y="731">+ Ngày nhập</text></g></g><g transform="translate(-54,-6) scale(1,1)"><g><path fill="none" stroke="none"/><text fill="#000000" stroke="none" font-family="Roboto" font-size="14px" font-style="normal" font-weight="normal" text-decoration="none" x="645" y="747">+ STT</text></g></g><g transform="translate(-54,-6) scale(1,1)"><g><path fill="none" stroke="none"/><text fill="#000000" stroke="none" font-family="Roboto" font-size="14px" font-style="normal" font-weight="normal" text-decoration="none" x="645" y="763">+ Sách</text></g></g><g transform="translate(-54,-6) scale(1,1)"><g><path fill="none" stroke="none"/><text fill="#000000" stroke="none" font-family="Roboto" font-size="14px" font-style="normal" font-weight="normal" text-decoration="none" x="645" y="779">+ Thể loại</text></g></g><g transform="translate(-54,-6) scale(1,1)"><g><path fill="none" stroke="none"/><text fill="#000000" stroke="none" font-family="Roboto" font-size="14px" font-style="normal" font-weight="normal" text-decoration="none" x="645" y="795">+ Số lượng</text></g></g><g transform="translate(-54,-6) scale(1,1)"><g><path fill="none" stroke="none"/><text fill="#000000" stroke="none" font-family="Roboto" font-size="14px" font-style="normal" font-weight="normal" text-decoration="none" x="645" y="811">+ Đơn giá</text></g></g><g transform="translate(-54,-6) scale(1,1)"><g><path fill="none" stroke="none"/><text fill="#000000" stroke="none" font-family="Roboto" font-size="14px" font-style="normal" font-weight="normal" text-decoration="none" x="645" y="827">+ Nhân viên thanh toán</text></g></g><g transform="translate(-54,-6) scale(1,1)"><path fill="none" stroke="#000000" d="M 555 815 L 639 792" stroke-miterlimit="10" stroke-dasharray="3"/></g><g transform="translate(-54,-6) scale(1,1)"><path fill="#ffffff" stroke="none" d="M 360 904 L 477 904 L 487 914 L 487 1046 L 360 1046 L 360 904"/></g><g transform="translate(-54,-6) scale(1,1)"><path fill="none" stroke="#000000" d="M 360 904 L 477 904 L 487 914 L 487 1046 L 360 1046 L 360 904 L 360 904" stroke-miterlimit="10"/></g><g transform="translate(-54,-6) scale(1,1)"><path fill="none" stroke="#000000" d="M 477 904 L 477 914 L 487 914 L 477 904" stroke-miterlimit="10"/></g><g transform="translate(-54,-6) scale(1,1)"><g><path fill="none" stroke="none"/><text fill="#000000" stroke="none" font-family="Roboto" font-size="14px" font-style="normal" font-weight="normal" text-decoration="none" x="365" y="923">+ Tháng</text></g></g><g transform="translate(-54,-6) scale(1,1)"><g><path fill="none" stroke="none"/><text fill="#000000" stroke="none" font-family="Roboto" font-size="14px" font-style="normal" font-weight="normal" text-decoration="none" x="365" y="939">+ STT</text></g></g><g transform="translate(-54,-6) scale(1,1)"><g><path fill="none" stroke="none"/><text fill="#000000" stroke="none" font-family="Roboto" font-size="14px" font-style="normal" font-weight="normal" text-decoration="none" x="365" y="955">+ Thể loại sách</text></g></g><g transform="translate(-54,-6) scale(1,1)"><g><path fill="none" stroke="none"/><text fill="#000000" stroke="none" font-family="Roboto" font-size="14px" font-style="normal" font-weight="normal" text-decoration="none" x="365" y="971">+ Doanh thu</text></g></g><g transform="translate(-54,-6) scale(1,1)"><g><path fill="none" stroke="none"/><text fill="#000000" stroke="none" font-family="Roboto" font-size="14px" font-style="normal" font-weight="normal" text-decoration="none" x="365" y="987">+ Số lượt thuê</text></g></g><g transform="translate(-54,-6) scale(1,1)"><g><path fill="none" stroke="none"/><text fill="#000000" stroke="none" font-family="Roboto" font-size="14px" font-style="normal" font-weight="normal" text-decoration="none" x="365" y="1003">+ Tỷ lệ</text></g></g><g transform="translate(-54,-6) scale(1,1)"><g><path fill="none" stroke="none"/><text fill="#000000" stroke="none" font-family="Roboto" font-size="14px" font-style="normal" font-weight="normal" text-decoration="none" x="365" y="1019">+ Tổng doanh thu</text></g></g><g transform="translate(-54,-6) scale(1,1)"><path fill="none" stroke="#000000" d="M 567 975 L 489 975" stroke-miterlimit="10" stroke-dasharray="3"/></g><g transform="translate(-54,-6) scale(1,1)"><path fill="#ffffff" stroke="none" d="M 376 1104 L 453 1104 L 463 1114 L 463 1244 L 376 1244 L 376 1104"/></g><g transform="translate(-54,-6) scale(1,1)"><path fill="none" stroke="#000000" d="M 376 1104 L 453 1104 L 463 1114 L 463 1244 L 376 1244 L 376 1104 L 376 1104" stroke-miterlimit="10"/></g><g transform="translate(-54,-6) scale(1,1)"><path fill="none" stroke="#000000" d="M 453 1104 L 453 1114 L 463 1114 L 453 1104" stroke-miterlimit="10"/></g><g transform="translate(-54,-6) scale(1,1)"><g><path fill="none" stroke="none"/><text fill="#000000" stroke="none" font-family="Roboto" font-size="14px" font-style="normal" font-weight="normal" text-decoration="none" x="381" y="1123">+ Tháng</text></g></g><g transform="translate(-54,-6) scale(1,1)"><g><path fill="none" stroke="none"/><text fill="#000000" stroke="none" font-family="Roboto" font-size="14px" font-style="normal" font-weight="normal" text-decoration="none" x="381" y="1139">+ STT</text></g></g><g transform="translate(-54,-6) scale(1,1)"><g><path fill="none" stroke="none"/><text fill="#000000" stroke="none" font-family="Roboto" font-size="14px" font-style="normal" font-weight="normal" text-decoration="none" x="381" y="1155">+ Tên sách</text></g></g><g transform="translate(-54,-6) scale(1,1)"><g><path fill="none" stroke="none"/><text fill="#000000" stroke="none" font-family="Roboto" font-size="14px" font-style="normal" font-weight="normal" text-decoration="none" x="381" y="1171">+ Thể loại</text></g></g><g transform="translate(-54,-6) scale(1,1)"><g><path fill="none" stroke="none"/><text fill="#000000" stroke="none" font-family="Roboto" font-size="14px" font-style="normal" font-weight="normal" text-decoration="none" x="381" y="1187">+ Số lượng</text></g></g><g transform="translate(-54,-6) scale(1,1)"><g><path fill="none" stroke="none"/><text fill="#000000" stroke="none" font-family="Roboto" font-size="14px" font-style="normal" font-weight="normal" text-decoration="none" x="381" y="1203">+ Tỷ lệ</text></g></g><g transform="translate(-54,-6) scale(1,1)"><path fill="none" stroke="#000000" d="M 551 1175 L 465 1174" stroke-miterlimit="10" stroke-dasharray="3"/></g><g transform="translate(-54,-6) scale(1,1)"><path fill="none" stroke="#000000" d="M 1448 839 L 1255 625" stroke-miterlimit="10"/></g><g transform="translate(-54,-6) scale(1,1)"><path fill="#C0C0C0" stroke="none" d="M 1127 286.5 C 1127 264.6847504 1177.1441024 247 1239 247 C 1300.8558976 247 1351 264.6847504 1351 286.5 C 1351 308.3152496 1300.8558976 326 1239 326 C 1177.1441024 326 1127 308.3152496 1127 286.5 Z" opacity="0.2"/></g><g transform="translate(-54,-6) scale(1,1)"><path fill="#ffffff" stroke="none" d="M 1120 279.5 C 1120 257.6847504 1170.1441024 240 1232 240 C 1293.8558976 240 1344 257.6847504 1344 279.5 C 1344 301.3152496 1293.8558976 319 1232 319 C 1170.1441024 319 1120 301.3152496 1120 279.5 Z"/></g><g transform="translate(-54,-6) scale(1,1)"><path fill="none" stroke="#000000" d="M 1120 279.5 C 1120 257.6847504 1170.1441024 240 1232 240 C 1293.8558976 240 1344 257.6847504 1344 279.5 C 1344 301.3152496 1293.8558976 319 1232 319 C 1170.1441024 319 1120 301.3152496 1120 279.5 Z" stroke-miterlimit="10"/></g><g transform="translate(-54,-6) scale(1,1)"><g><path fill="none" stroke="none"/><text fill="#000000" stroke="none" font-family="Roboto" font-size="14px" font-style="normal" font-weight="bold" text-decoration="none" x="1163.7294921875" y="280">Thanh toán trực tuyến</text><text fill="#000000" stroke="none" font-family="Roboto" font-size="14px" font-style="normal" font-weight="bold" text-decoration="none" x="1167.7626953125" y="294">và nhận hàng tại nhà</text></g></g><g transform="translate(-54,-6) scale(1,1)"><path fill="none" stroke="#000000" d="M 1119 286 L 993 293" stroke-miterlimit="10"/></g><g transform="translate(-54,-6) scale(1,1)"><path fill="#FFFFFF" stroke="none" d="M 1012.8270517906552 283.4664792814682 L 993 293 L 1013.7610599207654 300.2786256234529"/></g><g transform="translate(-54,-6) scale(1,1)"><path fill="none" stroke="#000000" d="M 1012.8270517906552 283.4664792814682 L 993 293 L 1013.7610599207654 300.2786256234529 L 1012.8270517906552 283.4664792814682" stroke-miterlimit="10"/></g><g transform="translate(-54,-6) scale(1,1)"><path fill="#C0C0C0" stroke="none" d="M 439 449.5 C 439 439.2827312 462.505048 431 491.5 431 C 520.494952 431 544 439.2827312 544 449.5 C 544 459.7172688 520.494952 468 491.5 468 C 462.505048 468 439 459.7172688 439 449.5 Z" opacity="0.2"/></g><g transform="translate(-54,-6) scale(1,1)"><path fill="#ffffff" stroke="none" d="M 432 442.5 C 432 432.2827312 455.505048 424 484.5 424 C 513.494952 424 537 432.2827312 537 442.5 C 537 452.7172688 513.494952 461 484.5 461 C 455.505048 461 432 452.7172688 432 442.5 Z"/></g><g transform="translate(-54,-6) scale(1,1)"><path fill="none" stroke="#000000" d="M 432 442.5 C 432 432.2827312 455.505048 424 484.5 424 C 513.494952 424 537 432.2827312 537 442.5 C 537 452.7172688 513.494952 461 484.5 461 C 455.505048 461 432 452.7172688 432 442.5 Z" stroke-miterlimit="10"/></g><g transform="translate(-54,-6) scale(1,1)"><g><path fill="none" stroke="none"/><text fill="#000000" stroke="none" font-family="Roboto" font-size="14px" font-style="normal" font-weight="bold" text-decoration="none" x="454.052734375" y="450">Mua sách</text></g></g><g transform="translate(-54,-6) scale(1,1)"><path fill="none" stroke="#000000" d="M 265 483 L 431 452" stroke-miterlimit="10"/></g><g transform="translate(-54,-6) scale(1,1)"><path fill="#C0C0C0" stroke="none" d="M 663 430.5 C 663 408.6847504 691.6537728 391 727 391 C 762.3462272 391 791 408.6847504 791 430.5 C 791 452.3152496 762.3462272 470 727 470 C 691.6537728 470 663 452.3152496 663 430.5 Z" opacity="0.2"/></g><g transform="translate(-54,-6) scale(1,1)"><path fill="#ffffff" stroke="none" d="M 656 423.5 C 656 401.6847504 684.6537728 384 720 384 C 755.3462272 384 784 401.6847504 784 423.5 C 784 445.3152496 755.3462272 463 720 463 C 684.6537728 463 656 445.3152496 656 423.5 Z"/></g><g transform="translate(-54,-6) scale(1,1)"><path fill="none" stroke="#000000" d="M 656 423.5 C 656 401.6847504 684.6537728 384 720 384 C 755.3462272 384 784 401.6847504 784 423.5 C 784 445.3152496 755.3462272 463 720 463 C 684.6537728 463 656 445.3152496 656 423.5 Z" stroke-miterlimit="10"/></g><g transform="translate(-54,-6) scale(1,1)"><g><path fill="none" stroke="none"/><text fill="#000000" stroke="none" font-family="Roboto" font-size="14px" font-style="normal" font-weight="bold" text-decoration="none" x="689.552734375" y="424">Mua sách</text><text fill="#000000" stroke="none" font-family="Roboto" font-size="14px" font-style="normal" font-weight="bold" text-decoration="none" x="682.279296875" y="438">tại nhà sách</text></g></g><g transform="translate(-54,-6) scale(1,1)"><path fill="none" stroke="#000000" d="M 655 428 L 538 438" stroke-miterlimit="10"/></g><g transform="translate(-54,-6) scale(1,1)"><path fill="#FFFFFF" stroke="none" d="M 557.5345525874584 427.8806494670941 L 538 438 L 558.9684759850585 444.6575532190156"/></g><g transform="translate(-54,-6) scale(1,1)"><path fill="none" stroke="#000000" d="M 557.5345525874584 427.8806494670941 L 538 438 L 558.9684759850585 444.6575532190156 L 557.5345525874584 427.8806494670941" stroke-miterlimit="10"/></g><g transform="translate(-54,-6) scale(1,1)"><path fill="none" stroke="#000000" d="M 639 346 L 515 423" stroke-miterlimit="10"/></g><g transform="translate(-54,-6) scale(1,1)"><path fill="#FFFFFF" stroke="none" d="M 527.8257592793035 405.12543989606013 L 515 423 L 536.7084040204842 419.42995870003944"/></g><g transform="translate(-54,-6) scale(1,1)"><path fill="none" stroke="#000000" d="M 527.8257592793035 405.12543989606013 L 515 423 L 536.7084040204842 419.42995870003944 L 527.8257592793035 405.12543989606013" stroke-miterlimit="10"/></g><g transform="translate(-54,-6) scale(1,1)"><path fill="none" stroke="#000000" d="M 877 203 L 903 255" stroke-miterlimit="10" stroke-dasharray="3"/></g><g transform="translate(-54,-6) scale(1,1)"><path fill="none" stroke="#000000" d="M 894.6900064950472 247.79278084503858 L 903 255 L 902.2202207790025 244.02767370306094" stroke-miterlimit="10"/></g><g transform="translate(-54,-6) scale(1,1)"><g><path fill="none" stroke="none"/><text fill="#000000" stroke="none" font-family="Roboto" font-size="14px" font-style="normal" font-weight="normal" text-decoration="none" x="825.4677734375" y="227.5">«extend»</text></g></g><g transform="translate(-54,-6) scale(1,1)"><path fill="#ffffff" stroke="none" d="M 1016 128 L 1317 128 L 1327 138 L 1327 187 L 1016 187 L 1016 128"/></g><g transform="translate(-54,-6) scale(1,1)"><path fill="none" stroke="#000000" d="M 1016 128 L 1317 128 L 1327 138 L 1327 187 L 1016 187 L 1016 128 L 1016 128" stroke-miterlimit="10"/></g><g transform="translate(-54,-6) scale(1,1)"><path fill="none" stroke="#000000" d="M 1317 128 L 1317 138 L 1327 138 L 1317 128" stroke-miterlimit="10"/></g><g transform="translate(-54,-6) scale(1,1)"><g><path fill="none" stroke="none"/><text fill="#000000" stroke="none" font-family="Roboto" font-size="14px" font-style="normal" font-weight="normal" text-decoration="none" x="1021" y="147">Điều kiện: {Khách hàng nhấn [Huỷ đơn hàng]}</text></g></g><g transform="translate(-54,-6) scale(1,1)"><g><path fill="none" stroke="none"/><text fill="#000000" stroke="none" font-family="Roboto" font-size="14px" font-style="normal" font-weight="normal" text-decoration="none" x="1021" y="163">Điểm mở rộng: Huỷ đơn hàng</text></g></g><g transform="translate(-54,-6) scale(1,1)"><path fill="none" stroke="#000000" d="M 890 229 L 1049 189" stroke-miterlimit="10" stroke-dasharray="3"/></g><g transform="translate(-54,-6) scale(1,1)"><path fill="none" stroke="#000000" d="M 785 416 L 1119 380" stroke-miterlimit="10" stroke-dasharray="3"/></g><g transform="translate(-54,-6) scale(1,1)"><path fill="none" stroke="#000000" d="M 1109.3469557458652 385.2743470333033 L 1119 380 L 1108.4447403952277 376.9037935023873" stroke-miterlimit="10"/></g><g transform="translate(-54,-6) scale(1,1)"><g><path fill="none" stroke="none"/><text fill="#000000" stroke="none" font-family="Roboto" font-size="14px" font-style="normal" font-weight="normal" text-decoration="none" x="901.57177734375" y="421.5">«include»</text></g></g><g transform="translate(-54,-6) scale(1,1)"><path fill="#C0C0C0" stroke="none" d="M 1255 465.5 C 1255 455.2827312 1277.6096176 447 1305.5 447 C 1333.3903824 447 1356 455.2827312 1356 465.5 C 1356 475.7172688 1333.3903824 484 1305.5 484 C 1277.6096176 484 1255 475.7172688 1255 465.5 Z" opacity="0.2"/></g><g transform="translate(-54,-6) scale(1,1)"><path fill="#ffffff" stroke="none" d="M 1248 458.5 C 1248 448.2827312 1270.6096176 440 1298.5 440 C 1326.3903824 440 1349 448.2827312 1349 458.5 C 1349 468.7172688 1326.3903824 477 1298.5 477 C 1270.6096176 477 1248 468.7172688 1248 458.5 Z"/></g><g transform="translate(-54,-6) scale(1,1)"><path fill="none" stroke="#000000" d="M 1248 458.5 C 1248 448.2827312 1270.6096176 440 1298.5 440 C 1326.3903824 440 1349 448.2827312 1349 458.5 C 1349 468.7172688 1326.3903824 477 1298.5 477 C 1270.6096176 477 1248 468.7172688 1248 458.5 Z" stroke-miterlimit="10"/></g><g transform="translate(-54,-6) scale(1,1)"><g><path fill="none" stroke="none"/><text fill="#000000" stroke="none" font-family="Roboto" font-size="14px" font-style="normal" font-weight="bold" text-decoration="none" x="1269.7138671875" y="466">Xoá sách</text></g></g><g transform="translate(-54,-6) scale(1,1)"><path fill="#C0C0C0" stroke="none" d="M 1071 473.5 C 1071 463.2827312 1104.1309248 455 1145 455 C 1185.8690752 455 1219 463.2827312 1219 473.5 C 1219 483.7172688 1185.8690752 492 1145 492 C 1104.1309248 492 1071 483.7172688 1071 473.5 Z" opacity="0.2"/></g><g transform="translate(-54,-6) scale(1,1)"><path fill="#ffffff" stroke="none" d="M 1064 466.5 C 1064 456.2827312 1097.1309248 448 1138 448 C 1178.8690752 448 1212 456.2827312 1212 466.5 C 1212 476.7172688 1178.8690752 485 1138 485 C 1097.1309248 485 1064 476.7172688 1064 466.5 Z"/></g><g transform="translate(-54,-6) scale(1,1)"><path fill="none" stroke="#000000" d="M 1064 466.5 C 1064 456.2827312 1097.1309248 448 1138 448 C 1178.8690752 448 1212 456.2827312 1212 466.5 C 1212 476.7172688 1178.8690752 485 1138 485 C 1097.1309248 485 1064 476.7172688 1064 466.5 Z" stroke-miterlimit="10"/></g><g transform="translate(-54,-6) scale(1,1)"><g><path fill="none" stroke="none"/><text fill="#000000" stroke="none" font-family="Roboto" font-size="14px" font-style="normal" font-weight="bold" text-decoration="none" x="1093.49462890625" y="474">Cập nhật sách</text></g></g><g transform="translate(-54,-6) scale(1,1)"><path fill="#C0C0C0" stroke="none" d="M 959 553.5 C 959 543.2827312 985.4151968 535 1018 535 C 1050.5848032 535 1077 543.2827312 1077 553.5 C 1077 563.7172688 1050.5848032 572 1018 572 C 985.4151968 572 959 563.7172688 959 553.5 Z" opacity="0.2"/></g><g transform="translate(-54,-6) scale(1,1)"><path fill="#ffffff" stroke="none" d="M 952 546.5 C 952 536.2827312 978.4151968 528 1011 528 C 1043.5848032 528 1070 536.2827312 1070 546.5 C 1070 556.7172688 1043.5848032 565 1011 565 C 978.4151968 565 952 556.7172688 952 546.5 Z"/></g><g transform="translate(-54,-6) scale(1,1)"><path fill="none" stroke="#000000" d="M 952 546.5 C 952 536.2827312 978.4151968 528 1011 528 C 1043.5848032 528 1070 536.2827312 1070 546.5 C 1070 556.7172688 1043.5848032 565 1011 565 C 978.4151968 565 952 556.7172688 952 546.5 Z" stroke-miterlimit="10"/></g><g transform="translate(-54,-6) scale(1,1)"><g><path fill="none" stroke="none"/><text fill="#000000" stroke="none" font-family="Roboto" font-size="14px" font-style="normal" font-weight="bold" text-decoration="none" x="976.45458984375" y="554">Thêm sách</text></g></g><g transform="translate(-54,-6) scale(1,1)"><path fill="none" stroke="#000000" d="M 1289 478 L 1244 575" stroke-miterlimit="10"/></g><g transform="translate(-54,-6) scale(1,1)"><path fill="#FFFFFF" stroke="none" d="M 1244.9164350436815 553.0190958600263 L 1244 575 L 1260.190863807891 560.1051710599173"/></g><g transform="translate(-54,-6) scale(1,1)"><path fill="none" stroke="#000000" d="M 1244.9164350436815 553.0190958600263 L 1244 575 L 1260.190863807891 560.1051710599173 L 1244.9164350436815 553.0190958600263" stroke-miterlimit="10"/></g><g transform="translate(-54,-6) scale(1,1)"><path fill="none" stroke="#000000" d="M 1071 561 L 1159 582" stroke-miterlimit="10"/></g><g transform="translate(-54,-6) scale(1,1)"><path fill="#FFFFFF" stroke="none" d="M 1137.2755718215737 585.4711986863904 L 1159 582 L 1141.1840013876422 569.0930176476271"/></g><g transform="translate(-54,-6) scale(1,1)"><path fill="none" stroke="#000000" d="M 1137.2755718215737 585.4711986863904 L 1159 582 L 1141.1840013876422 569.0930176476271 L 1137.2755718215737 585.4711986863904" stroke-miterlimit="10"/></g><g transform="translate(-54,-6) scale(1,1)"><path fill="none" stroke="#000000" d="M 1152 486 L 1214 575" stroke-miterlimit="10"/></g><g transform="translate(-54,-6) scale(1,1)"><path fill="#FFFFFF" stroke="none" d="M 1195.473871900976 563.1348165771212 L 1214 575 L 1209.2900008503893 553.5100975337098"/></g><g transform="translate(-54,-6) scale(1,1)"><path fill="none" stroke="#000000" d="M 1195.473871900976 563.1348165771212 L 1214 575 L 1209.2900008503893 553.5100975337098 L 1195.473871900976 563.1348165771212" stroke-miterlimit="10"/></g><g transform="translate(-54,-6) scale(1,1)"><path fill="none" stroke="#000000" d="M 265 175 L 392 191" stroke-miterlimit="10"/></g><g transform="translate(-54,-6) scale(1,1)"><path fill="#C0C0C0" stroke="none" d="M 783 897.5 C 783 887.2827312 812.3253456 879 848.5 879 C 884.6746544 879 914 887.2827312 914 897.5 C 914 907.7172688 884.6746544 916 848.5 916 C 812.3253456 916 783 907.7172688 783 897.5 Z" opacity="0.2"/></g><g transform="translate(-54,-6) scale(1,1)"><path fill="#ffffff" stroke="none" d="M 776 890.5 C 776 880.2827312 805.3253456 872 841.5 872 C 877.6746544 872 907 880.2827312 907 890.5 C 907 900.7172688 877.6746544 909 841.5 909 C 805.3253456 909 776 900.7172688 776 890.5 Z"/></g><g transform="translate(-54,-6) scale(1,1)"><path fill="none" stroke="#000000" d="M 776 890.5 C 776 880.2827312 805.3253456 872 841.5 872 C 877.6746544 872 907 880.2827312 907 890.5 C 907 900.7172688 877.6746544 909 841.5 909 C 805.3253456 909 776 900.7172688 776 890.5 Z" stroke-miterlimit="10"/></g><g transform="translate(-54,-6) scale(1,1)"><g><path fill="none" stroke="none"/><text fill="#000000" stroke="none" font-family="Roboto" font-size="14px" font-style="normal" font-weight="bold" text-decoration="none" x="802.69580078125" y="898">Viết báo cáo</text></g></g><g transform="translate(-54,-6) scale(1,1)"><path fill="none" stroke="#000000" d="M 273 886 L 775 890" stroke-miterlimit="10"/></g><g transform="translate(-54,-6) scale(1,1)"><path fill="none" stroke="#000000" d="M 1439 888 L 908 890" stroke-miterlimit="10"/></g><g transform="translate(-54,-6) scale(1,1)"><path fill="none" stroke="#000000" d="M 844 1143 L 841 910" stroke-miterlimit="10" stroke-dasharray="3"/></g><g transform="translate(-54,-6) scale(1,1)"><path fill="none" stroke="#000000" d="M 845.3400079197544 920.1076372736891 L 841 910 L 836.9216701724622 920.2160278884611" stroke-miterlimit="10"/></g><g transform="translate(-54,-6) scale(1,1)"><g><path fill="none" stroke="none"/><text fill="#000000" stroke="none" font-family="Roboto" font-size="14px" font-style="normal" font-weight="normal" text-decoration="none" x="770.57177734375" y="1031.5">«include»</text></g></g><g transform="translate(-54,-6) scale(1,1)"><path fill="#C0C0C0" stroke="none" d="M 439 289.5 C 439 279.2827312 463.4004784 271 493.5 271 C 523.5995216 271 548 279.2827312 548 289.5 C 548 299.7172688 523.5995216 308 493.5 308 C 463.4004784 308 439 299.7172688 439 289.5 Z" opacity="0.2"/></g><g transform="translate(-54,-6) scale(1,1)"><path fill="#ffffff" stroke="none" d="M 432 282.5 C 432 272.2827312 456.4004784 264 486.5 264 C 516.5995216 264 541 272.2827312 541 282.5 C 541 292.7172688 516.5995216 301 486.5 301 C 456.4004784 301 432 292.7172688 432 282.5 Z"/></g><g transform="translate(-54,-6) scale(1,1)"><path fill="none" stroke="#000000" d="M 432 282.5 C 432 272.2827312 456.4004784 264 486.5 264 C 516.5995216 264 541 272.2827312 541 282.5 C 541 292.7172688 516.5995216 301 486.5 301 C 456.4004784 301 432 292.7172688 432 282.5 Z" stroke-miterlimit="10"/></g><g transform="translate(-54,-6) scale(1,1)"><g><path fill="none" stroke="none"/><text fill="#000000" stroke="none" font-family="Roboto" font-size="14px" font-style="normal" font-weight="bold" text-decoration="none" x="455.0546875" y="290">Đăng xuất</text></g></g><g transform="translate(-54,-6) scale(1,1)"><path fill="#ffffff" stroke="none" d="M 206.35636363636362 282.7 C 206.35636363636362 277.34283744 210.67396621963636 273 216 273 C 221.32603378036364 273 225.64363636363638 277.34283744 225.64363636363638 282.7 C 225.64363636363638 288.05716256 221.32603378036364 292.4 216 292.4 C 210.67396621963636 292.4 206.35636363636362 288.05716256 206.35636363636362 282.7 Z"/></g><g transform="translate(-54,-6) scale(1,1)"><path fill="none" stroke="#000000" d="M 206.35636363636362 282.7 C 206.35636363636362 277.34283744 210.67396621963636 273 216 273 C 221.32603378036364 273 225.64363636363638 277.34283744 225.64363636363638 282.7 C 225.64363636363638 288.05716256 221.32603378036364 292.4 216 292.4 C 210.67396621963636 292.4 206.35636363636362 288.05716256 206.35636363636362 282.7 Z" stroke-miterlimit="10"/></g><g transform="translate(-54,-6) scale(1,1)"><path fill="none" stroke="#000000" d="M 216 292.4 L 216 311.6" stroke-miterlimit="10"/></g><g transform="translate(-54,-6) scale(1,1)"><path fill="none" stroke="#000000" d="M 205.7890909090909 299.6 L 226.2109090909091 299.6" stroke-miterlimit="10"/></g><g transform="translate(-54,-6) scale(1,1)"><path fill="none" stroke="#000000" d="M 216 311.6 L 201.8181818181818 331" stroke-miterlimit="10"/></g><g transform="translate(-54,-6) scale(1,1)"><path fill="none" stroke="#000000" d="M 216 311.6 L 230.1818181818182 331" stroke-miterlimit="10"/></g><g transform="translate(-54,-6) scale(1,1)"><g><path fill="none" stroke="none"/><text fill="#000000" stroke="none" font-family="Roboto" font-size="14px" font-style="normal" font-weight="bold" text-decoration="none" x="179.72509765625" y="352.5">Người dùng</text><text fill="#000000" stroke="none" font-family="Roboto" font-size="14px" font-style="normal" font-weight="bold" text-decoration="none" x="179.5986328125" y="366.5">đã xác thực</text></g></g><g transform="translate(-54,-6) scale(1,1)"><path fill="none" stroke="#000000" d="M 265 315 L 431 290" stroke-miterlimit="10"/></g><g transform="translate(-54,-6) scale(1,1)"><path fill="none" stroke="#000000" d="M 265 327 L 431 342" stroke-miterlimit="10"/></g><g transform="translate(-54,-6) scale(1,1)"><path fill="none" stroke="#000000" d="M 216 439 L 216 373" stroke-miterlimit="10"/></g><g transform="translate(-54,-6) scale(1,1)"><path fill="#FFFFFF" stroke="none" d="M 224.41903551203197 393.3253497152483 L 216 373 L 207.58096448796803 393.3253497152483"/></g><g transform="translate(-54,-6) scale(1,1)"><path fill="none" stroke="#000000" d="M 224.41903551203197 393.3253497152483 L 216 373 L 207.58096448796803 393.3253497152483 L 224.41903551203197 393.3253497152483" stroke-miterlimit="10"/></g><g transform="translate(-54,-6) scale(1,1)"><path fill="none" stroke="#000000" d="M 167 882 L 136 880 L 136 408 L 169 373" stroke-miterlimit="10"/></g><g transform="translate(-54,-6) scale(1,1)"><path fill="#FFFFFF" stroke="none" d="M 161.18214958358766 393.56407583302985 L 169 373 L 148.93094748588297 382.01294242662254"/></g><g transform="translate(-54,-6) scale(1,1)"><path fill="none" stroke="#000000" d="M 161.18214958358766 393.56407583302985 L 169 373 L 148.93094748588297 382.01294242662254 L 161.18214958358766 393.56407583302985" stroke-miterlimit="10"/></g><g transform="translate(-54,-6) scale(1,1)"><path fill="none" stroke="#000000" d="M 1492 839 L 1488 16 L 64 16 L 64 264 L 167 303" stroke-miterlimit="10"/></g><g transform="translate(-54,-6) scale(1,1)"><path fill="#FFFFFF" stroke="none" d="M 145.0103938245034 303.67618063160785 L 167 303 L 150.97286844776787 287.9291322676017"/></g><g transform="translate(-54,-6) scale(1,1)"><path fill="none" stroke="#000000" d="M 145.0103938245034 303.67618063160785 L 167 303 L 150.97286844776787 287.9291322676017 L 145.0103938245034 303.67618063160785" stroke-miterlimit="10"/></g><g transform="translate(-54,-6) scale(1,1)"><path fill="none" stroke="#000000" d="M 1490 1233 L 1488 1312 L 64 1312 L 64 376 L 167 339" stroke-miterlimit="10"/></g><g transform="translate(-54,-6) scale(1,1)"><path fill="#FFFFFF" stroke="none" d="M 150.71764648049606 353.79476136562863 L 167 339 L 145.02516132500935 337.94811350035485"/></g><g transform="translate(-54,-6) scale(1,1)"><path fill="none" stroke="#000000" d="M 150.71764648049606 353.79476136562863 L 167 339 L 145.02516132500935 337.94811350035485 L 150.71764648049606 353.79476136562863" stroke-miterlimit="10"/></g><g transform="translate(-54,-6) scale(1,1)"><path fill="#C0C0C0" stroke="none" d="M 1135 961.5 C 1135 951.2827312 1188.2781088 943 1254 943 C 1319.7218912 943 1373 951.2827312 1373 961.5 C 1373 971.7172688 1319.7218912 980 1254 980 C 1188.2781088 980 1135 971.7172688 1135 961.5 Z" opacity="0.2"/></g><g transform="translate(-54,-6) scale(1,1)"><path fill="#ffffff" stroke="none" d="M 1128 954.5 C 1128 944.2827312 1181.2781088 936 1247 936 C 1312.7218912 936 1366 944.2827312 1366 954.5 C 1366 964.7172688 1312.7218912 973 1247 973 C 1181.2781088 973 1128 964.7172688 1128 954.5 Z"/></g><g transform="translate(-54,-6) scale(1,1)"><path fill="none" stroke="#000000" d="M 1128 954.5 C 1128 944.2827312 1181.2781088 936 1247 936 C 1312.7218912 936 1366 944.2827312 1366 954.5 C 1366 964.7172688 1312.7218912 973 1247 973 C 1181.2781088 973 1128 964.7172688 1128 954.5 Z" stroke-miterlimit="10"/></g><g transform="translate(-54,-6) scale(1,1)"><g><path fill="none" stroke="none"/><text fill="#000000" stroke="none" font-family="Roboto" font-size="14px" font-style="normal" font-weight="bold" text-decoration="none" x="1173.57177734375" y="962">Tạo tài khoản nhân viên</text></g></g><g transform="translate(-54,-6) scale(1,1)"><path fill="none" stroke="#000000" d="M 1440 1135 L 1268 974" stroke-miterlimit="10"/></g><g transform="translate(-54,-6) scale(1,1)"><path fill="#C0C0C0" stroke="none" d="M 399 602 C 399 591.5065888 440.6375136 583 492 583 C 543.3624864 583 585 591.5065888 585 602 C 585 612.4934112 543.3624864 621 492 621 C 440.6375136 621 399 612.4934112 399 602 Z" opacity="0.2"/></g><g transform="translate(-54,-6) scale(1,1)"><path fill="#ffffff" stroke="none" d="M 392 595 C 392 584.5065888 433.6375136 576 485 576 C 536.3624864 576 578 584.5065888 578 595 C 578 605.4934112 536.3624864 614 485 614 C 433.6375136 614 392 605.4934112 392 595 Z"/></g><g transform="translate(-54,-6) scale(1,1)"><path fill="none" stroke="#000000" d="M 392 595 C 392 584.5065888 433.6375136 576 485 576 C 536.3624864 576 578 584.5065888 578 595 C 578 605.4934112 536.3624864 614 485 614 C 433.6375136 614 392 605.4934112 392 595 Z" stroke-miterlimit="10"/></g><g transform="translate(-54,-6) scale(1,1)"><g><path fill="none" stroke="none"/><text fill="#000000" stroke="none" font-family="Roboto" font-size="14px" font-style="normal" font-weight="bold" text-decoration="none" x="432.21630859375" y="602.5">Tra cứu thông tin</text></g></g><g transform="translate(-54,-6) scale(1,1)"><path fill="none" stroke="#000000" d="M 263 839 L 467 615" stroke-miterlimit="10"/></g><g transform="translate(-54,-6) scale(1,1)"><path fill="#C0C0C0" stroke="none" d="M 695 501.5 C 695 484.6553136 741.5623808 471 799 471 C 856.4376192 471 903 484.6553136 903 501.5 C 903 518.3446864 856.4376192 532 799 532 C 741.5623808 532 695 518.3446864 695 501.5 Z" opacity="0.2"/></g><g transform="translate(-54,-6) scale(1,1)"><path fill="#ffffff" stroke="none" d="M 688 494.5 C 688 477.6553136 734.5623808 464 792 464 C 849.4376192 464 896 477.6553136 896 494.5 C 896 511.3446864 849.4376192 525 792 525 C 734.5623808 525 688 511.3446864 688 494.5 Z"/></g><g transform="translate(-54,-6) scale(1,1)"><path fill="none" stroke="#000000" d="M 688 494.5 C 688 477.6553136 734.5623808 464 792 464 C 849.4376192 464 896 477.6553136 896 494.5 C 896 511.3446864 849.4376192 525 792 525 C 734.5623808 525 688 511.3446864 688 494.5 Z" stroke-miterlimit="10"/></g><g transform="translate(-54,-6) scale(1,1)"><g><path fill="none" stroke="none"/><text fill="#000000" stroke="none" font-family="Roboto" font-size="14px" font-style="normal" font-weight="bold" text-decoration="none" x="739.21630859375" y="495">Tra cứu thông tin</text><text fill="#000000" stroke="none" font-family="Roboto" font-size="14px" font-style="normal" font-weight="bold" text-decoration="none" x="756.083984375" y="509">khách hàng</text></g></g><g transform="translate(-54,-6) scale(1,1)"><path fill="#C0C0C0" stroke="none" d="M 711 597.5 C 711 580.6553136 753.9806592 567 807 567 C 860.0193408 567 903 580.6553136 903 597.5 C 903 614.3446864 860.0193408 628 807 628 C 753.9806592 628 711 614.3446864 711 597.5 Z" opacity="0.2"/></g><g transform="translate(-54,-6) scale(1,1)"><path fill="#ffffff" stroke="none" d="M 704 590.5 C 704 573.6553136 746.9806592 560 800 560 C 853.0193408 560 896 573.6553136 896 590.5 C 896 607.3446864 853.0193408 621 800 621 C 746.9806592 621 704 607.3446864 704 590.5 Z"/></g><g transform="translate(-54,-6) scale(1,1)"><path fill="none" stroke="#000000" d="M 704 590.5 C 704 573.6553136 746.9806592 560 800 560 C 853.0193408 560 896 573.6553136 896 590.5 C 896 607.3446864 853.0193408 621 800 621 C 746.9806592 621 704 607.3446864 704 590.5 Z" stroke-miterlimit="10"/></g><g transform="translate(-54,-6) scale(1,1)"><g><path fill="none" stroke="none"/><text fill="#000000" stroke="none" font-family="Roboto" font-size="14px" font-style="normal" font-weight="bold" text-decoration="none" x="747.21630859375" y="591">Tra cứu thông tin</text><text fill="#000000" stroke="none" font-family="Roboto" font-size="14px" font-style="normal" font-weight="bold" text-decoration="none" x="770.90283203125" y="605">đơn hàng</text></g></g><g transform="translate(-54,-6) scale(1,1)"><path fill="none" stroke="#000000" d="M 546 575 L 695 526" stroke-miterlimit="10"/></g><g transform="translate(-54,-6) scale(1,1)"><path fill="none" stroke="#000000" d="M 579 594 L 703 592" stroke-miterlimit="10"/></g></g></svg>