<svg version="1.1" xmlns="http://www.w3.org/2000/svg" xmlns:xlink="http://www.w3.org/1999/xlink" width="1540" height="1333"><defs/><g><g transform="translate(-14,-22) scale(1,1)"><rect fill="#C0C0C0" stroke="none" x="335" y="79" width="1064" height="1208" opacity="0.2"/></g><g transform="translate(-14,-22) scale(1,1)"><rect fill="#ffffff" stroke="none" x="328" y="72" width="1064" height="1208"/></g><g transform="translate(-14,-22) scale(1,1)"><path fill="none" stroke="#000000" d="M 328 72 L 1392 72 L 1392 1280 L 328 1280 L 328 72 Z Z" stroke-miterlimit="10"/></g><g transform="translate(-14,-22) scale(1,1)"><g><path fill="none" stroke="none"/><text fill="#000000" stroke="none" font-family="Arial" font-size="13px" font-style="normal" font-weight="bold" text-decoration="none" x="780.00048828125" y="91.5">Ứng dụng quản lý nhà sách</text></g></g><g transform="translate(-14,-22) scale(1,1)"><path fill="#ffffff" stroke="none" d="M 209.2312727272727 339.89 C 209.2312727272727 333.875618528 214.05259561192727 329 220 329 C 225.94740438807273 329 230.7687272727273 333.875618528 230.7687272727273 339.89 C 230.7687272727273 345.90438147199995 225.94740438807273 350.78 220 350.78 C 214.05259561192727 350.78 209.2312727272727 345.90438147199995 209.2312727272727 339.89 Z"/></g><g transform="translate(-14,-22) scale(1,1)"><path fill="none" stroke="#000000" d="M 209.2312727272727 339.89 C 209.2312727272727 333.875618528 214.05259561192727 329 220 329 C 225.94740438807273 329 230.7687272727273 333.875618528 230.7687272727273 339.89 C 230.7687272727273 345.90438147199995 225.94740438807273 350.78 220 350.78 C 214.05259561192727 350.78 209.2312727272727 345.90438147199995 209.2312727272727 339.89 Z" stroke-miterlimit="10"/></g><g transform="translate(-14,-22) scale(1,1)"><path fill="none" stroke="#000000" d="M 220 350.78 L 220 372.22" stroke-miterlimit="10"/></g><g transform="translate(-14,-22) scale(1,1)"><path fill="none" stroke="#000000" d="M 208.59781818181818 358.82 L 231.40218181818182 358.82" stroke-miterlimit="10"/></g><g transform="translate(-14,-22) scale(1,1)"><path fill="none" stroke="#000000" d="M 220 372.22 L 204.16363636363636 394" stroke-miterlimit="10"/></g><g transform="translate(-14,-22) scale(1,1)"><path fill="none" stroke="#000000" d="M 220 372.22 L 235.83636363636364 394" stroke-miterlimit="10"/></g><g transform="translate(-14,-22) scale(1,1)"><g><path fill="none" stroke="none"/><text fill="#000000" stroke="none" font-family="Arial" font-size="13px" font-style="normal" font-weight="bold" text-decoration="none" x="185.3037109375" y="414.5">Khách hàng</text></g></g><g transform="translate(-14,-22) scale(1,1)"><path fill="#ffffff" stroke="none" d="M 209.2312727272727 555.89 C 209.2312727272727 549.875618528 214.05259561192727 545 220 545 C 225.94740438807273 545 230.7687272727273 549.875618528 230.7687272727273 555.89 C 230.7687272727273 561.904381472 225.94740438807273 566.78 220 566.78 C 214.05259561192727 566.78 209.2312727272727 561.904381472 209.2312727272727 555.89 Z"/></g><g transform="translate(-14,-22) scale(1,1)"><path fill="none" stroke="#000000" d="M 209.2312727272727 555.89 C 209.2312727272727 549.875618528 214.05259561192727 545 220 545 C 225.94740438807273 545 230.7687272727273 549.875618528 230.7687272727273 555.89 C 230.7687272727273 561.904381472 225.94740438807273 566.78 220 566.78 C 214.05259561192727 566.78 209.2312727272727 561.904381472 209.2312727272727 555.89 Z" stroke-miterlimit="10"/></g><g transform="translate(-14,-22) scale(1,1)"><path fill="none" stroke="#000000" d="M 220 566.78 L 220 588.22" stroke-miterlimit="10"/></g><g transform="translate(-14,-22) scale(1,1)"><path fill="none" stroke="#000000" d="M 208.59781818181818 574.82 L 231.40218181818182 574.82" stroke-miterlimit="10"/></g><g transform="translate(-14,-22) scale(1,1)"><path fill="none" stroke="#000000" d="M 220 588.22 L 204.16363636363636 610" stroke-miterlimit="10"/></g><g transform="translate(-14,-22) scale(1,1)"><path fill="none" stroke="#000000" d="M 220 588.22 L 235.83636363636364 610" stroke-miterlimit="10"/></g><g transform="translate(-14,-22) scale(1,1)"><g><path fill="none" stroke="none"/><text fill="#000000" stroke="none" font-family="Arial" font-size="13px" font-style="normal" font-weight="bold" text-decoration="none" x="190.73095703125" y="630.5">Nhân viên</text></g></g><g transform="translate(-14,-22) scale(1,1)"><path fill="#ffffff" stroke="none" d="M 1481.2312727272727 531.89 C 1481.2312727272727 525.875618528 1486.0525956119272 521 1492 521 C 1497.9474043880728 521 1502.7687272727273 525.875618528 1502.7687272727273 531.89 C 1502.7687272727273 537.904381472 1497.9474043880728 542.78 1492 542.78 C 1486.0525956119272 542.78 1481.2312727272727 537.904381472 1481.2312727272727 531.89 Z"/></g><g transform="translate(-14,-22) scale(1,1)"><path fill="none" stroke="#000000" d="M 1481.2312727272727 531.89 C 1481.2312727272727 525.875618528 1486.0525956119272 521 1492 521 C 1497.9474043880728 521 1502.7687272727273 525.875618528 1502.7687272727273 531.89 C 1502.7687272727273 537.904381472 1497.9474043880728 542.78 1492 542.78 C 1486.0525956119272 542.78 1481.2312727272727 537.904381472 1481.2312727272727 531.89 Z" stroke-miterlimit="10"/></g><g transform="translate(-14,-22) scale(1,1)"><path fill="none" stroke="#000000" d="M 1492 542.78 L 1492 564.22" stroke-miterlimit="10"/></g><g transform="translate(-14,-22) scale(1,1)"><path fill="none" stroke="#000000" d="M 1480.5978181818182 550.82 L 1503.4021818181818 550.82" stroke-miterlimit="10"/></g><g transform="translate(-14,-22) scale(1,1)"><path fill="none" stroke="#000000" d="M 1492 564.22 L 1476.1636363636362 586" stroke-miterlimit="10"/></g><g transform="translate(-14,-22) scale(1,1)"><path fill="none" stroke="#000000" d="M 1492 564.22 L 1507.8363636363638 586" stroke-miterlimit="10"/></g><g transform="translate(-14,-22) scale(1,1)"><g><path fill="none" stroke="none"/><text fill="#000000" stroke="none" font-family="Arial" font-size="13px" font-style="normal" font-weight="bold" text-decoration="none" x="1457.313232421875" y="606.5">Quản lý kho</text></g></g><g transform="translate(-14,-22) scale(1,1)"><path fill="#ffffff" stroke="none" d="M 1481.2312727272727 971.89 C 1481.2312727272727 965.875618528 1486.0525956119272 961 1492 961 C 1497.9474043880728 961 1502.7687272727273 965.875618528 1502.7687272727273 971.89 C 1502.7687272727273 977.904381472 1497.9474043880728 982.78 1492 982.78 C 1486.0525956119272 982.78 1481.2312727272727 977.904381472 1481.2312727272727 971.89 Z"/></g><g transform="translate(-14,-22) scale(1,1)"><path fill="none" stroke="#000000" d="M 1481.2312727272727 971.89 C 1481.2312727272727 965.875618528 1486.0525956119272 961 1492 961 C 1497.9474043880728 961 1502.7687272727273 965.875618528 1502.7687272727273 971.89 C 1502.7687272727273 977.904381472 1497.9474043880728 982.78 1492 982.78 C 1486.0525956119272 982.78 1481.2312727272727 977.904381472 1481.2312727272727 971.89 Z" stroke-miterlimit="10"/></g><g transform="translate(-14,-22) scale(1,1)"><path fill="none" stroke="#000000" d="M 1492 982.78 L 1492 1004.22" stroke-miterlimit="10"/></g><g transform="translate(-14,-22) scale(1,1)"><path fill="none" stroke="#000000" d="M 1480.5978181818182 990.82 L 1503.4021818181818 990.82" stroke-miterlimit="10"/></g><g transform="translate(-14,-22) scale(1,1)"><path fill="none" stroke="#000000" d="M 1492 1004.22 L 1476.1636363636362 1026" stroke-miterlimit="10"/></g><g transform="translate(-14,-22) scale(1,1)"><path fill="none" stroke="#000000" d="M 1492 1004.22 L 1507.8363636363638 1026" stroke-miterlimit="10"/></g><g transform="translate(-14,-22) scale(1,1)"><g><path fill="none" stroke="none"/><text fill="#000000" stroke="none" font-family="Arial" font-size="13px" font-style="normal" font-weight="bold" text-decoration="none" x="1450.146728515625" y="1046.5">Người quản trị</text></g></g><g transform="translate(-14,-22) scale(1,1)"><path fill="#C0C0C0" stroke="none" d="M 1151 393 C 1151 378.6405952 1195.77152 367 1251 367 C 1306.22848 367 1351 378.6405952 1351 393 C 1351 407.3594048 1306.22848 419 1251 419 C 1195.77152 419 1151 407.3594048 1151 393 Z" opacity="0.2"/></g><g transform="translate(-14,-22) scale(1,1)"><path fill="#ffffff" stroke="none" d="M 1144 386 C 1144 371.6405952 1188.77152 360 1244 360 C 1299.22848 360 1344 371.6405952 1344 386 C 1344 400.3594048 1299.22848 412 1244 412 C 1188.77152 412 1144 400.3594048 1144 386 Z"/></g><g transform="translate(-14,-22) scale(1,1)"><path fill="none" stroke="#000000" d="M 1144 386 C 1144 371.6405952 1188.77152 360 1244 360 C 1299.22848 360 1344 371.6405952 1344 386 C 1344 400.3594048 1299.22848 412 1244 412 C 1188.77152 412 1144 400.3594048 1144 386 Z" stroke-miterlimit="10"/></g><g transform="translate(-14,-22) scale(1,1)"><g><path fill="none" stroke="none"/><text fill="#000000" stroke="none" font-family="Arial" font-size="13px" font-style="normal" font-weight="bold" text-decoration="none" x="1185.44921875" y="386.5">Thanh toán trực tiếp</text><text fill="#000000" stroke="none" font-family="Arial" font-size="13px" font-style="normal" font-weight="bold" text-decoration="none" x="1208.9482421875" y="399.5">tại nhà sách</text></g></g><g transform="translate(-14,-22) scale(1,1)"><path fill="#C0C0C0" stroke="none" d="M 903 305 C 903 290.6405952 933.4446336 279 971 279 C 1008.5553664 279 1039 290.6405952 1039 305 C 1039 319.3594048 1008.5553664 331 971 331 C 933.4446336 331 903 319.3594048 903 305 Z" opacity="0.2"/></g><g transform="translate(-14,-22) scale(1,1)"><path fill="#ffffff" stroke="none" d="M 896 298 C 896 283.6405952 926.4446336 272 964 272 C 1001.5553664 272 1032 283.6405952 1032 298 C 1032 312.3594048 1001.5553664 324 964 324 C 926.4446336 324 896 312.3594048 896 298 Z"/></g><g transform="translate(-14,-22) scale(1,1)"><path fill="none" stroke="#000000" d="M 896 298 C 896 283.6405952 926.4446336 272 964 272 C 1001.5553664 272 1032 283.6405952 1032 298 C 1032 312.3594048 1001.5553664 324 964 324 C 926.4446336 324 896 312.3594048 896 298 Z" stroke-miterlimit="10"/></g><g transform="translate(-14,-22) scale(1,1)"><g><path fill="none" stroke="none"/><text fill="#000000" stroke="none" font-family="Arial" font-size="13px" font-style="normal" font-weight="bold" text-decoration="none" x="931.11279296875" y="298.5">Thanh toán</text><text fill="#000000" stroke="none" font-family="Arial" font-size="13px" font-style="normal" font-weight="bold" text-decoration="none" x="936.24169921875" y="311.5">đơn hàng</text></g></g><g transform="translate(-14,-22) scale(1,1)"><path fill="#C0C0C0" stroke="none" d="M 431 507 C 431 495.954304 461.4446336 487 499 487 C 536.5553664 487 567 495.954304 567 507 C 567 518.045696 536.5553664 527 499 527 C 461.4446336 527 431 518.045696 431 507 Z" opacity="0.2"/></g><g transform="translate(-14,-22) scale(1,1)"><path fill="#ffffff" stroke="none" d="M 424 500 C 424 488.954304 454.4446336 480 492 480 C 529.5553664 480 560 488.954304 560 500 C 560 511.045696 529.5553664 520 492 520 C 454.4446336 520 424 511.045696 424 500 Z"/></g><g transform="translate(-14,-22) scale(1,1)"><path fill="none" stroke="#000000" d="M 424 500 C 424 488.954304 454.4446336 480 492 480 C 529.5553664 480 560 488.954304 560 500 C 560 511.045696 529.5553664 520 492 520 C 454.4446336 520 424 511.045696 424 500 Z" stroke-miterlimit="10"/></g><g transform="translate(-14,-22) scale(1,1)"><g><path fill="none" stroke="none"/><text fill="#000000" stroke="none" font-family="Arial" font-size="13px" font-style="normal" font-weight="bold" text-decoration="none" x="453.93310546875" y="507">Tra cứu sách</text></g></g><g transform="translate(-14,-22) scale(1,1)"><path fill="#C0C0C0" stroke="none" d="M 735 167 C 735 153.7451648 766.5639216 143 805.5 143 C 844.4360784 143 876 153.7451648 876 167 C 876 180.2548352 844.4360784 191 805.5 191 C 766.5639216 191 735 180.2548352 735 167 Z" opacity="0.2"/></g><g transform="translate(-14,-22) scale(1,1)"><path fill="#ffffff" stroke="none" d="M 728 160 C 728 146.7451648 759.5639216 136 798.5 136 C 837.4360784 136 869 146.7451648 869 160 C 869 173.2548352 837.4360784 184 798.5 184 C 759.5639216 184 728 173.2548352 728 160 Z"/></g><g transform="translate(-14,-22) scale(1,1)"><path fill="none" stroke="#000000" d="M 728 160 C 728 146.7451648 759.5639216 136 798.5 136 C 837.4360784 136 869 146.7451648 869 160 C 869 173.2548352 837.4360784 184 798.5 184 C 759.5639216 184 728 173.2548352 728 160 Z" stroke-miterlimit="10"/></g><g transform="translate(-14,-22) scale(1,1)"><g><path fill="none" stroke="none"/><text fill="#000000" stroke="none" font-family="Arial" font-size="13px" font-style="normal" font-weight="bold" text-decoration="none" x="757.376708984375" y="167">Huỷ đơn hàng</text></g></g><g transform="translate(-14,-22) scale(1,1)"><path fill="#C0C0C0" stroke="none" d="M 639 297 C 639 282.6405952 664.0720512 271 695 271 C 725.9279488 271 751 282.6405952 751 297 C 751 311.3594048 725.9279488 323 695 323 C 664.0720512 323 639 311.3594048 639 297 Z" opacity="0.2"/></g><g transform="translate(-14,-22) scale(1,1)"><path fill="#ffffff" stroke="none" d="M 632 290 C 632 275.6405952 657.0720512 264 688 264 C 718.9279488 264 744 275.6405952 744 290 C 744 304.3594048 718.9279488 316 688 316 C 657.0720512 316 632 304.3594048 632 290 Z"/></g><g transform="translate(-14,-22) scale(1,1)"><path fill="none" stroke="#000000" d="M 632 290 C 632 275.6405952 657.0720512 264 688 264 C 718.9279488 264 744 275.6405952 744 290 C 744 304.3594048 718.9279488 316 688 316 C 657.0720512 316 632 304.3594048 632 290 Z" stroke-miterlimit="10"/></g><g transform="translate(-14,-22) scale(1,1)"><g><path fill="none" stroke="none"/><text fill="#000000" stroke="none" font-family="Arial" font-size="13px" font-style="normal" font-weight="bold" text-decoration="none" x="659.819580078125" y="290.5">Mua sách</text><text fill="#000000" stroke="none" font-family="Arial" font-size="13px" font-style="normal" font-weight="bold" text-decoration="none" x="658.721435546875" y="303.5">trực tuyến</text></g></g><g transform="translate(-14,-22) scale(1,1)"><path fill="#C0C0C0" stroke="none" d="M 1135 1051 C 1135 1035.5360256 1186.9349632 1023 1251 1023 C 1315.0650368 1023 1367 1035.5360256 1367 1051 C 1367 1066.4639744 1315.0650368 1079 1251 1079 C 1186.9349632 1079 1135 1066.4639744 1135 1051 Z" opacity="0.2"/></g><g transform="translate(-14,-22) scale(1,1)"><path fill="#ffffff" stroke="none" d="M 1128 1044 C 1128 1028.5360256 1179.9349632 1016 1244 1016 C 1308.0650368 1016 1360 1028.5360256 1360 1044 C 1360 1059.4639744 1308.0650368 1072 1244 1072 C 1179.9349632 1072 1128 1059.4639744 1128 1044 Z"/></g><g transform="translate(-14,-22) scale(1,1)"><path fill="none" stroke="#000000" d="M 1128 1044 C 1128 1028.5360256 1179.9349632 1016 1244 1016 C 1308.0650368 1016 1360 1028.5360256 1360 1044 C 1360 1059.4639744 1308.0650368 1072 1244 1072 C 1179.9349632 1072 1128 1059.4639744 1128 1044 Z" stroke-miterlimit="10"/></g><g transform="translate(-14,-22) scale(1,1)"><g><path fill="none" stroke="none"/><text fill="#000000" stroke="none" font-family="Arial" font-size="13px" font-style="normal" font-weight="bold" text-decoration="none" x="1184.017822265625" y="1044.5">Thay đổi quy định số</text><text fill="#000000" stroke="none" font-family="Arial" font-size="13px" font-style="normal" font-weight="bold" text-decoration="none" x="1178.647705078125" y="1057.5">lượng nhập và tồn kho</text></g></g><g transform="translate(-14,-22) scale(1,1)"><path fill="#C0C0C0" stroke="none" d="M 1103 1193 C 1103 1178.6405952 1144.1897984 1167 1195 1167 C 1245.8102016 1167 1287 1178.6405952 1287 1193 C 1287 1207.3594048 1245.8102016 1219 1195 1219 C 1144.1897984 1219 1103 1207.3594048 1103 1193 Z" opacity="0.2"/></g><g transform="translate(-14,-22) scale(1,1)"><path fill="#ffffff" stroke="none" d="M 1096 1186 C 1096 1171.6405952 1137.1897984 1160 1188 1160 C 1238.8102016 1160 1280 1171.6405952 1280 1186 C 1280 1200.3594048 1238.8102016 1212 1188 1212 C 1137.1897984 1212 1096 1200.3594048 1096 1186 Z"/></g><g transform="translate(-14,-22) scale(1,1)"><path fill="none" stroke="#000000" d="M 1096 1186 C 1096 1171.6405952 1137.1897984 1160 1188 1160 C 1238.8102016 1160 1280 1171.6405952 1280 1186 C 1280 1200.3594048 1238.8102016 1212 1188 1212 C 1137.1897984 1212 1096 1200.3594048 1096 1186 Z" stroke-miterlimit="10"/></g><g transform="translate(-14,-22) scale(1,1)"><g><path fill="none" stroke="none"/><text fill="#000000" stroke="none" font-family="Arial" font-size="13px" font-style="normal" font-weight="bold" text-decoration="none" x="1136.688720703125" y="1193">Thay đổi quy định</text></g></g><g transform="translate(-14,-22) scale(1,1)"><path fill="#C0C0C0" stroke="none" d="M 935 1067 C 935 1051.5360256 974.3989376 1039 1023 1039 C 1071.6010624 1039 1111 1051.5360256 1111 1067 C 1111 1082.4639744 1071.6010624 1095 1023 1095 C 974.3989376 1095 935 1082.4639744 935 1067 Z" opacity="0.2"/></g><g transform="translate(-14,-22) scale(1,1)"><path fill="#ffffff" stroke="none" d="M 928 1060 C 928 1044.5360256 967.3989376 1032 1016 1032 C 1064.6010624 1032 1104 1044.5360256 1104 1060 C 1104 1075.4639744 1064.6010624 1088 1016 1088 C 967.3989376 1088 928 1075.4639744 928 1060 Z"/></g><g transform="translate(-14,-22) scale(1,1)"><path fill="none" stroke="#000000" d="M 928 1060 C 928 1044.5360256 967.3989376 1032 1016 1032 C 1064.6010624 1032 1104 1044.5360256 1104 1060 C 1104 1075.4639744 1064.6010624 1088 1016 1088 C 967.3989376 1088 928 1075.4639744 928 1060 Z" stroke-miterlimit="10"/></g><g transform="translate(-14,-22) scale(1,1)"><g><path fill="none" stroke="none"/><text fill="#000000" stroke="none" font-family="Arial" font-size="13px" font-style="normal" font-weight="bold" text-decoration="none" x="964.688720703125" y="1060.5">Thay đổi quy định</text><text fill="#000000" stroke="none" font-family="Arial" font-size="13px" font-style="normal" font-weight="bold" text-decoration="none" x="965.193359375" y="1073.5">thời gian huỷ đơn</text></g></g><g transform="translate(-14,-22) scale(1,1)"><path fill="#C0C0C0" stroke="none" d="M 815 865 C 815 850.6405952 849.0263552 839 891 839 C 932.9736448 839 967 850.6405952 967 865 C 967 879.3594048 932.9736448 891 891 891 C 849.0263552 891 815 879.3594048 815 865 Z" opacity="0.2"/></g><g transform="translate(-14,-22) scale(1,1)"><path fill="#ffffff" stroke="none" d="M 808 858 C 808 843.6405952 842.0263552 832 884 832 C 925.9736448 832 960 843.6405952 960 858 C 960 872.3594048 925.9736448 884 884 884 C 842.0263552 884 808 872.3594048 808 858 Z"/></g><g transform="translate(-14,-22) scale(1,1)"><path fill="none" stroke="#000000" d="M 808 858 C 808 843.6405952 842.0263552 832 884 832 C 925.9736448 832 960 843.6405952 960 858 C 960 872.3594048 925.9736448 884 884 884 C 842.0263552 884 808 872.3594048 808 858 Z" stroke-miterlimit="10"/></g><g transform="translate(-14,-22) scale(1,1)"><g><path fill="none" stroke="none"/><text fill="#000000" stroke="none" font-family="Arial" font-size="13px" font-style="normal" font-weight="bold" text-decoration="none" x="843.892333984375" y="858.5">Xem thống kê</text><text fill="#000000" stroke="none" font-family="Arial" font-size="13px" font-style="normal" font-weight="bold" text-decoration="none" x="852.1982421875" y="871.5">và báo cáo</text></g></g><g transform="translate(-14,-22) scale(1,1)"><path fill="#C0C0C0" stroke="none" d="M 1119 481 C 1119 466.6405952 1160.1897984 455 1211 455 C 1261.8102016 455 1303 466.6405952 1303 481 C 1303 495.3594048 1261.8102016 507 1211 507 C 1160.1897984 507 1119 495.3594048 1119 481 Z" opacity="0.2"/></g><g transform="translate(-14,-22) scale(1,1)"><path fill="#ffffff" stroke="none" d="M 1112 474 C 1112 459.6405952 1153.1897984 448 1204 448 C 1254.8102016 448 1296 459.6405952 1296 474 C 1296 488.3594048 1254.8102016 500 1204 500 C 1153.1897984 500 1112 488.3594048 1112 474 Z"/></g><g transform="translate(-14,-22) scale(1,1)"><path fill="none" stroke="#000000" d="M 1112 474 C 1112 459.6405952 1153.1897984 448 1204 448 C 1254.8102016 448 1296 459.6405952 1296 474 C 1296 488.3594048 1254.8102016 500 1204 500 C 1153.1897984 500 1112 488.3594048 1112 474 Z" stroke-miterlimit="10"/></g><g transform="translate(-14,-22) scale(1,1)"><g><path fill="none" stroke="none"/><text fill="#000000" stroke="none" font-family="Arial" font-size="13px" font-style="normal" font-weight="bold" text-decoration="none" x="1148.353271484375" y="481">Nhập sách vào kho</text></g></g><g transform="translate(-14,-22) scale(1,1)"><path fill="#C0C0C0" stroke="none" d="M 367 728 C 367 718.6111584 406.3989376 711 455 711 C 503.6010624 711 543 718.6111584 543 728 C 543 737.3888416 503.6010624 745 455 745 C 406.3989376 745 367 737.3888416 367 728 Z" opacity="0.2"/></g><g transform="translate(-14,-22) scale(1,1)"><path fill="#ffffff" stroke="none" d="M 360 721 C 360 711.6111584 399.3989376 704 448 704 C 496.6010624 704 536 711.6111584 536 721 C 536 730.3888416 496.6010624 738 448 738 C 399.3989376 738 360 730.3888416 360 721 Z"/></g><g transform="translate(-14,-22) scale(1,1)"><path fill="none" stroke="#000000" d="M 360 721 C 360 711.6111584 399.3989376 704 448 704 C 496.6010624 704 536 711.6111584 536 721 C 536 730.3888416 496.6010624 738 448 738 C 399.3989376 738 360 730.3888416 360 721 Z" stroke-miterlimit="10"/></g><g transform="translate(-14,-22) scale(1,1)"><g><path fill="none" stroke="none"/><text fill="#000000" stroke="none" font-family="Arial" font-size="13px" font-style="normal" font-weight="bold" text-decoration="none" x="396.326904296875" y="728">Bán sách tại quầy</text></g></g><g transform="translate(-14,-22) scale(1,1)"><path fill="#C0C0C0" stroke="none" d="M 767 1186.5 C 767 1166.8938896 799.2354944 1151 839 1151 C 878.7645056 1151 911 1166.8938896 911 1186.5 C 911 1206.1061104 878.7645056 1222 839 1222 C 799.2354944 1222 767 1206.1061104 767 1186.5 Z" opacity="0.2"/></g><g transform="translate(-14,-22) scale(1,1)"><path fill="#ffffff" stroke="none" d="M 760 1179.5 C 760 1159.8938896 792.2354944 1144 832 1144 C 871.7645056 1144 904 1159.8938896 904 1179.5 C 904 1199.1061104 871.7645056 1215 832 1215 C 792.2354944 1215 760 1199.1061104 760 1179.5 Z"/></g><g transform="translate(-14,-22) scale(1,1)"><path fill="none" stroke="#000000" d="M 760 1179.5 C 760 1159.8938896 792.2354944 1144 832 1144 C 871.7645056 1144 904 1159.8938896 904 1179.5 C 904 1199.1061104 871.7645056 1215 832 1215 C 792.2354944 1215 760 1199.1061104 760 1179.5 Z" stroke-miterlimit="10"/></g><g transform="translate(-14,-22) scale(1,1)"><g><path fill="none" stroke="none"/><text fill="#000000" stroke="none" font-family="Arial" font-size="13px" font-style="normal" font-weight="bold" text-decoration="none" x="793.701416015625" y="1180">Xem tần suất</text><text fill="#000000" stroke="none" font-family="Arial" font-size="13px" font-style="normal" font-weight="bold" text-decoration="none" x="790.426025390625" y="1193">từng đầu sách</text></g></g><g transform="translate(-14,-22) scale(1,1)"><path fill="#C0C0C0" stroke="none" d="M 631 1066.5 C 631 1046.8938896 665.0263552 1031 707 1031 C 748.9736448 1031 783 1046.8938896 783 1066.5 C 783 1086.1061104 748.9736448 1102 707 1102 C 665.0263552 1102 631 1086.1061104 631 1066.5 Z" opacity="0.2"/></g><g transform="translate(-14,-22) scale(1,1)"><path fill="#ffffff" stroke="none" d="M 624 1059.5 C 624 1039.8938896 658.0263552 1024 700 1024 C 741.9736448 1024 776 1039.8938896 776 1059.5 C 776 1079.1061104 741.9736448 1095 700 1095 C 658.0263552 1095 624 1079.1061104 624 1059.5 Z"/></g><g transform="translate(-14,-22) scale(1,1)"><path fill="none" stroke="#000000" d="M 624 1059.5 C 624 1039.8938896 658.0263552 1024 700 1024 C 741.9736448 1024 776 1039.8938896 776 1059.5 C 776 1079.1061104 741.9736448 1095 700 1095 C 658.0263552 1095 624 1079.1061104 624 1059.5 Z" stroke-miterlimit="10"/></g><g transform="translate(-14,-22) scale(1,1)"><g><path fill="none" stroke="none"/><text fill="#000000" stroke="none" font-family="Arial" font-size="13px" font-style="normal" font-weight="bold" text-decoration="none" x="655.912353515625" y="1060">Xem doanh thu</text><text fill="#000000" stroke="none" font-family="Arial" font-size="13px" font-style="normal" font-weight="bold" text-decoration="none" x="668.541015625" y="1073">từng tháng</text></g></g><g transform="translate(-14,-22) scale(1,1)"><path fill="#ffffff" stroke="none" d="M 209.2312727272727 123.89 C 209.2312727272727 117.875618528 214.05259561192727 113 220 113 C 225.94740438807273 113 230.7687272727273 117.875618528 230.7687272727273 123.89 C 230.7687272727273 129.904381472 225.94740438807273 134.78 220 134.78 C 214.05259561192727 134.78 209.2312727272727 129.904381472 209.2312727272727 123.89 Z"/></g><g transform="translate(-14,-22) scale(1,1)"><path fill="none" stroke="#000000" d="M 209.2312727272727 123.89 C 209.2312727272727 117.875618528 214.05259561192727 113 220 113 C 225.94740438807273 113 230.7687272727273 117.875618528 230.7687272727273 123.89 C 230.7687272727273 129.904381472 225.94740438807273 134.78 220 134.78 C 214.05259561192727 134.78 209.2312727272727 129.904381472 209.2312727272727 123.89 Z" stroke-miterlimit="10"/></g><g transform="translate(-14,-22) scale(1,1)"><path fill="none" stroke="#000000" d="M 220 134.78 L 220 156.22" stroke-miterlimit="10"/></g><g transform="translate(-14,-22) scale(1,1)"><path fill="none" stroke="#000000" d="M 208.59781818181818 142.82 L 231.40218181818182 142.82" stroke-miterlimit="10"/></g><g transform="translate(-14,-22) scale(1,1)"><path fill="none" stroke="#000000" d="M 220 156.22 L 204.16363636363636 178" stroke-miterlimit="10"/></g><g transform="translate(-14,-22) scale(1,1)"><path fill="none" stroke="#000000" d="M 220 156.22 L 235.83636363636364 178" stroke-miterlimit="10"/></g><g transform="translate(-14,-22) scale(1,1)"><g><path fill="none" stroke="none"/><text fill="#000000" stroke="none" font-family="Arial" font-size="13px" font-style="normal" font-weight="bold" text-decoration="none" x="185.3671875" y="198.5">Người dùng</text><text fill="#000000" stroke="none" font-family="Arial" font-size="13px" font-style="normal" font-weight="bold" text-decoration="none" x="178.419677734375" y="211.5">chưa xác thực</text></g></g><g transform="translate(-14,-22) scale(1,1)"><path fill="#C0C0C0" stroke="none" d="M 407 152 C 407 142.6111584 431.1766208 135 461 135 C 490.8233792 135 515 142.6111584 515 152 C 515 161.3888416 490.8233792 169 461 169 C 431.1766208 169 407 161.3888416 407 152 Z" opacity="0.2"/></g><g transform="translate(-14,-22) scale(1,1)"><path fill="#ffffff" stroke="none" d="M 400 145 C 400 135.6111584 424.1766208 128 454 128 C 483.8233792 128 508 135.6111584 508 145 C 508 154.3888416 483.8233792 162 454 162 C 424.1766208 162 400 154.3888416 400 145 Z"/></g><g transform="translate(-14,-22) scale(1,1)"><path fill="none" stroke="#000000" d="M 400 145 C 400 135.6111584 424.1766208 128 454 128 C 483.8233792 128 508 135.6111584 508 145 C 508 154.3888416 483.8233792 162 454 162 C 424.1766208 162 400 154.3888416 400 145 Z" stroke-miterlimit="10"/></g><g transform="translate(-14,-22) scale(1,1)"><g><path fill="none" stroke="none"/><text fill="#000000" stroke="none" font-family="Arial" font-size="13px" font-style="normal" font-weight="bold" text-decoration="none" x="422.195068359375" y="152">Đăng nhập</text></g></g><g transform="translate(-14,-22) scale(1,1)"><path fill="none" stroke="#000000" d="M 273 160 L 399 149" stroke-miterlimit="10"/></g><g transform="translate(-14,-22) scale(1,1)"><path fill="none" stroke="#000000" d="M 1158 359 L 1033 320" stroke-miterlimit="10"/></g><g transform="translate(-14,-22) scale(1,1)"><path fill="#FFFFFF" stroke="none" d="M 1054.9104258572684 318.01676054064455 L 1033 320 L 1049.8953727727865 334.0906486319326"/></g><g transform="translate(-14,-22) scale(1,1)"><path fill="none" stroke="#000000" d="M 1054.9104258572684 318.01676054064455 L 1033 320 L 1049.8953727727865 334.0906486319326 L 1054.9104258572684 318.01676054064455" stroke-miterlimit="10"/></g><g transform="translate(-14,-22) scale(1,1)"><path fill="none" stroke="#000000" d="M 1491 1053 L 1488 1344 L 24 1344 L 24 152 L 167 161" stroke-miterlimit="10"/></g><g transform="translate(-14,-22) scale(1,1)"><path fill="#FFFFFF" stroke="none" d="M 146.18596314468297 168.12571889604865 L 167 161 L 147.2436092435135 151.32089754796374"/></g><g transform="translate(-14,-22) scale(1,1)"><path fill="none" stroke="#000000" d="M 146.18596314468297 168.12571889604865 L 167 161 L 147.2436092435135 151.32089754796374 L 146.18596314468297 168.12571889604865" stroke-miterlimit="10"/></g><g transform="translate(-14,-22) scale(1,1)"><path fill="none" stroke="#000000" d="M 167 375 L 72 376 L 72 240 L 167 191" stroke-miterlimit="10"/></g><g transform="translate(-14,-22) scale(1,1)"><path fill="#FFFFFF" stroke="none" d="M 152.795299777986 207.79959795955594 L 167 191 L 145.07665050988217 192.83486978670155"/></g><g transform="translate(-14,-22) scale(1,1)"><path fill="none" stroke="#000000" d="M 152.795299777986 207.79959795955594 L 167 191 L 145.07665050988217 192.83486978670155 L 152.795299777986 207.79959795955594" stroke-miterlimit="10"/></g><g transform="translate(-14,-22) scale(1,1)"><path fill="none" stroke="#000000" d="M 167 591 L 56 592 L 56 200 L 167 176" stroke-miterlimit="10"/></g><g transform="translate(-14,-22) scale(1,1)"><path fill="#FFFFFF" stroke="none" d="M 148.91293355594337 188.5242974832236 L 167 176 L 145.35449698565088 172.0665283456209"/></g><g transform="translate(-14,-22) scale(1,1)"><path fill="none" stroke="#000000" d="M 148.91293355594337 188.5242974832236 L 167 176 L 145.35449698565088 172.0665283456209 L 148.91293355594337 188.5242974832236" stroke-miterlimit="10"/></g><g transform="translate(-14,-22) scale(1,1)"><path fill="none" stroke="#000000" d="M 1233 1073 L 1199 1159" stroke-miterlimit="10"/></g><g transform="translate(-14,-22) scale(1,1)"><path fill="#FFFFFF" stroke="none" d="M 1198.6434231744481 1137.0028898950911 L 1199 1159 L 1214.3021678303264 1143.1935563869501"/></g><g transform="translate(-14,-22) scale(1,1)"><path fill="none" stroke="#000000" d="M 1198.6434231744481 1137.0028898950911 L 1199 1159 L 1214.3021678303264 1143.1935563869501 L 1198.6434231744481 1137.0028898950911" stroke-miterlimit="10"/></g><g transform="translate(-14,-22) scale(1,1)"><path fill="none" stroke="#000000" d="M 1056 1089 L 1151 1159" stroke-miterlimit="10"/></g><g transform="translate(-14,-22) scale(1,1)"><path fill="#FFFFFF" stroke="none" d="M 1129.642794798446 1153.7208157847344 L 1151 1159 L 1139.6311223325356 1140.1652284170414"/></g><g transform="translate(-14,-22) scale(1,1)"><path fill="none" stroke="#000000" d="M 1129.642794798446 1153.7208157847344 L 1151 1159 L 1139.6311223325356 1140.1652284170414 L 1129.642794798446 1153.7208157847344" stroke-miterlimit="10"/></g><g transform="translate(-14,-22) scale(1,1)"><path fill="#C0C0C0" stroke="none" d="M 399 216 C 399 206.6111584 446.010096 199 504 199 C 561.989904 199 609 206.6111584 609 216 C 609 225.3888416 561.989904 233 504 233 C 446.010096 233 399 225.3888416 399 216 Z" opacity="0.2"/></g><g transform="translate(-14,-22) scale(1,1)"><path fill="#ffffff" stroke="none" d="M 392 209 C 392 199.6111584 439.010096 192 497 192 C 554.989904 192 602 199.6111584 602 209 C 602 218.3888416 554.989904 226 497 226 C 439.010096 226 392 218.3888416 392 209 Z"/></g><g transform="translate(-14,-22) scale(1,1)"><path fill="none" stroke="#000000" d="M 392 209 C 392 199.6111584 439.010096 192 497 192 C 554.989904 192 602 199.6111584 602 209 C 602 218.3888416 554.989904 226 497 226 C 439.010096 226 392 218.3888416 392 209 Z" stroke-miterlimit="10"/></g><g transform="translate(-14,-22) scale(1,1)"><g><path fill="none" stroke="none"/><text fill="#000000" stroke="none" font-family="Arial" font-size="13px" font-style="normal" font-weight="bold" text-decoration="none" x="432.041259765625" y="216">Đăng ký mới tài khoản</text></g></g><g transform="translate(-14,-22) scale(1,1)"><path fill="none" stroke="#000000" d="M 273 399 L 447 479" stroke-miterlimit="10"/></g><g transform="translate(-14,-22) scale(1,1)"><path fill="none" stroke="#000000" d="M 1439 1037 L 1234 1159" stroke-miterlimit="10"/></g><g transform="translate(-14,-22) scale(1,1)"><path fill="none" stroke="#000000" d="M 733 1023 L 859 885" stroke-miterlimit="10"/></g><g transform="translate(-14,-22) scale(1,1)"><path fill="#FFFFFF" stroke="none" d="M 851.5125749724897 905.6866736440978 L 859 885 L 839.077903775487 894.3332782033563"/></g><g transform="translate(-14,-22) scale(1,1)"><path fill="none" stroke="#000000" d="M 851.5125749724897 905.6866736440978 L 859 885 L 839.077903775487 894.3332782033563 L 851.5125749724897 905.6866736440978" stroke-miterlimit="10"/></g><g transform="translate(-14,-22) scale(1,1)"><path fill="none" stroke="#000000" d="M 838 1143 L 880 885" stroke-miterlimit="10"/></g><g transform="translate(-14,-22) scale(1,1)"><path fill="#FFFFFF" stroke="none" d="M 885.0438614531598 906.4140015326732 L 880 885 L 868.4245629408025 903.708534332987"/></g><g transform="translate(-14,-22) scale(1,1)"><path fill="none" stroke="#000000" d="M 885.0438614531598 906.4140015326732 L 880 885 L 868.4245629408025 903.708534332987 L 885.0438614531598 906.4140015326732" stroke-miterlimit="10"/></g><g transform="translate(-14,-22) scale(1,1)"><path fill="none" stroke="#000000" d="M 1439 993 L 961 877" stroke-miterlimit="10"/></g><g transform="translate(-14,-22) scale(1,1)"><path fill="none" stroke="#000000" d="M 1439 549 L 1289 501" stroke-miterlimit="10"/></g><g transform="translate(-14,-22) scale(1,1)"><path fill="none" stroke="#000000" d="M 273 620 L 417 703" stroke-miterlimit="10"/></g><g transform="translate(-14,-22) scale(1,1)"><path fill="none" stroke="#000000" d="M 745 292 L 895 296" stroke-miterlimit="10" stroke-dasharray="3"/></g><g transform="translate(-14,-22) scale(1,1)"><path fill="none" stroke="#000000" d="M 884.7287226962413 299.9371134793516 L 895 296 L 884.9531505275143 291.52106980661523" stroke-miterlimit="10"/></g><g transform="translate(-14,-22) scale(1,1)"><g><path fill="none" stroke="none"/><text fill="#000000" stroke="none" font-family="Arial" font-size="13px" font-style="normal" font-weight="normal" text-decoration="none" x="785.5" y="315.5">«include»</text></g></g><g transform="translate(-14,-22) scale(1,1)"><path fill="#C0C0C0" stroke="none" d="M 799 488 C 799 478.6111584 842.652232 471 896.5 471 C 950.347768 471 994 478.6111584 994 488 C 994 497.3888416 950.347768 505 896.5 505 C 842.652232 505 799 497.3888416 799 488 Z" opacity="0.2"/></g><g transform="translate(-14,-22) scale(1,1)"><path fill="#ffffff" stroke="none" d="M 792 481 C 792 471.6111584 835.652232 464 889.5 464 C 943.347768 464 987 471.6111584 987 481 C 987 490.3888416 943.347768 498 889.5 498 C 835.652232 498 792 490.3888416 792 481 Z"/></g><g transform="translate(-14,-22) scale(1,1)"><path fill="none" stroke="#000000" d="M 792 481 C 792 471.6111584 835.652232 464 889.5 464 C 943.347768 464 987 471.6111584 987 481 C 987 490.3888416 943.347768 498 889.5 498 C 835.652232 498 792 490.3888416 792 481 Z" stroke-miterlimit="10"/></g><g transform="translate(-14,-22) scale(1,1)"><g><path fill="none" stroke="none"/><text fill="#000000" stroke="none" font-family="Arial" font-size="13px" font-style="normal" font-weight="bold" text-decoration="none" x="829.143310546875" y="488">Lập phiếu nhập sách</text></g></g><g transform="translate(-14,-22) scale(1,1)"><path fill="none" stroke="#000000" d="M 1111 476 L 988 479" stroke-miterlimit="10" stroke-dasharray="3"/></g><g transform="translate(-14,-22) scale(1,1)"><path fill="none" stroke="#000000" d="M 998.0570127596144 474.543937348628 L 988 479 L 998.2622940389803 482.96046980262577" stroke-miterlimit="10"/></g><g transform="translate(-14,-22) scale(1,1)"><g><path fill="none" stroke="none"/><text fill="#000000" stroke="none" font-family="Arial" font-size="13px" font-style="normal" font-weight="normal" text-decoration="none" x="1030.5" y="501.5">«include»</text></g></g><g transform="translate(-14,-22) scale(1,1)"><path fill="#C0C0C0" stroke="none" d="M 351 864 C 351 854.6111584 397.7862384 847 455.5 847 C 513.2137616 847 560 854.6111584 560 864 C 560 873.3888416 513.2137616 881 455.5 881 C 397.7862384 881 351 873.3888416 351 864 Z" opacity="0.2"/></g><g transform="translate(-14,-22) scale(1,1)"><path fill="#ffffff" stroke="none" d="M 344 857 C 344 847.6111584 390.7862384 840 448.5 840 C 506.2137616 840 553 847.6111584 553 857 C 553 866.3888416 506.2137616 874 448.5 874 C 390.7862384 874 344 866.3888416 344 857 Z"/></g><g transform="translate(-14,-22) scale(1,1)"><path fill="none" stroke="#000000" d="M 344 857 C 344 847.6111584 390.7862384 840 448.5 840 C 506.2137616 840 553 847.6111584 553 857 C 553 866.3888416 506.2137616 874 448.5 874 C 390.7862384 874 344 866.3888416 344 857 Z" stroke-miterlimit="10"/></g><g transform="translate(-14,-22) scale(1,1)"><g><path fill="none" stroke="none"/><text fill="#000000" stroke="none" font-family="Arial" font-size="13px" font-style="normal" font-weight="bold" text-decoration="none" x="383.51904296875" y="864">Lập hoá đơn bán sách</text></g></g><g transform="translate(-14,-22) scale(1,1)"><path fill="none" stroke="#000000" d="M 448 739 L 448 839" stroke-miterlimit="10" stroke-dasharray="3"/></g><g transform="translate(-14,-22) scale(1,1)"><path fill="none" stroke="#000000" d="M 443.790482243984 828.8373251423759 L 448 839 L 452.209517756016 828.8373251423759" stroke-miterlimit="10"/></g><g transform="translate(-14,-22) scale(1,1)"><g><path fill="none" stroke="none"/><text fill="#000000" stroke="none" font-family="Arial" font-size="13px" font-style="normal" font-weight="normal" text-decoration="none" x="436.5" y="783.5">«include»</text></g></g><g transform="translate(-14,-22) scale(1,1)"><path fill="#C0C0C0" stroke="none" d="M 1199 735 C 1199 721.7451648 1231.2354944 711 1271 711 C 1310.7645056 711 1343 721.7451648 1343 735 C 1343 748.2548352 1310.7645056 759 1271 759 C 1231.2354944 759 1199 748.2548352 1199 735 Z" opacity="0.2"/></g><g transform="translate(-14,-22) scale(1,1)"><path fill="#ffffff" stroke="none" d="M 1192 728 C 1192 714.7451648 1224.2354944 704 1264 704 C 1303.7645056 704 1336 714.7451648 1336 728 C 1336 741.2548352 1303.7645056 752 1264 752 C 1224.2354944 752 1192 741.2548352 1192 728 Z"/></g><g transform="translate(-14,-22) scale(1,1)"><path fill="none" stroke="#000000" d="M 1192 728 C 1192 714.7451648 1224.2354944 704 1264 704 C 1303.7645056 704 1336 714.7451648 1336 728 C 1336 741.2548352 1303.7645056 752 1264 752 C 1224.2354944 752 1192 741.2548352 1192 728 Z" stroke-miterlimit="10"/></g><g transform="translate(-14,-22) scale(1,1)"><g><path fill="none" stroke="none"/><text fill="#000000" stroke="none" font-family="Arial" font-size="13px" font-style="normal" font-weight="bold" text-decoration="none" x="1225.3427734375" y="735">Quản trị sách</text></g></g><g transform="translate(-14,-22) scale(1,1)"><path fill="#ffffff" stroke="none" d="M 632 440 L 717 440 L 727 450 L 727 538 L 632 538 L 632 440"/></g><g transform="translate(-14,-22) scale(1,1)"><path fill="none" stroke="#000000" d="M 632 440 L 717 440 L 727 450 L 727 538 L 632 538 L 632 440 L 632 440" stroke-miterlimit="10"/></g><g transform="translate(-14,-22) scale(1,1)"><path fill="none" stroke="#000000" d="M 717 440 L 717 450 L 727 450 L 717 440" stroke-miterlimit="10"/></g><g transform="translate(-14,-22) scale(1,1)"><g><path fill="none" stroke="none"/><text fill="#000000" stroke="none" font-family="Arial" font-size="13px" font-style="normal" font-weight="normal" text-decoration="none" x="637" y="458">+ Ngày nhập</text></g></g><g transform="translate(-14,-22) scale(1,1)"><g><path fill="none" stroke="none"/><text fill="#000000" stroke="none" font-family="Arial" font-size="13px" font-style="normal" font-weight="normal" text-decoration="none" x="637" y="473">+ STT</text></g></g><g transform="translate(-14,-22) scale(1,1)"><g><path fill="none" stroke="none"/><text fill="#000000" stroke="none" font-family="Arial" font-size="13px" font-style="normal" font-weight="normal" text-decoration="none" x="637" y="488">+ Sách</text></g></g><g transform="translate(-14,-22) scale(1,1)"><g><path fill="none" stroke="none"/><text fill="#000000" stroke="none" font-family="Arial" font-size="13px" font-style="normal" font-weight="normal" text-decoration="none" x="637" y="503">+ Thể loại</text></g></g><g transform="translate(-14,-22) scale(1,1)"><g><path fill="none" stroke="none"/><text fill="#000000" stroke="none" font-family="Arial" font-size="13px" font-style="normal" font-weight="normal" text-decoration="none" x="637" y="518">+ Tác giả</text></g></g><g transform="translate(-14,-22) scale(1,1)"><g><path fill="none" stroke="none"/><text fill="#000000" stroke="none" font-family="Arial" font-size="13px" font-style="normal" font-weight="normal" text-decoration="none" x="637" y="533">+ Số lượng</text></g></g><g transform="translate(-14,-22) scale(1,1)"><path fill="none" stroke="#000000" d="M 791 485 L 729 487" stroke-miterlimit="10" stroke-dasharray="3"/></g><g transform="translate(-14,-22) scale(1,1)"><path fill="#ffffff" stroke="none" d="M 616 784 L 765 784 L 775 794 L 775 927 L 616 927 L 616 784"/></g><g transform="translate(-14,-22) scale(1,1)"><path fill="none" stroke="#000000" d="M 616 784 L 765 784 L 775 794 L 775 927 L 616 927 L 616 784 L 616 784" stroke-miterlimit="10"/></g><g transform="translate(-14,-22) scale(1,1)"><path fill="none" stroke="#000000" d="M 765 784 L 765 794 L 775 794 L 765 784" stroke-miterlimit="10"/></g><g transform="translate(-14,-22) scale(1,1)"><g><path fill="none" stroke="none"/><text fill="#000000" stroke="none" font-family="Arial" font-size="13px" font-style="normal" font-weight="normal" text-decoration="none" x="621" y="802">+ Họ tên khách hàng</text></g></g><g transform="translate(-14,-22) scale(1,1)"><g><path fill="none" stroke="none"/><text fill="#000000" stroke="none" font-family="Arial" font-size="13px" font-style="normal" font-weight="normal" text-decoration="none" x="621" y="817">+ Ngày lập hoá đơn</text></g></g><g transform="translate(-14,-22) scale(1,1)"><g><path fill="none" stroke="none"/><text fill="#000000" stroke="none" font-family="Arial" font-size="13px" font-style="normal" font-weight="normal" text-decoration="none" x="621" y="832">+ Ngày nhập</text></g></g><g transform="translate(-14,-22) scale(1,1)"><g><path fill="none" stroke="none"/><text fill="#000000" stroke="none" font-family="Arial" font-size="13px" font-style="normal" font-weight="normal" text-decoration="none" x="621" y="847">+ STT</text></g></g><g transform="translate(-14,-22) scale(1,1)"><g><path fill="none" stroke="none"/><text fill="#000000" stroke="none" font-family="Arial" font-size="13px" font-style="normal" font-weight="normal" text-decoration="none" x="621" y="862">+ Sách</text></g></g><g transform="translate(-14,-22) scale(1,1)"><g><path fill="none" stroke="none"/><text fill="#000000" stroke="none" font-family="Arial" font-size="13px" font-style="normal" font-weight="normal" text-decoration="none" x="621" y="877">+ Thể loại</text></g></g><g transform="translate(-14,-22) scale(1,1)"><g><path fill="none" stroke="none"/><text fill="#000000" stroke="none" font-family="Arial" font-size="13px" font-style="normal" font-weight="normal" text-decoration="none" x="621" y="892">+ Số lượng</text></g></g><g transform="translate(-14,-22) scale(1,1)"><g><path fill="none" stroke="none"/><text fill="#000000" stroke="none" font-family="Arial" font-size="13px" font-style="normal" font-weight="normal" text-decoration="none" x="621" y="907">+ Đơn giá</text></g></g><g transform="translate(-14,-22) scale(1,1)"><g><path fill="none" stroke="none"/><text fill="#000000" stroke="none" font-family="Arial" font-size="13px" font-style="normal" font-weight="normal" text-decoration="none" x="621" y="922">+ Nhân viên thanh toán</text></g></g><g transform="translate(-14,-22) scale(1,1)"><path fill="none" stroke="#000000" d="M 554 857 L 615 856" stroke-miterlimit="10" stroke-dasharray="3"/></g><g transform="translate(-14,-22) scale(1,1)"><path fill="#ffffff" stroke="none" d="M 408 992 L 517 992 L 527 1002 L 527 1118 L 408 1118 L 408 992"/></g><g transform="translate(-14,-22) scale(1,1)"><path fill="none" stroke="#000000" d="M 408 992 L 517 992 L 527 1002 L 527 1118 L 408 1118 L 408 992 L 408 992" stroke-miterlimit="10"/></g><g transform="translate(-14,-22) scale(1,1)"><path fill="none" stroke="#000000" d="M 517 992 L 517 1002 L 527 1002 L 517 992" stroke-miterlimit="10"/></g><g transform="translate(-14,-22) scale(1,1)"><g><path fill="none" stroke="none"/><text fill="#000000" stroke="none" font-family="Arial" font-size="13px" font-style="normal" font-weight="normal" text-decoration="none" x="413" y="1010">+ Tháng</text></g></g><g transform="translate(-14,-22) scale(1,1)"><g><path fill="none" stroke="none"/><text fill="#000000" stroke="none" font-family="Arial" font-size="13px" font-style="normal" font-weight="normal" text-decoration="none" x="413" y="1025">+ STT</text></g></g><g transform="translate(-14,-22) scale(1,1)"><g><path fill="none" stroke="none"/><text fill="#000000" stroke="none" font-family="Arial" font-size="13px" font-style="normal" font-weight="normal" text-decoration="none" x="413" y="1040">+ Thể loại sách</text></g></g><g transform="translate(-14,-22) scale(1,1)"><g><path fill="none" stroke="none"/><text fill="#000000" stroke="none" font-family="Arial" font-size="13px" font-style="normal" font-weight="normal" text-decoration="none" x="413" y="1055">+ Doanh thu</text></g></g><g transform="translate(-14,-22) scale(1,1)"><g><path fill="none" stroke="none"/><text fill="#000000" stroke="none" font-family="Arial" font-size="13px" font-style="normal" font-weight="normal" text-decoration="none" x="413" y="1070">+ Số lượt thuê</text></g></g><g transform="translate(-14,-22) scale(1,1)"><g><path fill="none" stroke="none"/><text fill="#000000" stroke="none" font-family="Arial" font-size="13px" font-style="normal" font-weight="normal" text-decoration="none" x="413" y="1085">+ Tỷ lệ</text></g></g><g transform="translate(-14,-22) scale(1,1)"><g><path fill="none" stroke="none"/><text fill="#000000" stroke="none" font-family="Arial" font-size="13px" font-style="normal" font-weight="normal" text-decoration="none" x="413" y="1100">+ Tổng doanh thu</text></g></g><g transform="translate(-14,-22) scale(1,1)"><path fill="none" stroke="#000000" d="M 623 1058 L 529 1056" stroke-miterlimit="10" stroke-dasharray="3"/></g><g transform="translate(-14,-22) scale(1,1)"><path fill="#ffffff" stroke="none" d="M 416 1136 L 493 1136 L 503 1146 L 503 1234 L 416 1234 L 416 1136"/></g><g transform="translate(-14,-22) scale(1,1)"><path fill="none" stroke="#000000" d="M 416 1136 L 493 1136 L 503 1146 L 503 1234 L 416 1234 L 416 1136 L 416 1136" stroke-miterlimit="10"/></g><g transform="translate(-14,-22) scale(1,1)"><path fill="none" stroke="#000000" d="M 493 1136 L 493 1146 L 503 1146 L 493 1136" stroke-miterlimit="10"/></g><g transform="translate(-14,-22) scale(1,1)"><g><path fill="none" stroke="none"/><text fill="#000000" stroke="none" font-family="Arial" font-size="13px" font-style="normal" font-weight="normal" text-decoration="none" x="421" y="1154">+ Tháng</text></g></g><g transform="translate(-14,-22) scale(1,1)"><g><path fill="none" stroke="none"/><text fill="#000000" stroke="none" font-family="Arial" font-size="13px" font-style="normal" font-weight="normal" text-decoration="none" x="421" y="1169">+ STT</text></g></g><g transform="translate(-14,-22) scale(1,1)"><g><path fill="none" stroke="none"/><text fill="#000000" stroke="none" font-family="Arial" font-size="13px" font-style="normal" font-weight="normal" text-decoration="none" x="421" y="1184">+ Tên sách</text></g></g><g transform="translate(-14,-22) scale(1,1)"><g><path fill="none" stroke="none"/><text fill="#000000" stroke="none" font-family="Arial" font-size="13px" font-style="normal" font-weight="normal" text-decoration="none" x="421" y="1199">+ Thể loại</text></g></g><g transform="translate(-14,-22) scale(1,1)"><g><path fill="none" stroke="none"/><text fill="#000000" stroke="none" font-family="Arial" font-size="13px" font-style="normal" font-weight="normal" text-decoration="none" x="421" y="1214">+ Số lượng</text></g></g><g transform="translate(-14,-22) scale(1,1)"><g><path fill="none" stroke="none"/><text fill="#000000" stroke="none" font-family="Arial" font-size="13px" font-style="normal" font-weight="normal" text-decoration="none" x="421" y="1229">+ Tỷ lệ</text></g></g><g transform="translate(-14,-22) scale(1,1)"><path fill="none" stroke="#000000" d="M 759 1180 L 505 1184" stroke-miterlimit="10" stroke-dasharray="3"/></g><g transform="translate(-14,-22) scale(1,1)"><path fill="none" stroke="#000000" d="M 1439 604 L 1299 703" stroke-miterlimit="10"/></g><g transform="translate(-14,-22) scale(1,1)"><path fill="#C0C0C0" stroke="none" d="M 1135 259 C 1135 247.954304 1185.1441024 239 1247 239 C 1308.8558976 239 1359 247.954304 1359 259 C 1359 270.045696 1308.8558976 279 1247 279 C 1185.1441024 279 1135 270.045696 1135 259 Z" opacity="0.2"/></g><g transform="translate(-14,-22) scale(1,1)"><path fill="#ffffff" stroke="none" d="M 1128 252 C 1128 240.954304 1178.1441024 232 1240 232 C 1301.8558976 232 1352 240.954304 1352 252 C 1352 263.045696 1301.8558976 272 1240 272 C 1178.1441024 272 1128 263.045696 1128 252 Z"/></g><g transform="translate(-14,-22) scale(1,1)"><path fill="none" stroke="#000000" d="M 1128 252 C 1128 240.954304 1178.1441024 232 1240 232 C 1301.8558976 232 1352 240.954304 1352 252 C 1352 263.045696 1301.8558976 272 1240 272 C 1178.1441024 272 1128 263.045696 1128 252 Z" stroke-miterlimit="10"/></g><g transform="translate(-14,-22) scale(1,1)"><g><path fill="none" stroke="none"/><text fill="#000000" stroke="none" font-family="Arial" font-size="13px" font-style="normal" font-weight="bold" text-decoration="none" x="1176.0283203125" y="259">Thanh toán trực tuyến</text></g></g><g transform="translate(-14,-22) scale(1,1)"><path fill="none" stroke="#000000" d="M 1127 271 L 1033 287" stroke-miterlimit="10"/></g><g transform="translate(-14,-22) scale(1,1)"><path fill="#FFFFFF" stroke="none" d="M 1051.6244513624426 275.2897561320009 L 1033 287 L 1054.4498687026726 291.88908300585183"/></g><g transform="translate(-14,-22) scale(1,1)"><path fill="none" stroke="#000000" d="M 1051.6244513624426 275.2897561320009 L 1033 287 L 1054.4498687026726 291.88908300585183 L 1051.6244513624426 275.2897561320009" stroke-miterlimit="10"/></g><g transform="translate(-14,-22) scale(1,1)"><path fill="#C0C0C0" stroke="none" d="M 415 352 C 415 342.6111584 437.6096176 335 465.5 335 C 493.3903824 335 516 342.6111584 516 352 C 516 361.3888416 493.3903824 369 465.5 369 C 437.6096176 369 415 361.3888416 415 352 Z" opacity="0.2"/></g><g transform="translate(-14,-22) scale(1,1)"><path fill="#ffffff" stroke="none" d="M 408 345 C 408 335.6111584 430.6096176 328 458.5 328 C 486.3903824 328 509 335.6111584 509 345 C 509 354.3888416 486.3903824 362 458.5 362 C 430.6096176 362 408 354.3888416 408 345 Z"/></g><g transform="translate(-14,-22) scale(1,1)"><path fill="none" stroke="#000000" d="M 408 345 C 408 335.6111584 430.6096176 328 458.5 328 C 486.3903824 328 509 335.6111584 509 345 C 509 354.3888416 486.3903824 362 458.5 362 C 430.6096176 362 408 354.3888416 408 345 Z" stroke-miterlimit="10"/></g><g transform="translate(-14,-22) scale(1,1)"><g><path fill="none" stroke="none"/><text fill="#000000" stroke="none" font-family="Arial" font-size="13px" font-style="normal" font-weight="bold" text-decoration="none" x="430.319580078125" y="352">Mua sách</text></g></g><g transform="translate(-14,-22) scale(1,1)"><path fill="none" stroke="#000000" d="M 273 368 L 407 351" stroke-miterlimit="10"/></g><g transform="translate(-14,-22) scale(1,1)"><path fill="#C0C0C0" stroke="none" d="M 647 393 C 647 378.6405952 675.6537728 367 711 367 C 746.3462272 367 775 378.6405952 775 393 C 775 407.3594048 746.3462272 419 711 419 C 675.6537728 419 647 407.3594048 647 393 Z" opacity="0.2"/></g><g transform="translate(-14,-22) scale(1,1)"><path fill="#ffffff" stroke="none" d="M 640 386 C 640 371.6405952 668.6537728 360 704 360 C 739.3462272 360 768 371.6405952 768 386 C 768 400.3594048 739.3462272 412 704 412 C 668.6537728 412 640 400.3594048 640 386 Z"/></g><g transform="translate(-14,-22) scale(1,1)"><path fill="none" stroke="#000000" d="M 640 386 C 640 371.6405952 668.6537728 360 704 360 C 739.3462272 360 768 371.6405952 768 386 C 768 400.3594048 739.3462272 412 704 412 C 668.6537728 412 640 400.3594048 640 386 Z" stroke-miterlimit="10"/></g><g transform="translate(-14,-22) scale(1,1)"><g><path fill="none" stroke="none"/><text fill="#000000" stroke="none" font-family="Arial" font-size="13px" font-style="normal" font-weight="bold" text-decoration="none" x="667.148681640625" y="386.5">Mua sách tại</text><text fill="#000000" stroke="none" font-family="Arial" font-size="13px" font-style="normal" font-weight="bold" text-decoration="none" x="677.619140625" y="399.5">nhà sách</text></g></g><g transform="translate(-14,-22) scale(1,1)"><path fill="none" stroke="#000000" d="M 639 375 L 510 354" stroke-miterlimit="10"/></g><g transform="translate(-14,-22) scale(1,1)"><path fill="#FFFFFF" stroke="none" d="M 531.4140015326732 348.9561385468402 L 510 354 L 528.708534332987 365.57543705919755"/></g><g transform="translate(-14,-22) scale(1,1)"><path fill="none" stroke="#000000" d="M 531.4140015326732 348.9561385468402 L 510 354 L 528.708534332987 365.57543705919755 L 531.4140015326732 348.9561385468402" stroke-miterlimit="10"/></g><g transform="translate(-14,-22) scale(1,1)"><path fill="none" stroke="#000000" d="M 631 304 L 510 333" stroke-miterlimit="10"/></g><g transform="translate(-14,-22) scale(1,1)"><path fill="#FFFFFF" stroke="none" d="M 527.8033777996255 320.07561456301306 L 510 333 L 531.7278097553034 336.44996858497916"/></g><g transform="translate(-14,-22) scale(1,1)"><path fill="none" stroke="#000000" d="M 527.8033777996255 320.07561456301306 L 510 333 L 531.7278097553034 336.44996858497916 L 527.8033777996255 320.07561456301306" stroke-miterlimit="10"/></g><g transform="translate(-14,-22) scale(1,1)"><path fill="none" stroke="#000000" d="M 828 185 L 932 271" stroke-miterlimit="10" stroke-dasharray="3"/></g><g transform="translate(-14,-22) scale(1,1)"><path fill="none" stroke="#000000" d="M 921.4856070291077 267.76773447042956 L 932 271 L 926.8507583047766 261.27964455566706" stroke-miterlimit="10"/></g><g transform="translate(-14,-22) scale(1,1)"><g><path fill="none" stroke="none"/><text fill="#000000" stroke="none" font-family="Arial" font-size="13px" font-style="normal" font-weight="normal" text-decoration="none" x="896.5" y="246.5">«extend»</text></g></g><g transform="translate(-14,-22) scale(1,1)"><path fill="#ffffff" stroke="none" d="M 952 120 L 1221 120 L 1231 130 L 1231 179 L 952 179 L 952 120"/></g><g transform="translate(-14,-22) scale(1,1)"><path fill="none" stroke="#000000" d="M 952 120 L 1221 120 L 1231 130 L 1231 179 L 952 179 L 952 120 L 952 120" stroke-miterlimit="10"/></g><g transform="translate(-14,-22) scale(1,1)"><path fill="none" stroke="#000000" d="M 1221 120 L 1221 130 L 1231 130 L 1221 120" stroke-miterlimit="10"/></g><g transform="translate(-14,-22) scale(1,1)"><g><path fill="none" stroke="none"/><text fill="#000000" stroke="none" font-family="Arial" font-size="13px" font-style="normal" font-weight="normal" text-decoration="none" x="957" y="138">Điều kiện: {Khách hàng nhấn [Huỷ đơn hàng]}</text></g></g><g transform="translate(-14,-22) scale(1,1)"><g><path fill="none" stroke="none"/><text fill="#000000" stroke="none" font-family="Arial" font-size="13px" font-style="normal" font-weight="normal" text-decoration="none" x="957" y="153">Điểm mở rộng: Huỷ đơn hàng</text></g></g><g transform="translate(-14,-22) scale(1,1)"><path fill="none" stroke="#000000" d="M 880 228 L 1008 181" stroke-miterlimit="10" stroke-dasharray="3"/></g><g transform="translate(-14,-22) scale(1,1)"><path fill="none" stroke="#000000" d="M 769 386 L 1143 386" stroke-miterlimit="10" stroke-dasharray="3"/></g><g transform="translate(-14,-22) scale(1,1)"><path fill="none" stroke="#000000" d="M 1132.837325142376 390.209517756016 L 1143 386 L 1132.837325142376 381.790482243984" stroke-miterlimit="10"/></g><g transform="translate(-14,-22) scale(1,1)"><g><path fill="none" stroke="none"/><text fill="#000000" stroke="none" font-family="Arial" font-size="13px" font-style="normal" font-weight="normal" text-decoration="none" x="903.5" y="379.5">«include»</text></g></g><g transform="translate(-14,-22) scale(1,1)"><path fill="none" stroke="#000000" d="M 273 572 L 429 521" stroke-miterlimit="10"/></g><g transform="translate(-14,-22) scale(1,1)"><path fill="#C0C0C0" stroke="none" d="M 991 824 C 991 814.6111584 1013.6096176 807 1041.5 807 C 1069.3903824 807 1092 814.6111584 1092 824 C 1092 833.3888416 1069.3903824 841 1041.5 841 C 1013.6096176 841 991 833.3888416 991 824 Z" opacity="0.2"/></g><g transform="translate(-14,-22) scale(1,1)"><path fill="#ffffff" stroke="none" d="M 984 817 C 984 807.6111584 1006.6096176 800 1034.5 800 C 1062.3903824 800 1085 807.6111584 1085 817 C 1085 826.3888416 1062.3903824 834 1034.5 834 C 1006.6096176 834 984 826.3888416 984 817 Z"/></g><g transform="translate(-14,-22) scale(1,1)"><path fill="none" stroke="#000000" d="M 984 817 C 984 807.6111584 1006.6096176 800 1034.5 800 C 1062.3903824 800 1085 807.6111584 1085 817 C 1085 826.3888416 1062.3903824 834 1034.5 834 C 1006.6096176 834 984 826.3888416 984 817 Z" stroke-miterlimit="10"/></g><g transform="translate(-14,-22) scale(1,1)"><g><path fill="none" stroke="none"/><text fill="#000000" stroke="none" font-family="Arial" font-size="13px" font-style="normal" font-weight="bold" text-decoration="none" x="1007.398681640625" y="824">Xoá sách</text></g></g><g transform="translate(-14,-22) scale(1,1)"><path fill="#C0C0C0" stroke="none" d="M 959 768 C 959 758.6111584 989.8923488 751 1028 751 C 1066.1076512 751 1097 758.6111584 1097 768 C 1097 777.3888416 1066.1076512 785 1028 785 C 989.8923488 785 959 777.3888416 959 768 Z" opacity="0.2"/></g><g transform="translate(-14,-22) scale(1,1)"><path fill="#ffffff" stroke="none" d="M 952 761 C 952 751.6111584 982.8923488 744 1021 744 C 1059.1076512 744 1090 751.6111584 1090 761 C 1090 770.3888416 1059.1076512 778 1021 778 C 982.8923488 778 952 770.3888416 952 761 Z"/></g><g transform="translate(-14,-22) scale(1,1)"><path fill="none" stroke="#000000" d="M 952 761 C 952 751.6111584 982.8923488 744 1021 744 C 1059.1076512 744 1090 751.6111584 1090 761 C 1090 770.3888416 1059.1076512 778 1021 778 C 982.8923488 778 952 770.3888416 952 761 Z" stroke-miterlimit="10"/></g><g transform="translate(-14,-22) scale(1,1)"><g><path fill="none" stroke="none"/><text fill="#000000" stroke="none" font-family="Arial" font-size="13px" font-style="normal" font-weight="bold" text-decoration="none" x="979.083251953125" y="768">Cập nhật sách</text></g></g><g transform="translate(-14,-22) scale(1,1)"><path fill="#C0C0C0" stroke="none" d="M 975 704 C 975 694.6111584 999.4004784 687 1029.5 687 C 1059.5995216000001 687 1084 694.6111584 1084 704 C 1084 713.3888416 1059.5995216000001 721 1029.5 721 C 999.4004784 721 975 713.3888416 975 704 Z" opacity="0.2"/></g><g transform="translate(-14,-22) scale(1,1)"><path fill="#ffffff" stroke="none" d="M 968 697 C 968 687.6111584 992.4004784 680 1022.5 680 C 1052.5995216000001 680 1077 687.6111584 1077 697 C 1077 706.3888416 1052.5995216000001 714 1022.5 714 C 992.4004784 714 968 706.3888416 968 697 Z"/></g><g transform="translate(-14,-22) scale(1,1)"><path fill="none" stroke="#000000" d="M 968 697 C 968 687.6111584 992.4004784 680 1022.5 680 C 1052.5995216000001 680 1077 687.6111584 1077 697 C 1077 706.3888416 1052.5995216000001 714 1022.5 714 C 992.4004784 714 968 706.3888416 968 697 Z" stroke-miterlimit="10"/></g><g transform="translate(-14,-22) scale(1,1)"><g><path fill="none" stroke="none"/><text fill="#000000" stroke="none" font-family="Arial" font-size="13px" font-style="normal" font-weight="bold" text-decoration="none" x="990.34912109375" y="704">Thêm sách</text></g></g><g transform="translate(-14,-22) scale(1,1)"><path fill="none" stroke="#000000" d="M 1081 799 L 1199 753" stroke-miterlimit="10"/></g><g transform="translate(-14,-22) scale(1,1)"><path fill="#FFFFFF" stroke="none" d="M 1183.1205718005197 768.2264165205589 L 1199 753 L 1177.0048462639245 752.5382510136408"/></g><g transform="translate(-14,-22) scale(1,1)"><path fill="none" stroke="#000000" d="M 1183.1205718005197 768.2264165205589 L 1199 753 L 1177.0048462639245 752.5382510136408 L 1183.1205718005197 768.2264165205589" stroke-miterlimit="10"/></g><g transform="translate(-14,-22) scale(1,1)"><path fill="none" stroke="#000000" d="M 1078 704 L 1191 719" stroke-miterlimit="10"/></g><g transform="translate(-14,-22) scale(1,1)"><path fill="#FFFFFF" stroke="none" d="M 1169.743539317024 724.6712326026263 L 1191 719 L 1171.959245476039 707.9795795380458"/></g><g transform="translate(-14,-22) scale(1,1)"><path fill="none" stroke="#000000" d="M 1169.743539317024 724.6712326026263 L 1191 719 L 1171.959245476039 707.9795795380458 L 1169.743539317024 724.6712326026263" stroke-miterlimit="10"/></g><g transform="translate(-14,-22) scale(1,1)"><path fill="none" stroke="#000000" d="M 1091 751 L 1191 738" stroke-miterlimit="10"/></g><g transform="translate(-14,-22) scale(1,1)"><path fill="#FFFFFF" stroke="none" d="M 1171.9295946819636 748.9690309966657 L 1191 738 L 1169.7589108788527 732.2714632804282"/></g><g transform="translate(-14,-22) scale(1,1)"><path fill="none" stroke="#000000" d="M 1171.9295946819636 748.9690309966657 L 1191 738 L 1169.7589108788527 732.2714632804282 L 1171.9295946819636 748.9690309966657" stroke-miterlimit="10"/></g><g transform="translate(-14,-22) scale(1,1)"><path fill="none" stroke="#000000" d="M 1492 519 L 1488 32 L 224 32 L 222 111" stroke-miterlimit="10"/></g><g transform="translate(-14,-22) scale(1,1)"><path fill="#FFFFFF" stroke="none" d="M 214.0980621644982 90.46808877761583 L 222 111 L 230.93073982807016 90.8942325159341"/></g><g transform="translate(-14,-22) scale(1,1)"><path fill="none" stroke="#000000" d="M 214.0980621644982 90.46808877761583 L 222 111 L 230.93073982807016 90.8942325159341 L 214.0980621644982 90.46808877761583" stroke-miterlimit="10"/></g><g transform="translate(-14,-22) scale(1,1)"><path fill="none" stroke="#000000" d="M 273 173 L 391 192" stroke-miterlimit="10"/></g><g transform="translate(-14,-22) scale(1,1)"><path fill="#C0C0C0" stroke="none" d="M 727 584 C 727 574.6111584 754.0867696 567 787.5 567 C 820.9132304 567 848 574.6111584 848 584 C 848 593.3888416 820.9132304 601 787.5 601 C 754.0867696 601 727 593.3888416 727 584 Z" opacity="0.2"/></g><g transform="translate(-14,-22) scale(1,1)"><path fill="#ffffff" stroke="none" d="M 720 577 C 720 567.6111584 747.0867696 560 780.5 560 C 813.9132304 560 841 567.6111584 841 577 C 841 586.3888416 813.9132304 594 780.5 594 C 747.0867696 594 720 586.3888416 720 577 Z"/></g><g transform="translate(-14,-22) scale(1,1)"><path fill="none" stroke="#000000" d="M 720 577 C 720 567.6111584 747.0867696 560 780.5 560 C 813.9132304 560 841 567.6111584 841 577 C 841 586.3888416 813.9132304 594 780.5 594 C 747.0867696 594 720 586.3888416 720 577 Z" stroke-miterlimit="10"/></g><g transform="translate(-14,-22) scale(1,1)"><g><path fill="none" stroke="none"/><text fill="#000000" stroke="none" font-family="Arial" font-size="13px" font-style="normal" font-weight="bold" text-decoration="none" x="744.480224609375" y="584">Viết báo cáo</text></g></g><g transform="translate(-14,-22) scale(1,1)"><path fill="none" stroke="#000000" d="M 273 589 L 719 578" stroke-miterlimit="10"/></g><g transform="translate(-14,-22) scale(1,1)"><path fill="none" stroke="#000000" d="M 1439 567 L 842 576" stroke-miterlimit="10"/></g><g transform="translate(-14,-22) scale(1,1)"><path fill="#C0C0C0" stroke="none" d="M 959 632 C 959 622.6111584 990.1162064 615 1028.5 615 C 1066.8837936 615 1098 622.6111584 1098 632 C 1098 641.3888416 1066.8837936 649 1028.5 649 C 990.1162064 649 959 641.3888416 959 632 Z" opacity="0.2"/></g><g transform="translate(-14,-22) scale(1,1)"><path fill="#ffffff" stroke="none" d="M 952 625 C 952 615.6111584 983.1162064 608 1021.5 608 C 1059.8837936 608 1091 615.6111584 1091 625 C 1091 634.3888416 1059.8837936 642 1021.5 642 C 983.1162064 642 952 634.3888416 952 625 Z"/></g><g transform="translate(-14,-22) scale(1,1)"><path fill="none" stroke="#000000" d="M 952 625 C 952 615.6111584 983.1162064 608 1021.5 608 C 1059.8837936 608 1091 615.6111584 1091 625 C 1091 634.3888416 1059.8837936 642 1021.5 642 C 983.1162064 642 952 634.3888416 952 625 Z" stroke-miterlimit="10"/></g><g transform="translate(-14,-22) scale(1,1)"><g><path fill="none" stroke="none"/><text fill="#000000" stroke="none" font-family="Arial" font-size="13px" font-style="normal" font-weight="bold" text-decoration="none" x="979.24365234375" y="632">Tìm kiếm sách</text></g></g><g transform="translate(-14,-22) scale(1,1)"><path fill="none" stroke="#000000" d="M 1063 643 L 1205 703" stroke-miterlimit="10"/></g><g transform="translate(-14,-22) scale(1,1)"><path fill="#FFFFFF" stroke="none" d="M 1183.0005517022357 702.8441969384207 L 1205 703 L 1189.5542103276605 687.3338715249157"/></g><g transform="translate(-14,-22) scale(1,1)"><path fill="none" stroke="#000000" d="M 1183.0005517022357 702.8441969384207 L 1205 703 L 1189.5542103276605 687.3338715249157 L 1183.0005517022357 702.8441969384207" stroke-miterlimit="10"/></g><g transform="translate(-14,-22) scale(1,1)"><path fill="none" stroke="#000000" d="M 874 831 L 787 595" stroke-miterlimit="10" stroke-dasharray="3"/></g><g transform="translate(-14,-22) scale(1,1)"><path fill="none" stroke="#000000" d="M 794.4648496787706 603.0793576027651 L 787 595 L 786.5654772798506 605.9914143769432" stroke-miterlimit="10"/></g><g transform="translate(-14,-22) scale(1,1)"><g><path fill="none" stroke="none"/><text fill="#000000" stroke="none" font-family="Arial" font-size="13px" font-style="normal" font-weight="normal" text-decoration="none" x="773.5" y="729.5">«include»</text></g></g></g></svg>