<svg version="1.1" xmlns="http://www.w3.org/2000/svg" xmlns:xlink="http://www.w3.org/1999/xlink" width="1500" height="1333"><defs/><g><g transform="translate(-54,-6) scale(1,1)"><rect fill="#C0C0C0" stroke="none" x="335" y="71" width="1064" height="1216" opacity="0.2"/></g><g transform="translate(-54,-6) scale(1,1)"><rect fill="#ffffff" stroke="none" x="328" y="64" width="1064" height="1216"/></g><g transform="translate(-54,-6) scale(1,1)"><path fill="none" stroke="#000000" d="M 328 64 L 1392 64 L 1392 1280 L 328 1280 L 328 64 Z Z" stroke-miterlimit="10"/></g><g transform="translate(-54,-6) scale(1,1)"><g><path fill="none" stroke="none"/><text fill="#000000" stroke="none" font-family="Arial" font-size="13px" font-style="normal" font-weight="bold" text-decoration="none" x="780.00048828125" y="83.5">Ứng dụng quản lý nhà sách</text></g></g><g transform="translate(-54,-6) scale(1,1)"><path fill="#ffffff" stroke="none" d="M 209.2312727272727 451.89 C 209.2312727272727 445.875618528 214.05259561192727 441 220 441 C 225.94740438807273 441 230.7687272727273 445.875618528 230.7687272727273 451.89 C 230.7687272727273 457.90438147199995 225.94740438807273 462.78 220 462.78 C 214.05259561192727 462.78 209.2312727272727 457.90438147199995 209.2312727272727 451.89 Z"/></g><g transform="translate(-54,-6) scale(1,1)"><path fill="none" stroke="#000000" d="M 209.2312727272727 451.89 C 209.2312727272727 445.875618528 214.05259561192727 441 220 441 C 225.94740438807273 441 230.7687272727273 445.875618528 230.7687272727273 451.89 C 230.7687272727273 457.90438147199995 225.94740438807273 462.78 220 462.78 C 214.05259561192727 462.78 209.2312727272727 457.90438147199995 209.2312727272727 451.89 Z" stroke-miterlimit="10"/></g><g transform="translate(-54,-6) scale(1,1)"><path fill="none" stroke="#000000" d="M 220 462.78 L 220 484.22" stroke-miterlimit="10"/></g><g transform="translate(-54,-6) scale(1,1)"><path fill="none" stroke="#000000" d="M 208.59781818181818 470.82 L 231.40218181818182 470.82" stroke-miterlimit="10"/></g><g transform="translate(-54,-6) scale(1,1)"><path fill="none" stroke="#000000" d="M 220 484.22 L 204.16363636363636 506" stroke-miterlimit="10"/></g><g transform="translate(-54,-6) scale(1,1)"><path fill="none" stroke="#000000" d="M 220 484.22 L 235.83636363636364 506" stroke-miterlimit="10"/></g><g transform="translate(-54,-6) scale(1,1)"><g><path fill="none" stroke="none"/><text fill="#000000" stroke="none" font-family="Arial" font-size="13px" font-style="normal" font-weight="bold" text-decoration="none" x="185.3037109375" y="526.5">Khách hàng</text></g></g><g transform="translate(-54,-6) scale(1,1)"><path fill="#ffffff" stroke="none" d="M 209.2312727272727 851.89 C 209.2312727272727 845.875618528 214.05259561192727 841 220 841 C 225.94740438807273 841 230.7687272727273 845.875618528 230.7687272727273 851.89 C 230.7687272727273 857.904381472 225.94740438807273 862.78 220 862.78 C 214.05259561192727 862.78 209.2312727272727 857.904381472 209.2312727272727 851.89 Z"/></g><g transform="translate(-54,-6) scale(1,1)"><path fill="none" stroke="#000000" d="M 209.2312727272727 851.89 C 209.2312727272727 845.875618528 214.05259561192727 841 220 841 C 225.94740438807273 841 230.7687272727273 845.875618528 230.7687272727273 851.89 C 230.7687272727273 857.904381472 225.94740438807273 862.78 220 862.78 C 214.05259561192727 862.78 209.2312727272727 857.904381472 209.2312727272727 851.89 Z" stroke-miterlimit="10"/></g><g transform="translate(-54,-6) scale(1,1)"><path fill="none" stroke="#000000" d="M 220 862.78 L 220 884.22" stroke-miterlimit="10"/></g><g transform="translate(-54,-6) scale(1,1)"><path fill="none" stroke="#000000" d="M 208.59781818181818 870.82 L 231.40218181818182 870.82" stroke-miterlimit="10"/></g><g transform="translate(-54,-6) scale(1,1)"><path fill="none" stroke="#000000" d="M 220 884.22 L 204.16363636363636 906" stroke-miterlimit="10"/></g><g transform="translate(-54,-6) scale(1,1)"><path fill="none" stroke="#000000" d="M 220 884.22 L 235.83636363636364 906" stroke-miterlimit="10"/></g><g transform="translate(-54,-6) scale(1,1)"><g><path fill="none" stroke="none"/><text fill="#000000" stroke="none" font-family="Arial" font-size="13px" font-style="normal" font-weight="bold" text-decoration="none" x="190.73095703125" y="926.5">Nhân viên</text></g></g><g transform="translate(-54,-6) scale(1,1)"><path fill="#ffffff" stroke="none" d="M 1481.2312727272727 851.89 C 1481.2312727272727 845.875618528 1486.0525956119272 841 1492 841 C 1497.9474043880728 841 1502.7687272727273 845.875618528 1502.7687272727273 851.89 C 1502.7687272727273 857.904381472 1497.9474043880728 862.78 1492 862.78 C 1486.0525956119272 862.78 1481.2312727272727 857.904381472 1481.2312727272727 851.89 Z"/></g><g transform="translate(-54,-6) scale(1,1)"><path fill="none" stroke="#000000" d="M 1481.2312727272727 851.89 C 1481.2312727272727 845.875618528 1486.0525956119272 841 1492 841 C 1497.9474043880728 841 1502.7687272727273 845.875618528 1502.7687272727273 851.89 C 1502.7687272727273 857.904381472 1497.9474043880728 862.78 1492 862.78 C 1486.0525956119272 862.78 1481.2312727272727 857.904381472 1481.2312727272727 851.89 Z" stroke-miterlimit="10"/></g><g transform="translate(-54,-6) scale(1,1)"><path fill="none" stroke="#000000" d="M 1492 862.78 L 1492 884.22" stroke-miterlimit="10"/></g><g transform="translate(-54,-6) scale(1,1)"><path fill="none" stroke="#000000" d="M 1480.5978181818182 870.82 L 1503.4021818181818 870.82" stroke-miterlimit="10"/></g><g transform="translate(-54,-6) scale(1,1)"><path fill="none" stroke="#000000" d="M 1492 884.22 L 1476.1636363636362 906" stroke-miterlimit="10"/></g><g transform="translate(-54,-6) scale(1,1)"><path fill="none" stroke="#000000" d="M 1492 884.22 L 1507.8363636363638 906" stroke-miterlimit="10"/></g><g transform="translate(-54,-6) scale(1,1)"><g><path fill="none" stroke="none"/><text fill="#000000" stroke="none" font-family="Arial" font-size="13px" font-style="normal" font-weight="bold" text-decoration="none" x="1457.313232421875" y="926.5">Quản lý kho</text></g></g><g transform="translate(-54,-6) scale(1,1)"><path fill="#ffffff" stroke="none" d="M 1481.2312727272727 1147.8899999999999 C 1481.2312727272727 1141.875618528 1486.0525956119272 1137 1492 1137 C 1497.9474043880728 1137 1502.7687272727273 1141.875618528 1502.7687272727273 1147.8899999999999 C 1502.7687272727273 1153.9043814719998 1497.9474043880728 1158.78 1492 1158.78 C 1486.0525956119272 1158.78 1481.2312727272727 1153.9043814719998 1481.2312727272727 1147.8899999999999 Z"/></g><g transform="translate(-54,-6) scale(1,1)"><path fill="none" stroke="#000000" d="M 1481.2312727272727 1147.8899999999999 C 1481.2312727272727 1141.875618528 1486.0525956119272 1137 1492 1137 C 1497.9474043880728 1137 1502.7687272727273 1141.875618528 1502.7687272727273 1147.8899999999999 C 1502.7687272727273 1153.9043814719998 1497.9474043880728 1158.78 1492 1158.78 C 1486.0525956119272 1158.78 1481.2312727272727 1153.9043814719998 1481.2312727272727 1147.8899999999999 Z" stroke-miterlimit="10"/></g><g transform="translate(-54,-6) scale(1,1)"><path fill="none" stroke="#000000" d="M 1492 1158.78 L 1492 1180.22" stroke-miterlimit="10"/></g><g transform="translate(-54,-6) scale(1,1)"><path fill="none" stroke="#000000" d="M 1480.5978181818182 1166.82 L 1503.4021818181818 1166.82" stroke-miterlimit="10"/></g><g transform="translate(-54,-6) scale(1,1)"><path fill="none" stroke="#000000" d="M 1492 1180.22 L 1476.1636363636362 1202" stroke-miterlimit="10"/></g><g transform="translate(-54,-6) scale(1,1)"><path fill="none" stroke="#000000" d="M 1492 1180.22 L 1507.8363636363638 1202" stroke-miterlimit="10"/></g><g transform="translate(-54,-6) scale(1,1)"><g><path fill="none" stroke="none"/><text fill="#000000" stroke="none" font-family="Arial" font-size="13px" font-style="normal" font-weight="bold" text-decoration="none" x="1450.146728515625" y="1222.5">Người quản trị</text></g></g><g transform="translate(-54,-6) scale(1,1)"><path fill="#C0C0C0" stroke="none" d="M 1151 361 C 1151 346.6405952 1195.77152 335 1251 335 C 1306.22848 335 1351 346.6405952 1351 361 C 1351 375.3594048 1306.22848 387 1251 387 C 1195.77152 387 1151 375.3594048 1151 361 Z" opacity="0.2"/></g><g transform="translate(-54,-6) scale(1,1)"><path fill="#ffffff" stroke="none" d="M 1144 354 C 1144 339.6405952 1188.77152 328 1244 328 C 1299.22848 328 1344 339.6405952 1344 354 C 1344 368.3594048 1299.22848 380 1244 380 C 1188.77152 380 1144 368.3594048 1144 354 Z"/></g><g transform="translate(-54,-6) scale(1,1)"><path fill="none" stroke="#000000" d="M 1144 354 C 1144 339.6405952 1188.77152 328 1244 328 C 1299.22848 328 1344 339.6405952 1344 354 C 1344 368.3594048 1299.22848 380 1244 380 C 1188.77152 380 1144 368.3594048 1144 354 Z" stroke-miterlimit="10"/></g><g transform="translate(-54,-6) scale(1,1)"><g><path fill="none" stroke="none"/><text fill="#000000" stroke="none" font-family="Arial" font-size="13px" font-style="normal" font-weight="bold" text-decoration="none" x="1185.44921875" y="354.5">Thanh toán trực tiếp</text><text fill="#000000" stroke="none" font-family="Arial" font-size="13px" font-style="normal" font-weight="bold" text-decoration="none" x="1208.9482421875" y="367.5">tại nhà sách</text></g></g><g transform="translate(-54,-6) scale(1,1)"><path fill="#C0C0C0" stroke="none" d="M 895 329 C 895 314.6405952 925.4446336 303 963 303 C 1000.5553664 303 1031 314.6405952 1031 329 C 1031 343.3594048 1000.5553664 355 963 355 C 925.4446336 355 895 343.3594048 895 329 Z" opacity="0.2"/></g><g transform="translate(-54,-6) scale(1,1)"><path fill="#ffffff" stroke="none" d="M 888 322 C 888 307.6405952 918.4446336 296 956 296 C 993.5553664 296 1024 307.6405952 1024 322 C 1024 336.3594048 993.5553664 348 956 348 C 918.4446336 348 888 336.3594048 888 322 Z"/></g><g transform="translate(-54,-6) scale(1,1)"><path fill="none" stroke="#000000" d="M 888 322 C 888 307.6405952 918.4446336 296 956 296 C 993.5553664 296 1024 307.6405952 1024 322 C 1024 336.3594048 993.5553664 348 956 348 C 918.4446336 348 888 336.3594048 888 322 Z" stroke-miterlimit="10"/></g><g transform="translate(-54,-6) scale(1,1)"><g><path fill="none" stroke="none"/><text fill="#000000" stroke="none" font-family="Arial" font-size="13px" font-style="normal" font-weight="bold" text-decoration="none" x="923.11279296875" y="322.5">Thanh toán</text><text fill="#000000" stroke="none" font-family="Arial" font-size="13px" font-style="normal" font-weight="bold" text-decoration="none" x="928.24169921875" y="335.5">đơn hàng</text></g></g><g transform="translate(-54,-6) scale(1,1)"><path fill="#C0C0C0" stroke="none" d="M 439 347 C 439 335.954304 469.4446336 327 507 327 C 544.5553664 327 575 335.954304 575 347 C 575 358.045696 544.5553664 367 507 367 C 469.4446336 367 439 358.045696 439 347 Z" opacity="0.2"/></g><g transform="translate(-54,-6) scale(1,1)"><path fill="#ffffff" stroke="none" d="M 432 340 C 432 328.954304 462.4446336 320 500 320 C 537.5553664 320 568 328.954304 568 340 C 568 351.045696 537.5553664 360 500 360 C 462.4446336 360 432 351.045696 432 340 Z"/></g><g transform="translate(-54,-6) scale(1,1)"><path fill="none" stroke="#000000" d="M 432 340 C 432 328.954304 462.4446336 320 500 320 C 537.5553664 320 568 328.954304 568 340 C 568 351.045696 537.5553664 360 500 360 C 462.4446336 360 432 351.045696 432 340 Z" stroke-miterlimit="10"/></g><g transform="translate(-54,-6) scale(1,1)"><g><path fill="none" stroke="none"/><text fill="#000000" stroke="none" font-family="Arial" font-size="13px" font-style="normal" font-weight="bold" text-decoration="none" x="461.93310546875" y="347">Tra cứu sách</text></g></g><g transform="translate(-54,-6) scale(1,1)"><path fill="#C0C0C0" stroke="none" d="M 799 175 C 799 161.7451648 830.5639216 151 869.5 151 C 908.4360784 151 940 161.7451648 940 175 C 940 188.2548352 908.4360784 199 869.5 199 C 830.5639216 199 799 188.2548352 799 175 Z" opacity="0.2"/></g><g transform="translate(-54,-6) scale(1,1)"><path fill="#ffffff" stroke="none" d="M 792 168 C 792 154.7451648 823.5639216 144 862.5 144 C 901.4360784 144 933 154.7451648 933 168 C 933 181.2548352 901.4360784 192 862.5 192 C 823.5639216 192 792 181.2548352 792 168 Z"/></g><g transform="translate(-54,-6) scale(1,1)"><path fill="none" stroke="#000000" d="M 792 168 C 792 154.7451648 823.5639216 144 862.5 144 C 901.4360784 144 933 154.7451648 933 168 C 933 181.2548352 901.4360784 192 862.5 192 C 823.5639216 192 792 181.2548352 792 168 Z" stroke-miterlimit="10"/></g><g transform="translate(-54,-6) scale(1,1)"><g><path fill="none" stroke="none"/><text fill="#000000" stroke="none" font-family="Arial" font-size="13px" font-style="normal" font-weight="bold" text-decoration="none" x="821.376708984375" y="175">Huỷ đơn hàng</text></g></g><g transform="translate(-54,-6) scale(1,1)"><path fill="#C0C0C0" stroke="none" d="M 679 281 C 679 266.6405952 704.0720512 255 735 255 C 765.9279488 255 791 266.6405952 791 281 C 791 295.3594048 765.9279488 307 735 307 C 704.0720512 307 679 295.3594048 679 281 Z" opacity="0.2"/></g><g transform="translate(-54,-6) scale(1,1)"><path fill="#ffffff" stroke="none" d="M 672 274 C 672 259.6405952 697.0720512 248 728 248 C 758.9279488 248 784 259.6405952 784 274 C 784 288.3594048 758.9279488 300 728 300 C 697.0720512 300 672 288.3594048 672 274 Z"/></g><g transform="translate(-54,-6) scale(1,1)"><path fill="none" stroke="#000000" d="M 672 274 C 672 259.6405952 697.0720512 248 728 248 C 758.9279488 248 784 259.6405952 784 274 C 784 288.3594048 758.9279488 300 728 300 C 697.0720512 300 672 288.3594048 672 274 Z" stroke-miterlimit="10"/></g><g transform="translate(-54,-6) scale(1,1)"><g><path fill="none" stroke="none"/><text fill="#000000" stroke="none" font-family="Arial" font-size="13px" font-style="normal" font-weight="bold" text-decoration="none" x="699.819580078125" y="274.5">Mua sách</text><text fill="#000000" stroke="none" font-family="Arial" font-size="13px" font-style="normal" font-weight="bold" text-decoration="none" x="698.721435546875" y="287.5">trực tuyến</text></g></g><g transform="translate(-54,-6) scale(1,1)"><path fill="#C0C0C0" stroke="none" d="M 1103 1107 C 1103 1091.5360256 1154.9349632 1079 1219 1079 C 1283.0650368 1079 1335 1091.5360256 1335 1107 C 1335 1122.4639744 1283.0650368 1135 1219 1135 C 1154.9349632 1135 1103 1122.4639744 1103 1107 Z" opacity="0.2"/></g><g transform="translate(-54,-6) scale(1,1)"><path fill="#ffffff" stroke="none" d="M 1096 1100 C 1096 1084.5360256 1147.9349632 1072 1212 1072 C 1276.0650368 1072 1328 1084.5360256 1328 1100 C 1328 1115.4639744 1276.0650368 1128 1212 1128 C 1147.9349632 1128 1096 1115.4639744 1096 1100 Z"/></g><g transform="translate(-54,-6) scale(1,1)"><path fill="none" stroke="#000000" d="M 1096 1100 C 1096 1084.5360256 1147.9349632 1072 1212 1072 C 1276.0650368 1072 1328 1084.5360256 1328 1100 C 1328 1115.4639744 1276.0650368 1128 1212 1128 C 1147.9349632 1128 1096 1115.4639744 1096 1100 Z" stroke-miterlimit="10"/></g><g transform="translate(-54,-6) scale(1,1)"><g><path fill="none" stroke="none"/><text fill="#000000" stroke="none" font-family="Arial" font-size="13px" font-style="normal" font-weight="bold" text-decoration="none" x="1152.017822265625" y="1100.5">Thay đổi quy định số</text><text fill="#000000" stroke="none" font-family="Arial" font-size="13px" font-style="normal" font-weight="bold" text-decoration="none" x="1146.647705078125" y="1113.5">lượng nhập và tồn kho</text></g></g><g transform="translate(-54,-6) scale(1,1)"><path fill="#C0C0C0" stroke="none" d="M 1127 977 C 1127 962.6405952 1168.1897984 951 1219 951 C 1269.8102016 951 1311 962.6405952 1311 977 C 1311 991.3594048 1269.8102016 1003 1219 1003 C 1168.1897984 1003 1127 991.3594048 1127 977 Z" opacity="0.2"/></g><g transform="translate(-54,-6) scale(1,1)"><path fill="#ffffff" stroke="none" d="M 1120 970 C 1120 955.6405952 1161.1897984 944 1212 944 C 1262.8102016 944 1304 955.6405952 1304 970 C 1304 984.3594048 1262.8102016 996 1212 996 C 1161.1897984 996 1120 984.3594048 1120 970 Z"/></g><g transform="translate(-54,-6) scale(1,1)"><path fill="none" stroke="#000000" d="M 1120 970 C 1120 955.6405952 1161.1897984 944 1212 944 C 1262.8102016 944 1304 955.6405952 1304 970 C 1304 984.3594048 1262.8102016 996 1212 996 C 1161.1897984 996 1120 984.3594048 1120 970 Z" stroke-miterlimit="10"/></g><g transform="translate(-54,-6) scale(1,1)"><g><path fill="none" stroke="none"/><text fill="#000000" stroke="none" font-family="Arial" font-size="13px" font-style="normal" font-weight="bold" text-decoration="none" x="1160.688720703125" y="977">Thay đổi quy định</text></g></g><g transform="translate(-54,-6) scale(1,1)"><path fill="#C0C0C0" stroke="none" d="M 895 1107 C 895 1091.5360256 934.3989376 1079 983 1079 C 1031.6010624 1079 1071 1091.5360256 1071 1107 C 1071 1122.4639744 1031.6010624 1135 983 1135 C 934.3989376 1135 895 1122.4639744 895 1107 Z" opacity="0.2"/></g><g transform="translate(-54,-6) scale(1,1)"><path fill="#ffffff" stroke="none" d="M 888 1100 C 888 1084.5360256 927.3989376 1072 976 1072 C 1024.6010624 1072 1064 1084.5360256 1064 1100 C 1064 1115.4639744 1024.6010624 1128 976 1128 C 927.3989376 1128 888 1115.4639744 888 1100 Z"/></g><g transform="translate(-54,-6) scale(1,1)"><path fill="none" stroke="#000000" d="M 888 1100 C 888 1084.5360256 927.3989376 1072 976 1072 C 1024.6010624 1072 1064 1084.5360256 1064 1100 C 1064 1115.4639744 1024.6010624 1128 976 1128 C 927.3989376 1128 888 1115.4639744 888 1100 Z" stroke-miterlimit="10"/></g><g transform="translate(-54,-6) scale(1,1)"><g><path fill="none" stroke="none"/><text fill="#000000" stroke="none" font-family="Arial" font-size="13px" font-style="normal" font-weight="bold" text-decoration="none" x="924.688720703125" y="1100.5">Thay đổi quy định</text><text fill="#000000" stroke="none" font-family="Arial" font-size="13px" font-style="normal" font-weight="bold" text-decoration="none" x="925.193359375" y="1113.5">thời gian huỷ đơn</text></g></g><g transform="translate(-54,-6) scale(1,1)"><path fill="#C0C0C0" stroke="none" d="M 767 1193 C 767 1178.6405952 801.0263552 1167 843 1167 C 884.9736448 1167 919 1178.6405952 919 1193 C 919 1207.3594048 884.9736448 1219 843 1219 C 801.0263552 1219 767 1207.3594048 767 1193 Z" opacity="0.2"/></g><g transform="translate(-54,-6) scale(1,1)"><path fill="#ffffff" stroke="none" d="M 760 1186 C 760 1171.6405952 794.0263552 1160 836 1160 C 877.9736448 1160 912 1171.6405952 912 1186 C 912 1200.3594048 877.9736448 1212 836 1212 C 794.0263552 1212 760 1200.3594048 760 1186 Z"/></g><g transform="translate(-54,-6) scale(1,1)"><path fill="none" stroke="#000000" d="M 760 1186 C 760 1171.6405952 794.0263552 1160 836 1160 C 877.9736448 1160 912 1171.6405952 912 1186 C 912 1200.3594048 877.9736448 1212 836 1212 C 794.0263552 1212 760 1200.3594048 760 1186 Z" stroke-miterlimit="10"/></g><g transform="translate(-54,-6) scale(1,1)"><g><path fill="none" stroke="none"/><text fill="#000000" stroke="none" font-family="Arial" font-size="13px" font-style="normal" font-weight="bold" text-decoration="none" x="795.892333984375" y="1186.5">Xem thống kê</text><text fill="#000000" stroke="none" font-family="Arial" font-size="13px" font-style="normal" font-weight="bold" text-decoration="none" x="804.1982421875" y="1199.5">và báo cáo</text></g></g><g transform="translate(-54,-6) scale(1,1)"><path fill="#C0C0C0" stroke="none" d="M 1111 801 C 1111 786.6405952 1152.1897984 775 1203 775 C 1253.8102016 775 1295 786.6405952 1295 801 C 1295 815.3594048 1253.8102016 827 1203 827 C 1152.1897984 827 1111 815.3594048 1111 801 Z" opacity="0.2"/></g><g transform="translate(-54,-6) scale(1,1)"><path fill="#ffffff" stroke="none" d="M 1104 794 C 1104 779.6405952 1145.1897984 768 1196 768 C 1246.8102016 768 1288 779.6405952 1288 794 C 1288 808.3594048 1246.8102016 820 1196 820 C 1145.1897984 820 1104 808.3594048 1104 794 Z"/></g><g transform="translate(-54,-6) scale(1,1)"><path fill="none" stroke="#000000" d="M 1104 794 C 1104 779.6405952 1145.1897984 768 1196 768 C 1246.8102016 768 1288 779.6405952 1288 794 C 1288 808.3594048 1246.8102016 820 1196 820 C 1145.1897984 820 1104 808.3594048 1104 794 Z" stroke-miterlimit="10"/></g><g transform="translate(-54,-6) scale(1,1)"><g><path fill="none" stroke="none"/><text fill="#000000" stroke="none" font-family="Arial" font-size="13px" font-style="normal" font-weight="bold" text-decoration="none" x="1140.353271484375" y="801">Nhập sách vào kho</text></g></g><g transform="translate(-54,-6) scale(1,1)"><path fill="#C0C0C0" stroke="none" d="M 383 680 C 383 670.6111584 422.3989376 663 471 663 C 519.6010624 663 559 670.6111584 559 680 C 559 689.3888416 519.6010624 697 471 697 C 422.3989376 697 383 689.3888416 383 680 Z" opacity="0.2"/></g><g transform="translate(-54,-6) scale(1,1)"><path fill="#ffffff" stroke="none" d="M 376 673 C 376 663.6111584 415.3989376 656 464 656 C 512.6010624 656 552 663.6111584 552 673 C 552 682.3888416 512.6010624 690 464 690 C 415.3989376 690 376 682.3888416 376 673 Z"/></g><g transform="translate(-54,-6) scale(1,1)"><path fill="none" stroke="#000000" d="M 376 673 C 376 663.6111584 415.3989376 656 464 656 C 512.6010624 656 552 663.6111584 552 673 C 552 682.3888416 512.6010624 690 464 690 C 415.3989376 690 376 682.3888416 376 673 Z" stroke-miterlimit="10"/></g><g transform="translate(-54,-6) scale(1,1)"><g><path fill="none" stroke="none"/><text fill="#000000" stroke="none" font-family="Arial" font-size="13px" font-style="normal" font-weight="bold" text-decoration="none" x="412.326904296875" y="680">Bán sách tại quầy</text></g></g><g transform="translate(-54,-6) scale(1,1)"><path fill="#C0C0C0" stroke="none" d="M 559 1186.5 C 559 1166.8938896 591.2354944 1151 631 1151 C 670.7645056 1151 703 1166.8938896 703 1186.5 C 703 1206.1061104 670.7645056 1222 631 1222 C 591.2354944 1222 559 1206.1061104 559 1186.5 Z" opacity="0.2"/></g><g transform="translate(-54,-6) scale(1,1)"><path fill="#ffffff" stroke="none" d="M 552 1179.5 C 552 1159.8938896 584.2354944 1144 624 1144 C 663.7645056 1144 696 1159.8938896 696 1179.5 C 696 1199.1061104 663.7645056 1215 624 1215 C 584.2354944 1215 552 1199.1061104 552 1179.5 Z"/></g><g transform="translate(-54,-6) scale(1,1)"><path fill="none" stroke="#000000" d="M 552 1179.5 C 552 1159.8938896 584.2354944 1144 624 1144 C 663.7645056 1144 696 1159.8938896 696 1179.5 C 696 1199.1061104 663.7645056 1215 624 1215 C 584.2354944 1215 552 1199.1061104 552 1179.5 Z" stroke-miterlimit="10"/></g><g transform="translate(-54,-6) scale(1,1)"><g><path fill="none" stroke="none"/><text fill="#000000" stroke="none" font-family="Arial" font-size="13px" font-style="normal" font-weight="bold" text-decoration="none" x="585.701416015625" y="1180">Xem tần suất</text><text fill="#000000" stroke="none" font-family="Arial" font-size="13px" font-style="normal" font-weight="bold" text-decoration="none" x="582.426025390625" y="1193">từng đầu sách</text></g></g><g transform="translate(-54,-6) scale(1,1)"><path fill="#C0C0C0" stroke="none" d="M 575 1002.5 C 575 982.8938896 609.0263552 967 651 967 C 692.9736448 967 727 982.8938896 727 1002.5 C 727 1022.1061104 692.9736448 1038 651 1038 C 609.0263552 1038 575 1022.1061104 575 1002.5 Z" opacity="0.2"/></g><g transform="translate(-54,-6) scale(1,1)"><path fill="#ffffff" stroke="none" d="M 568 995.5 C 568 975.8938896 602.0263552 960 644 960 C 685.9736448 960 720 975.8938896 720 995.5 C 720 1015.1061104 685.9736448 1031 644 1031 C 602.0263552 1031 568 1015.1061104 568 995.5 Z"/></g><g transform="translate(-54,-6) scale(1,1)"><path fill="none" stroke="#000000" d="M 568 995.5 C 568 975.8938896 602.0263552 960 644 960 C 685.9736448 960 720 975.8938896 720 995.5 C 720 1015.1061104 685.9736448 1031 644 1031 C 602.0263552 1031 568 1015.1061104 568 995.5 Z" stroke-miterlimit="10"/></g><g transform="translate(-54,-6) scale(1,1)"><g><path fill="none" stroke="none"/><text fill="#000000" stroke="none" font-family="Arial" font-size="13px" font-style="normal" font-weight="bold" text-decoration="none" x="599.912353515625" y="996">Xem doanh thu</text><text fill="#000000" stroke="none" font-family="Arial" font-size="13px" font-style="normal" font-weight="bold" text-decoration="none" x="612.541015625" y="1009">từng tháng</text></g></g><g transform="translate(-54,-6) scale(1,1)"><path fill="#ffffff" stroke="none" d="M 207.1418181818182 118.1 C 207.1418181818182 110.86506912 212.89862162618184 105 220 105 C 227.10137837381816 105 232.8581818181818 110.86506912 232.8581818181818 118.1 C 232.8581818181818 125.33493087999999 227.10137837381816 131.2 220 131.2 C 212.89862162618184 131.2 207.1418181818182 125.33493087999999 207.1418181818182 118.1 Z"/></g><g transform="translate(-54,-6) scale(1,1)"><path fill="none" stroke="#000000" d="M 207.1418181818182 118.1 C 207.1418181818182 110.86506912 212.89862162618184 105 220 105 C 227.10137837381816 105 232.8581818181818 110.86506912 232.8581818181818 118.1 C 232.8581818181818 125.33493087999999 227.10137837381816 131.2 220 131.2 C 212.89862162618184 131.2 207.1418181818182 125.33493087999999 207.1418181818182 118.1 Z" stroke-miterlimit="10"/></g><g transform="translate(-54,-6) scale(1,1)"><path fill="none" stroke="#000000" d="M 220 131.2 L 220 156.8" stroke-miterlimit="10"/></g><g transform="translate(-54,-6) scale(1,1)"><path fill="none" stroke="#000000" d="M 206.38545454545454 140.8 L 233.61454545454546 140.8" stroke-miterlimit="10"/></g><g transform="translate(-54,-6) scale(1,1)"><path fill="none" stroke="#000000" d="M 220 156.8 L 201.0909090909091 183" stroke-miterlimit="10"/></g><g transform="translate(-54,-6) scale(1,1)"><path fill="none" stroke="#000000" d="M 220 156.8 L 238.9090909090909 183" stroke-miterlimit="10"/></g><g transform="translate(-54,-6) scale(1,1)"><g><path fill="none" stroke="none"/><text fill="#000000" stroke="none" font-family="Arial" font-size="13px" font-style="normal" font-weight="bold" text-decoration="none" x="201.569580078125" y="203.5">Khách</text></g></g><g transform="translate(-54,-6) scale(1,1)"><path fill="#C0C0C0" stroke="none" d="M 407 152 C 407 142.6111584 431.1766208 135 461 135 C 490.8233792 135 515 142.6111584 515 152 C 515 161.3888416 490.8233792 169 461 169 C 431.1766208 169 407 161.3888416 407 152 Z" opacity="0.2"/></g><g transform="translate(-54,-6) scale(1,1)"><path fill="#ffffff" stroke="none" d="M 400 145 C 400 135.6111584 424.1766208 128 454 128 C 483.8233792 128 508 135.6111584 508 145 C 508 154.3888416 483.8233792 162 454 162 C 424.1766208 162 400 154.3888416 400 145 Z"/></g><g transform="translate(-54,-6) scale(1,1)"><path fill="none" stroke="#000000" d="M 400 145 C 400 135.6111584 424.1766208 128 454 128 C 483.8233792 128 508 135.6111584 508 145 C 508 154.3888416 483.8233792 162 454 162 C 424.1766208 162 400 154.3888416 400 145 Z" stroke-miterlimit="10"/></g><g transform="translate(-54,-6) scale(1,1)"><g><path fill="none" stroke="none"/><text fill="#000000" stroke="none" font-family="Arial" font-size="13px" font-style="normal" font-weight="bold" text-decoration="none" x="422.195068359375" y="152">Đăng nhập</text></g></g><g transform="translate(-54,-6) scale(1,1)"><path fill="none" stroke="#000000" d="M 273 154 L 399 148" stroke-miterlimit="10"/></g><g transform="translate(-54,-6) scale(1,1)"><path fill="none" stroke="#000000" d="M 1143 343 L 1025 330" stroke-miterlimit="10"/></g><g transform="translate(-54,-6) scale(1,1)"><path fill="#FFFFFF" stroke="none" d="M 1046.1250564849076 323.857363065469 L 1025 330 L 1044.2811709242008 340.59417046265315"/></g><g transform="translate(-54,-6) scale(1,1)"><path fill="none" stroke="#000000" d="M 1046.1250564849076 323.857363065469 L 1025 330 L 1044.2811709242008 340.59417046265315 L 1046.1250564849076 323.857363065469" stroke-miterlimit="10"/></g><g transform="translate(-54,-6) scale(1,1)"><path fill="none" stroke="#000000" d="M 1212 1071 L 1212 997" stroke-miterlimit="10"/></g><g transform="translate(-54,-6) scale(1,1)"><path fill="#FFFFFF" stroke="none" d="M 1220.419035512032 1017.3253497152483 L 1212 997 L 1203.580964487968 1017.3253497152483"/></g><g transform="translate(-54,-6) scale(1,1)"><path fill="none" stroke="#000000" d="M 1220.419035512032 1017.3253497152483 L 1212 997 L 1203.580964487968 1017.3253497152483 L 1220.419035512032 1017.3253497152483" stroke-miterlimit="10"/></g><g transform="translate(-54,-6) scale(1,1)"><path fill="none" stroke="#000000" d="M 1029 1071 L 1163 997" stroke-miterlimit="10"/></g><g transform="translate(-54,-6) scale(1,1)"><path fill="#FFFFFF" stroke="none" d="M 1149.277404900027 1014.1956501395615 L 1163 997 L 1141.1374991287366 999.4558207699272"/></g><g transform="translate(-54,-6) scale(1,1)"><path fill="none" stroke="#000000" d="M 1149.277404900027 1014.1956501395615 L 1163 997 L 1141.1374991287366 999.4558207699272 L 1149.277404900027 1014.1956501395615" stroke-miterlimit="10"/></g><g transform="translate(-54,-6) scale(1,1)"><path fill="#C0C0C0" stroke="none" d="M 399 216 C 399 206.6111584 446.010096 199 504 199 C 561.989904 199 609 206.6111584 609 216 C 609 225.3888416 561.989904 233 504 233 C 446.010096 233 399 225.3888416 399 216 Z" opacity="0.2"/></g><g transform="translate(-54,-6) scale(1,1)"><path fill="#ffffff" stroke="none" d="M 392 209 C 392 199.6111584 439.010096 192 497 192 C 554.989904 192 602 199.6111584 602 209 C 602 218.3888416 554.989904 226 497 226 C 439.010096 226 392 218.3888416 392 209 Z"/></g><g transform="translate(-54,-6) scale(1,1)"><path fill="none" stroke="#000000" d="M 392 209 C 392 199.6111584 439.010096 192 497 192 C 554.989904 192 602 199.6111584 602 209 C 602 218.3888416 554.989904 226 497 226 C 439.010096 226 392 218.3888416 392 209 Z" stroke-miterlimit="10"/></g><g transform="translate(-54,-6) scale(1,1)"><g><path fill="none" stroke="none"/><text fill="#000000" stroke="none" font-family="Arial" font-size="13px" font-style="normal" font-weight="bold" text-decoration="none" x="432.041259765625" y="216">Đăng ký mới tài khoản</text></g></g><g transform="translate(-54,-6) scale(1,1)"><path fill="none" stroke="#000000" d="M 1439 1142 L 1248 997" stroke-miterlimit="10"/></g><g transform="translate(-54,-6) scale(1,1)"><path fill="none" stroke="#000000" d="M 681 1032 L 809 1159" stroke-miterlimit="10"/></g><g transform="translate(-54,-6) scale(1,1)"><path fill="#FFFFFF" stroke="none" d="M 788.641791000012 1150.6607358650294 L 809 1159 L 800.5013225832388 1138.7078221433521"/></g><g transform="translate(-54,-6) scale(1,1)"><path fill="none" stroke="#000000" d="M 788.641791000012 1150.6607358650294 L 809 1159 L 800.5013225832388 1138.7078221433521 L 788.641791000012 1150.6607358650294" stroke-miterlimit="10"/></g><g transform="translate(-54,-6) scale(1,1)"><path fill="none" stroke="#000000" d="M 697 1181 L 759 1183" stroke-miterlimit="10"/></g><g transform="translate(-54,-6) scale(1,1)"><path fill="#FFFFFF" stroke="none" d="M 738.4137765433771 1190.759343000151 L 759 1183 L 738.9566577418414 1173.9300258477595"/></g><g transform="translate(-54,-6) scale(1,1)"><path fill="none" stroke="#000000" d="M 738.4137765433771 1190.759343000151 L 759 1183 L 738.9566577418414 1173.9300258477595 L 738.4137765433771 1190.759343000151" stroke-miterlimit="10"/></g><g transform="translate(-54,-6) scale(1,1)"><path fill="none" stroke="#000000" d="M 1439 1182 L 913 1186" stroke-miterlimit="10"/></g><g transform="translate(-54,-6) scale(1,1)"><path fill="none" stroke="#000000" d="M 1439 870 L 1283 821" stroke-miterlimit="10"/></g><g transform="translate(-54,-6) scale(1,1)"><path fill="none" stroke="#000000" d="M 273 840 L 443 691" stroke-miterlimit="10"/></g><g transform="translate(-54,-6) scale(1,1)"><path fill="none" stroke="#000000" d="M 785 286 L 887 307" stroke-miterlimit="10" stroke-dasharray="3"/></g><g transform="translate(-54,-6) scale(1,1)"><path fill="none" stroke="#000000" d="M 876.1972349822578 309.07370874797937 L 887 307 L 877.8949580824876 300.8276251182918" stroke-miterlimit="10"/></g><g transform="translate(-54,-6) scale(1,1)"><g><path fill="none" stroke="none"/><text fill="#000000" stroke="none" font-family="Arial" font-size="13px" font-style="normal" font-weight="normal" text-decoration="none" x="799.5" y="316.5">«include»</text></g></g><g transform="translate(-54,-6) scale(1,1)"><path fill="#C0C0C0" stroke="none" d="M 719 800 C 719 790.6111584 762.652232 783 816.5 783 C 870.347768 783 914 790.6111584 914 800 C 914 809.3888416 870.347768 817 816.5 817 C 762.652232 817 719 809.3888416 719 800 Z" opacity="0.2"/></g><g transform="translate(-54,-6) scale(1,1)"><path fill="#ffffff" stroke="none" d="M 712 793 C 712 783.6111584 755.652232 776 809.5 776 C 863.347768 776 907 783.6111584 907 793 C 907 802.3888416 863.347768 810 809.5 810 C 755.652232 810 712 802.3888416 712 793 Z"/></g><g transform="translate(-54,-6) scale(1,1)"><path fill="none" stroke="#000000" d="M 712 793 C 712 783.6111584 755.652232 776 809.5 776 C 863.347768 776 907 783.6111584 907 793 C 907 802.3888416 863.347768 810 809.5 810 C 755.652232 810 712 802.3888416 712 793 Z" stroke-miterlimit="10"/></g><g transform="translate(-54,-6) scale(1,1)"><g><path fill="none" stroke="none"/><text fill="#000000" stroke="none" font-family="Arial" font-size="13px" font-style="normal" font-weight="bold" text-decoration="none" x="749.143310546875" y="800">Lập phiếu nhập sách</text></g></g><g transform="translate(-54,-6) scale(1,1)"><path fill="none" stroke="#000000" d="M 1103 794 L 908 793" stroke-miterlimit="10" stroke-dasharray="3"/></g><g transform="translate(-54,-6) scale(1,1)"><path fill="none" stroke="#000000" d="M 918.1841282154622 788.842653190913 L 908 793 L 918.1409542420763 797.261578001177" stroke-miterlimit="10"/></g><g transform="translate(-54,-6) scale(1,1)"><g><path fill="none" stroke="none"/><text fill="#000000" stroke="none" font-family="Arial" font-size="13px" font-style="normal" font-weight="normal" text-decoration="none" x="986.5" y="818.5">«include»</text></g></g><g transform="translate(-54,-6) scale(1,1)"><path fill="#C0C0C0" stroke="none" d="M 695 680 C 695 670.6111584 741.7862384 663 799.5 663 C 857.2137616 663 904 670.6111584 904 680 C 904 689.3888416 857.2137616 697 799.5 697 C 741.7862384 697 695 689.3888416 695 680 Z" opacity="0.2"/></g><g transform="translate(-54,-6) scale(1,1)"><path fill="#ffffff" stroke="none" d="M 688 673 C 688 663.6111584 734.7862384 656 792.5 656 C 850.2137616 656 897 663.6111584 897 673 C 897 682.3888416 850.2137616 690 792.5 690 C 734.7862384 690 688 682.3888416 688 673 Z"/></g><g transform="translate(-54,-6) scale(1,1)"><path fill="none" stroke="#000000" d="M 688 673 C 688 663.6111584 734.7862384 656 792.5 656 C 850.2137616 656 897 663.6111584 897 673 C 897 682.3888416 850.2137616 690 792.5 690 C 734.7862384 690 688 682.3888416 688 673 Z" stroke-miterlimit="10"/></g><g transform="translate(-54,-6) scale(1,1)"><g><path fill="none" stroke="none"/><text fill="#000000" stroke="none" font-family="Arial" font-size="13px" font-style="normal" font-weight="bold" text-decoration="none" x="727.51904296875" y="680">Lập hoá đơn bán sách</text></g></g><g transform="translate(-54,-6) scale(1,1)"><path fill="none" stroke="#000000" d="M 553 673 L 687 673" stroke-miterlimit="10" stroke-dasharray="3"/></g><g transform="translate(-54,-6) scale(1,1)"><path fill="none" stroke="#000000" d="M 676.8373251423759 677.209517756016 L 687 673 L 676.8373251423758 668.790482243984" stroke-miterlimit="10"/></g><g transform="translate(-54,-6) scale(1,1)"><g><path fill="none" stroke="none"/><text fill="#000000" stroke="none" font-family="Arial" font-size="13px" font-style="normal" font-weight="normal" text-decoration="none" x="580.5" y="662.5">«include»</text></g></g><g transform="translate(-54,-6) scale(1,1)"><path fill="#C0C0C0" stroke="none" d="M 1143 687 C 1143 673.7451648 1175.2354944 663 1215 663 C 1254.7645056 663 1287 673.7451648 1287 687 C 1287 700.2548352 1254.7645056 711 1215 711 C 1175.2354944 711 1143 700.2548352 1143 687 Z" opacity="0.2"/></g><g transform="translate(-54,-6) scale(1,1)"><path fill="#ffffff" stroke="none" d="M 1136 680 C 1136 666.7451648 1168.2354944 656 1208 656 C 1247.7645056 656 1280 666.7451648 1280 680 C 1280 693.2548352 1247.7645056 704 1208 704 C 1168.2354944 704 1136 693.2548352 1136 680 Z"/></g><g transform="translate(-54,-6) scale(1,1)"><path fill="none" stroke="#000000" d="M 1136 680 C 1136 666.7451648 1168.2354944 656 1208 656 C 1247.7645056 656 1280 666.7451648 1280 680 C 1280 693.2548352 1247.7645056 704 1208 704 C 1168.2354944 704 1136 693.2548352 1136 680 Z" stroke-miterlimit="10"/></g><g transform="translate(-54,-6) scale(1,1)"><g><path fill="none" stroke="none"/><text fill="#000000" stroke="none" font-family="Arial" font-size="13px" font-style="normal" font-weight="bold" text-decoration="none" x="1169.3427734375" y="687">Quản trị sách</text></g></g><g transform="translate(-54,-6) scale(1,1)"><path fill="#ffffff" stroke="none" d="M 496 744 L 581 744 L 591 754 L 591 842 L 496 842 L 496 744"/></g><g transform="translate(-54,-6) scale(1,1)"><path fill="none" stroke="#000000" d="M 496 744 L 581 744 L 591 754 L 591 842 L 496 842 L 496 744 L 496 744" stroke-miterlimit="10"/></g><g transform="translate(-54,-6) scale(1,1)"><path fill="none" stroke="#000000" d="M 581 744 L 581 754 L 591 754 L 581 744" stroke-miterlimit="10"/></g><g transform="translate(-54,-6) scale(1,1)"><g><path fill="none" stroke="none"/><text fill="#000000" stroke="none" font-family="Arial" font-size="13px" font-style="normal" font-weight="normal" text-decoration="none" x="501" y="762">+ Ngày nhập</text></g></g><g transform="translate(-54,-6) scale(1,1)"><g><path fill="none" stroke="none"/><text fill="#000000" stroke="none" font-family="Arial" font-size="13px" font-style="normal" font-weight="normal" text-decoration="none" x="501" y="777">+ STT</text></g></g><g transform="translate(-54,-6) scale(1,1)"><g><path fill="none" stroke="none"/><text fill="#000000" stroke="none" font-family="Arial" font-size="13px" font-style="normal" font-weight="normal" text-decoration="none" x="501" y="792">+ Sách</text></g></g><g transform="translate(-54,-6) scale(1,1)"><g><path fill="none" stroke="none"/><text fill="#000000" stroke="none" font-family="Arial" font-size="13px" font-style="normal" font-weight="normal" text-decoration="none" x="501" y="807">+ Thể loại</text></g></g><g transform="translate(-54,-6) scale(1,1)"><g><path fill="none" stroke="none"/><text fill="#000000" stroke="none" font-family="Arial" font-size="13px" font-style="normal" font-weight="normal" text-decoration="none" x="501" y="822">+ Tác giả</text></g></g><g transform="translate(-54,-6) scale(1,1)"><g><path fill="none" stroke="none"/><text fill="#000000" stroke="none" font-family="Arial" font-size="13px" font-style="normal" font-weight="normal" text-decoration="none" x="501" y="837">+ Số lượng</text></g></g><g transform="translate(-54,-6) scale(1,1)"><path fill="none" stroke="#000000" d="M 711 793 L 593 793" stroke-miterlimit="10" stroke-dasharray="3"/></g><g transform="translate(-54,-6) scale(1,1)"><path fill="#ffffff" stroke="none" d="M 712 456 L 861 456 L 871 466 L 871 599 L 712 599 L 712 456"/></g><g transform="translate(-54,-6) scale(1,1)"><path fill="none" stroke="#000000" d="M 712 456 L 861 456 L 871 466 L 871 599 L 712 599 L 712 456 L 712 456" stroke-miterlimit="10"/></g><g transform="translate(-54,-6) scale(1,1)"><path fill="none" stroke="#000000" d="M 861 456 L 861 466 L 871 466 L 861 456" stroke-miterlimit="10"/></g><g transform="translate(-54,-6) scale(1,1)"><g><path fill="none" stroke="none"/><text fill="#000000" stroke="none" font-family="Arial" font-size="13px" font-style="normal" font-weight="normal" text-decoration="none" x="717" y="474">+ Họ tên khách hàng</text></g></g><g transform="translate(-54,-6) scale(1,1)"><g><path fill="none" stroke="none"/><text fill="#000000" stroke="none" font-family="Arial" font-size="13px" font-style="normal" font-weight="normal" text-decoration="none" x="717" y="489">+ Ngày lập hoá đơn</text></g></g><g transform="translate(-54,-6) scale(1,1)"><g><path fill="none" stroke="none"/><text fill="#000000" stroke="none" font-family="Arial" font-size="13px" font-style="normal" font-weight="normal" text-decoration="none" x="717" y="504">+ Ngày nhập</text></g></g><g transform="translate(-54,-6) scale(1,1)"><g><path fill="none" stroke="none"/><text fill="#000000" stroke="none" font-family="Arial" font-size="13px" font-style="normal" font-weight="normal" text-decoration="none" x="717" y="519">+ STT</text></g></g><g transform="translate(-54,-6) scale(1,1)"><g><path fill="none" stroke="none"/><text fill="#000000" stroke="none" font-family="Arial" font-size="13px" font-style="normal" font-weight="normal" text-decoration="none" x="717" y="534">+ Sách</text></g></g><g transform="translate(-54,-6) scale(1,1)"><g><path fill="none" stroke="none"/><text fill="#000000" stroke="none" font-family="Arial" font-size="13px" font-style="normal" font-weight="normal" text-decoration="none" x="717" y="549">+ Thể loại</text></g></g><g transform="translate(-54,-6) scale(1,1)"><g><path fill="none" stroke="none"/><text fill="#000000" stroke="none" font-family="Arial" font-size="13px" font-style="normal" font-weight="normal" text-decoration="none" x="717" y="564">+ Số lượng</text></g></g><g transform="translate(-54,-6) scale(1,1)"><g><path fill="none" stroke="none"/><text fill="#000000" stroke="none" font-family="Arial" font-size="13px" font-style="normal" font-weight="normal" text-decoration="none" x="717" y="579">+ Đơn giá</text></g></g><g transform="translate(-54,-6) scale(1,1)"><g><path fill="none" stroke="none"/><text fill="#000000" stroke="none" font-family="Arial" font-size="13px" font-style="normal" font-weight="normal" text-decoration="none" x="717" y="594">+ Nhân viên thanh toán</text></g></g><g transform="translate(-54,-6) scale(1,1)"><path fill="none" stroke="#000000" d="M 792 655 L 792 601" stroke-miterlimit="10" stroke-dasharray="3"/></g><g transform="translate(-54,-6) scale(1,1)"><path fill="#ffffff" stroke="none" d="M 360 928 L 469 928 L 479 938 L 479 1054 L 360 1054 L 360 928"/></g><g transform="translate(-54,-6) scale(1,1)"><path fill="none" stroke="#000000" d="M 360 928 L 469 928 L 479 938 L 479 1054 L 360 1054 L 360 928 L 360 928" stroke-miterlimit="10"/></g><g transform="translate(-54,-6) scale(1,1)"><path fill="none" stroke="#000000" d="M 469 928 L 469 938 L 479 938 L 469 928" stroke-miterlimit="10"/></g><g transform="translate(-54,-6) scale(1,1)"><g><path fill="none" stroke="none"/><text fill="#000000" stroke="none" font-family="Arial" font-size="13px" font-style="normal" font-weight="normal" text-decoration="none" x="365" y="946">+ Tháng</text></g></g><g transform="translate(-54,-6) scale(1,1)"><g><path fill="none" stroke="none"/><text fill="#000000" stroke="none" font-family="Arial" font-size="13px" font-style="normal" font-weight="normal" text-decoration="none" x="365" y="961">+ STT</text></g></g><g transform="translate(-54,-6) scale(1,1)"><g><path fill="none" stroke="none"/><text fill="#000000" stroke="none" font-family="Arial" font-size="13px" font-style="normal" font-weight="normal" text-decoration="none" x="365" y="976">+ Thể loại sách</text></g></g><g transform="translate(-54,-6) scale(1,1)"><g><path fill="none" stroke="none"/><text fill="#000000" stroke="none" font-family="Arial" font-size="13px" font-style="normal" font-weight="normal" text-decoration="none" x="365" y="991">+ Doanh thu</text></g></g><g transform="translate(-54,-6) scale(1,1)"><g><path fill="none" stroke="none"/><text fill="#000000" stroke="none" font-family="Arial" font-size="13px" font-style="normal" font-weight="normal" text-decoration="none" x="365" y="1006">+ Số lượt thuê</text></g></g><g transform="translate(-54,-6) scale(1,1)"><g><path fill="none" stroke="none"/><text fill="#000000" stroke="none" font-family="Arial" font-size="13px" font-style="normal" font-weight="normal" text-decoration="none" x="365" y="1021">+ Tỷ lệ</text></g></g><g transform="translate(-54,-6) scale(1,1)"><g><path fill="none" stroke="none"/><text fill="#000000" stroke="none" font-family="Arial" font-size="13px" font-style="normal" font-weight="normal" text-decoration="none" x="365" y="1036">+ Tổng doanh thu</text></g></g><g transform="translate(-54,-6) scale(1,1)"><path fill="none" stroke="#000000" d="M 567 994 L 481 992" stroke-miterlimit="10" stroke-dasharray="3"/></g><g transform="translate(-54,-6) scale(1,1)"><path fill="#ffffff" stroke="none" d="M 376 1128 L 453 1128 L 463 1138 L 463 1226 L 376 1226 L 376 1128"/></g><g transform="translate(-54,-6) scale(1,1)"><path fill="none" stroke="#000000" d="M 376 1128 L 453 1128 L 463 1138 L 463 1226 L 376 1226 L 376 1128 L 376 1128" stroke-miterlimit="10"/></g><g transform="translate(-54,-6) scale(1,1)"><path fill="none" stroke="#000000" d="M 453 1128 L 453 1138 L 463 1138 L 453 1128" stroke-miterlimit="10"/></g><g transform="translate(-54,-6) scale(1,1)"><g><path fill="none" stroke="none"/><text fill="#000000" stroke="none" font-family="Arial" font-size="13px" font-style="normal" font-weight="normal" text-decoration="none" x="381" y="1146">+ Tháng</text></g></g><g transform="translate(-54,-6) scale(1,1)"><g><path fill="none" stroke="none"/><text fill="#000000" stroke="none" font-family="Arial" font-size="13px" font-style="normal" font-weight="normal" text-decoration="none" x="381" y="1161">+ STT</text></g></g><g transform="translate(-54,-6) scale(1,1)"><g><path fill="none" stroke="none"/><text fill="#000000" stroke="none" font-family="Arial" font-size="13px" font-style="normal" font-weight="normal" text-decoration="none" x="381" y="1176">+ Tên sách</text></g></g><g transform="translate(-54,-6) scale(1,1)"><g><path fill="none" stroke="none"/><text fill="#000000" stroke="none" font-family="Arial" font-size="13px" font-style="normal" font-weight="normal" text-decoration="none" x="381" y="1191">+ Thể loại</text></g></g><g transform="translate(-54,-6) scale(1,1)"><g><path fill="none" stroke="none"/><text fill="#000000" stroke="none" font-family="Arial" font-size="13px" font-style="normal" font-weight="normal" text-decoration="none" x="381" y="1206">+ Số lượng</text></g></g><g transform="translate(-54,-6) scale(1,1)"><g><path fill="none" stroke="none"/><text fill="#000000" stroke="none" font-family="Arial" font-size="13px" font-style="normal" font-weight="normal" text-decoration="none" x="381" y="1221">+ Tỷ lệ</text></g></g><g transform="translate(-54,-6) scale(1,1)"><path fill="none" stroke="#000000" d="M 551 1178 L 465 1177" stroke-miterlimit="10" stroke-dasharray="3"/></g><g transform="translate(-54,-6) scale(1,1)"><path fill="none" stroke="#000000" d="M 1439 848 L 1242 705" stroke-miterlimit="10"/></g><g transform="translate(-54,-6) scale(1,1)"><path fill="#C0C0C0" stroke="none" d="M 1127 267 C 1127 255.954304 1177.1441024 247 1239 247 C 1300.8558976 247 1351 255.954304 1351 267 C 1351 278.045696 1300.8558976 287 1239 287 C 1177.1441024 287 1127 278.045696 1127 267 Z" opacity="0.2"/></g><g transform="translate(-54,-6) scale(1,1)"><path fill="#ffffff" stroke="none" d="M 1120 260 C 1120 248.954304 1170.1441024 240 1232 240 C 1293.8558976 240 1344 248.954304 1344 260 C 1344 271.045696 1293.8558976 280 1232 280 C 1170.1441024 280 1120 271.045696 1120 260 Z"/></g><g transform="translate(-54,-6) scale(1,1)"><path fill="none" stroke="#000000" d="M 1120 260 C 1120 248.954304 1170.1441024 240 1232 240 C 1293.8558976 240 1344 248.954304 1344 260 C 1344 271.045696 1293.8558976 280 1232 280 C 1170.1441024 280 1120 271.045696 1120 260 Z" stroke-miterlimit="10"/></g><g transform="translate(-54,-6) scale(1,1)"><g><path fill="none" stroke="none"/><text fill="#000000" stroke="none" font-family="Arial" font-size="13px" font-style="normal" font-weight="bold" text-decoration="none" x="1168.0283203125" y="267">Thanh toán trực tuyến</text></g></g><g transform="translate(-54,-6) scale(1,1)"><path fill="none" stroke="#000000" d="M 1139 281 L 1025 307" stroke-miterlimit="10"/></g><g transform="translate(-54,-6) scale(1,1)"><path fill="#FFFFFF" stroke="none" d="M 1042.9444359386587 294.27218719326146 L 1025 307 L 1046.688555082111 310.6887095914753"/></g><g transform="translate(-54,-6) scale(1,1)"><path fill="none" stroke="#000000" d="M 1042.9444359386587 294.27218719326146 L 1025 307 L 1046.688555082111 310.6887095914753 L 1042.9444359386587 294.27218719326146" stroke-miterlimit="10"/></g><g transform="translate(-54,-6) scale(1,1)"><path fill="#C0C0C0" stroke="none" d="M 439 440 C 439 430.6111584 461.6096176 423 489.5 423 C 517.3903824 423 540 430.6111584 540 440 C 540 449.3888416 517.3903824 457 489.5 457 C 461.6096176 457 439 449.3888416 439 440 Z" opacity="0.2"/></g><g transform="translate(-54,-6) scale(1,1)"><path fill="#ffffff" stroke="none" d="M 432 433 C 432 423.6111584 454.6096176 416 482.5 416 C 510.3903824 416 533 423.6111584 533 433 C 533 442.3888416 510.3903824 450 482.5 450 C 454.6096176 450 432 442.3888416 432 433 Z"/></g><g transform="translate(-54,-6) scale(1,1)"><path fill="none" stroke="#000000" d="M 432 433 C 432 423.6111584 454.6096176 416 482.5 416 C 510.3903824 416 533 423.6111584 533 433 C 533 442.3888416 510.3903824 450 482.5 450 C 454.6096176 450 432 442.3888416 432 433 Z" stroke-miterlimit="10"/></g><g transform="translate(-54,-6) scale(1,1)"><g><path fill="none" stroke="none"/><text fill="#000000" stroke="none" font-family="Arial" font-size="13px" font-style="normal" font-weight="bold" text-decoration="none" x="454.319580078125" y="440">Mua sách</text></g></g><g transform="translate(-54,-6) scale(1,1)"><path fill="none" stroke="#000000" d="M 273 475 L 431 443" stroke-miterlimit="10"/></g><g transform="translate(-54,-6) scale(1,1)"><path fill="#C0C0C0" stroke="none" d="M 687 409 C 687 394.6405952 715.6537728 383 751 383 C 786.3462272 383 815 394.6405952 815 409 C 815 423.3594048 786.3462272 435 751 435 C 715.6537728 435 687 423.3594048 687 409 Z" opacity="0.2"/></g><g transform="translate(-54,-6) scale(1,1)"><path fill="#ffffff" stroke="none" d="M 680 402 C 680 387.6405952 708.6537728 376 744 376 C 779.3462272 376 808 387.6405952 808 402 C 808 416.3594048 779.3462272 428 744 428 C 708.6537728 428 680 416.3594048 680 402 Z"/></g><g transform="translate(-54,-6) scale(1,1)"><path fill="none" stroke="#000000" d="M 680 402 C 680 387.6405952 708.6537728 376 744 376 C 779.3462272 376 808 387.6405952 808 402 C 808 416.3594048 779.3462272 428 744 428 C 708.6537728 428 680 416.3594048 680 402 Z" stroke-miterlimit="10"/></g><g transform="translate(-54,-6) scale(1,1)"><g><path fill="none" stroke="none"/><text fill="#000000" stroke="none" font-family="Arial" font-size="13px" font-style="normal" font-weight="bold" text-decoration="none" x="707.148681640625" y="402.5">Mua sách tại</text><text fill="#000000" stroke="none" font-family="Arial" font-size="13px" font-style="normal" font-weight="bold" text-decoration="none" x="717.619140625" y="415.5">nhà sách</text></g></g><g transform="translate(-54,-6) scale(1,1)"><path fill="none" stroke="#000000" d="M 679 410 L 534 427" stroke-miterlimit="10"/></g><g transform="translate(-54,-6) scale(1,1)"><path fill="#FFFFFF" stroke="none" d="M 553.2067374047144 416.27147548512175 L 534 427 L 555.1674266999394 432.9950018267464"/></g><g transform="translate(-54,-6) scale(1,1)"><path fill="none" stroke="#000000" d="M 553.2067374047144 416.27147548512175 L 534 427 L 555.1674266999394 432.9950018267464 L 553.2067374047144 416.27147548512175" stroke-miterlimit="10"/></g><g transform="translate(-54,-6) scale(1,1)"><path fill="none" stroke="#000000" d="M 686 301 L 510 415" stroke-miterlimit="10"/></g><g transform="translate(-54,-6) scale(1,1)"><path fill="#FFFFFF" stroke="none" d="M 522.4823734181263 396.88397521942375 L 510 415 L 531.6363348597488 411.01640691877077"/></g><g transform="translate(-54,-6) scale(1,1)"><path fill="none" stroke="#000000" d="M 522.4823734181263 396.88397521942375 L 510 415 L 531.6363348597488 411.01640691877077 L 522.4823734181263 396.88397521942375" stroke-miterlimit="10"/></g><g transform="translate(-54,-6) scale(1,1)"><path fill="none" stroke="#000000" d="M 877 193 L 940 295" stroke-miterlimit="10" stroke-dasharray="3"/></g><g transform="translate(-54,-6) scale(1,1)"><path fill="none" stroke="#000000" d="M 931.0781374365602 288.56568819537864 L 940 295 L 938.2410359898937 284.1415449712608" stroke-miterlimit="10"/></g><g transform="translate(-54,-6) scale(1,1)"><g><path fill="none" stroke="none"/><text fill="#000000" stroke="none" font-family="Arial" font-size="13px" font-style="normal" font-weight="normal" text-decoration="none" x="918.5" y="275.5">«extend»</text></g></g><g transform="translate(-54,-6) scale(1,1)"><path fill="#ffffff" stroke="none" d="M 1016 128 L 1285 128 L 1295 138 L 1295 187 L 1016 187 L 1016 128"/></g><g transform="translate(-54,-6) scale(1,1)"><path fill="none" stroke="#000000" d="M 1016 128 L 1285 128 L 1295 138 L 1295 187 L 1016 187 L 1016 128 L 1016 128" stroke-miterlimit="10"/></g><g transform="translate(-54,-6) scale(1,1)"><path fill="none" stroke="#000000" d="M 1285 128 L 1285 138 L 1295 138 L 1285 128" stroke-miterlimit="10"/></g><g transform="translate(-54,-6) scale(1,1)"><g><path fill="none" stroke="none"/><text fill="#000000" stroke="none" font-family="Arial" font-size="13px" font-style="normal" font-weight="normal" text-decoration="none" x="1021" y="146">Điều kiện: {Khách hàng nhấn [Huỷ đơn hàng]}</text></g></g><g transform="translate(-54,-6) scale(1,1)"><g><path fill="none" stroke="none"/><text fill="#000000" stroke="none" font-family="Arial" font-size="13px" font-style="normal" font-weight="normal" text-decoration="none" x="1021" y="161">Điểm mở rộng: Huỷ đơn hàng</text></g></g><g transform="translate(-54,-6) scale(1,1)"><path fill="none" stroke="#000000" d="M 908 244 L 1067 189" stroke-miterlimit="10" stroke-dasharray="3"/></g><g transform="translate(-54,-6) scale(1,1)"><path fill="none" stroke="#000000" d="M 809 396 L 1143 364" stroke-miterlimit="10" stroke-dasharray="3"/></g><g transform="translate(-54,-6) scale(1,1)"><path fill="none" stroke="#000000" d="M 1133.2851180266518 369.1595608576619 L 1143 364 L 1132.4821806078212 360.7789015486161" stroke-miterlimit="10"/></g><g transform="translate(-54,-6) scale(1,1)"><g><path fill="none" stroke="none"/><text fill="#000000" stroke="none" font-family="Arial" font-size="13px" font-style="normal" font-weight="normal" text-decoration="none" x="921.5" y="376.5">«include»</text></g></g><g transform="translate(-54,-6) scale(1,1)"><path fill="#C0C0C0" stroke="none" d="M 1231 544 C 1231 534.6111584 1253.6096176 527 1281.5 527 C 1309.3903824 527 1332 534.6111584 1332 544 C 1332 553.3888416 1309.3903824 561 1281.5 561 C 1253.6096176 561 1231 553.3888416 1231 544 Z" opacity="0.2"/></g><g transform="translate(-54,-6) scale(1,1)"><path fill="#ffffff" stroke="none" d="M 1224 537 C 1224 527.6111584 1246.6096176 520 1274.5 520 C 1302.3903824 520 1325 527.6111584 1325 537 C 1325 546.3888416 1302.3903824 554 1274.5 554 C 1246.6096176 554 1224 546.3888416 1224 537 Z"/></g><g transform="translate(-54,-6) scale(1,1)"><path fill="none" stroke="#000000" d="M 1224 537 C 1224 527.6111584 1246.6096176 520 1274.5 520 C 1302.3903824 520 1325 527.6111584 1325 537 C 1325 546.3888416 1302.3903824 554 1274.5 554 C 1246.6096176 554 1224 546.3888416 1224 537 Z" stroke-miterlimit="10"/></g><g transform="translate(-54,-6) scale(1,1)"><g><path fill="none" stroke="none"/><text fill="#000000" stroke="none" font-family="Arial" font-size="13px" font-style="normal" font-weight="bold" text-decoration="none" x="1247.398681640625" y="544">Xoá sách</text></g></g><g transform="translate(-54,-6) scale(1,1)"><path fill="#C0C0C0" stroke="none" d="M 1047 552 C 1047 542.6111584 1077.8923488 535 1116 535 C 1154.1076512 535 1185 542.6111584 1185 552 C 1185 561.3888416 1154.1076512 569 1116 569 C 1077.8923488 569 1047 561.3888416 1047 552 Z" opacity="0.2"/></g><g transform="translate(-54,-6) scale(1,1)"><path fill="#ffffff" stroke="none" d="M 1040 545 C 1040 535.6111584 1070.8923488 528 1109 528 C 1147.1076512 528 1178 535.6111584 1178 545 C 1178 554.3888416 1147.1076512 562 1109 562 C 1070.8923488 562 1040 554.3888416 1040 545 Z"/></g><g transform="translate(-54,-6) scale(1,1)"><path fill="none" stroke="#000000" d="M 1040 545 C 1040 535.6111584 1070.8923488 528 1109 528 C 1147.1076512 528 1178 535.6111584 1178 545 C 1178 554.3888416 1147.1076512 562 1109 562 C 1070.8923488 562 1040 554.3888416 1040 545 Z" stroke-miterlimit="10"/></g><g transform="translate(-54,-6) scale(1,1)"><g><path fill="none" stroke="none"/><text fill="#000000" stroke="none" font-family="Arial" font-size="13px" font-style="normal" font-weight="bold" text-decoration="none" x="1067.083251953125" y="552">Cập nhật sách</text></g></g><g transform="translate(-54,-6) scale(1,1)"><path fill="#C0C0C0" stroke="none" d="M 935 632 C 935 622.6111584 959.4004784 615 989.5 615 C 1019.5995216 615 1044 622.6111584 1044 632 C 1044 641.3888416 1019.5995216 649 989.5 649 C 959.4004784 649 935 641.3888416 935 632 Z" opacity="0.2"/></g><g transform="translate(-54,-6) scale(1,1)"><path fill="#ffffff" stroke="none" d="M 928 625 C 928 615.6111584 952.4004784 608 982.5 608 C 1012.5995216 608 1037 615.6111584 1037 625 C 1037 634.3888416 1012.5995216 642 982.5 642 C 952.4004784 642 928 634.3888416 928 625 Z"/></g><g transform="translate(-54,-6) scale(1,1)"><path fill="none" stroke="#000000" d="M 928 625 C 928 615.6111584 952.4004784 608 982.5 608 C 1012.5995216 608 1037 615.6111584 1037 625 C 1037 634.3888416 1012.5995216 642 982.5 642 C 952.4004784 642 928 634.3888416 928 625 Z" stroke-miterlimit="10"/></g><g transform="translate(-54,-6) scale(1,1)"><g><path fill="none" stroke="none"/><text fill="#000000" stroke="none" font-family="Arial" font-size="13px" font-style="normal" font-weight="bold" text-decoration="none" x="950.34912109375" y="632">Thêm sách</text></g></g><g transform="translate(-54,-6) scale(1,1)"><path fill="none" stroke="#000000" d="M 1266 555 L 1220 655" stroke-miterlimit="10"/></g><g transform="translate(-54,-6) scale(1,1)"><path fill="#FFFFFF" stroke="none" d="M 1220.8454642518388 633.01625167996 L 1220 655 L 1236.142691018725 640.0529759927275"/></g><g transform="translate(-54,-6) scale(1,1)"><path fill="none" stroke="#000000" d="M 1220.8454642518388 633.01625167996 L 1220 655 L 1236.142691018725 640.0529759927275 L 1220.8454642518388 633.01625167996" stroke-miterlimit="10"/></g><g transform="translate(-54,-6) scale(1,1)"><path fill="none" stroke="#000000" d="M 1038 639 L 1135 662" stroke-miterlimit="10"/></g><g transform="translate(-54,-6) scale(1,1)"><path fill="#FFFFFF" stroke="none" d="M 1113.2805977750363 665.5025086709727 L 1135 662 L 1117.1654157710004 649.1187110358195"/></g><g transform="translate(-54,-6) scale(1,1)"><path fill="none" stroke="#000000" d="M 1113.2805977750363 665.5025086709727 L 1135 662 L 1117.1654157710004 649.1187110358195 L 1113.2805977750363 665.5025086709727" stroke-miterlimit="10"/></g><g transform="translate(-54,-6) scale(1,1)"><path fill="none" stroke="#000000" d="M 1122 563 L 1190 655" stroke-miterlimit="10"/></g><g transform="translate(-54,-6) scale(1,1)"><path fill="#FFFFFF" stroke="none" d="M 1171.1484063229202 643.6590381433368 L 1190 655 L 1184.689181308788 633.650639240739"/></g><g transform="translate(-54,-6) scale(1,1)"><path fill="none" stroke="#000000" d="M 1171.1484063229202 643.6590381433368 L 1190 655 L 1184.689181308788 633.650639240739 L 1171.1484063229202 643.6590381433368" stroke-miterlimit="10"/></g><g transform="translate(-54,-6) scale(1,1)"><path fill="none" stroke="#000000" d="M 273 166 L 403 191" stroke-miterlimit="10"/></g><g transform="translate(-54,-6) scale(1,1)"><path fill="#C0C0C0" stroke="none" d="M 783 896 C 783 886.6111584 810.0867696 879 843.5 879 C 876.9132304 879 904 886.6111584 904 896 C 904 905.3888416 876.9132304 913 843.5 913 C 810.0867696 913 783 905.3888416 783 896 Z" opacity="0.2"/></g><g transform="translate(-54,-6) scale(1,1)"><path fill="#ffffff" stroke="none" d="M 776 889 C 776 879.6111584 803.0867696 872 836.5 872 C 869.9132304 872 897 879.6111584 897 889 C 897 898.3888416 869.9132304 906 836.5 906 C 803.0867696 906 776 898.3888416 776 889 Z"/></g><g transform="translate(-54,-6) scale(1,1)"><path fill="none" stroke="#000000" d="M 776 889 C 776 879.6111584 803.0867696 872 836.5 872 C 869.9132304 872 897 879.6111584 897 889 C 897 898.3888416 869.9132304 906 836.5 906 C 803.0867696 906 776 898.3888416 776 889 Z" stroke-miterlimit="10"/></g><g transform="translate(-54,-6) scale(1,1)"><g><path fill="none" stroke="none"/><text fill="#000000" stroke="none" font-family="Arial" font-size="13px" font-style="normal" font-weight="bold" text-decoration="none" x="800.480224609375" y="896">Viết báo cáo</text></g></g><g transform="translate(-54,-6) scale(1,1)"><path fill="none" stroke="#000000" d="M 273 886 L 775 889" stroke-miterlimit="10"/></g><g transform="translate(-54,-6) scale(1,1)"><path fill="none" stroke="#000000" d="M 1439 886 L 898 889" stroke-miterlimit="10"/></g><g transform="translate(-54,-6) scale(1,1)"><path fill="none" stroke="#000000" d="M 836 1159 L 836 907" stroke-miterlimit="10" stroke-dasharray="3"/></g><g transform="translate(-54,-6) scale(1,1)"><path fill="none" stroke="#000000" d="M 840.209517756016 917.1626748576241 L 836 907 L 831.790482243984 917.1626748576241" stroke-miterlimit="10"/></g><g transform="translate(-54,-6) scale(1,1)"><g><path fill="none" stroke="none"/><text fill="#000000" stroke="none" font-family="Arial" font-size="13px" font-style="normal" font-weight="normal" text-decoration="none" x="778.5" y="1038.5">«include»</text></g></g><g transform="translate(-54,-6) scale(1,1)"><path fill="#C0C0C0" stroke="none" d="M 439 288 C 439 278.6111584 461.8334752 271 490 271 C 518.1665248 271 541 278.6111584 541 288 C 541 297.3888416 518.1665248 305 490 305 C 461.8334752 305 439 297.3888416 439 288 Z" opacity="0.2"/></g><g transform="translate(-54,-6) scale(1,1)"><path fill="#ffffff" stroke="none" d="M 432 281 C 432 271.6111584 454.8334752 264 483 264 C 511.1665248 264 534 271.6111584 534 281 C 534 290.3888416 511.1665248 298 483 298 C 454.8334752 298 432 290.3888416 432 281 Z"/></g><g transform="translate(-54,-6) scale(1,1)"><path fill="none" stroke="#000000" d="M 432 281 C 432 271.6111584 454.8334752 264 483 264 C 511.1665248 264 534 271.6111584 534 281 C 534 290.3888416 511.1665248 298 483 298 C 454.8334752 298 432 290.3888416 432 281 Z" stroke-miterlimit="10"/></g><g transform="translate(-54,-6) scale(1,1)"><g><path fill="none" stroke="none"/><text fill="#000000" stroke="none" font-family="Arial" font-size="13px" font-style="normal" font-weight="bold" text-decoration="none" x="453.369140625" y="288">Đăng xuất</text></g></g><g transform="translate(-54,-6) scale(1,1)"><path fill="#ffffff" stroke="none" d="M 211.32072727272728 289.68 C 211.32072727272728 284.886167936 215.20656959767274 281 220 281 C 224.79343040232726 281 228.67927272727272 284.886167936 228.67927272727272 289.68 C 228.67927272727272 294.473832064 224.79343040232726 298.36 220 298.36 C 215.20656959767274 298.36 211.32072727272728 294.473832064 211.32072727272728 289.68 Z"/></g><g transform="translate(-54,-6) scale(1,1)"><path fill="none" stroke="#000000" d="M 211.32072727272728 289.68 C 211.32072727272728 284.886167936 215.20656959767274 281 220 281 C 224.79343040232726 281 228.67927272727272 284.886167936 228.67927272727272 289.68 C 228.67927272727272 294.473832064 224.79343040232726 298.36 220 298.36 C 215.20656959767274 298.36 211.32072727272728 294.473832064 211.32072727272728 289.68 Z" stroke-miterlimit="10"/></g><g transform="translate(-54,-6) scale(1,1)"><path fill="none" stroke="#000000" d="M 220 298.36 L 220 315.64" stroke-miterlimit="10"/></g><g transform="translate(-54,-6) scale(1,1)"><path fill="none" stroke="#000000" d="M 210.81018181818183 304.84 L 229.18981818181817 304.84" stroke-miterlimit="10"/></g><g transform="translate(-54,-6) scale(1,1)"><path fill="none" stroke="#000000" d="M 220 315.64 L 207.23636363636365 333" stroke-miterlimit="10"/></g><g transform="translate(-54,-6) scale(1,1)"><path fill="none" stroke="#000000" d="M 220 315.64 L 232.76363636363635 333" stroke-miterlimit="10"/></g><g transform="translate(-54,-6) scale(1,1)"><g><path fill="none" stroke="none"/><text fill="#000000" stroke="none" font-family="Arial" font-size="13px" font-style="normal" font-weight="bold" text-decoration="none" x="176.331298828125" y="353.5">Người dùng đã</text><text fill="#000000" stroke="none" font-family="Arial" font-size="13px" font-style="normal" font-weight="bold" text-decoration="none" x="195.056884765625" y="366.5">xác thực</text></g></g><g transform="translate(-54,-6) scale(1,1)"><path fill="none" stroke="#000000" d="M 273 317 L 431 290" stroke-miterlimit="10"/></g><g transform="translate(-54,-6) scale(1,1)"><path fill="none" stroke="#000000" d="M 273 329 L 431 337" stroke-miterlimit="10"/></g><g transform="translate(-54,-6) scale(1,1)"><path fill="none" stroke="#000000" d="M 220 439 L 220 373" stroke-miterlimit="10"/></g><g transform="translate(-54,-6) scale(1,1)"><path fill="#FFFFFF" stroke="none" d="M 228.41903551203197 393.3253497152483 L 220 373 L 211.58096448796803 393.3253497152483"/></g><g transform="translate(-54,-6) scale(1,1)"><path fill="none" stroke="#000000" d="M 228.41903551203197 393.3253497152483 L 220 373 L 211.58096448796803 393.3253497152483 L 228.41903551203197 393.3253497152483" stroke-miterlimit="10"/></g><g transform="translate(-54,-6) scale(1,1)"><path fill="none" stroke="#000000" d="M 167 882 L 136 880 L 136 408 L 172 373" stroke-miterlimit="10"/></g><g transform="translate(-54,-6) scale(1,1)"><path fill="#FFFFFF" stroke="none" d="M 163.29555527883457 393.2047678060446 L 172 373 L 151.55809978324672 381.13195643915424"/></g><g transform="translate(-54,-6) scale(1,1)"><path fill="none" stroke="#000000" d="M 163.29555527883457 393.2047678060446 L 172 373 L 151.55809978324672 381.13195643915424 L 163.29555527883457 393.2047678060446" stroke-miterlimit="10"/></g><g transform="translate(-54,-6) scale(1,1)"><path fill="none" stroke="#000000" d="M 1492 839 L 1488 16 L 64 16 L 64 264 L 167 305" stroke-miterlimit="10"/></g><g transform="translate(-54,-6) scale(1,1)"><path fill="#FFFFFF" stroke="none" d="M 145.00211542393092 305.3050806089255 L 167 305 L 151.22942207712288 289.66087121188235"/></g><g transform="translate(-54,-6) scale(1,1)"><path fill="none" stroke="#000000" d="M 145.00211542393092 305.3050806089255 L 167 305 L 151.22942207712288 289.66087121188235 L 145.00211542393092 305.3050806089255" stroke-miterlimit="10"/></g><g transform="translate(-54,-6) scale(1,1)"><path fill="none" stroke="#000000" d="M 1491 1229 L 1488 1328 L 64 1328 L 64 376 L 167 343" stroke-miterlimit="10"/></g><g transform="translate(-54,-6) scale(1,1)"><path fill="#FFFFFF" stroke="none" d="M 150.21257124074907 357.2190799861691 L 167 343 L 145.0750874051935 341.1839031661017"/></g><g transform="translate(-54,-6) scale(1,1)"><path fill="none" stroke="#000000" d="M 150.21257124074907 357.2190799861691 L 167 343 L 145.0750874051935 341.1839031661017 L 150.21257124074907 357.2190799861691" stroke-miterlimit="10"/></g></g></svg>