<svg version="1.1" xmlns="http://www.w3.org/2000/svg" xmlns:xlink="http://www.w3.org/1999/xlink" width="1464.16455078125" height="1028"><defs/><g><g transform="translate(-6,-14) scale(1,1)"><rect fill="#C0C0C0" stroke="none" x="327" y="31" width="984" height="1008" opacity="0.2"/></g><g transform="translate(-6,-14) scale(1,1)"><rect fill="#ffffff" stroke="none" x="320" y="24" width="984" height="1008"/></g><g transform="translate(-6,-14) scale(1,1)"><path fill="none" stroke="#000000" d="M 320 24 L 1304 24 L 1304 1032 L 320 1032 L 320 24 Z Z" stroke-miterlimit="10"/></g><g transform="translate(-6,-14) scale(1,1)"><g><path fill="none" stroke="none"/><text fill="#000000" stroke="none" font-family="Arial" font-size="13px" font-style="normal" font-weight="bold" text-decoration="none" x="732.00048828125" y="43.5">Ứng dụng quản lý nhà sách</text></g></g><g transform="translate(-6,-14) scale(1,1)"><path fill="#ffffff" stroke="none" d="M 201.2312727272727 283.89 C 201.2312727272727 277.875618528 206.05259561192727 273 212 273 C 217.94740438807273 273 222.7687272727273 277.875618528 222.7687272727273 283.89 C 222.7687272727273 289.90438147199995 217.94740438807273 294.78 212 294.78 C 206.05259561192727 294.78 201.2312727272727 289.90438147199995 201.2312727272727 283.89 Z"/></g><g transform="translate(-6,-14) scale(1,1)"><path fill="none" stroke="#000000" d="M 201.2312727272727 283.89 C 201.2312727272727 277.875618528 206.05259561192727 273 212 273 C 217.94740438807273 273 222.7687272727273 277.875618528 222.7687272727273 283.89 C 222.7687272727273 289.90438147199995 217.94740438807273 294.78 212 294.78 C 206.05259561192727 294.78 201.2312727272727 289.90438147199995 201.2312727272727 283.89 Z" stroke-miterlimit="10"/></g><g transform="translate(-6,-14) scale(1,1)"><path fill="none" stroke="#000000" d="M 212 294.78 L 212 316.22" stroke-miterlimit="10"/></g><g transform="translate(-6,-14) scale(1,1)"><path fill="none" stroke="#000000" d="M 200.59781818181818 302.82 L 223.40218181818182 302.82" stroke-miterlimit="10"/></g><g transform="translate(-6,-14) scale(1,1)"><path fill="none" stroke="#000000" d="M 212 316.22 L 196.16363636363636 338" stroke-miterlimit="10"/></g><g transform="translate(-6,-14) scale(1,1)"><path fill="none" stroke="#000000" d="M 212 316.22 L 227.83636363636364 338" stroke-miterlimit="10"/></g><g transform="translate(-6,-14) scale(1,1)"><g><path fill="none" stroke="none"/><text fill="#000000" stroke="none" font-family="Arial" font-size="13px" font-style="normal" font-weight="bold" text-decoration="none" x="177.3037109375" y="358.5">Khách hàng</text></g></g><g transform="translate(-6,-14) scale(1,1)"><path fill="#ffffff" stroke="none" d="M 201.2312727272727 499.89 C 201.2312727272727 493.875618528 206.05259561192727 489 212 489 C 217.94740438807273 489 222.7687272727273 493.875618528 222.7687272727273 499.89 C 222.7687272727273 505.90438147199995 217.94740438807273 510.78 212 510.78 C 206.05259561192727 510.78 201.2312727272727 505.90438147199995 201.2312727272727 499.89 Z"/></g><g transform="translate(-6,-14) scale(1,1)"><path fill="none" stroke="#000000" d="M 201.2312727272727 499.89 C 201.2312727272727 493.875618528 206.05259561192727 489 212 489 C 217.94740438807273 489 222.7687272727273 493.875618528 222.7687272727273 499.89 C 222.7687272727273 505.90438147199995 217.94740438807273 510.78 212 510.78 C 206.05259561192727 510.78 201.2312727272727 505.90438147199995 201.2312727272727 499.89 Z" stroke-miterlimit="10"/></g><g transform="translate(-6,-14) scale(1,1)"><path fill="none" stroke="#000000" d="M 212 510.78 L 212 532.22" stroke-miterlimit="10"/></g><g transform="translate(-6,-14) scale(1,1)"><path fill="none" stroke="#000000" d="M 200.59781818181818 518.82 L 223.40218181818182 518.82" stroke-miterlimit="10"/></g><g transform="translate(-6,-14) scale(1,1)"><path fill="none" stroke="#000000" d="M 212 532.22 L 196.16363636363636 554" stroke-miterlimit="10"/></g><g transform="translate(-6,-14) scale(1,1)"><path fill="none" stroke="#000000" d="M 212 532.22 L 227.83636363636364 554" stroke-miterlimit="10"/></g><g transform="translate(-6,-14) scale(1,1)"><g><path fill="none" stroke="none"/><text fill="#000000" stroke="none" font-family="Arial" font-size="13px" font-style="normal" font-weight="bold" text-decoration="none" x="182.73095703125" y="574.5">Nhân viên</text></g></g><g transform="translate(-6,-14) scale(1,1)"><path fill="#ffffff" stroke="none" d="M 201.2312727272727 715.89 C 201.2312727272727 709.875618528 206.05259561192727 705 212 705 C 217.94740438807273 705 222.7687272727273 709.875618528 222.7687272727273 715.89 C 222.7687272727273 721.904381472 217.94740438807273 726.78 212 726.78 C 206.05259561192727 726.78 201.2312727272727 721.904381472 201.2312727272727 715.89 Z"/></g><g transform="translate(-6,-14) scale(1,1)"><path fill="none" stroke="#000000" d="M 201.2312727272727 715.89 C 201.2312727272727 709.875618528 206.05259561192727 705 212 705 C 217.94740438807273 705 222.7687272727273 709.875618528 222.7687272727273 715.89 C 222.7687272727273 721.904381472 217.94740438807273 726.78 212 726.78 C 206.05259561192727 726.78 201.2312727272727 721.904381472 201.2312727272727 715.89 Z" stroke-miterlimit="10"/></g><g transform="translate(-6,-14) scale(1,1)"><path fill="none" stroke="#000000" d="M 212 726.78 L 212 748.22" stroke-miterlimit="10"/></g><g transform="translate(-6,-14) scale(1,1)"><path fill="none" stroke="#000000" d="M 200.59781818181818 734.82 L 223.40218181818182 734.82" stroke-miterlimit="10"/></g><g transform="translate(-6,-14) scale(1,1)"><path fill="none" stroke="#000000" d="M 212 748.22 L 196.16363636363636 770" stroke-miterlimit="10"/></g><g transform="translate(-6,-14) scale(1,1)"><path fill="none" stroke="#000000" d="M 212 748.22 L 227.83636363636364 770" stroke-miterlimit="10"/></g><g transform="translate(-6,-14) scale(1,1)"><g><path fill="none" stroke="none"/><text fill="#000000" stroke="none" font-family="Arial" font-size="13px" font-style="normal" font-weight="bold" text-decoration="none" x="177.313232421875" y="790.5">Quản lý kho</text></g></g><g transform="translate(-6,-14) scale(1,1)"><path fill="#ffffff" stroke="none" d="M 201.2312727272727 931.89 C 201.2312727272727 925.875618528 206.05259561192727 921 212 921 C 217.94740438807273 921 222.7687272727273 925.875618528 222.7687272727273 931.89 C 222.7687272727273 937.904381472 217.94740438807273 942.78 212 942.78 C 206.05259561192727 942.78 201.2312727272727 937.904381472 201.2312727272727 931.89 Z"/></g><g transform="translate(-6,-14) scale(1,1)"><path fill="none" stroke="#000000" d="M 201.2312727272727 931.89 C 201.2312727272727 925.875618528 206.05259561192727 921 212 921 C 217.94740438807273 921 222.7687272727273 925.875618528 222.7687272727273 931.89 C 222.7687272727273 937.904381472 217.94740438807273 942.78 212 942.78 C 206.05259561192727 942.78 201.2312727272727 937.904381472 201.2312727272727 931.89 Z" stroke-miterlimit="10"/></g><g transform="translate(-6,-14) scale(1,1)"><path fill="none" stroke="#000000" d="M 212 942.78 L 212 964.22" stroke-miterlimit="10"/></g><g transform="translate(-6,-14) scale(1,1)"><path fill="none" stroke="#000000" d="M 200.59781818181818 950.82 L 223.40218181818182 950.82" stroke-miterlimit="10"/></g><g transform="translate(-6,-14) scale(1,1)"><path fill="none" stroke="#000000" d="M 212 964.22 L 196.16363636363636 986" stroke-miterlimit="10"/></g><g transform="translate(-6,-14) scale(1,1)"><path fill="none" stroke="#000000" d="M 212 964.22 L 227.83636363636364 986" stroke-miterlimit="10"/></g><g transform="translate(-6,-14) scale(1,1)"><g><path fill="none" stroke="none"/><text fill="#000000" stroke="none" font-family="Arial" font-size="13px" font-style="normal" font-weight="bold" text-decoration="none" x="170.146728515625" y="1006.5">Người quản trị</text></g></g><g transform="translate(-6,-14) scale(1,1)"><path fill="#ffffff" stroke="none" d="M 1399.3135481178977 91.89 C 1399.3135481178977 85.875618528 1404.1348710025522 81 1410.082275390625 81 C 1416.0296797786978 81 1420.8510026633523 85.875618528 1420.8510026633523 91.89 C 1420.8510026633523 97.904381472 1416.0296797786978 102.78 1410.082275390625 102.78 C 1404.1348710025522 102.78 1399.3135481178977 97.904381472 1399.3135481178977 91.89 Z"/></g><g transform="translate(-6,-14) scale(1,1)"><path fill="none" stroke="#000000" d="M 1399.3135481178977 91.89 C 1399.3135481178977 85.875618528 1404.1348710025522 81 1410.082275390625 81 C 1416.0296797786978 81 1420.8510026633523 85.875618528 1420.8510026633523 91.89 C 1420.8510026633523 97.904381472 1416.0296797786978 102.78 1410.082275390625 102.78 C 1404.1348710025522 102.78 1399.3135481178977 97.904381472 1399.3135481178977 91.89 Z" stroke-miterlimit="10"/></g><g transform="translate(-6,-14) scale(1,1)"><path fill="none" stroke="#000000" d="M 1410.082275390625 102.78 L 1410.082275390625 124.22" stroke-miterlimit="10"/></g><g transform="translate(-6,-14) scale(1,1)"><path fill="none" stroke="#000000" d="M 1398.6800935724432 110.82 L 1421.4844572088068 110.82" stroke-miterlimit="10"/></g><g transform="translate(-6,-14) scale(1,1)"><path fill="none" stroke="#000000" d="M 1410.082275390625 124.22 L 1394.2459117542612 146" stroke-miterlimit="10"/></g><g transform="translate(-6,-14) scale(1,1)"><path fill="none" stroke="#000000" d="M 1410.082275390625 124.22 L 1425.9186390269888 146" stroke-miterlimit="10"/></g><g transform="translate(-6,-14) scale(1,1)"><g><path fill="none" stroke="none"/><text fill="#000000" stroke="none" font-family="Arial" font-size="13px" font-style="normal" font-weight="bold" text-decoration="none" x="1378.27734375" y="166.5">Ngân hàng</text></g></g><g transform="translate(-6,-14) scale(1,1)"><path fill="#C0C0C0" stroke="none" d="M 1023 369 C 1023 354.6405952 1067.77152 343 1123 343 C 1178.22848 343 1223 354.6405952 1223 369 C 1223 383.3594048 1178.22848 395 1123 395 C 1067.77152 395 1023 383.3594048 1023 369 Z" opacity="0.2"/></g><g transform="translate(-6,-14) scale(1,1)"><path fill="#ffffff" stroke="none" d="M 1016 362 C 1016 347.6405952 1060.77152 336 1116 336 C 1171.22848 336 1216 347.6405952 1216 362 C 1216 376.3594048 1171.22848 388 1116 388 C 1060.77152 388 1016 376.3594048 1016 362 Z"/></g><g transform="translate(-6,-14) scale(1,1)"><path fill="none" stroke="#000000" d="M 1016 362 C 1016 347.6405952 1060.77152 336 1116 336 C 1171.22848 336 1216 347.6405952 1216 362 C 1216 376.3594048 1171.22848 388 1116 388 C 1060.77152 388 1016 376.3594048 1016 362 Z" stroke-miterlimit="10"/></g><g transform="translate(-6,-14) scale(1,1)"><g><path fill="none" stroke="none"/><text fill="#000000" stroke="none" font-family="Arial" font-size="13px" font-style="normal" font-weight="bold" text-decoration="none" x="1057.44921875" y="362.5">Thanh toán trực tiếp</text><text fill="#000000" stroke="none" font-family="Arial" font-size="13px" font-style="normal" font-weight="bold" text-decoration="none" x="1080.9482421875" y="375.5">tại nhà sách</text></g></g><g transform="translate(-6,-14) scale(1,1)"><path fill="#C0C0C0" stroke="none" d="M 783 289 C 783 274.6405952 813.4446336 263 851 263 C 888.5553664 263 919 274.6405952 919 289 C 919 303.3594048 888.5553664 315 851 315 C 813.4446336 315 783 303.3594048 783 289 Z" opacity="0.2"/></g><g transform="translate(-6,-14) scale(1,1)"><path fill="#ffffff" stroke="none" d="M 776 282 C 776 267.6405952 806.4446336 256 844 256 C 881.5553664 256 912 267.6405952 912 282 C 912 296.3594048 881.5553664 308 844 308 C 806.4446336 308 776 296.3594048 776 282 Z"/></g><g transform="translate(-6,-14) scale(1,1)"><path fill="none" stroke="#000000" d="M 776 282 C 776 267.6405952 806.4446336 256 844 256 C 881.5553664 256 912 267.6405952 912 282 C 912 296.3594048 881.5553664 308 844 308 C 806.4446336 308 776 296.3594048 776 282 Z" stroke-miterlimit="10"/></g><g transform="translate(-6,-14) scale(1,1)"><g><path fill="none" stroke="none"/><text fill="#000000" stroke="none" font-family="Arial" font-size="13px" font-style="normal" font-weight="bold" text-decoration="none" x="811.11279296875" y="282.5">Thanh toán</text><text fill="#000000" stroke="none" font-family="Arial" font-size="13px" font-style="normal" font-weight="bold" text-decoration="none" x="816.24169921875" y="295.5">đơn hàng</text></g></g><g transform="translate(-6,-14) scale(1,1)"><path fill="#C0C0C0" stroke="none" d="M 975 130.5 C 975 110.8938896 1023.3532416 95 1083 95 C 1142.6467584 95 1191 110.8938896 1191 130.5 C 1191 150.1061104 1142.6467584 166 1083 166 C 1023.3532416 166 975 150.1061104 975 130.5 Z" opacity="0.2"/></g><g transform="translate(-6,-14) scale(1,1)"><path fill="#ffffff" stroke="none" d="M 968 123.5 C 968 103.8938896 1016.3532416 88 1076 88 C 1135.6467584 88 1184 103.8938896 1184 123.5 C 1184 143.1061104 1135.6467584 159 1076 159 C 1016.3532416 159 968 143.1061104 968 123.5 Z"/></g><g transform="translate(-6,-14) scale(1,1)"><path fill="none" stroke="#000000" d="M 968 123.5 C 968 103.8938896 1016.3532416 88 1076 88 C 1135.6467584 88 1184 103.8938896 1184 123.5 C 1184 143.1061104 1135.6467584 159 1076 159 C 1016.3532416 159 968 143.1061104 968 123.5 Z" stroke-miterlimit="10"/></g><g transform="translate(-6,-14) scale(1,1)"><g><path fill="none" stroke="none"/><text fill="#000000" stroke="none" font-family="Arial" font-size="13px" font-style="normal" font-weight="bold" text-decoration="none" x="1012.0283203125" y="124">Thanh toán trực tuyến</text><text fill="#000000" stroke="none" font-family="Arial" font-size="13px" font-style="normal" font-weight="bold" text-decoration="none" x="1032.623291015625" y="137">qua ngân hàng</text></g></g><g transform="translate(-6,-14) scale(1,1)"><path fill="#C0C0C0" stroke="none" d="M 391 331 C 391 319.954304 421.4446336 311 459 311 C 496.5553664 311 527 319.954304 527 331 C 527 342.045696 496.5553664 351 459 351 C 421.4446336 351 391 342.045696 391 331 Z" opacity="0.2"/></g><g transform="translate(-6,-14) scale(1,1)"><path fill="#ffffff" stroke="none" d="M 384 324 C 384 312.954304 414.4446336 304 452 304 C 489.5553664 304 520 312.954304 520 324 C 520 335.045696 489.5553664 344 452 344 C 414.4446336 344 384 335.045696 384 324 Z"/></g><g transform="translate(-6,-14) scale(1,1)"><path fill="none" stroke="#000000" d="M 384 324 C 384 312.954304 414.4446336 304 452 304 C 489.5553664 304 520 312.954304 520 324 C 520 335.045696 489.5553664 344 452 344 C 414.4446336 344 384 335.045696 384 324 Z" stroke-miterlimit="10"/></g><g transform="translate(-6,-14) scale(1,1)"><g><path fill="none" stroke="none"/><text fill="#000000" stroke="none" font-family="Arial" font-size="13px" font-style="normal" font-weight="bold" text-decoration="none" x="413.93310546875" y="331">Tra cứu sách</text></g></g><g transform="translate(-6,-14) scale(1,1)"><path fill="#C0C0C0" stroke="none" d="M 767 159 C 767 145.7451648 798.5639216 135 837.5 135 C 876.4360784 135 908 145.7451648 908 159 C 908 172.2548352 876.4360784 183 837.5 183 C 798.5639216 183 767 172.2548352 767 159 Z" opacity="0.2"/></g><g transform="translate(-6,-14) scale(1,1)"><path fill="#ffffff" stroke="none" d="M 760 152 C 760 138.7451648 791.5639216 128 830.5 128 C 869.4360784 128 901 138.7451648 901 152 C 901 165.2548352 869.4360784 176 830.5 176 C 791.5639216 176 760 165.2548352 760 152 Z"/></g><g transform="translate(-6,-14) scale(1,1)"><path fill="none" stroke="#000000" d="M 760 152 C 760 138.7451648 791.5639216 128 830.5 128 C 869.4360784 128 901 138.7451648 901 152 C 901 165.2548352 869.4360784 176 830.5 176 C 791.5639216 176 760 165.2548352 760 152 Z" stroke-miterlimit="10"/></g><g transform="translate(-6,-14) scale(1,1)"><g><path fill="none" stroke="none"/><text fill="#000000" stroke="none" font-family="Arial" font-size="13px" font-style="normal" font-weight="bold" text-decoration="none" x="789.376708984375" y="159">Huỷ đơn hàng</text></g></g><g transform="translate(-6,-14) scale(1,1)"><path fill="#C0C0C0" stroke="none" d="M 591 247 C 591 233.7451648 616.0720512 223 647 223 C 677.9279488 223 703 233.7451648 703 247 C 703 260.2548352 677.9279488 271 647 271 C 616.0720512 271 591 260.2548352 591 247 Z" opacity="0.2"/></g><g transform="translate(-6,-14) scale(1,1)"><path fill="#ffffff" stroke="none" d="M 584 240 C 584 226.7451648 609.0720512 216 640 216 C 670.9279488 216 696 226.7451648 696 240 C 696 253.2548352 670.9279488 264 640 264 C 609.0720512 264 584 253.2548352 584 240 Z"/></g><g transform="translate(-6,-14) scale(1,1)"><path fill="none" stroke="#000000" d="M 584 240 C 584 226.7451648 609.0720512 216 640 216 C 670.9279488 216 696 226.7451648 696 240 C 696 253.2548352 670.9279488 264 640 264 C 609.0720512 264 584 253.2548352 584 240 Z" stroke-miterlimit="10"/></g><g transform="translate(-6,-14) scale(1,1)"><g><path fill="none" stroke="none"/><text fill="#000000" stroke="none" font-family="Arial" font-size="13px" font-style="normal" font-weight="bold" text-decoration="none" x="613.619140625" y="247">Đặt hàng</text></g></g><g transform="translate(-6,-14) scale(1,1)"><path fill="#C0C0C0" stroke="none" d="M 503 883 C 503 867.5360256 554.9349632 855 619 855 C 683.0650368 855 735 867.5360256 735 883 C 735 898.4639744 683.0650368 911 619 911 C 554.9349632 911 503 898.4639744 503 883 Z" opacity="0.2"/></g><g transform="translate(-6,-14) scale(1,1)"><path fill="#ffffff" stroke="none" d="M 496 876 C 496 860.5360256 547.9349632 848 612 848 C 676.0650368 848 728 860.5360256 728 876 C 728 891.4639744 676.0650368 904 612 904 C 547.9349632 904 496 891.4639744 496 876 Z"/></g><g transform="translate(-6,-14) scale(1,1)"><path fill="none" stroke="#000000" d="M 496 876 C 496 860.5360256 547.9349632 848 612 848 C 676.0650368 848 728 860.5360256 728 876 C 728 891.4639744 676.0650368 904 612 904 C 547.9349632 904 496 891.4639744 496 876 Z" stroke-miterlimit="10"/></g><g transform="translate(-6,-14) scale(1,1)"><g><path fill="none" stroke="none"/><text fill="#000000" stroke="none" font-family="Arial" font-size="13px" font-style="normal" font-weight="bold" text-decoration="none" x="552.017822265625" y="876.5">Thay đổi quy định số</text><text fill="#000000" stroke="none" font-family="Arial" font-size="13px" font-style="normal" font-weight="bold" text-decoration="none" x="546.647705078125" y="889.5">lượng nhập và tồn kho</text></g></g><g transform="translate(-6,-14) scale(1,1)"><path fill="#C0C0C0" stroke="none" d="M 383 985 C 383 970.6405952 405.6096176 959 433.5 959 C 461.3903824 959 484 970.6405952 484 985 C 484 999.3594048 461.3903824 1011 433.5 1011 C 405.6096176 1011 383 999.3594048 383 985 Z" opacity="0.2"/></g><g transform="translate(-6,-14) scale(1,1)"><path fill="#ffffff" stroke="none" d="M 376 978 C 376 963.6405952 398.6096176 952 426.5 952 C 454.3903824 952 477 963.6405952 477 978 C 477 992.3594048 454.3903824 1004 426.5 1004 C 398.6096176 1004 376 992.3594048 376 978 Z"/></g><g transform="translate(-6,-14) scale(1,1)"><path fill="none" stroke="#000000" d="M 376 978 C 376 963.6405952 398.6096176 952 426.5 952 C 454.3903824 952 477 963.6405952 477 978 C 477 992.3594048 454.3903824 1004 426.5 1004 C 398.6096176 1004 376 992.3594048 376 978 Z" stroke-miterlimit="10"/></g><g transform="translate(-6,-14) scale(1,1)"><g><path fill="none" stroke="none"/><text fill="#000000" stroke="none" font-family="Arial" font-size="13px" font-style="normal" font-weight="bold" text-decoration="none" x="401.569580078125" y="978.5">Thay đổi</text><text fill="#000000" stroke="none" font-family="Arial" font-size="13px" font-style="normal" font-weight="bold" text-decoration="none" x="401.925048828125" y="991.5">quy định</text></g></g><g transform="translate(-6,-14) scale(1,1)"><path fill="#C0C0C0" stroke="none" d="M 567 979 C 567 963.5360256 606.3989376 951 655 951 C 703.6010624 951 743 963.5360256 743 979 C 743 994.4639744 703.6010624 1007 655 1007 C 606.3989376 1007 567 994.4639744 567 979 Z" opacity="0.2"/></g><g transform="translate(-6,-14) scale(1,1)"><path fill="#ffffff" stroke="none" d="M 560 972 C 560 956.5360256 599.3989376 944 648 944 C 696.6010624 944 736 956.5360256 736 972 C 736 987.4639744 696.6010624 1000 648 1000 C 599.3989376 1000 560 987.4639744 560 972 Z"/></g><g transform="translate(-6,-14) scale(1,1)"><path fill="none" stroke="#000000" d="M 560 972 C 560 956.5360256 599.3989376 944 648 944 C 696.6010624 944 736 956.5360256 736 972 C 736 987.4639744 696.6010624 1000 648 1000 C 599.3989376 1000 560 987.4639744 560 972 Z" stroke-miterlimit="10"/></g><g transform="translate(-6,-14) scale(1,1)"><g><path fill="none" stroke="none"/><text fill="#000000" stroke="none" font-family="Arial" font-size="13px" font-style="normal" font-weight="bold" text-decoration="none" x="596.688720703125" y="972.5">Thay đổi quy định</text><text fill="#000000" stroke="none" font-family="Arial" font-size="13px" font-style="normal" font-weight="bold" text-decoration="none" x="597.193359375" y="985.5">thời gian huỷ đơn</text></g></g><g transform="translate(-6,-14) scale(1,1)"><path fill="#C0C0C0" stroke="none" d="M 879 681 C 879 666.6405952 903.624336 655 934 655 C 964.375664 655 989 666.6405952 989 681 C 989 695.3594048 964.375664 707 934 707 C 903.624336 707 879 695.3594048 879 681 Z" opacity="0.2"/></g><g transform="translate(-6,-14) scale(1,1)"><path fill="#ffffff" stroke="none" d="M 872 674 C 872 659.6405952 896.624336 648 927 648 C 957.375664 648 982 659.6405952 982 674 C 982 688.3594048 957.375664 700 927 700 C 896.624336 700 872 688.3594048 872 674 Z"/></g><g transform="translate(-6,-14) scale(1,1)"><path fill="none" stroke="#000000" d="M 872 674 C 872 659.6405952 896.624336 648 927 648 C 957.375664 648 982 659.6405952 982 674 C 982 688.3594048 957.375664 700 927 700 C 896.624336 700 872 688.3594048 872 674 Z" stroke-miterlimit="10"/></g><g transform="translate(-6,-14) scale(1,1)"><g><path fill="none" stroke="none"/><text fill="#000000" stroke="none" font-family="Arial" font-size="13px" font-style="normal" font-weight="bold" text-decoration="none" x="913.635009765625" y="674.5">Xem</text><text fill="#000000" stroke="none" font-family="Arial" font-size="13px" font-style="normal" font-weight="bold" text-decoration="none" x="902.063232421875" y="687.5">thống kê</text></g></g><g transform="translate(-6,-14) scale(1,1)"><path fill="#C0C0C0" stroke="none" d="M 367 617 C 367 602.6405952 408.1897984 591 459 591 C 509.8102016 591 551 602.6405952 551 617 C 551 631.3594048 509.8102016 643 459 643 C 408.1897984 643 367 631.3594048 367 617 Z" opacity="0.2"/></g><g transform="translate(-6,-14) scale(1,1)"><path fill="#ffffff" stroke="none" d="M 360 610 C 360 595.6405952 401.1897984 584 452 584 C 502.8102016 584 544 595.6405952 544 610 C 544 624.3594048 502.8102016 636 452 636 C 401.1897984 636 360 624.3594048 360 610 Z"/></g><g transform="translate(-6,-14) scale(1,1)"><path fill="none" stroke="#000000" d="M 360 610 C 360 595.6405952 401.1897984 584 452 584 C 502.8102016 584 544 595.6405952 544 610 C 544 624.3594048 502.8102016 636 452 636 C 401.1897984 636 360 624.3594048 360 610 Z" stroke-miterlimit="10"/></g><g transform="translate(-6,-14) scale(1,1)"><g><path fill="none" stroke="none"/><text fill="#000000" stroke="none" font-family="Arial" font-size="13px" font-style="normal" font-weight="bold" text-decoration="none" x="396.353271484375" y="617">Nhập sách vào kho</text></g></g><g transform="translate(-6,-14) scale(1,1)"><path fill="#C0C0C0" stroke="none" d="M 415 448 C 415 438.6111584 454.3989376 431 503 431 C 551.6010624 431 591 438.6111584 591 448 C 591 457.3888416 551.6010624 465 503 465 C 454.3989376 465 415 457.3888416 415 448 Z" opacity="0.2"/></g><g transform="translate(-6,-14) scale(1,1)"><path fill="#ffffff" stroke="none" d="M 408 441 C 408 431.6111584 447.3989376 424 496 424 C 544.6010624 424 584 431.6111584 584 441 C 584 450.3888416 544.6010624 458 496 458 C 447.3989376 458 408 450.3888416 408 441 Z"/></g><g transform="translate(-6,-14) scale(1,1)"><path fill="none" stroke="#000000" d="M 408 441 C 408 431.6111584 447.3989376 424 496 424 C 544.6010624 424 584 431.6111584 584 441 C 584 450.3888416 544.6010624 458 496 458 C 447.3989376 458 408 450.3888416 408 441 Z" stroke-miterlimit="10"/></g><g transform="translate(-6,-14) scale(1,1)"><g><path fill="none" stroke="none"/><text fill="#000000" stroke="none" font-family="Arial" font-size="13px" font-style="normal" font-weight="bold" text-decoration="none" x="444.326904296875" y="448">Bán sách tại quầy</text></g></g><g transform="translate(-6,-14) scale(1,1)"><path fill="#C0C0C0" stroke="none" d="M 1103 810.5 C 1103 790.8938896 1135.2354944 775 1175 775 C 1214.7645056 775 1247 790.8938896 1247 810.5 C 1247 830.1061104 1214.7645056 846 1175 846 C 1135.2354944 846 1103 830.1061104 1103 810.5 Z" opacity="0.2"/></g><g transform="translate(-6,-14) scale(1,1)"><path fill="#ffffff" stroke="none" d="M 1096 803.5 C 1096 783.8938896 1128.2354944 768 1168 768 C 1207.7645056 768 1240 783.8938896 1240 803.5 C 1240 823.1061104 1207.7645056 839 1168 839 C 1128.2354944 839 1096 823.1061104 1096 803.5 Z"/></g><g transform="translate(-6,-14) scale(1,1)"><path fill="none" stroke="#000000" d="M 1096 803.5 C 1096 783.8938896 1128.2354944 768 1168 768 C 1207.7645056 768 1240 783.8938896 1240 803.5 C 1240 823.1061104 1207.7645056 839 1168 839 C 1128.2354944 839 1096 823.1061104 1096 803.5 Z" stroke-miterlimit="10"/></g><g transform="translate(-6,-14) scale(1,1)"><g><path fill="none" stroke="none"/><text fill="#000000" stroke="none" font-family="Arial" font-size="13px" font-style="normal" font-weight="bold" text-decoration="none" x="1129.701416015625" y="804">Xem tần suất</text><text fill="#000000" stroke="none" font-family="Arial" font-size="13px" font-style="normal" font-weight="bold" text-decoration="none" x="1126.426025390625" y="817">từng đầu sách</text></g></g><g transform="translate(-6,-14) scale(1,1)"><path fill="#C0C0C0" stroke="none" d="M 879 794.5 C 879 774.8938896 913.0263552 759 955 759 C 996.9736448 759 1031 774.8938896 1031 794.5 C 1031 814.1061104 996.9736448 830 955 830 C 913.0263552 830 879 814.1061104 879 794.5 Z" opacity="0.2"/></g><g transform="translate(-6,-14) scale(1,1)"><path fill="#ffffff" stroke="none" d="M 872 787.5 C 872 767.8938896 906.0263552 752 948 752 C 989.9736448 752 1024 767.8938896 1024 787.5 C 1024 807.1061104 989.9736448 823 948 823 C 906.0263552 823 872 807.1061104 872 787.5 Z"/></g><g transform="translate(-6,-14) scale(1,1)"><path fill="none" stroke="#000000" d="M 872 787.5 C 872 767.8938896 906.0263552 752 948 752 C 989.9736448 752 1024 767.8938896 1024 787.5 C 1024 807.1061104 989.9736448 823 948 823 C 906.0263552 823 872 807.1061104 872 787.5 Z" stroke-miterlimit="10"/></g><g transform="translate(-6,-14) scale(1,1)"><g><path fill="none" stroke="none"/><text fill="#000000" stroke="none" font-family="Arial" font-size="13px" font-style="normal" font-weight="bold" text-decoration="none" x="903.912353515625" y="788">Xem doanh thu</text><text fill="#000000" stroke="none" font-family="Arial" font-size="13px" font-style="normal" font-weight="bold" text-decoration="none" x="916.541015625" y="801">từng tháng</text></g></g><g transform="translate(-6,-14) scale(1,1)"><path fill="#ffffff" stroke="none" d="M 201.2312727272727 67.89 C 201.2312727272727 61.875618528000004 206.05259561192727 57 212 57 C 217.94740438807273 57 222.7687272727273 61.875618528000004 222.7687272727273 67.89 C 222.7687272727273 73.904381472 217.94740438807273 78.78 212 78.78 C 206.05259561192727 78.78 201.2312727272727 73.904381472 201.2312727272727 67.89 Z"/></g><g transform="translate(-6,-14) scale(1,1)"><path fill="none" stroke="#000000" d="M 201.2312727272727 67.89 C 201.2312727272727 61.875618528000004 206.05259561192727 57 212 57 C 217.94740438807273 57 222.7687272727273 61.875618528000004 222.7687272727273 67.89 C 222.7687272727273 73.904381472 217.94740438807273 78.78 212 78.78 C 206.05259561192727 78.78 201.2312727272727 73.904381472 201.2312727272727 67.89 Z" stroke-miterlimit="10"/></g><g transform="translate(-6,-14) scale(1,1)"><path fill="none" stroke="#000000" d="M 212 78.78 L 212 100.22" stroke-miterlimit="10"/></g><g transform="translate(-6,-14) scale(1,1)"><path fill="none" stroke="#000000" d="M 200.59781818181818 86.82 L 223.40218181818182 86.82" stroke-miterlimit="10"/></g><g transform="translate(-6,-14) scale(1,1)"><path fill="none" stroke="#000000" d="M 212 100.22 L 196.16363636363636 122" stroke-miterlimit="10"/></g><g transform="translate(-6,-14) scale(1,1)"><path fill="none" stroke="#000000" d="M 212 100.22 L 227.83636363636364 122" stroke-miterlimit="10"/></g><g transform="translate(-6,-14) scale(1,1)"><g><path fill="none" stroke="none"/><text fill="#000000" stroke="none" font-family="Arial" font-size="13px" font-style="normal" font-weight="bold" text-decoration="none" x="177.3671875" y="142.5">Người dùng</text><text fill="#000000" stroke="none" font-family="Arial" font-size="13px" font-style="normal" font-weight="bold" text-decoration="none" x="170.419677734375" y="155.5">chưa xác thực</text></g></g><g transform="translate(-6,-14) scale(1,1)"><path fill="#C0C0C0" stroke="none" d="M 367 112 C 367 102.6111584 391.1766208 95 421 95 C 450.8233792 95 475 102.6111584 475 112 C 475 121.3888416 450.8233792 129 421 129 C 391.1766208 129 367 121.3888416 367 112 Z" opacity="0.2"/></g><g transform="translate(-6,-14) scale(1,1)"><path fill="#ffffff" stroke="none" d="M 360 105 C 360 95.6111584 384.1766208 88 414 88 C 443.8233792 88 468 95.6111584 468 105 C 468 114.3888416 443.8233792 122 414 122 C 384.1766208 122 360 114.3888416 360 105 Z"/></g><g transform="translate(-6,-14) scale(1,1)"><path fill="none" stroke="#000000" d="M 360 105 C 360 95.6111584 384.1766208 88 414 88 C 443.8233792 88 468 95.6111584 468 105 C 468 114.3888416 443.8233792 122 414 122 C 384.1766208 122 360 114.3888416 360 105 Z" stroke-miterlimit="10"/></g><g transform="translate(-6,-14) scale(1,1)"><g><path fill="none" stroke="none"/><text fill="#000000" stroke="none" font-family="Arial" font-size="13px" font-style="normal" font-weight="bold" text-decoration="none" x="382.195068359375" y="112">Đăng nhập</text></g></g><g transform="translate(-6,-14) scale(1,1)"><path fill="none" stroke="#000000" d="M 265 107 L 359 106" stroke-miterlimit="10"/></g><g transform="translate(-6,-14) scale(1,1)"><path fill="none" stroke="#000000" d="M 1022 160 L 883 255" stroke-miterlimit="10"/></g><g transform="translate(-6,-14) scale(1,1)"><path fill="#FFFFFF" stroke="none" d="M 895.0300707470494 236.58051581012685 L 883 255 L 904.5310867800102 250.48200242677484"/></g><g transform="translate(-6,-14) scale(1,1)"><path fill="none" stroke="#000000" d="M 895.0300707470494 236.58051581012685 L 883 255 L 904.5310867800102 250.48200242677484 L 895.0300707470494 236.58051581012685" stroke-miterlimit="10"/></g><g transform="translate(-6,-14) scale(1,1)"><path fill="none" stroke="#000000" d="M 1024 335 L 913 302" stroke-miterlimit="10"/></g><g transform="translate(-6,-14) scale(1,1)"><path fill="#FFFFFF" stroke="none" d="M 934.8817614630153 299.7221687341472 L 913 302 L 930.0834118492879 315.86207198032133"/></g><g transform="translate(-6,-14) scale(1,1)"><path fill="none" stroke="#000000" d="M 934.8817614630153 299.7221687341472 L 913 302 L 930.0834118492879 315.86207198032133 L 934.8817614630153 299.7221687341472" stroke-miterlimit="10"/></g><g transform="translate(-6,-14) scale(1,1)"><path fill="none" stroke="#000000" d="M 159 967 L 16 968 L 16 40 L 159 90" stroke-miterlimit="10"/></g><g transform="translate(-6,-14) scale(1,1)"><path fill="#FFFFFF" stroke="none" d="M 137.03490169992077 91.23873187892151 L 159 90 L 142.5924143309275 75.34424575424222"/></g><g transform="translate(-6,-14) scale(1,1)"><path fill="none" stroke="#000000" d="M 137.03490169992077 91.23873187892151 L 159 90 L 142.5924143309275 75.34424575424222 L 137.03490169992077 91.23873187892151" stroke-miterlimit="10"/></g><g transform="translate(-6,-14) scale(1,1)"><path fill="none" stroke="#000000" d="M 159 319 L 64 320 L 64 184 L 159 135" stroke-miterlimit="10"/></g><g transform="translate(-6,-14) scale(1,1)"><path fill="#FFFFFF" stroke="none" d="M 144.795299777986 151.79959795955594 L 159 135 L 137.07665050988217 136.83486978670155"/></g><g transform="translate(-6,-14) scale(1,1)"><path fill="none" stroke="#000000" d="M 144.795299777986 151.79959795955594 L 159 135 L 137.07665050988217 136.83486978670155 L 144.795299777986 151.79959795955594" stroke-miterlimit="10"/></g><g transform="translate(-6,-14) scale(1,1)"><path fill="none" stroke="#000000" d="M 159 751 L 32 752 L 32 96 L 159 104" stroke-miterlimit="10"/></g><g transform="translate(-6,-14) scale(1,1)"><path fill="#FFFFFF" stroke="none" d="M 138.18557236159154 111.12457732679339 L 159 104 L 139.24414012950115 94.31981401122822"/></g><g transform="translate(-6,-14) scale(1,1)"><path fill="none" stroke="#000000" d="M 138.18557236159154 111.12457732679339 L 159 104 L 139.24414012950115 94.31981401122822 L 138.18557236159154 111.12457732679339" stroke-miterlimit="10"/></g><g transform="translate(-6,-14) scale(1,1)"><path fill="none" stroke="#000000" d="M 159 535 L 48 536 L 48 144 L 159 120" stroke-miterlimit="10"/></g><g transform="translate(-6,-14) scale(1,1)"><path fill="#FFFFFF" stroke="none" d="M 140.91293355594337 132.5242974832236 L 159 120 L 137.35449698565088 116.06652834562091"/></g><g transform="translate(-6,-14) scale(1,1)"><path fill="none" stroke="#000000" d="M 140.91293355594337 132.5242974832236 L 159 120 L 137.35449698565088 116.06652834562091 L 140.91293355594337 132.5242974832236" stroke-miterlimit="10"/></g><g transform="translate(-6,-14) scale(1,1)"><path fill="none" stroke="#000000" d="M 559 905 L 475 951" stroke-miterlimit="10"/></g><g transform="translate(-6,-14) scale(1,1)"><path fill="#FFFFFF" stroke="none" d="M 488.783502510964 933.8531326904811 L 475 951 L 496.8710742446712 948.6217419433377"/></g><g transform="translate(-6,-14) scale(1,1)"><path fill="none" stroke="#000000" d="M 488.783502510964 933.8531326904811 L 475 951 L 496.8710742446712 948.6217419433377 L 488.783502510964 933.8531326904811" stroke-miterlimit="10"/></g><g transform="translate(-6,-14) scale(1,1)"><path fill="none" stroke="#000000" d="M 559 974 L 478 977" stroke-miterlimit="10"/></g><g transform="translate(-6,-14) scale(1,1)"><path fill="#FFFFFF" stroke="none" d="M 497.9998209877528 967.8344579834119 L 478 977 L 498.6230259561367 984.6609921297774"/></g><g transform="translate(-6,-14) scale(1,1)"><path fill="none" stroke="#000000" d="M 497.9998209877528 967.8344579834119 L 478 977 L 498.6230259561367 984.6609921297774 L 497.9998209877528 967.8344579834119" stroke-miterlimit="10"/></g><g transform="translate(-6,-14) scale(1,1)"><path fill="#C0C0C0" stroke="none" d="M 367 200 C 367 190.6111584 414.010096 183 472 183 C 529.989904 183 577 190.6111584 577 200 C 577 209.3888416 529.989904 217 472 217 C 414.010096 217 367 209.3888416 367 200 Z" opacity="0.2"/></g><g transform="translate(-6,-14) scale(1,1)"><path fill="#ffffff" stroke="none" d="M 360 193 C 360 183.6111584 407.010096 176 465 176 C 522.989904 176 570 183.6111584 570 193 C 570 202.3888416 522.989904 210 465 210 C 407.010096 210 360 202.3888416 360 193 Z"/></g><g transform="translate(-6,-14) scale(1,1)"><path fill="none" stroke="#000000" d="M 360 193 C 360 183.6111584 407.010096 176 465 176 C 522.989904 176 570 183.6111584 570 193 C 570 202.3888416 522.989904 210 465 210 C 407.010096 210 360 202.3888416 360 193 Z" stroke-miterlimit="10"/></g><g transform="translate(-6,-14) scale(1,1)"><g><path fill="none" stroke="none"/><text fill="#000000" stroke="none" font-family="Arial" font-size="13px" font-style="normal" font-weight="bold" text-decoration="none" x="400.041259765625" y="200">Đăng ký mới tài khoản</text></g></g><g transform="translate(-6,-14) scale(1,1)"><path fill="none" stroke="#000000" d="M 265 292 L 429 211" stroke-miterlimit="10"/></g><g transform="translate(-6,-14) scale(1,1)"><path fill="none" stroke="#000000" d="M 265 319 L 383 322" stroke-miterlimit="10"/></g><g transform="translate(-6,-14) scale(1,1)"><path fill="none" stroke="#000000" d="M 265 308 L 583 250" stroke-miterlimit="10"/></g><g transform="translate(-6,-14) scale(1,1)"><path fill="none" stroke="#000000" d="M 776 177 L 694 215" stroke-miterlimit="10" stroke-dasharray="3"/></g><g transform="translate(-6,-14) scale(1,1)"><path fill="none" stroke="#000000" d="M 701.4507645900501 206.9076513283438 L 694 215 L 704.9906407881031 214.546331545195" stroke-miterlimit="10"/></g><g transform="translate(-6,-14) scale(1,1)"><g><path fill="none" stroke="none"/><text fill="#000000" stroke="none" font-family="Arial" font-size="13px" font-style="normal" font-weight="normal" text-decoration="none" x="702.5" y="183.5">«extend»</text></g></g><g transform="translate(-6,-14) scale(1,1)"><path fill="none" stroke="#000000" d="M 1359 126 L 1185 124" stroke-miterlimit="10"/></g><g transform="translate(-6,-14) scale(1,1)"><path fill="none" stroke="#000000" d="M 265 969 L 375 975" stroke-miterlimit="10"/></g><g transform="translate(-6,-14) scale(1,1)"><path fill="none" stroke="#000000" d="M 941 751 L 932 701" stroke-miterlimit="10"/></g><g transform="translate(-6,-14) scale(1,1)"><path fill="#FFFFFF" stroke="none" d="M 943.8865709987467 719.5124128598018 L 932 701 L 927.3148222889783 722.4953276275601"/></g><g transform="translate(-6,-14) scale(1,1)"><path fill="none" stroke="#000000" d="M 943.8865709987467 719.5124128598018 L 932 701 L 927.3148222889783 722.4953276275601 L 943.8865709987467 719.5124128598018" stroke-miterlimit="10"/></g><g transform="translate(-6,-14) scale(1,1)"><path fill="none" stroke="#000000" d="M 1101 767 L 977 701" stroke-miterlimit="10"/></g><g transform="translate(-6,-14) scale(1,1)"><path fill="#FFFFFF" stroke="none" d="M 998.8978126902722 703.1179705809467 L 977 701 L 990.9864604863033 717.9817232065853"/></g><g transform="translate(-6,-14) scale(1,1)"><path fill="none" stroke="#000000" d="M 998.8978126902722 703.1179705809467 L 977 701 L 990.9864604863033 717.9817232065853 L 998.8978126902722 703.1179705809467" stroke-miterlimit="10"/></g><g transform="translate(-6,-14) scale(1,1)"><path fill="none" stroke="#000000" d="M 265 944 L 871 697" stroke-miterlimit="10"/></g><g transform="translate(-6,-14) scale(1,1)"><path fill="none" stroke="#000000" d="M 265 719 L 406 637" stroke-miterlimit="10"/></g><g transform="translate(-6,-14) scale(1,1)"><path fill="none" stroke="#000000" d="M 265 517 L 441 459" stroke-miterlimit="10"/></g><g transform="translate(-6,-14) scale(1,1)"><path fill="none" stroke="#000000" d="M 697 252 L 775 268" stroke-miterlimit="10" stroke-dasharray="3"/></g><g transform="translate(-6,-14) scale(1,1)"><path fill="none" stroke="#000000" d="M 764.1987383227677 270.081524965008 L 775 268 L 765.8904942046923 261.8342150406248" stroke-miterlimit="10"/></g><g transform="translate(-6,-14) scale(1,1)"><g><path fill="none" stroke="none"/><text fill="#000000" stroke="none" font-family="Arial" font-size="13px" font-style="normal" font-weight="normal" text-decoration="none" x="715.5" y="252.5">«include»</text></g></g><g transform="translate(-6,-14) scale(1,1)"><path fill="#C0C0C0" stroke="none" d="M 599 528 C 599 518.6111584 642.652232 511 696.5 511 C 750.347768 511 794 518.6111584 794 528 C 794 537.3888416 750.347768 545 696.5 545 C 642.652232 545 599 537.3888416 599 528 Z" opacity="0.2"/></g><g transform="translate(-6,-14) scale(1,1)"><path fill="#ffffff" stroke="none" d="M 592 521 C 592 511.6111584 635.652232 504 689.5 504 C 743.347768 504 787 511.6111584 787 521 C 787 530.3888416 743.347768 538 689.5 538 C 635.652232 538 592 530.3888416 592 521 Z"/></g><g transform="translate(-6,-14) scale(1,1)"><path fill="none" stroke="#000000" d="M 592 521 C 592 511.6111584 635.652232 504 689.5 504 C 743.347768 504 787 511.6111584 787 521 C 787 530.3888416 743.347768 538 689.5 538 C 635.652232 538 592 530.3888416 592 521 Z" stroke-miterlimit="10"/></g><g transform="translate(-6,-14) scale(1,1)"><g><path fill="none" stroke="none"/><text fill="#000000" stroke="none" font-family="Arial" font-size="13px" font-style="normal" font-weight="bold" text-decoration="none" x="629.143310546875" y="528">Lập phiếu nhập sách</text></g></g><g transform="translate(-6,-14) scale(1,1)"><path fill="none" stroke="#000000" d="M 524 583 L 641 539" stroke-miterlimit="10" stroke-dasharray="3"/></g><g transform="translate(-6,-14) scale(1,1)"><path fill="none" stroke="#000000" d="M 632.9694865833815 546.5173701695147 L 641 539 L 630.0059860831461 538.6371529302528" stroke-miterlimit="10"/></g><g transform="translate(-6,-14) scale(1,1)"><g><path fill="none" stroke="none"/><text fill="#000000" stroke="none" font-family="Arial" font-size="13px" font-style="normal" font-weight="normal" text-decoration="none" x="538.5" y="552.5">«include»</text></g></g><g transform="translate(-6,-14) scale(1,1)"><path fill="#C0C0C0" stroke="none" d="M 783 408 C 783 398.6111584 829.7862384 391 887.5 391 C 945.2137616 391 992 398.6111584 992 408 C 992 417.3888416 945.2137616 425 887.5 425 C 829.7862384 425 783 417.3888416 783 408 Z" opacity="0.2"/></g><g transform="translate(-6,-14) scale(1,1)"><path fill="#ffffff" stroke="none" d="M 776 401 C 776 391.6111584 822.7862384 384 880.5 384 C 938.2137616 384 985 391.6111584 985 401 C 985 410.3888416 938.2137616 418 880.5 418 C 822.7862384 418 776 410.3888416 776 401 Z"/></g><g transform="translate(-6,-14) scale(1,1)"><path fill="none" stroke="#000000" d="M 776 401 C 776 391.6111584 822.7862384 384 880.5 384 C 938.2137616 384 985 391.6111584 985 401 C 985 410.3888416 938.2137616 418 880.5 418 C 822.7862384 418 776 410.3888416 776 401 Z" stroke-miterlimit="10"/></g><g transform="translate(-6,-14) scale(1,1)"><g><path fill="none" stroke="none"/><text fill="#000000" stroke="none" font-family="Arial" font-size="13px" font-style="normal" font-weight="bold" text-decoration="none" x="815.51904296875" y="408">Lập hoá đơn bán sách</text></g></g><g transform="translate(-6,-14) scale(1,1)"><path fill="none" stroke="#000000" d="M 585 432 L 775 412" stroke-miterlimit="10" stroke-dasharray="3"/></g><g transform="translate(-6,-14) scale(1,1)"><path fill="none" stroke="#000000" d="M 765.333836897039 417.2502657901247 L 775 412 L 764.4524919786121 408.87748906506994" stroke-miterlimit="10"/></g><g transform="translate(-6,-14) scale(1,1)"><g><path fill="none" stroke="none"/><text fill="#000000" stroke="none" font-family="Arial" font-size="13px" font-style="normal" font-weight="normal" text-decoration="none" x="639.5" y="412.5">«include»</text></g></g><g transform="translate(-6,-14) scale(1,1)"><path fill="#C0C0C0" stroke="none" d="M 383 711 C 383 697.7451648 415.2354944 687 455 687 C 494.7645056 687 527 697.7451648 527 711 C 527 724.2548352 494.7645056 735 455 735 C 415.2354944 735 383 724.2548352 383 711 Z" opacity="0.2"/></g><g transform="translate(-6,-14) scale(1,1)"><path fill="#ffffff" stroke="none" d="M 376 704 C 376 690.7451648 408.2354944 680 448 680 C 487.7645056 680 520 690.7451648 520 704 C 520 717.2548352 487.7645056 728 448 728 C 408.2354944 728 376 717.2548352 376 704 Z"/></g><g transform="translate(-6,-14) scale(1,1)"><path fill="none" stroke="#000000" d="M 376 704 C 376 690.7451648 408.2354944 680 448 680 C 487.7645056 680 520 690.7451648 520 704 C 520 717.2548352 487.7645056 728 448 728 C 408.2354944 728 376 717.2548352 376 704 Z" stroke-miterlimit="10"/></g><g transform="translate(-6,-14) scale(1,1)"><g><path fill="none" stroke="none"/><text fill="#000000" stroke="none" font-family="Arial" font-size="13px" font-style="normal" font-weight="bold" text-decoration="none" x="409.3427734375" y="711">Quản trị sách</text></g></g><g transform="translate(-6,-14) scale(1,1)"><path fill="#ffffff" stroke="none" d="M 656 600 L 757 600 L 767 610 L 767 668 L 656 668 L 656 600"/></g><g transform="translate(-6,-14) scale(1,1)"><path fill="none" stroke="#000000" d="M 656 600 L 757 600 L 767 610 L 767 668 L 656 668 L 656 600 L 656 600" stroke-miterlimit="10"/></g><g transform="translate(-6,-14) scale(1,1)"><path fill="none" stroke="#000000" d="M 757 600 L 757 610 L 767 610 L 757 600" stroke-miterlimit="10"/></g><g transform="translate(-6,-14) scale(1,1)"><g><path fill="none" stroke="none"/><text fill="#000000" stroke="none" font-family="Arial" font-size="13px" font-style="normal" font-weight="normal" text-decoration="none" x="661" y="618">- Thêm sách</text></g></g><g transform="translate(-6,-14) scale(1,1)"><g><path fill="none" stroke="none"/><text fill="#000000" stroke="none" font-family="Arial" font-size="13px" font-style="normal" font-weight="normal" text-decoration="none" x="661" y="633">- Xoá sách</text></g></g><g transform="translate(-6,-14) scale(1,1)"><g><path fill="none" stroke="none"/><text fill="#000000" stroke="none" font-family="Arial" font-size="13px" font-style="normal" font-weight="normal" text-decoration="none" x="661" y="648">- Cập nhật sách</text></g></g><g transform="translate(-6,-14) scale(1,1)"><g><path fill="none" stroke="none"/><text fill="#000000" stroke="none" font-family="Arial" font-size="13px" font-style="normal" font-weight="normal" text-decoration="none" x="661" y="663">- Tìm kiếm sách</text></g></g><g transform="translate(-6,-14) scale(1,1)"><path fill="none" stroke="#000000" d="M 521 685 L 655 649" stroke-miterlimit="10" stroke-dasharray="3"/></g><g transform="translate(-6,-14) scale(1,1)"><path fill="#ffffff" stroke="none" d="M 848 480 L 933 480 L 943 490 L 943 578 L 848 578 L 848 480"/></g><g transform="translate(-6,-14) scale(1,1)"><path fill="none" stroke="#000000" d="M 848 480 L 933 480 L 943 490 L 943 578 L 848 578 L 848 480 L 848 480" stroke-miterlimit="10"/></g><g transform="translate(-6,-14) scale(1,1)"><path fill="none" stroke="#000000" d="M 933 480 L 933 490 L 943 490 L 933 480" stroke-miterlimit="10"/></g><g transform="translate(-6,-14) scale(1,1)"><g><path fill="none" stroke="none"/><text fill="#000000" stroke="none" font-family="Arial" font-size="13px" font-style="normal" font-weight="normal" text-decoration="none" x="853" y="498">+ Ngày nhập</text></g></g><g transform="translate(-6,-14) scale(1,1)"><g><path fill="none" stroke="none"/><text fill="#000000" stroke="none" font-family="Arial" font-size="13px" font-style="normal" font-weight="normal" text-decoration="none" x="853" y="513">+ STT</text></g></g><g transform="translate(-6,-14) scale(1,1)"><g><path fill="none" stroke="none"/><text fill="#000000" stroke="none" font-family="Arial" font-size="13px" font-style="normal" font-weight="normal" text-decoration="none" x="853" y="528">+ Sách</text></g></g><g transform="translate(-6,-14) scale(1,1)"><g><path fill="none" stroke="none"/><text fill="#000000" stroke="none" font-family="Arial" font-size="13px" font-style="normal" font-weight="normal" text-decoration="none" x="853" y="543">+ Thể loại</text></g></g><g transform="translate(-6,-14) scale(1,1)"><g><path fill="none" stroke="none"/><text fill="#000000" stroke="none" font-family="Arial" font-size="13px" font-style="normal" font-weight="normal" text-decoration="none" x="853" y="558">+ Tác giả</text></g></g><g transform="translate(-6,-14) scale(1,1)"><g><path fill="none" stroke="none"/><text fill="#000000" stroke="none" font-family="Arial" font-size="13px" font-style="normal" font-weight="normal" text-decoration="none" x="853" y="573">+ Số lượng</text></g></g><g transform="translate(-6,-14) scale(1,1)"><path fill="none" stroke="#000000" d="M 788 525 L 847 527" stroke-miterlimit="10" stroke-dasharray="3"/></g><g transform="translate(-6,-14) scale(1,1)"><path fill="#ffffff" stroke="none" d="M 1088 464 L 1237 464 L 1247 474 L 1247 615 L 1088 615 L 1088 464"/></g><g transform="translate(-6,-14) scale(1,1)"><path fill="none" stroke="#000000" d="M 1088 464 L 1237 464 L 1247 474 L 1247 615 L 1088 615 L 1088 464 L 1088 464" stroke-miterlimit="10"/></g><g transform="translate(-6,-14) scale(1,1)"><path fill="none" stroke="#000000" d="M 1237 464 L 1237 474 L 1247 474 L 1237 464" stroke-miterlimit="10"/></g><g transform="translate(-6,-14) scale(1,1)"><g><path fill="none" stroke="none"/><text fill="#000000" stroke="none" font-family="Arial" font-size="13px" font-style="normal" font-weight="normal" text-decoration="none" x="1093" y="482">+ Họ tên khách hàng</text></g></g><g transform="translate(-6,-14) scale(1,1)"><g><path fill="none" stroke="none"/><text fill="#000000" stroke="none" font-family="Arial" font-size="13px" font-style="normal" font-weight="normal" text-decoration="none" x="1093" y="497">+ Ngày lập hoá đơn</text></g></g><g transform="translate(-6,-14) scale(1,1)"><g><path fill="none" stroke="none"/><text fill="#000000" stroke="none" font-family="Arial" font-size="13px" font-style="normal" font-weight="normal" text-decoration="none" x="1093" y="512">+ Ngày nhập</text></g></g><g transform="translate(-6,-14) scale(1,1)"><g><path fill="none" stroke="none"/><text fill="#000000" stroke="none" font-family="Arial" font-size="13px" font-style="normal" font-weight="normal" text-decoration="none" x="1093" y="527">+ STT</text></g></g><g transform="translate(-6,-14) scale(1,1)"><g><path fill="none" stroke="none"/><text fill="#000000" stroke="none" font-family="Arial" font-size="13px" font-style="normal" font-weight="normal" text-decoration="none" x="1093" y="542">+ Sách</text></g></g><g transform="translate(-6,-14) scale(1,1)"><g><path fill="none" stroke="none"/><text fill="#000000" stroke="none" font-family="Arial" font-size="13px" font-style="normal" font-weight="normal" text-decoration="none" x="1093" y="557">+ Thể loại</text></g></g><g transform="translate(-6,-14) scale(1,1)"><g><path fill="none" stroke="none"/><text fill="#000000" stroke="none" font-family="Arial" font-size="13px" font-style="normal" font-weight="normal" text-decoration="none" x="1093" y="572">+ Số lượng</text></g></g><g transform="translate(-6,-14) scale(1,1)"><g><path fill="none" stroke="none"/><text fill="#000000" stroke="none" font-family="Arial" font-size="13px" font-style="normal" font-weight="normal" text-decoration="none" x="1093" y="587">+ Đơn giá</text></g></g><g transform="translate(-6,-14) scale(1,1)"><g><path fill="none" stroke="none"/><text fill="#000000" stroke="none" font-family="Arial" font-size="13px" font-style="normal" font-weight="normal" text-decoration="none" x="1093" y="602">+ Nhân viên thanh toán</text></g></g><g transform="translate(-6,-14) scale(1,1)"><path fill="none" stroke="#000000" d="M 917 419 L 1087 501" stroke-miterlimit="10" stroke-dasharray="3"/></g><g transform="translate(-6,-14) scale(1,1)"><path fill="#ffffff" stroke="none" d="M 768 864 L 877 864 L 887 874 L 887 990 L 768 990 L 768 864"/></g><g transform="translate(-6,-14) scale(1,1)"><path fill="none" stroke="#000000" d="M 768 864 L 877 864 L 887 874 L 887 990 L 768 990 L 768 864 L 768 864" stroke-miterlimit="10"/></g><g transform="translate(-6,-14) scale(1,1)"><path fill="none" stroke="#000000" d="M 877 864 L 877 874 L 887 874 L 877 864" stroke-miterlimit="10"/></g><g transform="translate(-6,-14) scale(1,1)"><g><path fill="none" stroke="none"/><text fill="#000000" stroke="none" font-family="Arial" font-size="13px" font-style="normal" font-weight="normal" text-decoration="none" x="773" y="882">+ Tháng</text></g></g><g transform="translate(-6,-14) scale(1,1)"><g><path fill="none" stroke="none"/><text fill="#000000" stroke="none" font-family="Arial" font-size="13px" font-style="normal" font-weight="normal" text-decoration="none" x="773" y="897">+ STT</text></g></g><g transform="translate(-6,-14) scale(1,1)"><g><path fill="none" stroke="none"/><text fill="#000000" stroke="none" font-family="Arial" font-size="13px" font-style="normal" font-weight="normal" text-decoration="none" x="773" y="912">+ Thể loại sách</text></g></g><g transform="translate(-6,-14) scale(1,1)"><g><path fill="none" stroke="none"/><text fill="#000000" stroke="none" font-family="Arial" font-size="13px" font-style="normal" font-weight="normal" text-decoration="none" x="773" y="927">+ Doanh thu</text></g></g><g transform="translate(-6,-14) scale(1,1)"><g><path fill="none" stroke="none"/><text fill="#000000" stroke="none" font-family="Arial" font-size="13px" font-style="normal" font-weight="normal" text-decoration="none" x="773" y="942">+ Số lượt thuê</text></g></g><g transform="translate(-6,-14) scale(1,1)"><g><path fill="none" stroke="none"/><text fill="#000000" stroke="none" font-family="Arial" font-size="13px" font-style="normal" font-weight="normal" text-decoration="none" x="773" y="957">+ Tỷ lệ</text></g></g><g transform="translate(-6,-14) scale(1,1)"><g><path fill="none" stroke="none"/><text fill="#000000" stroke="none" font-family="Arial" font-size="13px" font-style="normal" font-weight="normal" text-decoration="none" x="773" y="972">+ Tổng doanh thu</text></g></g><g transform="translate(-6,-14) scale(1,1)"><path fill="none" stroke="#000000" d="M 916 824 L 883 863" stroke-miterlimit="10" stroke-dasharray="3"/></g><g transform="translate(-6,-14) scale(1,1)"><path fill="#ffffff" stroke="none" d="M 1016 888 L 1093 888 L 1103 898 L 1103 986 L 1016 986 L 1016 888"/></g><g transform="translate(-6,-14) scale(1,1)"><path fill="none" stroke="#000000" d="M 1016 888 L 1093 888 L 1103 898 L 1103 986 L 1016 986 L 1016 888 L 1016 888" stroke-miterlimit="10"/></g><g transform="translate(-6,-14) scale(1,1)"><path fill="none" stroke="#000000" d="M 1093 888 L 1093 898 L 1103 898 L 1093 888" stroke-miterlimit="10"/></g><g transform="translate(-6,-14) scale(1,1)"><g><path fill="none" stroke="none"/><text fill="#000000" stroke="none" font-family="Arial" font-size="13px" font-style="normal" font-weight="normal" text-decoration="none" x="1021" y="906">+ Tháng</text></g></g><g transform="translate(-6,-14) scale(1,1)"><g><path fill="none" stroke="none"/><text fill="#000000" stroke="none" font-family="Arial" font-size="13px" font-style="normal" font-weight="normal" text-decoration="none" x="1021" y="921">+ STT</text></g></g><g transform="translate(-6,-14) scale(1,1)"><g><path fill="none" stroke="none"/><text fill="#000000" stroke="none" font-family="Arial" font-size="13px" font-style="normal" font-weight="normal" text-decoration="none" x="1021" y="936">+ Tên sách</text></g></g><g transform="translate(-6,-14) scale(1,1)"><g><path fill="none" stroke="none"/><text fill="#000000" stroke="none" font-family="Arial" font-size="13px" font-style="normal" font-weight="normal" text-decoration="none" x="1021" y="951">+ Thể loại</text></g></g><g transform="translate(-6,-14) scale(1,1)"><g><path fill="none" stroke="none"/><text fill="#000000" stroke="none" font-family="Arial" font-size="13px" font-style="normal" font-weight="normal" text-decoration="none" x="1021" y="966">+ Số lượng</text></g></g><g transform="translate(-6,-14) scale(1,1)"><g><path fill="none" stroke="none"/><text fill="#000000" stroke="none" font-family="Arial" font-size="13px" font-style="normal" font-weight="normal" text-decoration="none" x="1021" y="981">+ Tỷ lệ</text></g></g><g transform="translate(-6,-14) scale(1,1)"><path fill="none" stroke="#000000" d="M 1138 840 L 1100 887" stroke-miterlimit="10" stroke-dasharray="3"/></g><g transform="translate(-6,-14) scale(1,1)"><path fill="#C0C0C0" stroke="none" d="M 1071 264 C 1071 254.6111584 1101.6684912 247 1139.5 247 C 1177.3315088 247 1208 254.6111584 1208 264 C 1208 273.3888416 1177.3315088 281 1139.5 281 C 1101.6684912 281 1071 273.3888416 1071 264 Z" opacity="0.2"/></g><g transform="translate(-6,-14) scale(1,1)"><path fill="#ffffff" stroke="none" d="M 1064 257 C 1064 247.6111584 1094.6684912 240 1132.5 240 C 1170.3315088 240 1201 247.6111584 1201 257 C 1201 266.3888416 1170.3315088 274 1132.5 274 C 1094.6684912 274 1064 266.3888416 1064 257 Z"/></g><g transform="translate(-6,-14) scale(1,1)"><path fill="none" stroke="#000000" d="M 1064 257 C 1064 247.6111584 1094.6684912 240 1132.5 240 C 1170.3315088 240 1201 247.6111584 1201 257 C 1201 266.3888416 1170.3315088 274 1132.5 274 C 1094.6684912 274 1064 266.3888416 1064 257 Z" stroke-miterlimit="10"/></g><g transform="translate(-6,-14) scale(1,1)"><g><path fill="none" stroke="none"/><text fill="#000000" stroke="none" font-family="Arial" font-size="13px" font-style="normal" font-weight="bold" text-decoration="none" x="1091.376708984375" y="264">Huỷ đơn hàng</text></g></g><g transform="translate(-6,-14) scale(1,1)"><path fill="none" stroke="#000000" d="M 1124 239 L 1091 160" stroke-miterlimit="10" stroke-dasharray="3"/></g><g transform="translate(-6,-14) scale(1,1)"><path fill="none" stroke="#000000" d="M 1098.801400489378 167.75487913537884 L 1091 160 L 1091.0328955648827 170.9999508126996" stroke-miterlimit="10"/></g><g transform="translate(-6,-14) scale(1,1)"><g><path fill="none" stroke="none"/><text fill="#000000" stroke="none" font-family="Arial" font-size="13px" font-style="normal" font-weight="normal" text-decoration="none" x="1052.5" y="216.5">«extend»</text></g></g><g transform="translate(-6,-14) scale(1,1)"><path fill="none" stroke="#000000" d="M 265 740 L 375 718" stroke-miterlimit="10"/></g></g></svg>